<svg width="40" height="40" viewBox="0 0 40 40" fill="none" xmlns="http://www.w3.org/2000/svg">
<rect width="40" height="40" rx="10" fill="black"/>
<path fill-rule="evenodd" clip-rule="evenodd" d="M12.875 26.125C13.4583 26.7083 14.1667 27 15 27C15.8333 27 16.5417 26.7083 17.125 26.125C17.7083 25.5417 18 24.8333 18 24H21.525C21.825 24 22.1167 23.9333 22.4 23.8C22.6833 23.6667 22.9167 23.4833 23.1 23.25L26.575 18.9C26.7083 18.7167 26.8127 18.5207 26.888 18.312C26.9627 18.104 27 17.8833 27 17.65V15C27 14.45 26.8043 13.979 26.413 13.587C26.021 13.1957 25.55 13 25 13H23C22.7167 13 22.4793 13.0957 22.288 13.287C22.096 13.479 22 13.7167 22 14C22 14.2833 22.096 14.5207 22.288 14.712C22.4793 14.904 22.7167 15 23 15H25V17.65L21.5 22H18V18C18 17.7167 17.9043 17.479 17.713 17.287C17.521 17.0957 17.2833 17 17 17H14C12.9 17 11.9583 17.3917 11.175 18.175C10.3917 18.9583 10 19.9 10 21V23C10 23.2833 10.096 23.5207 10.288 23.712C10.4793 23.904 10.7167 24 11 24H12C12 24.8333 12.2917 25.5417 12.875 26.125ZM15 25C15.2833 25 15.521 24.904 15.713 24.712C15.9043 24.5207 16 24.2833 16 24H14C14 24.2833 14.0957 24.5207 14.287 24.712C14.479 24.904 14.7167 25 15 25Z" fill="white"/>
<path d="M13.287 15.713C13.479 15.9043 13.7167 16 14 16H17C17.2833 16 17.521 15.9043 17.713 15.713C17.9043 15.521 18 15.2833 18 15C18 14.7167 17.9043 14.479 17.713 14.287C17.521 14.0957 17.2833 14 17 14H14C13.7167 14 13.479 14.0957 13.287 14.287C13.0957 14.479 13 14.7167 13 15C13 15.2833 13.0957 15.521 13.287 15.713Z" fill="white"/>
<path fill-rule="evenodd" clip-rule="evenodd" d="M27 27C26.1667 27 25.4583 26.7083 24.875 26.125C24.2917 25.5417 24 24.8333 24 24C24 23.1667 24.2917 22.4583 24.875 21.875C25.4583 21.2917 26.1667 21 27 21C27.8333 21 28.5417 21.2917 29.125 21.875C29.7083 22.4583 30 23.1667 30 24C30 24.8333 29.7083 25.5417 29.125 26.125C28.5417 26.7083 27.8333 27 27 27ZM27 25C27.2833 25 27.5207 24.904 27.712 24.712C27.904 24.5207 28 24.2833 28 24C28 23.7167 27.904 23.479 27.712 23.287C27.5207 23.0957 27.2833 23 27 23C26.7167 23 26.4793 23.0957 26.288 23.287C26.096 23.479 26 23.7167 26 24C26 24.2833 26.096 24.5207 26.288 24.712C26.4793 24.904 26.7167 25 27 25Z" fill="white"/>
</svg>
