<svg width="40" height="40" viewBox="0 0 40 40" fill="none" xmlns="http://www.w3.org/2000/svg">
<rect width="40" height="40" rx="10" fill="black"/>
<path d="M13 14C12.7166 14 12.479 13.9043 12.287 13.713C12.0956 13.521 12 13.2833 12 13C12 12.7167 12.0956 12.479 12.287 12.287C12.479 12.0957 12.7166 12 13 12H27C27.2833 12 27.5206 12.0957 27.712 12.287C27.9039 12.479 28 12.7167 28 13C28 13.2833 27.9039 13.521 27.712 13.713C27.5206 13.9043 27.2833 14 27 14H13ZM13 28C12.7166 28 12.479 27.904 12.287 27.712C12.0956 27.5207 12 27.2833 12 27V22H11.825C11.5083 22 11.25 21.879 11.05 21.637C10.85 21.3957 10.7833 21.1167 10.85 20.8L11.85 15.8C11.9 15.5667 12.0166 15.375 12.2 15.225C12.3833 15.075 12.5916 15 12.825 15H27.1749C27.4083 15 27.6166 15.075 27.7999 15.225C27.9833 15.375 28.1 15.5667 28.15 15.8L29.15 20.8C29.2166 21.1167 29.15 21.3957 28.95 21.637C28.75 21.879 28.4916 22 28.1749 22H28V27C28 27.2833 27.9039 27.5207 27.712 27.712C27.5206 27.904 27.2833 28 27 28C26.7166 28 26.4793 27.904 26.288 27.712C26.096 27.5207 26 27.2833 26 27V22H22V27C22 27.2833 21.9043 27.5207 21.713 27.712C21.521 27.904 21.2833 28 21 28H13ZM14 26H20V22H14V26Z" fill="white"/>
</svg>
