<svg width="40" height="40" viewBox="0 0 40 40" fill="none" xmlns="http://www.w3.org/2000/svg">
<rect width="40" height="40" rx="10" fill="black"/>
<path d="M21.8 19C21.5167 19 21.2793 18.904 21.088 18.712C20.896 18.5207 20.8 18.2833 20.8 18V14C20.8 13.7167 20.896 13.479 21.088 13.287C21.2793 13.0957 21.5167 13 21.8 13C22.0833 13 22.321 13.0957 22.513 13.287C22.7043 13.479 22.8 13.7167 22.8 14V15.6L27.1 11.3C27.2833 11.1167 27.5167 11.025 27.8 11.025C28.0833 11.025 28.3167 11.1167 28.5 11.3C28.6833 11.4833 28.775 11.7167 28.775 12C28.775 12.2833 28.6833 12.5167 28.5 12.7L24.2 17H25.8C26.0833 17 26.321 17.0957 26.513 17.287C26.7043 17.479 26.8 17.7167 26.8 18C26.8 18.2833 26.7043 18.5207 26.513 18.712C26.321 18.904 26.0833 19 25.8 19H21.8ZM27.95 29C25.8 29 23.7043 28.5207 21.663 27.562C19.621 26.604 17.8127 25.3373 16.238 23.762C14.6627 22.1873 13.396 20.379 12.438 18.337C11.4793 16.2957 11 14.2 11 12.05C11 11.75 11.1 11.5 11.3 11.3C11.5 11.1 11.75 11 12.05 11H16.1C16.3333 11 16.5417 11.075 16.725 11.225C16.9083 11.375 17.0167 11.5667 17.05 11.8L17.7 15.3C17.7333 15.5333 17.7293 15.7457 17.688 15.937C17.646 16.129 17.55 16.3 17.4 16.45L15 18.9C15.7 20.1 16.575 21.225 17.625 22.275C18.675 23.325 19.8333 24.2333 21.1 25L23.45 22.65C23.6 22.5 23.796 22.3873 24.038 22.312C24.2793 22.2373 24.5167 22.2167 24.75 22.25L28.2 22.95C28.4333 23 28.625 23.1123 28.775 23.287C28.925 23.4623 29 23.6667 29 23.9V27.95C29 28.25 28.9 28.5 28.7 28.7C28.5 28.9 28.25 29 27.95 29Z" fill="white"/>
</svg>
