<svg width="40" height="40" viewBox="0 0 40 40" fill="none" xmlns="http://www.w3.org/2000/svg">
<rect width="40" height="40" rx="10" fill="black"/>
<path d="M15.7999 28C15.2666 28 14.8082 27.825 14.4249 27.475C14.0416 27.125 13.8332 26.6833 13.7999 26.15L13.2999 19.55H26.6999L26.1999 26.15C26.1666 26.6833 25.9582 27.125 25.5749 27.475C25.1916 27.825 24.7332 28 24.1999 28H15.7999ZM12.6249 18L10.7249 16.15C10.5416 15.9667 10.4376 15.7377 10.4129 15.463C10.3876 15.1877 10.4832 14.95 10.6999 14.75C10.8832 14.5667 11.1166 14.475 11.3999 14.475C11.6832 14.475 11.9166 14.5667 12.0999 14.75L12.9999 15.65L12.9499 15.05L16.4249 11.575C16.6082 11.3917 16.8206 11.25 17.0619 11.15C17.3039 11.05 17.5582 11 17.8249 11H22.1749C22.4416 11 22.6959 11.05 22.9379 11.15C23.1792 11.25 23.3916 11.3917 23.5749 11.575L27.0499 15.05L26.9999 15.65L27.8999 14.75C28.0832 14.5667 28.3039 14.45 28.5619 14.4C28.8206 14.35 29.0666 14.4667 29.2999 14.75C29.4832 14.9667 29.5749 15.204 29.5749 15.462C29.5749 15.7207 29.4749 15.95 29.2749 16.15L27.3749 18H12.6249Z" fill="white"/>
</svg>
