<svg width="24" height="24" viewBox="0 0 24 24" fill="none" xmlns="http://www.w3.org/2000/svg">
<path fill-rule="evenodd" clip-rule="evenodd" d="M20.7281 8.92932L15.0707 3.27192C13.3748 1.57603 10.6252 1.57603 8.92932 3.27192L3.27192 8.92932C1.57603 10.6252 1.57603 13.3748 3.27192 15.0707L8.92932 20.7281C10.6252 22.424 13.3748 22.424 15.0707 20.7281L20.7281 15.0707C22.424 13.3748 22.424 10.6252 20.7281 8.92932ZM8.38619 8.63238C8.80095 8.21763 9.4734 8.21763 9.88816 8.63238C11.7544 10.4986 11.7544 13.5194 9.88816 15.3856C9.4734 15.8003 8.80095 15.8003 8.38619 15.3856C7.97144 14.9708 7.97144 14.2984 8.38619 13.8836C9.4229 12.8469 9.4229 11.1711 8.38619 10.1343C7.97144 9.71959 7.97144 9.04714 8.38619 8.63238ZM13.3574 5.76435C12.9426 5.3496 12.2701 5.3496 11.8554 5.76435C11.4406 6.17911 11.4406 6.85156 11.8554 7.26632C14.4734 9.8843 14.4734 14.1209 11.8554 16.7389C11.4406 17.1536 11.4406 17.8261 11.8554 18.2408C12.2701 18.6556 12.9426 18.6556 13.3574 18.2408C16.8049 14.7933 16.8049 9.21185 13.3574 5.76435Z" fill="black"/>
</svg>
