<svg width="24" height="24" viewBox="0 0 24 24" fill="none" xmlns="http://www.w3.org/2000/svg">
<path fill-rule="evenodd" clip-rule="evenodd" d="M21.9313 11.3758C21.9313 11.0633 21.8402 10.7718 21.6834 10.5268L18.7241 4.35153C18.2996 3.51969 17.4505 2.99979 16.5325 2.99979H7.32997C6.41202 2.99979 5.56291 3.51969 5.13835 4.35153L2.17888 10.5273C2.02223 10.7721 1.93127 11.0635 1.93127 11.3758V19.4285C1.93127 20.295 2.63122 20.9998 3.4918 20.9998H20.3707C21.2313 20.9998 21.9313 20.295 21.9313 19.4285V11.3758ZM19.8544 18.9202V11.8842H15.0833C14.8048 13.3865 13.5 14.5185 11.9253 14.5185C10.3507 14.5185 9.04591 13.3865 8.76741 11.8842H3.99668V18.9202H19.8544ZM11.5123 4.15514C11.627 4.03961 11.7762 3.98184 11.9253 3.98184C12.086 3.98184 12.2351 4.05116 12.3384 4.15514C12.4532 4.27067 12.5105 4.42087 12.5105 4.57106V5.10252C13.6006 5.33358 14.3809 6.17698 14.3809 7.14746V7.19367C14.3809 7.40163 14.2776 7.59804 14.094 7.70202C13.9104 7.806 13.6924 7.806 13.5088 7.70202C13.3367 7.59804 13.222 7.40163 13.222 7.19367V7.14746C13.222 6.63911 12.6368 6.21164 11.9368 6.21164C11.2369 6.21164 10.6517 6.63911 10.6517 7.14746C10.6517 7.29765 10.6517 7.77134 12.0745 8.09483C13.6121 8.44143 14.3923 9.14619 14.3923 10.186C14.3923 11.1565 13.6121 11.9999 12.522 12.2309V12.7508C12.522 12.9126 12.4532 13.0628 12.3499 13.1668C12.2351 13.2823 12.0975 13.3401 11.9368 13.3401C11.7762 13.3401 11.627 13.2707 11.5237 13.1668C11.409 13.0512 11.3516 12.901 11.3516 12.7508V12.2309C10.2615 11.9999 9.48127 11.1565 9.48127 10.186V10.1398C9.48127 9.93182 9.58454 9.73541 9.76813 9.63143C9.95173 9.52745 10.1697 9.52745 10.3533 9.63143C10.5255 9.73541 10.6402 9.93182 10.6402 10.1398V10.186C10.6402 10.6943 11.2254 11.1218 11.9253 11.1218C12.6253 11.1218 13.2105 10.6943 13.2105 10.186C13.2105 10.0358 13.2105 9.56211 11.7876 9.23862C10.2501 8.89201 9.4698 8.18726 9.4698 7.14746C9.4698 6.17698 10.2501 5.33358 11.3401 5.10252V4.57106C11.3401 4.40931 11.409 4.25912 11.5123 4.15514Z" fill="black"/>
</svg>
