<svg width="24" height="24" viewBox="0 0 24 24" fill="none" xmlns="http://www.w3.org/2000/svg">
<path fill-rule="evenodd" clip-rule="evenodd" d="M5.07692 3H18.9231C20.6166 3 22 4.47877 22 6.28899V14.4477C22 16.258 20.6166 17.7367 18.9231 17.7367H17.1583V21.0001H6.85415V17.7367H5.07692C3.38342 17.7367 2 16.258 2 14.4477V6.28899C2 4.47877 3.38342 3 5.07692 3ZM19.8652 6.28899C19.8652 5.74083 19.4478 5.29465 18.935 5.29465H5.07692C4.5641 5.29465 4.14669 5.74083 4.14669 6.28899V14.4477C4.14669 14.9959 4.5641 15.4421 5.07692 15.4421H18.935C19.4478 15.4421 19.8652 14.9959 19.8652 14.4477V6.28899Z" fill="black"/>
</svg>
