<svg width="24" height="24" viewBox="0 0 24 24" fill="none" xmlns="http://www.w3.org/2000/svg">
<path d="M7.77901 2H16.221C17.2044 2 18 2.85816 18 3.91895V4.05002H6V3.91895C6 2.85816 6.79558 2 7.77901 2Z" fill="black"/>
<path fill-rule="evenodd" clip-rule="evenodd" d="M6 5.4803V11.7974C6 12.0119 6.03315 12.2145 6.09945 12.4172L7.11602 15.6234V20.0811C7.11602 21.1418 7.9116 22 8.89503 22H15.105C16.0884 22 16.884 21.1418 16.884 20.0811V15.6234L17.9006 12.4172C17.9669 12.2145 18 12.0119 18 11.7974V5.4803H6ZM15.4588 7.37556H8.53058C8.18273 7.37556 7.90074 7.67973 7.90074 8.05494V11.7379C7.90074 12.1131 8.18273 12.4173 8.53058 12.4173H15.4588C15.8066 12.4173 16.0886 12.1131 16.0886 11.7379V8.05494C16.0886 7.67973 15.8066 7.37556 15.4588 7.37556Z" fill="black"/>
</svg>
