<svg width="24" height="24" viewBox="0 0 24 24" fill="none" xmlns="http://www.w3.org/2000/svg">
<path fill-rule="evenodd" clip-rule="evenodd" d="M14.234 8.03777H9.76649V6.51191H14.234V8.03777Z" fill="black"/>
<path fill-rule="evenodd" clip-rule="evenodd" d="M14.234 12.136H9.76649V10.6101H14.234V12.136Z" fill="black"/>
<path fill-rule="evenodd" clip-rule="evenodd" d="M16.0347 1.99994H7.94305C6.86037 1.99994 5.98283 2.83916 5.98283 3.87456V11.635C4.97162 11.635 3.93201 12.1521 3.5274 13.1093L3.5247 13.1157C2.99703 14.3899 2.86348 15.7702 3.14205 17.1025L3.77958 20.1618L3.77989 20.1633C4.02622 21.3582 5.2299 21.9999 6.34738 21.9999H17.6414C18.7682 21.9999 19.9629 21.3398 20.2087 20.1644L20.8177 17.2418C20.8346 17.1969 20.8481 17.1504 20.8582 17.1025C21.1369 15.7698 21.0026 14.4029 20.478 13.1218C20.083 12.1418 19.0128 11.635 18.0175 11.635H17.9949V3.87456C17.9949 2.83916 17.1173 1.99994 16.0347 1.99994ZM17.5047 20.4519C18.0523 20.4519 18.4962 20.0274 18.4962 19.5037C18.4962 18.9801 18.0523 18.5555 17.5047 18.5555C16.9571 18.5555 16.5132 18.9801 16.5132 19.5037C16.5132 20.0274 16.9571 20.4519 17.5047 20.4519ZM15.7989 3.8803H8.2012V14.7793H15.7989V3.8803Z" fill="black"/>
</svg>
