<svg width="24" height="24" viewBox="0 0 24 24" fill="none" xmlns="http://www.w3.org/2000/svg">
<path d="M5.7 3C4.20883 3 3 4.20883 3 5.7V7.5C3 7.99706 3.40294 8.4 3.9 8.4C4.39706 8.4 4.8 7.99706 4.8 7.5V5.7C4.8 5.20294 5.20294 4.8 5.7 4.8H7.5C7.99706 4.8 8.4 4.39706 8.4 3.9C8.4 3.40294 7.99706 3 7.5 3H5.7Z" fill="#0D0D0D"/>
<path d="M18.3 3C19.7912 3 21 4.20883 21 5.7V7.5C21 7.99706 20.5971 8.4 20.1 8.4C19.6029 8.4 19.2 7.99706 19.2 7.5V5.7C19.2 5.20294 18.7971 4.8 18.3 4.8H16.5C16.0029 4.8 15.6 4.39706 15.6 3.9C15.6 3.40294 16.0029 3 16.5 3H18.3Z" fill="#0D0D0D"/>
<path d="M3 18.3C3 19.7912 4.20883 21 5.7 21H7.5C7.99706 21 8.4 20.5971 8.4 20.1C8.4 19.6029 7.99706 19.2 7.5 19.2H5.7C5.20294 19.2 4.8 18.7971 4.8 18.3V16.5C4.8 16.0029 4.39706 15.6 3.9 15.6C3.40294 15.6 3 16.0029 3 16.5V18.3Z" fill="#0D0D0D"/>
<path d="M18.3 21C19.7912 21 21 19.7912 21 18.3V16.5C21 16.0029 20.5971 15.6 20.1 15.6C19.6029 15.6 19.2 16.0029 19.2 16.5V18.3C19.2 18.7971 18.7971 19.2 18.3 19.2H16.5C16.0029 19.2 15.6 19.6029 15.6 20.1C15.6 20.5971 16.0029 21 16.5 21H18.3Z" fill="#0D0D0D"/>
<path d="M17.4 16.5C17.4 16.9971 16.9971 17.4 16.5 17.4H7.5C7.00294 17.4 6.6 16.9971 6.6 16.5V13.8H17.4V16.5Z" fill="#0D0D0D"/>
<path d="M6.6 7.5C6.6 7.00294 7.00294 6.6 7.5 6.6H16.5C16.9971 6.6 17.4 7.00294 17.4 7.5V11.1H18.3C18.7971 11.1 19.2 11.5029 19.2 12C19.2 12.4971 18.7971 12.9 18.3 12.9H5.7C5.20294 12.9 4.8 12.4971 4.8 12C4.8 11.5029 5.20294 11.1 5.7 11.1H6.6V7.5Z" fill="#0D0D0D"/>
</svg>
