<svg
  width="136"
  height="136"
  viewBox="0 0 24 24"
  fill="none"
  stroke="currentColor"
  xmlns="http://www.w3.org/2000/svg"
  overflow="hidden"
  role="img"
  aria-labelledby="design-icon-title"
>
  <title id="design-icon-title">Animated design disciplines icon</title>
  <style>
    :root {
      --cycle: 17.28s;
      --step: 2.16s;
      --stroke: 1.6;
      --scene-ease: cubic-bezier(0.4, 0, 0.2, 1);
      --micro-ease: cubic-bezier(0.33, 1, 0.68, 1);
    }

    .scene {
      opacity: 0;
      transform: translateY(24px);
      transform-origin: center;
      will-change: transform, opacity;
      animation: slideCycle var(--cycle) var(--scene-ease) infinite;
    }

    .bal {
      transform-origin: center;
    }

    .scene :is(path, line, polyline, polygon, rect, circle) {
      vector-effect: non-scaling-stroke;
      stroke-width: var(--stroke);
      stroke-linecap: round;
      stroke-linejoin: round;
    }

    .muted {
      opacity: 0.72;
    }

    .t-1 { animation-delay: 0s; }
    .t-2 { animation-delay: 2.16s; }
    .t-3 { animation-delay: 4.32s; }
    .t-4 { animation-delay: 6.48s; }
    .t-5 { animation-delay: 8.64s; }
    .t-6 { animation-delay: 10.8s; }
    .t-7 { animation-delay: 12.96s; }
    .t-8 { animation-delay: 15.12s; }

    @keyframes slideCycle {
      0% {
        transform: translateY(24px);
        opacity: 0;
      }

      2.2% {
        transform: translateY(0);
        opacity: 1;
      }

      10.3% {
        transform: translateY(0);
        opacity: 1;
      }

      12.5% {
        transform: translateY(-24px);
        opacity: 0;
      }

      100% {
        transform: translateY(-24px);
        opacity: 0;
      }
    }

    @keyframes float {
      0%,
      100% {
        transform: translateY(0);
      }

      50% {
        transform: translateY(-2px);
      }
    }

    @keyframes draw {
      0% {
        opacity: 0.2;
        stroke-dashoffset: 18;
      }

      36%,
      78% {
        opacity: 1;
        stroke-dashoffset: 0;
      }

      100% {
        opacity: 0.4;
        stroke-dashoffset: 0;
      }
    }

    @keyframes search {
      0%,
      100% {
        transform: translate(0, 0) rotate(-3deg);
      }

      32% {
        transform: translate(-1.2px, -1px) rotate(-7deg);
      }

      72% {
        transform: translate(1.2px, 1px) rotate(6deg);
      }
    }

    @keyframes pulse {
      0%,
      100% {
        transform: scale(1);
      }

      40% {
        transform: scale(0.9);
      }

      68% {
        transform: scale(1.05);
      }
    }

    @keyframes bounce {
      0%,
      100% {
        transform: translateX(0);
      }

      50% {
        transform: translateX(-3.2px);
      }
    }

    @keyframes dash {
      from {
        stroke-dashoffset: 10;
      }

      to {
        stroke-dashoffset: 0;
      }
    }

    @keyframes blink {
      0%,
      100% {
        opacity: 0.35;
        transform: scale(0.94);
      }

      50% {
        opacity: 1;
        transform: scale(1);
      }
    }

    @keyframes twinkle {
      0%,
      100% {
        opacity: 0.82;
        transform: scale(0.97);
      }

      45% {
        opacity: 1;
        transform: scale(1.04);
      }

      72% {
        opacity: 0.9;
        transform: scale(1);
      }
    }

    @keyframes write {
      0%,
      100% {
        transform: translate(0, 0) rotate(0deg);
      }

      42% {
        transform: translate(1px, -0.9px) rotate(-3deg);
      }

      72% {
        transform: translate(0.4px, -1.5px) rotate(-5deg);
      }
    }

    @media (prefers-reduced-motion: reduce) {
      .scene,
      .scene * {
        animation: none !important;
      }

      .scene {
        opacity: 0;
        transform: none;
      }

      .t-1 {
        opacity: 1;
      }
    }
  </style>

  <g class="scene t-1">
    <g class="bal" transform="scale(0.8)">
      <g style="animation: float var(--step) ease-in-out infinite">
        <path d="M21 16V8a2 2 0 0 0-1-1.73l-7-4a2 2 0 0 0-2 0l-7 4A2 2 0 0 0 3 8v8a2 2 0 0 0 1 1.73l7 4a2 2 0 0 0 2 0l7-4A2 2 0 0 0 21 16z"/>
        <polyline points="3.27 6.96 12 12.01 20.73 6.96"/>
        <line x1="12" y1="22.08" x2="12" y2="12"/>
      </g>
    </g>
  </g>

  <g class="scene t-2">
    <g class="bal" transform="scale(0.78)">
      <rect x="3" y="3" width="18" height="18" rx="2" ry="2"/>
      <line
        x1="3"
        y1="9"
        x2="21"
        y2="9"
        style="stroke-dasharray: 18; animation: draw 1.44s var(--micro-ease) infinite"
      />
      <line
        x1="9"
        y1="21"
        x2="9"
        y2="9"
        style="stroke-dasharray: 18; animation: draw 1.44s var(--micro-ease) infinite 0.24s"
      />
    </g>
  </g>

  <g class="scene t-3">
    <g class="bal" transform="scale(0.92)">
      <circle class="muted" cx="11" cy="11" r="3"/>
      <path class="muted" d="M11 14c-2.67 0-8 1.34-8 4"/>
      <g style="transform-origin: center; animation: search 1.8s ease-in-out infinite">
        <circle cx="11" cy="11" r="7.2"/>
        <line x1="21" y1="21" x2="16.1" y2="16.1"/>
      </g>
    </g>
  </g>

  <g class="scene t-4">
    <g class="bal" transform="scale(0.78)">
      <rect x="2" y="3" width="20" height="18" rx="2" ry="2"/>
      <path class="muted" d="M6 7.5h12M6 18.5h12"/>
      <polygon
        points="9 8 15 12 9 16 9 8"
        style="transform-origin: center; animation: pulse 1.08s ease-in-out infinite"
      />
    </g>
  </g>

  <g class="scene t-5">
    <g class="bal" transform="scale(0.95)">
      <g style="animation: bounce 1.08s cubic-bezier(0.25, 0.46, 0.45, 0.94) infinite">
        <circle cx="19" cy="12" r="3"/>
      </g>
      <path d="M14 12H2" style="stroke-dasharray: 10; animation: dash 1.08s linear infinite"/>
      <path d="M14 8H5" style="stroke-dasharray: 10; animation: dash 1.08s linear infinite"/>
      <path d="M14 16H5" style="stroke-dasharray: 10; animation: dash 1.08s linear infinite"/>
    </g>
  </g>

  <g class="scene t-6">
    <g class="bal" transform="scale(0.78)">
      <rect x="3" y="3" width="7" height="7" rx="1.2" style="animation: blink 1.44s infinite"/>
      <circle cx="17.5" cy="6.5" r="3.5" style="animation: blink 1.44s infinite 0.24s"/>
      <rect x="14" y="14" width="7" height="7" rx="1.2" style="animation: blink 1.44s infinite 0.48s"/>
      <path d="M6.5 21L3 14h7l-3.5 7z" style="animation: blink 1.44s infinite 0.72s"/>
    </g>
  </g>

  <g class="scene t-7">
    <g class="bal" transform="scale(0.82)">
      <g style="transform-origin: center; animation: twinkle 1.44s ease-in-out infinite">
        <g transform="translate(3 3) scale(0.45)">
          <path d="M29.5579 32.8571C29.438 32.8571 29.3123 32.8211 29.1809 32.7492C29.0485 32.6772 28.9583 32.5693 28.9103 32.4254L28.0688 30.5845C27.869 30.1474 27.5184 29.7969 27.0813 29.5971L25.2405 28.7555C25.0966 28.7076 24.9886 28.6174 24.9167 28.485C24.8447 28.3535 24.8087 28.2278 24.8087 28.1079C24.8087 27.988 24.8447 27.8623 24.9167 27.7309C24.9886 27.5985 25.0966 27.5083 25.2405 27.4603L27.0813 26.6188C27.5184 26.4189 27.869 26.0684 28.0688 25.6313L28.9103 23.7905C28.9583 23.6465 29.0485 23.5386 29.1809 23.4667C29.3123 23.3947 29.438 23.3587 29.5579 23.3587C29.6779 23.3587 29.804 23.3947 29.9364 23.4667C30.0679 23.5386 30.1576 23.6465 30.2056 23.7905L31.0471 25.6313C31.2469 26.0684 31.5974 26.4189 32.0345 26.6188L33.8754 27.4603C34.0193 27.5083 34.1272 27.5985 34.1992 27.7309C34.2712 27.8623 34.3071 27.988 34.3071 28.1079C34.3071 28.2278 34.2712 28.3535 34.1992 28.485C34.1272 28.6174 34.0193 28.7076 33.8754 28.7555L32.0345 29.5971C31.5974 29.7969 31.2469 30.1474 31.0471 30.5845L30.2056 32.4254C30.1576 32.5693 30.0679 32.6772 29.9364 32.7492C29.804 32.8211 29.6779 32.8571 29.5579 32.8571ZM15.1664 27.4963C14.9026 27.4963 14.6507 27.4243 14.4108 27.2804C14.171 27.1365 13.9911 26.9326 13.8712 26.6688L12.0332 22.6482C11.7335 21.9926 11.2077 21.4668 10.552 21.1671L6.53148 19.3291C6.26763 19.2092 6.06375 19.0293 5.91984 18.7894C5.77592 18.5495 5.70396 18.2977 5.70396 18.0338C5.70396 17.77 5.77592 17.5182 5.91984 17.2783C6.06375 17.0384 6.26763 16.8585 6.53148 16.7386L10.552 14.9006C11.2077 14.6009 11.7335 14.0751 12.0332 13.4195L13.8712 9.39892C13.9911 9.13508 14.171 8.9312 14.4108 8.78728C14.6507 8.64337 14.9026 8.57141 15.1664 8.57141C15.4302 8.57141 15.6821 8.64337 15.922 8.78728C16.1618 8.9312 16.3417 9.13508 16.4616 9.39892L18.2996 13.4195C18.5993 14.0751 19.1251 14.6009 19.7808 14.9006L23.8013 16.7386C24.0652 16.8585 24.269 17.0384 24.413 17.2783C24.5569 17.5182 24.6288 17.77 24.6288 18.0338C24.6288 18.2977 24.5569 18.5495 24.413 18.7894C24.269 19.0293 24.0652 19.2092 23.8013 19.3291L19.7808 21.1671C19.1251 21.4668 18.5993 21.9926 18.2996 22.6482L16.4616 26.6688C16.3417 26.9326 16.1618 27.1365 15.922 27.2804C15.6821 27.4243 15.4302 27.4963 15.1664 27.4963Z"/>
        </g>
      </g>
    </g>
  </g>

  <g class="scene t-8">
    <g class="bal" transform="scale(0.79)">
      <g style="transform-origin: center; animation: write 1.44s ease-in-out infinite">
        <path d="M12.1 20.1c-.34 0-.67-.13-.92-.38L5.53 14.1a1.3 1.3 0 0 1-.3-1.37l1.73-4.69c.14-.39.45-.7.84-.84l4.69-1.73a1.3 1.3 0 0 1 1.37.3l5.62 5.62c.37.37.48.92.3 1.37l-1.73 4.69c-.14.39-.45.7-.84.84l-4.69 1.73c-.13.05-.28.08-.42.08z"/>
        <circle cx="12.15" cy="12.05" r="2.15"/>
        <path class="muted" d="M8.25 8.3l2.45 2.45"/>
      </g>
    </g>
  </g>
</svg>
