<svg width="40" height="40" viewBox="0 0 40 40" fill="none" xmlns="http://www.w3.org/2000/svg">
<rect width="40" height="40" fill="white"/>
<path d="M13.5084 21.1999H11.072V19.0181C11.072 18.7999 10.6902 18.6909 10.072 18.6909C9.56294 18.6909 9.18112 18.7999 9.18112 19.0181V21.1999H4.87203L9.36294 15.8909C9.38112 15.8545 9.41748 15.8181 9.41748 15.7818C9.41748 15.6363 9.10839 15.5272 8.52657 15.5272C7.98112 15.5272 7.63566 15.6363 7.41748 15.8727L2.90839 21.1999C2.61748 21.5454 2.41748 21.7272 2.41748 21.8727C2.41748 22.1636 2.58112 22.1999 2.90839 22.1999H9.18112V24.1272C9.18112 24.3818 9.49021 24.4545 10.1084 24.4545C10.7084 24.4545 11.072 24.3818 11.072 24.1272V22.1999H13.5266C13.6357 22.1999 13.9266 22.1272 13.9266 21.6727C13.9266 21.2727 13.6175 21.1999 13.5084 21.1999Z" fill="#FEC00F"/>
<path d="M19.5449 17.4909H15.6904C15.5267 17.4909 15.3449 17.5091 15.1813 17.5818C14.6722 17.8181 14.4176 18.2 14.4176 18.7636V18.7818C14.4176 18.9091 14.4358 19.0182 14.454 19.1454C14.654 19.7454 15.0722 20.0545 15.7267 20.0545H17.7813C18.1631 20.0545 18.3813 20.0727 18.4358 20.1091C18.7085 20.2363 18.854 20.4 18.854 20.6363C18.854 20.8181 18.7631 20.9818 18.5631 21.1091C18.4904 21.1818 18.2358 21.2363 17.7813 21.2363H14.7267C14.6358 21.2363 14.5631 21.2545 14.5085 21.3272C14.454 21.3818 14.4358 21.4545 14.4358 21.5454V21.8909C14.4358 21.9818 14.454 22.0545 14.5267 22.1091C14.5813 22.1636 14.6722 22.1818 14.7449 22.1818H18.3813C18.6358 22.1818 18.8904 22.1272 19.1267 22C19.6176 21.6909 19.8722 21.2545 19.8722 20.6727V20.6545C19.8722 20.4363 19.8358 20.2363 19.7449 20.0363C19.454 19.4545 18.9994 19.1454 18.3631 19.1454H16.2722C16.1267 19.1454 15.9813 19.1454 15.8358 19.1272C15.5813 19.0909 15.4722 18.9818 15.4722 18.8181C15.4722 18.7454 15.5085 18.6545 15.5631 18.6C15.5994 18.5091 15.8358 18.4727 16.2358 18.4727H19.5631C19.654 18.4727 19.7267 18.4363 19.7813 18.3818C19.8358 18.3272 19.854 18.2545 19.854 18.1636V17.8181C19.854 17.7272 19.8358 17.6545 19.7631 17.6C19.7085 17.5091 19.6358 17.4727 19.5449 17.4909Z" fill="#1562AB"/>
<path d="M23.7816 17.4909H22.4907C21.9634 17.4909 21.4725 17.6727 21.0543 18C20.5089 18.4727 20.218 19.0545 20.218 19.7454V19.8727C20.218 20.4 20.3998 20.8909 20.7271 21.2909C21.1998 21.8363 21.7816 22.1272 22.4725 22.1272H23.7816C24.2543 22.1272 24.7089 21.9818 25.1089 21.709C25.7271 21.2181 26.0362 20.6181 26.0362 19.8909V19.709C26.0362 19.2727 25.9089 18.8727 25.6725 18.4727C25.1634 17.8181 24.5452 17.4909 23.7816 17.4909ZM24.9271 20.4C24.7452 20.7272 24.5089 20.9454 24.1998 21.0727C24.0907 21.1636 23.7452 21.2 23.1816 21.2H22.8362C22.3452 21.2 21.9816 21.0909 21.7452 20.8909C21.3816 20.5636 21.1816 20.2 21.1816 19.8181C21.1816 19.5272 21.3089 19.2181 21.5452 18.9272C21.7634 18.7272 21.9271 18.6 22.0725 18.5636C22.1816 18.4909 22.5089 18.4363 23.0725 18.4363H23.3998C23.8907 18.4363 24.2543 18.5272 24.4725 18.709C24.8725 19.0363 25.0543 19.4 25.0543 19.8C25.0725 20 25.018 20.2181 24.9271 20.4Z" fill="#1562AB"/>
<path d="M29.2363 18.4182H31.4909C31.5818 18.4182 31.6545 18.4 31.7091 18.3272C31.7636 18.2727 31.7818 18.2 31.7818 18.1091V17.7636C31.7818 17.6727 31.7636 17.6 31.6909 17.5454C31.6363 17.4909 31.5454 17.4727 31.4727 17.4727H28.6182C28.0909 17.4727 27.6 17.6545 27.2 17.9818C26.6545 18.4545 26.3636 19.0363 26.3636 19.7272V21.8182C26.3636 21.9091 26.3818 21.9818 26.4545 22.0363C26.5091 22.0909 26.6 22.1091 26.6727 22.1091H27.0182C27.1091 22.1091 27.1818 22.0909 27.2363 22.0182C27.2909 21.9636 27.3091 21.8909 27.3091 21.8V20.2C27.3091 19.7272 27.3636 19.4 27.4545 19.2363C27.6182 18.9091 27.8909 18.6545 28.2182 18.5091C28.3636 18.4545 28.6909 18.4182 29.2363 18.4182Z" fill="#1562AB"/>
<path d="M31.5088 19.0909H28.4361C28.3452 19.0909 28.2725 19.1091 28.2179 19.1818C28.1634 19.2364 28.1452 19.3091 28.1452 19.3818V19.7273C28.1452 19.8182 28.1634 19.8909 28.2361 19.9454C28.2907 20 28.3816 20.0182 28.4543 20.0182H31.527C31.6179 20.0182 31.6907 20 31.7452 19.9273C31.7998 19.8727 31.8179 19.8 31.8179 19.7091V19.3636C31.8179 19.2727 31.7998 19.2 31.727 19.1454C31.6543 19.1091 31.5816 19.0909 31.5088 19.0909Z" fill="#1562AB"/>
<path d="M37.4905 17.5636C37.4359 17.509 37.345 17.4909 37.2723 17.4909H32.4723C32.3814 17.4909 32.3086 17.509 32.2541 17.5818C32.1995 17.6363 32.1814 17.7272 32.1814 17.8V18.1454C32.1814 18.2363 32.1995 18.309 32.2723 18.3636C32.3268 18.4181 32.3995 18.4363 32.4905 18.4363H33.8359C34.0359 18.4363 34.1814 18.4545 34.2541 18.509C34.3632 18.5454 34.4359 18.7272 34.4359 19.0363V21.8545C34.4359 21.9636 34.4723 22.0363 34.5268 22.0727C34.5814 22.1272 34.6723 22.1454 34.745 22.1454H35.0905C35.1814 22.1454 35.2541 22.1272 35.3086 22.0545C35.3632 22 35.3814 21.9272 35.3814 21.8363V19.0181C35.3814 18.9272 35.3814 18.8363 35.3995 18.7636C35.3995 18.709 35.4177 18.6545 35.4541 18.6C35.4905 18.4727 35.6723 18.4181 35.9814 18.4181H37.3268C37.4177 18.4181 37.4905 18.4 37.545 18.3272C37.5995 18.2727 37.6177 18.2 37.6177 18.109V17.7636C37.5814 17.709 37.545 17.6181 37.4905 17.5636Z" fill="#1562AB"/>
</svg>
