<svg width="40" height="40" viewBox="0 0 40 40" fill="none" xmlns="http://www.w3.org/2000/svg">
<rect width="40" height="40" fill="#F5AD1E"/>
<path fill-rule="evenodd" clip-rule="evenodd" d="M19.3432 14.4947L19.3462 14.4962L16.687 18.5499L14.7869 18.5395C14.5166 18.5381 14.4178 18.3541 14.5678 18.1259L16.0738 15.836C15.7519 15.7574 15.4375 15.6237 15.1439 15.432C13.7477 14.5206 13.3508 12.6441 14.2575 11.2408C15.1641 9.83742 17.0309 9.43864 18.4271 10.3501C19.8079 11.2514 20.2114 13.0967 19.3432 14.4947ZM25.7727 14.4947L25.7757 14.4962L23.1165 18.5499L21.2163 18.5395C20.9461 18.5381 20.8472 18.3541 20.9973 18.1259L22.5033 15.836C22.1814 15.7574 21.867 15.6237 21.5734 15.432C20.1772 14.5206 19.7803 12.6441 20.6869 11.2408C21.5936 9.83742 23.4604 9.43864 24.8566 10.3501C26.2374 11.2514 26.6408 13.0967 25.7727 14.4947ZM23.215 13.8768C23.8168 13.8768 24.3047 13.3864 24.3047 12.7815C24.3047 12.1766 23.8168 11.6863 23.215 11.6863C22.6132 11.6863 22.1254 12.1766 22.1254 12.7815C22.1254 13.3864 22.6132 13.8768 23.215 13.8768ZM16.7855 13.8768C17.3873 13.8768 17.8752 13.3864 17.8752 12.7815C17.8752 12.1766 17.3873 11.6863 16.7855 11.6863C16.1838 11.6863 15.6959 12.1766 15.6959 12.7815C15.6959 13.3864 16.1838 13.8768 16.7855 13.8768Z" fill="black"/>
<path fill-rule="evenodd" clip-rule="evenodd" d="M30.4879 24.0924V21.4928L31.9693 21.0273V30.1818H30.4879V29.8165C30.0761 30.0575 29.5698 30.1818 28.9757 30.1818C27.1711 30.1818 26.1773 29.0356 26.1773 26.9544C26.1773 24.8732 27.1711 23.7271 28.9757 23.7271C29.5698 23.7271 30.0761 23.8514 30.4879 24.0924ZM9.51099 23.4168V25.0925H12.443V26.5821H9.51099V30.1818H8.02954V21.9272H13.0912V23.4168H9.51099ZM22.6743 28.7529C23.7576 28.7529 24.2843 28.1647 24.2843 26.9544C24.2843 25.7443 23.7576 25.156 22.6743 25.156C21.5909 25.156 21.0643 25.7443 21.0643 26.9544C21.0643 28.1647 21.5909 28.7529 22.6743 28.7529ZM19.6342 26.9544C19.6342 24.8732 20.7139 23.7271 22.6744 23.7271C24.6347 23.7271 25.7143 24.8732 25.7143 26.9544C25.7143 29.0356 24.6347 30.1818 22.6744 30.1818C20.7139 30.1818 19.6342 29.0356 19.6342 26.9544ZM16.1313 28.7529C17.2146 28.7529 17.7412 28.1647 17.7412 26.9544C17.7412 25.7443 17.2146 25.156 16.1313 25.156C15.0478 25.156 14.5212 25.7443 14.5212 26.9544C14.5212 28.1647 15.0478 28.7529 16.1313 28.7529ZM13.0912 26.9544C13.0912 24.8732 14.1708 23.7271 16.1313 23.7271C18.0916 23.7271 19.1713 24.8732 19.1713 26.9544C19.1713 29.0356 18.0916 30.1818 16.1313 30.1818C14.1708 30.1818 13.0912 29.0356 13.0912 26.9544ZM28.9756 28.7647C29.9032 28.7647 30.3542 28.1759 30.3542 26.9648C30.3542 25.7537 29.9032 25.1649 28.9756 25.1649C28.0479 25.1649 27.597 25.7537 27.597 26.9648C27.597 28.1759 28.0479 28.7647 28.9756 28.7647Z" fill="black"/>
</svg>
