<svg width="40" height="40" viewBox="0 0 40 40" fill="none" xmlns="http://www.w3.org/2000/svg">
<rect width="40" height="40" fill="white"/>
<path d="M7.20217 13.669C7.19853 13.8036 8.08944 26.2963 8.10217 26.3381C8.11671 26.3709 8.57489 25.3163 9.51853 23.089C10.2876 21.2745 10.9167 19.7745 10.9167 19.7581C10.9167 19.7272 7.27489 13.7109 7.2258 13.6563C7.21126 13.6418 7.20217 13.6472 7.20217 13.669Z" fill="black"/>
<path d="M1.444 15.0472C1.48036 15.1127 2.96036 17.6818 4.73127 20.7545C6.50218 23.8272 7.96036 26.3545 7.97491 26.3709C7.99127 26.3872 8.00036 26.3872 8.00036 26.3709C8.00036 26.269 7.44764 19.8927 7.43127 19.8018C7.40945 19.689 7.37855 19.6618 4.41491 17.3109C2.76764 16.0036 1.40945 14.9327 1.39854 14.9327C1.38582 14.9327 1.404 14.9854 1.444 15.0472Z" fill="black"/>
<path d="M10.9658 16.4836C9.88396 16.7673 9.46941 16.8854 9.47123 16.9127C9.48032 16.9782 10.9767 19.5273 11.0058 19.5254C11.0221 19.5218 11.3621 18.7654 11.7658 17.84C12.6221 15.8763 12.5349 16.0873 12.493 16.0909C12.4749 16.0909 11.7894 16.2709 10.9658 16.4836Z" fill="black"/>
<path d="M11.6724 22.9854C10.9197 24.7872 10.2997 26.2836 10.2888 26.3091C10.2724 26.3563 10.3051 26.3582 10.7397 26.3582H11.207L11.3415 26.0345C11.416 25.8582 11.896 24.7072 12.407 23.48C12.9179 22.2527 13.347 21.2582 13.3579 21.2691C13.3724 21.2854 14.1379 23.1018 14.2251 23.3291C14.236 23.3563 14.0797 23.3654 13.5324 23.3709L12.827 23.38L12.6779 23.7509C12.596 23.9545 12.5215 24.14 12.5124 24.1691C12.4979 24.2163 12.5597 24.2182 13.547 24.2236L14.5997 24.2327L15.0397 25.2909L15.4815 26.3491L15.9433 26.3582C16.2997 26.3636 16.4015 26.3582 16.4015 26.3309C16.4015 26.3109 15.787 24.8182 15.0306 23.0127L13.6633 19.7309L13.0379 19.7127L11.6724 22.9854Z" fill="black"/>
<path d="M18.6849 19.7417C17.1249 19.9345 15.9322 21.2545 15.8613 22.8617C15.8249 23.6308 16.0067 24.2872 16.4194 24.9054C16.9631 25.7272 17.8467 26.2545 18.8013 26.3272C19.7158 26.4017 20.554 26.1108 21.2558 25.4727C21.3431 25.3927 21.4158 25.3127 21.4158 25.2908C21.4158 25.2581 20.9358 24.6308 20.9085 24.629C20.8995 24.629 20.7958 24.7145 20.6758 24.8217C20.134 25.2999 19.594 25.5036 18.9595 25.469C18.474 25.4436 18.0449 25.2818 17.654 24.9745C17.0031 24.4672 16.6358 23.5872 16.7304 22.7727C16.8013 22.1636 17.0431 21.6708 17.474 21.249C17.7285 20.9999 18.0322 20.8145 18.3795 20.6945C18.6285 20.609 18.6595 20.6072 19.0522 20.6036C19.3685 20.6036 19.5049 20.6181 19.6431 20.6527C19.9231 20.7327 20.2413 20.8945 20.4995 21.0927C20.6285 21.1945 20.7467 21.2799 20.7631 21.2817C20.7831 21.2908 21.2358 20.7563 21.3013 20.6527C21.3285 20.6036 20.7794 20.2017 20.4795 20.0545C20.194 19.9145 19.9885 19.8436 19.694 19.7817C19.4285 19.7272 18.9449 19.709 18.6849 19.7417Z" fill="black"/>
<path d="M23.9035 19.7418C22.6653 19.8964 21.6271 20.7709 21.2253 21.9964C20.9416 22.8673 21.058 23.9582 21.5198 24.7309C22.1798 25.8327 23.3235 26.4345 24.5689 26.3273C25.258 26.2691 25.8562 26.0055 26.4398 25.5036C26.5526 25.4073 26.6435 25.3109 26.6398 25.2927C26.6344 25.2564 26.1507 24.6327 26.1271 24.6309C26.118 24.6273 26.0198 24.7109 25.9071 24.8127C25.3635 25.2964 24.8144 25.5055 24.1762 25.4727C23.8216 25.4527 23.5562 25.3818 23.2416 25.2182C22.6071 24.8855 22.2016 24.3636 21.9998 23.62C21.918 23.3145 21.918 22.7855 21.9998 22.4527C22.2362 21.5018 22.9907 20.78 23.9162 20.6182C24.1471 20.5764 24.6489 20.6018 24.8744 20.6618C25.1362 20.7327 25.4616 20.9036 25.7398 21.1145C25.8835 21.2218 26.0071 21.2982 26.0144 21.2873C26.0362 21.26 26.478 20.7018 26.5162 20.6564C26.5526 20.6091 26.0089 20.2109 25.698 20.0582C25.4126 19.9182 25.2071 19.8473 24.9126 19.7855C24.6471 19.7273 24.1635 19.7091 23.9035 19.7418Z" fill="black"/>
<path d="M29.7534 19.7381C29.0152 19.8145 28.2861 20.1618 27.757 20.6908C26.6006 21.8472 26.4643 23.709 27.4406 25.0145C27.897 25.6218 28.5425 26.0472 29.3115 26.2527C29.6061 26.329 30.3297 26.3508 30.6715 26.2908C32.2534 26.0163 33.4043 24.6454 33.4043 23.0345C33.4043 21.6581 32.5825 20.4527 31.3025 19.9508C30.8552 19.7727 30.2461 19.689 29.7534 19.7381ZM30.7261 20.6708C31.4297 20.8708 31.9788 21.3308 32.2915 21.9727C32.4788 22.3599 32.5334 22.5927 32.5334 23.0363C32.5334 23.4781 32.4788 23.7127 32.2915 24.0999C31.7752 25.1599 30.5552 25.709 29.4406 25.3854C28.2843 25.0508 27.5479 23.9708 27.6697 22.7854C27.7734 21.7308 28.5697 20.8599 29.6425 20.6327C29.897 20.5763 30.4734 20.5963 30.7261 20.6708Z" fill="black"/>
<path d="M33.6214 23.0345V26.3581H34.4723L34.4778 23.9145L34.4869 21.4727L36.256 23.9145L38.0214 26.3581H38.7014V19.7109H37.8214L37.816 22.1436L37.8069 24.5745L36.1323 22.2618C35.2123 20.9908 34.4214 19.8945 34.3778 19.829L34.3014 19.7109H33.6233V23.0345H33.6214Z" fill="black"/>
<path d="M5.41654 25.3854C4.72927 25.8909 4.16381 26.3145 4.15836 26.3254C4.1529 26.3418 7.80927 26.3363 7.82745 26.32C7.83836 26.3054 6.70927 24.4763 6.68563 24.4709C6.67472 24.4691 6.10381 24.8781 5.41654 25.3854Z" fill="black"/>
</svg>
