<svg width="40" height="40" viewBox="0 0 40 40" fill="none" xmlns="http://www.w3.org/2000/svg">
<rect width="40" height="40" fill="white"/>
<path d="M17.2731 27.226C17.2568 27.2097 17.2404 27.1933 17.2078 27.1933C16.7827 27.0462 16.5049 26.7356 16.5049 26.2779C16.4885 25.5914 16.4885 24.9049 16.5049 24.2183C16.5212 23.5808 17.0443 23.2702 17.502 23.2702C18.0741 23.2702 18.4174 23.5972 18.5154 23.9731C18.5481 24.0712 18.5481 24.1693 18.5481 24.2673C18.5481 24.9375 18.5481 25.5914 18.5481 26.2616C18.5481 26.7356 18.3193 27.0462 17.8616 27.2097C17.8453 27.2097 17.8289 27.2424 17.8126 27.2587C17.6164 27.226 17.4366 27.226 17.2731 27.226Z" fill="#444242"/>
<path d="M18.0579 22.8779C17.8617 22.8616 17.6819 22.8452 17.5184 22.8452C17.355 22.8452 17.1752 22.8616 16.9954 22.8779C16.9954 22.8289 16.979 22.7472 16.979 22.6818C16.979 21.9135 16.979 21.1616 16.979 20.3933C16.979 20.3116 16.979 20.2298 16.9463 20.1645C16.8646 19.9847 16.6521 19.8539 16.4886 19.8702C16.3088 19.8866 16.1453 20.05 16.0963 20.2462C16.08 20.3279 16.08 20.4097 16.08 20.4914C16.08 21.701 16.08 22.9106 16.08 24.1202C16.08 24.1856 16.08 24.2674 16.08 24.3327C16.0636 24.5289 15.9492 24.627 15.753 24.5616C15.5242 24.4962 15.3607 24.3654 15.23 24.1856C14.9521 23.826 14.8213 23.4337 14.8213 22.976C14.8213 21.6683 14.8213 20.3606 14.8213 19.0529C14.8213 18.9875 14.8213 18.9221 14.8213 18.8404C15.1809 18.7096 15.4752 18.8404 15.753 19.0366C16.4886 18.6443 17.1915 18.5952 17.8781 19.151C18.1069 18.9875 18.3521 18.8568 18.63 18.8077C19.1367 18.726 19.6271 18.7587 20.0521 19.102C20.1992 19.2164 20.2809 19.3635 20.2809 19.5596C20.2973 19.9683 20.3136 20.377 20.3136 20.802C20.3136 21.3414 20.3136 21.8808 20.3136 22.4366C20.3136 22.7308 20.3136 23.0251 20.2809 23.3029C20.2156 23.7606 20.0031 24.1529 19.6271 24.4472C19.5944 24.4635 19.5781 24.4799 19.5454 24.4962C19.2184 24.676 19.0386 24.5779 19.0386 24.202C19.0386 22.9597 19.0386 21.701 19.0386 20.4587C19.0386 20.3606 19.0386 20.2625 19.0059 20.1808C18.9406 20.0173 18.7444 19.8866 18.5646 19.8866C18.4011 19.8866 18.205 20.0337 18.1559 20.2135C18.1232 20.3116 18.1232 20.4097 18.1232 20.4914C18.1232 21.2106 18.1232 21.9135 18.1232 22.6327C18.0579 22.7145 18.0579 22.7962 18.0579 22.8779Z" fill="#727176"/>
<path d="M8.82205 19.3799C8.82205 18.8895 8.82205 18.4154 8.82205 17.9414C8.82205 17.6635 8.87109 17.6145 9.14897 17.6145C9.37782 17.6145 9.37782 17.6145 9.55763 17.7125C9.57398 17.827 9.59032 17.9414 9.59032 18.0558C9.59032 19.6577 9.59032 21.2597 9.59032 22.8453C9.59032 22.9433 9.57398 23.0414 9.57398 23.1395C9.55763 23.2376 9.50859 23.303 9.39417 23.303C9.37782 23.303 9.34513 23.303 9.32878 23.303C8.95282 23.3193 8.92013 23.2866 8.87109 22.9106C8.60955 23.1395 8.33166 23.303 7.98839 23.3683C7.62877 23.4337 7.26916 23.3847 6.94223 23.2212C6.56627 23.0251 6.38646 22.6818 6.33742 22.2731C6.25569 21.5539 6.25569 20.8347 6.33742 20.1154C6.4028 19.4943 6.76242 19.0693 7.498 19.0039C7.93935 18.9712 8.34801 19.0693 8.70763 19.3472C8.72397 19.3635 8.74032 19.3799 8.77301 19.3962C8.78936 19.3799 8.78936 19.3799 8.82205 19.3799ZM8.82205 20.1481C8.60955 19.9029 8.3807 19.7231 8.08647 19.6577C7.56339 19.5433 7.12204 19.6904 7.073 20.3443C7.04031 20.9001 7.04031 21.4395 7.073 21.9953C7.08935 22.5347 7.46531 22.7962 8.00474 22.6981C8.33166 22.6328 8.5932 22.453 8.82205 22.2078C8.82205 22.1587 8.82205 22.126 8.82205 22.1097C8.82205 21.4722 8.82205 20.802 8.82205 20.1481Z" fill="#444242"/>
<path d="M4.6049 19.4453C4.62124 19.4126 4.63759 19.3962 4.63759 19.3635C4.63759 19.2491 4.63759 19.102 4.76836 19.0856C4.91548 19.053 5.06259 19.0693 5.22605 19.0856C5.25875 19.0856 5.30779 19.1837 5.32413 19.2328C5.34048 19.2655 5.32413 19.3145 5.32413 19.3472C5.32413 20.5732 5.32413 21.7991 5.32413 23.0251C5.32413 23.0741 5.34048 23.1559 5.30779 23.1886C5.19336 23.3684 4.99721 23.2866 4.83374 23.2866C4.71932 23.2866 4.65394 23.2212 4.63759 23.1068C4.62124 23.0414 4.62124 22.976 4.62124 22.8943C4.55586 22.9434 4.50682 22.976 4.45778 23.0087C4.00009 23.3684 3.49335 23.4664 2.95393 23.303C2.47989 23.1722 2.21835 22.8453 2.12027 22.3876C2.08758 22.2241 2.07123 22.0443 2.07123 21.8809C2.07123 21.3905 2.05488 20.8837 2.07123 20.3933C2.07123 20.1972 2.10392 19.9847 2.16931 19.8049C2.31642 19.2981 2.67604 19.053 3.18277 18.9876C3.68951 18.9222 4.1472 19.053 4.53951 19.3799C4.53951 19.4126 4.5722 19.4289 4.6049 19.4453ZM4.5722 21.178C4.5722 20.9491 4.53951 20.7203 4.5722 20.4914C4.62124 20.1482 4.44144 19.9847 4.19624 19.8376C4.08182 19.7722 3.96739 19.7068 3.85297 19.6741C3.32989 19.5433 2.8395 19.7068 2.82316 20.3443C2.80681 20.851 2.80681 21.3578 2.79046 21.8645C2.79046 21.9462 2.80681 22.0443 2.82316 22.126C2.8722 22.4693 3.06835 22.6491 3.41162 22.7145C3.86932 22.7962 4.22893 22.5837 4.52317 22.2568C4.5722 22.2078 4.5722 22.126 4.5722 22.0607C4.5722 21.7501 4.5722 21.4722 4.5722 21.178Z" fill="#444242"/>
<path d="M13.9054 21.178C13.8891 21.4722 13.8891 21.7664 13.8564 22.0443C13.8074 22.7309 13.3497 23.2213 12.6631 23.352C12.2708 23.4174 11.8949 23.4174 11.5189 23.2703C10.9304 23.0578 10.6198 22.6165 10.5872 21.9953C10.5545 21.4722 10.5708 20.9491 10.5872 20.4097C10.6035 19.6578 11.0939 19.1347 11.8458 19.0203C12.2218 18.9712 12.5977 18.9712 12.9574 19.1184C13.4968 19.3309 13.791 19.7395 13.8564 20.3116C13.8891 20.5895 13.8891 20.8837 13.9054 21.178ZM13.1208 21.1943C13.1208 20.9655 13.1208 20.7366 13.1045 20.5078C13.0718 19.9193 12.7612 19.5924 12.1564 19.6087C12.1237 19.6087 12.0747 19.6087 12.042 19.6251C11.7804 19.6578 11.5516 19.7722 11.4535 20.0337C11.3881 20.1972 11.3227 20.3934 11.3227 20.5732C11.3064 20.9818 11.3064 21.3905 11.3227 21.7828C11.3227 21.8809 11.3391 21.9789 11.3554 22.077C11.4535 22.5184 11.7477 22.7472 12.2054 22.7472C12.6631 22.7472 12.9737 22.5347 13.0554 22.0934C13.1208 21.7991 13.1045 21.4886 13.1208 21.1943Z" fill="#444242"/>
<path d="M20.1346 18.9385C19.3336 18.4808 18.598 18.5135 17.8297 18.9222C17.1595 18.4481 16.4566 18.4808 15.7211 18.8241C15.5249 18.6933 15.3288 18.5789 15.0509 18.628C15.4432 17.876 15.9989 17.4183 16.7672 17.1731C16.8653 16.8626 16.8816 16.5356 16.8816 16.176C17.3066 16.3722 17.7153 16.3722 18.124 16.1924C18.1567 16.5193 18.2057 16.8299 18.2384 17.1568C19.1538 17.451 19.7749 18.0068 20.1346 18.9385Z" fill="#444242"/>
<path d="M23.697 21.1943C23.7134 21.4885 23.697 21.7991 23.7461 22.0934C23.7951 22.453 24.0239 22.6655 24.3836 22.7309C24.5961 22.7799 24.8086 22.7472 25.0047 22.6818C25.2826 22.6001 25.4297 22.4039 25.4788 22.126C25.5278 21.8645 25.5278 21.8645 25.8057 21.8482C25.822 21.8482 25.8547 21.8482 25.8711 21.8482C26.2797 21.8318 26.2634 22.0116 26.2143 22.2568C26.0999 22.8616 25.6913 23.1886 25.1191 23.3193C24.6288 23.4338 24.1547 23.4011 23.697 23.1722C23.2557 22.9434 22.9941 22.5674 22.9614 22.077C22.9287 21.4722 22.9287 20.8837 22.9614 20.2789C22.9941 19.6251 23.4845 19.1347 24.1711 19.0203C24.5634 18.9549 24.972 18.9712 25.348 19.102C25.8711 19.2981 26.2143 19.7395 26.2143 20.2462C26.2143 20.4587 26.1817 20.5078 25.9691 20.5078C25.9365 20.5078 25.9038 20.5078 25.8711 20.5078C25.5278 20.5078 25.5115 20.5078 25.4461 20.1808C25.3807 19.8539 25.1518 19.6905 24.8086 19.6251C24.7595 19.6087 24.6941 19.6251 24.6451 19.6087C24.0076 19.576 23.7134 19.9357 23.6807 20.5078C23.697 20.753 23.697 20.9655 23.697 21.1943Z" fill="#444242"/>
<path d="M28.9932 20.2953C28.9932 19.5434 28.9932 18.8078 28.9932 18.0559C28.9932 18.0068 28.9932 17.9578 28.9932 17.9087C28.9932 17.6635 29.0585 17.5982 29.3201 17.5982C29.7287 17.5818 29.7614 17.6309 29.7614 18.0232C29.7614 19.4453 29.7614 20.8511 29.7614 22.2732C29.7614 22.3386 29.7614 22.404 29.7614 22.4693C29.7778 22.6165 29.8268 22.6655 29.9739 22.6982C30.0557 22.7145 30.1864 22.6818 30.2028 22.7799C30.2355 22.8943 30.2355 23.0251 30.2191 23.1395C30.2028 23.1886 30.121 23.254 30.072 23.2703C29.8268 23.352 29.5816 23.3357 29.3364 23.2376C29.1566 23.1559 29.0585 22.9924 29.0422 22.7963C29.0258 22.6328 29.0095 22.453 29.0095 22.2895C28.9768 21.6357 28.9932 20.9655 28.9932 20.2953Z" fill="#444242"/>
<path d="M21.2127 19.6741C21.131 19.6577 21.0493 19.6577 20.9839 19.6414C20.8204 19.6087 20.7714 19.527 20.7877 19.3145C20.8041 19.1347 20.8531 19.0693 21.0166 19.0529C21.2618 19.0529 21.507 19.0529 21.7522 19.0529C21.9156 19.0529 21.9647 19.1183 21.9647 19.2818C21.9647 19.3308 21.9647 19.3799 21.9647 19.4289C21.9647 20.5895 21.9647 21.7664 21.9647 22.927C21.9647 22.9924 21.9647 23.0578 21.9647 23.1232C21.9647 23.2212 21.8993 23.2866 21.8012 23.2866C21.6704 23.2866 21.5397 23.2866 21.4089 23.2866C21.2945 23.2866 21.2291 23.2212 21.2291 23.1068C21.2291 23.0414 21.2291 22.976 21.2291 22.9106C21.2291 21.9135 21.2291 20.9164 21.2291 19.9193C21.2127 19.8539 21.2127 19.7722 21.2127 19.6741Z" fill="#444242"/>
<path d="M32.9497 19.6741C32.8516 19.6577 32.7862 19.6577 32.7209 19.6414C32.5737 19.6251 32.5247 19.5597 32.5247 19.4126C32.5247 19.3635 32.5247 19.3145 32.5247 19.2654C32.5411 19.1183 32.5901 19.0529 32.7372 19.0529C32.9824 19.0529 33.2439 19.0529 33.4891 19.0529C33.6362 19.0529 33.6853 19.1183 33.7016 19.2654C33.7016 19.3145 33.7016 19.3635 33.7016 19.4126C33.7016 20.5895 33.7016 21.7664 33.7016 22.9433C33.7016 22.9924 33.7016 23.0578 33.7016 23.1068C33.7016 23.2049 33.6362 23.2703 33.5382 23.2866C33.4074 23.303 33.2603 23.2866 33.1295 23.2866C33.0314 23.2866 32.9824 23.2212 32.9661 23.1395C32.9661 23.0741 32.9661 23.0087 32.9661 22.9433C32.9661 21.9299 32.9661 20.9328 32.9661 19.9193C32.9497 19.8539 32.9497 19.7722 32.9497 19.6741Z" fill="#444242"/>
<path d="M27.2122 19.6741C27.1304 19.6577 27.065 19.6577 27.016 19.6414C26.8362 19.6087 26.7708 19.5433 26.7872 19.3145C26.7872 19.1183 26.8525 19.0529 27.0487 19.0529C27.2448 19.0529 27.4573 19.0529 27.6535 19.0529C27.915 19.0529 27.9477 19.0856 27.9477 19.3472C27.9477 20.3443 27.9477 21.3251 27.9477 22.3222C27.9477 22.5674 27.9477 22.8126 27.9477 23.0578C27.9477 23.2703 27.915 23.303 27.6862 23.303C27.5881 23.303 27.49 23.303 27.392 23.303C27.2612 23.2866 27.2122 23.2376 27.1958 23.1068C27.1958 23.0578 27.1958 22.9924 27.1958 22.9433C27.1958 21.9462 27.1958 20.9491 27.1958 19.952C27.2122 19.8539 27.2122 19.7722 27.2122 19.6741Z" fill="#444242"/>
<path d="M18.5473 14.868C18.5963 15.2928 18.1715 15.8811 17.5342 15.8811C16.946 15.8647 16.5211 15.4399 16.5048 14.868C16.5048 14.198 17.0603 13.8222 17.5506 13.8385C18.0408 13.8385 18.58 14.2797 18.5473 14.868Z" fill="#E8BB00"/>
<path d="M19.0713 14.2797C19.6269 14.1653 20.1988 14.0673 20.7544 13.9529C20.8197 13.9366 20.9014 13.9366 20.9668 13.9366C21.1629 13.9366 21.2936 14.051 21.3263 14.2307C21.359 14.3941 21.2609 14.5738 21.0812 14.6229C20.9668 14.6555 20.8688 14.6719 20.7544 14.7046C20.2151 14.8026 19.6759 14.917 19.1367 15.015C19.0877 15.0314 19.0386 15.015 19.006 15.015C18.9733 14.8026 18.9406 14.5902 18.9243 14.3941C18.9079 14.2797 18.9896 14.2797 19.0713 14.2797Z" fill="#444242"/>
<path d="M16.1614 14.2797C16.1124 14.5084 16.0634 14.7535 16.0143 15.015C15.8836 14.9986 15.7365 14.966 15.5895 14.9496C15.0993 14.8516 14.6254 14.7699 14.1352 14.6718C14.0862 14.6555 14.0208 14.6555 13.9718 14.6228C13.7921 14.5574 13.6777 14.4104 13.7104 14.2306C13.743 14.0509 13.8901 13.9038 14.0862 13.9202C14.3313 13.9529 14.5764 14.0019 14.8215 14.0509C15.2137 14.1163 15.6058 14.198 15.9817 14.2633C16.047 14.2797 16.1124 14.2797 16.1614 14.2797Z" fill="#444242"/>
<path d="M32.1976 22.9432C32.2303 23.2863 31.9688 23.4987 31.642 23.4987C31.2989 23.4987 31.0865 23.3517 31.0865 22.9595C31.0865 22.6 31.2662 22.3713 31.642 22.3713C31.9525 22.3713 32.2303 22.5837 32.1976 22.9432Z" fill="#E8BB01"/>
<path d="M19.0713 14.2797C18.9896 14.2797 18.9082 14.2629 18.9246 14.3773C18.7938 14.1322 18.8265 13.8871 18.8592 13.6257C18.8919 13.4296 19.039 13.3152 19.2024 13.2499C19.3331 13.2008 19.4801 13.1681 19.6272 13.1191C19.6435 13.0701 19.6762 13.0047 19.6926 12.9557C19.7906 12.776 19.9867 12.7106 20.1664 12.8087C20.3462 12.9067 20.4115 13.1191 20.3135 13.2825C20.2155 13.4459 20.003 13.5113 19.8233 13.3969C19.7743 13.3806 19.7416 13.3316 19.7089 13.3152C19.5618 13.3642 19.4311 13.3969 19.2841 13.4459C19.088 13.5113 19.039 13.5767 19.039 13.7891C19.0553 13.9525 19.0713 14.1163 19.0713 14.2797Z" fill="#5C5C60"/>
<path d="M16.1614 14.2797C16.1124 14.2797 16.0462 14.2792 15.9972 14.2792C15.9972 14.1158 15.9972 13.9361 15.9972 13.7727C15.9972 13.6256 15.9318 13.5276 15.7848 13.4786C15.6377 13.4295 15.4907 13.3805 15.3436 13.3315C15.0331 13.5276 14.837 13.4949 14.7063 13.2661C14.6083 13.1027 14.69 12.8903 14.8861 12.8086C15.0985 12.7106 15.2782 12.8086 15.3926 13.1354C15.5233 13.1681 15.6377 13.2171 15.7684 13.2661C16.0299 13.3478 16.1933 13.4949 16.177 13.8217C16.1933 13.9688 16.1777 14.1326 16.1614 14.2797Z" fill="#5C5C60"/>
<path d="M21.1152 18.0884C21.1152 17.7779 21.2459 17.6308 21.54 17.6308C21.8505 17.6308 21.9976 17.7452 22.0139 18.072C22.0302 18.3498 21.8505 18.5132 21.5564 18.5132C21.2623 18.5132 21.1152 18.3825 21.1152 18.0884Z" fill="#444242"/>
<path d="M27.1134 18.072C27.1134 17.7779 27.2605 17.6308 27.5546 17.6308C27.8161 17.6308 28.0121 17.7289 28.0121 18.0884C28.0121 18.3662 27.8324 18.5296 27.5383 18.5132C27.2605 18.5132 27.1134 18.3662 27.1134 18.072Z" fill="#454343"/>
<path d="M32.8517 18.072C32.8517 17.7616 32.9824 17.6308 33.2929 17.6308C33.6033 17.6308 33.7504 17.7779 33.7504 18.0884C33.7504 18.3825 33.6033 18.5132 33.2929 18.5132C32.9987 18.5132 32.8517 18.3662 32.8517 18.072Z" fill="#444242"/>
<path d="M38.0001 21.178C37.9838 21.4722 37.9838 21.7664 37.9511 22.0443C37.902 22.7309 37.4443 23.2213 36.7578 23.352C36.3655 23.4174 35.9895 23.4174 35.6136 23.2703C35.0251 23.0578 34.7145 22.6165 34.6818 21.9953C34.6491 21.4722 34.6655 20.9491 34.6818 20.4097C34.6982 19.6578 35.1886 19.1347 35.9405 19.0203C36.3165 18.9712 36.6924 18.9712 37.052 19.1184C37.5915 19.3309 37.8857 19.7395 37.9511 20.3116C38.0001 20.5895 38.0001 20.9001 38.0001 21.178ZM37.2318 21.2107C37.2318 20.9818 37.2318 20.753 37.2155 20.5241C37.1828 19.9357 36.8722 19.6087 36.2674 19.6251C36.2347 19.6251 36.1857 19.6251 36.153 19.6414C35.8915 19.6741 35.6626 19.7886 35.5645 20.0501C35.4991 20.2136 35.4338 20.4097 35.4338 20.5895C35.4174 20.9982 35.4174 21.4068 35.4338 21.7991C35.4338 21.8972 35.4501 21.9953 35.4665 22.0934C35.5645 22.5347 35.8588 22.7636 36.3165 22.7636C36.7742 22.7636 37.0847 22.5511 37.1665 22.1097C37.2318 21.8155 37.2155 21.5049 37.2318 21.2107Z" fill="#444242"/>
</svg>
