<svg width="40" height="40" viewBox="0 0 40 40" fill="none" xmlns="http://www.w3.org/2000/svg">
<rect width="40" height="40" fill="#FF6A44"/>
<path d="M19.9687 26.8138C16.0442 26.7559 12.1853 26.3355 8.53496 24.781C8.07142 24.5843 7.22548 24.5882 7.69287 23.5968C8.37658 22.1542 8.39976 22.1272 9.55859 22.54C16.5656 25.0356 23.5843 25.0703 30.5566 22.459C31.8545 21.9729 31.8622 22.918 32.2523 23.5428C32.8047 24.43 32.0167 24.5496 31.5107 24.7733C28.5827 26.0578 23.8508 26.8871 19.9687 26.8138Z" fill="white"/>
<path d="M15.0789 16.5265C15.0982 17.9306 13.9471 19.0646 12.4947 19.0762C11.0655 19.0877 9.86029 17.9421 9.86029 16.5689C9.86029 15.1726 11.0462 13.9962 12.4483 14C13.893 14.0039 15.0596 15.1225 15.0789 16.5265Z" fill="white"/>
<path d="M27.0339 14.0116C28.4824 13.9846 29.6606 15.0801 29.6837 16.4802C29.7108 17.9036 28.6099 19.0299 27.1536 19.0685C25.6935 19.107 24.5424 18.0386 24.496 16.6114C24.4574 15.2305 25.6162 14.0386 27.0339 14.0116Z" fill="white"/>
<path d="M19.8069 19.0684C18.3197 19.08 17.2111 18.0154 17.1995 16.5728C17.1918 15.1572 18.3197 14.027 19.7566 14.0116C21.2052 13.9962 22.3486 15.0993 22.3563 16.5188C22.3679 17.9653 21.2709 19.0607 19.8069 19.0684Z" fill="white"/>
</svg>
