<svg width="40" height="40" viewBox="0 0 40 40" fill="none" xmlns="http://www.w3.org/2000/svg">
<rect width="40" height="40" fill="#0099FD"/>
<path d="M17.5089 31.2545C15.8362 31.2545 14.1817 31.2545 12.5089 31.2545C11.8726 31.2545 11.2544 31.1636 10.7089 30.8C9.89074 30.2727 9.36347 29.5273 9.25438 28.5454C9.19984 28.0909 9.2362 27.6182 9.2362 27.1636C9.2362 22.1454 9.2362 17.1273 9.2362 12.1091C9.2362 11.5636 9.21802 11.0182 9.21802 10.4727C9.21802 10.1636 9.2362 9.85453 9.30893 9.56362C9.45438 8.90907 9.90893 8.47271 10.4907 8.21817C11.0726 7.96362 11.6726 7.74544 12.2907 7.59998C13.3453 7.34544 14.3998 7.10907 15.4726 6.92726C16.5817 6.74544 17.7089 6.74544 18.818 6.7818C20.5817 6.83635 22.3089 7.16362 24.018 7.52726C24.6544 7.65453 25.3089 7.79998 25.9453 7.89089C26.3635 7.94544 26.7998 7.94544 27.2362 7.90907C27.9089 7.83635 28.2362 7.29089 28.0362 6.61817C27.9271 6.23635 27.6907 5.96362 27.3817 5.74544C27.2726 5.67271 27.1635 5.56362 26.9998 5.45453C27.3089 5.45453 27.5817 5.45453 27.8362 5.45453C28.5271 5.47271 29.1453 5.69089 29.6726 6.14544C30.218 6.61817 30.5271 7.21817 30.6907 7.90907C30.8726 8.69089 30.818 9.45453 30.5817 10.2182C30.5635 10.2727 30.5453 10.3273 30.5453 10.3818C30.5635 12.2363 30.5817 14.0909 30.5817 15.9454C30.5817 19.7454 30.5817 23.5454 30.5817 27.3636C30.5817 27.8 30.5817 28.2545 30.5453 28.6909C30.4544 29.4364 30.1271 30.0545 29.5453 30.5454C28.9271 31.0727 28.218 31.2727 27.418 31.2727C26.218 31.2727 25.018 31.2909 23.818 31.2545C23.4544 31.2364 23.218 31.4182 22.9817 31.6182C21.8907 32.5273 20.7817 33.4182 19.6907 34.3273C19.0907 34.8182 18.3271 34.5818 18.1453 33.8182C17.9453 33.0182 17.7635 32.2182 17.5817 31.4364C17.5453 31.3454 17.5271 31.3091 17.5089 31.2545ZM30.0726 18.4727C29.3998 18.4545 29.3271 18.6727 29.2362 19.0727C29.1817 19.3454 29.0907 19.6363 29.018 19.9091C28.7635 20.9091 28.2726 21.7636 27.4544 22.4182C26.5271 23.1454 25.4544 23.4363 24.2907 23.2545C22.6362 23 21.4907 22.0545 20.8726 20.4909C20.6544 19.9454 20.5089 19.3454 20.3089 18.7818C20.2726 18.6727 20.1998 18.5818 20.1271 18.5091C19.8362 18.2727 19.3089 18.3454 19.1635 18.9091C18.9817 19.6 18.7998 20.2727 18.4726 20.9091C17.618 22.6182 15.8362 23.5636 13.9635 23.2182C12.2544 22.9091 11.1453 21.8727 10.6362 20.2182C10.5089 19.7818 10.418 19.3091 10.2907 18.8727C10.218 18.5818 10.0362 18.4727 9.74529 18.4909C9.74529 18.5454 9.74529 18.6 9.74529 18.6727C9.74529 21.8363 9.74529 24.9818 9.74529 28.1454C9.74529 29.5818 10.9089 30.7273 12.3271 30.7273C14.0907 30.7273 15.8544 30.7273 17.618 30.7273C17.8907 30.7273 17.9453 30.7636 18.018 31.0364C18.2362 31.9091 18.4362 32.7818 18.6544 33.6545C18.7453 34.0727 19.0544 34.1818 19.3635 33.9091C20.5998 32.8909 21.8544 31.8727 23.0907 30.8545C23.1998 30.7636 23.3089 30.7273 23.4544 30.7273C24.8544 30.7273 26.2362 30.7273 27.6362 30.7273C27.818 30.7273 27.9998 30.7091 28.1635 30.6727C29.0907 30.4545 29.6726 29.8727 29.9817 28.9818C30.1271 28.5454 30.1089 28.0909 30.1089 27.6545C30.1089 24.6727 30.1089 21.6909 30.1089 18.6909C30.0726 18.6363 30.0726 18.5636 30.0726 18.4727ZM9.74529 15.5636C9.76347 15.5636 9.79984 15.5818 9.81802 15.5818C9.85438 15.5818 9.89074 15.5818 9.92711 15.5818C10.2907 15.5273 10.5817 15.3636 10.818 15.0909C11.018 14.8545 11.0544 14.6 10.9817 14.3091C10.9271 14.0909 10.8544 13.8909 10.7998 13.6727C10.6726 13.1454 10.7271 12.6545 11.0726 12.2363C11.5453 11.6363 12.1089 11.1818 12.9089 11.0727C13.1089 11.0545 13.2907 11.0182 13.4907 11C14.0726 10.9454 14.6362 10.8545 15.218 10.8545C15.9089 10.8363 16.618 10.8545 17.3089 10.8909C17.9089 10.9273 18.4907 10.9818 19.0907 11.0909C20.5998 11.3636 22.1089 11.6545 23.618 11.9273C24.818 12.1454 25.9998 12.3091 27.218 12.2545C28.1998 12.2182 29.018 11.8545 29.5817 11.0363C30.2362 10.1091 30.418 9.07271 30.1635 7.9818C29.9453 7.05453 29.418 6.36362 28.4726 6.07271C28.4362 6.05453 28.3817 6.05453 28.3453 6.05453C28.418 6.27271 28.4907 6.45453 28.5453 6.63635C28.7453 7.43635 28.3089 8.1818 27.5089 8.36362C26.818 8.52726 26.1271 8.47271 25.4362 8.34544C24.818 8.23635 24.1998 8.07271 23.5635 7.96362C22.7998 7.81817 22.0362 7.70907 21.2544 7.56362C20.3998 7.41817 19.5453 7.30907 18.6907 7.29089C18.1635 7.27271 17.6544 7.23635 17.1271 7.23635C16.618 7.23635 16.1089 7.23635 15.618 7.30907C14.8726 7.43635 14.1271 7.59998 13.3998 7.79998C12.5453 8.03635 11.6907 8.27271 10.8544 8.5818C10.1089 8.85453 9.67256 9.41817 9.69074 10.2545C9.70893 11.4363 9.70893 12.6363 9.70893 13.8182C9.74529 14.4 9.74529 14.9636 9.74529 15.5636ZM30.0726 11.2727C30.0544 11.2727 30.0544 11.2727 30.0362 11.2727C30.018 11.2909 30.018 11.2909 29.9998 11.3091C29.5817 11.8909 29.0362 12.2909 28.3635 12.5273C27.8726 12.6909 27.3817 12.7091 26.8726 12.7273C25.9089 12.7636 24.9635 12.6182 24.0362 12.4545C22.5817 12.2 21.1271 11.9273 19.6726 11.6545C18.4362 11.4182 17.1817 11.2727 15.9089 11.3091C15.0907 11.3273 14.2726 11.4182 13.4362 11.4727C12.8362 11.5091 12.2907 11.6909 11.8362 12.0909C11.4544 12.4182 11.1817 12.8 11.2544 13.3273C11.2907 13.5818 11.3998 13.8363 11.4362 14.0909C11.4726 14.2909 11.5089 14.5273 11.4726 14.7273C11.3998 15.2909 11.018 15.6363 10.5271 15.8545C10.2726 15.9636 9.98165 16.0182 9.69074 16.1091C9.69074 16.4909 9.69074 16.9091 9.69074 17.3273C10.2362 17.2545 10.6362 16.9818 10.9998 16.6C11.4362 16.1636 11.8907 15.7273 12.418 15.4C13.2362 14.8727 14.1635 14.7454 15.1453 14.8545C16.0362 14.9636 16.7998 15.3091 17.4544 15.9273C17.8544 16.3091 18.218 16.7273 18.5998 17.1273C18.818 17.3636 19.0544 17.4909 19.3998 17.4363C19.618 17.4 19.8362 17.4 20.0544 17.4363C20.3271 17.4727 20.5453 17.4182 20.7271 17.2364C20.9453 17 21.1453 16.7818 21.3635 16.5454C21.7635 16.0909 22.1998 15.6727 22.7271 15.3818C23.618 14.8909 24.5635 14.7091 25.5635 14.8909C26.1635 15 26.7453 15.1818 27.218 15.5636C27.7635 16 28.2544 16.4727 28.7817 16.9091C29.1271 17.2182 29.5635 17.3273 30.0362 17.3636C30.0726 15.3273 30.0726 13.3091 30.0726 11.2727ZM28.5089 19.0909C28.5089 17 26.8907 15.5091 24.9998 15.4182C22.7453 15.3273 21.2726 17.1636 21.1998 18.8727C21.1089 21.0182 22.7817 22.6182 24.5998 22.7273C26.8907 22.8545 28.5271 21.0364 28.5089 19.0909ZM14.6362 22.7273C16.5635 22.7636 18.3453 21.1454 18.3089 19.0363C18.2544 17 16.6726 15.4545 14.7271 15.4182C12.618 15.3818 11.0362 16.9636 10.9998 19.0545C10.9453 21.1091 12.6544 22.7454 14.6362 22.7273Z" fill="white"/>
<path d="M21.6536 8.36281C21.4173 8.32644 21.1809 8.30826 20.9446 8.2719C20.3809 8.21735 19.8173 8.16281 19.2355 8.09008C18.0355 7.96281 16.8536 7.96281 15.6536 8.01735C14.7809 8.05371 13.9264 8.19917 13.09 8.43553C12.49 8.61735 11.9082 8.81735 11.3082 9.01735C11.29 9.01735 11.2718 9.03553 11.2173 8.99917C11.29 8.94462 11.3627 8.89008 11.4355 8.85371C12.1991 8.45371 12.9991 8.19917 13.8355 8.03553C14.9264 7.81735 16.0173 7.69008 17.1082 7.74462C17.9446 7.78099 18.7809 7.85371 19.5991 7.96281C20.2718 8.03553 20.9446 8.18099 21.6173 8.29008C21.6536 8.32644 21.6536 8.34462 21.6536 8.36281Z" fill="white"/>
<path d="M21.7809 10.9818C22.3082 11.1091 22.7991 11.2364 23.3082 11.3273C24.29 11.5273 25.2718 11.6728 26.2718 11.6C27.29 11.5273 28.1627 11.1273 28.7445 10.2546C28.9627 9.94548 29.1445 9.61821 29.3082 9.3273C29.3627 9.67275 29.1082 10.3818 28.7809 10.7637C28.2718 11.3637 27.5809 11.6 26.8354 11.7455C26.0172 11.9091 25.1991 11.8 24.3809 11.6364C23.5263 11.4546 22.69 11.2182 21.8354 11C21.8354 11 21.8354 11 21.7809 10.9818Z" fill="white"/>
<path d="M26.1098 18.8909C26.0916 19.5273 25.9825 20.1273 25.5825 20.6364C25.2007 21.1091 24.6734 21.0727 24.3098 20.6C24.0189 20.2182 23.8916 19.7637 23.8371 19.3091C23.7643 18.6727 23.8371 18.0546 24.1461 17.4727C24.2189 17.3091 24.3461 17.1637 24.4734 17.0364C24.8007 16.7455 25.2189 16.7637 25.5098 17.1091C25.8189 17.4546 25.9643 17.8546 26.0371 18.3091C26.0916 18.5091 26.0916 18.7091 26.1098 18.8909Z" fill="white"/>
<path d="M15.6913 19.1454C15.6913 19.4909 15.6004 20.0545 15.255 20.5454C14.8368 21.1273 14.2731 21.1273 13.8731 20.5454C13.6004 20.1454 13.4913 19.7091 13.455 19.2363C13.3822 18.5454 13.455 17.8727 13.855 17.2727C14.2731 16.6545 14.9095 16.6909 15.2913 17.3454C15.6004 17.8363 15.6913 18.3636 15.6913 19.1454Z" fill="white"/>
</svg>
