<svg width="40" height="40" viewBox="0 0 40 40" fill="none" xmlns="http://www.w3.org/2000/svg">
<rect width="40" height="40" fill="#F9F9F9"/>
<path fill-rule="evenodd" clip-rule="evenodd" d="M28.0935 10.5565L26.761 11.8978L27.2519 12.4238C28.5493 13.8439 29.5487 15.8865 29.9695 17.973C30.1711 19.0162 30.1711 21.1727 29.9695 22.2159C29.5575 24.3024 28.5669 26.3186 27.2519 27.7739L26.761 28.3086L28.111 29.6499L29.4611 31L29.7416 30.7457C30.6358 29.8954 31.7929 28.2034 32.4943 26.7307C34.5018 22.4877 34.5018 17.7012 32.4943 13.4582C32.0033 12.4325 31.2757 11.2403 30.6708 10.4951C30.25 9.97792 29.54 9.224 29.4698 9.224C29.4435 9.224 28.8299 9.82889 28.0935 10.5565ZM10.0873 9.63608C7.27325 12.5904 5.67775 17.184 6.05471 21.2692C6.24757 23.3293 6.68589 24.9862 7.50994 26.7307C8.21126 28.2035 9.36843 29.8954 10.2626 30.7458L10.5431 31L11.8932 29.65L13.2432 28.3087L12.7523 27.7739C11.4373 26.3187 10.4467 24.3024 10.0347 22.216C9.83305 21.1815 9.83305 19.0162 10.0347 17.9905C10.4555 15.8954 11.4373 13.8615 12.7523 12.4151L13.2432 11.8803L11.9107 10.5566C11.1743 9.82018 10.5519 9.22406 10.5344 9.22406C10.5081 9.22406 10.3064 9.40816 10.0873 9.63608ZM15.54 16.0969C15.8994 15.6498 16.3202 15.3605 16.8199 15.2203C17.1355 15.1326 17.9771 15.1063 20.1775 15.1238C22.9652 15.1414 23.1318 15.1501 23.5175 15.3255C24.0259 15.5622 24.5344 16.0706 24.7711 16.5791C24.9464 16.9648 24.9552 17.1051 24.9552 20.0944C24.9552 23.075 24.9464 23.2241 24.7711 23.601C24.5256 24.1095 24.0698 24.5829 23.535 24.8371C23.1142 25.0475 23.0967 25.0475 20.0021 25.0475C16.8988 25.0475 16.89 25.0475 16.4605 24.8371C15.9257 24.5741 15.4699 24.1182 15.2332 23.6098C15.0578 23.2241 15.0491 23.0838 15.0491 20.1383C15.0491 16.807 15.0666 16.693 15.54 16.0969Z" fill="url(#paint0_linear_5900_3625)"/>
<defs>
<linearGradient id="paint0_linear_5900_3625" x1="13.5" y1="11.8164" x2="26.5681" y2="27.9474" gradientUnits="userSpaceOnUse">
<stop stop-color="#F50256"/>
<stop offset="1" stop-color="#AC135B"/>
</linearGradient>
</defs>
</svg>
