<svg width="40" height="40" viewBox="0 0 40 40" fill="none" xmlns="http://www.w3.org/2000/svg">
<rect width="40" height="40" fill="white"/>
<path fill-rule="evenodd" clip-rule="evenodd" d="M21.3639 18.1028C21.3816 18.0913 21.3991 18.0793 21.4228 18.0629L21.4399 18.0512C21.487 18.0188 21.5337 17.9854 21.5787 17.9515C21.6041 17.9325 21.629 17.9136 21.6536 17.8946C21.7008 17.8577 21.7472 17.8194 21.7927 17.7805L21.8546 17.7278C21.922 17.6687 21.9841 17.6109 22.0441 17.5514L23.5278 16.129C23.5986 16.0567 23.6632 15.9817 23.7252 15.8999C24.0407 15.4853 24.2074 14.9913 24.2074 14.4713C24.2074 13.7929 23.8841 13.1139 23.3425 12.6548C23.3232 12.6387 23.3034 12.6223 23.2832 12.6061C23.1348 12.4881 22.9806 12.3917 22.8249 12.3195C22.5138 12.1754 22.1664 12.0991 21.8204 12.0991C21.1829 12.0991 20.5826 12.3466 20.1298 12.7966L17.5414 15.4165L17.5322 15.4035C17.0815 14.7701 17.1755 13.8675 17.7508 13.3041L19.2097 11.8757C19.3024 11.7836 19.4002 11.6961 19.5002 11.6156C19.8028 11.3722 20.1422 11.1784 20.5092 11.0396C20.9729 10.8643 21.4621 10.7843 21.9615 10.8039C23.8226 10.8724 25.3435 12.313 25.4997 14.155C25.5875 15.1942 25.2462 16.1878 24.5385 16.953C23.8401 17.7082 22.8494 18.1413 21.8204 18.1413C21.6629 18.1413 21.5052 18.1314 21.35 18.1118C21.3547 18.1089 21.3594 18.1058 21.3639 18.1028ZM19.4043 10.841C19.3849 10.8538 19.3659 10.8668 19.3474 10.8798L19.3239 10.896C18.9902 11.123 18.6939 11.4078 18.4072 11.6834C18.2988 11.7877 18.1906 11.8916 18.0806 11.9924L17.3584 12.6545C16.8533 13.1175 16.5633 13.7745 16.5629 14.4572V14.4713C16.5629 14.6308 16.5788 14.79 16.6099 14.9444C16.6669 15.225 16.7805 15.4945 16.9479 15.7451C17.0988 15.9714 17.2807 16.1699 17.4887 16.3346C17.8283 16.6042 18.2286 16.7736 18.6464 16.8249C18.8319 16.8478 19.0118 16.8496 19.1963 16.8307C19.7465 16.7748 20.2451 16.5387 20.6387 16.1477L23.2287 13.5262L23.2375 13.5383C23.2605 13.5726 23.2818 13.608 23.3082 13.6535L23.3181 13.6707C23.6676 14.3144 23.5449 15.1233 23.0201 15.6376L21.5622 17.0653C21.19 17.4353 20.7525 17.7171 20.2628 17.9023C19.7987 18.078 19.3094 18.1579 18.8075 18.1385C16.9455 18.0697 15.4248 16.6277 15.27 14.7842C15.1831 13.7458 15.5248 12.753 16.2327 11.9886C16.9312 11.2341 17.9215 10.8012 18.9498 10.8012C19.1071 10.8012 19.2649 10.8111 19.4199 10.8307C19.4147 10.8341 19.4094 10.8376 19.4043 10.841ZM18.0328 15.8932C18.3634 15.5586 20.6112 13.2833 20.6177 13.2766C21.1609 12.7265 22.0702 12.6277 22.7313 13.0453L22.7376 13.0495L20.3587 15.4573C20.0208 15.7993 19.7082 16.0443 19.2807 16.1286C18.9065 16.2025 18.5126 16.1474 18.1733 15.9749L18.1331 15.9524C18.1009 15.9346 18.0691 15.9164 18.0371 15.8959C18.0357 15.895 18.0343 15.8942 18.0328 15.8932ZM26.1881 14.1495C26.0259 11.9195 24.1331 10.1492 21.8793 10.1193C21.3733 10.1137 20.8692 10.1933 20.3794 10.3573C19.9073 10.1954 19.4056 10.1146 18.8939 10.1192C16.6409 10.1474 14.7472 11.9154 14.5823 14.1444C14.492 15.3677 14.9038 16.5351 15.742 17.4317C16.5692 18.3164 17.7383 18.8238 18.9498 18.8238C19.4325 18.8238 19.9173 18.7435 20.3908 18.5851C20.8512 18.7435 21.3321 18.8238 21.8204 18.8238C23.0307 18.8238 24.1992 18.3171 25.0262 17.4334C25.8643 16.5382 26.277 15.372 26.1881 14.1495Z" fill="url(#paint0_linear_678_382)"/>
<path fill-rule="evenodd" clip-rule="evenodd" d="M9.05366 24.7613C9.05366 25.2269 8.89393 25.6122 8.56535 25.9391C8.23241 26.2692 7.84418 26.4296 7.37816 26.4296C6.91341 26.4296 6.52571 26.2692 6.1932 25.9394C5.86706 25.614 5.70171 25.2178 5.70171 24.7613C5.70171 24.2975 5.86239 23.9116 6.19278 23.5821C6.52624 23.2518 6.91394 23.0914 7.37816 23.0914C7.84365 23.0914 8.23199 23.2518 8.56513 23.5819C8.89393 23.9089 9.05366 24.2947 9.05366 24.7613ZM7.37816 22.3021C6.73309 22.3021 6.16943 22.5206 5.70171 22.9518V20.7076C5.70171 20.601 5.6618 20.5043 5.58422 20.4258C5.50695 20.3511 5.40942 20.3116 5.30191 20.3116C5.19429 20.3116 5.09718 20.3516 5.02045 20.4277C4.94414 20.5043 4.90381 20.6012 4.90381 20.7076V24.7613C4.90381 25.4371 5.14802 26.0216 5.62932 26.4987C6.11052 26.9778 6.69892 27.2207 7.37816 27.2207C8.05995 27.2207 8.64908 26.9778 9.12922 26.4989C9.60979 26.0226 9.85347 25.4379 9.85347 24.7613C9.85347 24.0841 9.60989 23.4985 9.12922 23.0206C8.64813 22.5439 8.0591 22.3021 7.37816 22.3021Z" fill="black"/>
<path fill-rule="evenodd" clip-rule="evenodd" d="M14.5689 24.7611C14.5689 25.2268 14.4092 25.6121 14.0807 25.939C13.7472 26.2692 13.3588 26.4296 12.8933 26.4296C12.4284 26.4296 12.0412 26.2693 11.7095 25.9391C11.3826 25.6143 11.217 25.218 11.217 24.7611C11.217 24.297 11.3781 23.9112 11.7095 23.5819C12.037 23.2564 12.4353 23.0913 12.8933 23.0913C13.3583 23.0913 13.7467 23.2518 14.0804 23.5819C14.4092 23.9089 14.5689 24.2946 14.5689 24.7611ZM12.8933 22.3021C12.2143 22.3021 11.626 22.5439 11.1446 23.0209C10.6641 23.4998 10.4205 24.0853 10.4205 24.7611C10.4205 25.4367 10.6641 26.0213 11.1445 26.4985C11.625 26.9778 12.2133 27.2207 12.8933 27.2207C13.4863 27.2207 14.0486 26.9979 14.5689 26.5578V26.8239C14.5689 26.934 14.6108 27.0319 14.6866 27.1031C14.7627 27.18 14.861 27.2207 14.971 27.2207C15.08 27.2207 15.1779 27.1801 15.2521 27.1052C15.33 27.0297 15.3696 26.9351 15.3696 26.8239V24.7611C15.3696 24.0861 15.1257 23.5006 14.6444 23.0206C14.1625 22.5439 13.5735 22.3021 12.8933 22.3021Z" fill="black"/>
<path fill-rule="evenodd" clip-rule="evenodd" d="M19.4815 22.4747C19.218 22.3603 18.8991 22.302 18.5336 22.302C17.9412 22.302 17.3776 22.5251 16.8548 22.9658V22.6976C16.8548 22.5883 16.8167 22.494 16.7394 22.4153C16.6631 22.3402 16.5679 22.302 16.4569 22.302C16.3474 22.302 16.2499 22.3415 16.1739 22.4171C16.0983 22.4942 16.0584 22.5913 16.0584 22.6976V26.8237C16.0584 26.9311 16.0987 27.0279 16.1741 27.1027C16.2501 27.1799 16.3479 27.2208 16.4569 27.2208C16.5659 27.2208 16.6639 27.1801 16.74 27.1039C16.8163 27.028 16.8548 26.9339 16.8548 26.8237V24.7613C16.8548 24.2942 17.0161 23.9087 17.3483 23.5819C17.6758 23.2564 18.0747 23.0913 18.5336 23.0913C18.7879 23.0913 19.0059 23.1344 19.1827 23.22C19.2351 23.2448 19.2949 23.2573 19.3599 23.2573C19.4707 23.2573 19.5685 23.2169 19.6396 23.1432C19.7164 23.0685 19.7571 22.9714 19.7571 22.8623C19.7571 22.7504 19.7192 22.656 19.6433 22.5806C19.5922 22.531 19.5354 22.4944 19.4815 22.4747Z" fill="black"/>
<path fill-rule="evenodd" clip-rule="evenodd" d="M24.0355 24.7611C24.0355 25.2266 23.8756 25.6119 23.5469 25.939C23.2136 26.2692 22.8256 26.4296 22.3604 26.4296C21.8952 26.4296 21.5071 26.2692 21.1742 25.9391C20.8437 25.6106 20.683 25.2251 20.683 24.7611C20.683 24.2962 20.8437 23.9105 21.174 23.5821C21.5075 23.2517 21.8957 23.0913 22.3604 23.0913C22.8252 23.0913 23.2132 23.2517 23.5466 23.5819C23.8756 23.9091 24.0355 24.2949 24.0355 24.7611ZM22.3604 22.3021C21.6814 22.3021 21.0927 22.5439 20.6104 23.0209C20.1296 23.5006 19.8856 24.0861 19.8856 24.7611C19.8856 25.436 20.1296 26.0206 20.6106 26.4986C21.0916 26.9778 21.6804 27.2207 22.3604 27.2207C23.0417 27.2207 23.6307 26.9778 24.1105 26.4987C24.592 26.0202 24.8361 25.4357 24.8361 24.7611C24.8361 24.0864 24.592 23.5009 24.1104 23.0207C23.6295 22.5439 23.0408 22.3021 22.3604 22.3021Z" fill="black"/>
<path fill-rule="evenodd" clip-rule="evenodd" d="M29.5511 24.7566C29.5511 25.2141 29.3865 25.6089 29.0617 25.9301C28.7345 26.2562 28.3354 26.4214 27.876 26.4214C27.41 26.4214 27.0223 26.2607 26.6905 25.9298C26.363 25.6056 26.1968 25.2109 26.1968 24.7566C26.1968 24.2996 26.363 23.9028 26.6903 23.5776C27.0226 23.2504 27.4105 23.0913 27.876 23.0913C28.3349 23.0913 28.7341 23.255 29.0617 23.5771C29.391 23.9052 29.5511 24.291 29.5511 24.7566ZM27.876 22.3021C27.1963 22.3021 26.6077 22.5438 26.1266 23.0206C25.6456 23.4954 25.4016 24.0797 25.4016 24.7566C25.4016 25.4289 25.6455 26.0126 26.1265 26.4921C26.6063 26.9671 27.1949 27.2078 27.876 27.2078C28.5061 27.2078 29.0682 26.9916 29.5511 26.5641V27.102C29.5511 27.3577 29.4426 27.6133 29.2194 27.8829C28.8607 28.2382 28.4212 28.4183 27.913 28.4183C27.6602 28.4183 27.4221 28.373 27.2035 28.2834C26.9895 28.1985 26.7891 28.0634 26.6065 27.8809C26.4792 27.7568 26.3733 27.6194 26.2853 27.4652C26.2665 27.4288 26.2393 27.3825 26.2007 27.3488C26.1197 27.2722 26.0239 27.2333 25.9158 27.2333C25.8077 27.2333 25.7103 27.2725 25.6312 27.3495C25.558 27.425 25.5192 27.5212 25.5192 27.6276C25.5192 27.701 25.5401 27.7754 25.5808 27.8476C25.6995 28.0634 25.8517 28.2575 26.0432 28.4383C26.5549 28.9503 27.184 29.2099 27.913 29.2099C28.6429 29.2099 29.274 28.9504 29.7898 28.4377C30.1624 28.061 30.3512 27.6117 30.3512 27.102V24.7566C30.3512 24.0809 30.1071 23.4967 29.6256 23.0206C29.1437 22.5438 28.5551 22.3021 27.876 22.3021Z" fill="black"/>
<path fill-rule="evenodd" clip-rule="evenodd" d="M35.0654 24.7611C35.0654 25.2267 34.9054 25.612 34.5763 25.939C34.2432 26.2692 33.8555 26.4296 33.3909 26.4296C32.9317 26.4296 32.5325 26.2645 32.2045 25.9393C31.8778 25.6135 31.7121 25.217 31.7121 24.7611C31.7121 24.2978 31.8732 23.912 32.2042 23.5821C32.5329 23.2565 32.9321 23.0913 33.3909 23.0913C33.855 23.0913 34.2428 23.2517 34.5762 23.5819C34.9054 23.909 35.0654 24.2948 35.0654 24.7611ZM35.1404 23.0206C34.6581 22.5439 34.0695 22.3021 33.3909 22.3021C32.7108 22.3021 32.1221 22.5439 31.6408 23.0208C31.1603 23.4985 30.9166 24.0841 30.9166 24.7611C30.9166 25.4381 31.1603 26.0227 31.6406 26.4985C32.1211 26.9778 32.7099 27.2207 33.3909 27.2207C34.0704 27.2207 34.6591 26.9778 35.1406 26.4988C35.6217 26.0212 35.8656 25.4365 35.8656 24.7611C35.8656 24.0855 35.6217 23.5 35.1404 23.0206Z" fill="black"/>
<defs>
<linearGradient id="paint0_linear_678_382" x1="16.1374" y1="12.033" x2="24.3059" y2="19.0993" gradientUnits="userSpaceOnUse">
<stop stop-color="#2E07E4"/>
<stop offset="1" stop-color="#31FFEA"/>
</linearGradient>
</defs>
</svg>
