<svg width="40" height="40" viewBox="0 0 40 40" fill="none" xmlns="http://www.w3.org/2000/svg">
<rect width="40" height="40" fill="white"/>
<path d="M10.0912 9.21008H6.7212V18.4301H10.5112C12.0812 18.4301 13.3512 17.1551 13.3512 15.5801C13.3562 14.7901 13.0312 14.0701 12.5062 13.5501C12.7762 13.1151 12.9312 12.6001 12.9312 12.0501C12.9312 10.4851 11.6612 9.21008 10.0912 9.21008ZM8.8912 11.3801H10.0962C10.4712 11.3801 10.7712 11.6851 10.7712 12.0601C10.7712 12.4351 10.4662 12.7401 10.0962 12.7401H8.8912V11.3801ZM10.5162 16.2601L8.89087 16.2595V14.905H10.5153C10.8903 14.905 11.1912 15.2101 11.1912 15.5851C11.1912 15.9601 10.8862 16.2601 10.5162 16.2601Z" fill="#34C780"/>
<path d="M21.3253 9.67005V18.4301H23.4903V9.21005L21.3253 9.67005Z" fill="#34C780"/>
<path d="M16.2455 20.3896C16.2455 20.9894 16.7303 21.4743 17.3301 21.4743C17.9299 21.4743 18.4147 20.9894 18.4147 20.3896C18.4147 19.7899 17.9299 19.305 17.3301 19.305C16.7253 19.305 16.2455 19.7899 16.2455 20.3896Z" fill="#34C780"/>
<path d="M24.3352 10.7551V16.3701C24.3352 17.6951 25.1552 18.4551 26.3652 18.5201C26.3752 18.5201 26.3903 18.5251 26.4053 18.5251H26.4253C26.4503 18.5251 26.4752 18.5301 26.5052 18.5301H26.5303C27.1403 18.5301 27.5853 18.2601 27.5853 18.2601V16.6651C27.5853 16.6651 27.3803 16.7301 27.1003 16.7301C26.6653 16.7301 26.5003 16.3501 26.5003 15.8351V14.1301H27.5803V11.9601H26.5003V10.3051L24.3352 10.7551Z" fill="#34C780"/>
<path d="M20.6652 15.175C20.6652 13.325 19.1652 11.825 17.3252 11.825C15.4802 11.825 13.9852 13.325 13.9852 15.175C13.9852 17.025 15.4802 18.525 17.3252 18.525C19.1702 18.525 20.6652 17.025 20.6652 15.175ZM17.3253 16.2592C16.7255 16.2592 16.2407 15.7744 16.2407 15.1746C16.2407 14.5749 16.7255 14.09 17.3253 14.09C17.9253 14.09 18.4099 14.5746 18.4099 15.1746C18.4099 15.7744 17.9251 16.2592 17.3253 16.2592Z" fill="#34C780"/>
<path d="M33.2801 30.6951V21.4751H31.1101V24.6451C30.7401 24.3051 30.2701 24.0951 29.6851 24.0951C27.9901 24.0951 26.6151 25.5751 26.6151 27.3951C26.6151 29.2201 27.9901 30.6951 29.6851 30.6951C30.2701 30.6951 30.7401 30.4801 31.1101 30.1401V30.6951H33.2801ZM29.9304 28.4893C29.3256 28.4893 28.8358 27.9994 28.8358 27.3947C28.8358 26.7899 29.3256 26.3001 29.9304 26.3001C30.5351 26.3001 31.025 26.7899 31.025 27.3947C31.025 27.9994 30.5351 28.4893 29.9304 28.4893Z" fill="#2F313F"/>
<path d="M26.2254 27.4401C26.2254 25.5901 24.7254 24.0901 22.8754 24.0901C21.0304 24.0901 19.5254 25.5901 19.5254 27.4401C19.5254 29.2901 21.0254 30.7901 22.8754 30.7901C24.7254 30.7901 26.2254 29.2901 26.2254 27.4401ZM21.7906 27.4396C21.7906 26.8399 22.2755 26.355 22.8752 26.355C23.475 26.355 23.9598 26.8399 23.9598 27.4396C23.9598 28.0394 23.475 28.5243 22.8752 28.5243C22.2755 28.5243 21.7906 28.0394 21.7906 27.4396Z" fill="#2F313F"/>
<path d="M6.72046 30.6951H8.89046V27.1701H11.8555V25.0001H8.89046V23.6451H12.5105V21.4751H6.72046V30.6951Z" fill="#2F313F"/>
<path d="M15.7906 30.7901C17.6356 30.7901 19.1406 29.2901 19.1406 27.4401C19.1406 25.5901 17.6406 24.0901 15.7906 24.0901C13.9406 24.0901 12.4406 25.5901 12.4406 27.4401C12.4456 29.2901 13.9406 30.7901 15.7906 30.7901ZM15.7904 26.355C16.3902 26.355 16.875 26.8399 16.875 27.4396C16.875 28.0394 16.3902 28.5243 15.7904 28.5243C15.1907 28.5243 14.7058 28.0394 14.7058 27.4396C14.7058 26.8399 15.1907 26.355 15.7904 26.355Z" fill="#2F313F"/>
</svg>
