<svg width="40" height="40" viewBox="0 0 40 40" fill="none" xmlns="http://www.w3.org/2000/svg">
<rect width="40" height="40" fill="#0B1249"/>
<path fill-rule="evenodd" clip-rule="evenodd" d="M34 20.0831V34.1661H26.7383C22.7444 34.1661 19.4766 34.1621 19.4766 34.1571C19.4766 34.1347 18.4963 31.2281 17.9573 29.6521C17.8033 29.202 17.6019 28.6037 17.5095 28.3226C17.0541 26.9359 17.0603 26.951 16.8783 26.7798C16.6906 26.6032 16.6096 26.544 16.182 26.2713C15.4412 25.7988 15.2553 25.6655 15.0498 25.4592C14.918 25.327 14.8003 25.1763 14.7531 25.0794C14.6742 24.9174 14.4797 24.3212 14.2858 23.6477C14.228 23.4468 14.1365 23.1379 14.0825 22.9611C13.9223 22.4369 13.7793 21.9446 13.7601 21.8508C13.7503 21.8026 13.7056 21.6448 13.661 21.5002C13.5657 21.1912 13.4299 20.723 13.2417 20.0539C13.1671 19.7887 13.0697 19.4469 13.0252 19.2942C12.8232 18.6009 12.7318 18.2909 12.6335 17.9648C12.5754 17.772 12.5037 17.518 12.4744 17.4005C12.445 17.283 12.3943 17.1055 12.3617 17.0061C12.329 16.9066 12.2773 16.7333 12.2468 16.6208C12.1631 16.3122 11.9311 15.4932 11.8993 15.3936C11.8839 15.3454 11.8505 15.2205 11.8251 15.116C11.7997 15.0116 11.7474 14.8275 11.7089 14.707C11.6703 14.5865 11.598 14.3432 11.5481 14.1664C11.4982 13.9897 11.399 13.6544 11.3275 13.4214C11.256 13.1884 11.1838 12.9517 11.1671 12.8955C10.9536 12.1763 10.3872 11.7978 9.72246 11.9298C9.3255 12.0087 9.0613 12.2228 8.87194 12.619C8.77028 12.8318 8.76073 12.8728 8.75987 13.1C8.75899 13.3257 8.77245 13.3869 8.90759 13.772C8.98935 14.005 9.11656 14.3534 9.19027 14.5463C9.264 14.7391 9.36356 15.0021 9.41154 15.1307C9.45953 15.2592 9.54926 15.4893 9.61096 15.642C9.67264 15.7946 9.78303 16.0773 9.85627 16.2702C9.92948 16.463 10.0418 16.7588 10.1058 16.9276C10.1698 17.0963 10.2594 17.3264 10.3049 17.4389C10.3503 17.5514 10.4457 17.7946 10.5168 17.9794C10.9381 19.0745 11.1238 19.5526 11.158 19.6302C11.1792 19.6785 11.2163 19.7771 11.2403 19.8494C11.2643 19.9217 11.375 20.2109 11.4863 20.4922C11.5976 20.7734 11.7231 21.0955 11.7653 21.208C11.8075 21.3205 11.8608 21.4557 11.8838 21.5085C11.9068 21.5613 11.9256 21.6167 11.9256 21.6318C11.9256 21.6468 11.9582 21.731 11.998 21.8188C12.0377 21.9067 12.0703 21.9865 12.0703 21.9962C12.0703 22.0059 12.1281 22.1547 12.1987 22.3268C12.2693 22.4989 12.4787 23.0407 12.664 23.5308C12.8493 24.021 13.0185 24.468 13.04 24.5243C13.0615 24.5805 13.1142 24.7186 13.1571 24.831C13.2 24.9435 13.2735 25.1868 13.3203 25.3716C13.3912 25.6515 13.4033 25.7491 13.3929 25.956C13.379 26.2299 13.3449 26.345 13.0376 27.1539C12.8423 27.6678 12.7228 28.0688 12.6902 28.3192C12.6754 28.433 12.696 28.5226 12.8218 28.8923C12.9039 29.1335 13.0088 29.449 13.055 29.5935C13.139 29.8563 13.6639 31.4511 13.9205 32.2233C13.9953 32.4483 14.1646 32.9611 14.2967 33.3627C14.4288 33.7644 14.5431 34.1096 14.5508 34.1297C14.5618 34.1591 13.7056 34.165 10.2869 34.1591L6.00925 34.1516L6.00185 20.1123C5.9978 12.3907 6.00063 6.05662 6.00818 6.03652C6.01912 6.00736 8.84632 6 20.011 6H34V20.0831ZM18.6376 10.4122C17.7463 10.4606 17.2012 10.5219 16.3955 10.6644C15.1187 10.8901 14.0192 11.2216 12.9339 11.7081C12.3529 11.9685 11.9838 12.1594 11.9649 12.2093C11.956 12.2326 12.0232 12.5115 12.1142 12.8292C12.2052 13.1469 12.3679 13.7158 12.4756 14.0934C12.5834 14.4711 12.7456 15.0298 12.8362 15.3352C12.9268 15.6405 13.0338 16.0087 13.074 16.1533C13.153 16.4376 13.2051 16.6174 13.4295 17.3804C13.5098 17.6536 13.6411 18.1072 13.7212 18.3885C13.8012 18.6697 13.9103 19.0444 13.9636 19.2212C14.0169 19.3979 14.1253 19.7661 14.2046 20.0393C14.2839 20.3125 14.3774 20.6346 14.4125 20.7551C14.4475 20.8757 14.5064 21.0794 14.5432 21.208C14.58 21.3366 14.6715 21.6456 14.7465 21.8946C14.8215 22.1437 14.9195 22.479 14.9642 22.6397C15.1427 23.2801 15.1763 23.3848 15.2034 23.3848C15.2189 23.3848 15.3438 23.3009 15.4808 23.1985C16.4866 22.4468 18.0838 21.5674 19.6068 20.9269C19.7978 20.8466 19.98 20.7692 20.0119 20.755C20.353 20.6022 21.0899 20.3302 21.7477 20.1143C22.7651 19.7803 23.5979 19.5915 24.1635 19.5664C24.5539 19.5492 24.7119 19.5749 24.8395 19.6763C25.0979 19.8815 24.7328 20.3993 23.8736 21.0466C23.4223 21.3865 23.356 21.4181 23.5743 21.1895C23.8002 20.9528 23.989 20.6697 24.0231 20.5166C24.0563 20.3674 24.0035 20.2735 23.8502 20.2085C23.5646 20.0874 22.6621 20.2901 21.7968 20.6698C21.4399 20.8264 20.9826 21.0773 20.9239 21.1487C20.8689 21.2156 20.9954 21.4412 21.2063 21.6524C21.5935 22.04 22.1987 22.2279 23.1798 22.2651C25.2394 22.3432 28.6652 21.3995 30.6132 20.2175C30.9864 19.991 31.3191 19.7454 31.4564 19.5951C31.5869 19.4521 31.588 19.4871 31.437 19.002C31.3845 18.8333 31.3329 18.6558 31.3225 18.6076C31.3119 18.5594 31.2775 18.4345 31.2458 18.33C31.2144 18.2256 31.1583 18.0349 31.1217 17.9064C31.0848 17.7778 30.9869 17.4491 30.9039 17.1759C30.8209 16.9027 30.7229 16.5674 30.6863 16.4309C30.6234 16.1971 30.4472 15.6012 30.1778 14.7122C30.1129 14.498 30.0299 14.2154 29.9933 14.084C29.9091 13.7833 29.82 13.4804 29.6307 12.8516C29.5484 12.5784 29.4618 12.2826 29.4385 12.1942C29.4149 12.1059 29.3437 11.8626 29.2801 11.6537C29.2163 11.4448 29.1245 11.1424 29.0757 10.9817C29.027 10.821 28.9843 10.686 28.9811 10.6818C28.9777 10.6776 28.7948 10.7657 28.5747 10.8777C27.6431 11.3514 26.7127 11.6401 25.3641 11.8739C24.9981 11.9373 24.4743 12.0115 24.1999 12.0387C23.9256 12.0658 23.6858 12.0977 23.667 12.1095C23.6255 12.1353 23.6812 12.5844 24.0199 14.9553C24.0657 15.2767 24.1101 15.5923 24.1183 15.6566C24.1474 15.8841 24.2525 16.6246 24.2945 16.8983C24.3388 17.187 24.4425 18.0031 24.4671 18.257L24.4813 18.4031L24.4259 18.257C24.3954 18.1766 24.3248 17.9794 24.2689 17.8187C24.213 17.658 24.1067 17.3622 24.0326 17.1613C23.9585 16.9604 23.8611 16.6843 23.8162 16.5477C23.7367 16.3057 23.6458 16.0463 23.3147 15.116C23.2261 14.867 23.0861 14.4725 23.0037 14.2395C22.9213 14.0065 22.8024 13.6712 22.7394 13.4944C22.6764 13.3177 22.5754 13.0284 22.5147 12.8516C22.3932 12.4971 22.2521 12.097 22.185 11.9167C22.1611 11.8524 22.0573 11.5566 21.9544 11.2592C21.8514 10.962 21.752 10.6766 21.7335 10.6252C21.6935 10.5146 21.7168 10.5194 20.9005 10.4558C20.185 10.4 19.209 10.3812 18.6376 10.4122ZM17.1043 29.4345C17.1441 29.4806 17.2137 29.6141 17.2589 29.7312C17.3042 29.8484 17.3584 29.9837 17.3793 30.0318C17.4003 30.08 17.483 30.3168 17.5631 30.5577C17.6432 30.7988 17.7821 31.2064 17.8718 31.4635C17.9615 31.7207 18.078 32.0625 18.1308 32.2233C18.1835 32.3838 18.3517 32.8835 18.5046 33.3336L18.7826 34.1516L18.4449 34.1598C18.2592 34.1645 18.0985 34.1578 18.0878 34.1453C18.0674 34.1213 17.8513 33.4955 17.8025 33.3189C17.7869 33.2625 17.616 32.7498 17.4226 32.1794C16.9332 30.7357 16.6903 29.9619 16.6273 29.6467C16.6042 29.5311 16.6656 29.4275 16.7947 29.3642C16.913 29.3063 17.013 29.3289 17.1043 29.4345ZM15.7561 29.7824C15.8663 29.8247 15.9499 30.0079 16.2703 30.9085C16.495 31.5402 16.8213 32.4886 16.8584 32.6177C16.8792 32.6901 17.0016 33.057 17.1304 33.4329C17.2593 33.809 17.3647 34.1279 17.3647 34.1415C17.3647 34.155 17.2107 34.1661 17.0224 34.1661H16.6802L16.5289 33.7206C16.4457 33.4756 16.3401 33.1567 16.2944 33.0122C16.2486 32.8674 16.054 32.2561 15.8618 31.6535C15.5145 30.564 15.3754 30.0221 15.4087 29.888C15.4353 29.781 15.6123 29.7272 15.7561 29.7824ZM14.5664 30.2438C14.6315 30.3166 14.8055 30.7334 14.9351 31.1274C14.996 31.3124 15.2431 32.0487 15.4843 32.7638C15.7255 33.4788 15.9299 34.0874 15.9386 34.1161C15.9531 34.1643 15.9305 34.1677 15.6434 34.16L15.3326 34.1516L15.1656 33.655C14.8202 32.6274 14.2118 30.7255 14.1671 30.5339C14.1292 30.3711 14.1275 30.3263 14.1577 30.2894C14.2428 30.1859 14.4898 30.1583 14.5664 30.2438Z" fill="white"/>
</svg>
