<svg width="40" height="40" viewBox="0 0 40 40" fill="none" xmlns="http://www.w3.org/2000/svg">
<rect width="40" height="40" fill="#5F9B48"/>
<path fill-rule="evenodd" clip-rule="evenodd" d="M21.135 29.544C15.7973 29.544 11.4548 25.2015 11.4548 19.8639H15.1384C15.1384 23.1705 17.8286 25.8603 21.135 25.8603C22.192 25.8603 23.2304 25.5818 24.1379 25.0556C24.7414 24.7055 25.2761 24.256 25.7267 23.7205L28.5456 26.0914C27.8205 26.954 26.9597 27.6773 25.9863 28.2418C24.5178 29.0938 22.8402 29.544 21.135 29.544ZM25.725 16.0056C24.9066 15.0324 23.7806 14.3337 22.5548 14.0364L23.4228 10.4559C25.4048 10.9371 27.2234 12.0652 28.5432 13.6331L25.725 16.0056ZM19.0614 13.9038C19.0614 15.4251 17.828 16.6585 16.3067 16.6585C14.7852 16.6585 13.552 15.4251 13.552 13.9038C13.552 12.3824 14.7852 11.1491 16.3067 11.1491C17.828 11.1491 19.0614 12.3824 19.0614 13.9038Z" fill="white"/>
</svg>
