<svg width="40" height="40" viewBox="0 0 40 40" fill="none" xmlns="http://www.w3.org/2000/svg">
<rect width="40" height="40" fill="#F97242"/>
<path d="M20.8915 26.5976C22.7875 26.585 24.2875 25.9951 25.5613 24.8674C25.7598 24.6917 25.9645 24.6961 26.1451 24.8674C27.0323 25.7101 27.9244 26.5811 28.8302 27.405C29.0551 27.6096 29.0581 27.7733 28.8302 27.9817C26.8913 29.7839 24.3673 30.8468 21.7087 30.9807C16.2265 31.306 11.4351 27.4742 10.2677 22.3298C8.94565 16.5009 12.6484 10.575 18.5566 9.2957C22.3658 8.47098 25.8055 9.37645 28.7135 11.9487C29.0252 12.2243 28.9959 12.2324 28.7135 12.5254C27.8642 13.4064 26.9901 14.2933 26.1451 15.1783C25.9793 15.3514 25.8643 15.3508 25.6781 15.1783C22.439 12.1817 17.4133 12.9312 15.2877 16.7932C13.1126 20.7446 15.3461 25.6695 19.9576 26.4822C20.3288 26.5475 20.6934 26.5797 20.8915 26.5976Z" fill="white"/>
<path d="M18.09 19.9074C18.0891 18.1978 19.4064 16.7931 21.1253 16.7931C21.9595 16.7989 22.7579 17.1289 23.3477 17.7117C23.9376 18.2945 24.2716 19.0832 24.2775 19.9074C24.2752 21.5931 22.8242 23.0122 21.1253 23.0218C19.4182 23.0313 18.0907 21.6061 18.09 19.9074Z" fill="white"/>
</svg>
