<svg width="40" height="40" viewBox="0 0 40 40" fill="none" xmlns="http://www.w3.org/2000/svg">
<rect width="40" height="40" fill="#FD4F57"/>
<path d="M25.609 22.7381C25.5827 22.7626 25.548 22.7763 25.512 22.7763C25.4761 22.7763 25.4414 22.7626 25.4151 22.7381L23.4681 20.529C23.4364 20.4971 23.3989 20.4719 23.3575 20.4546C23.3161 20.4374 23.2717 20.4285 23.2268 20.4285C23.182 20.4285 23.1376 20.4374 23.0962 20.4546C23.0548 20.4719 23.0172 20.4971 22.9856 20.529C22.9212 20.5937 22.885 20.6813 22.885 20.7727C22.885 20.8641 22.9212 20.9518 22.9856 21.0165L24.9499 23.204C24.9951 23.25 25.0205 23.312 25.0205 23.3766C25.0205 23.4412 24.9951 23.5032 24.9499 23.5492C24.9277 23.5727 24.901 23.5914 24.8714 23.6042C24.8418 23.617 24.8099 23.6236 24.7776 23.6236C24.7453 23.6236 24.7134 23.617 24.6838 23.6042C24.6541 23.5914 24.6274 23.5727 24.6053 23.5492L22.417 21.5817C22.353 21.5177 22.2662 21.4817 22.1758 21.4817C22.0853 21.4817 21.9985 21.5177 21.9345 21.5817C21.8706 21.6458 21.8346 21.7327 21.8346 21.8234C21.8346 21.914 21.8706 22.0009 21.9345 22.065L24.1401 24.0195C24.162 24.0411 24.1759 24.0696 24.1793 24.1003C24.1827 24.1309 24.1754 24.1618 24.1587 24.1876C24.1419 24.2135 24.1168 24.2328 24.0875 24.2423C24.0582 24.2517 24.0266 24.2508 23.9979 24.2395C23.1607 23.9243 22.3829 23.4691 21.6976 22.8934C21.2613 22.4776 21.0034 21.9083 20.9782 21.3056C20.9782 20.7706 21.0472 20.4168 20.5862 19.9422L20.0004 19.4029L19.3887 19.9724C18.9278 20.5635 19.0312 20.9561 19.0312 21.4394C19.003 22.0786 18.7281 22.6819 18.2644 23.1221C17.321 24.067 15.5807 24.5804 14.8183 23.8167C14.0558 23.053 14.5727 21.3099 15.5118 20.365C15.9539 19.9018 16.557 19.6268 17.1961 19.597C17.6743 19.597 18.0576 19.6919 18.6219 19.213L19.7678 17.9747L20.009 17.7072L22.8779 14.5791C22.9497 14.4965 23.0376 14.4296 23.1363 14.3825C23.235 14.3354 23.3422 14.3091 23.4515 14.3053C23.5607 14.3015 23.6696 14.3203 23.7713 14.3604C23.873 14.4005 23.9653 14.4612 24.0426 14.5386C24.1199 14.616 24.1805 14.7086 24.2206 14.8104C24.2606 14.9123 24.2794 15.0213 24.2756 15.1307C24.2718 15.2401 24.2455 15.3476 24.1985 15.4464C24.1515 15.5453 24.0847 15.6334 24.0022 15.7052L20.8404 18.6435L21.353 19.2044C21.8225 19.6358 22.1758 19.5841 22.7099 19.5884C23.3116 19.6136 23.88 19.8719 24.2951 20.3089C24.871 20.9938 25.3242 21.7733 25.6348 22.6129C25.6458 22.6364 25.6492 22.6627 25.6445 22.6882C25.6399 22.7138 25.6275 22.7372 25.609 22.7553V22.7381ZM15.9857 14.5532C16.0614 14.4773 16.1517 14.4176 16.2511 14.3777C16.3505 14.3377 16.457 14.3184 16.5641 14.3208C16.6712 14.3232 16.7767 14.3473 16.8742 14.3917C16.9717 14.4361 17.0593 14.4999 17.1315 14.5791L19.225 16.8486L18.3161 17.8323L15.9857 15.7052C15.9064 15.6325 15.8427 15.5445 15.7983 15.4464C15.754 15.3484 15.7298 15.2424 15.7274 15.1347C15.725 15.0271 15.7443 14.9201 15.7843 14.8202C15.8242 14.7203 15.8839 14.6294 15.9598 14.5532H15.9857ZM29.908 19.0145C29.908 16.3826 28.8642 13.8585 27.0061 11.9975C25.1481 10.1364 22.6281 9.09091 20.0004 9.09091C17.3727 9.09091 14.8527 10.1364 12.9946 11.9975C11.1366 13.8585 10.0928 16.3826 10.0928 19.0145C10.0928 19.1526 10.0928 19.2907 10.0928 19.446C10.0944 20.3741 10.2606 21.2944 10.5838 22.1642C10.9976 23.4062 11.6519 24.5542 12.5094 25.5426C13.8577 27.2296 15.9555 29.046 19.2078 30.7201C19.4505 30.8443 19.7192 30.9091 19.9918 30.9091C20.2644 30.9091 20.533 30.8443 20.7758 30.7201C24.0281 29.0503 26.1259 27.2339 27.4742 25.5426C28.3316 24.5542 28.986 23.4062 29.3997 22.1642C29.7229 21.2944 29.8892 20.3741 29.8908 19.446C29.8908 19.3122 29.8908 19.1742 29.8908 19.0145H29.908Z" fill="white"/>
</svg>
