<svg width="40" height="40" viewBox="0 0 40 40" fill="none" xmlns="http://www.w3.org/2000/svg">
<rect width="40" height="40" fill="white"/>
<path d="M9.57858 19.4058C9.27208 19.4058 8.96558 19.4058 8.65908 19.4058C8.55691 19.4058 8.43772 19.4058 8.33555 19.4058C8.19933 19.4229 8.11419 19.3888 8.02905 19.2526C7.84175 18.9461 7.33091 18.912 7.02441 19.1845C6.85414 19.3377 6.769 19.5421 6.73494 19.7634C6.68386 20.104 6.68386 20.4616 6.83711 20.7851C6.99036 21.0746 7.2628 21.2278 7.58633 21.2108C7.80769 21.1938 7.97797 21.0916 8.06311 20.8873C8.09716 20.8191 8.13122 20.8021 8.19933 20.8021C8.62503 20.8021 9.03369 20.8021 9.45939 20.8021C9.54453 20.8021 9.56155 20.8191 9.54453 20.9043C9.34019 21.8749 8.608 22.4708 7.5693 22.4708C6.73494 22.4879 6.07086 22.1814 5.61111 21.4662C5.57705 21.4151 5.52597 21.4151 5.47489 21.4151C4.98108 21.4151 4.48728 21.4151 4.0105 21.4151C3.95941 21.4151 3.90833 21.4151 3.85725 21.3981C3.78914 21.3811 3.75508 21.313 3.77211 21.2448C3.77211 21.1767 3.82319 21.1256 3.8913 21.1086C3.92536 21.1086 3.95941 21.1086 3.99347 21.1086C4.70864 21.1086 5.44083 21.1086 6.156 21.1086C6.17303 21.1086 6.19005 21.1086 6.22411 21.1086C6.32628 21.1086 6.39439 21.0575 6.39439 20.9554C6.39439 20.8532 6.32628 20.8191 6.22411 20.8191C5.62814 20.8191 5.04919 20.8191 4.45322 20.8191C4.41916 20.8191 4.38511 20.8191 4.33403 20.8191C4.23186 20.8021 4.18078 20.751 4.18078 20.6489C4.18078 20.5467 4.24889 20.4956 4.35105 20.4956C4.6235 20.4956 4.89594 20.4956 5.16839 20.4956C5.21947 20.4956 5.28758 20.4956 5.33866 20.4786C5.4238 20.4616 5.45786 20.4105 5.45786 20.3253C5.45786 20.2402 5.40678 20.1891 5.32164 20.1891C5.25353 20.1891 5.16839 20.1891 5.10028 20.1891C4.14672 20.1891 3.21019 20.1891 2.25664 20.1891C2.20555 20.1891 2.1715 20.1891 2.12042 20.1721C2.03528 20.1551 2.00122 20.087 2.00122 20.0018C2.00122 19.9167 2.0523 19.8656 2.13744 19.8656C2.1715 19.8656 2.20555 19.8656 2.25664 19.8656C3.21019 19.8656 4.16375 19.8656 5.1173 19.8656C5.37272 19.8656 5.62814 19.8656 5.88355 19.8656C5.90058 19.8656 5.93464 19.8656 5.95166 19.8656C6.0368 19.8486 6.08789 19.7975 6.08789 19.7123C6.08789 19.6272 6.0368 19.5761 5.93464 19.5761C5.61111 19.5761 5.30461 19.5761 4.98108 19.5761C4.94703 19.5761 4.91297 19.5761 4.86189 19.5761C4.74269 19.5761 4.67458 19.508 4.69161 19.4058C4.70864 19.3037 4.75972 19.2526 4.86189 19.2526C5.1173 19.2526 5.37272 19.2526 5.62814 19.2526C5.66219 19.2526 5.69625 19.2526 5.74733 19.2526C5.83247 19.2356 5.88355 19.1845 5.86653 19.0993C5.8495 19.0142 5.81544 18.9802 5.7303 18.9802C5.61111 18.9802 5.49191 18.9802 5.37272 18.9802C4.53836 18.9802 3.72103 18.9802 2.88666 18.9802C2.85261 18.9802 2.81855 18.9802 2.76747 18.9802C2.6653 18.9631 2.61422 18.912 2.61422 18.8099C2.61422 18.7077 2.68233 18.6566 2.76747 18.6566C2.88666 18.6566 3.00586 18.6566 3.12505 18.6566C3.94239 18.6566 4.75972 18.6566 5.56003 18.6566C5.61111 18.6566 5.66219 18.6737 5.71328 18.6055C6.22411 17.9585 6.90522 17.7371 7.70552 17.7882C8.40366 17.8393 8.96558 18.1458 9.30614 18.7758C9.45939 18.9291 9.5275 19.1504 9.57858 19.4058Z" fill="#030303"/>
<path d="M17.1894 22.146C17.1724 22.3844 17.1724 22.3844 16.934 22.3844C16.5764 22.3844 16.2188 22.3844 15.8442 22.3844C15.7591 22.3844 15.742 22.3674 15.742 22.2822C15.742 20.7327 15.742 19.1832 15.742 17.6337C15.742 17.5655 15.7591 17.5315 15.8442 17.5315C16.2529 17.5315 16.6615 17.5315 17.0702 17.5315C17.1553 17.5315 17.1724 17.5655 17.1724 17.6337C17.1724 18.1615 17.1724 18.6894 17.1724 19.2343C17.3427 19.098 17.53 18.9959 17.7343 18.9448C18.3643 18.7916 18.9944 19.098 19.2838 19.7281C19.5733 20.3581 19.5733 21.0222 19.2838 21.6522C18.8922 22.5036 17.8535 22.7079 17.1894 22.146ZM17.1724 20.6987C17.1724 20.7497 17.1724 20.8179 17.1724 20.8689C17.1724 21.1584 17.3937 21.3287 17.6832 21.2606C17.9046 21.2095 18.0238 21.0222 18.0578 20.7327C18.0748 20.4773 17.9386 20.2389 17.7513 20.1708C17.4618 20.0686 17.1894 20.2389 17.1894 20.5454C17.1724 20.5795 17.1724 20.6305 17.1724 20.6987Z" fill="#020202"/>
<path d="M21.1914 20.0856C21.1914 19.3534 21.1914 18.6383 21.1914 17.9061C21.1914 17.8209 21.2085 17.7869 21.2936 17.7869C22.3493 17.7869 23.4221 17.7869 24.4778 17.7869C24.58 17.7869 24.597 17.8039 24.597 17.9061C24.597 18.2466 24.597 18.5872 24.597 18.9448C24.597 19.0299 24.58 19.0469 24.4948 19.0469C23.9159 19.0469 23.3199 19.0469 22.741 19.0469C22.6388 19.0469 22.6047 19.064 22.6218 19.1661C22.6388 19.3024 22.6218 19.4556 22.6218 19.5918C22.6218 19.677 22.6558 19.694 22.7239 19.694C23.2518 19.694 23.7797 19.694 24.3075 19.694C24.3927 19.694 24.4267 19.711 24.4267 19.7962C24.4267 20.1197 24.4267 20.4602 24.4267 20.7838C24.4267 20.8859 24.3927 20.903 24.3075 20.903C23.7967 20.903 23.2688 20.903 22.758 20.903C22.6558 20.903 22.6388 20.937 22.6388 21.0222C22.6388 21.4479 22.6388 21.8565 22.6388 22.2822C22.6388 22.3674 22.6218 22.3844 22.5366 22.3844C22.128 22.3844 21.7363 22.3844 21.3277 22.3844C21.2425 22.3844 21.2085 22.3674 21.2085 22.2652C21.1914 21.55 21.1914 20.8178 21.1914 20.0856Z" fill="#020202"/>
<path d="M13.8697 22.129C13.41 22.4866 12.9332 22.5547 12.4053 22.3504C11.9966 22.1801 11.7923 21.8395 11.7753 21.4309C11.7583 20.6476 11.7583 19.8643 11.7583 19.064C11.7583 19.0129 11.7753 18.9959 11.8264 18.9959C12.2521 18.9959 12.6778 18.9959 13.1035 18.9959C13.2056 18.9959 13.1716 19.064 13.1716 19.0981C13.1716 19.677 13.1716 20.2389 13.1716 20.8179C13.1716 20.8689 13.1716 20.903 13.1716 20.9541C13.2056 21.1414 13.3248 21.2436 13.5121 21.2265C13.6994 21.2095 13.8356 21.0733 13.8356 20.886C13.8356 20.307 13.8356 19.7111 13.8356 19.1321C13.8356 19.0129 13.8527 18.9959 13.9719 18.9959C14.3635 18.9959 14.7551 18.9959 15.1468 18.9959C15.249 18.9959 15.266 19.0299 15.266 19.1151C15.266 20.1708 15.266 21.2265 15.266 22.2652C15.266 22.3504 15.249 22.3844 15.1468 22.3844C14.7551 22.3844 14.3635 22.3844 13.9719 22.3844C13.8527 22.3844 13.8186 22.3504 13.8356 22.2482C13.8867 22.2141 13.8697 22.1801 13.8697 22.129Z" fill="#020202"/>
<path d="M30.403 20.4432C30.403 20.3751 30.4201 20.307 30.403 20.2219C30.386 20.1197 30.3349 20.0346 30.2157 20.0175C30.0965 19.9835 29.9603 20.0005 29.8922 20.1027C29.8411 20.1708 29.79 20.1878 29.7219 20.1878C29.3643 20.1878 28.9897 20.1878 28.6321 20.1878C28.53 20.1878 28.513 20.1537 28.53 20.0686C28.6492 19.5748 28.9557 19.2513 29.3984 19.081C29.9092 18.8767 30.4371 18.8767 30.9479 19.064C31.4758 19.2513 31.7823 19.7281 31.7993 20.3411C31.7993 20.9881 31.7993 21.6522 31.7993 22.2992C31.7993 22.3844 31.7823 22.4014 31.6971 22.4014C31.3055 22.4014 30.9309 22.4014 30.5393 22.4014C30.4371 22.4014 30.386 22.3844 30.4201 22.2652C30.1646 22.4014 29.9263 22.4695 29.6538 22.4695C29.3133 22.4695 28.9897 22.4014 28.7173 22.163C28.2746 21.7714 28.2235 20.8349 28.9897 20.4773C29.4325 20.2729 29.8922 20.2729 30.3349 20.4602C30.352 20.4262 30.369 20.4432 30.403 20.4432ZM30.0455 21.5671C30.1306 21.5671 30.2328 21.55 30.3179 21.4989C30.4371 21.4138 30.4371 21.2776 30.3179 21.1924C30.2328 21.1414 30.1476 21.1243 30.0455 21.1073C29.8581 21.0903 29.6879 21.2095 29.6879 21.3457C29.6879 21.4649 29.8241 21.5671 30.0455 21.5671Z" fill="#020202"/>
<path d="M27.1684 20.954C26.8448 20.954 26.5383 20.954 26.2148 20.954C26.0956 20.954 26.0956 20.9881 26.1297 21.0903C26.2318 21.3627 26.4702 21.4649 26.7257 21.3457C26.7767 21.3287 26.8278 21.2946 26.8448 21.2435C26.8789 21.1073 26.9811 21.1243 27.0832 21.1243C27.4238 21.1243 27.7643 21.1243 28.1049 21.1243C28.2241 21.1243 28.2411 21.1584 28.2071 21.2605C28.0538 21.9076 27.6281 22.2992 26.9981 22.4184C26.4702 22.5206 25.9594 22.4865 25.4997 22.18C25.0229 21.8735 24.8015 21.3968 24.7675 20.8519C24.7334 20.3581 24.8356 19.8983 25.1761 19.5067C25.5678 19.064 26.0786 18.9107 26.6405 18.9277C27.6111 18.9618 28.2411 19.6259 28.2411 20.6305C28.2411 20.7327 28.2582 20.8349 28.2241 20.903C28.173 20.9711 28.0198 20.954 27.9176 20.954C27.6452 20.954 27.4068 20.954 27.1684 20.954ZM26.1467 20.3411H26.1637C26.334 20.3411 26.4873 20.3411 26.6575 20.3411C26.7257 20.3411 26.8108 20.3751 26.8278 20.324C26.8619 20.2559 26.7938 20.1708 26.7597 20.1197C26.7257 20.0686 26.6746 20.0346 26.6065 20.0175C26.3851 19.9494 26.1978 20.0856 26.1467 20.3411Z" fill="#020202"/>
<path d="M32.6849 21.2946C32.8722 21.2946 33.0595 21.2946 33.2638 21.2946C33.3319 21.2946 33.366 21.2946 33.417 21.3797C33.4681 21.4819 33.6214 21.533 33.7576 21.4989C33.8257 21.4819 33.8768 21.4479 33.8768 21.3797C33.8768 21.3116 33.8087 21.2776 33.7576 21.2776C33.5022 21.2265 33.2297 21.1754 32.9743 21.1243C32.8892 21.1073 32.787 21.0732 32.7019 21.0392C32.2251 20.8519 32.0037 20.5454 32.0889 19.9324C32.157 19.4556 32.4635 19.1832 32.8892 19.0299C33.4 18.8596 33.9279 18.8596 34.4217 19.0469C34.8474 19.2002 35.1198 19.5237 35.222 19.9664C35.239 20.0516 35.239 20.1027 35.1198 20.0856C34.7622 20.0856 34.4047 20.0856 34.0471 20.0856C33.979 20.0856 33.9449 20.0856 33.9108 20.0005C33.8598 19.8643 33.6554 19.8132 33.5192 19.8813C33.4681 19.8983 33.4511 19.9324 33.4511 19.9835C33.4511 20.0516 33.5022 20.0686 33.5703 20.0856C33.7746 20.1367 33.9619 20.1708 34.1663 20.2219C34.4047 20.2729 34.626 20.3411 34.8303 20.4602C35.4263 20.8008 35.3923 21.6862 34.9155 22.0609C34.643 22.2652 34.3365 22.3674 33.996 22.4014C33.5362 22.4525 33.0765 22.4184 32.6508 22.1971C32.3102 22.0098 32.1059 21.7373 32.0208 21.3627C32.0037 21.2776 32.0037 21.2606 32.1059 21.2606C32.3102 21.3116 32.4975 21.2946 32.6849 21.2946Z" fill="#020202"/>
<path d="M36.6019 18.0594C36.8062 18.0594 36.9935 18.0594 37.1979 18.0594C37.266 18.0594 37.3 18.0764 37.3 18.1615C37.3 18.4169 37.3 18.6553 37.3 18.9107C37.3 18.9959 37.3341 19.0299 37.4192 19.0129C37.5725 19.0129 37.7428 19.0129 37.913 19.0129C37.9812 19.0129 37.9982 19.0299 37.9982 19.0981C37.9982 19.4046 37.9982 19.7111 37.9982 20.0346C37.9982 20.1027 37.9812 20.1197 37.913 20.1197C37.7428 20.1197 37.5725 20.1197 37.4022 20.1197C37.3341 20.1197 37.3171 20.1367 37.3171 20.2049C37.3171 20.4432 37.3171 20.6646 37.3171 20.903C37.3171 21.1414 37.4363 21.2436 37.6747 21.2436C37.7428 21.2436 37.8109 21.2436 37.879 21.2265C37.9641 21.2095 37.9982 21.2095 37.9982 21.3117C37.9982 21.6352 37.9982 21.9587 37.9982 22.2993C37.9982 22.3504 38.0152 22.4014 37.9471 22.4185C37.4703 22.5036 36.9935 22.5377 36.5338 22.3504C36.1762 22.1971 36.0059 21.8906 35.9549 21.516C35.8867 21.1073 35.9378 20.6816 35.9208 20.273C35.9208 20.1708 35.9038 20.1368 35.7846 20.1368C35.6824 20.1538 35.5292 20.1708 35.4781 20.1197C35.41 20.0516 35.461 19.9154 35.461 19.7962C35.461 19.5748 35.461 19.3535 35.461 19.1321C35.461 19.047 35.4951 19.0299 35.5632 19.0299C35.6484 19.0299 35.7165 19.0299 35.8016 19.0299C35.9208 19.047 35.9378 18.9959 35.9378 18.8937C35.9378 18.6553 35.9378 18.4169 35.9378 18.1786C35.9378 18.1104 35.9549 18.0934 36.023 18.0934C36.1932 18.0594 36.3976 18.0594 36.6019 18.0594Z" fill="#020202"/>
<path d="M9.90224 19.9665C9.90224 19.2002 9.90224 18.434 9.90224 17.6507C9.90224 17.5655 9.91927 17.5315 10.0214 17.5315C10.4301 17.5315 10.8217 17.5315 11.2304 17.5315C11.3155 17.5315 11.3496 17.5485 11.3496 17.6337C11.3496 19.1832 11.3496 20.7327 11.3496 22.2822C11.3496 22.3674 11.3155 22.3844 11.2304 22.3844C10.8217 22.3844 10.4301 22.3844 10.0214 22.3844C9.91927 22.3844 9.90224 22.3504 9.90224 22.2652C9.90224 21.499 9.90224 20.7327 9.90224 19.9665Z" fill="#030303"/>
<path d="M3.38001 20.4602C3.49916 20.4602 3.63534 20.4602 3.75449 20.4602C3.85662 20.4602 3.90768 20.5113 3.9247 20.6134C3.9247 20.7156 3.87364 20.7836 3.77151 20.7836C3.51619 20.7836 3.26086 20.7836 3.02256 20.7836C2.92043 20.7836 2.85235 20.7156 2.86937 20.6134C2.86937 20.5113 2.93745 20.4602 3.03958 20.4602C3.14171 20.4602 3.26086 20.4602 3.38001 20.4602Z" fill="#030303"/>
<path d="M4.2139 19.2166C4.26498 19.2166 4.3331 19.2166 4.38418 19.2166C4.46932 19.2166 4.5204 19.2677 4.53743 19.3528C4.55446 19.4379 4.50337 19.506 4.41823 19.5231C4.28201 19.5401 4.14579 19.5401 3.99254 19.5231C3.9074 19.506 3.87334 19.4379 3.87334 19.3528C3.87334 19.2677 3.92443 19.2166 4.00957 19.2166C4.07768 19.2166 4.14579 19.2166 4.2139 19.2166Z" fill="#030303"/>
</svg>
