<svg width="40" height="40" viewBox="0 0 40 40" fill="none" xmlns="http://www.w3.org/2000/svg">
<rect width="40" height="40" fill="white"/>
<path d="M19.9469 10.8209C20.156 10.8555 20.368 10.877 20.5668 10.9613C21.0663 11.1733 21.3451 11.5642 21.4791 12.0748C21.5256 12.2566 21.5481 12.4438 21.5459 12.6315C21.5459 13.0689 21.5546 13.5087 21.5431 13.9469C21.5296 14.4579 21.3789 14.9204 20.9883 15.2775C20.71 15.5308 20.374 15.6426 20.0065 15.67C19.552 15.7038 19.1317 15.6068 18.767 15.322C18.7507 15.3093 18.7332 15.287 18.7133 15.2982C18.6791 15.3173 18.6947 15.3547 18.6947 15.3837C18.6947 16.0244 18.6947 16.6649 18.6947 17.3052C18.6947 17.3398 18.6947 17.3748 18.6947 17.4094C18.6967 17.4233 18.6954 17.4375 18.691 17.4508C18.6865 17.4641 18.679 17.4762 18.669 17.4861C18.659 17.496 18.6469 17.5035 18.6335 17.5078C18.6201 17.5121 18.6059 17.5133 18.5921 17.5112C18.3373 17.5112 18.0824 17.5112 17.8274 17.5112C17.8143 17.5132 17.801 17.5122 17.7884 17.5084C17.7757 17.5045 17.7642 17.4978 17.7545 17.4888C17.7449 17.4798 17.7374 17.4687 17.7326 17.4564C17.7279 17.4441 17.726 17.4309 17.7271 17.4177C17.7271 17.3827 17.7271 17.3481 17.7271 17.3131V11.1096C17.7271 10.9168 17.7387 10.9052 17.9363 10.9048C18.1176 10.9048 18.2994 10.9048 18.4807 10.9048C18.6131 10.9048 18.6306 10.9271 18.6366 11.056C18.6402 11.1228 18.6008 11.2186 18.6601 11.2488C18.7026 11.2707 18.7627 11.1824 18.8151 11.1438C19.0566 10.9688 19.3409 10.8623 19.6379 10.8357C19.6725 10.8321 19.7063 10.8249 19.7405 10.8193L19.9469 10.8209ZM20.5744 13.2502C20.5744 13.0379 20.5744 12.8259 20.5744 12.614C20.5744 12.0807 20.2753 11.7439 19.7477 11.6775C19.1603 11.6035 18.6998 11.9988 18.6947 12.5869C18.6907 13.0283 18.6947 13.4701 18.6947 13.9119C18.694 14.0062 18.7074 14.1 18.7344 14.1903C18.8629 14.6162 19.1718 14.8333 19.649 14.8305C20.2058 14.827 20.5728 14.4631 20.5752 13.9084C20.5752 13.6877 20.5744 13.4686 20.5744 13.2502Z" fill="#E5603E"/>
<path d="M24.3661 10.8209C24.549 10.8635 24.7351 10.8885 24.9101 10.9641C25.4429 11.1951 25.738 11.6143 25.8764 12.1607C25.9113 12.3133 25.9266 12.4698 25.9221 12.6263C25.9202 13.5558 25.9202 14.4851 25.9221 15.4143C25.9221 15.5801 25.9161 15.5857 25.7527 15.5861C25.571 15.5861 25.3896 15.5861 25.2079 15.5861C25.081 15.5861 25.0655 15.569 25.0592 15.4417C25.0592 15.4079 25.0719 15.3642 25.0413 15.3439C25.0107 15.3236 24.9785 15.3618 24.9514 15.3797C24.5335 15.6581 24.0746 15.7201 23.5886 15.6422C23.2224 15.5833 22.9039 15.433 22.6545 15.1515C22.4753 14.9456 22.352 14.697 22.2966 14.4297C22.1845 13.9211 22.2529 13.4399 22.5452 13.0013C22.7738 12.6581 23.1047 12.4617 23.5039 12.3837C23.9414 12.2979 24.372 12.3209 24.7764 12.5317C24.8385 12.5639 24.8993 12.5977 24.9582 12.6351C25.0091 12.6677 25.0309 12.6633 25.0345 12.5953C25.0647 12.0561 24.7383 11.6707 24.1931 11.6532C23.7461 11.6389 23.3294 11.7471 22.9261 11.9241C22.8363 11.9638 22.7977 11.934 22.7702 11.8529C22.7126 11.6815 22.651 11.5109 22.5925 11.3403C22.54 11.1908 22.5484 11.1709 22.6919 11.1148C23.0428 10.977 23.4095 10.8835 23.7835 10.8365C23.8103 10.8318 23.8369 10.8257 23.863 10.8182L24.3661 10.8209ZM24.1183 14.85C24.1533 14.85 24.1879 14.85 24.2229 14.85C24.6261 14.8333 24.9299 14.586 25.0182 14.1764C25.0977 13.8022 24.9506 13.4093 24.6003 13.224C24.4193 13.1282 24.2221 13.1115 24.0209 13.1218C23.5501 13.1469 23.1981 13.5103 23.1993 13.9799C23.1989 14.4134 23.4876 14.8719 24.1183 14.85Z" fill="#F5B940"/>
<path d="M10.4146 10.8209C10.5868 10.8452 10.7602 10.8551 10.9316 10.8965C11.6963 11.0834 12.2129 11.7197 12.2236 12.5062C12.2303 12.9794 12.2264 13.4527 12.2236 13.9259C12.2236 14.8476 11.6207 15.5296 10.7021 15.6501C10.3244 15.6994 9.94898 15.6899 9.58393 15.5706C8.92421 15.3563 8.56274 14.887 8.43907 14.2185C8.41973 14.0947 8.41187 13.9693 8.4156 13.844C8.4156 13.4065 8.40487 12.9667 8.41878 12.5289C8.43668 11.9754 8.64505 11.5065 9.10276 11.1709C9.39862 10.9538 9.73901 10.8635 10.1013 10.8353C10.141 10.8321 10.184 10.8257 10.2254 10.8205L10.4146 10.8209ZM9.38748 13.2546C9.38748 13.4634 9.39345 13.6722 9.38748 13.8805C9.36879 14.4218 9.76407 14.9343 10.5204 14.8103C10.9741 14.7359 11.262 14.3804 11.2656 13.9131C11.2692 13.4857 11.2656 13.0578 11.2656 12.6303C11.2696 12.1833 11.0119 11.7284 10.4429 11.6727C9.78634 11.6083 9.38549 12.0414 9.38748 12.5766C9.38788 12.8025 9.38748 13.0288 9.38748 13.2546Z" fill="#8B5530"/>
<path d="M29.1638 10.8209C29.3201 10.8679 29.4844 10.879 29.641 10.9363C30.1703 11.1323 30.4713 11.5224 30.6145 12.0517C30.6723 12.2812 30.6991 12.5174 30.694 12.754C30.6917 13.6344 30.694 14.5148 30.694 15.3952C30.694 15.5738 30.6829 15.5837 30.504 15.5837C30.298 15.5837 30.092 15.5837 29.886 15.5837C29.748 15.5837 29.7289 15.5638 29.7289 15.4246C29.7289 14.4675 29.7325 13.5103 29.7261 12.5535C29.7261 12.1956 29.5213 11.8421 29.144 11.7185C28.7861 11.6019 28.3053 11.664 28.0703 11.9507C27.9315 12.1201 27.8456 12.3086 27.8452 12.5309C27.8452 13.4853 27.8452 14.4387 27.8452 15.3912C27.8452 15.5714 27.8337 15.5821 27.6567 15.5821C27.4471 15.5821 27.2376 15.5821 27.0284 15.5821C26.9047 15.5821 26.8805 15.5579 26.8805 15.435C26.8805 13.9769 26.8805 12.5188 26.8805 11.0607C26.8805 10.939 26.9123 10.9064 27.0364 10.9052C27.2352 10.9029 27.434 10.9029 27.6329 10.9052C27.7462 10.9052 27.7776 10.945 27.7844 11.0583C27.7879 11.1188 27.7518 11.2047 27.8082 11.2341C27.8647 11.2635 27.912 11.182 27.9597 11.1466C28.1895 10.9803 28.4574 10.8743 28.7387 10.8384C28.7625 10.8335 28.7859 10.827 28.8087 10.8189L29.1638 10.8209Z" fill="#9FCD5B"/>
<path d="M6.28862 10.8221C6.46439 10.8459 6.64214 10.8531 6.81513 10.8984C7.26687 11.0177 7.62834 11.2563 7.86415 11.6675C7.93175 11.7868 7.92261 11.8162 7.80172 11.8787C7.6005 11.9832 7.39849 12.0858 7.19847 12.1924C7.11894 12.2322 7.0748 12.221 7.03066 12.1419C6.81672 11.7582 6.47632 11.611 5.99038 11.6858C5.62374 11.7423 5.36248 12.0039 5.27937 12.3992C5.26757 12.4648 5.26264 12.5314 5.26465 12.598C5.26465 13.0327 5.26187 13.4677 5.26465 13.9024C5.26465 14.2769 5.4086 14.5843 5.76212 14.7374C6.13473 14.9001 6.50495 14.8726 6.8358 14.6138C6.91457 14.5491 6.97777 14.4676 7.02072 14.3752C7.06048 14.2933 7.10979 14.2726 7.19569 14.3171C7.40247 14.4253 7.61204 14.5287 7.82279 14.6297C7.90909 14.6694 7.92221 14.7243 7.87886 14.8054C7.72472 15.1061 7.47204 15.3447 7.16308 15.4815C6.87849 15.6087 6.57154 15.6783 6.25991 15.6864C5.94828 15.6944 5.63814 15.6407 5.34737 15.5284C4.7815 15.3192 4.46377 14.885 4.33413 14.3056L4.29834 14.1429V12.3678C4.30987 12.3169 4.3214 12.2664 4.33214 12.2159C4.47729 11.5399 4.87534 11.0996 5.5454 10.9092C5.72673 10.8575 5.91443 10.8459 6.10212 10.8221H6.28862Z" fill="#8B5530"/>
<path d="M32.8834 15.5638H31.5739C31.4363 15.5638 31.4252 15.5527 31.4248 15.4143C31.4248 15.1292 31.4073 14.8437 31.5226 14.5709C31.6179 14.3372 31.7806 14.1372 31.9898 13.9963C32.0817 13.9338 32.0833 13.9191 32.0022 13.8535C31.4729 13.4244 31.3138 12.8621 31.414 12.2104C31.4714 11.8159 31.6802 11.4593 31.9962 11.2162C32.213 11.0494 32.4669 10.9372 32.7362 10.8893C33.1653 10.8007 33.6097 10.8194 34.0298 10.9438C34.2134 11.0009 34.3856 11.0894 34.5388 11.2055C34.6021 11.2524 34.6474 11.2552 34.7098 11.1971C34.825 11.0872 34.9607 11.0011 35.1092 10.9436C35.2576 10.8862 35.416 10.8585 35.5751 10.8623C35.6626 10.8623 35.7032 10.8921 35.7016 10.984C35.6976 11.1649 35.6988 11.3459 35.7016 11.5268C35.7016 11.6198 35.6618 11.6568 35.5696 11.6568C35.4105 11.6568 35.2566 11.6751 35.1139 11.7531C35.0462 11.79 35.0343 11.8326 35.0598 11.9058C35.2443 12.4179 35.2164 12.9178 34.9528 13.3974C34.7512 13.7632 34.4358 13.9939 34.0426 14.1199C33.7856 14.2013 33.5166 14.2377 33.2472 14.2277C33.0035 14.2201 32.7669 14.2472 32.5593 14.3959C32.4621 14.4705 32.3882 14.5714 32.3465 14.6866C32.3159 14.7606 32.3434 14.7932 32.4193 14.7896C32.5446 14.784 32.6698 14.7717 32.7951 14.7705C33.2695 14.7665 33.7439 14.7621 34.2187 14.7506C34.6864 14.7399 35.0681 14.9319 35.3457 15.3053C35.5735 15.6123 35.6435 15.9671 35.603 16.344C35.5437 16.8948 35.2518 17.2917 34.7826 17.5712C34.6661 17.6404 34.6466 17.6368 34.5806 17.5187C34.4824 17.3426 34.3861 17.1652 34.2855 16.9902C34.2422 16.9147 34.2493 16.8666 34.3313 16.8216C34.469 16.745 34.5868 16.6371 34.6752 16.5067C34.8582 16.245 34.8049 15.8482 34.5587 15.6716C34.4441 15.5958 34.3083 15.5586 34.171 15.5654C33.7418 15.5636 33.3126 15.563 32.8834 15.5638ZM33.2834 11.6564C33.2242 11.6469 33.153 11.6699 33.0806 11.6787C32.7104 11.7228 32.4483 11.9602 32.3565 12.332C32.3145 12.5001 32.3246 12.6769 32.3855 12.8391C32.4463 13.0012 32.5551 13.141 32.6973 13.2399C32.9733 13.4256 33.2775 13.4387 33.5904 13.3656C34.0505 13.2582 34.342 12.7265 34.1893 12.2792C34.0517 11.8755 33.7395 11.6564 33.2834 11.6564Z" fill="#5AB1D9"/>
<path d="M15.874 15.2151C15.6894 15.371 15.5161 15.4994 15.3073 15.567C14.7331 15.7531 14.1752 15.7261 13.6614 15.3896C13.2526 15.122 13.0681 14.71 12.9854 14.2444C12.967 14.1311 12.9588 14.0164 12.9607 13.9016C12.9607 12.9652 12.9607 12.029 12.9607 11.0929C12.9607 10.9255 12.9659 10.9204 13.1293 10.92H13.7258C13.9274 10.92 13.9338 10.9263 13.9338 11.1232C13.9338 12.0628 13.9294 13.0025 13.9362 13.9422C13.9386 14.3144 14.102 14.6118 14.4567 14.7526C15.0365 14.9824 15.802 14.7526 15.8087 13.8801C15.8159 12.9476 15.8087 12.0147 15.8107 11.0818C15.8107 10.9227 15.8171 10.9188 15.9777 10.9184C16.2012 10.9184 16.4247 10.9211 16.6482 10.9184C16.7424 10.9184 16.7846 10.9546 16.7822 11.0464C16.7822 11.0882 16.7822 11.1299 16.7822 11.1717V15.3873C16.7822 15.5813 16.7759 15.5861 16.5834 15.5861C16.3909 15.5861 16.1992 15.5837 16.0072 15.5861C15.9086 15.5861 15.8656 15.5463 15.8716 15.4493C15.8775 15.3829 15.874 15.3133 15.874 15.2151Z" fill="#8B5530"/>
<path d="M10.4802 25.4394H7.07115C7.07115 25.1818 7.1166 24.9545 7.17721 24.7576C7.23781 24.5757 7.32872 24.3939 7.48024 24.2121C7.6166 24.0303 7.79842 23.8939 8.02569 23.7727C8.23781 23.6667 8.49539 23.606 8.79842 23.606C9.07115 23.606 9.29842 23.6515 9.49539 23.7273C9.69236 23.8182 9.85903 23.9242 9.99539 24.0606C10.2984 24.4091 10.4651 24.8636 10.4802 25.4394ZM12.3742 26.2879C12.3893 25.803 12.359 25.3333 12.2681 24.8788C12.1772 24.4242 11.9802 23.9848 11.6924 23.5454C11.359 23.0606 10.9499 22.697 10.4499 22.4545C9.93478 22.2121 9.38933 22.0909 8.81357 22.0909C8.26812 22.0909 7.78327 22.1818 7.35903 22.3636C6.93478 22.5454 6.5863 22.7879 6.29842 23.0909C5.90448 23.4848 5.6166 23.9394 5.43478 24.4848C5.25296 25.0303 5.16206 25.606 5.16206 26.2424C5.16206 26.8939 5.25296 27.4848 5.46509 28.0151C5.67721 28.5606 5.98024 29.0151 6.37418 29.3939C6.67721 29.697 7.04084 29.9242 7.43478 30.106C7.82872 30.2879 8.31357 30.3636 8.85903 30.3636C9.35903 30.3636 9.84387 30.2879 10.3136 30.106C10.7681 29.9394 11.1772 29.6515 11.5105 29.2576C11.6621 29.0757 11.7984 28.8485 11.9348 28.5757C12.0711 28.303 12.1469 28.0454 12.1772 27.803H10.359C10.2833 28.0757 10.1621 28.2879 9.98024 28.4697C9.82872 28.6212 9.67721 28.7121 9.49539 28.7727C9.31357 28.8333 9.10145 28.8485 8.82872 28.8485C8.556 28.8485 8.32872 28.803 8.1469 28.7121C7.96509 28.6212 7.79842 28.5 7.66206 28.3636C7.46509 28.1818 7.31357 27.9545 7.22266 27.6818C7.1166 27.4091 7.07115 27.1212 7.0863 26.8182H12.359C12.359 26.7727 12.359 26.7121 12.359 26.6515C12.359 26.5909 12.3742 26.5454 12.3742 26.4848V26.2879Z" fill="#8B5530"/>
<path d="M18.4748 26.6667V27.0303C18.4748 27.6212 18.2778 28.0757 17.9142 28.3788C17.5354 28.6818 17.0506 28.8333 16.4596 28.8333C16.1566 28.8333 15.899 28.7576 15.6718 28.5757C15.4445 28.3939 15.3384 28.1515 15.3384 27.8485C15.3384 27.5303 15.4445 27.2879 15.6869 27.106C15.9142 26.9394 16.1718 26.8485 16.4748 26.8182L18.4748 26.6667ZM21.0051 30.0757V28.6818C20.9748 28.6818 20.9596 28.697 20.9293 28.697C20.899 28.7121 20.8384 28.7121 20.7627 28.7121C20.596 28.7121 20.4748 28.6818 20.4142 28.606C20.3536 28.5303 20.3233 28.3939 20.3233 28.2121V25.2879C20.3233 25.0303 20.3081 24.7576 20.2778 24.4848C20.2475 24.2121 20.1869 23.9545 20.096 23.697C19.8536 23.106 19.4748 22.697 18.9445 22.4545C18.4142 22.2121 17.8081 22.0909 17.1415 22.0909C16.7021 22.0909 16.293 22.1515 15.899 22.2424C15.5051 22.3485 15.1718 22.5 14.8839 22.7121C14.5809 22.9242 14.3536 23.1818 14.1718 23.5C13.9899 23.8333 13.899 24.2121 13.8687 24.6515H15.7021C15.7172 24.2879 15.8536 24.0151 16.096 23.8182C16.3384 23.6363 16.6869 23.5303 17.1415 23.5303C17.6718 23.5303 18.0202 23.6515 18.2021 23.8788C18.3839 24.106 18.4748 24.4091 18.4748 24.7727V25.2576L16.1566 25.4242C15.7778 25.4545 15.4293 25.5303 15.1112 25.6515C14.7778 25.7727 14.5051 25.9242 14.2627 26.1363C14.0202 26.3485 13.8233 26.606 13.6869 26.8939C13.5506 27.197 13.4899 27.5303 13.4899 27.8939C13.4899 28.2273 13.5505 28.5303 13.6718 28.8333C13.793 29.1363 13.9596 29.3939 14.2021 29.6212C14.4445 29.8485 14.7324 30.0303 15.096 30.1667C15.4596 30.303 15.8687 30.3636 16.3384 30.3636C16.899 30.3636 17.399 30.2576 17.8233 30.0151C18.2475 29.7879 18.5506 29.5151 18.7324 29.1818C18.7627 29.4848 18.8839 29.7424 19.1112 29.9545C19.3233 30.1818 19.6415 30.2879 20.0657 30.2879C20.293 30.2879 20.4596 30.2727 20.5809 30.2424C20.7021 30.2121 20.8384 30.1515 21.0051 30.0757Z" fill="#8B5530"/>
<path d="M27.1039 30.0606V28.4697C26.8312 28.5 26.6191 28.5303 26.4373 28.5303C26.2555 28.5454 26.0736 28.5454 25.8767 28.5454C25.5736 28.5454 25.3464 28.4848 25.21 28.3485C25.0585 28.2121 24.9979 27.9848 24.9979 27.6818V23.8485H26.9827V22.2879H24.9979V19.8182L23.1039 20.2879V22.2879H21.6645V23.8485H23.1039V27.8485C23.1039 28.606 23.3009 29.2121 23.6948 29.6363C24.0888 30.0606 24.6797 30.2727 25.4827 30.2727C26.013 30.2727 26.5585 30.2121 27.1039 30.0606Z" fill="#8B5530"/>
<path d="M34.8371 27.7273C34.8371 27.106 34.625 26.606 34.2311 26.2273C33.822 25.8485 33.3068 25.606 32.6856 25.5C32.4886 25.4697 32.322 25.4545 32.2008 25.4242C32.0644 25.4091 31.9432 25.3939 31.822 25.3788L31.4583 25.3333C31.3371 25.3182 31.1856 25.303 31.0038 25.2727C30.7917 25.2424 30.5795 25.1818 30.3826 25.0757C30.1856 24.9697 30.0947 24.7727 30.0947 24.4848C30.0947 24.2879 30.1402 24.1212 30.2614 23.9697C30.3826 23.8333 30.5189 23.7273 30.7008 23.6515C30.8371 23.5909 30.9735 23.5606 31.1099 23.5454C31.2311 23.5454 31.3674 23.5303 31.5189 23.5303C31.7159 23.5303 31.9129 23.5757 32.0947 23.6363C32.2765 23.697 32.428 23.7879 32.5492 23.8939C32.6402 24 32.7159 24.106 32.7765 24.2273C32.8371 24.3485 32.8674 24.4848 32.8674 24.6363H34.6705C34.6705 24.3485 34.5947 24.0606 34.4735 23.7879C34.3523 23.5151 34.1856 23.2576 33.9735 23.0151C33.6705 22.7121 33.3068 22.4697 32.8674 22.3182C32.428 22.1667 31.9735 22.0909 31.5038 22.0909C31.0038 22.0909 30.5492 22.1667 30.1553 22.303C29.7462 22.4394 29.3977 22.6363 29.1099 22.8788C28.8674 23.0909 28.6856 23.3333 28.5341 23.6212C28.3826 23.9091 28.3068 24.2576 28.3068 24.6515C28.3068 24.9091 28.3371 25.1515 28.428 25.3788C28.5189 25.606 28.6402 25.8182 28.8068 26C28.9583 26.1818 29.1553 26.3485 29.3674 26.4697C29.5795 26.606 29.8371 26.697 30.1099 26.7576C30.4583 26.8485 30.822 26.9091 31.2008 26.9394C31.5644 26.9697 31.928 27.0151 32.2917 27.0606C32.5341 27.106 32.7159 27.197 32.8674 27.3333C33.0038 27.4848 33.0796 27.6667 33.0796 27.8939C33.0796 28.106 33.0189 28.2879 32.9129 28.4091C32.8068 28.5454 32.6705 28.6515 32.5189 28.7121C32.3523 28.7879 32.1705 28.8333 31.9886 28.8636C31.8068 28.8939 31.625 28.8939 31.4735 28.8939C31.2008 28.8939 30.9583 28.8788 30.7765 28.8182C30.5947 28.7576 30.428 28.6667 30.2765 28.5454C30.1553 28.4545 30.0492 28.3182 29.9735 28.1363C29.8826 27.9697 29.8523 27.803 29.8523 27.6212H28.0795C28.0795 28 28.1553 28.3485 28.322 28.6515C28.4735 28.9697 28.6705 29.2424 28.9129 29.4545C29.2311 29.7727 29.6099 30 30.0492 30.1515C30.4735 30.303 30.9432 30.3636 31.4583 30.3636C32.0038 30.3636 32.5038 30.303 32.9735 30.1515C33.428 30.0151 33.822 29.7879 34.1553 29.4545C34.3523 29.2576 34.5189 29.0151 34.6402 28.7273C34.7614 28.4545 34.8371 28.1212 34.8371 27.7273Z" fill="#8B5530"/>
</svg>
