<svg width="40" height="40" viewBox="0 0 40 40" fill="none" xmlns="http://www.w3.org/2000/svg">
<rect width="40" height="40" fill="white"/>
<path d="M18.1987 27.4546C17.9805 27.6546 17.7987 27.8546 17.5805 28.0364C16.8169 28.691 15.9441 29.0728 14.9623 29.1455C13.5078 29.2728 12.2351 28.8546 11.1987 27.8364C9.78051 26.4546 8.38051 25.0546 6.99869 23.6364C6.25323 22.8728 5.81687 21.9455 5.70778 20.891C5.54414 19.3637 5.99869 18.0546 7.07142 16.9637C9.41687 14.6182 11.7623 12.2728 14.1078 9.92733C14.7623 9.27278 15.7623 9.56369 15.9987 10.3637C16.1078 10.7637 16.0169 11.1273 15.726 11.4364C15.5078 11.6728 15.2714 11.891 15.0532 12.1273C12.926 14.2364 10.7987 16.3637 8.6896 18.4728C8.30778 18.8546 8.03505 19.291 7.94414 19.8182C7.76233 20.7273 8.01687 21.5273 8.65323 22.1819C9.98051 23.5273 11.326 24.8546 12.6714 26.2001C13.2351 26.7637 13.926 27.0364 14.7441 26.9637C15.3805 26.9092 15.926 26.6182 16.3805 26.1637C18.6714 23.8728 20.9805 21.5637 23.2714 19.2728C23.5078 19.0364 23.7805 18.891 24.126 18.891C24.5987 18.9092 24.926 19.1273 25.126 19.5455C25.3078 19.9637 25.2532 20.3637 24.9623 20.7273C24.926 20.7819 24.8714 20.8364 24.8169 20.8728C23.1987 22.491 21.5623 24.1273 19.9441 25.7455C19.9078 25.7819 19.8351 25.8182 19.7805 25.8546C19.7987 25.8728 19.7987 25.891 19.8169 25.891C19.8351 25.9091 19.8351 25.9273 19.8532 25.9455C20.3987 26.491 20.9441 27.0546 21.5078 27.5819C22.4351 28.4364 23.9441 28.4364 24.8714 27.5819C24.9623 27.5092 25.035 27.4182 25.126 27.3455C27.2532 25.2182 29.3805 23.091 31.4896 20.9819C32.0714 20.4001 32.3623 19.7092 32.3078 18.891C32.2532 18.2546 31.9987 17.7273 31.5623 17.2728C30.1078 15.8182 28.6532 14.3637 27.1987 12.9091C26.1441 11.8728 24.5805 11.891 23.526 12.9455C20.9441 15.5273 18.3441 18.1273 15.7623 20.7092C15.526 20.9455 15.3078 21.1819 15.0714 21.4001C14.4351 22.0001 13.4169 21.691 13.2351 20.8364C13.1623 20.491 13.2351 20.1819 13.4532 19.891C13.4896 19.8364 13.5441 19.8001 13.5805 19.7455C16.3805 16.9455 19.1623 14.1637 21.9623 11.3637C22.6532 10.6728 23.4714 10.2001 24.4532 10.0182C26.035 9.72733 27.4532 10.1091 28.635 11.2001C29.5623 12.0546 30.4169 12.9637 31.3078 13.8546C31.9078 14.4546 32.526 15.0728 33.126 15.6728C33.8896 16.4182 34.3623 17.3273 34.4896 18.3819C34.6896 19.9091 34.2896 21.2728 33.1987 22.3637C30.9805 24.6182 28.726 26.8546 26.4896 29.0728C25.6896 29.8728 24.6896 30.291 23.5623 30.3819C22.1078 30.491 20.8532 30.0001 19.8169 28.9819C19.326 28.5092 18.8532 28.0182 18.3623 27.5455C18.2714 27.5273 18.2351 27.5092 18.1987 27.4546Z" fill="#CA2564"/>
</svg>
