<svg width="40" height="40" viewBox="0 0 40 40" fill="none" xmlns="http://www.w3.org/2000/svg">
<rect width="40" height="40" fill="#1F5EA9"/>
<path d="M25.4654 21.0487C25.3747 21.0487 25.2947 21.0647 25.2306 21.0914C25.1666 21.1181 25.1133 21.1554 25.0706 21.2034C25.0279 21.2515 24.9959 21.3048 24.9799 21.3635C24.9586 21.4222 24.9479 21.4808 24.9479 21.5449C24.9479 21.6195 24.9586 21.6836 24.9799 21.7369C25.0013 21.7902 25.0333 21.8329 25.0759 21.8649C25.1186 21.8969 25.1666 21.9236 25.22 21.9396C25.2787 21.9556 25.3373 21.9663 25.412 21.9663C25.4974 21.9663 25.5721 21.9556 25.6307 21.9343C25.6894 21.9129 25.7428 21.8809 25.7801 21.8489C25.8174 21.8169 25.8494 21.7796 25.8708 21.7369C25.8921 21.6942 25.9081 21.6569 25.9188 21.6195C25.9295 21.5822 25.9348 21.5502 25.9348 21.5235C25.9348 21.4968 25.9401 21.4808 25.9401 21.4702C25.9401 21.3368 25.8975 21.2301 25.8174 21.1608C25.7428 21.0861 25.6254 21.0487 25.4654 21.0487Z" fill="white"/>
<path d="M13.068 17.821C13.1107 17.853 13.1587 17.8797 13.212 17.8957C13.2707 17.9117 13.3293 17.9223 13.3987 17.9223C13.484 17.9223 13.5586 17.9117 13.6173 17.8904C13.676 17.869 13.7293 17.8424 13.7666 17.805C13.8039 17.773 13.8359 17.7357 13.8573 17.693C13.8786 17.6504 13.8946 17.6131 13.9053 17.5757C13.9159 17.5384 13.9213 17.5064 13.9213 17.4797C13.9213 17.4531 13.9266 17.4371 13.9266 17.4264C13.9266 17.2931 13.8839 17.1918 13.8039 17.1171C13.7239 17.0425 13.6066 17.0105 13.4466 17.0105C13.356 17.0105 13.276 17.0265 13.212 17.0531C13.148 17.0798 13.0947 17.1171 13.052 17.1651C13.0094 17.2131 12.9774 17.2664 12.9614 17.3251C12.9401 17.3838 12.9294 17.4477 12.9294 17.5064C12.9294 17.5811 12.9401 17.6451 12.9614 17.6984C12.9987 17.7464 13.0307 17.789 13.068 17.821Z" fill="white"/>
<path d="M36.0122 21.1661C36.0068 21.1021 35.9801 21.0434 35.9428 21.0061C35.9055 20.9687 35.8521 20.9634 35.7828 21.0061C35.6761 21.0754 35.6014 21.1821 35.4574 21.2728C35.4094 21.3048 35.308 21.3155 35.26 21.2675C35.1693 21.1821 35.1853 20.9634 35.1853 20.846C35.1853 20.6486 35.3934 19.1656 35.404 19.0056C35.42 18.7442 35.4094 18.6055 35.276 18.5202C35.196 18.4722 35.0466 18.4722 34.9452 18.5095C34.5932 18.6322 33.873 19.8271 33.7663 20.0565C33.729 20.1365 33.6543 20.1525 33.681 20.0405C33.761 19.7151 33.9263 19.0643 33.937 18.8936C33.953 18.6482 33.809 18.4988 33.5903 18.4775C33.1795 18.4455 32.6514 19.4324 32.3207 20.0458C32.294 20.0885 32.2726 20.0245 32.2726 20.0245C32.31 19.8271 32.486 19.0323 32.4273 18.6322C32.39 18.3601 32.182 18.1414 31.8832 18.2748C31.6752 18.3655 31.5365 18.5682 31.3978 18.7442C31.2591 18.9149 31.131 19.0003 30.9443 19.0269C30.8056 18.7709 30.6083 18.5468 30.3149 18.4988C30.0588 18.4561 29.8027 18.5575 29.5947 18.6535C29.3866 18.7495 29.2266 18.8989 29.0826 19.059C28.9385 19.2243 28.8319 19.427 28.7572 19.6511C28.6825 19.8698 28.6398 20.1365 28.6398 20.4406C28.6398 20.4886 28.6398 20.5313 28.6451 20.574C28.6398 20.5793 28.6398 20.5793 28.6345 20.5846C28.5118 20.7073 28.3838 20.8247 28.2451 20.926C28.1117 21.0327 27.973 21.1181 27.8396 21.1821C27.7063 21.2515 27.5836 21.2835 27.4715 21.2835C27.3595 21.2835 27.2635 21.2568 27.1941 21.2088C27.1248 21.1608 27.0661 21.0968 27.0181 21.0221C26.9754 20.9474 26.9434 20.862 26.9274 20.7713C26.9114 20.6807 26.9061 20.5953 26.9061 20.51C26.9061 20.4566 26.9061 20.3873 26.9114 20.3019C26.9167 20.2219 26.9274 20.1312 26.9488 20.0405C26.9701 19.9498 27.0021 19.8378 27.0448 19.7044C27.0875 19.5817 27.1301 19.4857 27.1728 19.4164C27.2582 19.251 27.4449 19.155 27.5356 19.1443C27.5409 19.1443 27.5516 19.1443 27.5569 19.1443C27.7009 19.1336 27.7169 19.3417 27.7809 19.4964C27.8343 19.6297 27.861 19.7471 28.053 19.7364C28.3998 19.7098 28.3837 18.7656 27.8876 18.5468C27.7703 18.4935 27.6369 18.4882 27.4982 18.4882C27.3435 18.4882 27.1995 18.5148 27.0715 18.5735C26.9434 18.6322 26.8207 18.7069 26.7194 18.8029C26.6127 18.8989 26.522 19.0109 26.442 19.139C26.362 19.267 26.2926 19.4004 26.2393 19.5391C26.1859 19.6778 26.1326 19.8431 26.0899 20.0298C26.0419 20.2166 26.0205 20.3766 26.0205 20.5153C26.0205 20.702 26.0472 20.8834 26.1059 21.0594C26.1646 21.2354 26.2446 21.3848 26.3566 21.5182C26.4686 21.6515 26.602 21.7529 26.762 21.8329C26.9221 21.9129 27.1141 21.9716 27.3275 21.9716C27.6262 21.9716 27.9196 21.8009 28.0317 21.7422C28.1437 21.6836 28.2451 21.6089 28.3464 21.5342C28.4478 21.4542 28.5385 21.3741 28.6238 21.2888C28.6665 21.2461 28.7092 21.2034 28.7518 21.1554C28.7892 21.2675 28.8425 21.3688 28.9012 21.4648C28.9919 21.6089 29.0932 21.7316 29.2373 21.8169C29.3813 21.9076 29.5787 21.9663 29.7814 21.9663C29.9254 21.9663 30.1015 21.9236 30.2242 21.8756C30.3469 21.8276 30.4375 21.7582 30.5442 21.6729C30.6509 21.5875 30.7203 21.4915 30.8003 21.3795C30.8803 21.2675 30.9497 21.1448 31.0083 21.0167C31.067 20.8887 31.1097 20.7553 31.1364 20.6113C31.1684 20.4726 31.1791 20.3339 31.1791 20.1952C31.1791 20.0085 31.1524 19.8431 31.131 19.6884C31.1204 19.6244 31.1097 19.5604 31.099 19.5017C31.2591 19.4697 31.4031 19.4004 31.5418 19.2937C31.4511 19.9712 31.3017 21.1234 31.2911 21.1928C31.2377 21.4915 31.2484 21.9396 31.6272 21.9663C31.9632 21.9876 32.0486 21.7849 32.0913 21.6942C32.2513 21.3848 32.39 21.1234 32.4807 20.9047C32.5874 20.6433 33.0301 19.8805 33.0622 19.8378C33.1208 19.7524 33.1848 19.8165 33.1795 19.8378C33.1742 19.8591 33.0728 20.3606 33.0408 20.542C32.9821 20.926 32.8861 21.6195 33.1315 21.8703C33.2702 22.009 33.4676 22.0036 33.6223 21.7262C33.6223 21.7262 34.5185 19.9658 34.5345 19.9125C34.5825 19.7951 34.6465 19.8111 34.6358 19.8911C34.5985 20.3499 34.5025 20.8834 34.5505 21.2621C34.5878 21.5555 34.6892 21.9663 35.0146 21.977C35.3613 21.993 35.6868 21.7369 35.8841 21.4648C35.9641 21.4062 36.0228 21.2675 36.0122 21.1661ZM30.4802 20.4299C30.4482 20.6006 30.4002 20.75 30.3469 20.8727C30.2935 20.9954 30.2242 21.0968 30.1548 21.1768C30.0801 21.2568 30.0055 21.2941 29.9254 21.2941C29.8347 21.2941 29.7601 21.2728 29.6907 21.2354C29.6267 21.1981 29.5734 21.1448 29.536 21.0807C29.4987 21.0167 29.4667 20.942 29.4507 20.8567C29.4347 20.7713 29.424 20.6807 29.424 20.5846C29.424 20.3926 29.44 20.2219 29.4773 20.0672C29.5147 19.9125 29.5627 19.7738 29.632 19.6511C29.696 19.5231 29.7707 19.4217 29.8561 19.3417C29.9414 19.2617 30.0321 19.219 30.1281 19.219C30.1975 19.219 30.2615 19.2403 30.3095 19.2777C30.3629 19.315 30.4002 19.3684 30.4322 19.4377C30.4642 19.5071 30.4909 19.5817 30.5069 19.6778C30.5229 19.7684 30.5336 19.8698 30.5336 19.9765C30.5282 20.1045 30.5122 20.2592 30.4802 20.4299Z" fill="white"/>
<path d="M24.6279 22.0783C24.708 21.5182 24.836 20.766 24.8733 20.5473C24.9 20.4032 24.932 20.2059 24.9747 19.9658C25.0174 19.7258 25.0494 19.539 25.0707 19.4057C25.0921 19.2723 25.1134 19.155 25.1347 19.0483C25.1507 18.9416 25.1827 18.8135 25.1934 18.7495C25.1987 18.7229 25.2041 18.6962 25.2041 18.6748C25.2041 18.6055 25.1774 18.5575 25.1294 18.5255C25.0814 18.4935 25.0174 18.4775 24.948 18.4775C24.8893 18.4775 24.8253 18.4881 24.756 18.5095C24.6866 18.5308 24.6226 18.5628 24.5586 18.6055C24.4946 18.6482 24.4412 18.7015 24.3932 18.7602C24.3452 18.8242 24.2919 18.9416 24.2759 19.0163L23.9985 20.3232C23.9878 20.3979 23.9665 20.4939 23.9398 20.606C23.9078 20.718 23.8651 20.8247 23.8171 20.9314C23.7637 21.0381 23.7051 21.1287 23.6357 21.2034C23.5664 21.2781 23.4864 21.3155 23.401 21.3155C23.3477 21.3155 23.305 21.2994 23.2676 21.2728C23.2303 21.2461 23.2036 21.2088 23.1823 21.1661C23.1609 21.1234 23.1449 21.0754 23.1396 21.0167C23.1289 20.9634 23.1289 20.9047 23.1289 20.846C23.1289 20.734 23.1449 20.606 23.1716 20.4619C23.1983 20.3179 23.2356 20.1205 23.2836 19.8751C23.3477 19.539 23.4277 19.2083 23.513 18.8776C23.5344 18.8029 23.5344 18.7442 23.5237 18.6695C23.5077 18.5255 23.369 18.5095 23.1183 18.4561C22.8622 18.4028 22.4141 18.3548 22.4194 18.5201C22.4248 18.6695 22.4514 18.7229 22.6275 18.7922C22.6275 18.7922 22.4194 19.5657 22.3768 19.8111C22.3394 20.0458 22.3021 20.2485 22.2754 20.4139C22.2274 20.5633 21.9607 21.2728 21.8433 21.2888C21.4539 21.3475 21.7366 19.6884 21.8006 19.395C21.8433 19.1923 21.6246 19.0483 21.3845 18.9683C21.2352 18.9202 21.1391 18.8296 20.9311 18.6322C20.8938 18.5895 20.8564 18.4561 20.8137 18.4081C20.6644 18.2374 20.4457 18.1521 20.2269 18.2534C19.9602 18.3814 19.9549 18.7709 20.0936 18.9843C20.0776 19.1176 20.0722 19.2456 20.0669 19.331C20.0456 19.6564 19.9175 19.9925 19.7948 20.2912C19.7522 20.3979 19.7042 20.4993 19.6455 20.5953C19.5494 20.7553 19.3947 20.8834 19.2454 20.99C19.096 21.0914 18.9253 21.1928 18.7493 21.2354C18.6746 21.2568 18.5839 21.2674 18.5039 21.2568C18.2585 21.2194 18.2211 21.1394 18.1625 21.0541C19.2454 20.5153 19.5174 19.8058 19.4801 19.2777C19.4428 18.7442 19.0107 18.4028 18.5092 18.4615C18.1251 18.5095 17.3516 18.9522 17.1916 20.0512C17.1702 20.1845 17.1436 20.3712 17.1809 20.6806C17.0849 20.718 16.9995 20.7447 16.9355 20.7553C16.7595 20.782 16.4767 20.6913 16.3807 20.3979C16.3647 20.3446 16.3594 20.2912 16.3594 20.2325C16.3594 20.1792 16.3647 20.1258 16.3701 20.0778C16.3807 20.0298 16.3861 19.9818 16.4021 19.9445C16.4181 19.9018 16.4287 19.8591 16.4447 19.8164C16.4607 19.7791 16.5194 19.6297 16.6208 19.379C16.6368 19.347 16.6741 19.2723 16.7328 19.155C16.7595 19.1016 16.7862 19.0376 16.8022 18.9629C16.8182 18.9042 16.8288 18.8456 16.8288 18.7762C16.8288 18.6909 16.7862 18.6215 16.7061 18.5628C16.6261 18.5095 16.5141 18.4828 16.3807 18.4828C16.3274 18.4828 16.2794 18.4881 16.2367 18.5041C16.194 18.5201 16.1513 18.5362 16.114 18.5575C16.0767 18.5788 16.0446 18.6055 16.0233 18.6375C16.002 18.6695 15.986 18.7015 15.9753 18.7335L15.0204 21.0594L14.9991 21.0647L15.0631 18.7495C15.0631 18.6909 15.0418 18.6375 15.0097 18.5895C14.9777 18.5415 14.9191 18.5201 14.807 18.5095C14.695 18.4988 14.0975 18.4668 14.0655 18.4668C13.9588 18.4668 13.8361 18.4295 13.8361 18.6375C13.8361 18.7869 13.9268 18.8402 14.1722 18.9096C14.1722 18.9096 14.1669 19.3257 14.1669 19.4804C14.1669 19.5711 14.1669 19.6617 14.1722 19.7524C14.1722 19.8431 14.1776 19.9391 14.1829 20.0405C14.1882 20.1472 14.1936 20.2645 14.2042 20.3926C14.2096 20.4939 14.2149 20.6113 14.2202 20.7447C13.9535 20.9687 13.5374 21.2781 13.26 21.2674C13.0413 21.2621 13.1533 20.6273 13.26 20.2165C13.372 19.8111 13.5748 19.0483 13.6014 18.9576C13.6228 18.8616 13.6388 18.7922 13.6388 18.7389C13.6388 18.6802 13.6228 18.6322 13.5854 18.5948C13.5587 18.5682 13.5214 18.5468 13.4201 18.5308C13.1053 18.4881 13.0733 18.4935 12.7372 18.4455C12.5772 18.4241 12.4118 18.4081 12.4332 18.6268C12.4438 18.7495 12.4278 18.8135 12.7479 18.8936C12.6999 19.0696 12.6572 19.267 12.6092 19.427C12.5132 19.7684 12.4492 19.9871 12.4172 20.0885C12.3958 20.1365 12.3531 20.3659 12.2891 20.7713C12.2838 20.8033 12.2785 20.83 12.2785 20.8567C12.0544 21.0327 11.7717 21.1981 11.4889 21.2034C11.2009 21.2088 11.3823 20.2219 11.3929 20.1845C11.4036 20.1472 11.4089 20.1152 11.4196 20.0885C11.5049 19.8698 11.5956 19.7044 11.7077 19.475C11.8197 19.2456 11.9264 19.0109 12.0331 18.7762C12.1398 18.5415 12.2464 18.3014 12.3425 18.0614C12.4385 17.8213 12.5238 17.5813 12.5932 17.3465C12.6625 17.1118 12.7266 16.8771 12.7479 16.6424C12.8226 15.9542 12.6145 15.2074 12.1611 15.1914C11.4836 15.1594 11.0675 15.8849 10.7528 17.0585C10.6888 17.3039 10.5927 17.6079 10.5181 17.9974C10.4487 18.3868 10.4114 18.5788 10.4114 18.5788C10.4114 18.5788 10.39 18.7709 10.3527 19.155C10.3153 19.539 10.3153 19.8111 10.3367 20.0405C10.3527 20.1952 10.3687 20.3286 10.3847 20.4566C9.78189 20.942 9.21642 21.3315 8.82167 21.2728C8.57628 21.2354 8.53894 21.1554 8.48026 21.0701C9.56317 20.5313 9.83523 19.8218 9.79789 19.2937C9.76055 18.7602 9.32845 18.4188 8.827 18.4775C8.44291 18.5255 7.6694 18.9682 7.50937 20.0672C7.48803 20.2272 7.45069 20.4459 7.52004 20.862C7.46669 20.8994 7.40801 20.942 7.34933 20.9794C7.29065 21.0167 7.23197 21.0541 7.17329 21.0807C7.11461 21.1127 7.06127 21.1341 7.00792 21.1554C6.98658 21.1608 6.97058 21.1661 6.94924 21.1714C6.94391 21.1714 6.93324 21.1714 6.9279 21.1714C6.9119 21.1714 6.89056 21.1554 6.86922 21.1287C6.84788 21.1021 6.82654 21.0647 6.81054 21.0221C6.7892 20.974 6.77853 20.926 6.76253 20.8673C6.76253 20.862 6.76253 20.8567 6.7572 20.8513C6.74653 20.6806 6.7572 20.5313 6.82121 20.2966C6.82654 20.2752 6.86389 20.1685 6.87456 20.1472C6.98125 19.9338 7.11461 19.6137 7.2213 19.3843C7.32799 19.155 7.43468 18.9149 7.53604 18.6802C7.6374 18.4401 7.73875 18.2001 7.83478 17.96C7.9308 17.72 8.01082 17.4799 8.07483 17.2399C8.13884 16.9998 8.18686 16.7651 8.21886 16.5357C8.27221 16.1409 8.23487 15.1967 7.62673 15.1967C7.26931 15.1967 6.87989 15.3568 6.58649 15.8742C6.16506 16.6104 6.01569 18.4241 5.99435 18.9096C5.02347 18.3548 4.28196 19.331 4.03124 20.3766C3.96189 20.6646 3.8712 21.9609 4.66605 21.9983C4.77274 22.0036 4.87943 21.9823 4.99146 21.9449C5.10348 21.9076 5.21018 21.8596 5.3222 21.8009C5.43423 21.7422 5.54625 21.6729 5.65294 21.5875C5.75963 21.5075 5.86633 21.4221 5.96235 21.3315C5.99435 21.4755 6.04237 21.5928 6.10638 21.6835C6.17039 21.7689 6.23441 21.8382 6.30376 21.8862C6.37311 21.9343 6.43712 21.9609 6.50114 21.9769C6.56515 21.9929 6.66651 21.9929 6.70385 21.9929C7.18929 21.9876 7.57338 21.7209 7.80277 21.5448C7.90412 21.6729 8.03749 21.7956 8.20819 21.8596C8.3789 21.9236 8.56027 21.9716 8.77899 21.9823C9.48849 22.0036 10.1393 21.5555 10.5447 21.2034C10.5661 21.2674 10.5874 21.3261 10.6141 21.3848C10.6941 21.5662 10.8435 21.9556 11.2436 21.9876C11.3236 21.9929 11.4143 21.9769 11.5049 21.9556C11.5956 21.9343 11.6917 21.9076 11.793 21.8702C11.889 21.8329 11.9904 21.7956 12.0864 21.7476C12.1558 21.7155 12.2251 21.6835 12.2945 21.6462C12.3158 21.6995 12.3425 21.7476 12.3798 21.7902C12.4332 21.8489 12.4972 21.8969 12.5825 21.9343C12.6625 21.9663 12.7692 21.9823 12.8866 21.9823C13.02 21.9823 13.164 21.9556 13.3134 21.9076C13.4627 21.8596 13.6121 21.7956 13.7561 21.7262C13.9002 21.6515 14.0335 21.5715 14.1616 21.4862C14.2042 21.4595 14.2416 21.4275 14.2736 21.4008C14.2896 21.4915 14.3109 21.5768 14.3376 21.6569C14.3749 21.7636 14.4176 21.8116 14.4923 21.8809C14.5723 21.9503 14.7057 21.9823 14.8497 21.9823C14.9244 21.9823 15.0524 21.9289 15.1431 21.8542C15.2338 21.7796 15.2765 21.7369 15.3672 21.6142C15.4578 21.4968 15.5485 21.3635 15.6339 21.2141C15.7192 21.0701 15.7939 20.926 15.8633 20.7873C15.8633 20.878 16.226 21.3795 16.7168 21.3901C16.8982 21.3955 17.1062 21.3315 17.3089 21.2461C17.405 21.4595 17.5917 21.7476 17.8957 21.8596C18.0664 21.9236 18.2478 21.9716 18.4665 21.9823C19.0373 21.9983 19.6081 21.6889 19.9762 21.2621C20.0989 21.1181 20.2163 20.9687 20.2963 20.798C20.4883 20.3979 20.595 19.9605 20.675 19.5284C20.6804 19.4964 20.7444 19.2723 20.7231 19.2563C20.8404 19.3683 20.9151 19.4484 21.1231 19.5764C20.9258 20.59 20.7177 22.0089 21.6886 21.9876C21.9287 21.9823 22.1527 21.7209 22.3127 21.4542C22.3608 21.5608 22.4194 21.6515 22.4941 21.7315C22.5741 21.8169 22.6702 21.8809 22.7769 21.9289C22.8835 21.9716 22.9902 21.9983 23.1023 21.9983C23.2303 21.9983 23.3637 21.9663 23.497 21.8969C23.6357 21.8276 23.7637 21.7422 23.8918 21.6302L23.8171 22.0516C23.401 22.153 22.4888 22.5104 22.3714 23.6413C22.3181 24.1748 22.7609 24.8096 23.2836 24.8096C23.6997 24.8096 24.2012 24.7189 24.4092 23.6093C24.4359 23.4759 24.4626 23.3639 24.4786 23.2626C24.4892 23.1612 24.5052 23.0545 24.5213 22.9425C24.5266 22.9052 24.5479 22.6971 24.5586 22.6278C24.852 22.5851 25.1401 22.8625 25.1881 22.4997C25.2201 22.2543 24.7133 22.105 24.6279 22.0783ZM5.85566 20.5526C5.78097 20.6753 5.70629 20.782 5.62627 20.878C5.59426 20.9207 5.55692 20.958 5.51425 21.0007C5.4769 21.0381 5.43423 21.0754 5.39155 21.1021C5.34887 21.1341 4.80475 21.4862 4.80475 20.894C4.80475 19.9818 5.39688 19.0963 5.95701 19.6777C5.96235 19.7311 5.85566 20.5206 5.85566 20.5526ZM6.69318 19.1176C6.68785 18.9949 6.68251 18.8722 6.68251 18.7495C6.68785 18.6108 6.69852 18.4668 6.71452 18.3121C6.74653 17.992 6.76253 17.832 6.76253 17.832C6.76253 17.832 6.79987 17.656 6.86922 17.3092C6.93857 16.9625 7.00258 16.7117 7.0666 16.5517C7.12528 16.397 7.18929 16.269 7.25331 16.1729C7.31732 16.0769 7.38134 16.0289 7.44535 16.0236C7.46136 16.0236 7.47736 16.0449 7.48269 16.0929C7.48803 16.1409 7.4987 16.1996 7.50403 16.2636C7.50403 16.477 7.47736 16.7117 7.42401 16.9678C7.37067 17.2239 7.30132 17.4746 7.2213 17.736C7.14128 17.992 7.0506 18.2428 6.95457 18.4881C6.86389 18.7229 6.77853 18.9309 6.69318 19.1176ZM8.84301 19.1176C8.9817 19.0909 9.16308 19.1603 9.15241 19.4537C9.14174 19.9285 8.40024 20.3659 8.32022 20.3819C8.31488 20.3286 8.26154 19.2296 8.84301 19.1176ZM11.1635 19.235C11.1582 18.9949 11.1742 18.7175 11.2115 18.3975C11.2489 18.0774 11.2702 17.9173 11.2702 17.9173C11.2702 17.9173 11.3076 17.7466 11.3823 17.3999C11.4569 17.0531 11.5263 16.8024 11.5903 16.6477C11.6543 16.493 11.7717 16.0556 12.0011 16.0556C12.1451 16.0556 12.0011 16.8184 11.9424 17.0691C11.8837 17.3199 11.8143 17.5759 11.729 17.832C11.6436 18.088 11.553 18.3388 11.4516 18.5788C11.3502 18.8242 11.2542 19.0429 11.1635 19.235ZM18.5252 19.1176C18.6639 19.0909 18.8453 19.1603 18.8346 19.4537C18.824 19.9285 18.0824 20.3659 18.0024 20.3819C17.9971 20.3286 17.9438 19.2296 18.5252 19.1176ZM23.2836 24.2281C22.8035 24.1961 23.1236 22.7291 23.8064 22.6811C23.7104 23.4066 23.7157 24.2548 23.2836 24.2281Z" fill="white"/>
</svg>
