<svg width="40" height="40" viewBox="0 0 40 40" fill="none" xmlns="http://www.w3.org/2000/svg">
<rect width="40" height="40" fill="#FE6300"/>
<path d="M15.381 9.69084C15.4355 9.61811 15.5083 9.63629 15.5628 9.63629C17.2901 9.63629 19.0174 9.63629 20.7446 9.63629C21.2719 9.63629 21.7992 9.63629 22.3265 9.63629C22.4355 9.63629 22.4719 9.61811 22.4719 9.49084C22.4719 9.27265 22.4719 9.07265 22.4174 8.87265C22.2901 8.25447 21.9446 7.98175 21.2901 7.98175C19.9628 7.98175 18.6174 7.98175 17.2901 7.98175C16.2355 7.98175 15.1992 7.98175 14.1446 7.98175C13.8174 7.98175 13.5628 7.87265 13.3446 7.65447C12.9628 7.25447 12.5628 6.85447 12.181 6.45447C12.1446 6.41811 12.0901 6.38175 12.1083 6.34538C12.1264 6.27265 12.1992 6.30902 12.2537 6.30902C15.3264 6.30902 18.381 6.30902 21.4537 6.30902C22.2901 6.30902 23.0355 6.56356 23.581 7.23629C23.9446 7.69084 24.0901 8.21811 24.181 8.76356C24.2174 8.98175 24.2355 9.21811 24.2174 9.45447C24.1992 9.59993 24.2537 9.63629 24.3992 9.63629C24.7992 9.63629 25.2174 9.63629 25.5992 9.74538C26.6174 10.0363 27.181 10.7636 27.3992 11.7636C27.4719 12.109 27.4901 12.4727 27.5083 12.8363C27.5083 13.6727 27.5446 14.509 27.4719 15.3454C27.381 16.2727 27.0719 17.0908 26.2174 17.5817C25.781 17.8363 25.3083 17.9454 24.7992 17.9636C24.4537 17.9636 24.0901 17.9636 23.7446 17.9454C23.581 17.9454 23.4537 17.8727 23.3265 17.7636C22.8719 17.309 22.3992 16.8363 21.9446 16.3636C21.9264 16.3454 21.9265 16.3272 21.9265 16.309C21.981 16.2545 22.0355 16.2727 22.1083 16.2727C22.9265 16.2727 23.7446 16.2545 24.5628 16.2727C25.4355 16.2908 25.7083 15.7272 25.7265 15.1636C25.7628 14.2363 25.7446 13.2908 25.7265 12.3636C25.7083 11.6545 25.2537 11.2545 24.5628 11.2727C24.2174 11.2727 24.2174 11.2727 24.2174 11.6181C24.1992 12.3272 24.0719 13.0181 23.6355 13.5999C23.1628 14.2363 22.5083 14.5272 21.7446 14.5817C21.3265 14.6181 20.9265 14.6181 20.5083 14.5999C20.3265 14.5817 20.181 14.5272 20.0537 14.4181C19.5992 13.9636 19.1628 13.509 18.7083 13.0545C18.6901 13.0363 18.6355 12.9999 18.6537 12.9636C18.6901 12.909 18.7446 12.9272 18.781 12.9272C19.5992 12.9272 20.4355 12.9272 21.2537 12.9272C21.4355 12.9272 21.5992 12.909 21.7628 12.8545C22.1628 12.709 22.3265 12.3817 22.3992 11.9999C22.4355 11.8181 22.4355 11.6181 22.4355 11.4363C22.4355 11.309 22.3992 11.2727 22.2719 11.2727C21.7446 11.2727 21.1992 11.2727 20.6719 11.2727C19.581 11.2727 18.4719 11.2727 17.381 11.2727C17.0537 11.2727 16.7992 11.1636 16.581 10.9272C16.2355 10.5454 15.8719 10.1999 15.5083 9.83629C15.4901 9.81811 15.4355 9.76356 15.381 9.69084Z" fill="#FEFDFD"/>
<path d="M27.7992 24.4545C28.1992 24.7272 28.2719 25.1091 28.2901 25.5272C28.2901 25.8363 28.2901 26.1272 28.2901 26.4363C28.2901 26.6 28.2901 26.7454 28.3628 26.8909C28.4173 27.0181 28.3628 27.0909 28.2173 27.0909C28.1082 27.0909 27.9992 27.0909 27.9082 27.0909C27.5992 27.0909 27.5628 27.0545 27.5264 26.7454C27.4901 26.4909 27.5082 26.2363 27.5082 25.9636C27.5082 25.7636 27.5082 25.5818 27.4901 25.3818C27.4719 25.0545 27.3082 24.9091 26.9992 24.8727C26.5628 24.8181 26.5628 24.8181 26.5628 25.2545C26.5628 25.8 26.5628 26.3454 26.5628 26.8909C26.5628 27.0363 26.5264 27.1091 26.3628 27.0909C26.2355 27.0727 26.0901 27.0727 25.9628 27.0909C25.8173 27.1091 25.781 27.0363 25.781 26.8909C25.781 25.2181 25.781 23.5272 25.781 21.8545C25.781 21.7091 25.8355 21.6545 25.981 21.6545C26.4355 21.6727 26.8901 21.6181 27.3446 21.6909C27.8719 21.7636 28.1628 22.0363 28.2719 22.5636C28.3446 22.9636 28.3446 23.3818 28.2719 23.7818C28.1992 24.0363 28.0537 24.2727 27.7992 24.4545ZM27.5082 23.2545C27.5082 23.1091 27.4901 22.9636 27.4901 22.8C27.4537 22.5454 27.3082 22.4 27.0537 22.4C26.9446 22.4 26.8173 22.4 26.7082 22.4C26.5992 22.4 26.5628 22.4363 26.5628 22.5454C26.5628 22.9091 26.5628 23.2909 26.5628 23.6545C26.5628 24.1636 26.5628 24.1636 27.0901 24.1091C27.3264 24.0727 27.4719 23.9454 27.4901 23.7091C27.4901 23.5454 27.4901 23.4 27.5082 23.2545Z" fill="#FEFAF8"/>
<path d="M18.9995 31.0363C19.3995 31.3091 19.4722 31.7091 19.4904 32.1272C19.4904 32.4363 19.4904 32.7454 19.4904 33.0545C19.4904 33.2 19.5086 33.3454 19.5631 33.4727C19.6177 33.6181 19.5631 33.6909 19.4177 33.6727C19.3086 33.6727 19.1995 33.6727 19.1086 33.6727C18.8177 33.6727 18.7813 33.6363 18.745 33.3454C18.7086 33.0363 18.7086 32.709 18.7086 32.4C18.7086 32.2727 18.7086 32.1272 18.7086 32C18.6904 31.6727 18.5268 31.4909 18.1995 31.4545C17.7813 31.4181 17.7813 31.4181 17.7813 31.8363C17.7813 32.3818 17.7813 32.9272 17.7813 33.4727C17.7813 33.6363 17.7268 33.7091 17.5631 33.6909C17.4359 33.6727 17.3086 33.6727 17.1995 33.6909C17.0359 33.7091 16.9813 33.6545 16.9813 33.4909C16.9995 33.2 16.9813 32.909 16.9813 32.6181C16.9813 31.2545 16.9813 29.8727 16.9813 28.5091C16.9813 28.3272 17.0359 28.2545 17.2177 28.2727C17.6722 28.2909 18.1268 28.2363 18.5813 28.3091C19.0904 28.4 19.3813 28.6909 19.454 29.2C19.5086 29.6 19.5086 29.9818 19.454 30.3818C19.3995 30.6181 19.254 30.8545 18.9995 31.0363ZM17.745 29.8363C17.745 29.9636 17.745 30.1091 17.745 30.2363C17.745 30.3818 17.6722 30.5818 17.7813 30.6545C17.9086 30.7454 18.1086 30.6909 18.2904 30.6727C18.5268 30.6363 18.6722 30.4909 18.6904 30.2363C18.7086 29.9636 18.7086 29.6909 18.6904 29.4C18.6722 29.1091 18.5268 28.9818 18.2359 28.9636C18.1268 28.9636 17.9995 28.9636 17.8904 28.9636C17.7813 28.9636 17.7631 29 17.7631 29.1091C17.745 29.3636 17.745 29.6 17.745 29.8363Z" fill="#FEFAF8"/>
<path d="M8.43604 21.6908C8.50876 21.6363 8.58149 21.6545 8.63603 21.6545C9.2724 21.6545 9.89058 21.6545 10.5269 21.6545C11.2724 21.6545 11.7633 22.0908 11.7815 22.8545C11.7997 23.8727 11.7997 24.8727 11.7815 25.8908C11.7633 26.6363 11.2906 27.0727 10.5269 27.0908C10.1451 27.0908 9.76331 27.0908 9.38149 27.0908C9.23603 27.0908 9.18149 27.0545 9.18149 26.909C9.18149 25.709 9.18149 24.5272 9.18149 23.3272C9.18149 23.1818 9.23603 23.1272 9.38149 23.1272C9.50876 23.1272 9.63603 23.1454 9.76331 23.1272C9.92694 23.109 9.98149 23.1818 9.96331 23.3454C9.96331 24.2908 9.96331 25.2181 9.96331 26.1636C9.96331 26.309 9.99967 26.3636 10.1451 26.3454C10.2179 26.3272 10.3088 26.3454 10.3815 26.3454C10.836 26.3454 10.9815 26.1817 10.9815 25.7272C10.9815 24.9454 10.9815 24.1454 10.9815 23.3636C10.9815 23.2181 10.9815 23.0727 10.9815 22.9454C10.9633 22.5818 10.7997 22.4181 10.436 22.4181C10.0906 22.4181 9.72694 22.4181 9.38149 22.4181C9.19967 22.4181 9.05422 22.3636 8.94513 22.2363C8.79967 22.0363 8.61785 21.8727 8.43604 21.6908Z" fill="#FEFDFD"/>
<path d="M25.9264 30.9454C25.9264 30.4545 25.9082 29.9454 25.9264 29.4545C25.9628 28.3999 26.9991 27.8363 27.9082 28.3454C28.3628 28.5999 28.5082 29.0363 28.5082 29.5272C28.5264 30.4726 28.5082 31.4363 28.5082 32.3817C28.5082 32.509 28.49 32.6363 28.4537 32.7454C28.29 33.4181 27.7809 33.7817 27.0537 33.709C26.3991 33.6545 25.9628 33.1817 25.9264 32.4908C25.9264 32.4363 25.9264 32.3817 25.9264 32.3272C25.9264 31.8726 25.9264 31.4181 25.9264 30.9454ZM26.7082 30.9636C26.7082 31.4363 26.7082 31.909 26.7082 32.3817C26.7082 32.6908 26.8355 32.8908 27.0718 32.9454C27.4355 33.0363 27.7082 32.8545 27.7082 32.4908C27.7446 31.4908 27.7264 30.4908 27.7082 29.4908C27.7082 29.4363 27.7082 29.3999 27.69 29.3454C27.6355 29.0726 27.4718 28.9272 27.1809 28.9272C26.8718 28.9272 26.69 29.1272 26.69 29.4908C26.69 29.9999 26.7082 30.4726 26.7082 30.9636Z" fill="#FEFAF8"/>
<path d="M11.5991 28.2363C11.9628 28.2363 12.3082 28.2363 12.6719 28.2363C12.9991 28.2363 13.3264 28.2363 13.6537 28.2363C14.3991 28.2363 14.8537 28.5817 14.9082 29.3272C14.981 30.4363 14.9991 31.5454 14.9082 32.6363C14.8537 33.2908 14.4173 33.6363 13.7628 33.6545C13.3446 33.6727 12.9446 33.6545 12.5264 33.6545C12.3991 33.6545 12.3628 33.5999 12.3628 33.4727C12.3628 32.2727 12.3628 31.0727 12.3628 29.8727C12.3628 29.7454 12.3991 29.6727 12.5446 29.6908C12.6719 29.6908 12.8173 29.6908 12.9446 29.6908C13.0901 29.6727 13.1446 29.7454 13.1446 29.8908C13.1446 30.8181 13.1446 31.7272 13.1446 32.6545C13.1446 32.909 13.1446 32.909 13.381 32.909C13.4537 32.909 13.5446 32.909 13.6173 32.909C13.981 32.909 14.1628 32.7454 14.1628 32.3817C14.1628 31.4181 14.1628 30.4727 14.1628 29.509C14.1628 29.1272 13.981 28.9636 13.5991 28.9636C13.2355 28.9636 12.8901 28.9636 12.5264 28.9636C12.381 28.9636 12.2537 28.9272 12.1446 28.8181C11.9628 28.6363 11.781 28.4545 11.5991 28.2727C11.581 28.2727 11.5991 28.2545 11.5991 28.2363Z" fill="#FEFDFD"/>
<path d="M20.8725 25.6727C21.0362 24.8 21.1816 24 21.3271 23.1818C21.418 22.7272 21.4907 22.2909 21.5816 21.8363C21.5998 21.6909 21.6725 21.6545 21.7998 21.6545C21.9271 21.6545 22.0543 21.6545 22.1634 21.6545C22.3271 21.6545 22.3452 21.7454 22.3271 21.8727C22.2362 22.3454 22.1452 22.8181 22.0543 23.2909C21.8362 24.4727 21.618 25.6363 21.3998 26.8181C21.3452 27.0909 21.3452 27.0909 21.0907 27.0909C20.8907 27.0909 20.6907 27.0909 20.4907 27.0909C20.3634 27.0909 20.3089 27.0545 20.2725 26.9272C19.9634 25.2363 19.6362 23.5636 19.3271 21.8727C19.2907 21.7272 19.3452 21.6727 19.4907 21.6545C20.0907 21.6363 20.0907 21.6363 20.1998 22.2363C20.3998 23.3272 20.5998 24.4 20.7998 25.4909C20.8362 25.5272 20.8543 25.5818 20.8725 25.6727Z" fill="#FEFAF8"/>
<path d="M22.8356 24.3818C22.8356 23.5454 22.8356 22.709 22.8356 21.8909C22.8356 21.7272 22.8902 21.6727 23.0538 21.6727C23.6902 21.6908 24.3447 21.6727 24.9811 21.6727C25.1265 21.6727 25.1993 21.709 25.1811 21.8727C25.1811 21.9818 25.1811 22.109 25.1811 22.2181C25.1811 22.3636 25.1447 22.4181 24.9811 22.4181C24.5811 22.4181 24.1811 22.4181 23.7811 22.4181C23.6538 22.4181 23.6174 22.4545 23.6174 22.5818C23.6174 22.9999 23.6356 23.3999 23.6174 23.8181C23.6174 23.9636 23.672 23.9999 23.7993 23.9818C24.1084 23.9818 24.3993 23.9818 24.7084 23.9818C24.8356 23.9818 24.8902 24.0363 24.8902 24.1636C24.8902 24.709 24.9084 24.709 24.3447 24.709C24.1447 24.709 23.9629 24.709 23.7629 24.709C23.6538 24.709 23.5993 24.7272 23.5993 24.8545C23.5993 25.309 23.5993 25.7636 23.5993 26.1999C23.5993 26.309 23.6356 26.3454 23.7447 26.3454C24.1447 26.3454 24.5265 26.3454 24.9265 26.3454C25.1084 26.3454 25.1811 26.3999 25.1629 26.5818C25.1447 26.6909 25.1629 26.8181 25.1629 26.9272C25.1629 27.0363 25.1265 27.0909 25.0175 27.0909C24.3447 27.0909 23.6538 27.0909 22.9811 27.0909C22.8174 27.0909 22.8174 26.9999 22.8174 26.8909C22.8356 26.0363 22.8356 25.1999 22.8356 24.3818Z" fill="#FEFAF8"/>
<path d="M20.1263 30.9636C20.1263 30.1272 20.1263 29.309 20.1263 28.4727C20.1263 28.2727 20.1808 28.2363 20.3627 28.2363C20.999 28.2545 21.6172 28.2545 22.2536 28.2363C22.4354 28.2363 22.4717 28.2908 22.4717 28.4545C22.4717 28.9817 22.4717 28.9817 21.9627 28.9817C21.6536 28.9817 21.3627 28.9817 21.0536 28.9817C20.9445 28.9817 20.9081 29.0181 20.9263 29.1272C20.9263 29.5636 20.9263 29.9999 20.9263 30.4181C20.9263 30.5272 20.9627 30.5454 21.0717 30.5454C21.3808 30.5454 21.7081 30.5454 22.0172 30.5454C22.1445 30.5454 22.2172 30.5999 22.199 30.7272C22.199 31.3999 22.2717 31.2727 21.6717 31.2908C21.4536 31.2908 21.2536 31.2908 21.0354 31.2908C20.9445 31.2908 20.9081 31.3272 20.9081 31.4181C20.9081 31.8727 20.9081 32.3272 20.9081 32.7817C20.9081 32.8908 20.9445 32.9272 21.0536 32.9272C21.4536 32.9272 21.8536 32.9272 22.2536 32.9272C22.399 32.9272 22.4717 32.9817 22.4536 33.1272C22.4536 33.2545 22.4536 33.3817 22.4536 33.509C22.4536 33.6181 22.4172 33.6727 22.2899 33.6727C21.6172 33.6727 20.9263 33.6727 20.2536 33.6727C20.0899 33.6727 20.0899 33.5817 20.0899 33.4545C20.1263 32.6181 20.1263 31.7817 20.1263 30.9636Z" fill="#FEFAF8"/>
<path d="M12.3819 24.3818C12.3819 23.5454 12.3819 22.709 12.3819 21.8727C12.3819 21.6909 12.4364 21.6545 12.6 21.6545C13.2364 21.6545 13.8728 21.6727 14.5091 21.6545C14.6909 21.6545 14.7455 21.7091 14.7273 21.8727C14.7091 21.9818 14.7273 22.109 14.7273 22.2181C14.7273 22.3454 14.6728 22.4 14.5455 22.3818C14.1455 22.3818 13.7273 22.3818 13.3273 22.3818C13.2 22.3818 13.1637 22.4181 13.1637 22.5454C13.1637 22.9636 13.1637 23.3818 13.1637 23.7818C13.1637 23.9091 13.2 23.9454 13.3273 23.9454C13.6364 23.9454 13.9455 23.9454 14.2546 23.9454C14.4 23.9454 14.4364 24 14.4364 24.1272C14.4546 24.6727 14.4546 24.6727 13.8909 24.6727C13.6909 24.6727 13.4909 24.6727 13.2909 24.6727C13.1819 24.6727 13.1455 24.709 13.1455 24.8181C13.1455 25.2727 13.1455 25.7272 13.1455 26.1636C13.1455 26.2727 13.1819 26.309 13.2909 26.309C13.6909 26.309 14.0728 26.309 14.4728 26.309C14.6364 26.309 14.7091 26.3454 14.6909 26.5272C14.6909 27.0545 14.6909 27.0545 14.1455 27.0545C13.6364 27.0545 13.1273 27.0545 12.6182 27.0545C12.3455 27.0545 12.3455 27.0545 12.3455 26.7818C12.3819 26 12.3819 25.1818 12.3819 24.3818Z" fill="#FEFAF8"/>
<path d="M30.1997 23.9454C30.3816 23.3999 30.5452 22.8909 30.7088 22.3636C30.7634 22.1636 30.8361 21.9818 30.8907 21.7818C30.927 21.6909 30.9816 21.6363 31.0725 21.6545C31.1997 21.6545 31.327 21.6545 31.4543 21.6545C31.6543 21.6545 31.6907 21.6909 31.6179 21.8909C31.327 22.7636 31.0543 23.6545 30.7452 24.5272C30.5997 24.9272 30.527 25.3454 30.5452 25.7636C30.5634 26.1454 30.5452 26.509 30.5452 26.8909C30.5452 27.0363 30.4907 27.0909 30.3452 27.0727C30.2179 27.0727 30.0725 27.0727 29.9452 27.0727C29.8179 27.0727 29.7634 27.0181 29.7634 26.8909C29.7634 26.4727 29.7452 26.0363 29.7634 25.6181C29.7816 25.2727 29.7088 24.9636 29.5997 24.6363C29.2907 23.7454 28.9997 22.8545 28.7088 21.9454C28.6179 21.6727 28.6361 21.6363 28.927 21.6363C29.4543 21.6363 29.4543 21.6363 29.5997 22.1272C29.7634 22.6545 29.927 23.1999 30.1088 23.7272C30.1452 23.7999 30.1634 23.8545 30.1997 23.9454Z" fill="#FEFDFD"/>
<path d="M23.7811 31.2909C23.7811 30.5818 23.7811 29.8545 23.7811 29.1454C23.7811 29.0182 23.7447 28.9818 23.6174 28.9818C23.4174 29 23.2174 28.9818 22.9993 28.9818C22.872 28.9818 22.8174 28.9454 22.8174 28.8182C22.8174 28.6909 22.8174 28.5454 22.8174 28.4182C22.8174 28.2909 22.872 28.2545 22.9993 28.2545C23.7811 28.2545 24.5447 28.2545 25.3265 28.2545C25.4538 28.2545 25.5265 28.2909 25.5084 28.4363C25.5084 28.5636 25.5084 28.6909 25.5084 28.8182C25.5084 28.9454 25.472 29 25.3447 29C25.1447 29 24.9447 29 24.7265 29C24.5811 28.9818 24.5629 29.0363 24.5629 29.1818C24.5629 30.5818 24.5629 32 24.5629 33.4C24.5629 33.6909 24.5629 33.6909 24.272 33.6909C24.1811 33.6909 24.0902 33.6909 23.9993 33.6909C23.8174 33.7091 23.7629 33.6363 23.7629 33.4545C23.7811 32.7272 23.7811 32 23.7811 31.2909Z" fill="#FEFAF8"/>
<path d="M15.3088 24.3636C15.3088 23.5454 15.3088 22.7091 15.3088 21.8909C15.3088 21.7091 15.3634 21.6545 15.527 21.6727C15.6361 21.6909 15.7452 21.6727 15.8361 21.6727C16.0906 21.6727 16.0906 21.6727 16.0906 21.9091C16.0906 22.8182 16.0906 23.7273 16.0906 24.6364C16.0906 25.1636 16.0906 25.6727 16.0906 26.2C16.0906 26.3273 16.127 26.3636 16.2543 26.3636C16.6361 26.3636 16.9997 26.3636 17.3815 26.3636C17.527 26.3636 17.5634 26.4182 17.5634 26.5636C17.5634 27.1091 17.5634 27.1091 17.0179 27.1091C16.527 27.1091 16.0361 27.1091 15.5452 27.1091C15.2906 27.1091 15.2906 27.1091 15.2906 26.8727C15.3088 26 15.3088 25.1818 15.3088 24.3636Z" fill="#FEFDFD"/>
<path d="M18.054 24.3818C18.054 23.5636 18.054 22.7273 18.054 21.9091C18.054 21.6909 18.0721 21.6727 18.2903 21.6727C18.3994 21.6727 18.5267 21.6727 18.6358 21.6727C18.7994 21.6545 18.854 21.7273 18.854 21.8909C18.854 23.5636 18.854 25.2182 18.854 26.8909C18.854 27.0545 18.7994 27.1091 18.6358 27.1091C18.5085 27.0909 18.363 27.1091 18.2358 27.1091C18.0721 27.1273 18.054 27.0363 18.054 26.9091C18.054 26.3454 18.054 25.7818 18.054 25.2182C18.054 24.9091 18.054 24.6545 18.054 24.3818Z" fill="#FEFAF8"/>
<path d="M16.3085 30.9635C16.3085 31.7817 16.3085 32.5999 16.3085 33.3999C16.3085 33.6545 16.3085 33.6545 16.0357 33.6545C15.9266 33.6545 15.7994 33.6545 15.6903 33.6545C15.563 33.6545 15.5266 33.5999 15.5266 33.4726C15.5266 31.7817 15.5266 30.0908 15.5266 28.3999C15.5266 28.2545 15.5812 28.2181 15.7085 28.2181C15.8357 28.2181 15.9812 28.2363 16.1085 28.2181C16.2721 28.1999 16.3085 28.2726 16.3085 28.4181C16.3085 29.2908 16.3085 30.1272 16.3085 30.9635Z" fill="#FEFDFD"/>
<path d="M27.5082 23.2545C27.5082 23.3999 27.5086 23.5449 27.4904 23.6903C27.454 23.9266 27.3268 24.072 27.0905 24.0902C26.5634 24.1629 26.5634 24.1629 26.5634 23.6358C26.5634 23.2723 26.5634 22.8906 26.5634 22.5271C26.5634 22.4181 26.5998 22.3635 26.7088 22.3817C26.8179 22.3999 26.9451 22.3817 27.0542 22.3817C27.3086 22.3999 27.454 22.5271 27.4904 22.7816C27.4904 22.9452 27.4901 23.1091 27.5082 23.2545Z" fill="#FE6300"/>
<path d="M26.7082 30.9636C26.7082 30.4726 26.7085 29.9818 26.7085 29.4909C26.7085 29.1272 26.8903 28.9272 27.1994 28.9272C27.4722 28.9272 27.654 29.0545 27.7085 29.3454C27.7085 29.4 27.7267 29.4363 27.7267 29.4909C27.7449 30.4909 27.7631 31.4909 27.7267 32.4909C27.7085 32.8545 27.454 33.0363 27.0903 32.9454C26.8722 32.8909 26.7267 32.6909 26.7267 32.3818C26.7085 31.9272 26.7082 31.4363 26.7082 30.9636Z" fill="#FE6300"/>
<path d="M18.6905 29.836C18.6905 29.9814 18.6905 30.1268 18.6723 30.2722C18.636 30.5085 18.5088 30.6539 18.2725 30.6721C17.7454 30.7448 17.7454 30.7448 17.7454 30.2177C17.7454 29.8542 17.7454 29.4725 17.7454 29.109C17.7454 29 17.7814 28.9454 17.8904 28.9636C17.9995 28.9818 18.1268 28.9636 18.2359 28.9636C18.4903 28.9818 18.636 29.109 18.6723 29.3635C18.6905 29.5452 18.6905 29.6906 18.6905 29.836Z" fill="#FE6300"/>
</svg>
