<svg width="40" height="40" viewBox="0 0 40 40" fill="none" xmlns="http://www.w3.org/2000/svg">
<rect width="40" height="40" fill="#33B8B1"/>
<path d="M23.8658 9.09091L22.9694 18.7118L21.4407 10.6012L16.645 11.7522L18.1737 19.862L11.2561 21.5184L12.4794 27.997L24.6398 30.9091L27.422 23.8705L28.7427 9.67156L23.8658 9.09091ZM20.0241 23.0471C19.7725 23.3076 19.4398 23.2832 19.0886 23.1497C18.7374 23.0161 18.5802 22.538 18.713 21.9603C18.8134 21.5302 19.2789 21.4668 19.5121 21.4608C19.6017 21.4583 19.6904 21.4792 19.7696 21.5213C19.9363 21.6062 20.2122 21.7847 20.272 22.0599C20.3539 22.4539 20.275 22.7867 20.0241 23.0471ZM23.5449 23.4898C23.3604 23.8469 22.8809 23.8926 22.4124 23.6374C22.0944 23.4618 22.0981 23.0169 22.1342 22.7446C22.1516 22.5988 22.2046 22.4594 22.2884 22.3388C22.4005 22.178 22.5909 21.9662 22.8093 21.9603C22.9809 21.953 23.151 21.9957 23.2988 22.0834C23.4466 22.171 23.5657 22.2998 23.6415 22.4539C23.8142 22.7778 23.7293 23.1349 23.5449 23.492V23.4898Z" fill="white"/>
</svg>
