<svg width="40" height="40" viewBox="0 0 40 40" fill="none" xmlns="http://www.w3.org/2000/svg">
<rect width="40" height="40" fill="white"/>
<path d="M28.2211 9.72628C24.7898 8.40656 21.0946 9.37435 18.8071 11.9258L9.74502 21.5158C9.65704 21.6037 9.65704 21.7797 9.833 21.8677L12.2085 22.0436C12.3845 22.0436 12.3845 22.2196 12.2965 22.3076L6.48972 28.5543C6.40173 28.6422 6.48972 28.8182 6.66568 28.8182L15.0239 26.1788C15.1999 26.0908 15.3758 26.2667 15.2878 26.4427L14.1441 28.3783C14.0561 28.4663 14.2321 28.6422 14.32 28.6422L26.3735 26.0028C29.2768 25.5629 31.8283 23.6273 32.9721 20.7239C34.6437 16.3249 32.5322 11.3979 28.2211 9.72628ZM29.5408 18.3484L26.8134 19.4922H26.7254L26.1095 22.4836C26.0215 22.5715 25.9336 22.5715 25.8456 22.4836L23.91 20.196L12.8244 24.947C12.8244 24.947 12.7364 24.947 12.7364 24.859V24.7711L22.3263 17.6446L21.0946 14.9172C21.0066 14.8292 21.1826 14.6532 21.2706 14.6532L24.1739 15.3571L26.4614 13.3335C26.5494 13.2455 26.7254 13.3335 26.7254 13.4215L26.9893 16.5008L29.6288 17.9965C29.7167 18.1725 29.6288 18.3484 29.5408 18.3484Z" fill="#F52F41"/>
</svg>
