<svg width="40" height="40" viewBox="0 0 40 40" fill="none" xmlns="http://www.w3.org/2000/svg">
<rect width="40" height="40" fill="#FF3008"/>
<path d="M31.8469 16.189C31.2907 15.1385 30.4573 14.2605 29.4373 13.6502C28.4173 13.04 27.2495 12.7208 26.0609 12.7274H7.76504C7.6809 12.729 7.59797 12.7478 7.52137 12.7826C7.44478 12.8175 7.37613 12.8676 7.31967 12.93C7.26321 12.9925 7.22013 13.0658 7.19308 13.1455C7.16604 13.2251 7.15561 13.3095 7.16243 13.3934C7.17478 13.5629 7.24519 13.7229 7.36179 13.8465L11.3535 17.8383C11.5295 18.0103 11.7379 18.1457 11.9665 18.2366C12.1952 18.3276 12.4396 18.3724 12.6856 18.3684H25.5897C26.0307 18.3684 26.4537 18.5436 26.7655 18.8554C27.0774 19.1673 27.2525 19.5902 27.2525 20.0312C27.2525 20.4722 27.0774 20.8952 26.7655 21.207C26.4537 21.5189 26.0307 21.6941 25.5897 21.6941H16.6774C16.5984 21.6935 16.5202 21.7085 16.4471 21.7383C16.374 21.7681 16.3075 21.812 16.2515 21.8676C16.1955 21.9232 16.1511 21.9894 16.1207 22.0622C16.0904 22.1351 16.0748 22.2132 16.0748 22.2922C16.0852 22.463 16.1577 22.6241 16.2787 22.7452L20.2659 26.737C20.6217 27.0843 21.1007 27.2766 21.598 27.2716H25.5897C30.7821 27.3623 34.7739 21.7756 31.8469 16.189Z" fill="white"/>
</svg>
