<svg width="40" height="40" viewBox="0 0 40 40" fill="none" xmlns="http://www.w3.org/2000/svg">
<rect width="40" height="40" fill="black"/>
<path d="M26.2163 26.8309C26.1449 26.6595 26.0735 26.4953 26.0092 26.3239C25.8592 25.9525 25.6878 25.5954 25.3379 25.3526C25.3664 25.3098 25.3736 25.2955 25.3879 25.2812C25.7949 24.8813 25.9878 24.3599 26.2234 23.86C26.2806 23.7458 26.2377 23.6886 26.1092 23.6743C26.0735 23.6672 26.0306 23.6743 25.9949 23.6743C25.7735 23.6743 25.5521 23.6815 25.3379 23.6743C25.1094 23.6672 24.9594 23.7529 24.8665 23.96C24.7737 24.1671 24.6594 24.3742 24.5595 24.5813C24.4809 24.7384 24.3595 24.8313 24.1881 24.8598C23.9881 24.8956 23.9238 24.8384 23.9238 24.6313C23.9238 24.617 23.9238 24.5956 23.9238 24.5813C23.9238 24.11 23.931 23.6386 23.9167 23.1673C23.8953 22.5246 23.4454 22.246 22.9097 22.2603C22.7741 22.2603 22.7169 22.3246 22.7098 22.4603C22.7098 22.4888 22.7098 22.5174 22.7098 22.5388C22.7098 23.8386 22.7098 25.1384 22.7098 26.4381C22.7098 26.6095 22.7098 26.7809 22.7169 26.9523C22.7169 27.0737 22.7741 27.1309 22.8955 27.138C23.1883 27.1452 23.4739 27.1452 23.7667 27.138C23.8739 27.138 23.9167 27.088 23.931 26.9809C23.9381 26.9095 23.9381 26.8309 23.9381 26.7524C23.9381 26.5238 23.9381 26.3024 23.9381 26.0739C23.9381 25.9454 23.9667 25.9239 24.0881 25.9168C24.3309 25.9025 24.5237 25.9811 24.6309 26.2096C24.6594 26.2739 24.6951 26.3382 24.7166 26.3953C24.788 26.5595 24.8594 26.7167 24.9237 26.8881C24.9951 27.0666 25.1094 27.1523 25.3022 27.138C25.4593 27.1309 25.6164 27.138 25.7664 27.138C25.8949 27.138 26.0235 27.138 26.152 27.138C26.252 27.1309 26.2877 27.088 26.2663 26.9952C26.2591 26.9309 26.2377 26.8809 26.2163 26.8309Z" fill="#7EC242"/>
<path d="M29.4731 23.5815C29.1518 23.5387 28.8947 23.6529 28.6519 23.8243C28.6162 23.81 28.5804 23.7886 28.5519 23.7743C28.2091 23.5744 27.8306 23.5244 27.4449 23.5815C26.388 23.7386 25.7167 24.767 25.988 25.7954C26.2809 26.8952 27.4949 27.438 28.509 26.9309C28.6162 26.8809 28.6876 26.8738 28.7804 26.9452C28.959 27.0666 29.1589 27.1095 29.3732 27.1237C29.4446 27.1309 29.4874 27.1095 29.4874 27.0309C29.4874 27.0023 29.4874 26.9738 29.4874 26.9523C29.4874 25.8811 29.4874 24.817 29.4874 23.7458C29.4803 23.6886 29.4731 23.6386 29.4731 23.5815ZM27.702 25.8954C27.3878 25.8954 27.1378 25.6383 27.145 25.3312C27.1521 25.017 27.4021 24.7742 27.7163 24.7742C28.0305 24.7742 28.2519 25.0027 28.2519 25.3312C28.2448 25.6669 28.0163 25.8954 27.702 25.8954Z" fill="#7EC242"/>
<path d="M14.8551 23.8101C13.9409 23.2887 12.984 23.6244 12.5198 24.2028C11.9984 24.8527 11.977 25.7454 12.4698 26.4096C12.7126 26.731 13.0268 26.9595 13.4196 27.0666C13.9195 27.2095 14.398 27.1309 14.8479 26.8667C15.0979 27.0523 15.3693 27.138 15.6692 27.1238C15.7049 26.9166 15.6978 23.6744 15.6621 23.553C15.355 23.5387 15.0907 23.6315 14.8551 23.8101ZM13.9124 25.8883C13.6053 25.8883 13.3553 25.6454 13.3553 25.3455C13.3553 25.0384 13.6053 24.7956 13.9052 24.7885C14.2052 24.7885 14.4266 25.0098 14.4337 25.3169C14.4409 25.6383 14.2195 25.8883 13.9124 25.8883Z" fill="white"/>
<path d="M21.5815 23.8243C21.5386 23.8029 21.5029 23.7815 21.4672 23.7672C21.1173 23.5744 20.7388 23.5244 20.3602 23.5886C19.6747 23.7029 19.1962 24.0957 18.9676 24.7527C18.7391 25.4098 18.8605 26.0168 19.3247 26.5381C19.7246 26.9809 20.2388 27.1809 20.8387 27.1094C21.0673 27.088 21.2815 27.0166 21.4743 26.9095C21.5457 26.8738 21.5957 26.8809 21.6672 26.9166C21.7886 26.9809 21.9171 27.0452 22.0457 27.0809C22.1528 27.1094 22.2742 27.1452 22.3813 27.1023C22.417 26.8666 22.4027 23.7029 22.367 23.5744C22.0814 23.5458 21.8314 23.6529 21.5815 23.8243ZM20.6531 25.8954C20.4031 25.9168 20.096 25.7097 20.0889 25.3455C20.0817 25.0384 20.3388 24.7813 20.6531 24.7813C20.9673 24.7813 21.1958 25.0098 21.1958 25.3312C21.1887 25.6597 20.9601 25.8954 20.6531 25.8954Z" fill="#7EC242"/>
<path d="M23.8311 20.0179C23.8739 19.9393 23.9096 19.8536 23.9525 19.7608C25.088 19.9822 26.1949 20.2821 27.2876 20.6392C27.2947 20.6321 27.2947 20.6178 27.3019 20.6106C27.259 20.5821 27.2162 20.5535 27.1662 20.5392C26.7734 20.375 26.3949 20.1893 25.995 20.0607C25.2308 19.8179 24.4524 19.6037 23.6811 19.3752C23.6168 19.3537 23.5525 19.3252 23.474 19.2966C23.5668 19.0966 23.6525 18.911 23.7382 18.7253C23.9239 18.3539 24.1167 17.9897 24.2953 17.6183C24.4238 17.3469 24.5452 17.0756 24.6738 16.797C24.738 16.6471 24.7452 16.6256 24.7452 16.5042C24.1024 17.5469 23.3811 18.5182 22.6884 19.518C22.5884 19.5108 22.5027 19.4966 22.4099 19.4894C22.4099 19.6608 22.467 19.7537 22.5741 19.7822C22.6313 19.7965 22.7098 19.8108 22.7598 19.7822C22.8384 19.7394 22.9098 19.668 23.0026 19.5894C23.0526 19.5965 23.124 19.6108 23.2169 19.6323C23.0526 19.9179 22.8455 20.0822 22.517 20.0536C22.1099 20.0179 21.9171 19.7679 21.86 19.3823C21.7814 19.3752 21.7171 19.368 21.6457 19.3609C21.1744 19.2966 20.703 19.218 20.2246 19.1752C19.6389 19.1181 19.0605 19.0823 18.4749 19.0609C17.6679 19.0252 16.868 19.0824 16.0682 19.1752C15.1683 19.2823 14.2756 19.4537 13.4043 19.6965C12.5973 19.9251 11.8189 20.2321 11.1119 20.6963C11.069 20.7249 11.0262 20.7535 10.9833 20.782C11.5261 20.5964 12.0617 20.3893 12.5973 20.1964C13.2401 19.975 14.0757 19.7822 14.2685 19.8108C13.7971 19.9536 13.3544 20.1107 12.9473 20.3607C13.4758 20.1893 14.0042 20.025 14.547 19.9036C14.5898 19.9822 14.6256 20.0393 14.6613 20.0965C15.1112 20.8463 16.161 21.0463 16.868 20.3821C17.0965 20.1679 17.2394 19.8965 17.2894 19.5894C17.3036 19.5037 17.3394 19.468 17.4251 19.4609C17.5393 19.4537 17.6464 19.4394 17.7607 19.4323C18.3535 19.3894 18.9534 19.368 19.5461 19.3823C20.0317 19.3894 20.5245 19.3966 21.0101 19.3966C21.1315 19.3966 21.1387 19.4037 21.1458 19.5251C21.2101 20.1536 21.7386 20.7892 22.5813 20.782C23.1383 20.782 23.5597 20.5178 23.8311 20.0179ZM16.0253 20.0393C15.7396 20.0893 15.4968 20.025 15.3183 19.7822C15.4183 19.718 16.3038 19.5751 16.5395 19.5823C16.4324 19.8108 16.2967 19.9965 16.0253 20.0393Z" fill="white"/>
<path d="M34.9004 25.5812C35.3075 25.4884 35.5503 25.2313 35.6003 24.8028C35.6431 24.4028 35.5003 24.0386 35.1361 23.8315C34.7933 23.6387 34.4362 23.5458 34.0434 23.5744C33.7006 23.603 33.3793 23.703 33.1079 23.9172C32.7294 24.2171 32.5365 24.6099 32.4651 25.0813C32.3009 26.1311 33.0722 26.9167 33.8006 27.0738C34.2505 27.1738 34.6933 27.1381 35.1432 27.0524C35.2432 27.0309 35.3432 27.0166 35.4432 26.9881C35.5646 26.9524 35.6289 26.8881 35.6074 26.781C35.5574 26.5382 35.5003 26.2882 35.4289 26.0454C35.4003 25.9383 35.3432 25.9168 35.2289 25.9383C35.1004 25.9668 34.9718 26.0025 34.8361 26.0311C34.5862 26.0811 34.3362 26.1097 34.0863 26.0454C33.9363 26.0097 33.8292 25.924 33.772 25.7526C33.8292 25.7454 33.8649 25.7454 33.9006 25.7383C34.2362 25.6883 34.5719 25.6526 34.9004 25.5812ZM33.7149 24.9599C33.6863 24.5885 33.9863 24.3386 34.2934 24.46C34.3362 24.4742 34.3791 24.5028 34.4148 24.5314C34.5505 24.6456 34.529 24.8028 34.3719 24.8813C34.3434 24.8956 34.3148 24.9099 34.2791 24.917C34.1006 24.9313 33.9149 24.9456 33.7149 24.9599Z" fill="#7EC242"/>
<path d="M18.7327 26.6453C18.697 26.4739 18.6684 26.3096 18.6256 26.1382C18.5899 25.9739 18.5542 25.9525 18.3899 25.9668C18.3399 25.9739 18.2971 25.9811 18.2471 25.9882C18.1114 26.0025 17.9828 26.0239 17.8471 26.0382C17.6186 26.0525 17.5686 26.0097 17.5686 25.7811C17.5686 25.4883 17.5686 25.1884 17.5686 24.8956C17.5686 24.8242 17.5686 24.7599 17.5686 24.6813C17.6829 24.6742 17.7757 24.667 17.8686 24.6599C18.2899 24.6242 18.6327 24.3028 18.6256 23.7815C18.6256 23.6172 18.5613 23.5601 18.3971 23.5529C18.2542 23.5458 18.1185 23.5529 17.9757 23.5529C17.84 23.5529 17.7115 23.5529 17.5686 23.5529C17.5686 23.4815 17.5615 23.4315 17.5615 23.3815C17.5615 23.2102 17.5615 23.0388 17.5615 22.8674C17.5543 22.7174 17.4972 22.6388 17.3687 22.6317C16.9116 22.6103 16.426 22.7674 16.2974 23.3673C16.2831 23.4315 16.2617 23.4887 16.2474 23.5529C16.1617 23.5529 16.0832 23.5458 16.0118 23.5529C15.8832 23.5601 15.8261 23.6172 15.8189 23.7458C15.8118 23.9886 15.8118 24.2314 15.8189 24.4671C15.8189 24.6028 15.8689 24.6456 16.0046 24.6599C16.0832 24.667 16.1617 24.667 16.2689 24.6742C16.2689 24.7456 16.2689 24.8027 16.2689 24.867C16.2689 25.2384 16.2689 25.6097 16.2831 25.9811C16.3046 26.5453 16.6474 26.9666 17.1901 27.1095C17.3401 27.1452 17.4972 27.1666 17.6472 27.1809C17.9614 27.2023 18.2685 27.1594 18.5684 27.0737C18.7398 27.0309 18.7756 26.9666 18.747 26.7881C18.7541 26.7452 18.747 26.6952 18.7327 26.6453Z" fill="white"/>
<path d="M32.4018 26.2525C32.3518 25.9954 32.3875 25.9454 32.009 26.0025C31.8447 26.0311 31.6804 26.0454 31.5162 26.0525C31.4091 26.0596 31.3519 25.9954 31.3305 25.8882C31.3234 25.8597 31.3234 25.824 31.3234 25.7954C31.3234 25.4669 31.3234 25.1384 31.3234 24.8099C31.3234 24.767 31.3305 24.7242 31.3377 24.667C31.4448 24.6599 31.5448 24.6599 31.6447 24.6456C32.1375 24.5956 32.3875 24.2171 32.3803 23.7672C32.3803 23.6244 32.316 23.5672 32.1661 23.5672C32.0304 23.5672 31.8947 23.5672 31.7661 23.5672C31.6305 23.5672 31.4876 23.5672 31.3234 23.5672C31.3234 23.4815 31.3234 23.4244 31.3234 23.3601C31.3234 23.1959 31.3305 23.0245 31.3234 22.8602C31.3162 22.7031 31.252 22.6388 31.0877 22.6388C31.0091 22.6388 30.9306 22.6531 30.8449 22.6602C30.4378 22.7174 30.1879 22.9459 30.0879 23.3458C30.0379 23.5601 30.0379 23.5601 29.8094 23.5672C29.6594 23.5744 29.6094 23.6244 29.6094 23.7743C29.6022 24.0029 29.6022 24.2242 29.6094 24.4528C29.6094 24.6028 29.6594 24.6385 29.8022 24.6527C29.8808 24.6599 29.9593 24.6599 30.045 24.667C30.0522 24.767 30.0593 24.8527 30.0593 24.9384C30.0593 25.2598 30.0593 25.5811 30.0665 25.9025C30.0807 26.5524 30.4235 26.9738 31.052 27.1166C31.4948 27.2166 31.9375 27.1737 32.3732 27.0452C32.516 27.0023 32.5446 26.938 32.516 26.7738C32.4732 26.6024 32.4375 26.431 32.4018 26.2525Z" fill="#7EC242"/>
<path d="M16.9259 15.7972C19.2041 15.4687 21.4894 15.4544 23.7818 15.6829C23.7461 15.6615 23.7104 15.6401 23.6675 15.6329C23.4961 15.5901 23.3247 15.5401 23.1534 15.5044C22.6249 15.3901 22.0821 15.3401 21.5394 15.2973C20.5038 15.2187 19.4754 15.1616 18.4328 15.1973C17.1687 15.2401 15.9118 15.333 14.6691 15.5401C14.4049 15.5829 14.1407 15.6472 13.8836 15.7043C13.7622 15.7329 13.7479 15.7615 13.7979 15.8686C13.8407 15.9614 13.8907 16.0614 13.9407 16.1543C14.1764 16.1257 14.3835 16.0543 14.612 16.0829" fill="white"/>
<path d="M16.8541 15.8043C16.897 15.8043 16.9469 15.7972 16.9898 15.7972C17.0541 15.7972 17.0755 15.7972 17.1183 15.7972C17.8539 15.7543 18.5895 15.7258 19.3251 15.7615C19.7465 15.7829 20.1749 15.7829 20.5963 15.8043C20.9248 15.8186 21.2605 15.8615 21.589 15.89C22.2032 15.9329 22.8031 16.0686 23.4101 16.19C23.4744 16.2043 23.5458 16.2257 23.6101 16.24C23.6101 16.2471 23.6101 16.2471 23.6101 16.2543C23.253 16.2186 22.903 16.1828 22.546 16.1543C22.3603 16.14 22.1746 16.1186 21.9818 16.1186C21.1605 16.09 20.3392 16.0614 19.5179 16.04C19.1608 16.0329 18.8109 16.0329 18.4538 16.0472C18.0396 16.0686 17.6183 16.0971 17.204 16.1329C16.7756 16.1757 16.3471 16.2114 15.9257 16.2757C15.4044 16.3542 14.8973 16.4685 14.376 16.5685C14.2189 16.5971 14.226 16.6042 14.1474 16.4685C14.1189 16.4185 14.0903 16.3685 14.0617 16.3114C14.0546 16.3042 14.0546 16.29 14.0475 16.2543C14.1974 16.2043 14.3474 16.1543 14.5045 16.1043C14.5759 16.0829 14.6545 16.0614 14.7331 16.0472C15.0401 16.0114 15.89 15.8758 16.8541 15.8043Z" fill="#7EC242"/>
<path d="M14.126 13.1477C14.2259 12.205 14.3688 11.2766 14.9187 10.4625C14.4973 11.5551 14.3759 12.6763 14.6116 13.8333C14.6187 13.7761 14.6116 13.719 14.6044 13.6619C14.583 12.962 14.6401 12.2693 14.8401 11.5908C15.0829 10.741 15.5186 10.0054 16.2113 9.44121C17.0754 8.74133 18.0967 8.44853 19.1893 8.36997C19.3465 8.35569 19.5107 8.35569 19.6678 8.34855C18.668 8.14858 17.7039 8.31998 16.7683 8.69134C17.4111 8.26999 18.1252 8.10573 18.8751 8.04146C18.4966 8.02718 18.1181 8.03432 17.7396 8.09859C16.904 8.24142 16.1613 8.56994 15.5257 9.12698C14.7187 9.834 14.2688 10.7338 14.1402 11.7908C14.0902 12.205 14.1117 12.6264 14.1045 13.0477C14.1045 13.0763 14.1188 13.112 14.126 13.1477Z" fill="#7EC242"/>
<path d="M23.1029 16.7185C22.3459 16.5471 21.5746 16.4399 20.7961 16.3899C20.1891 16.3471 19.5749 16.3257 18.9608 16.3257C18.3894 16.3257 17.811 16.3542 17.2396 16.3828C16.8968 16.3971 16.554 16.4185 16.2113 16.4614C15.7256 16.5256 15.2471 16.6042 14.7687 16.6827C14.633 16.7042 14.5044 16.747 14.3473 16.7827C14.3973 16.8756 14.433 16.947 14.4758 17.0113C14.5044 17.0684 14.5544 17.0755 14.6115 17.0613C14.8544 17.0113 15.0972 16.9613 15.34 16.9256C15.6971 16.8613 16.0613 16.797 16.4184 16.7542C16.7897 16.7113 17.1611 16.6827 17.5396 16.6542C17.9966 16.6185 18.4609 16.5685 18.9179 16.5685C19.7892 16.5613 20.6676 16.5828 21.5389 16.597C21.696 16.597 21.846 16.6185 22.0031 16.6328C22.3887 16.6685 22.7672 16.7113 23.1886 16.7542C23.1386 16.7327 23.1243 16.7256 23.1029 16.7185Z" fill="#ED2A91"/>
<path d="M18.7032 16.8827C17.3391 16.897 14.9253 17.147 14.6539 17.3041C14.661 17.3255 14.6753 17.3541 14.6896 17.3755C14.8039 17.5612 14.761 17.5897 15.0253 17.5398C15.4109 17.4683 15.8037 17.3898 16.1965 17.3398C16.6178 17.2827 17.0392 17.2398 17.4605 17.2041C18.0819 17.1541 18.7032 17.1041 19.3245 17.0898C19.9244 17.0755 20.5243 17.1041 21.1242 17.1184C21.3313 17.1255 21.5384 17.147 21.7526 17.1612C22.0883 17.1898 22.4239 17.2184 22.7596 17.2398C22.3454 17.0755 19.9315 16.8684 18.7032 16.8827Z" fill="#7EC242"/>
<path d="M14.9112 17.8111C14.9755 17.904 15.0254 17.9897 15.0754 18.0611C17.475 17.5897 19.8817 17.5897 22.2956 17.704C19.8317 17.3469 17.3822 17.3112 14.9112 17.8111Z" fill="white"/>
<path d="M18.5462 17.9968C17.4393 18.0182 16.3466 18.1253 15.2468 18.3182C15.3468 18.5396 15.3539 18.5467 15.5539 18.4967C15.9895 18.3967 16.4252 18.3396 16.8679 18.2967C17.1679 18.2682 17.4678 18.2468 17.7678 18.2253C18.232 18.1896 18.6962 18.1539 19.1604 18.1396C19.5603 18.1253 19.9531 18.1253 20.353 18.1396C20.8529 18.1539 21.3529 18.1825 21.8813 18.2039C20.753 18.0325 19.6532 17.9754 18.5462 17.9968Z" fill="#ED2A91"/>
<path d="M18.5965 9.99109C18.6251 9.9411 18.6608 9.89111 18.6965 9.84112C18.4108 9.97681 18.1823 10.1625 18.0823 10.4624C18.018 10.641 18.0395 10.8195 18.1252 10.9909C18.2037 11.1409 18.3251 11.2552 18.4751 11.3408C18.5751 11.398 18.6893 11.448 18.7893 11.5122C18.9107 11.5908 19.0321 11.6694 19.1393 11.7693C19.275 11.8979 19.3107 12.055 19.275 12.2407C19.2392 12.3978 19.175 12.5335 19.0821 12.662C19.0321 12.7335 18.975 12.8049 18.925 12.8834C19.0964 12.8263 19.2178 12.7192 19.3321 12.5906C19.6606 12.2121 19.632 11.7479 19.2535 11.4194C19.1321 11.3123 18.9821 11.2337 18.8393 11.1409C18.7393 11.0766 18.6322 11.0266 18.5394 10.9552C18.3608 10.8124 18.3037 10.6267 18.3894 10.4053C18.4322 10.2553 18.5179 10.1268 18.5965 9.99109Z" fill="white"/>
<path d="M15.5186 18.8252C15.6114 19.0252 15.64 19.0395 15.8185 19.0109C16.2256 18.9466 16.6327 18.8681 17.0469 18.8252C17.5682 18.7752 18.0967 18.7324 18.618 18.7181C19.5107 18.6967 20.4034 18.711 21.289 18.7038C21.3318 18.7038 21.3747 18.6967 21.4175 18.6967C19.4536 18.461 17.4897 18.511 15.5186 18.8252Z" fill="white"/>
<path d="M18.4822 12.5689C18.4108 12.6831 18.3323 12.7902 18.2895 12.9187C18.1895 13.19 18.2895 13.447 18.5393 13.5969C18.6678 13.6754 18.8035 13.7111 18.9605 13.704C18.9034 13.6683 18.8392 13.6397 18.782 13.5969C18.4536 13.3827 18.3537 13.1471 18.625 12.7973C18.6964 12.6974 18.7749 12.6046 18.8392 12.4975C18.932 12.3404 18.9605 12.1691 18.8748 11.9906C18.7749 11.7836 18.4751 11.6265 18.2181 11.6551C18.268 11.6908 18.318 11.7193 18.3537 11.7479C18.4251 11.7979 18.4965 11.8478 18.5536 11.905C18.6964 12.0406 18.7178 12.1762 18.625 12.3547C18.5822 12.4332 18.525 12.4975 18.4822 12.5689Z" fill="white"/>
<path d="M19.3249 9.77653C19.432 9.58378 19.4463 9.38389 19.3106 9.20542C19.1679 9.01266 18.9537 8.94841 18.7181 8.94841C18.7467 8.96983 18.7752 8.99125 18.8038 9.01266C18.8823 9.06977 18.968 9.11975 19.0394 9.184C19.2036 9.33392 19.2178 9.46956 19.1108 9.65517C19.0608 9.74084 18.9894 9.81937 18.9394 9.90503C18.8823 10.005 18.8109 10.1049 18.7824 10.2192C18.661 10.6189 18.9823 11.0044 19.432 10.983C19.3749 10.9473 19.3321 10.9188 19.2892 10.8902C18.9823 10.6975 18.8395 10.4619 19.1322 10.0764C19.1893 9.98356 19.2607 9.88362 19.3249 9.77653Z" fill="white"/>
<path d="M9.88432 23.2173C10.02 23.2173 10.1557 23.2173 10.2843 23.2173C10.7556 23.2173 11.2269 23.2173 11.6983 23.2173C11.8982 23.2173 11.9554 23.1601 11.9554 22.953C11.9554 22.7531 11.9554 22.5531 11.9554 22.3603C11.9554 22.346 11.9554 22.3389 11.9554 22.3246C11.9482 22.1317 11.8911 22.0818 11.6983 22.0818C11.684 22.0818 11.6769 22.0818 11.6626 22.0818C9.73435 22.0889 7.80612 22.0889 5.87789 22.096C5.84219 22.096 5.79934 22.096 5.76363 22.096C5.62794 22.1103 5.54938 22.196 5.54938 22.3317C5.54938 22.4745 5.6208 22.546 5.76363 22.5602C5.82076 22.5674 5.88504 22.5674 5.94217 22.5674C6.36352 22.5745 6.79202 22.5745 7.21337 22.5817C7.27764 22.5817 7.34192 22.5817 7.40619 22.6031C7.55617 22.6388 7.64186 22.7602 7.64186 22.9102C7.64186 23.0602 7.55617 23.1673 7.39905 23.2101C7.3562 23.2244 7.30621 23.2244 7.25622 23.2244C7.04911 23.2244 6.83487 23.2316 6.62776 23.2316C6.57063 23.2316 6.50635 23.2387 6.44922 23.2458C6.30639 23.2744 6.24926 23.3458 6.24926 23.4744C6.24926 23.6101 6.30639 23.6886 6.44922 23.7172C6.50635 23.7315 6.56349 23.7243 6.62776 23.7315C7.05626 23.7315 7.48475 23.7315 7.91324 23.7386C7.98466 23.7386 8.06322 23.7529 8.13463 23.7743C8.26318 23.8243 8.32746 23.9386 8.32031 24.0814C8.31317 24.2099 8.23462 24.3099 8.09893 24.3456C8.03465 24.3599 7.97038 24.3671 7.9061 24.3671C7.29907 24.3742 6.69203 24.3742 6.085 24.3813C5.97788 24.3813 5.87075 24.3813 5.76363 24.3885C5.6208 24.4028 5.54938 24.4813 5.54938 24.617C5.54938 24.767 5.6208 24.8456 5.77077 24.8527C5.83504 24.8598 5.89932 24.8598 5.96359 24.8598C6.71346 24.867 7.46333 24.867 8.22033 24.8741C8.28461 24.8741 8.34888 24.8741 8.4203 24.8741C8.4203 25.1026 8.42744 25.3098 8.4203 25.524C8.34174 25.524 8.27747 25.524 8.22033 25.524C7.77755 25.524 7.32764 25.5169 6.88486 25.5169C6.81344 25.5169 6.74203 25.5169 6.67775 25.5383C6.5492 25.5669 6.48493 25.6597 6.48493 25.7811C6.49207 25.9025 6.56349 25.9882 6.69203 26.0096C6.74203 26.0168 6.78487 26.0168 6.83487 26.0168C7.29907 26.0168 7.77041 26.0168 8.23462 26.0239C8.29175 26.0239 8.34888 26.0239 8.41316 26.0239C8.41316 26.2453 8.41316 26.4453 8.41316 26.6667C8.26318 26.6667 8.12749 26.6667 7.9918 26.6667C7.91324 26.6667 7.82755 26.6667 7.74899 26.6738C7.62044 26.6952 7.54188 26.7809 7.54188 26.9023C7.53474 27.038 7.60616 27.1237 7.74185 27.1523C7.79184 27.1594 7.84897 27.1666 7.89896 27.1666C9.16302 27.1666 10.4199 27.1666 11.684 27.1594C11.9054 27.1594 11.9554 27.1023 11.9554 26.8809C11.9554 26.6738 11.9554 26.4738 11.9482 26.2667C11.9482 26.081 11.8982 26.0311 11.7126 26.0168C11.6769 26.0168 11.634 26.0168 11.5983 26.0168C11.0484 26.0168 10.4914 26.0168 9.94145 26.0168C9.87004 26.0168 9.80576 26.0096 9.72007 26.0025C9.72007 25.7597 9.72007 25.5383 9.72007 25.3098C9.72007 25.1598 9.74149 25.1455 9.89146 25.1455C10.2485 25.1455 10.5985 25.1455 10.9556 25.1455C11.0055 25.1455 11.0555 25.1455 11.0984 25.1384C11.2341 25.1241 11.2912 25.0812 11.2912 24.9455C11.2984 24.6956 11.2984 24.4385 11.2912 24.1885C11.2841 24.0528 11.2341 24.01 11.0984 24.0028C11.0484 23.9957 10.9913 24.0028 10.9341 24.0028C10.5771 24.0028 10.2271 24.0028 9.87004 24.0028C9.73435 24.0028 9.72007 23.9886 9.72007 23.86C9.72007 23.6958 9.72007 23.5386 9.72007 23.3744C9.73435 23.2387 9.75577 23.2173 9.88432 23.2173Z" fill="url(#paint0_linear_678_620)"/>
<path d="M4.50757 24.3877C4.4576 24.3877 4.40048 24.3948 4.35051 24.4162C4.30768 24.4377 4.26484 24.4734 4.25057 24.509C4.19345 24.6661 4.2577 24.8374 4.4576 24.8374C4.57182 24.8374 4.6789 24.8374 4.79313 24.8374C4.90735 24.8374 5.01444 24.8446 5.12866 24.8374C5.25716 24.8303 5.32855 24.7446 5.32855 24.6161C5.32855 24.4734 5.25002 24.3877 5.1001 24.3877C4.90021 24.3805 4.70032 24.3805 4.50757 24.3877Z" fill="url(#paint1_linear_678_620)"/>
<path d="M5.33662 25.5455C5.22239 25.5526 5.16528 25.6311 5.15814 25.7525C5.15814 25.881 5.20812 25.9667 5.32234 25.9667C5.5722 25.9809 5.82207 25.9809 6.07907 25.9667C6.20043 25.9595 6.26468 25.8667 6.25755 25.7453C6.25041 25.624 6.17902 25.5455 6.05765 25.5383C5.94343 25.5312 5.82207 25.5383 5.70784 25.5383C5.58648 25.5383 5.46512 25.5312 5.33662 25.5455Z" fill="url(#paint2_linear_678_620)"/>
<path d="M5.15685 23.2526C5.02835 23.2597 4.94268 23.3311 4.9284 23.4525C4.91412 23.5524 4.99265 23.6738 5.10688 23.6809C5.32104 23.6952 5.52807 23.6952 5.74224 23.6952C5.77794 23.6952 5.81363 23.6738 5.84933 23.6595C5.92786 23.6095 5.96355 23.5096 5.935 23.4025C5.91358 23.3097 5.84933 23.2597 5.74938 23.2597C5.64944 23.2526 5.54949 23.2597 5.44241 23.2597C5.34246 23.2526 5.24965 23.2526 5.15685 23.2526Z" fill="url(#paint3_linear_678_620)"/>
<path d="M15.2467 14.5259C14.7755 14.4546 14.1259 14.7972 14.0687 15.1684C14.4114 15.1756 14.6898 15.0328 14.954 14.8543C15.161 14.7187 15.2253 14.6473 15.2467 14.5259Z" fill="#7EC242"/>
<path d="M13.3543 15.2758C13.4899 15.3472 13.6542 15.3115 13.7399 15.1901C13.8542 15.033 13.9613 14.8759 14.0684 14.7188C14.0827 14.7045 14.0827 14.6831 14.0898 14.6545C14.0041 14.6617 13.9327 14.6688 13.8613 14.6831C13.7042 14.7116 13.5471 14.7402 13.39 14.7831C13.2757 14.8116 13.2257 14.9045 13.2186 15.0259C13.2257 15.133 13.2543 15.2187 13.3543 15.2758Z" fill="#7EC242"/>
<path d="M22.5594 10.4262C22.6308 10.4048 22.7022 10.3905 22.7736 10.3691C22.5023 9.76227 21.4957 8.96271 21.0317 8.99126C21.6813 9.31965 22.2453 9.73371 22.5594 10.4262Z" fill="#7EC242"/>
<path d="M16.6821 20.7535C17.8605 20.7535 19.0317 20.732 20.2101 20.682C20.1958 20.6678 20.1815 20.6678 20.1601 20.6678C19.1174 20.6463 18.0819 20.6249 17.0392 20.5963C16.8964 20.5963 16.7821 20.6392 16.6821 20.7535Z" fill="white"/>
<path d="M16.3613 14.476C16.0115 14.3332 15.4475 14.5688 15.269 14.9329C15.6688 14.9686 16.24 14.733 16.3613 14.476Z" fill="#7EC242"/>
<path d="M17.6321 14.3689C17.2895 14.2618 16.7469 14.4688 16.5042 14.8044C16.9325 14.8758 17.5108 14.6473 17.6321 14.3689Z" fill="#7EC242"/>
<path d="M19.1744 14.3546C18.7032 14.2261 18.1035 14.3903 18.0179 14.683C18.4462 14.7544 18.8031 14.6045 19.1744 14.3546Z" fill="#7EC242"/>
<path d="M22.6032 9.46952C22.8245 9.71938 22.9887 9.9978 23.1172 10.2976C23.1671 10.2976 23.21 10.3048 23.2528 10.3048C23.2742 10.3048 23.2956 10.2976 23.3099 10.2905C23.1671 9.80505 22.3176 8.94123 21.8393 8.81273C22.132 9.01976 22.3819 9.22679 22.6032 9.46952Z" fill="#7EC242"/>
<path d="M17.0971 20.4034C17.7967 20.3749 18.482 20.3535 19.1674 20.3249C19.0888 20.2964 19.0103 20.2892 18.9318 20.2821C18.5391 20.2678 18.1465 20.2535 17.761 20.2392C17.6182 20.2321 17.4683 20.2321 17.3255 20.225C17.2113 20.2321 17.1399 20.2749 17.0971 20.4034Z" fill="white"/>
<path d="M23.5454 20.6106C24.3664 20.5963 25.166 20.5749 25.9727 20.5606C25.9727 20.5535 25.9727 20.5463 25.9727 20.5392C25.68 20.5321 25.3944 20.5249 25.1017 20.5178C24.6591 20.5106 24.2094 20.5035 23.7668 20.4964C23.6882 20.4964 23.6026 20.4964 23.5454 20.6106Z" fill="white"/>
<path d="M20.382 14.4046C20.132 14.276 19.8107 14.3689 19.6321 14.6259C19.9321 14.7116 20.2677 14.6045 20.382 14.4046Z" fill="#7EC242"/>
<path d="M21.7246 14.4689C21.439 14.3832 21.189 14.4475 21.0462 14.6617C21.3461 14.7403 21.6675 14.6474 21.7246 14.4689Z" fill="#7EC242"/>
<path d="M23.1603 14.626C22.8818 14.4903 22.6462 14.5474 22.5676 14.7688C22.8104 14.8545 23.0175 14.8117 23.1603 14.626Z" fill="#7EC242"/>
<path d="M23.8453 20.3535C24.3093 20.3392 24.7662 20.3178 25.2231 20.3035C25.0018 20.275 24.7733 20.2607 24.552 20.2535C24.3736 20.2464 24.188 20.2393 24.0095 20.2393C23.9381 20.2393 23.8667 20.2393 23.8453 20.3535Z" fill="white"/>
<path d="M24.398 14.8979C24.2472 14.7615 24.0964 14.7686 23.9671 14.9338C24.1466 15.063 24.3046 15.0487 24.398 14.8979Z" fill="#7EC242"/>
<path d="M17.3896 19.9893C17.3753 19.9893 17.3539 20.0178 17.3253 20.0464C17.6751 20.0464 18.0035 20.0464 18.3319 20.0464C18.0178 19.9821 17.7037 19.9821 17.3896 19.9893Z" fill="white"/>
<path d="M24.7814 20.0393C24.5671 20.0393 24.3457 20.0393 24.1315 20.0393C24.0815 20.0393 24.0244 20.0321 24.0029 20.1178C24.2672 20.1036 24.5314 20.0893 24.7885 20.075C24.7814 20.0679 24.7814 20.0536 24.7814 20.0393Z" fill="white"/>
<path d="M27.7167 24.7813C27.4097 24.7813 27.1527 25.024 27.1455 25.3381C27.1384 25.6451 27.3883 25.895 27.7024 25.9021C28.0165 25.9021 28.2449 25.6737 28.2521 25.3381C28.2521 25.0097 28.0308 24.7813 27.7167 24.7813Z" fill="black"/>
<path d="M13.9114 24.7885C13.6044 24.7885 13.3617 25.0384 13.3617 25.3453C13.3617 25.6523 13.6044 25.8879 13.9186 25.8879C14.2184 25.8879 14.4468 25.638 14.4468 25.3168C14.4397 25.0098 14.2113 24.7885 13.9114 24.7885Z" fill="black"/>
<path d="M20.6459 24.7813C20.3389 24.7813 20.0819 25.0383 20.0819 25.3453C20.089 25.7094 20.396 25.9235 20.6459 25.895C20.96 25.895 21.1813 25.6522 21.1884 25.3238C21.1884 25.0026 20.96 24.7741 20.6459 24.7813Z" fill="black"/>
<path d="M15.3183 19.7822C15.4968 20.025 15.7396 20.0893 16.0253 20.0393C16.2967 19.9965 16.4324 19.8108 16.5395 19.5823C16.3039 19.568 15.4182 19.718 15.3183 19.7822Z" fill="black"/>
<path d="M34.3794 24.8884C34.5365 24.8099 34.558 24.6528 34.4223 24.5385C34.3866 24.5099 34.3437 24.4814 34.3009 24.4671C33.9866 24.3457 33.6867 24.5956 33.7224 24.967C33.9224 24.9527 34.108 24.9384 34.2937 24.9242C34.3152 24.917 34.3509 24.9027 34.3794 24.8884Z" fill="black"/>
<defs>
<linearGradient id="paint0_linear_678_620" x1="-2.23706" y1="17.576" x2="35.7494" y2="17.576" gradientUnits="userSpaceOnUse">
<stop offset="0.1136" stop-color="#ED2A91"/>
<stop offset="0.1563" stop-color="#EE3597"/>
<stop offset="0.2308" stop-color="#F051A5"/>
<stop offset="0.3282" stop-color="#F480BD"/>
<stop offset="0.4433" stop-color="#FAC0DE"/>
<stop offset="0.5465" stop-color="white"/>
</linearGradient>
<linearGradient id="paint1_linear_678_620" x1="4.21529" y1="17.5746" x2="225.765" y2="17.5746" gradientUnits="userSpaceOnUse">
<stop offset="0.0633537" stop-color="#ED2A91"/>
<stop offset="0.111" stop-color="#EE3597"/>
<stop offset="0.1942" stop-color="#F051A5"/>
<stop offset="0.3028" stop-color="#F480BD"/>
<stop offset="0.4313" stop-color="#FAC0DE"/>
<stop offset="0.5465" stop-color="white"/>
</linearGradient>
<linearGradient id="paint2_linear_678_620" x1="-22.221" y1="17.6582" x2="198.93" y2="17.6582" gradientUnits="userSpaceOnUse">
<stop offset="0.1259" stop-color="#ED2A91"/>
<stop offset="0.1674" stop-color="#EE3597"/>
<stop offset="0.2398" stop-color="#F051A5"/>
<stop offset="0.3344" stop-color="#F480BD"/>
<stop offset="0.4462" stop-color="#FAC0DE"/>
<stop offset="0.5465" stop-color="white"/>
</linearGradient>
<linearGradient id="paint3_linear_678_620" x1="-17.2555" y1="17.5725" x2="221.687" y2="17.5725" gradientUnits="userSpaceOnUse">
<stop offset="0.1196" stop-color="#ED2A91"/>
<stop offset="0.1617" stop-color="#EE3597"/>
<stop offset="0.2352" stop-color="#F051A5"/>
<stop offset="0.3312" stop-color="#F480BD"/>
<stop offset="0.4447" stop-color="#FAC0DE"/>
<stop offset="0.5465" stop-color="white"/>
</linearGradient>
</defs>
</svg>
