<svg width="40" height="40" viewBox="0 0 40 40" fill="none" xmlns="http://www.w3.org/2000/svg">
<rect width="40" height="40" fill="#FECB00"/>
<path d="M29.9999 20.4182C29.8363 20.4909 29.6727 20.5636 29.4363 20.6545C29.6363 22.5636 29.8181 24.4545 30.0181 26.3273C29.2908 26.8909 28.5272 27.2727 27.7454 27.7454C28.309 28.4727 28.3818 29.3091 28.2908 30.1636C28.1818 31.0545 27.8545 31.8727 27.1636 32.4909C26.3636 33.2182 25.4181 33.0363 24.9454 32.0727C24.5818 31.3454 24.5999 30.5636 24.7454 29.7818C24.7818 29.5636 24.8545 29.3636 24.9272 29.0545C23.6727 29.4909 22.4727 29.8727 21.2181 30.0909C19.9636 30.3091 18.709 30.4363 17.4181 30.4182C17.3999 30.6909 17.5272 30.8909 17.5636 31.1091C17.7272 32.2545 17.5454 33.3273 16.8727 34.2909C16.6908 34.5454 16.4908 34.7454 16.2363 34.9091C15.509 35.3818 14.7454 35.2 14.3272 34.4363C13.8363 33.5454 13.8908 32.6182 14.1454 31.6727C14.2727 31.1818 14.5272 30.7636 14.8363 30.2909C14.2181 30.1818 13.6545 30.1091 13.0908 29.9818C11.6545 29.6909 10.2363 29.3454 8.87266 28.8C8.49084 28.6363 8.10902 28.4727 7.7272 28.0727C14.9999 30.2909 21.8727 29.6363 28.4908 26.0182C28.2727 23.8363 28.0727 21.6727 27.8545 19.4909C28.4908 19.0909 29.1272 18.6727 29.6727 18.1818C30.309 17.6182 30.8727 16.9818 31.2545 16.2C32.1999 14.2727 31.3818 12.2545 29.3636 11.4727C28.2545 11.0545 27.0908 11 25.9272 11.1273C25.4908 11.1636 25.0727 11.2363 24.6181 11.2909C24.3999 11.0363 24.3636 10.7273 24.2363 10.4363C23.709 9.27271 23.0727 8.19998 22.0545 7.3818C20.1636 5.85453 17.3454 6.49089 16.1636 8.5818C15.6363 9.63635 15.3636 10.7273 15.2908 11.8909C15.2727 12.0909 15.3272 12.2909 15.2181 12.4909C14.7636 12.4909 14.2908 12.4727 13.8363 12.4909C12.7454 12.5273 11.6908 12.6727 10.6727 13.1091C8.7272 13.9454 8.10902 15.4909 8.34539 17.3818C8.49084 18.5818 9.14539 19.4363 10.2181 19.9818C10.709 20.2363 11.1999 20.4727 11.6908 20.7091C11.9818 20.8545 12.2727 21.0363 12.509 21.2727C12.7636 21.5273 12.909 21.8182 12.9272 22.2C12.9999 23.8182 13.0908 25.4182 13.109 27.0545C12.6727 25.5091 12.2363 23.9818 11.7818 22.4C11.2545 22.2182 10.6908 22.1273 10.1454 21.9091C7.76357 20.8909 6.27266 18.5091 6.5272 15.9273C6.78175 13.3091 8.67266 11.3091 11.1818 10.6909C11.8545 10.5454 12.5454 10.4727 13.309 10.5454C13.4727 8.67271 14.2545 7.14544 15.7636 6.03635C16.8181 5.25453 18.0363 4.85453 19.3454 4.81817C21.5817 4.76362 24.4181 5.92726 25.4908 9.29089C25.6545 9.34544 25.8181 9.27271 25.9636 9.23635C29.2545 8.49089 32.509 10.4363 33.3454 13.6545C34.0363 16.3454 32.5999 19.2363 29.9999 20.4182Z" fill="white"/>
</svg>
