<svg width="40" height="40" viewBox="0 0 40 40" fill="none" xmlns="http://www.w3.org/2000/svg">
<g clip-path="url(#clip0_678_1381)">
<rect width="40" height="40" fill="white"/>
<path d="M20 0C8.94545 0 0 8.94545 0 20C0 31.0545 8.94545 40 20 40C31.0545 40 40 31.0545 40 20C40 8.94545 31.0545 0 20 0ZM27.5091 10.5818C29.0182 10.5818 30.4909 11.6727 30.5273 13.6545C30.5636 15.5091 29.0182 16.7636 27.4909 16.7636C25.8 16.7636 24.4545 15.3818 24.4545 13.6909C24.4182 11.7273 25.9455 10.5818 27.5091 10.5818ZM12.5636 10.5818C14.3455 10.6 15.5636 11.7455 15.6364 13.6909C15.7091 15.3636 14.2364 16.7636 12.5273 16.7636C10.9455 16.8 9.4 15.3455 9.47273 13.6182C9.56364 11.7273 10.9091 10.5636 12.5636 10.5818ZM34.0727 21.7818C34.0182 23.0909 33.6909 24.3636 33.1818 25.5455C32.0364 28.2 30.3091 30.4182 27.8545 32.0364C26.5091 32.9091 25.0909 33.5636 23.5636 33.9636C22.5818 34.2364 21.5636 34.3273 20.5273 34.3455C20.1818 34.3455 19.8545 34.3455 19.5091 34.3455C18.1818 34.3273 16.8909 34.1455 15.6545 33.7273C13 32.8364 10.7636 31.3091 8.98182 29.1091C8.16364 28.1091 7.49091 27.0182 7 25.8364C6.6 24.9091 6.27273 23.9273 6.12727 22.8909C6.03636 22.2909 5.81818 21.7091 6.09091 21.1273C6.25455 20.7818 6.6 20.8182 6.90909 20.8364C7.29091 20.8545 7.50909 21.1455 7.58182 21.4545C8.29091 24.5818 10.0364 27.0545 12.5818 28.9455C14.1091 30.0727 15.8364 30.7818 17.7273 31.1636C19.1273 31.4364 20.5091 31.4727 21.8727 31.2727C24.0364 30.9455 26.0364 30.1091 27.8 28.7273C29.4727 27.4182 30.7636 25.8364 31.6727 23.9091C32.0545 23.0909 32.2909 22.2364 32.5818 21.4C32.7636 20.8727 33.1091 20.8182 33.5455 20.8727C34.0545 20.9273 34.0909 21.3636 34.0727 21.7818Z" fill="#F0A53D"/>
</g>
<defs>
<clipPath id="clip0_678_1381">
<rect width="40" height="40" fill="white"/>
</clipPath>
</defs>
</svg>
