<svg width="40" height="40" viewBox="0 0 40 40" fill="none" xmlns="http://www.w3.org/2000/svg">
<rect width="40" height="40" fill="white"/>
<path d="M36.528 20.2909C36.528 20.2727 36.528 20.0727 36.528 19.8727C36.528 19.6727 36.528 19.1273 36.5098 19.0909C36.5098 19.0909 36.5098 19.0909 36.5098 19.0727C36.4916 18.3818 36.4007 17.6909 36.2916 17C36.0916 15.8909 35.8007 14.8 35.3825 13.7637C34.5643 11.6909 33.3825 9.85456 31.8189 8.27274C29.637 6.03638 27.037 4.52729 24.0007 3.76365C23.2734 3.58184 22.5461 3.45456 21.8007 3.36365C21.037 3.29093 20.2916 3.23638 19.528 3.27274C15.2734 3.45456 11.6189 5.00002 8.56432 7.92729C6.29159 10.0909 4.7825 12.7273 3.9825 15.7637C3.7825 16.5273 3.65523 17.2909 3.56432 18.0727C3.47341 18.9273 3.43704 19.7818 3.47341 20.6182C3.67341 24.8364 5.21886 28.4909 8.14613 31.5455C10.0189 33.5091 12.2552 34.8909 14.837 35.7637C15.728 36.0546 16.637 36.2727 17.5643 36.4182C18.2007 36.5091 18.837 36.5637 19.4916 36.5818C19.5461 36.5818 19.5461 36.5818 19.5461 36.5818C19.6189 36.5818 19.7643 36.6 19.8734 36.6C19.9825 36.6 20.3461 36.6 20.4189 36.5818C20.4189 36.5818 20.4189 36.5818 20.4734 36.5818C22.8916 36.5091 25.1825 35.9455 27.328 34.8546C30.5461 33.2364 32.9825 30.8 34.6552 27.6C35.4007 26.1637 35.928 24.6546 36.2189 23.0546C36.3461 22.4182 36.4189 21.7637 36.4734 21.1091C36.4734 20.9818 36.4734 20.9818 36.4734 20.9818C36.4734 20.8364 36.4916 20.7273 36.4916 20.7273C36.4916 20.7273 36.5098 20.6727 36.5098 20.6182C36.5098 20.5637 36.528 20.3273 36.528 20.2909ZM34.4916 24.6727C34.4552 26.0546 34.1461 27.3818 33.528 28.6182C32.2189 31.2727 29.7825 33.2 26.8916 33.8546C25.9643 34.0727 25.0189 34.1637 24.0734 34.1091C21.5643 33.9637 19.4007 33.0364 17.5825 31.2909C16.2552 30 15.3643 28.4546 14.928 26.6364C14.8007 26.1273 14.728 25.6 14.6916 25.0909C14.6552 24.5273 14.6552 23.9637 14.728 23.4182C14.9461 21.5091 15.6552 19.8182 16.8734 18.3455C18.3098 16.6182 20.1461 15.5091 22.328 14.9818C23.0552 14.8182 23.8189 14.7273 24.5825 14.7273C27.1461 14.7637 29.4007 15.6 31.328 17.3091C31.6552 17.6 31.9461 17.9091 32.237 18.2546C32.2552 18.2727 32.2552 18.2909 32.2734 18.3091C32.2916 18.3273 32.2916 18.3455 32.2734 18.3637C32.2552 18.3818 32.237 18.4 32.2189 18.4182C28.4552 21.8727 24.6916 25.3091 20.928 28.7637C20.8552 28.8182 20.8007 28.8727 20.728 28.9455C20.6734 29 20.6734 29 20.728 29.0546C20.928 29.2364 21.1461 29.3818 21.3643 29.5273C21.9825 29.9091 22.6734 30.1637 23.3825 30.2909C23.9098 30.3818 24.4189 30.4182 24.9461 30.3637C26.3461 30.2364 27.5825 29.7273 28.6189 28.7637C29.3643 28.0727 29.8916 27.2546 30.2734 26.3273C30.5643 25.6364 30.7643 24.9091 30.8916 24.1637C30.9643 23.7637 31.0007 23.3818 31.037 22.9818C31.037 22.9091 31.037 22.9091 31.128 22.8909C31.7461 22.8727 32.3643 22.8364 32.9825 22.8182C33.4007 22.8 33.8189 22.7818 34.237 22.7637C34.2552 22.7637 34.2734 22.7637 34.2916 22.7637C34.328 22.7637 34.3461 22.7818 34.3643 22.8182C34.3825 22.9455 34.4007 23.0546 34.4189 23.1818C34.4734 23.6727 34.5098 24.1818 34.4916 24.6727Z" fill="#00B4F9"/>
<path d="M26.4917 18.7454C25.8371 18.5273 25.1644 18.4363 24.4735 18.4363C23.8917 18.4363 23.328 18.5091 22.7644 18.6727C21.5462 19 20.4917 19.6182 19.6553 20.5454C18.8553 21.4182 18.3826 22.4363 18.3098 23.6363C18.2553 24.4363 18.4007 25.2 18.7462 25.9091C18.7462 25.9273 18.7462 25.9273 18.7462 25.9273C18.7644 25.9454 19.3644 25.4 20.1098 24.7273L25.2371 20.0182C25.9826 19.3454 26.5462 18.7818 26.5098 18.7636C26.5098 18.7454 26.5098 18.7454 26.4917 18.7454Z" fill="#00B4F9"/>
</svg>
