<svg width="40" height="40" viewBox="0 0 40 40" fill="none" xmlns="http://www.w3.org/2000/svg">
<rect width="40" height="40" fill="white"/>
<path d="M7.5156 18.4738C7.37552 18.3026 7.2057 18.1646 7.00579 18.0605C6.80587 17.9563 6.57921 17.9046 6.32578 17.9046C6.06604 17.9046 5.8364 17.9563 5.63649 18.0605C5.43657 18.1643 5.26676 18.3026 5.12704 18.4738C4.98695 18.6451 4.87548 18.8433 4.79224 19.0686C4.70901 19.2934 4.65401 19.5239 4.62726 19.7589H7.9656C7.95854 19.5168 7.91729 19.2852 7.84037 19.0637C7.76382 18.8415 7.65532 18.6447 7.5156 18.4738Z" fill="#8FB824"/>
<path d="M13.6955 16.1691C13.6862 16.1691 13.6769 16.1702 13.6676 16.1702V16.1691H3.63145V16.1702C3.02874 16.1852 2.54419 16.6817 2.54419 17.2937V22.9169C2.54419 23.5285 3.02874 24.0251 3.63145 24.0401V24.0416H13.6676V24.0401C13.6769 24.0405 13.6862 24.0416 13.6955 24.0416C14.3112 24.0416 14.8106 23.5383 14.8106 22.9169V17.2937C14.8106 16.6724 14.3116 16.1691 13.6955 16.1691ZM8.59474 20.2951H4.62656C4.62656 20.5234 4.65778 20.7602 4.72132 21.0057C4.78449 21.2508 4.8863 21.4711 5.02602 21.6656C5.16611 21.8605 5.34261 22.022 5.5559 22.1498C5.76882 22.2772 6.02559 22.3409 6.32546 22.3409C6.78511 22.3409 7.14518 22.2199 7.40492 21.9782C7.66466 21.7361 7.84451 21.4138 7.94484 21.0105H8.57468C8.44128 21.6019 8.19603 22.0591 7.83968 22.3814C7.48333 22.7037 6.97871 22.8648 6.32583 22.8648C5.91931 22.8648 5.56779 22.7925 5.27127 22.6482C4.97474 22.5036 4.73321 22.3053 4.54667 22.0535C4.36014 21.8017 4.22191 21.5093 4.13198 21.1766C4.04206 20.8438 3.99672 20.4926 3.99672 20.1231C3.99672 19.7802 4.04206 19.4444 4.13198 19.115C4.22191 18.786 4.36014 18.4918 4.54667 18.2328C4.73321 17.9743 4.97474 17.7655 5.27127 17.6081C5.56779 17.4503 5.91931 17.3713 6.32583 17.3713C6.73904 17.3713 7.09204 17.4548 7.38485 17.6227C7.67804 17.791 7.91622 18.011 8.10016 18.2831C8.28335 18.5551 8.41489 18.8677 8.49479 19.2207C8.57505 19.5741 8.60812 19.9324 8.59474 20.2951ZM13.3024 22.7239H8.99457V22.2101L12.363 18.0567H9.22458V17.5231H13.1627V17.9765L9.75447 22.1899H13.3024V22.7239Z" fill="#8FB824"/>
<path d="M19.5444 18.2377C19.3111 18.0158 18.9844 17.9049 18.5645 17.9049C18.265 17.9049 18.0012 17.9686 17.7753 18.0964C17.5483 18.2242 17.3602 18.3921 17.2105 18.6004C17.0607 18.8088 16.9474 19.0457 16.8705 19.3114C16.7939 19.5767 16.7553 19.8469 16.7553 20.1231C16.7553 20.3982 16.7936 20.6687 16.8705 20.9344C16.947 21.1998 17.0607 21.4366 17.2105 21.645C17.3606 21.8533 17.5486 22.0212 17.7753 22.1487C18.0012 22.2764 18.2647 22.3402 18.5645 22.3402C18.7578 22.3402 18.941 22.3034 19.1145 22.2292C19.288 22.1554 19.4407 22.0531 19.5741 21.9219C19.7075 21.7908 19.8175 21.6345 19.9041 21.4535C19.9903 21.2717 20.0438 21.0738 20.0639 20.8584H20.6934C20.6068 21.4898 20.3771 21.9823 20.0037 22.3349C19.631 22.6879 19.1513 22.8641 18.5645 22.8641C18.1714 22.8641 17.8232 22.7917 17.5204 22.6475C17.2172 22.5032 16.9623 22.3068 16.7557 22.0576C16.5491 21.8091 16.3922 21.5187 16.286 21.1859C16.1797 20.8535 16.1262 20.499 16.1262 20.1227C16.1262 19.7461 16.1793 19.3916 16.286 19.0588C16.3926 18.7264 16.5491 18.4356 16.7557 18.1867C16.9623 17.9383 17.2172 17.7404 17.5204 17.5923C17.8232 17.4443 18.1714 17.3705 18.5645 17.3705C19.1178 17.3705 19.586 17.5185 19.9691 17.8142C20.3519 18.1099 20.58 18.5566 20.6536 19.1547H20.0241C19.9376 18.765 19.7778 18.4588 19.5444 18.2377Z" fill="#8B8786"/>
<path d="M21.7026 18.328C21.8093 18.1065 21.9538 17.9248 22.1374 17.7839C22.3206 17.643 22.5357 17.5384 22.7821 17.4717C23.0285 17.4042 23.302 17.3709 23.6018 17.3709C23.8281 17.3709 24.0548 17.3926 24.2815 17.4361C24.5078 17.4799 24.711 17.5624 24.8909 17.6831C25.0711 17.8045 25.2175 17.9739 25.3308 18.192C25.4442 18.4105 25.5006 18.6945 25.5006 19.0438V21.8054C25.5006 22.0614 25.624 22.1888 25.8707 22.1888C25.9436 22.1888 26.0105 22.1745 26.0703 22.1483V22.6823C25.9967 22.6958 25.9317 22.7063 25.8756 22.7131C25.8187 22.7198 25.747 22.7228 25.6604 22.7228C25.5003 22.7228 25.3721 22.7014 25.2758 22.6576C25.1788 22.6137 25.1042 22.5515 25.0506 22.471C24.9971 22.39 24.9622 22.2945 24.9455 22.1839C24.9288 22.0726 24.9206 21.95 24.9206 21.8159H24.9005C24.7872 21.9838 24.6724 22.1333 24.5553 22.2641C24.439 22.3956 24.309 22.5043 24.1659 22.5916C24.0221 22.679 23.8593 22.7464 23.6761 22.7933C23.4926 22.8401 23.2748 22.8637 23.0214 22.8637C22.7817 22.8637 22.5566 22.8352 22.3466 22.7783C22.137 22.7213 21.9535 22.6302 21.797 22.5058C21.6402 22.3818 21.5172 22.2236 21.4269 22.0321C21.337 21.8406 21.292 21.6139 21.292 21.3519C21.292 20.9888 21.3719 20.7055 21.5317 20.5001C21.6919 20.2951 21.9033 20.1388 22.1664 20.0313C22.4298 19.9237 22.726 19.8484 23.056 19.8042C23.3856 19.7611 23.7207 19.7184 24.0607 19.6783C24.1938 19.6652 24.3104 19.6479 24.4108 19.6281C24.5107 19.6078 24.5936 19.573 24.6605 19.5224C24.727 19.4722 24.7786 19.4032 24.8154 19.3155C24.8518 19.2282 24.8704 19.1143 24.8704 18.973C24.8704 18.7579 24.8355 18.5814 24.7653 18.4434C24.6954 18.3059 24.5988 18.1965 24.4758 18.1159C24.3524 18.0353 24.2094 17.9795 24.0459 17.9495C23.8824 17.9192 23.7077 17.9042 23.5212 17.9042C23.121 17.9042 22.7951 18.0001 22.5413 18.1912C22.2883 18.3827 22.1545 18.69 22.1415 19.1139H21.512C21.5328 18.8122 21.596 18.5499 21.7026 18.328ZM24.8511 19.8806C24.8113 19.9548 24.7348 20.0084 24.6211 20.0418C24.5081 20.0759 24.4082 20.0995 24.3216 20.1126C24.0552 20.1598 23.7802 20.2018 23.497 20.2389C23.2135 20.276 22.9556 20.3311 22.7223 20.4049C22.4893 20.4791 22.2976 20.5852 22.1478 20.7227C21.9977 20.8606 21.9226 21.057 21.9226 21.3126C21.9226 21.4737 21.9542 21.6161 22.0177 21.7402C22.0809 21.8654 22.166 21.9725 22.2723 22.0632C22.3789 22.1539 22.5023 22.2232 22.6424 22.2697C22.7825 22.3169 22.9255 22.3402 23.0719 22.3402C23.3116 22.3402 23.5416 22.3034 23.7616 22.2292C23.9816 22.1554 24.173 22.0482 24.3361 21.907C24.4996 21.7657 24.6296 21.5944 24.7262 21.3928C24.8232 21.1915 24.8715 20.9629 24.8715 20.7074V19.881L24.8511 19.8806Z" fill="#8B8786"/>
<path d="M28.8096 17.5215V18.0559H27.7603V21.5637C27.7603 21.7724 27.7885 21.9354 27.8454 22.0527C27.9015 22.1704 28.0434 22.2364 28.2701 22.2491C28.4503 22.2491 28.6302 22.2393 28.81 22.2195V22.7535C28.7167 22.7535 28.6235 22.7569 28.5302 22.7636C28.4369 22.7704 28.3433 22.7741 28.25 22.7741C27.8305 22.7741 27.537 22.6917 27.3712 22.5268C27.2044 22.3619 27.1241 22.058 27.1308 21.6146V18.0559H26.2316V17.5215H27.1308V15.9595H27.7607V17.5215H28.8096Z" fill="#8B8786"/>
<path d="M30.1837 21.0042C30.2473 21.25 30.3487 21.4696 30.4884 21.6645C30.6285 21.8597 30.805 22.0209 31.0183 22.1487C31.2312 22.2761 31.488 22.3398 31.7879 22.3398C32.2475 22.3398 32.6072 22.2187 32.8673 21.977C33.1271 21.7353 33.3069 21.4126 33.4073 21.0094H34.0367C33.9033 21.6011 33.6584 22.058 33.3021 22.3803C32.9454 22.7026 32.4404 22.8641 31.7879 22.8641C31.3814 22.8641 31.0302 22.7914 30.7333 22.6471C30.4368 22.5024 30.1953 22.3042 30.0087 22.0524C29.8222 21.8001 29.684 21.5082 29.594 21.1754C29.5041 20.8426 29.4591 20.4919 29.4591 20.122C29.4591 19.7791 29.5037 19.4429 29.594 19.1139C29.684 18.7848 29.8222 18.4907 30.0087 18.2317C30.1953 17.9731 30.4368 17.7648 30.7333 17.6066C31.0298 17.4488 31.3814 17.3701 31.7879 17.3701C32.2007 17.3701 32.5541 17.4541 32.8473 17.622C33.1401 17.7899 33.3786 18.0098 33.5618 18.2823C33.745 18.5544 33.8766 18.8669 33.9565 19.2196C34.0364 19.5722 34.0698 19.9305 34.0564 20.2932H30.0886C30.0886 20.5222 30.1202 20.7591 30.1837 21.0042ZM33.3021 19.064C33.2255 18.8422 33.117 18.6458 32.9773 18.4742C32.8372 18.3029 32.6678 18.165 32.4679 18.0612C32.268 17.957 32.0413 17.9049 31.7882 17.9049C31.5281 17.9049 31.2989 17.9566 31.0986 18.0612C30.8987 18.165 30.7289 18.3033 30.5891 18.4742C30.4491 18.6458 30.3372 18.8437 30.254 19.0689C30.1707 19.2941 30.1157 19.5242 30.0886 19.7596H33.4269C33.4203 19.5179 33.379 19.2855 33.3021 19.064Z" fill="#8B8786"/>
<path d="M35.4849 17.5215V18.7414H35.5046C35.6648 18.3179 35.913 17.9919 36.2493 17.7636C36.586 17.535 36.9873 17.4308 37.4536 17.4511V18.0863C37.1671 18.0728 36.907 18.1114 36.674 18.2021C36.4403 18.2924 36.2393 18.4225 36.0695 18.59C35.8993 18.7579 35.7677 18.958 35.6741 19.1896C35.5808 19.4216 35.5344 19.6753 35.5344 19.9511V22.7228H34.9045V17.5215H35.4849Z" fill="#8B8786"/>
</svg>
