<svg width="40" height="40" viewBox="0 0 40 40" fill="none" xmlns="http://www.w3.org/2000/svg">
<rect width="40" height="40" fill="white"/>
<path d="M28.2658 19.3654C28.2658 19.3979 28.2658 19.463 28.2658 19.4956V19.5281C28.2658 19.5606 28.2658 19.5606 28.2333 19.5932C28.1682 19.7559 28.0706 19.8861 27.9404 19.9512C27.9078 19.9837 27.8753 19.9837 27.8428 19.9837C27.8428 19.9837 27.8428 19.9837 27.8102 19.9837C27.7451 20.0163 27.6475 20.0488 27.5499 20.0488C27.4197 20.0488 27.3221 20.0163 27.2244 19.9837C27.1919 19.9837 27.1593 19.9512 27.1593 19.9512C26.9966 19.821 26.8665 19.6583 26.8339 19.4305C26.8014 19.2352 26.8014 19.0074 26.7363 18.8121C26.6061 18.2915 26.3783 17.8033 26.0854 17.3477C25.7925 16.8921 25.402 16.5341 24.9789 16.2087C24.686 16.0134 24.3606 15.8507 24.0026 15.7531C23.6447 15.6554 23.4169 15.33 23.4494 14.972C23.4819 14.5815 23.8074 14.3537 24.1003 14.3212C24.1979 14.3212 24.263 14.3212 24.3606 14.3537C24.8488 14.4839 25.2718 14.6791 25.6949 14.9395C26.5085 15.4602 27.1268 16.1761 27.615 17.0223C27.8428 17.4453 28.0055 17.8684 28.1357 18.3565C28.2007 18.6494 28.2658 18.9423 28.2658 19.2352C28.2658 19.2678 28.2658 19.3003 28.2658 19.3654C28.2658 19.3654 28.2658 19.3328 28.2658 19.3654ZM30.8693 20.0163H30.5764C30.5764 19.9186 30.5764 19.7885 30.5439 19.6908C30.5113 19.3003 30.4137 18.9423 30.3161 18.5518C29.8605 16.827 28.9492 15.3951 27.6475 14.2235C26.3783 13.0845 24.9138 12.4011 23.2867 12.1082C23.3843 11.8804 23.4494 11.6526 23.4494 11.3922C23.4494 10.4485 22.7009 9.69998 21.7571 9.69998C20.8459 9.69998 20.0649 10.4485 20.0649 11.3922C20.0649 11.6526 20.13 11.8804 20.2276 12.0757C19.8045 12.1407 19.3489 12.2709 18.9259 12.4011C17.8519 12.7916 16.8756 13.3448 16.0295 14.0933H9.09773C8.41432 14.1259 7.86108 14.6791 7.86108 15.3625C7.86108 16.046 8.41432 16.5992 9.09773 16.5992H14.1094C14.0118 16.7619 13.9467 16.9246 13.8491 17.0873H10.8225C10.1391 17.0873 9.58589 17.6406 9.58589 18.324C9.58589 19.0074 10.1391 19.5606 10.8225 19.5606H13.1331C13.1006 19.7234 13.1006 19.8861 13.068 20.0488H12.5148C11.8314 20.0488 11.2781 20.602 11.2781 21.2854C11.2781 21.9689 11.8314 22.5221 12.5148 22.5221H19.2513L19.2187 23.8889L15.1183 25.5161C14.7928 25.6463 14.5325 25.9066 14.4349 26.2646C14.3372 26.59 14.3698 26.9806 14.5325 27.2734L15.6064 29.1284C15.8342 29.5189 16.2573 29.7467 16.6478 29.7467C16.8431 29.7467 17.0709 29.6817 17.2661 29.584C17.8519 29.226 18.0472 28.4776 17.6892 27.8918L17.3312 27.2734L20.8785 25.809C21.3341 25.6137 21.627 25.1907 21.627 24.7025L21.692 22.457H22.1477L23.5796 25.3534L21.692 28.445C21.4642 28.8355 21.4317 29.2911 21.6595 29.6817C21.8873 30.0722 22.2778 30.3 22.7334 30.3H24.9789C25.6623 30.3 26.2156 29.7467 26.2156 29.0633C26.2156 28.3799 25.6623 27.8267 24.9789 27.8267H24.9138L26.0203 26.0368C26.2481 25.6788 26.2807 25.2232 26.0854 24.8327L24.8813 22.3919H30.9018C31.5853 22.3919 32.1385 21.8387 32.1385 21.1553C32.0734 20.5695 31.5527 20.0163 30.8693 20.0163Z" fill="#171460"/>
</svg>
