<svg width="40" height="40" viewBox="0 0 40 40" fill="none" xmlns="http://www.w3.org/2000/svg">
<rect width="40" height="40" fill="#25C1F1"/>
<path d="M12.9383 29.1792C10.9053 29.1792 8.71941 27.5589 8.19205 25.1514C7.77933 23.2559 8.25319 21.5209 9.43786 20.0153C11.127 17.8752 12.7549 15.6893 14.3217 13.4652C15.5752 11.6844 17.8451 10.5609 20.5584 11.2411C20.8183 11.3023 21.0705 11.394 21.3151 11.501C23.7914 12.5939 26.2677 13.7022 28.744 14.7951C29.516 15.139 30.2268 15.5823 30.8229 16.1938C32.9171 18.3109 32.5655 21.3987 30.0586 22.996C29.3402 23.447 28.5683 23.768 27.7505 23.9743C27.4677 24.0431 27.2995 24.1883 27.1467 24.4329C26.0461 26.1526 24.6245 27.4978 22.6602 28.1703C21.0552 28.7283 19.4349 28.6824 17.8146 28.1933C17.5547 28.1168 17.3407 28.1245 17.0961 28.2544C15.9879 28.8429 14.8109 29.1945 12.9383 29.1792Z" fill="#FEFEFE"/>
<path d="M19.0752 20.1605C20.6038 21.5897 22.4228 22.3999 24.4941 22.6597C24.6546 22.6827 24.8304 22.6597 24.6699 22.912C23.7222 24.3871 22.5069 25.4876 20.6879 25.7017C19.7937 25.8087 18.93 25.6329 18.1122 25.2889C17.4167 24.9985 16.8053 25.0444 16.1709 25.48C15.4142 25.9997 14.5735 26.3207 13.6411 26.3437C11.7532 26.3895 10.6297 24.9679 11.0883 23.1336C11.2259 22.5986 11.4552 22.1018 11.8067 21.6738C13.557 19.5185 15.1467 17.2409 16.7976 15.0091C17.6001 13.9238 18.8841 13.5493 20.1223 14.0919C22.6369 15.1925 25.1514 16.3161 27.6583 17.4396C28.1551 17.6612 28.5907 17.9669 28.9194 18.4026C29.4697 19.1363 29.3474 19.9771 28.5984 20.5044C27.8188 21.0547 26.9246 21.3222 25.9998 21.4521C23.7833 21.7655 21.6968 21.2764 19.6943 20.3439C19.4879 20.2446 19.2816 20.1452 19.0752 20.0382C19.037 20.0764 19.0446 20.1223 19.0752 20.1605Z" fill="#25C0F0"/>
<path d="M19.0768 20.1616C18.9923 20.1309 18.8847 20.054 18.9232 19.9925C18.9616 19.908 19.0384 20.0002 19.0845 20.0463C19.0845 20.0847 19.0768 20.1232 19.0768 20.1616Z" fill="#B5E9F9"/>
</svg>
