<svg width="40" height="40" viewBox="0 0 40 40" fill="none" xmlns="http://www.w3.org/2000/svg">
<rect width="40" height="40" fill="#D60365"/>
<path d="M21.9991 27.7084C22.8317 27.4101 28.8864 25.0235 30.0973 24.576C30.2487 24.5014 30.2487 24.3523 30.173 24.2777C30.0217 24.1285 29.7946 23.9794 29.3405 23.9794C28.735 23.9794 23.5128 25.6202 23.5128 25.6202C23.5128 25.6202 21.0909 25.9931 20.7882 25.9931C20.4854 25.9185 20.4098 25.7693 20.4098 25.5456C20.4098 25.3218 20.5611 25.0981 21.0152 25.0981C21.4693 25.0235 24.1183 24.8743 24.5724 24.6506C25.0265 24.3523 24.9508 23.9048 24.7238 23.8302C24.3453 23.681 16.8526 23.681 13.1441 23.7556C12.6143 23.7556 11.479 23.7556 9.81398 23.7556C10.1167 25.5456 10.6465 27.1118 11.7818 28.5288C12.8413 28.0068 14.0523 27.6339 15.4146 27.7084C16.3985 27.6339 21.0152 28.0068 21.9991 27.7084Z" fill="white"/>
<path d="M31.0812 21.2944H30.0973C29.8703 16.0737 25.632 11.8226 20.3341 11.5989V10.6293C20.3341 10.4056 20.1827 10.1818 19.88 10.1818C19.6529 10.1818 19.4259 10.331 19.4259 10.6293V11.5989C14.128 11.8226 9.81398 15.9992 9.66261 21.2944H8.83008C8.60303 21.2944 8.37598 21.4436 8.37598 21.7419C8.37598 21.9657 8.52734 22.1894 8.83008 22.1894H31.0812C31.3083 22.1894 31.5353 22.0403 31.5353 21.7419C31.5353 21.4436 31.384 21.2944 31.0812 21.2944ZM15.6417 13.6871C14.9605 14.5075 13.4468 16.745 13.2954 19.8774C13.2954 20.1757 13.0684 20.3995 12.8413 20.3995H11.8574C11.5547 20.3995 11.3277 20.0266 11.4033 19.6536C11.7061 18.3858 12.69 15.6263 15.566 13.6126C15.6417 13.538 15.7173 13.6126 15.6417 13.6871Z" fill="white"/>
</svg>
