<svg width="40" height="40" viewBox="0 0 40 40" fill="none" xmlns="http://www.w3.org/2000/svg">
<rect width="40" height="40" fill="#D60365"/>
<path d="M20.075 24.8043C21.4262 24.8043 22.5522 23.8284 22.5522 22.6274H17.5978C17.5978 23.8284 18.6487 24.8043 20.075 24.8043Z" fill="white"/>
<path d="M28.4078 14.445C29.0083 13.9946 29.3086 13.2439 29.3086 12.4181C29.3086 10.9168 28.1075 9.79074 26.6061 9.79074C25.6303 9.79074 24.8045 10.2411 24.3541 10.9918C23.0029 10.3162 21.5015 10.0159 20.0002 10.0159C18.4237 10.0159 16.9224 10.3913 15.6462 10.9918C15.1958 10.2411 14.37 9.79074 13.3942 9.79074C11.8928 9.79074 10.6917 10.9918 10.6917 12.4181C10.6917 13.2439 11.0671 13.9195 11.5925 14.445C10.4665 16.0965 9.86597 17.9732 9.86597 20.0751C9.86597 25.6301 14.3701 30.2093 20.0002 30.2093C25.5552 30.2093 30.1343 25.7052 30.1343 20.0751C30.1343 17.9732 29.5338 16.0214 28.4078 14.445ZM20.0752 29.3835C14.9706 29.3835 10.7668 25.1797 10.7668 20.0751C10.7668 18.1233 11.3673 16.3217 12.3432 14.8203C13.244 13.4691 14.5202 12.3431 16.0215 11.6674C17.2226 11.0669 18.6489 10.7666 20.0752 10.7666C21.5015 10.7666 22.9278 11.0669 24.1289 11.6674C25.6303 12.4181 26.8313 13.4691 27.8072 14.8203C28.7831 16.3217 29.3837 18.1233 29.3837 20.0751C29.3837 25.1797 25.1798 29.3835 20.0752 29.3835Z" fill="white"/>
<path d="M20.0754 22.0268C20.2255 22.1019 21.802 21.5014 21.802 20.7507C21.802 20.3003 20.5258 20.2252 20.0754 20.2252C19.625 20.2252 18.3489 20.3003 18.3489 20.7507C18.2738 21.5014 19.9253 22.1019 20.0754 22.0268Z" fill="white"/>
<path d="M25.9311 15.7211C25.0303 15.1206 23.0785 14.8203 22.3278 15.7962C22.3278 15.7962 21.3519 16.8472 22.3278 17.8981C23.3037 18.9491 23.9793 20 24.2045 20.8258C24.4297 21.7266 24.8051 22.0269 25.4807 22.0269C26.1563 22.0269 27.5075 20.9759 27.7327 19.2493C27.8829 17.5228 26.8319 16.2466 25.9311 15.7211ZM23.9042 17.8981C23.604 17.8981 23.3788 17.6729 23.3788 17.3726C23.3788 17.0724 23.604 16.8472 23.9042 16.8472C24.2045 16.8472 24.4297 17.0724 24.4297 17.3726C24.4297 17.6729 24.2045 17.8981 23.9042 17.8981Z" fill="white"/>
<path d="M17.7487 15.7962C16.998 14.8203 15.0462 15.1206 14.1454 15.7211C13.2446 16.3217 12.1937 17.5228 12.3438 19.2493C12.4939 20.9759 13.8452 22.0269 14.5958 22.0269C15.2714 22.0269 15.6468 21.6515 15.872 20.8258C16.0972 19.925 16.8479 18.9491 17.7487 17.8981C18.7246 16.7721 17.7487 15.7962 17.7487 15.7962ZM16.3224 17.8981C16.0221 17.8981 15.7969 17.6729 15.7969 17.3726C15.7969 17.0724 16.0221 16.8472 16.3224 16.8472C16.6227 16.8472 16.8479 17.0724 16.8479 17.3726C16.8479 17.6729 16.6227 17.8981 16.3224 17.8981Z" fill="white"/>
</svg>
