<svg width="40" height="40" viewBox="0 0 40 40" fill="none" xmlns="http://www.w3.org/2000/svg">
<rect width="40" height="40" fill="white"/>
<path d="M21.1514 30.4167C21.1514 29.6515 21.1514 28.8788 21.1514 28.1136C21.1514 28.0757 21.1514 28.0379 21.1514 28.0076C21.1514 27.9242 21.1893 27.8788 21.2727 27.8788C21.5151 27.8788 21.7575 27.8788 21.9999 27.8788C22.106 27.8788 22.1287 27.9167 22.1363 28.0303C22.1514 28.2424 22.1514 28.2424 22.3333 28.1288C23.159 27.606 24.2802 27.7879 24.8939 28.5454C25.462 29.25 25.5833 30.0379 25.2423 30.8788C24.9242 31.6742 24.1363 32.1818 23.2802 32.1515C22.9393 32.1364 22.6136 32.0379 22.3257 31.8485C22.2878 31.8257 22.2575 31.7954 22.2196 31.7803C22.1817 31.7651 22.1439 31.7803 22.1439 31.8257C22.1363 31.8636 22.1439 31.9091 22.1439 31.9545C22.1439 32.2273 22.1439 32.5 22.1439 32.7727C22.1439 32.947 22.1211 32.9621 21.9393 32.9697C21.7423 32.9697 21.553 32.9697 21.356 32.9697C21.1742 32.9697 21.159 32.9545 21.159 32.7727C21.159 32.3788 21.159 31.9848 21.159 31.5909C21.1514 31.1894 21.1514 30.803 21.1514 30.4167ZM24.4772 29.9773C24.4848 29.8182 24.4545 29.6591 24.3939 29.5151C24.053 28.6742 23.0378 28.4697 22.4317 29.0985C22.0151 29.5303 21.9696 30.25 22.3257 30.7348C22.712 31.25 23.4014 31.3788 23.9242 31.0227C24.2954 30.7803 24.4772 30.4242 24.4772 29.9773Z" fill="#42474C"/>
<path d="M16.2424 29.9848C16.2424 30.6136 16.2424 31.2424 16.2424 31.8712C16.2424 32.0681 16.2349 32.0757 16.0379 32.0757C15.8409 32.0757 15.6515 32.0757 15.4546 32.0757C15.2727 32.0757 15.2727 32.0681 15.2652 31.8939C15.2652 31.8788 15.2652 31.856 15.2652 31.8409C15.2576 31.75 15.2273 31.7348 15.1515 31.7803C15 31.8788 14.8409 31.9697 14.6667 32.0227C13.9167 32.2727 13.25 32.1136 12.6818 31.5909C12.1439 31.0985 11.9243 30.4697 11.9924 29.7424C12.0758 28.9621 12.4546 28.3712 13.1591 28.0227C13.7955 27.7045 14.4318 27.7424 15.0455 28.0985C15.0606 28.106 15.0758 28.1212 15.0909 28.1288C15.2424 28.2272 15.2576 28.2197 15.2652 28.0454C15.2727 27.8712 15.2803 27.8636 15.4546 27.8636C15.6515 27.8636 15.8561 27.8636 16.053 27.8636C16.2197 27.8636 16.2424 27.8863 16.2424 28.053C16.2424 28.7045 16.2424 29.3485 16.2424 29.9848ZM15.2955 29.9772C15.3106 29.8106 15.2652 29.6515 15.2121 29.5C14.9621 28.8106 14.1212 28.5227 13.5 28.9015C12.9015 29.2727 12.7197 30.0909 13.1136 30.6818C13.4546 31.1818 14.0606 31.3712 14.5909 31.1136C15.0606 30.8863 15.2879 30.5 15.2955 29.9772Z" fill="#42474C"/>
<path d="M30.0226 29.9849C30.0377 31.2046 29.1211 32.1364 27.8635 32.144C26.6362 32.144 25.7196 31.2121 25.7196 29.9849C25.7196 28.75 26.6438 27.8333 27.8787 27.8258C29.068 27.8258 30.0453 28.7349 30.0226 29.9849ZM29.0605 29.9849C29.0605 29.8258 29.0453 29.6743 28.9847 29.5227C28.8105 29.0682 28.4771 28.803 27.9999 28.75C27.515 28.697 27.1211 28.8788 26.8635 29.303C26.6817 29.5985 26.6514 29.9243 26.712 30.2652C26.8408 30.9621 27.5529 31.394 28.2726 31.1515C28.6968 31.0152 29.0832 30.5758 29.0605 29.9849Z" fill="#42474C"/>
<path d="M16.8329 29.9848C16.8329 29.356 16.8329 28.7272 16.8329 28.0985C16.8329 27.8939 16.848 27.8788 17.045 27.8788C17.2344 27.8788 17.4238 27.8788 17.6056 27.8788C17.7874 27.8788 17.8026 27.8939 17.8101 28.0682C17.8101 28.0833 17.8101 28.106 17.8101 28.1212C17.8101 28.1591 17.8026 28.1969 17.8329 28.2197C17.8783 28.25 17.9086 28.2121 17.9465 28.1894C18.4162 27.8106 18.9465 27.7576 19.5071 27.9091C20.0374 28.053 20.3632 28.4091 20.4995 28.9394C20.545 29.106 20.5601 29.2879 20.5601 29.4621C20.5601 30.2651 20.5601 31.0757 20.5601 31.8788C20.5601 32.0757 20.5526 32.0833 20.3556 32.0833C20.1586 32.0833 19.9541 32.0833 19.7571 32.0833C19.598 32.0833 19.5753 32.0606 19.5753 31.9091C19.5753 31.5303 19.5753 31.1591 19.5753 30.7803C19.5753 30.3863 19.5753 29.9924 19.5753 29.5985C19.5753 29.4848 19.5601 29.3712 19.5298 29.2576C19.4768 29.0985 19.3859 28.9621 19.2344 28.8788C18.9313 28.7045 18.6132 28.6894 18.295 28.8333C18.1056 28.9166 17.9844 29.0757 17.9086 29.2727C17.8404 29.4394 17.8177 29.6136 17.8177 29.7879C17.8177 30.4697 17.8177 31.1439 17.8177 31.8257C17.8177 31.8712 17.8177 31.9091 17.8177 31.9545C17.8253 32.0454 17.7798 32.0909 17.6889 32.0909C17.4465 32.0909 17.2041 32.0909 16.9616 32.0909C16.8556 32.0909 16.8329 32.0606 16.8329 31.9394C16.8329 31.5833 16.8329 31.2272 16.8329 30.8712C16.8329 30.5682 16.8329 30.2727 16.8329 29.9848Z" fill="#42474C"/>
<path d="M8.26489 30.4696C8.26489 30.9318 8.26489 31.3863 8.26489 31.8484C8.26489 31.8939 8.26489 31.9318 8.26489 31.9772C8.26489 32.0378 8.23458 32.0833 8.1664 32.0833C7.90882 32.0833 7.65882 32.0833 7.40125 32.0833C7.32549 32.0833 7.29519 32.0378 7.29519 31.9696C7.29519 31.9242 7.29519 31.8863 7.29519 31.8409C7.29519 30.9242 7.29519 29.9999 7.29519 29.0833C7.29519 29.0454 7.29519 29.0075 7.29519 28.9772C7.29519 28.8939 7.25731 28.856 7.17398 28.856C7.09822 28.856 7.01489 28.856 6.93913 28.856C6.80276 28.8484 6.77246 28.8257 6.77246 28.6969C6.77246 28.4696 6.77246 28.2499 6.77246 28.0227C6.77246 27.9015 6.80276 27.8787 6.92398 27.8712C6.96943 27.8712 7.00731 27.8712 7.05276 27.8712C7.29519 27.8712 7.29519 27.8712 7.29519 27.6363C7.29519 27.356 7.29519 27.0833 7.29519 26.803C7.29519 26.5075 7.37852 26.2424 7.52246 25.9924C7.87852 25.3939 8.62852 25.0909 9.29519 25.2878C9.37852 25.3106 9.46943 25.3333 9.55276 25.3787C9.62095 25.409 9.64367 25.4545 9.61337 25.5227C9.48458 25.7575 9.3558 25.9848 9.22701 26.2196C9.18913 26.2803 9.15125 26.2803 9.09064 26.2499C8.96186 26.1969 8.83307 26.1969 8.70428 26.2348C8.43913 26.3181 8.28761 26.5151 8.27246 26.803C8.26489 27.1136 8.27246 27.4318 8.26489 27.7499C8.26489 27.8409 8.31034 27.8787 8.40125 27.8787C8.60579 27.8787 8.81034 27.8787 9.01489 27.8787C9.18913 27.8787 9.1967 27.8939 9.1967 28.0681C9.1967 28.2727 9.1967 28.4772 9.1967 28.6818C9.1967 28.8333 9.17398 28.8484 9.03004 28.856C8.84064 28.856 8.65125 28.856 8.46943 28.856C8.26489 28.856 8.26489 28.856 8.26489 29.053C8.26489 29.5227 8.26489 30 8.26489 30.4696Z" fill="#42474C"/>
<path d="M30.7118 30.7197C30.8178 30.7197 30.9315 30.7197 31.0375 30.7197C31.1209 30.7197 31.1588 30.75 31.1663 30.8333C31.2421 31.3258 31.7497 31.447 32.1209 31.2576C32.3557 31.1288 32.4163 30.8333 32.2497 30.6212C32.1512 30.5 32.0148 30.4394 31.8709 30.3864C31.6209 30.2879 31.3633 30.2273 31.1209 30.1212C30.9012 30.0227 30.7118 29.894 30.5603 29.7046C30.1815 29.2424 30.2648 28.3409 30.9694 28.0076C31.4921 27.7652 32.0375 27.7652 32.5678 28.0152C32.9542 28.197 33.1512 28.5303 33.1891 28.9546C33.1966 29.0682 33.1739 29.0985 33.0603 29.0985C32.8406 29.1061 32.6209 29.0985 32.4088 29.0985C32.3178 29.0985 32.28 29.0606 32.2648 28.9773C32.2118 28.7273 32.0754 28.6212 31.8254 28.6136C31.6891 28.6061 31.5603 28.6061 31.4391 28.6818C31.2118 28.8182 31.1891 29.0909 31.3936 29.2576C31.4921 29.3409 31.6133 29.3864 31.7269 29.4394C31.9997 29.553 32.28 29.6591 32.5451 29.7879C32.8254 29.9167 33.0527 30.1136 33.1663 30.4167C33.1966 30.5 33.2497 30.6061 33.2497 30.697C33.2572 30.894 33.2497 31.053 33.1966 31.2424C33.1209 31.5 32.9694 31.7046 32.7497 31.8636C32.2194 32.2576 31.3254 32.2727 30.78 31.894C30.4466 31.6591 30.2648 31.3409 30.2345 30.9394C30.2194 30.7576 30.2421 30.7349 30.4163 30.7349C30.5224 30.7121 30.6133 30.7197 30.7118 30.7197Z" fill="#42474C"/>
<path d="M9.79545 29.9773C9.79545 29.3409 9.79545 28.7045 9.79545 28.0682C9.79545 27.8788 9.80303 27.8712 9.98485 27.8712C10.197 27.8712 10.4091 27.8712 10.6212 27.8712C10.7576 27.8712 10.7651 27.8788 10.7727 28.0152C10.7803 28.0833 10.7348 28.1818 10.803 28.2121C10.8712 28.2424 10.9167 28.1439 10.9697 28.0985C11.1894 27.9242 11.4318 27.8409 11.7121 27.8409C11.803 27.8409 11.8485 27.8712 11.8409 27.9697C11.8333 28.1818 11.8409 28.3939 11.8409 28.6061C11.8409 28.7273 11.8182 28.7424 11.6894 28.7652C11.6212 28.7727 11.5606 28.7879 11.4924 28.7955C11.0606 28.8788 10.8106 29.25 10.7727 29.6288C10.7651 29.7576 10.7651 29.8939 10.7651 30.0303C10.7651 30.6364 10.7651 31.2424 10.7651 31.8485C10.7651 31.8939 10.7651 31.947 10.7651 31.9924C10.7651 32.053 10.7348 32.0833 10.6742 32.0833C10.4167 32.0833 10.1515 32.0833 9.89394 32.0833C9.82575 32.0833 9.79545 32.0455 9.79545 31.9773C9.79545 31.9318 9.79545 31.8939 9.79545 31.8485C9.79545 31.2273 9.79545 30.6061 9.79545 29.9773Z" fill="#42474C"/>
<path d="M12.666 10.8935C12.6281 10.9541 12.5827 11.0223 12.5448 11.0904C12.3327 11.4617 12.2039 11.8859 12.1584 12.3329L15.3251 8.22681C14.2494 8.90863 13.3403 9.81772 12.666 10.8935Z" fill="url(#paint0_linear_678_697)"/>
<path d="M12.666 10.8935C12.6281 10.9541 12.5827 11.0223 12.5448 11.0904C12.3327 11.4617 12.2039 11.8859 12.1584 12.3329L15.3251 8.22681C14.2494 8.90863 13.3403 9.81772 12.666 10.8935Z" fill="url(#paint1_linear_678_697)"/>
<path d="M12.666 10.8935C12.6281 10.9541 12.5827 11.0223 12.5448 11.0904C12.3327 11.4617 12.2039 11.8859 12.1584 12.3329L15.3251 8.22681C14.2494 8.90863 13.3403 9.81772 12.666 10.8935Z" fill="url(#paint2_linear_678_697)"/>
<path d="M11.7723 16.9924C11.7495 17.0909 11.7344 17.1894 11.7192 17.2955C11.7117 17.3485 11.7117 17.4091 11.7117 17.4621C11.7117 17.6288 11.7344 17.7955 11.7723 17.947C11.795 18.0379 11.8253 18.1288 11.8632 18.2197C13.0299 21.4924 16.1586 23.8409 19.8329 23.8409C20.0905 23.8409 20.3556 23.8258 20.6056 23.803L11.7723 16.9924Z" fill="url(#paint3_linear_678_697)"/>
<path d="M11.7723 16.9924C11.7495 17.0909 11.7344 17.1894 11.7192 17.2955C11.7117 17.3485 11.7117 17.4091 11.7117 17.4621C11.7117 17.6288 11.7344 17.7955 11.7723 17.947C11.795 18.0379 11.8253 18.1288 11.8632 18.2197C13.0299 21.4924 16.1586 23.8409 19.8329 23.8409C20.0905 23.8409 20.3556 23.8258 20.6056 23.803L11.7723 16.9924Z" fill="url(#paint4_linear_678_697)"/>
<path d="M11.7723 16.9924C11.7495 17.0909 11.7344 17.1894 11.7192 17.2955C11.7117 17.3485 11.7117 17.4091 11.7117 17.4621C11.7117 17.6288 11.7344 17.7955 11.7723 17.947C11.795 18.0379 11.8253 18.1288 11.8632 18.2197C13.0299 21.4924 16.1586 23.8409 19.8329 23.8409C20.0905 23.8409 20.3556 23.8258 20.6056 23.803L11.7723 16.9924Z" fill="url(#paint5_linear_678_697)"/>
<path d="M23.878 22.8106C26.5068 21.3788 28.2871 18.5909 28.2871 15.3864C28.2871 12.1818 26.5068 9.39394 23.878 7.96213C22.6735 7.30304 21.2947 6.93182 19.8326 6.93182C18.1735 6.93182 16.628 7.4091 15.325 8.23485L12.1583 12.3409C12.1508 12.4394 12.1432 12.5379 12.1432 12.6439C12.1432 12.8712 12.1659 13.0985 12.2114 13.3106C12.2189 13.3636 12.2341 13.4091 12.2492 13.4621C12.2568 13.5 12.272 13.5455 12.2795 13.5833C12.3553 13.947 12.4008 14.3182 12.4008 14.7046C12.4008 15.0152 12.378 15.3106 12.325 15.6061C12.272 15.9091 12.1583 16.1894 11.9992 16.4545C11.8932 16.6212 11.8174 16.803 11.772 17L20.6053 23.803C21.7795 23.697 22.8856 23.3485 23.878 22.8106Z" fill="url(#paint6_linear_678_697)"/>
<path d="M23.878 22.8106C26.5068 21.3788 28.2871 18.5909 28.2871 15.3864C28.2871 12.1818 26.5068 9.39394 23.878 7.96213C22.6735 7.30304 21.2947 6.93182 19.8326 6.93182C18.1735 6.93182 16.628 7.4091 15.325 8.23485L12.1583 12.3409C12.1508 12.4394 12.1432 12.5379 12.1432 12.6439C12.1432 12.8712 12.1659 13.0985 12.2114 13.3106C12.2189 13.3636 12.2341 13.4091 12.2492 13.4621C12.2568 13.5 12.272 13.5455 12.2795 13.5833C12.3553 13.947 12.4008 14.3182 12.4008 14.7046C12.4008 15.0152 12.378 15.3106 12.325 15.6061C12.272 15.9091 12.1583 16.1894 11.9992 16.4545C11.8932 16.6212 11.8174 16.803 11.772 17L20.6053 23.803C21.7795 23.697 22.8856 23.3485 23.878 22.8106Z" fill="url(#paint7_linear_678_697)"/>
<path d="M23.878 22.8106C26.5068 21.3788 28.2871 18.5909 28.2871 15.3864C28.2871 12.1818 26.5068 9.39394 23.878 7.96213C22.6735 7.30304 21.2947 6.93182 19.8326 6.93182C18.1735 6.93182 16.628 7.4091 15.325 8.23485L12.1583 12.3409C12.1508 12.4394 12.1432 12.5379 12.1432 12.6439C12.1432 12.8712 12.1659 13.0985 12.2114 13.3106C12.2189 13.3636 12.2341 13.4091 12.2492 13.4621C12.2568 13.5 12.272 13.5455 12.2795 13.5833C12.3553 13.947 12.4008 14.3182 12.4008 14.7046C12.4008 15.0152 12.378 15.3106 12.325 15.6061C12.272 15.9091 12.1583 16.1894 11.9992 16.4545C11.8932 16.6212 11.8174 16.803 11.772 17L20.6053 23.803C21.7795 23.697 22.8856 23.3485 23.878 22.8106Z" fill="url(#paint8_linear_678_697)"/>
<path d="M23.878 22.8106C26.5068 21.3788 28.2871 18.5909 28.2871 15.3864C28.2871 12.1818 26.5068 9.39394 23.878 7.96213C22.6735 7.30304 21.2947 6.93182 19.8326 6.93182C18.1735 6.93182 16.628 7.4091 15.325 8.23485L12.1583 12.3409C12.1508 12.4394 12.1432 12.5379 12.1432 12.6439C12.1432 12.8712 12.1659 13.0985 12.2114 13.3106C12.2189 13.3636 12.2341 13.4091 12.2492 13.4621C12.2568 13.5 12.272 13.5455 12.2795 13.5833C12.3553 13.947 12.4008 14.3182 12.4008 14.7046C12.4008 15.0152 12.378 15.3106 12.325 15.6061C12.272 15.9091 12.1583 16.1894 11.9992 16.4545C11.8932 16.6212 11.8174 16.803 11.772 17L20.6053 23.803C21.7795 23.697 22.8856 23.3485 23.878 22.8106Z" fill="url(#paint9_linear_678_697)"/>
<defs>
<linearGradient id="paint0_linear_678_697" x1="23.6401" y1="24.3943" x2="17.0463" y2="14.9933" gradientUnits="userSpaceOnUse">
<stop offset="0.055446" stop-color="#8214FF"/>
<stop offset="0.1965" stop-color="#A424D9"/>
<stop offset="0.3595" stop-color="#C434B4"/>
<stop offset="0.523" stop-color="#DE4097"/>
<stop offset="0.685" stop-color="#F04983"/>
<stop offset="0.8448" stop-color="#FB4E76"/>
<stop offset="1" stop-color="#FF5072"/>
</linearGradient>
<linearGradient id="paint1_linear_678_697" x1="23.8325" y1="2.78673" x2="16.5658" y2="8.17413" gradientUnits="userSpaceOnUse">
<stop offset="0.2972" stop-color="#136BFB"/>
<stop offset="0.3012" stop-color="#156BFA" stop-opacity="0.9944"/>
<stop offset="0.4521" stop-color="#5B63D1" stop-opacity="0.7797"/>
<stop offset="0.5945" stop-color="#955CAF" stop-opacity="0.577"/>
<stop offset="0.7245" stop-color="#C35795" stop-opacity="0.392"/>
<stop offset="0.8395" stop-color="#E45382" stop-opacity="0.2284"/>
<stop offset="0.9352" stop-color="#F85176" stop-opacity="0.0921397"/>
<stop offset="1" stop-color="#FF5072" stop-opacity="0"/>
</linearGradient>
<linearGradient id="paint2_linear_678_697" x1="11.9558" y1="8.90594" x2="21.4019" y2="16.1841" gradientUnits="userSpaceOnUse">
<stop offset="0.1359" stop-color="#FFE663"/>
<stop offset="0.2336" stop-color="#FDD864" stop-opacity="0.8525"/>
<stop offset="0.4188" stop-color="#F8B368" stop-opacity="0.5732"/>
<stop offset="0.6697" stop-color="#F0776F" stop-opacity="0.1945"/>
<stop offset="0.7986" stop-color="#EB5672" stop-opacity="0"/>
</linearGradient>
<linearGradient id="paint3_linear_678_697" x1="20.144" y1="26.847" x2="13.5502" y2="17.446" gradientUnits="userSpaceOnUse">
<stop offset="0.055446" stop-color="#8214FF"/>
<stop offset="0.1965" stop-color="#A424D9"/>
<stop offset="0.3595" stop-color="#C434B4"/>
<stop offset="0.523" stop-color="#DE4097"/>
<stop offset="0.685" stop-color="#F04983"/>
<stop offset="0.8448" stop-color="#FB4E76"/>
<stop offset="1" stop-color="#FF5072"/>
</linearGradient>
<linearGradient id="paint4_linear_678_697" x1="29.5459" y1="10.4934" x2="22.2792" y2="15.8808" gradientUnits="userSpaceOnUse">
<stop offset="0.2972" stop-color="#136BFB"/>
<stop offset="0.3012" stop-color="#156BFA" stop-opacity="0.9944"/>
<stop offset="0.4521" stop-color="#5B63D1" stop-opacity="0.7797"/>
<stop offset="0.5945" stop-color="#955CAF" stop-opacity="0.577"/>
<stop offset="0.7245" stop-color="#C35795" stop-opacity="0.392"/>
<stop offset="0.8395" stop-color="#E45382" stop-opacity="0.2284"/>
<stop offset="0.9352" stop-color="#F85176" stop-opacity="0.0921397"/>
<stop offset="1" stop-color="#FF5072" stop-opacity="0"/>
</linearGradient>
<linearGradient id="paint5_linear_678_697" x1="7.28836" y1="14.9644" x2="16.7344" y2="22.2425" gradientUnits="userSpaceOnUse">
<stop offset="0.1359" stop-color="#FFE663"/>
<stop offset="0.2336" stop-color="#FDD864" stop-opacity="0.8525"/>
<stop offset="0.4188" stop-color="#F8B368" stop-opacity="0.5732"/>
<stop offset="0.6697" stop-color="#F0776F" stop-opacity="0.1945"/>
<stop offset="0.7986" stop-color="#EB5672" stop-opacity="0"/>
</linearGradient>
<linearGradient id="paint6_linear_678_697" x1="25.7055" y1="22.946" x2="19.1118" y2="13.545" gradientUnits="userSpaceOnUse">
<stop offset="0.055446" stop-color="#8214FF"/>
<stop offset="0.1965" stop-color="#A424D9"/>
<stop offset="0.3595" stop-color="#C434B4"/>
<stop offset="0.523" stop-color="#DE4097"/>
<stop offset="0.685" stop-color="#F04983"/>
<stop offset="0.8448" stop-color="#FB4E76"/>
<stop offset="1" stop-color="#FF5072"/>
</linearGradient>
<linearGradient id="paint7_linear_678_697" x1="28.4466" y1="9.01101" x2="21.1799" y2="14.3984" gradientUnits="userSpaceOnUse">
<stop offset="0.2972" stop-color="#136BFB"/>
<stop offset="0.3012" stop-color="#156BFA" stop-opacity="0.9944"/>
<stop offset="0.4521" stop-color="#5B63D1" stop-opacity="0.7797"/>
<stop offset="0.5945" stop-color="#955CAF" stop-opacity="0.577"/>
<stop offset="0.7245" stop-color="#C35795" stop-opacity="0.392"/>
<stop offset="0.8395" stop-color="#E45382" stop-opacity="0.2284"/>
<stop offset="0.9352" stop-color="#F85176" stop-opacity="0.0921397"/>
<stop offset="1" stop-color="#FF5072" stop-opacity="0"/>
</linearGradient>
<linearGradient id="paint8_linear_678_697" x1="32.1706" y1="15.5877" x2="23.1264" y2="15.4182" gradientUnits="userSpaceOnUse">
<stop offset="0.2972" stop-color="#136BFB"/>
<stop offset="0.3012" stop-color="#156BFA" stop-opacity="0.9944"/>
<stop offset="0.4521" stop-color="#5B63D1" stop-opacity="0.7797"/>
<stop offset="0.5945" stop-color="#955CAF" stop-opacity="0.577"/>
<stop offset="0.7245" stop-color="#C35795" stop-opacity="0.392"/>
<stop offset="0.8395" stop-color="#E45382" stop-opacity="0.2284"/>
<stop offset="0.9352" stop-color="#F85176" stop-opacity="0.0921397"/>
<stop offset="1" stop-color="#FF5072" stop-opacity="0"/>
</linearGradient>
<linearGradient id="paint9_linear_678_697" x1="12.4477" y1="8.26787" x2="21.8938" y2="15.546" gradientUnits="userSpaceOnUse">
<stop offset="0.1359" stop-color="#FFE663"/>
<stop offset="0.2336" stop-color="#FDD864" stop-opacity="0.8525"/>
<stop offset="0.4188" stop-color="#F8B368" stop-opacity="0.5732"/>
<stop offset="0.6697" stop-color="#F0776F" stop-opacity="0.1945"/>
<stop offset="0.7986" stop-color="#EB5672" stop-opacity="0"/>
</linearGradient>
</defs>
</svg>
