<svg width="40" height="40" viewBox="0 0 40 40" fill="none" xmlns="http://www.w3.org/2000/svg">
<rect width="40" height="40" fill="#00A082"/>
<path fill-rule="evenodd" clip-rule="evenodd" d="M5.73779 20.6231V20.6057C5.73779 18.8546 7.09845 17.3722 9.0138 17.3722C9.96665 17.3722 10.6006 17.5945 11.1823 18.0061C11.3254 18.1105 11.4085 18.2767 11.4085 18.4526C11.4085 18.7483 11.163 18.9976 10.8557 18.9976C10.7108 18.9976 10.6025 18.9358 10.5117 18.872C10.1039 18.5782 9.65934 18.3811 8.96935 18.3811C7.7981 18.3811 6.90904 19.39 6.90904 20.5864V20.6038C6.90904 21.889 7.77104 22.8361 9.06792 22.8361C9.66707 22.8361 10.2102 22.6486 10.6006 22.3626V21.1932H9.34817C9.07565 21.1932 8.84952 20.9884 8.84952 20.7197C8.84952 20.4511 9.07565 20.2365 9.34817 20.2365H11.1166C11.4336 20.2365 11.6791 20.4781 11.6791 20.7912V22.4611C11.6791 22.7742 11.5515 22.9965 11.2886 23.1569C10.7436 23.5145 9.98211 23.8353 9.02926 23.8353C7.04433 23.8372 5.73779 22.4437 5.73779 20.6231ZM12.6802 17.7027C12.6802 17.4089 12.916 17.1673 13.2233 17.1673C13.5326 17.1673 13.7761 17.4089 13.7761 17.7027V23.24C13.7761 23.5435 13.5306 23.7754 13.2233 23.7754C12.9238 23.7754 12.6802 23.5435 12.6802 23.24V17.7027ZM14.6284 21.4001V21.3807C14.6284 20.0317 15.7166 18.9165 17.1874 18.9165C18.6563 18.9165 19.7367 20.0143 19.7367 21.3633V21.3807C19.7367 22.7201 18.6486 23.8372 17.1681 23.8372C15.7088 23.8372 14.6284 22.7394 14.6284 21.4001ZM18.6389 21.4001V21.3807C18.6389 20.5496 18.0301 19.8635 17.1681 19.8635C16.2887 19.8635 15.7262 20.5419 15.7262 21.3633V21.3807C15.7262 22.2021 16.3351 22.8902 17.1874 22.8902C18.0765 22.8902 18.6389 22.2118 18.6389 21.4001ZM22.4773 23.8199H22.4232C22.1236 23.8199 21.9246 23.6324 21.797 23.3463L20.2006 19.7476C20.1735 19.6664 20.1368 19.5775 20.1368 19.4789C20.1368 19.2102 20.3822 18.9609 20.6818 18.9609C20.9814 18.9609 21.136 19.131 21.2268 19.3533L22.4599 22.4785L23.7124 19.3359C23.7935 19.1484 23.9385 18.9609 24.2303 18.9609C24.5299 18.9609 24.7657 19.1851 24.7657 19.4789C24.7657 19.5775 24.729 19.6838 24.7019 19.7379L23.1055 23.3463C22.976 23.6227 22.7769 23.8199 22.4773 23.8199ZM25.1639 21.4001V21.3807C25.1639 20.0317 26.252 18.9165 27.7228 18.9165C29.1917 18.9165 30.2721 20.0143 30.2721 21.3633V21.3807C30.2721 22.7201 29.184 23.8372 27.7054 23.8372C26.2443 23.8372 25.1639 22.7394 25.1639 21.4001ZM29.1743 21.4001V21.3807C29.1743 20.5496 28.5655 19.8635 27.7035 19.8635C26.8241 19.8635 26.2617 20.5419 26.2617 21.3633V21.3807C26.2617 22.2021 26.8685 22.8902 27.7228 22.8902C28.6119 22.8902 29.1743 22.2118 29.1743 21.4001Z" fill="white"/>
<path fill-rule="evenodd" clip-rule="evenodd" d="M32.1078 14.6364C30.9192 14.6364 29.9528 15.5892 29.9528 16.7585C29.9528 17.205 30.0939 17.6321 30.3587 17.9955L30.4167 18.0747L31.5396 19.6344C31.5396 19.6344 31.6768 19.8548 31.9745 19.8548H32.2431C32.5427 19.8548 32.678 19.6344 32.678 19.6344L33.8009 18.0747L33.857 17.9955C34.1218 17.6379 34.2648 17.203 34.2628 16.7585C34.2628 15.5892 33.2965 14.6364 32.1078 14.6364ZM32.995 17.3847L32.935 17.4678L32.1078 18.6178L31.2226 17.3886C31.0873 17.2069 31.0158 16.9866 31.0158 16.7604C31.0158 16.1671 31.5067 15.6839 32.1098 15.6839C32.7128 15.6839 33.2037 16.1671 33.2037 16.7604C33.2018 16.9846 33.1303 17.2011 32.995 17.3847ZM31.5009 20.8115V20.8076C31.5009 20.4907 31.7561 20.2278 32.102 20.2278C32.448 20.2278 32.7012 20.4868 32.7012 20.8038V20.8076C32.7012 21.1227 32.4461 21.3855 32.0982 21.3855C31.7561 21.3836 31.5009 21.1265 31.5009 20.8115Z" fill="white"/>
</svg>
