<svg width="40" height="40" viewBox="0 0 40 40" fill="none" xmlns="http://www.w3.org/2000/svg">
<rect width="40" height="40" fill="white"/>
<path d="M18.7822 3.25454C18.7822 3.23636 18.7822 3.21819 18.7822 3.20001C19.4002 3.20001 20.0181 3.20001 20.6361 3.20001C20.6361 3.21819 20.6361 3.23636 20.6543 3.25454C20.5816 3.34541 20.4907 3.34541 20.3998 3.34541C19.9454 3.36359 19.491 3.36359 19.0548 3.34541C18.9458 3.36359 18.8549 3.34541 18.7822 3.25454Z" fill="#9DE39B"/>
<path d="M22.3996 19.4C21.7087 19.1091 20.9632 19.0182 20.2541 18.8727C19.8723 18.8 19.4723 18.7454 19.0905 18.6545C19.636 18.6182 20.1814 18.5818 20.7451 18.5454C21.8541 18.4909 22.9632 18.4182 24.0723 18.4545C24.6905 18.4727 25.236 18.6727 25.7451 19.0182C26.0723 19.2363 26.2905 19.4909 26.2723 19.9091C26.3632 20.4545 26.2178 20.9818 26.0905 21.5091C25.7632 22.7454 25.1632 23.8363 24.2723 24.7273C22.8905 26.1091 21.236 26.8727 19.2541 26.9091C17.5632 26.9273 16.0723 26.4363 14.7269 25.4C14.5087 25.2363 14.345 25.0363 14.1269 24.8545C13.2541 23.8545 12.545 22.7636 12.1996 21.4545C11.1451 17.4363 13.6541 13.3818 17.7087 12.5091C20.5451 11.9091 23.636 13.2545 25.1451 15.7454C25.1996 15.8182 25.2723 15.8909 25.2541 16C25.1087 16.0182 24.9996 15.8909 24.8905 15.8363C24.0178 15.2727 23.1269 14.7818 22.1087 14.5818C20.4541 14.2545 18.8541 14.4 17.3451 15.1818C15.9814 15.8909 15.145 17.0363 14.945 18.5636C14.7814 19.7091 14.9996 20.8182 15.6905 21.8C15.7996 21.9636 15.8905 22.1454 16.0178 22.3091C16.636 23.0727 17.4723 23.4545 18.3996 23.6727C20.6178 24.1636 22.3814 22.7818 22.9814 21.2909C23.1087 21 23.1996 20.6909 23.1632 20.3636C23.1632 19.8363 22.836 19.5636 22.3996 19.4Z" fill="#54CE50"/>
<path d="M18.7822 3.25454C19.4004 3.25454 20.0371 3.25547 20.6553 3.25547C24.128 3.45547 27.2007 4.63729 29.928 6.80093C29.9462 6.85547 29.9098 6.87365 29.8553 6.89184C29.7098 6.89184 29.6189 6.80093 29.528 6.7282C28.728 6.16456 27.8916 5.67365 26.9826 5.29184C26.4916 5.03729 25.9644 4.91002 25.4553 4.69184C24.328 4.3282 23.1644 4.05547 21.9826 3.96456C18.4007 3.63729 15.0735 4.41911 12.0371 6.36456C8.87346 8.38275 6.70983 11.2191 5.49164 14.7827C5.07346 16.0191 4.8371 17.2737 4.72801 18.5827C4.67346 19.2737 4.70983 19.9464 4.69164 20.6373C4.69164 20.7282 4.70983 20.8373 4.72801 20.9282C4.76437 21.5282 4.8371 22.1282 4.94619 22.71C5.36437 25.0191 6.25528 27.1282 7.60074 29.0555C7.8371 29.4009 8.09164 29.7282 8.30983 30.0737C9.80074 31.8918 11.6007 33.2918 13.728 34.2918C16.0007 35.3646 18.4007 35.8737 20.9098 35.8009C22.528 35.7646 24.0916 35.4918 25.6189 34.9464C25.7098 34.91 25.8007 34.8918 25.8916 34.8737C25.9462 34.8555 25.9644 34.8737 25.9644 34.9282C25.2916 35.2373 24.5826 35.4373 23.8916 35.6373C23.8371 35.7282 23.728 35.7464 23.6371 35.7646C22.8553 35.9646 22.0735 36.0918 21.2735 36.1646C21.0007 36.1827 20.7098 36.2373 20.4371 36.2191C19.728 36.1827 19.0189 36.2373 18.2916 36.1646C16.8371 36.0373 15.4371 35.7282 14.0735 35.2191C12.6735 34.71 11.3644 34.0009 10.1462 33.1282C9.30983 32.4918 8.50983 31.8009 7.76437 31.0737C6.85528 30.11 6.07346 29.0737 5.45528 27.91C5.27346 27.5827 5.09164 27.2555 4.98255 26.8918C4.52801 25.8555 4.10983 24.8191 3.85528 23.71C2.60074 18.1646 3.72801 13.1646 7.4371 8.83729C10.0371 5.78274 13.3826 4.01911 17.3462 3.38274C17.8189 3.3282 18.2913 3.27272 18.7822 3.25454Z" fill="#54CE50"/>
<path d="M18.6181 8.27275C21.5636 7.92729 24.2545 8.58184 26.6726 10.2727C27.6726 10.9637 28.5454 11.8182 29.2726 12.8C29.3454 12.9091 29.4363 13.0182 29.509 13.1273C29.8363 13.4546 30.0363 13.8546 30.2545 14.2546C30.6363 14.9455 30.9272 15.6546 31.1454 16.4182C31.3817 17.2546 31.5272 18.1091 31.6181 18.9818C31.6545 20.2546 31.5636 21.5091 31.2181 22.7455C30.709 24.5637 29.8545 26.1818 28.5636 27.5818C27.0545 29.2182 25.2363 30.3455 23.0908 30.9455C21.7636 31.3091 20.4181 31.4546 19.0545 31.3091C18.8363 31.2909 18.6363 31.2728 18.4181 31.2364C17.5454 31.1091 16.7272 30.8727 15.909 30.5818C14.8908 30.1455 13.9272 29.6364 13.0727 28.9637C12.909 28.8364 12.7636 28.7091 12.6363 28.5455C12.3636 28.2728 12.0545 28.0364 11.8181 27.7455C11.7999 27.6909 11.8181 27.6546 11.8908 27.6727C12.9272 28.6182 14.0727 29.4364 15.3999 29.9273C19.5636 31.4909 23.3999 30.8546 26.8181 28.0182C28.8727 26.3091 30.0726 24.0728 30.5272 21.4546C30.909 19.2 30.6363 17.0182 29.6726 14.9273C29.2545 14.1637 28.8181 13.4 28.2908 12.7273C26.4545 10.4364 24.109 9.0182 21.1999 8.56366C21.0908 8.54547 20.9636 8.52729 20.8727 8.45457C20.1817 8.36366 19.4908 8.38184 18.7999 8.40002C18.7272 8.32729 18.6363 8.40002 18.6181 8.27275Z" fill="#54CE50"/>
<path d="M14.1087 24.8546C14.4178 25.0182 14.6541 25.2909 14.9268 25.4909C15.8905 26.2 16.9632 26.6364 18.1632 26.7818C19.7632 26.9818 21.2541 26.7273 22.6359 25.8909C24.4723 24.7818 25.6359 23.1818 26.0905 21.0909C26.1814 20.7091 26.1632 20.3091 26.2541 19.9273C26.6541 20.1455 26.7996 20.4728 26.7814 20.9455C26.6359 24.2728 24.1087 27.1455 20.8178 27.6728C18.0723 28.1091 15.545 26.8728 14.1087 24.8546Z" fill="#6E6E6E"/>
<path d="M16.0179 22.2909C15.4543 21.7637 15.1452 21.0909 14.9634 20.3455C14.3452 17.7819 15.8543 15.3091 18.4725 14.6364C19.9089 14.2728 21.3634 14.2 22.7816 14.6909C23.6725 15 24.4907 15.4364 25.2361 16.0182C25.4361 16.2909 25.6361 16.5455 25.8179 16.9091C25.1089 16.4364 24.4543 16.0182 23.727 15.7455C21.7089 14.9637 19.6907 15.0728 17.8179 16.1273C15.7452 17.2728 14.9452 19.8546 15.9089 22.0364C15.9452 22.1091 15.9816 22.2 16.0179 22.2909Z" fill="#6E6E6E"/>
<path d="M27.0167 5.23598C27.9258 5.59962 28.7439 6.10871 29.544 6.65416C29.653 6.72689 29.7439 6.79962 29.853 6.87234C29.9258 6.92689 30.053 6.90871 30.0349 7.03598C29.7985 7.05416 29.5985 6.96325 29.3985 6.85416C28.1439 6.2178 26.9076 5.56325 25.5439 5.14507C24.5621 4.85416 23.5803 4.63598 22.5621 4.50871C21.7258 4.39962 20.8712 4.36325 20.0349 4.4178C18.1985 4.54507 16.4167 4.90871 14.7258 5.65416C13.2894 6.27234 11.9621 7.09053 10.7439 8.09053C9.25304 9.34507 8.05304 10.8178 7.0894 12.5087C6.18031 14.1269 5.61667 15.8542 5.2894 17.6542C5.0894 18.8178 5.05304 19.9996 5.10758 21.1633C5.12577 21.7087 5.23486 22.2542 5.2894 22.7996C5.2894 22.836 5.27122 22.8905 5.27122 22.9451C5.16213 23.0905 5.12577 22.9633 5.0894 22.8905C5.01667 22.7451 5.05304 22.5814 4.96213 22.436C4.8894 22.2723 4.90758 22.1087 4.90758 21.9269C4.94395 21.3996 4.83486 20.8905 4.85304 20.3814C4.87122 19.5814 4.90758 18.7814 5.01667 17.9814C5.03486 17.8905 5.01667 17.8178 5.01667 17.7269C5.07122 17.0178 5.25304 16.3269 5.47122 15.636C5.63486 15.3633 5.70758 15.0723 5.76213 14.7814C5.83486 14.4178 5.99849 14.0905 6.14395 13.7451C6.79849 12.2542 7.65304 10.9087 8.72577 9.67234C8.76213 9.63598 8.81667 9.59962 8.85304 9.56325C8.99849 9.45416 9.14395 9.34507 9.21667 9.16325C9.39849 8.90871 9.61667 8.69053 9.87122 8.50871C10.053 8.43598 10.1621 8.29052 10.2712 8.14507C10.9621 7.50871 11.7439 6.96325 12.5439 6.47234C13.9803 5.59962 15.5076 4.99962 17.1439 4.6178C17.7621 4.50871 18.3803 4.38143 18.9985 4.30871C19.9439 4.2178 20.8712 4.16325 21.8349 4.23598C22.8349 4.30871 23.7985 4.45416 24.7803 4.69053C25.4894 4.85416 26.1985 5.07234 26.9076 5.25416C26.9439 5.25416 26.9803 5.25416 27.0167 5.23598Z" fill="#EDEDED"/>
<path d="M31.0904 16.3818C30.8358 15.6727 30.5813 14.9636 30.2176 14.2909C29.9994 13.8909 29.7631 13.5091 29.5449 13.1273C29.6722 13.1455 29.7267 13.2182 29.7994 13.3091C30.7631 14.6727 31.3994 16.1455 31.7449 17.7818C31.9449 18.7455 32.0176 19.7273 31.9631 20.7091C31.9085 21.6182 31.7631 22.4909 31.5085 23.3636C31.0722 24.8727 30.3631 26.2182 29.3813 27.4364C28.4358 28.6 27.3085 29.5636 25.9813 30.3091C24.7085 31.0182 23.3631 31.4546 21.9267 31.6727C20.9631 31.8182 19.9813 31.8 19.0176 31.6909C17.6903 31.5636 16.4358 31.1636 15.254 30.5636C14.4358 30.1455 13.654 29.6364 12.9994 28.9818C12.854 28.8364 12.7085 28.6909 12.654 28.4909C13.4722 29.1273 14.3267 29.7273 15.2722 30.1636C15.4903 30.2546 15.6903 30.3455 15.9085 30.4546C16.3267 30.7455 16.7994 30.9091 17.2722 31.0727C18.0722 31.3273 18.8722 31.4727 19.7085 31.5273C22.2358 31.6909 24.5267 31.0182 26.6176 29.6546C28.1994 28.6182 29.4176 27.2546 30.3267 25.5818C31.0176 24.3273 31.454 22.9818 31.6176 21.5455C31.8358 19.7818 31.6722 18.0546 31.0904 16.3818Z" fill="#E8E8E8"/>
<path d="M4.99926 26.9091C5.38108 27.6 5.72653 28.3091 6.18108 28.9637C6.69017 29.6909 7.23562 30.4 7.83562 31.0546C8.29017 31.6364 8.85381 32.1091 9.39926 32.5818C10.3811 33.4182 11.4356 34.1455 12.5811 34.7273C14.0174 35.4728 15.5265 35.9818 17.1265 36.2546C18.6538 36.5273 20.1993 36.5637 21.7993 36.3273C21.6902 36.3091 21.6356 36.3273 21.5629 36.3273C21.4902 36.3091 21.4174 36.2909 21.3447 36.2546C21.2902 36.2182 21.2356 36.1818 21.2902 36.0909C22.1811 36 23.0356 35.8364 23.9084 35.6364C24.2902 35.7455 24.6356 35.5818 25.0174 35.5455C25.2174 35.5273 25.3993 35.5091 25.6174 35.5091C25.5811 35.6728 25.4538 35.6909 25.3447 35.7455C24.3265 36.2 23.2356 36.4728 22.1265 36.6182C21.3993 36.7091 20.672 36.8 19.9447 36.7818C17.6902 36.7273 15.5265 36.3091 13.4538 35.4C11.8902 34.7091 10.472 33.8182 9.19926 32.7091C7.43562 31.1818 6.05381 29.3637 5.07199 27.2364C4.99926 27.1455 4.9629 27.0364 4.99926 26.9091Z" fill="#EDEDED"/>
<path d="M20.8731 8.3818C23.0185 8.63634 24.9094 9.45453 26.5822 10.8182C27.8185 11.8182 28.7822 13.0363 29.4913 14.4545C29.564 14.6 29.6185 14.7273 29.6731 14.8727C29.4731 14.7454 29.4185 14.5273 29.2913 14.3273C28.2913 12.6727 26.9822 11.3273 25.2913 10.3454C23.9094 9.54544 22.4185 9.07271 20.8367 8.81816C20.6549 8.7818 20.4731 8.76362 20.3094 8.65453C20.4549 8.43634 20.8003 8.67271 20.8731 8.3818Z" fill="#EAEAEA"/>
<path d="M5.03702 22.4182C5.14611 22.5637 5.09157 22.7273 5.14611 22.8909C5.18247 22.9819 5.21884 22.9637 5.27338 22.9455C5.43702 23.7273 5.61884 24.5273 5.87338 25.2909C6.40066 26.9091 7.21884 28.3819 8.20066 29.7819C8.27338 29.8728 8.34611 29.9637 8.34611 30.0909C7.61884 29.2909 7.0552 28.3819 6.54611 27.4546C5.78248 26.0728 5.27338 24.5819 4.94611 23.0364C4.92793 22.9455 4.92793 22.8728 4.92793 22.7819C4.96429 22.6364 4.94611 22.5091 5.03702 22.4182Z" fill="#E9E9E9"/>
<path d="M22.3996 19.4C23.0541 19.5273 23.2175 19.7091 23.1811 20.3454C22.0721 19.9818 20.9084 19.7818 19.763 19.5636C20.6357 19.5091 21.5269 19.4545 22.3996 19.4Z" fill="#6F6F6F"/>
<path d="M11.8904 27.6179C11.8723 27.6361 11.8359 27.6542 11.8177 27.6906C11.4724 27.3998 11.218 27.0363 10.9817 26.6546C11.2907 26.9817 11.5996 27.3089 11.8904 27.6179Z" fill="#6FD66C"/>
<path d="M30.0366 7.03629C29.982 6.98176 29.9275 6.92724 29.8548 6.87271C29.873 6.85454 29.8912 6.83636 29.9093 6.81819C30.2547 7.07264 30.5818 7.34527 30.8544 7.69059C30.5818 7.45432 30.3092 7.25439 30.0366 7.03629Z" fill="#81DA7E"/>
<path d="M18.6181 8.27275C18.6545 8.34545 18.7267 8.30907 18.7994 8.32724C18.3814 8.38177 17.9816 8.43629 17.5635 8.50899C17.9089 8.36359 18.2546 8.27275 18.6181 8.27275Z" fill="#9AE298"/>
<path d="M25.9823 34.9272C25.9641 34.9091 25.9459 34.8909 25.9096 34.8727C26.1459 34.7818 26.3823 34.6727 26.6187 34.5818C26.6732 34.5636 26.6914 34.5818 26.6732 34.6363C26.4368 34.7454 26.2005 34.8363 25.9823 34.9272Z" fill="#77D873"/>
<path d="M26.6732 34.6363C26.655 34.6181 26.6368 34.6 26.6187 34.5818C26.7823 34.4909 26.964 34.4 27.1822 34.4C27.0004 34.4909 26.8368 34.5636 26.6732 34.6363Z" fill="#AEE8AC"/>
<path d="M4.69069 20.9089C4.5816 20.2543 4.61797 19.5816 4.65433 18.9271C4.72706 17.3998 5.01797 15.9271 5.54524 14.4907C7.21797 9.92706 10.2907 6.72706 14.7998 4.90887C16.9816 4.03615 19.2543 3.74524 21.5816 3.85433C21.7089 3.85433 21.8543 3.89069 21.9816 3.90887C21.8907 4.12706 21.7089 4.09069 21.5452 4.09069C21.1089 4.10887 20.6725 4.12706 20.2543 4.14524C18.3452 4.23615 16.4907 4.63615 14.7271 5.36342C13.2361 5.9816 11.8543 6.81797 10.618 7.85433C9.09069 9.10888 7.87251 10.5816 6.90887 12.2725C5.99978 13.8543 5.3816 15.5634 5.07251 17.3452C4.92706 18.1998 4.7816 19.0543 4.83615 19.9271C4.83615 20.2543 4.81797 20.5998 4.69069 20.9089Z" fill="#DADADA"/>
<path d="M4.69069 20.9089C4.76342 19.618 4.78139 18.327 5.05412 17.0725C5.41775 15.3816 5.98139 13.7816 6.83593 12.2725C7.6723 10.8179 8.69048 9.49066 9.90866 8.36339C10.8905 7.4543 11.9814 6.6543 13.1814 6.01794C14.3268 5.39975 15.5087 4.90884 16.7814 4.59975C17.6541 4.38157 18.5268 4.21794 19.4178 4.14521C20.145 4.07248 20.8541 4.01794 21.5814 4.03612C21.7268 4.03612 21.8723 3.99975 21.9996 3.92703C23.2178 4.01794 24.3996 4.2543 25.545 4.67248C25.3814 4.81794 25.1814 4.76339 24.9996 4.72703C24.3087 4.58157 23.6178 4.4543 22.9268 4.36339C21.9814 4.2543 21.0541 4.18157 20.1087 4.23612C19.1087 4.30884 18.1087 4.41794 17.145 4.67248C16.2723 4.90884 15.4178 5.18157 14.5814 5.52703C13.2723 6.07248 12.0723 6.81794 10.945 7.70884C10.745 7.87248 10.5087 7.99975 10.3632 8.21794C10.1996 8.30884 10.1087 8.47248 9.96321 8.56339C9.72684 8.74521 9.50866 8.96339 9.32684 9.19975C9.23593 9.34521 9.0723 9.4543 8.98139 9.59975C8.63593 9.90884 8.36321 10.2907 8.09048 10.6543C7.18139 11.8725 6.4723 13.1816 5.94502 14.5998C5.92684 14.6543 5.92684 14.7088 5.90866 14.7634C5.79957 15.0543 5.70866 15.3452 5.61775 15.6361C5.39957 16.127 5.32684 16.6361 5.21775 17.1634C5.18139 17.327 5.12684 17.4907 5.16321 17.6725C4.96321 18.7998 4.92684 19.9452 4.98139 21.0907C4.99957 21.3816 4.98139 21.6907 5.05412 21.9634C5.0723 22.1088 4.99957 22.2907 5.10866 22.4361C5.09048 22.5634 5.14502 22.7088 4.98139 22.7816C4.76321 22.1634 4.69069 21.5452 4.69069 20.9089Z" fill="#E4E4E4"/>
<path d="M10.1458 33.0727C11.1094 33.7273 12.0912 34.3273 13.164 34.8C14.6367 35.4363 16.164 35.8545 17.7458 36.0545C18.6367 36.1636 19.5094 36.1636 20.4003 36.1636C20.4003 36.2 20.4003 36.2363 20.364 36.2363C19.7458 36.3454 19.164 36.6 18.5094 36.4909C17.9094 36.3818 17.3094 36.3636 16.7094 36.2363C15.4912 35.9818 14.3276 35.6 13.2003 35.0909C12.164 34.6182 11.2003 34.0545 10.3094 33.3636C10.2367 33.2909 10.0549 33.2545 10.1458 33.0727Z" fill="#E1E1E1"/>
<path d="M10.1458 33.0727C10.273 33.3273 10.5087 33.4545 10.7268 33.6C12.6541 34.9636 14.7996 35.8363 17.1087 36.2545C17.7996 36.3818 18.5087 36.4545 19.2178 36.4363C19.3996 36.4363 19.5996 36.4545 19.7268 36.2545C19.7632 36.1818 19.8723 36.2181 19.945 36.2C20.0905 36.1818 20.2541 36.2545 20.3996 36.1454C20.6905 36.1272 20.9814 36.109 21.2723 36.0909C21.4359 36.3454 21.7087 36.2 21.945 36.2909C21.8178 36.4181 21.6723 36.4181 21.545 36.4363C20.5087 36.6181 19.4723 36.5818 18.4359 36.509C17.4359 36.4363 16.4723 36.2363 15.5268 35.9636C14.2359 35.5999 12.9996 35.0909 11.8359 34.4C10.745 33.7454 9.70866 33 8.78139 32.1272C8.4723 31.8363 8.19957 31.509 7.89048 31.2181C7.83593 31.1636 7.79957 31.109 7.79957 31.0363C8.29048 31.4545 8.70866 31.9454 9.21775 32.3454C9.54502 32.5818 9.85486 32.8363 10.1458 33.0727Z" fill="#E9E9E9"/>
<path d="M17.1089 4.65455C17.5089 4.47273 17.9635 4.43637 18.3999 4.38182C19.3453 4.23637 20.3089 4.16364 21.2726 4.2C22.2544 4.23637 23.218 4.34546 24.1817 4.50909C24.618 4.58182 25.0726 4.69091 25.5271 4.65455C26.0362 4.83637 26.5635 4.96364 27.0362 5.23637C26.8544 5.36364 26.6726 5.23637 26.5089 5.2C25.5635 4.96364 24.6362 4.67273 23.6908 4.50909C23.0908 4.41818 22.4908 4.32728 21.8908 4.29091C21.5089 4.27273 21.1453 4.23637 20.7635 4.23637C19.6362 4.23637 18.5271 4.38182 17.418 4.6C17.3089 4.65455 17.218 4.65455 17.1089 4.65455Z" fill="#E9E9E9"/>
<path d="M18.436 31.1273C20.5814 31.4182 22.6723 31.1818 24.6541 30.2727C28.5087 28.5091 30.745 25.4909 31.436 21.3091C31.5632 20.5454 31.545 19.7636 31.545 19C31.745 19.0727 31.7087 19.2545 31.7087 19.3818C31.836 21.8545 31.2723 24.1454 29.945 26.2545C29.0905 27.6 28.036 28.7273 26.7269 29.6C25.3632 30.5273 23.8541 31.1273 22.2178 31.4C21.145 31.5818 20.0541 31.6364 18.9814 31.4182C18.7814 31.3818 18.545 31.3636 18.436 31.1273Z" fill="#DADADA"/>
<path d="M18.436 31.1273C18.8178 31.3818 19.2729 31.4182 19.7092 31.4546C21.2001 31.6182 22.6365 31.3636 24.0365 30.8909C25.3819 30.4364 26.5819 29.7455 27.6729 28.8182C29.5274 27.2364 30.7274 25.2364 31.3456 22.9091C31.6547 21.7455 31.691 20.5455 31.6547 19.3636C31.6547 19.2364 31.6183 19.1091 31.5456 19.0182C31.4547 18.1273 31.3092 17.2727 31.0729 16.4C31.3456 16.8364 31.4183 17.3273 31.5456 17.8182C31.7638 18.8 31.8365 19.8 31.7638 20.8C31.691 22.1818 31.3638 23.5091 30.8001 24.7818C30.1092 26.3273 29.1274 27.6546 27.8729 28.7818C26.8729 29.6727 25.7274 30.3455 24.491 30.8364C23.3456 31.2909 22.1638 31.5273 20.9274 31.6C19.2547 31.6909 17.6729 31.4364 16.1638 30.7273C16.0365 30.6727 15.9092 30.6182 15.8729 30.4727C16.7274 30.7455 17.5632 31 18.436 31.1273Z" fill="#E7E8E7"/>
<path d="M4.98192 21.9454C4.85465 21.6545 4.89101 21.3454 4.87283 21.0545C4.81828 19.9454 4.85465 18.8545 5.03646 17.7636C5.03646 17.7273 5.07283 17.6909 5.09101 17.6727C5.03646 18.2363 4.96374 18.7818 4.92737 19.3454C4.90919 19.9818 4.87283 20.6182 4.94556 21.2363C5.0001 21.4727 4.98192 21.7091 4.98192 21.9454Z" fill="#E9E9E9"/>
<path d="M5.56339 15.6182C5.59975 15.3091 5.67248 15.0182 5.8543 14.7455C5.79975 15.0545 5.70884 15.3455 5.56339 15.6182Z" fill="#E9E9E9"/>
<path d="M9.90905 8.54731C10.0187 8.40107 10.1101 8.23655 10.3112 8.19999C10.2015 8.34623 10.1101 8.51075 9.90905 8.54731Z" fill="#E9E9E9"/>
<path d="M8.92733 9.60212C8.96389 9.40104 9.12841 9.30964 9.27465 9.19997C9.23809 9.38276 9.07357 9.47416 8.92733 9.60212Z" fill="#E9E9E9"/>
</svg>
