<svg width="40" height="40" viewBox="0 0 40 40" fill="none" xmlns="http://www.w3.org/2000/svg">
<rect width="40" height="40" fill="#DA4440"/>
<path d="M33.0222 8.32297C33.0222 8.166 33.0271 8.00805 33.0222 7.85108C33.0058 7.41309 32.9253 7.30554 32.4854 7.28713C32.0774 7.26531 31.6684 7.27308 31.2616 7.31038C29.1647 7.5284 27.3101 8.38789 25.5833 9.53905C24.0393 10.571 22.6276 11.7884 21.3799 13.164C21.2587 13.2916 21.1027 13.3805 20.9312 13.4198C20.2239 13.5652 19.5107 13.6873 18.7995 13.8074C18.3954 13.8762 18.0369 14.0012 17.7878 14.3607C17.6558 14.5235 17.5117 14.6761 17.3567 14.8171C16.9148 15.2783 16.4681 15.7347 16.033 16.2037C15.8053 16.4489 15.8479 16.6155 16.1522 16.7599C16.2278 16.7958 16.3101 16.8171 16.3886 16.8462C17.0863 17.1 17.7811 17.3646 18.4846 17.6039C18.7452 17.6931 18.7946 17.8423 18.7946 18.0971C18.7957 18.5569 18.8255 19.0161 18.8838 19.4721C18.9235 19.7841 19.0185 19.8074 19.2714 19.6029C19.6376 19.3055 19.9933 18.9954 20.3518 18.6892C21.3547 17.8316 22.3624 16.9789 23.3556 16.1126C23.5432 15.9624 23.6903 15.7677 23.7836 15.5462C23.8768 15.3247 23.9132 15.0834 23.8895 14.8442C23.7345 12.5187 25.7936 10.447 27.7422 9.96153C28.2975 9.82393 28.873 9.79098 29.3624 10.1912C29.9321 10.6582 29.9825 11.2852 29.8343 11.9353C29.6075 12.9353 29.0649 13.759 28.3372 14.4683C27.3682 15.4121 26.2258 15.9518 24.8605 15.8762C24.6466 15.8548 24.4307 15.8863 24.2318 15.9679C24.033 16.0495 23.8572 16.1788 23.72 16.3442C23.2923 16.819 22.8699 17.2984 22.4525 17.7822C21.6825 18.6808 20.9125 19.5794 20.1425 20.4779C19.9031 20.7589 19.9128 20.8733 20.2578 21.0128C20.6084 21.1475 20.9721 21.2449 21.3431 21.3035C21.5727 21.3432 21.6783 21.4159 21.7423 21.6523C21.9642 22.4702 22.2084 23.2831 22.4671 24.0913C22.5688 24.4062 22.7365 24.4362 22.9855 24.2298C23.719 23.6203 24.4564 23.0157 25.1764 22.3888C25.322 22.2554 25.4291 22.0854 25.4864 21.8965C25.7209 21.1262 25.9176 20.3461 26.1541 19.571C26.2127 19.3737 26.3267 19.1975 26.4826 19.0632C27.4248 18.3281 28.2967 17.507 29.0872 16.6107C30.25 15.2764 31.2848 13.8646 32.0203 12.2503C32.5881 11.0042 32.9999 9.7125 33.0222 8.32297ZM12.9642 28.2967L13.0359 28.3781L12.067 29.4391C11.1832 30.4081 10.2995 31.3751 9.41582 32.3402C9.30923 32.4575 9.20458 32.5999 9.37318 32.7065C9.45458 32.7579 9.63578 32.7065 9.74237 32.6503C9.88243 32.5573 10.0123 32.4498 10.13 32.3296L14.3063 28.6571C14.9594 28.0825 15.6154 27.5118 16.2627 26.9304C16.4187 26.7889 16.6251 26.6542 16.535 26.38C16.1096 25.0845 16.4119 24.0031 17.4477 23.1039C18.1987 22.4508 18.9099 21.7531 19.6522 21.0894C19.8673 20.8956 19.8847 20.7434 19.6861 20.5448C19.5156 20.3742 19.3421 20.2056 19.1871 20.0206C19.0136 19.8132 18.8906 19.8365 18.7123 20.0332C17.9138 20.922 17.1063 21.8022 16.2898 22.6736C15.535 23.475 14.5805 23.5535 13.5921 23.2919C13.2414 23.1998 13.0447 23.2696 12.8315 23.5147C11.8625 24.6284 10.8884 25.7382 9.90903 26.8442C8.9872 27.8894 8.06473 28.9333 7.14161 29.9759C7.03018 30.1019 6.89452 30.2472 7.05925 30.412C7.22397 30.5767 7.33735 30.4197 7.45362 30.3151C8.62093 29.2537 9.79082 28.1904 10.9633 27.1252C11.1232 26.9808 11.2879 26.8422 11.4478 26.7007C11.4397 26.796 11.3986 26.8855 11.3315 26.9536C10.4865 27.8974 9.64191 28.8403 8.79761 29.7821C8.48269 30.1319 8.15517 30.473 7.85381 30.8344C7.79471 30.9061 7.82765 31.0534 7.81796 31.1658C7.93405 31.1692 8.05023 31.1654 8.16583 31.1542C8.20749 31.1484 8.24238 31.0864 8.28114 31.0515C9.41291 30.0224 10.5434 28.994 11.6726 27.9662C11.8053 27.8471 11.9497 27.7405 12.0883 27.6281L12.1454 27.691C11.8199 28.0534 11.4962 28.4178 11.1677 28.7783C10.3228 29.7085 9.47105 30.6339 8.63675 31.5738C8.56699 31.6523 8.60768 31.8276 8.59702 31.9614C8.71524 31.942 8.86834 31.9614 8.94489 31.8964C9.8257 31.1213 10.6958 30.3335 11.5689 29.5486L12.9642 28.2967Z" fill="black"/>
<path d="M33.0222 8.32297C33.0048 9.7125 32.5921 11.0037 32.0243 12.2537C31.2889 13.871 30.2501 15.2828 29.0912 16.6142C28.3008 17.5105 27.4288 18.3315 26.4866 19.0667C26.3307 19.201 26.2167 19.3772 26.1581 19.5744C25.9217 20.3448 25.7249 21.1248 25.4905 21.9C25.4331 22.0889 25.326 22.2589 25.1804 22.3922C24.4604 23.0153 23.7269 23.6199 22.9895 24.2333C22.7405 24.4397 22.5728 24.4096 22.4711 24.0947C22.2124 23.2866 21.9682 22.4736 21.7463 21.6558C21.6823 21.4194 21.5767 21.3467 21.3471 21.307C20.9761 21.2484 20.6124 21.1509 20.2618 21.0163C19.9169 20.8767 19.9072 20.7624 20.1465 20.4814C20.9133 19.577 21.6833 18.6784 22.4566 17.7857C22.8739 17.3018 23.2963 16.8225 23.724 16.3477C23.8614 16.1842 24.0367 16.0567 24.2346 15.9763C24.4326 15.8959 24.6471 15.8651 24.8596 15.8865C26.2249 15.962 27.3684 15.4223 28.3364 14.4785C29.0641 13.7692 29.6067 12.9456 29.8334 11.9456C29.9817 11.2906 29.9303 10.6636 29.3616 10.2014C28.8722 9.80123 28.2957 9.83417 27.7414 9.97177C25.7928 10.4563 23.7337 12.5328 23.8887 14.8545C23.9124 15.0936 23.876 15.3349 23.7827 15.5564C23.6895 15.778 23.5424 15.9727 23.3548 16.1229C22.3597 16.9892 21.3519 17.8419 20.351 18.6994C19.9924 19.0056 19.6368 19.3157 19.2705 19.6132C19.0176 19.8176 18.9227 19.7944 18.8829 19.4824C18.8247 19.0263 18.7949 18.5671 18.7938 18.1074C18.7938 17.8525 18.7444 17.7033 18.4837 17.6142C17.7802 17.3748 17.0855 17.1103 16.3878 16.8564C16.3093 16.8273 16.227 16.806 16.1514 16.7702C15.8471 16.6258 15.8045 16.4591 16.0322 16.214C16.4673 15.745 16.914 15.2886 17.3558 14.8274C17.5109 14.6863 17.655 14.5338 17.787 14.371C18.0361 14.0105 18.3946 13.8865 18.7986 13.8177C19.5108 13.6965 20.224 13.5745 20.9304 13.4301C21.1019 13.3908 21.2579 13.3018 21.3791 13.1743C22.6242 11.7946 24.034 10.573 25.5767 9.5367C27.3034 8.38457 29.1619 7.52508 31.2549 7.30803C31.6618 7.27073 32.0708 7.26296 32.4788 7.28477C32.9148 7.30318 32.9991 7.41074 33.0156 7.84872C33.0214 8.00764 33.0222 8.166 33.0222 8.32297Z" fill="white"/>
<path d="M12.9562 28.2963L11.5676 29.5453C10.6955 30.3302 9.82343 31.1179 8.94359 31.8931C8.86704 31.96 8.71394 31.9387 8.59572 31.9581C8.60638 31.8272 8.56568 31.6519 8.63545 31.5705C9.46975 30.6305 10.3215 29.7052 11.1664 28.7749C11.4949 28.4145 11.8186 28.0501 12.1441 27.6877L12.087 27.6248C11.9484 27.7372 11.804 27.8437 11.6713 27.9629C10.5376 28.9901 9.40709 30.0185 8.27983 31.0482C8.24107 31.0831 8.20619 31.1451 8.16452 31.1509C8.04893 31.1621 7.93274 31.1659 7.81666 31.1625C7.82635 31.0501 7.7934 30.9028 7.85251 30.8311C8.15387 30.4697 8.48138 30.1286 8.7963 29.7788C9.64449 28.837 10.4917 27.8941 11.338 26.9503C11.405 26.8822 11.4462 26.7927 11.4542 26.6974C11.2914 26.8389 11.1267 26.9775 10.9697 27.1218C9.7921 28.189 8.61736 29.253 7.44554 30.3137C7.32926 30.4193 7.21298 30.5734 7.05116 30.4106C6.88934 30.2478 7.02209 30.1005 7.13352 29.9745C8.05471 28.93 8.97718 27.8861 9.90095 26.8428C10.8764 25.7356 11.8505 24.6257 12.8234 23.5133C13.0366 23.2682 13.2333 23.1984 13.5841 23.2905C14.5724 23.5521 15.5269 23.4736 16.2817 22.6723C17.1002 21.8034 17.9077 20.9232 18.7042 20.0318C18.8825 19.838 19.0055 19.8118 19.179 20.0192C19.334 20.2043 19.5075 20.3729 19.678 20.5434C19.8766 20.742 19.8592 20.8961 19.6441 21.088C18.9019 21.7517 18.1906 22.4446 17.4397 23.1025C16.4038 24.0017 16.1015 25.0831 16.5269 26.3786C16.617 26.6529 16.4106 26.7875 16.2546 26.929C15.6073 27.5104 14.9513 28.0811 14.2982 28.6558L10.1219 32.3282C10.0043 32.4484 9.87434 32.5559 9.73428 32.6489C9.62769 32.7071 9.44358 32.7565 9.3651 32.7051C9.19649 32.5986 9.30114 32.4561 9.40773 32.3389C10.2921 31.3699 11.1758 30.4028 12.0589 29.4377L13.0279 28.3767L12.9562 28.2963Z" fill="white"/>
</svg>
