<svg width="40" height="40" viewBox="0 0 40 40" fill="none" xmlns="http://www.w3.org/2000/svg">
<rect width="40" height="40" fill="white"/>
<path fill-rule="evenodd" clip-rule="evenodd" d="M18.7948 14.9469C18.8006 14.8365 18.7627 14.7283 18.6892 14.6458C18.6157 14.5632 18.5126 14.513 18.4023 14.5061H16.8273C16.2722 14.5475 15.7548 14.8025 15.3838 15.2175C15.0129 15.6326 14.8174 16.1753 14.8384 16.7316V18.5969C14.8343 19.0594 14.9874 19.5096 15.2726 19.8739C15.5577 20.2381 15.958 20.4948 16.408 20.6019V25.3807C14.5838 24.66 13.0479 23.3583 12.0378 21.677C12.4685 23.4233 13.4774 24.9724 14.9004 26.0724C16.3234 27.1723 18.0768 27.7584 19.8752 27.7352C21.0956 27.7345 22.3011 27.4667 23.4069 26.9504C23.5556 26.9229 23.6936 26.854 23.8047 26.7515C24.7792 26.2318 25.6318 25.5105 26.3057 24.6355C26.9795 23.7605 27.4592 22.7519 27.7127 21.677C26.8463 23.1178 25.5904 24.2843 24.0896 25.0421V20.6557C24.3333 20.5497 24.5397 20.3733 24.6824 20.1492C24.8251 19.9251 24.8976 19.6634 24.8906 19.3978V14.9469C24.9034 14.8421 24.8741 14.7365 24.8091 14.6533C24.744 14.5702 24.6486 14.5162 24.5438 14.5034C24.4391 14.4906 24.3335 14.5199 24.2503 14.5849C24.1671 14.6499 24.1132 14.7453 24.1004 14.8501C24.095 14.8822 24.095 14.9149 24.1004 14.9469V17.8389C24.1095 17.9454 24.0772 18.0513 24.0101 18.1345C23.9429 18.2176 23.8462 18.2716 23.7402 18.2851C23.6851 18.2934 23.629 18.2902 23.5752 18.2757C23.5214 18.2612 23.4713 18.2357 23.4278 18.2009C23.3844 18.166 23.3486 18.1226 23.3228 18.0732C23.297 18.0239 23.2817 17.9697 23.2779 17.9142C23.2725 17.8857 23.2725 17.8566 23.2779 17.8282V14.9469C23.29 14.8421 23.26 14.7368 23.1945 14.6541C23.129 14.5715 23.0333 14.5182 22.9285 14.5061C22.824 14.4954 22.7194 14.526 22.6371 14.5912C22.5548 14.6565 22.5012 14.7513 22.4877 14.8555V17.8389C22.4959 17.8927 22.4931 17.9476 22.4795 18.0003C22.4658 18.053 22.4417 18.1024 22.4085 18.1455C22.3752 18.1886 22.3336 18.2246 22.2862 18.2512C22.2387 18.2778 22.1863 18.2945 22.1322 18.3003C22.0781 18.3061 22.0233 18.3009 21.9713 18.285C21.9192 18.2691 21.8709 18.2428 21.8293 18.2077C21.7877 18.1726 21.7536 18.1295 21.7291 18.0809C21.7046 18.0323 21.6902 17.9792 21.6868 17.9249C21.6814 17.8965 21.6814 17.8673 21.6868 17.8389V14.9469C21.6989 14.8421 21.6689 14.7368 21.6033 14.6541C21.5378 14.5715 21.4421 14.5182 21.3374 14.5061C21.2329 14.4954 21.1283 14.526 21.046 14.5912C20.9636 14.6565 20.91 14.7513 20.8966 14.8555V19.3978C20.8901 19.6619 20.9615 19.9221 21.1021 20.1458C21.2426 20.3696 21.446 20.5469 21.6868 20.6557V25.8753C20.7308 26.0615 19.752 26.1014 18.784 25.9935L18.7948 14.9469ZM20.0526 32.3635C22.4182 32.3624 24.7331 31.6772 26.7182 30.3907L29.2877 31.3529C30.137 31.7346 30.6638 31.2669 30.3198 30.3961L29.4329 27.9932C31.2553 25.8426 32.2882 23.1339 32.3602 20.3159C32.4322 17.4979 31.5391 14.7399 29.8289 12.499C28.1187 10.2582 25.694 8.66901 22.9569 7.99497C20.2197 7.32094 17.3344 7.60249 14.7792 8.79297C12.224 9.98345 10.1524 12.0114 8.90762 14.5406C7.66287 17.0698 7.31979 19.9484 7.93525 22.6993C8.55071 25.4502 10.0877 27.9082 12.2916 29.6659C14.4954 31.4236 17.2337 32.3753 20.0526 32.3635Z" fill="#0099A4"/>
</svg>
