<svg width="40" height="40" viewBox="0 0 40 40" fill="none" xmlns="http://www.w3.org/2000/svg">
<rect width="40" height="40" fill="#1AAE48"/>
<path d="M34.6765 18.5238C33.9392 17.7938 32.9718 17.3918 31.9518 17.3918C31.2059 17.3918 30.4564 17.667 30.0445 17.9387C29.1916 18.5014 28.4907 19.1121 27.2289 20.727V21.8878C28.2995 20.5063 29.3126 19.4176 30.0817 18.8189C30.5872 18.4168 31.3044 18.1677 31.9518 18.1677C33.6227 18.1677 35.0349 19.566 35.0349 21.2219V21.9205C35.0349 22.7388 34.7106 23.5074 34.1196 24.0861C33.5346 24.6593 32.764 24.9749 31.9518 24.9749C30.5786 24.9749 29.3699 24.0413 29.0414 22.7663L28.4895 23.4291C28.892 24.765 30.346 25.7507 31.9518 25.7507C32.9718 25.7507 33.9392 25.348 34.6765 24.6195C35.4128 23.8896 35.8181 22.9313 35.8181 21.9205V21.2219C35.8181 20.2116 35.4128 19.2529 34.6765 18.5238ZM17.9005 18.1677C18.4326 18.1677 18.8927 18.2809 19.308 18.5138C19.5032 18.2722 19.7003 18.0759 19.8472 17.9306C19.4078 17.5982 18.6638 17.3918 17.9005 17.3918C16.8127 17.3918 15.825 17.7804 15.1197 18.4865C14.4196 19.1861 14.0329 20.1575 14.0329 21.2219V25.7507H14.8161V21.2219C14.8161 19.4236 16.0844 18.1677 17.9005 18.1677ZM25.3427 25.7507V21.2219C25.3427 19.8296 24.2415 18.7387 22.8358 18.7387C22.1811 18.7387 21.5561 19.0013 21.0745 19.4777C20.5939 19.9538 20.329 20.5739 20.329 21.2219V21.9205C20.329 23.2662 21.4774 24.404 22.8358 24.404C23.2082 24.404 23.7151 24.3132 24.0254 24.061V23.2411C23.7206 23.4838 23.2781 23.6283 22.8358 23.6283C21.8695 23.6283 21.1121 22.8776 21.1121 21.9205V21.2219C21.1121 20.2646 21.8695 19.5152 22.8358 19.5152C23.8028 19.5152 24.5596 20.2646 24.5596 21.2219V25.7507H25.3427ZM4.36353 20.7724V21.023C4.36353 22.368 4.87864 23.6231 5.81451 24.5565C6.74808 25.4879 7.99947 26 9.3381 26C10.4144 26 11.3674 25.7588 12.1719 25.2848C12.8351 24.8931 13.1291 24.4972 13.1544 24.461V20.285H9.14792V21.0611H12.3713V24.2199L12.3681 24.2226C11.9907 24.5971 11.0948 25.2236 9.3381 25.2236C8.19342 25.2236 7.13369 24.7915 6.35223 24.005C5.57474 23.2223 5.14666 22.163 5.14666 21.023V20.7724C5.14666 19.696 5.63688 18.622 6.49094 17.8274C7.363 17.0177 8.4991 16.5713 9.69065 16.5713C10.8019 16.5713 11.576 16.7383 12.1978 17.1114V16.2407C11.5505 15.968 10.7767 15.8455 9.69065 15.8455C6.80332 15.8455 4.36353 18.1022 4.36353 20.7724ZM17.9005 19.5152C18.1976 19.5152 18.4493 19.5639 18.6497 19.6605C18.7472 19.4197 18.8473 19.2212 18.9931 18.9801C18.7801 18.8292 18.2731 18.7387 17.9005 18.7387C16.4715 18.7387 15.3935 19.8062 15.3935 21.2219V25.7507H16.1767V21.2219C16.1767 20.2166 16.8858 19.5152 17.9005 19.5152ZM12.1978 18.6044V17.6871C11.4892 17.3105 10.7159 17.1427 9.69065 17.1427C8.64452 17.1427 7.65278 17.523 6.89705 18.2119C6.1407 18.9032 5.72371 19.8126 5.72371 20.7724V21.023C5.72371 23.0248 7.3448 24.6531 9.3381 24.6531C10.9594 24.6531 11.625 24.1275 11.7944 23.9613V21.6323H9.14792V22.4078H11.0617V23.5748L11.0548 23.5771C10.8086 23.6743 10.2972 23.877 9.3381 23.877C8.57777 23.877 7.8664 23.5841 7.33455 23.0509C6.80018 22.5158 6.50685 21.7952 6.50685 21.023V20.7724C6.50685 19.2255 7.96495 17.9188 9.69065 17.9188C10.8845 17.9188 11.5904 18.1103 12.1978 18.6044ZM30.6849 20.0659C31.0383 19.7167 31.5009 19.5152 31.9518 19.5152C32.918 19.5152 33.6758 20.2646 33.6758 21.2219V21.9205C33.6758 22.8776 32.918 23.6283 31.9518 23.6283C31.4839 23.6283 31.032 23.3736 30.678 22.9133C30.3642 22.5062 30.1608 21.9556 30.1294 21.4607L29.4952 22.2277C29.6197 22.8144 29.9294 23.3767 30.3669 23.7719C30.8184 24.1789 31.3812 24.404 31.9518 24.404C33.3346 24.404 34.4585 23.2898 34.4585 21.9205V21.2219C34.4585 20.5739 34.1936 19.9538 33.713 19.4777C33.2316 19.0013 32.6064 18.7387 31.9518 18.7387C31.5379 18.7387 30.8797 18.8856 30.0953 19.5843L30.0926 19.5869C29.8827 19.795 29.3898 20.2833 29.09 20.6315C28.5857 21.1763 27.853 21.9989 27.2289 22.8219V24.0332C27.9216 23.1516 28.3204 22.6577 28.9715 21.9129C29.5547 21.2389 30.2765 20.4199 30.6849 20.0659ZM18.9694 21.9205C18.9694 22.9313 19.3751 23.8896 20.1114 24.6195C20.8483 25.348 21.816 25.7507 22.8358 25.7507C23.2678 25.7507 23.7116 25.6593 24.0254 25.5061V24.731C23.6589 24.8831 23.2159 24.9749 22.8358 24.9749C21.1649 24.9749 19.7522 23.5764 19.7522 21.9205V21.2219C19.7522 19.566 21.1649 18.1677 22.8358 18.1677C23.6666 18.1677 24.4432 18.4827 25.0226 19.0566C25.6013 19.6298 25.9193 20.3989 25.9193 21.2219V25.7507H26.7025V21.0727C26.6537 20.0843 26.2277 19.1596 25.5032 18.4682C24.7776 17.7742 23.8292 17.3918 22.8358 17.3918C21.816 17.3918 20.8483 17.7938 20.1114 18.5238C19.3751 19.2529 18.9694 20.2116 18.9694 21.2219V21.9205ZM28.0352 18.9173C28.275 18.6322 28.5232 18.3424 28.8173 18.0979V14H28.0352V18.9173ZM29.3944 17.7804V14H30.1771V17.2484C29.9645 17.3547 29.6674 17.557 29.3944 17.7804Z" fill="white"/>
</svg>
