<svg width="40" height="40" viewBox="0 0 40 40" fill="none" xmlns="http://www.w3.org/2000/svg">
<rect width="40" height="40" fill="#FF8001"/>
<path d="M26.2773 16.7413H25.1573C25.0933 16.7413 25.0613 16.8053 25.0613 16.8373V19.2746H23.9413V16.8373C23.9413 16.7733 23.8773 16.7413 23.8453 16.7413H22.7253C22.6613 16.7413 22.6293 16.8053 22.6293 16.8373V23.0933C22.6293 23.1573 22.6933 23.1893 22.7253 23.1893H23.8453C23.9093 23.1893 23.9413 23.1253 23.9413 23.0933V20.5919H25.0613V23.0933C25.0613 23.1573 25.1253 23.1893 25.1573 23.1893H26.2773C26.3413 23.1893 26.3733 23.1253 26.3733 23.0933V16.8373C26.3733 16.8053 26.3413 16.7413 26.2773 16.7413ZM16.8373 16.7413H15.7173C15.6533 16.7413 15.6213 16.7733 15.6213 16.8373V21.2693C15.6213 21.4933 15.5573 21.6533 15.4613 21.7813C15.3653 21.9093 15.2373 21.9413 15.0773 21.9413C14.9226 21.9413 14.7893 21.8773 14.6933 21.7813C14.5973 21.6533 14.5333 21.4933 14.5333 21.2693V16.8373C14.5333 16.7733 14.4693 16.7413 14.4373 16.7413H13.3173C13.2533 16.7413 13.2213 16.7733 13.2213 16.8373V21.3013C13.2213 21.8773 13.3493 22.4213 13.7013 22.7786C14.0533 23.1306 14.5333 23.3226 15.0826 23.3226C15.6586 23.3226 16.144 23.1306 16.464 22.7786C16.816 22.4266 16.944 21.9146 16.944 21.3013V16.8373C16.9386 16.8053 16.9066 16.7413 16.8373 16.7413ZM5.86133 16.6453C5.28533 16.6453 4.8 16.8373 4.48 17.1893C4.128 17.5413 4 18.0533 4 18.6666V21.3333C4 21.9093 4.128 22.4533 4.48 22.8106C4.832 23.1626 5.312 23.3546 5.86133 23.3546C6.43733 23.3546 6.92266 23.1626 7.24266 22.8106C7.59466 22.4586 7.72266 21.9466 7.72266 21.3333V19.8613C7.72266 19.7973 7.65866 19.7333 7.59466 19.7333H5.95733C5.89333 19.7333 5.82933 19.7973 5.82933 19.8613V20.9546C5.82933 21.0186 5.89333 21.0826 5.95733 21.0826H6.37866V21.3386C6.37866 21.5626 6.31466 21.7599 6.21866 21.8826C6.12266 22.0106 5.99466 22.0426 5.83466 22.0426C5.68 22.0426 5.54666 21.9786 5.45066 21.8826C5.35466 21.7546 5.29066 21.5626 5.29066 21.3386V18.7039C5.29066 18.4799 5.35466 18.2826 5.45066 18.1599C5.54666 18.0319 5.67466 17.9999 5.83466 17.9999C5.98933 17.9999 6.12266 18.0639 6.21866 18.1599C6.31466 18.2879 6.37866 18.4799 6.37866 18.7039V18.9599C6.37866 19.0239 6.44266 19.0559 6.47466 19.0559H7.59466C7.65866 19.0559 7.69066 19.0239 7.69066 18.9599V18.7039C7.69066 18.1279 7.56266 17.5839 7.21066 17.2266C6.92266 16.8373 6.40533 16.6453 5.86133 16.6453ZM20.304 21.7493C20.208 21.8773 20.08 21.9093 19.8826 21.9093H19.2426V20.5546H19.8826C20.0426 20.5546 20.1706 20.6186 20.2666 20.7146C20.3626 20.8426 20.4266 21.0026 20.4266 21.1946C20.4373 21.4613 20.4053 21.6159 20.304 21.7493ZM19.2426 18.0586H19.8186C19.9786 18.0586 20.1066 18.0906 20.2026 18.2186C20.2986 18.3146 20.3306 18.4746 20.3306 18.6719C20.3306 18.8693 20.2986 19.0239 20.2026 19.1519C20.1066 19.2479 19.9786 19.3119 19.8506 19.3119H19.2746V18.0586H19.2426ZM21.104 19.8879C21.296 19.6959 21.648 19.2479 21.648 18.6666C21.648 17.9893 21.392 17.5733 21.1946 17.3493C20.8426 16.9653 20.3626 16.7733 19.8133 16.7733H18.0586C17.9946 16.7733 17.9626 16.8373 17.9626 16.8693V23.1306C17.9626 23.1946 18.0266 23.2266 18.0586 23.2266H19.92C20.496 23.2266 21.04 23.0026 21.3973 22.5493C21.5893 22.2933 21.8186 21.8719 21.8186 21.2319C21.7813 20.4639 21.3013 20.0106 21.104 19.8879ZM10.9013 19.2746C10.8053 19.4026 10.6453 19.4666 10.448 19.4666H9.90399V18.0586H10.448C10.64 18.0586 10.8 18.1226 10.9013 18.2506C11.0293 18.3786 11.0613 18.5386 11.0613 18.7626C11.0613 18.9866 11.0347 19.1466 10.9013 19.2746ZM11.6107 20.4319C11.7387 20.3359 11.8347 20.2719 11.9307 20.1439C12.1547 19.8879 12.4426 19.4346 12.4426 18.7306C12.4426 18.0533 12.1867 17.6106 11.9307 17.3493C11.6107 16.9653 11.1307 16.7733 10.5813 16.7413H8.71999C8.65599 16.7413 8.62399 16.8053 8.62399 16.8373V23.0933C8.62399 23.1573 8.68799 23.1893 8.71999 23.1893H9.83999C9.90399 23.1893 9.93599 23.1253 9.93599 23.0933V20.7786H10.32L11.0293 23.1519C11.0293 23.1839 11.0933 23.2159 11.1253 23.2159H12.3093C12.3413 23.2159 12.3733 23.1839 12.4053 23.1839C12.4373 23.1839 12.4373 23.1199 12.4373 23.0879L11.6107 20.4319ZM34.4586 21.7493C34.3626 21.8773 34.2346 21.9093 34.0373 21.9093H33.3973V20.5546H34.0373C34.1973 20.5546 34.3253 20.6186 34.4213 20.7146C34.5173 20.8426 34.5813 21.0026 34.5813 21.1946C34.6186 21.4613 34.5599 21.6159 34.4586 21.7493ZM33.4293 18.0586H34.0053C34.1653 18.0586 34.2933 18.0906 34.3893 18.2186C34.4853 18.3146 34.5173 18.4746 34.5173 18.6719C34.5173 18.8693 34.4853 19.0239 34.3893 19.1519C34.2933 19.2479 34.1653 19.3119 34.0373 19.3119H33.4613V18.0586H33.4293ZM35.2906 19.8879C35.4826 19.6959 35.8346 19.2479 35.8346 18.6666C35.8346 17.9893 35.5786 17.5733 35.3813 17.3493C35.0293 16.9653 34.5493 16.7733 33.9999 16.7733H32.2293C32.1653 16.7733 32.1333 16.8373 32.1333 16.8693V23.1306C32.1333 23.1946 32.1973 23.2266 32.2293 23.2266H34.1013C34.6773 23.2266 35.2213 23.0026 35.5786 22.5493C35.7706 22.2933 35.9999 21.8719 35.9999 21.2319C35.9359 20.4639 35.4559 20.0106 35.2906 19.8879ZM30.9919 16.7413H29.872C29.808 16.7413 29.7759 16.7733 29.7759 16.8373V21.2693C29.7759 21.4933 29.712 21.6533 29.6159 21.7813C29.52 21.9093 29.392 21.9413 29.232 21.9413C29.0773 21.9413 28.944 21.8773 28.8479 21.7813C28.752 21.6533 28.688 21.4933 28.688 21.2693V16.8373C28.688 16.7733 28.624 16.7413 28.592 16.7413H27.4666C27.4026 16.7413 27.3706 16.7733 27.3706 16.8373V21.3013C27.3706 21.8773 27.4986 22.4213 27.8506 22.7786C28.2026 23.1306 28.6826 23.3226 29.232 23.3226C29.808 23.3226 30.2933 23.1306 30.6133 22.7786C30.9653 22.4266 31.0933 21.9146 31.0933 21.3013V16.8373C31.1253 16.8053 31.0613 16.7413 30.9919 16.7413Z" fill="white"/>
</svg>
