<svg width="40" height="40" viewBox="0 0 40 40" fill="none" xmlns="http://www.w3.org/2000/svg">
<rect width="40" height="40" fill="white"/>
<path d="M12.8721 25.4545C12.8721 25.4182 12.8721 25.4 12.8721 25.3636C12.8721 24.7091 12.8721 24.0363 12.8721 23.3818C12.8721 23.2545 12.872 23.2545 12.9993 23.2545C17.1266 23.2545 21.2539 23.2545 25.363 23.2545C26.1084 23.2545 26.8721 23.2545 27.6175 23.2545C27.6902 23.2545 27.7084 23.2727 27.7084 23.3454C27.7084 24.0545 27.7084 24.7636 27.7084 25.4545C22.763 25.4545 17.8175 25.4545 12.8721 25.4545ZM14.9266 24.3636C14.9266 24.5818 14.9266 24.8 14.9266 25C14.9266 25.0545 14.9448 25.0727 14.9811 25.0545C15.0902 25.0545 15.1993 25.0545 15.3084 25.0545C15.363 25.0545 15.3811 25.0363 15.3811 24.9818C15.3811 24.8363 15.3811 24.7091 15.3811 24.5636C15.3811 24.5091 15.3993 24.4909 15.4357 24.5091C15.5448 24.5091 15.6357 24.5091 15.7448 24.5091C15.7993 24.5091 15.8175 24.5272 15.8175 24.5818C15.8175 24.7272 15.8175 24.8545 15.8175 25C15.8175 25.0363 15.8357 25.0545 15.8721 25.0545C15.9811 25.0545 16.0902 25.0545 16.2175 25.0545C16.272 25.0545 16.272 25.0363 16.272 24.9818C16.272 24.5454 16.272 24.1272 16.272 23.6909C16.272 23.6363 16.272 23.6182 16.2175 23.6182C16.1084 23.6182 15.9993 23.6182 15.8721 23.6182C15.8175 23.6182 15.8175 23.6363 15.8175 23.6909C15.8175 23.8182 15.8175 23.9272 15.8175 24.0545C15.8175 24.0909 15.7993 24.1091 15.763 24.1091C15.6539 24.1091 15.563 24.1091 15.4539 24.1091C15.3993 24.1091 15.3993 24.0909 15.3993 24.0363C15.3993 23.9091 15.3993 23.8 15.3993 23.6727C15.3993 23.6182 15.3811 23.6 15.3448 23.6C15.2357 23.6 15.1448 23.6 15.0357 23.6C14.963 23.6 14.9448 23.6182 14.9448 23.6909C14.9266 23.9272 14.9266 24.1454 14.9266 24.3636ZM19.563 24.3454C19.563 23.9272 19.3084 23.6545 18.9084 23.6C18.5811 23.5636 18.2721 23.7272 18.163 24C18.0357 24.3272 18.1084 24.7454 18.363 24.9272C18.6175 25.1272 18.9084 25.1272 19.1811 25C19.472 24.8909 19.563 24.6545 19.563 24.3454ZM21.563 24.6182C21.5084 24.6182 21.4357 24.6182 21.3811 24.6182C21.3448 24.6182 21.3448 24.6363 21.3448 24.6727C21.363 24.7818 21.4175 24.8727 21.4902 24.9454C21.7266 25.1636 22.2357 25.1636 22.472 24.9454C22.6539 24.7818 22.6902 24.4182 22.3993 24.2727C22.2902 24.2182 22.163 24.1818 22.0539 24.1636C21.9811 24.1454 21.9084 24.1272 21.8539 24.0909C21.7993 24.0545 21.7993 23.9818 21.8539 23.9636C21.9448 23.9272 22.072 23.9454 22.1266 24.0363C22.1448 24.0545 22.163 24.0727 22.1811 24.0727C22.2902 24.0727 22.3993 24.0727 22.5084 24.0727C22.563 24.0727 22.563 24.0545 22.563 24.0182C22.5266 23.8727 22.4357 23.7454 22.2902 23.6909C22.0539 23.6 21.8175 23.6 21.5993 23.7091C21.4357 23.7818 21.363 23.9272 21.3811 24.1091C21.3811 24.2727 21.472 24.3818 21.6357 24.4545C21.7448 24.5091 21.8539 24.5272 21.9811 24.5636C22.0357 24.5818 22.1084 24.6 22.163 24.6363C22.1993 24.6727 22.2175 24.7091 22.1811 24.7636C22.1084 24.8363 21.872 24.8363 21.8539 24.7272C21.8175 24.6545 21.7811 24.6545 21.7266 24.6545C21.6357 24.6182 21.5993 24.6182 21.563 24.6182ZM24.9993 23.6363C24.8175 23.6363 24.6175 23.6363 24.4357 23.6363C24.3811 23.6363 24.363 23.6545 24.363 23.6909C24.363 23.7818 24.363 23.8545 24.363 23.9454C24.363 24 24.3811 24.0182 24.4357 24C24.5084 24 24.5993 24 24.672 24C24.7448 24 24.7811 24.0182 24.7811 24.1091C24.7811 24.4 24.7811 24.6909 24.7811 24.9818C24.7811 25.0363 24.7993 25.0545 24.8539 25.0545C24.963 25.0545 25.0721 25.0545 25.1811 25.0545C25.2357 25.0545 25.2539 25.0363 25.2539 24.9818C25.2539 24.6727 25.2539 24.3818 25.2539 24.0727C25.2539 24.0182 25.2721 24 25.3266 24C25.4175 24 25.5084 24 25.6175 24C25.6539 24 25.6721 23.9818 25.6721 23.9454C25.6721 23.8545 25.6721 23.7818 25.6721 23.6909C25.6721 23.6363 25.6539 23.6182 25.5993 23.6182C25.3811 23.6363 25.1811 23.6363 24.9993 23.6363Z" fill="#064A84"/>
<path d="M30.4179 15.8909C30.327 15.8909 30.2361 15.9273 30.1452 15.9455C29.9634 15.9818 29.7634 16.0364 29.5816 16.0727C29.4725 16.0909 29.3998 16.1636 29.327 16.2364C29.0725 16.5636 28.7998 16.8727 28.527 17.2C28.527 17.2 28.5089 17.2182 28.4907 17.2364C28.4725 17.0909 28.4361 16.9636 28.4179 16.8364C28.3998 16.6909 28.3634 16.5455 28.3452 16.4C28.3452 16.3455 28.3089 16.3273 28.2543 16.3091C27.7452 16.2546 27.2361 16.2 26.727 16.1455C26.4543 16.1091 26.1998 16.0909 25.927 16.0546C25.9089 16.0546 25.8907 16.0546 25.8907 16.0364C26.0361 16 26.1634 15.9455 26.3089 15.9091C26.5089 15.8546 26.7089 15.8 26.927 15.7455C27.3452 15.6364 27.7452 15.5273 28.1634 15.4182C28.2543 15.4 28.3452 15.3636 28.4361 15.3455C28.4907 15.3273 28.4907 15.3091 28.4907 15.2727C28.4907 15.1273 28.4907 15 28.4907 14.8546C28.4907 14.8364 28.4907 14.8 28.4907 14.7818C28.4907 14.7455 28.5089 14.7273 28.5452 14.7636C28.7089 14.8727 28.8725 14.9636 29.0361 15.0727C29.2179 15.2 29.1816 15.1455 29.327 15.0546C29.5816 14.8909 29.8179 14.7273 30.0543 14.5455C30.0543 14.5455 30.0725 14.5455 30.0907 14.5273C30.0543 14.6364 30.0179 14.7455 29.9816 14.8546C29.9452 14.9818 29.8907 15.0909 29.8543 15.2182C29.8361 15.2727 29.8361 15.3091 29.8907 15.3455C30.0543 15.5455 30.2361 15.7091 30.4179 15.8909Z" fill="#FAD522"/>
<path d="M9.58141 21.4C9.65414 21.4 9.65414 21.3273 9.70869 21.2909C10.0905 20.9455 10.4905 20.6182 10.9087 20.3091C11.1451 20.1455 11.3996 19.9818 11.6541 19.8182C11.9814 19.6182 12.3087 19.4364 12.636 19.2546C13.1087 19 13.6178 18.7636 14.1087 18.5455C14.1451 18.5273 14.1814 18.5091 14.2178 18.5091C14.2541 18.6546 14.236 18.7818 14.236 18.9273C14.1632 18.9273 14.1269 18.9636 14.0723 18.9818C13.636 19.1818 13.1814 19.3818 12.7632 19.6C12.3087 19.8364 11.8723 20.0909 11.436 20.3636C10.9996 20.6364 10.5814 20.9273 10.1814 21.2545C10.0541 21.3636 9.90869 21.4727 9.74505 21.5091C9.69051 21.5273 9.61778 21.5091 9.56323 21.5273C9.58141 21.4727 9.58141 21.4364 9.58141 21.4Z" fill="#FAD522"/>
<path d="M22.29 18.2728C22.2536 18.3819 22.2172 18.5091 22.1809 18.6182C21.7627 19.891 21.3627 21.1637 20.9445 22.4364C20.9263 22.5091 20.89 22.5273 20.8354 22.5273C20.69 22.5273 20.69 22.5273 20.6536 22.3819C20.29 21.2182 19.9263 20.0546 19.5627 18.891C19.5082 18.7091 19.4536 18.5091 19.3627 18.3273C19.3627 18.3819 19.3627 18.4364 19.3627 18.491C19.3627 19.5091 19.3627 20.5273 19.3627 21.5455C19.3627 21.6546 19.3627 21.7455 19.3809 21.8546C19.4172 22.1273 19.5627 22.2546 19.8354 22.291H19.8536C20.0172 22.3091 20.0172 22.3091 19.9991 22.4546C19.9991 22.5091 19.9809 22.5273 19.9445 22.5273C19.4718 22.5273 18.9991 22.5273 18.5263 22.5273C18.4718 22.5273 18.4536 22.5091 18.4536 22.4546C18.4536 22.3091 18.4536 22.3091 18.5991 22.291C18.8718 22.2728 19.0172 22.1273 19.0536 21.8546C19.0718 21.7455 19.0718 21.6546 19.0718 21.5455C19.0718 20.6 19.0718 19.6364 19.0718 18.691C19.0718 18.6728 19.0718 18.6728 19.0718 18.6546C19.0718 18.3819 18.9809 18.291 18.7082 18.2546C18.6354 18.2546 18.5809 18.2364 18.5082 18.2364C18.4536 18.2364 18.4354 18.2182 18.4354 18.1637C18.4354 18 18.4354 18 18.5991 18C19.0354 18 19.4536 18 19.89 18C19.9445 18 19.9627 18.0182 19.9809 18.0728C20.2536 18.9819 20.5445 19.8728 20.8172 20.7819C20.8718 20.9819 20.9445 21.1637 20.9991 21.3819C21.0172 21.3455 21.0354 21.3091 21.0354 21.2728C21.3809 20.2182 21.7082 19.1455 22.0536 18.091C22.0718 18.0364 22.09 18 22.1627 18C22.5809 18 22.9991 18 23.4354 18C23.5082 18 23.5263 18.0182 23.5082 18.091C23.5082 18.2182 23.5082 18.2182 23.3627 18.2364C23.29 18.2364 23.2354 18.2546 23.1627 18.2728C23.0172 18.3091 22.9445 18.4 22.9263 18.5455C22.9263 18.6182 22.9263 18.691 22.9263 18.7637C22.9263 19.7819 22.9263 20.7819 22.9263 21.8C22.9263 21.8182 22.9263 21.8364 22.9263 21.8546C22.9263 22.1637 23.0354 22.2728 23.3263 22.291C23.3445 22.291 23.3809 22.291 23.3991 22.291C23.5627 22.291 23.5627 22.291 23.5627 22.4546C23.5627 22.5091 23.5445 22.5273 23.49 22.5273C23.1445 22.5273 22.7991 22.5273 22.4536 22.5273C22.2172 22.5273 21.9991 22.5273 21.7627 22.5273C21.7082 22.5273 21.69 22.5091 21.69 22.4546C21.69 22.3091 21.69 22.3091 21.8354 22.291C21.8536 22.291 21.8718 22.291 21.89 22.291C22.1445 22.2728 22.2354 22.1637 22.2536 21.9091C22.2536 21.8728 22.2536 21.8546 22.2536 21.8182C22.2536 20.6546 22.2536 19.491 22.2536 18.3273C22.3082 18.3091 22.3082 18.291 22.29 18.2728Z" fill="#064A84"/>
<path d="M14.2543 18.9273C14.2543 18.7818 14.2725 18.6364 14.2361 18.5091C14.2179 18.3636 14.127 18.2909 13.9997 18.2727C13.9088 18.2545 13.8179 18.2364 13.7088 18.2364C13.6543 18.2364 13.6543 18.2182 13.6543 18.1818C13.6543 18.0182 13.6543 18.0182 13.8179 18.0182C14.3452 18.0182 14.8906 18.0182 15.4179 18.0182C15.4361 18.0182 15.4725 18.0182 15.4906 18.0182C15.5452 18.0182 15.5634 18.0364 15.5452 18.0909C15.5452 18.1273 15.5452 18.1636 15.5452 18.2C15.5452 18.2364 15.527 18.2545 15.4906 18.2545C15.4179 18.2545 15.327 18.2545 15.2543 18.2727C15.0179 18.3091 14.9088 18.4364 14.9088 18.6545C14.9088 19.1091 14.9088 19.5636 14.9088 20C14.9088 20.0545 14.927 20.0545 14.9634 20.0545C15.5634 20.0545 16.1452 20.0545 16.7452 20.0545C16.7815 20.0545 16.7997 20.0545 16.7997 20C16.7997 19.5273 16.7997 19.0727 16.7997 18.6C16.7997 18.4182 16.7088 18.3091 16.527 18.2727C16.4361 18.2545 16.3452 18.2545 16.2543 18.2364C16.2179 18.2364 16.1815 18.2364 16.1815 18.2C16.1815 18.1818 16.1815 18.1454 16.1815 18.1273C16.1634 18.0364 16.1997 18.0182 16.2906 18.0182C16.4725 18.0182 16.6361 18.0182 16.8179 18.0182C17.1997 18.0182 17.5815 18.0182 17.9452 18.0182C18.0179 18.0182 18.0361 18.0364 18.0361 18.1091C18.0361 18.1273 18.0361 18.1455 18.0361 18.1455C18.0543 18.2182 18.0179 18.2545 17.9452 18.2545C17.8543 18.2545 17.7452 18.2727 17.6543 18.3091C17.5634 18.3454 17.4906 18.4182 17.4725 18.5091C17.4543 18.5636 17.4543 18.6364 17.4543 18.6909C17.4543 19.7455 17.4543 20.8 17.4543 21.8545C17.4543 21.8909 17.4543 21.9455 17.4543 21.9818C17.4906 22.1636 17.5634 22.2364 17.7452 22.2727C17.8179 22.2909 17.9088 22.2909 17.9815 22.2909C18.0361 22.2909 18.0543 22.3091 18.0543 22.3636C18.0543 22.5273 18.0543 22.5273 17.9088 22.5273C17.3634 22.5273 16.8361 22.5273 16.2906 22.5273C16.2179 22.5273 16.1997 22.5091 16.1997 22.4364C16.1997 22.2909 16.1997 22.2909 16.327 22.2909H16.3452C16.6906 22.2727 16.7815 22.1636 16.7815 21.8364C16.7815 21.3455 16.7815 20.8545 16.7815 20.3455C16.7815 20.2727 16.7634 20.2727 16.6906 20.2727C16.1088 20.2727 15.527 20.2727 14.9452 20.2727C14.8725 20.2727 14.8543 20.2909 14.8543 20.3636C14.8543 20.8545 14.8543 21.3636 14.8543 21.8545C14.8543 22.1636 14.9452 22.2727 15.2543 22.3091C15.3088 22.3091 15.3815 22.3091 15.4361 22.3091C15.4906 22.3091 15.4906 22.3273 15.4906 22.3636C15.4906 22.5273 15.4906 22.5273 15.327 22.5273C14.7815 22.5273 14.2543 22.5273 13.7088 22.5273C13.5815 22.5273 13.5815 22.5273 13.5815 22.4C13.5634 22.3273 13.5815 22.3091 13.6725 22.3091C13.7452 22.3091 13.8361 22.3091 13.9088 22.2909C14.0906 22.2545 14.1815 22.1455 14.1815 21.9636C14.1815 21.8727 14.1815 21.7818 14.1815 21.6909C14.2543 20.7455 14.2543 19.8364 14.2543 18.9273Z" fill="#064A84"/>
<path d="M16.8545 18C16.6726 18 16.509 18.0182 16.3272 18C16.2363 18 16.2181 18.0182 16.2181 18.1091C16.2181 18.1273 16.2181 18.1637 16.2181 18.1818C16.1999 18.1818 16.1817 18.2 16.1635 18.2C15.8726 18.3091 15.5817 18.4 15.2908 18.5091C15.1635 18.5455 15.0545 18.6182 14.909 18.6364C14.8908 18.4 14.9999 18.2727 15.2545 18.2546C15.3272 18.2364 15.4181 18.2364 15.4908 18.2364C15.5272 18.2364 15.5454 18.2182 15.5454 18.1818C15.5454 18.1455 15.5454 18.1091 15.5454 18.0727C15.5454 18.0182 15.5272 18 15.4908 18C15.5817 17.9273 15.6908 17.9091 15.7817 17.8727C16.0545 17.7637 16.3454 17.6727 16.6363 17.5818C17.1272 17.4182 17.6363 17.2546 18.1454 17.1091C18.5454 17 18.9454 16.8727 19.3272 16.7818C19.6726 16.6909 20.0181 16.6 20.3635 16.5273C20.7454 16.4364 21.1454 16.3455 21.5272 16.2546C21.8908 16.1818 22.2726 16.1091 22.6545 16.0364C23.0181 15.9637 23.3999 15.9091 23.7635 15.8364C23.9999 15.8 24.2181 15.7818 24.4545 15.8909C24.6181 15.9637 24.709 16.1091 24.6908 16.2727C24.6726 16.3637 24.6181 16.4364 24.5454 16.4909C24.3999 16.6 24.2544 16.6546 24.0726 16.6727C23.4181 16.7091 22.7817 16.7818 22.1272 16.8727C21.5817 16.9455 21.0363 17.0364 20.4908 17.1273C20.0363 17.2182 19.5817 17.3091 19.1272 17.4C18.5272 17.5273 17.9272 17.6727 17.3454 17.8546C17.1999 17.8909 17.0726 17.9273 16.9272 17.9637C16.8908 17.9637 16.8726 17.9637 16.8545 18Z" fill="#FAD522"/>
<path d="M23.8725 21.6909C23.8725 21.4364 23.8725 21.1818 23.8725 20.9273C23.8725 20.8909 23.8362 20.8364 23.9271 20.8364C23.9816 20.8364 24.0543 20.8 24.0725 20.9091C24.1452 21.3273 24.3271 21.6909 24.6362 22C24.9998 22.3636 25.5271 22.4727 25.9634 22.2545C26.2725 22.1091 26.4543 21.8727 26.4725 21.5273C26.4907 21.1636 26.3089 20.8909 25.9998 20.7273C25.7816 20.6182 25.5452 20.5454 25.3089 20.4727C25.0543 20.4 24.818 20.3273 24.5816 20.2182C24.1634 20.0182 23.9271 19.6909 23.9089 19.2364C23.8907 18.7636 24.0725 18.4 24.4725 18.1454C24.9816 17.8364 25.4907 17.8364 26.018 18.1273C26.1089 18.1818 26.1816 18.2182 26.2725 18.2727C26.3452 18.3091 26.3816 18.2909 26.4362 18.2364C26.4725 18.1818 26.5089 18.1273 26.5271 18.0545C26.5452 18 26.5634 17.9818 26.618 17.9818C26.7634 17.9818 26.7634 17.9818 26.7634 18.1273C26.7634 18.5636 26.7634 19 26.7634 19.4364C26.7634 19.4727 26.7816 19.5273 26.7271 19.5091C26.6725 19.5091 26.5998 19.5636 26.5634 19.4545C26.4725 19.1454 26.3634 18.8545 26.1634 18.5818C25.8543 18.1818 25.3998 18.0364 24.9452 18.1818C24.6543 18.2909 24.4907 18.4909 24.4543 18.8C24.418 19.1091 24.5271 19.3454 24.7816 19.5091C24.9998 19.6545 25.2362 19.7273 25.4725 19.7818C25.7452 19.8727 26.0362 19.9454 26.3089 20.0545C26.9634 20.3273 27.1634 20.8364 26.9816 21.5091C26.8362 22.0909 26.418 22.4 25.8543 22.5273C25.4543 22.6182 25.0725 22.5636 24.7271 22.3454C24.6543 22.3091 24.5816 22.2545 24.5089 22.2364C24.3816 22.2 24.2907 22.2364 24.218 22.3454C24.1998 22.3818 24.1816 22.4 24.1634 22.4364C24.1271 22.5273 24.0725 22.5454 23.9634 22.5273C23.9089 22.5273 23.9271 22.4909 23.9271 22.4545C23.8725 22.2182 23.8725 21.9636 23.8725 21.6909Z" fill="#064A84"/>
<path d="M19.1084 24.3637C19.1084 24.4364 19.0902 24.5273 19.0538 24.6C19.0175 24.7091 18.9265 24.7455 18.8175 24.7455C18.7084 24.7455 18.6356 24.6909 18.5993 24.6C18.5265 24.4364 18.5265 24.2727 18.5993 24.1091C18.6356 24.0182 18.7265 23.9455 18.8356 23.9637C18.9447 23.9637 19.0175 24.0182 19.0538 24.1273C19.1084 24.2 19.1084 24.2727 19.1084 24.3637Z" fill="#064A84"/>
</svg>
