<svg width="40" height="40" viewBox="0 0 40 40" fill="none" xmlns="http://www.w3.org/2000/svg">
<rect width="40" height="40" fill="#000363"/>
<path d="M6.2063 24.6363V15.6636H8.47176V19.1509C8.92145 18.54 9.57479 18.2345 10.4318 18.2345C11.1784 18.2345 11.7299 18.4551 12.0863 18.8963C12.4512 19.3375 12.6336 20.0163 12.6336 20.9327V24.6363H10.3681V21.0218C10.3681 20.64 10.3002 20.3685 10.1645 20.2072C10.0372 20.046 9.8463 19.9654 9.59176 19.9654C9.25236 19.9654 8.98085 20.0757 8.77721 20.2963C8.57358 20.5085 8.47176 20.7969 8.47176 21.1618V24.6363H6.2063Z" fill="#FB0077"/>
<path d="M13.9247 24.6363V18.3745H16.1265V19.2272C16.3471 18.9048 16.6314 18.6588 16.9793 18.4891C17.3271 18.3194 17.7174 18.2345 18.1502 18.2345C18.8968 18.2345 19.4484 18.4551 19.8047 18.8963C20.1696 19.3375 20.352 20.0163 20.352 20.9327V24.6363H18.0865V21.0218C18.0865 20.64 18.0187 20.3685 17.8829 20.2072C17.7556 20.046 17.5647 19.9654 17.3102 19.9654C16.9708 19.9654 16.6993 20.0757 16.4956 20.2963C16.292 20.5085 16.1902 20.7969 16.1902 21.1618V24.6363H13.9247Z" fill="#FB0077"/>
<path d="M24.7486 27.0673C24.1207 27.0673 23.531 27.0079 22.9795 26.8891C22.4364 26.7703 21.9698 26.5751 21.5795 26.3036L22.1649 24.7763C22.4874 24.9715 22.8692 25.1242 23.3104 25.2345C23.7601 25.3448 24.1674 25.4 24.5322 25.4C25.0498 25.4 25.4358 25.2897 25.6904 25.0691C25.9534 24.857 26.0849 24.5218 26.0849 24.0636V23.4782C25.9068 23.7836 25.6395 24.0254 25.2831 24.2036C24.9268 24.3818 24.5449 24.4709 24.1377 24.4709C23.5777 24.4709 23.0898 24.3436 22.674 24.0891C22.2583 23.826 21.9316 23.4612 21.694 22.9945C21.4649 22.5279 21.3504 21.9806 21.3504 21.3527C21.3504 20.7248 21.4649 20.1776 21.694 19.7109C21.9316 19.2442 22.2583 18.8836 22.674 18.6291C23.0898 18.366 23.5777 18.2345 24.1377 18.2345C24.5619 18.2345 24.948 18.3279 25.2958 18.5145C25.6522 18.6927 25.911 18.9303 26.0722 19.2272V18.3745H28.2868V23.7963C28.2868 24.8909 27.9813 25.7097 27.3704 26.2527C26.7595 26.7957 25.8855 27.0673 24.7486 27.0673ZM24.8377 22.8036C25.211 22.8036 25.508 22.6763 25.7286 22.4218C25.9492 22.1673 26.0595 21.8109 26.0595 21.3527C26.0595 20.8945 25.9492 20.5382 25.7286 20.2836C25.508 20.0291 25.211 19.9018 24.8377 19.9018C24.4728 19.9018 24.1801 20.0291 23.9595 20.2836C23.7389 20.5382 23.6286 20.8945 23.6286 21.3527C23.6286 21.8109 23.7389 22.1673 23.9595 22.4218C24.1801 22.6763 24.4728 22.8036 24.8377 22.8036Z" fill="#FB0077"/>
<path d="M29.6101 24.6363V18.3745H31.8119V19.4309C32.1004 18.7097 32.724 18.3151 33.6828 18.2472L34.3065 18.1963L34.4337 20.1054L33.1992 20.22C32.7495 20.2624 32.4228 20.3897 32.2192 20.6018C32.0156 20.8054 31.9137 21.1109 31.9137 21.5182V24.6363H29.6101Z" fill="#FB0077"/>
</svg>
