<svg width="40" height="40" viewBox="0 0 40 40" fill="none" xmlns="http://www.w3.org/2000/svg">
<rect width="40" height="40" fill="#FFD12C"/>
<path d="M36.3475 18.5218H3.73882C3.54672 18.5218 3.39099 18.6775 3.39099 18.8696V25.4783C3.39099 25.6704 3.54672 25.8261 3.73882 25.8261H36.3475C36.5396 25.8261 36.6953 25.6704 36.6953 25.4783V18.8696C36.6953 18.6775 36.5396 18.5218 36.3475 18.5218Z" fill="white"/>
<path d="M8.63064 19.4783V20.5217C9.2069 20.5217 9.67412 20.0545 9.67412 19.4783H8.63064ZM7.181 19.4783H6.13752C6.13752 20.0545 6.6047 20.5217 7.181 20.5217V19.4783ZM7.181 17.302H8.22448C8.22448 16.7257 7.75729 16.2585 7.181 16.2585V17.302ZM5.50496 17.302V16.2585C4.92866 16.2585 4.46148 16.7257 4.46148 17.302H5.50496ZM5.50496 19.4783V20.5217C6.08126 20.5217 6.54844 20.0545 6.54844 19.4783H5.50496ZM4.05532 19.4783H3.01184C3.01184 20.0545 3.47901 20.5217 4.05532 20.5217V19.4783ZM4.05532 14.1397V13.0963C3.47901 13.0963 3.01184 13.5635 3.01184 14.1397H4.05532ZM5.50496 14.1397H6.54844C6.54844 13.5635 6.08126 13.0963 5.50496 13.0963V14.1397ZM5.50496 16.1189H4.46148C4.46148 16.6952 4.92866 17.1624 5.50496 17.1624V16.1189ZM7.181 16.1189V17.1624C7.75729 17.1624 8.22448 16.6952 8.22448 16.1189H7.181ZM7.181 14.1397V13.0963C6.6047 13.0963 6.13752 13.5635 6.13752 14.1397H7.181ZM8.63064 14.1397H9.67412C9.67412 13.5635 9.2069 13.0963 8.63064 13.0963V14.1397ZM8.63064 18.4348H7.181V20.5217H8.63064V18.4348ZM8.22448 19.4783V17.302H6.13752V19.4783H8.22448ZM7.181 16.2585H5.50496V18.3455H7.181V16.2585ZM4.46148 17.302V19.4783H6.54844V17.302H4.46148ZM5.50496 18.4348H4.05532V20.5217H5.50496V18.4348ZM5.0988 19.4783V14.1397H3.01184V19.4783H5.0988ZM4.05532 15.1832H5.50496V13.0963H4.05532V15.1832ZM4.46148 14.1397V16.1189H6.54844V14.1397H4.46148ZM5.50496 17.1624H7.181V15.0754H5.50496V17.1624ZM8.22448 16.1189V14.1397H6.13752V16.1189H8.22448ZM7.181 15.1832H8.63064V13.0963H7.181V15.1832ZM7.58716 14.1397V19.4783H9.67412V14.1397H7.58716ZM14.327 14.1397H15.3705C15.3705 13.5635 14.9033 13.0963 14.327 13.0963V14.1397ZM10.3432 18.9926L9.62203 19.7468C9.62282 19.7476 9.6236 19.7483 9.62438 19.749L10.3432 18.9926ZM9.75899 14.1397V13.0963C9.18264 13.0963 8.71551 13.5635 8.71551 14.1397H9.75899ZM11.2086 14.1397H12.252C12.252 13.5635 11.7849 13.0963 11.2086 13.0963V14.1397ZM12.6838 18.098L11.8633 17.4533C11.8629 17.4538 11.8625 17.4544 11.862 17.4549L12.6838 18.098ZM12.8846 14.1397V13.0963C12.3083 13.0963 11.8412 13.5635 11.8412 14.1397H12.8846ZM13.2835 14.1397V17.3531H15.3705V14.1397H13.2835ZM13.2835 17.3531C13.2835 17.8483 13.1492 18.0896 13.0055 18.2288L14.4579 19.7273C15.1079 19.0973 15.3705 18.2552 15.3705 17.3531H13.2835ZM13.0055 18.2288C12.8667 18.3632 12.5954 18.5078 12.0229 18.5078V20.5948C12.9401 20.5948 13.808 20.3572 14.4579 19.7273L13.0055 18.2288ZM12.0229 18.5078C11.4679 18.5078 11.2008 18.3681 11.062 18.2362L9.62438 19.749C10.2694 20.362 11.1221 20.5948 12.0229 20.5948V18.5078ZM11.0644 18.2384C10.9371 18.1167 10.8025 17.8885 10.8025 17.3859H8.71551C8.71551 18.2807 8.97029 19.1236 9.62203 19.7468L11.0644 18.2384ZM10.8025 17.3859V14.1397H8.71551V17.3859H10.8025ZM9.75899 15.1832H11.2086V13.0963H9.75899V15.1832ZM10.1651 14.1397V17.2728H12.252V14.1397H10.1651ZM10.1651 17.2728C10.1651 17.7369 10.2438 18.3098 10.6169 18.7601L12.2239 17.4286C12.2746 17.4897 12.2793 17.5289 12.2719 17.5007C12.2646 17.4717 12.252 17.4009 12.252 17.2728H10.1651ZM10.6169 18.7601C11.0035 19.2267 11.5414 19.3934 12.0448 19.3934V17.3064C12.0134 17.3064 12.0317 17.3015 12.0777 17.3204C12.1296 17.3416 12.1833 17.3796 12.2239 17.4286L10.6169 18.7601ZM12.0448 19.3934C12.5304 19.3934 13.1081 19.249 13.5055 18.7411L11.862 17.4549C11.9193 17.3817 11.9894 17.3372 12.0427 17.3162C12.0875 17.2985 12.0969 17.3064 12.0448 17.3064V19.3934ZM13.5043 18.7427C13.8579 18.2926 13.9281 17.7227 13.9281 17.2655H11.8412C11.8412 17.4018 11.8288 17.481 11.82 17.5174C11.8111 17.5545 11.8132 17.5171 11.8633 17.4533L13.5043 18.7427ZM13.9281 17.2655V14.1397H11.8412V17.2655H13.9281ZM12.8846 15.1832H14.327V13.0963H12.8846V15.1832ZM20.5309 19.4783V20.5217C21.1072 20.5217 21.5744 20.0545 21.5744 19.4783H20.5309ZM18.6394 19.4783L17.713 19.9585C17.8924 20.3045 18.2497 20.5217 18.6394 20.5217V19.4783ZM16.6895 15.7172L17.6159 15.237C17.4365 14.891 17.0793 14.6737 16.6895 14.6737V15.7172ZM16.6566 15.7172V14.6737C16.3658 14.6737 16.088 14.7951 15.8906 15.0087C15.6931 15.2223 15.5937 15.5085 15.6163 15.7985L16.6566 15.7172ZM16.726 19.4783V20.5217C17.3023 20.5217 17.7695 20.0545 17.7695 19.4783H16.726ZM15.4479 19.4783H14.4045C14.4045 20.0545 14.8717 20.5217 15.4479 20.5217V19.4783ZM15.4479 14.1397V13.0963C14.8717 13.0963 14.4045 13.5635 14.4045 14.1397H15.4479ZM17.3321 14.1397L18.2566 13.6557C18.0765 13.3118 17.7204 13.0963 17.3321 13.0963V14.1397ZM19.2747 17.8497L18.3503 18.3337C18.5304 18.6777 18.8866 18.8931 19.2747 18.8931V17.8497ZM19.2966 17.8497V18.8931C19.5848 18.8931 19.8602 18.774 20.0575 18.5638C20.2547 18.3537 20.3563 18.0714 20.338 17.7837L19.2966 17.8497ZM19.2455 14.1397V13.0963C18.6693 13.0963 18.202 13.5635 18.202 14.1397H19.2455ZM20.5309 14.1397H21.5744C21.5744 13.5635 21.1072 13.0963 20.5309 13.0963V14.1397ZM20.5309 18.4348H18.6394V20.5217H20.5309V18.4348ZM19.5658 18.998L17.6159 15.237L15.7631 16.1975L17.713 19.9585L19.5658 18.998ZM16.6895 14.6737H16.6566V16.7607H16.6895V14.6737ZM15.6163 15.7985C15.6619 16.3825 15.6826 16.8017 15.6826 17.0719H17.7695C17.7695 16.7189 17.7438 16.235 17.6969 15.6359L15.6163 15.7985ZM15.6826 17.0719V19.4783H17.7695V17.0719H15.6826ZM16.726 18.4348H15.4479V20.5217H16.726V18.4348ZM16.4914 19.4783V14.1397H14.4045V19.4783H16.4914ZM15.4479 15.1832H17.3321V13.0963H15.4479V15.1832ZM16.4078 14.6238L18.3503 18.3337L20.1992 17.3657L18.2566 13.6557L16.4078 14.6238ZM19.2747 18.8931H19.2966V16.8062H19.2747V18.8931ZM20.338 17.7837C20.3046 17.2556 20.289 16.8481 20.289 16.5534H18.202C18.202 16.9111 18.2206 17.3678 18.2553 17.9157L20.338 17.7837ZM20.289 16.5534V14.1397H18.202V16.5534H20.289ZM19.2455 15.1832H20.5309V13.0963H19.2455V15.1832ZM19.4874 14.1397V19.4783H21.5744V14.1397H19.4874ZM23.8281 16.3526V15.3091C23.2519 15.3091 22.7846 15.7763 22.7846 16.3526H23.8281ZM26.1323 16.3526H27.1758C27.1758 15.7763 26.7086 15.3091 26.1323 15.3091V16.3526ZM26.1323 19.23L26.4703 20.2171C26.8923 20.0727 27.1758 19.676 27.1758 19.23H26.1323ZM22.1594 18.8356L21.3986 19.5498C21.3993 19.5504 21.3999 19.5511 21.4006 19.5518L22.1594 18.8356ZM25.2413 14.158L25.0238 15.1786C25.0244 15.1787 25.0249 15.1789 25.0255 15.179L25.2413 14.158ZM26.0227 14.399L26.9905 14.7892C27.2013 14.2664 26.9587 13.6706 26.4426 13.4437L26.0227 14.399ZM25.5663 15.531L25.1044 16.4667C25.3647 16.5952 25.6669 16.6095 25.9382 16.5059C26.2095 16.4024 26.4254 16.1905 26.534 15.9212L25.5663 15.531ZM23.2878 17.9738L22.4678 18.6192C22.4699 18.622 22.4722 18.6248 22.4744 18.6276L23.2878 17.9738ZM24.7812 18.3025L25.0148 19.3195C25.4888 19.2106 25.8246 18.7888 25.8246 18.3025H24.7812ZM24.7812 17.4663H25.8246C25.8246 16.89 25.3575 16.4228 24.7812 16.4228V17.4663ZM23.8281 17.4663H22.7846C22.7846 18.0426 23.2519 18.5097 23.8281 18.5097V17.4663ZM23.8281 17.3961H26.1323V15.3091H23.8281V17.3961ZM25.0888 16.3526V19.23H27.1758V16.3526H25.0888ZM25.7942 18.2428C25.2909 18.4151 24.7191 18.5078 24.0692 18.5078V20.5948C24.9187 20.5948 25.7224 20.4733 26.4703 20.2171L25.7942 18.2428ZM24.0692 18.5078C23.4559 18.5078 23.1239 18.3371 22.9183 18.1194L21.4006 19.5518C22.0957 20.2884 23.0369 20.5948 24.0692 20.5948V18.5078ZM22.9202 18.1214C22.7097 17.8972 22.531 17.5074 22.531 16.7944H20.444C20.444 17.8488 20.7133 18.8197 21.3986 19.5498L22.9202 18.1214ZM22.531 16.7944C22.531 16.1381 22.7119 15.7654 22.9537 15.5295L21.4966 14.0354C20.755 14.7587 20.444 15.7272 20.444 16.7944H22.531ZM22.9537 15.5295C23.1987 15.2905 23.5959 15.1066 24.2919 15.1066V13.0197C23.2158 13.0197 22.2351 13.3152 21.4966 14.0354L22.9537 15.5295ZM24.2919 15.1066C24.5624 15.1066 24.8054 15.1321 25.0238 15.1786L25.4588 13.1375C25.0833 13.0574 24.6933 13.0197 24.2919 13.0197V15.1066ZM25.0255 15.179C25.2723 15.2311 25.4614 15.2922 25.6028 15.3543L26.4426 13.4437C26.1409 13.3111 25.8092 13.2116 25.4571 13.1371L25.0255 15.179ZM25.0549 14.0088L24.5985 15.1408L26.534 15.9212L26.9905 14.7892L25.0549 14.0088ZM26.0282 14.5953C25.4896 14.3295 24.9076 14.2027 24.2992 14.2027V16.2897C24.611 16.2897 24.8737 16.3528 25.1044 16.4667L26.0282 14.5953ZM24.2992 14.2027C23.6287 14.2027 22.9864 14.4349 22.5219 14.9873L24.1193 16.3303C24.1303 16.3172 24.1356 16.3144 24.1441 16.3109C24.157 16.3054 24.2019 16.2897 24.2992 16.2897V14.2027ZM22.5219 14.9873C22.0796 15.5143 21.9339 16.1803 21.9339 16.831H24.0208C24.0208 16.4641 24.1039 16.3485 24.1193 16.3303L22.5219 14.9873ZM21.9339 16.831C21.9339 17.4538 22.0601 18.1012 22.4678 18.6192L24.1077 17.3285C24.1015 17.3206 24.0208 17.2061 24.0208 16.831H21.9339ZM22.4744 18.6276C22.9172 19.1784 23.5426 19.408 24.1897 19.408V17.321C24.1089 17.321 24.0813 17.3078 24.085 17.3094C24.0866 17.3101 24.0912 17.3124 24.0965 17.3164C24.1017 17.3204 24.1032 17.3227 24.1011 17.3202L22.4744 18.6276ZM24.1897 19.408C24.4704 19.408 24.7471 19.381 25.0148 19.3195L24.5476 17.2855C24.4551 17.3068 24.3373 17.321 24.1897 17.321V19.408ZM25.8246 18.3025V17.4663H23.7377V18.3025H25.8246ZM24.7812 16.4228H23.8281V18.5097H24.7812V16.4228ZM24.8716 17.4663V16.3526H22.7846V17.4663H24.8716ZM30.3899 19.4783V20.5217C30.9662 20.5217 31.4333 20.0545 31.4333 19.4783H30.3899ZM27.2204 19.4783H26.1769C26.1769 20.0545 26.6441 20.5217 27.2204 20.5217V19.4783ZM27.2204 14.1397V13.0963C26.6441 13.0963 26.1769 13.5635 26.1769 14.1397H27.2204ZM30.3899 14.1397H31.4333C31.4333 13.5635 30.9662 13.0963 30.3899 13.0963V14.1397ZM30.3899 15.2973V16.3408C30.9662 16.3408 31.4333 15.8736 31.4333 15.2973H30.3899ZM28.6627 15.2973V14.2538C28.0865 14.2538 27.6193 14.721 27.6193 15.2973H28.6627ZM28.6627 16.1371H27.6193C27.6193 16.7135 28.0865 17.1806 28.6627 17.1806V16.1371ZM30.2621 16.1371H31.3056C31.3056 15.5609 30.8384 15.0937 30.2621 15.0937V16.1371ZM30.2621 17.2947V18.3382C30.8384 18.3382 31.3056 17.871 31.3056 17.2947H30.2621ZM28.6627 17.2947V16.2512C28.0865 16.2512 27.6193 16.7184 27.6193 17.2947H28.6627ZM28.6627 18.3025H27.6193C27.6193 18.8788 28.0865 19.346 28.6627 19.346V18.3025ZM30.3899 18.3025H31.4333C31.4333 17.7262 30.9662 17.259 30.3899 17.259V18.3025ZM30.3899 18.4348H27.2204V20.5217H30.3899V18.4348ZM28.2639 19.4783V14.1397H26.1769V19.4783H28.2639ZM27.2204 15.1832H30.3899V13.0963H27.2204V15.1832ZM29.3464 14.1397V15.2973H31.4333V14.1397H29.3464ZM30.3899 14.2538H28.6627V16.3408H30.3899V14.2538ZM27.6193 15.2973V16.1371H29.7062V15.2973H27.6193ZM28.6627 17.1806H30.2621V15.0937H28.6627V17.1806ZM29.2186 16.1371V17.2947H31.3056V16.1371H29.2186ZM30.2621 16.2512H28.6627V18.3382H30.2621V16.2512ZM27.6193 17.2947V18.3025H29.7062V17.2947H27.6193ZM28.6627 19.346H30.3899V17.259H28.6627V19.346ZM29.3464 18.3025V19.4783H31.4333V18.3025H29.3464ZM32.767 17.5357V16.4922C32.1907 16.4922 31.7235 16.9594 31.7235 17.5357H32.767ZM32.767 19.4783V20.5217C33.3433 20.5217 33.8105 20.0545 33.8105 19.4783H32.767ZM31.3246 19.4783H30.2812C30.2812 20.0545 30.7484 20.5217 31.3246 20.5217V19.4783ZM31.3246 14.1397V13.0963C30.7484 13.0963 30.2812 13.5635 30.2812 14.1397H31.3246ZM34.3445 17.1523L33.8343 16.242C33.5805 16.3843 33.3975 16.6261 33.3297 16.909C33.2619 17.192 33.3153 17.4904 33.4771 17.7324L34.3445 17.1523ZM35.9 19.4783V20.5217C36.2851 20.5217 36.6389 20.3097 36.8204 19.97C37.0019 19.6303 36.9815 19.2183 36.7674 18.8982L35.9 19.4783ZM34.2641 19.4783L33.3626 20.0037C33.5495 20.3244 33.8928 20.5217 34.2641 20.5217V19.4783ZM33.1322 17.5357L34.0338 17.0104C33.8468 16.6895 33.5035 16.4922 33.1322 16.4922V17.5357ZM32.767 16.4511H31.7235C31.7235 17.0275 32.1907 17.4946 32.767 17.4946V16.4511ZM32.767 15.2316V14.1881C32.1907 14.1881 31.7235 14.6553 31.7235 15.2316H32.767ZM31.7235 17.5357V19.4783H33.8105V17.5357H31.7235ZM32.767 18.4348H31.3246V20.5217H32.767V18.4348ZM32.3681 19.4783V14.1397H30.2812V19.4783H32.3681ZM31.3246 15.1832H33.0738V13.0963H31.3246V15.1832ZM33.0738 15.1832C33.7042 15.1832 33.9888 15.303 34.0936 15.379C34.1346 15.4088 34.1526 15.4341 34.166 15.463C34.182 15.4977 34.2066 15.5736 34.2066 15.7172H36.2935C36.2935 14.9231 36.0013 14.1843 35.3184 13.6892C34.6977 13.2394 33.8941 13.0963 33.0738 13.0963V15.1832ZM34.2066 15.7172C34.2066 15.9064 34.1563 16.0615 33.8343 16.242L34.8546 18.0625C35.74 17.5663 36.2935 16.7648 36.2935 15.7172H34.2066ZM33.4771 17.7324L35.0326 20.0584L36.7674 18.8982L35.2119 16.5722L33.4771 17.7324ZM35.9 18.4348H34.2641V20.5217H35.9V18.4348ZM35.1657 18.9529L34.0338 17.0104L32.2306 18.061L33.3626 20.0037L35.1657 18.9529ZM33.1322 16.4922H32.767V18.5791H33.1322V16.4922ZM32.767 17.4946H33.0373V15.4077H32.767V17.4946ZM33.0373 17.4946C33.4206 17.4946 33.903 17.4127 34.2953 17.0659C34.7121 16.6974 34.8366 16.2022 34.8366 15.783H32.7496C32.7496 15.7985 32.7472 15.7664 32.7694 15.7071C32.7941 15.6417 32.8407 15.5662 32.913 15.5023C33.0533 15.3783 33.1578 15.4077 33.0373 15.4077V17.4946ZM34.8366 15.783C34.8366 15.3413 34.6717 14.8603 34.2306 14.5322C33.8473 14.247 33.3979 14.1881 33.0519 14.1881V16.275C33.1141 16.275 33.1345 16.2812 33.125 16.2789C33.1146 16.2763 33.0574 16.2605 32.985 16.2067C32.9066 16.1483 32.838 16.0656 32.7946 15.9684C32.7537 15.8773 32.7496 15.807 32.7496 15.783H34.8366ZM33.0519 14.1881H32.767V16.275H33.0519V14.1881ZM31.7235 15.2316V16.4511H33.8105V15.2316H31.7235Z" fill="white"/>
<path d="M7.55332 25.1057L8.42536 25.6787C8.42619 25.6774 8.42701 25.6762 8.42784 25.6749L7.55332 25.1057ZM6.84357 25.6905L7.26872 26.6435C7.27076 26.6426 7.27279 26.6417 7.27481 26.6408L6.84357 25.6905ZM4.88195 25.8261L4.66543 26.8469C4.66873 26.8476 4.67202 26.8483 4.67533 26.8489L4.88195 25.8261ZM4.14724 25.5693H3.10376C3.10376 25.9717 3.33507 26.3382 3.69827 26.5112L4.14724 25.5693ZM4.14724 24.3138L4.62373 23.3856C4.30025 23.2195 3.91366 23.2338 3.60334 23.4233C3.29304 23.6129 3.10376 23.9503 3.10376 24.3138H4.14724ZM4.98539 24.6384L4.71292 25.6457C4.71549 25.6464 4.71806 25.6471 4.72064 25.6477L4.98539 24.6384ZM6.24439 24.6456L6.86057 25.4877C6.86498 25.4844 6.86936 25.4812 6.87372 25.4779L6.24439 24.6456ZM6.32999 24.1784L5.47339 24.7743C5.48333 24.7885 5.49364 24.8026 5.50429 24.8164L6.32999 24.1784ZM6.14095 24.0143L5.57916 24.8936C5.58278 24.8959 5.58641 24.8982 5.59006 24.9004L6.14095 24.0143ZM5.44904 23.679L5.01725 24.629C5.0186 24.6296 5.01997 24.6302 5.02133 24.6308L5.44904 23.679ZM4.68223 23.2297L4.00222 24.0211C4.00405 24.0227 4.00587 24.0243 4.0077 24.0257L4.68223 23.2297ZM4.30417 22.7303L3.34569 23.1428C3.34715 23.1462 3.34863 23.1496 3.35013 23.153L4.30417 22.7303ZM7.79941 20.9113L8.76938 21.2962C8.97572 20.7759 8.73494 20.1855 8.22359 19.958L7.79941 20.9113ZM7.36786 21.9991L6.93292 22.9477C7.19309 23.067 7.49083 23.0742 7.75645 22.9676C8.02207 22.861 8.23225 22.65 8.33779 22.3839L7.36786 21.9991ZM5.73793 22.2737L5.0999 23.0995C5.10288 23.1017 5.10588 23.1041 5.10889 23.1064L5.73793 22.2737ZM6.60105 22.716L6.16744 23.6651C6.1693 23.666 6.17117 23.6669 6.17305 23.6677L6.60105 22.716ZM7.53548 23.3687L6.69866 23.9921C6.70104 23.9953 6.70345 23.9984 6.70586 24.0017L7.53548 23.3687ZM6.75593 24.2425C6.75593 24.3797 6.72423 24.4666 6.67879 24.5364L8.42784 25.6749C8.71051 25.2406 8.84286 24.7521 8.84286 24.2425H6.75593ZM6.68128 24.5326C6.63976 24.5957 6.56692 24.6702 6.41232 24.7404L7.27481 26.6408C7.73843 26.4304 8.13875 26.1149 8.42536 25.6787L6.68128 24.5326ZM6.41841 24.7377C6.27009 24.8038 6.05812 24.8539 5.75577 24.8539V26.9409C6.28561 26.9409 6.79884 26.8531 7.26872 26.6435L6.41841 24.7377ZM5.75577 24.8539C5.45022 24.8539 5.23326 24.8325 5.08859 24.8033L4.67533 26.8489C5.00143 26.9148 5.36701 26.9409 5.75577 26.9409V24.8539ZM5.09848 24.8053C4.95569 24.775 4.78879 24.7191 4.5962 24.6273L3.69827 26.5112C4.01452 26.662 4.33743 26.7773 4.66543 26.8469L5.09848 24.8053ZM5.19072 25.5693V24.3138H3.10376V25.5693H5.19072ZM3.67075 25.2422C4.00416 25.4133 4.3519 25.548 4.71292 25.6457L5.25785 23.6311C5.03871 23.5718 4.82768 23.4902 4.62373 23.3856L3.67075 25.2422ZM4.72064 25.6477C5.07766 25.7414 5.43431 25.796 5.7843 25.796V23.709C5.64924 23.709 5.47327 23.6877 5.25012 23.6291L4.72064 25.6477ZM5.7843 25.796C6.07033 25.796 6.495 25.7551 6.86057 25.4877L5.6282 23.8034C5.72184 23.735 5.79919 23.7143 5.81989 23.7095C5.84124 23.7044 5.83365 23.709 5.7843 23.709V25.796ZM6.87372 25.4779C7.21059 25.2232 7.43409 24.831 7.43409 24.3638H5.34713C5.34713 24.267 5.36921 24.1522 5.42788 24.0391C5.48535 23.9284 5.55907 23.8556 5.61506 23.8132L6.87372 25.4779ZM7.43409 24.3638C7.43409 24.081 7.34872 23.7902 7.15567 23.5403L5.50429 24.8164C5.39208 24.6711 5.34713 24.5039 5.34713 24.3638H7.43409ZM7.18658 23.5824C7.03508 23.3647 6.84055 23.2205 6.69185 23.1281L5.59006 24.9004C5.59786 24.9053 5.58895 24.9006 5.57022 24.8844C5.55207 24.8686 5.51429 24.833 5.47339 24.7743L7.18658 23.5824ZM6.70275 23.135C6.538 23.0297 6.22558 22.884 5.87674 22.7272L5.02133 24.6308C5.20478 24.7132 5.34621 24.7788 5.44878 24.8285C5.56607 24.8853 5.59413 24.9031 5.57916 24.8936L6.70275 23.135ZM5.88083 22.7291C5.5786 22.5917 5.422 22.4888 5.35675 22.4335L4.0077 24.0257C4.28484 24.2606 4.63945 24.4572 5.01725 24.629L5.88083 22.7291ZM5.36223 22.4382C5.30106 22.3856 5.27351 22.3422 5.25821 22.3077L3.35013 23.153C3.50126 23.4941 3.72575 23.7836 4.00222 24.0211L5.36223 22.4382ZM5.26265 22.3178C5.25026 22.289 5.22639 22.2133 5.22639 22.0634H3.13943C3.13943 22.427 3.19639 22.7959 3.34569 23.1428L5.26265 22.3178ZM5.22639 22.0634C5.22639 21.8737 5.27593 21.8189 5.34314 21.7671L4.07125 20.1126C3.4394 20.5983 3.13943 21.2924 3.13943 22.0634H5.22639ZM5.34314 21.7671C5.45149 21.6839 5.67979 21.5804 6.14809 21.5804V19.4934C5.39423 19.4934 4.66194 19.6585 4.07125 20.1126L5.34314 21.7671ZM6.14809 21.5804C6.52283 21.5804 6.92924 21.6663 7.37524 21.8647L8.22359 19.958C7.5473 19.657 6.85283 19.4934 6.14809 19.4934V21.5804ZM6.82947 20.5265L6.39792 21.6144L8.33779 22.3839L8.76938 21.2962L6.82947 20.5265ZM7.80279 21.0506C7.24248 20.7937 6.66667 20.6204 6.10529 20.6204V22.7074C6.25246 22.7074 6.51837 22.7576 6.93292 22.9477L7.80279 21.0506ZM6.10529 20.6204C5.84482 20.6204 5.42677 20.6576 5.06847 20.934L6.34319 22.5864C6.23901 22.6668 6.14741 22.694 6.11266 22.7024C6.07752 22.7109 6.07041 22.7074 6.10529 22.7074V20.6204ZM5.06847 20.934C4.76001 21.1719 4.53752 21.5435 4.53752 21.9991H6.62448C6.62448 22.1097 6.59874 22.2332 6.5371 22.3512C6.47712 22.466 6.401 22.5418 6.34319 22.5864L5.06847 20.934ZM4.53752 21.9991C4.53752 22.5155 4.82132 22.8842 5.0999 23.0995L6.37596 21.4481C6.40573 21.4711 6.46928 21.5271 6.52623 21.6268C6.58723 21.7336 6.62448 21.8629 6.62448 21.9991H4.53752ZM5.10889 23.1064C5.24235 23.2072 5.41443 23.3 5.55812 23.3737C5.72153 23.4574 5.92626 23.555 6.16744 23.6651L7.03466 21.7669C6.80742 21.6631 6.63409 21.58 6.5098 21.5164C6.44769 21.4845 6.40366 21.4605 6.37446 21.4436C6.34037 21.4239 6.34424 21.424 6.36698 21.4412L5.10889 23.1064ZM6.17305 23.6677C6.55937 23.8415 6.6812 23.9686 6.69866 23.9921L8.37232 22.7454C8.04263 22.3028 7.54149 21.9949 7.02904 21.7644L6.17305 23.6677ZM6.70586 24.0017C6.71552 24.0143 6.75593 24.0693 6.75593 24.2425H8.84286C8.84286 23.712 8.70738 23.1844 8.36511 22.7358L6.70586 24.0017ZM10.9059 25.8261V26.8696C11.4822 26.8696 11.9494 26.4024 11.9494 25.8261H10.9059ZM9.49712 25.8261H8.45362C8.45362 26.4024 8.92077 26.8696 9.49712 26.8696V25.8261ZM9.49712 21.7637H10.5406C10.5406 21.1875 10.0734 20.7203 9.49712 20.7203V21.7637ZM8.22384 21.7637H7.18036C7.18036 22.3401 7.64753 22.8072 8.22384 22.8072V21.7637ZM8.22384 20.6117V19.5683C7.64753 19.5683 7.18036 20.0355 7.18036 20.6117H8.22384ZM12.1756 20.6117H13.2191C13.2191 20.0355 12.7519 19.5683 12.1756 19.5683V20.6117ZM12.1756 21.7637V22.8072C12.7519 22.8072 13.2191 22.3401 13.2191 21.7637H12.1756ZM10.9059 21.7637V20.7203C10.3296 20.7203 9.86242 21.1875 9.86242 21.7637H10.9059ZM10.9059 24.7826H9.49712V26.8696H10.9059V24.7826ZM10.5406 25.8261V21.7637H8.45362V25.8261H10.5406ZM9.49712 20.7203H8.22384V22.8072H9.49712V20.7203ZM9.26729 21.7637V20.6117H7.18036V21.7637H9.26729ZM8.22384 21.6552H12.1756V19.5683H8.22384V21.6552ZM11.1322 20.6117V21.7637H13.2191V20.6117H11.1322ZM12.1756 20.7203H10.9059V22.8072H12.1756V20.7203ZM9.86242 21.7637V25.8261H11.9494V21.7637H9.86242ZM16.1202 25.8261L15.111 26.0913C15.2315 26.5499 15.6461 26.8696 16.1202 26.8696V25.8261ZM15.8635 24.8489L16.8727 24.5837C16.7522 24.1251 16.3376 23.8054 15.8635 23.8054V24.8489ZM14.1693 24.8489V23.8054C13.6978 23.8054 13.2849 24.1216 13.1619 24.5768L14.1693 24.8489ZM13.9054 25.8261V26.8696C14.3769 26.8696 14.7898 26.5534 14.9128 26.0982L13.9054 25.8261ZM12.3575 25.8261L11.3651 25.5037C11.2619 25.8213 11.3169 26.1692 11.5133 26.4394C11.7096 26.7097 12.0235 26.8696 12.3575 26.8696V25.8261ZM14.0588 20.5904V19.5469C13.6067 19.5469 13.2061 19.838 13.0663 20.2679L14.0588 20.5904ZM15.9383 20.5904L16.9296 20.2643C16.7887 19.8362 16.3889 19.5469 15.9383 19.5469V20.5904ZM17.661 25.8261V26.8696C17.9957 26.8696 18.3101 26.7091 18.5063 26.4378C18.7026 26.1667 18.7568 25.8179 18.6522 25.5L17.661 25.8261ZM15.5709 23.6933V24.7368C15.8944 24.7368 16.1996 24.5867 16.3972 24.3306C16.5948 24.0745 16.6624 23.7412 16.5802 23.4284L15.5709 23.6933ZM15.3462 22.8373L16.3555 22.5724C16.3545 22.5684 16.3535 22.5645 16.3524 22.5606L15.3462 22.8373ZM15.1537 22.0991L14.14 22.3464C14.1406 22.349 14.1412 22.3515 14.1418 22.354L15.1537 22.0991ZM15.0075 21.4499L16.0341 21.2632C15.9437 20.7661 15.5101 20.4051 15.0048 20.4064C14.4995 20.4077 14.0676 20.771 13.9799 21.2685L15.0075 21.4499ZM14.879 22.0491L13.8623 21.8144C13.8616 21.8172 13.861 21.82 13.8604 21.8227L14.879 22.0491ZM14.4618 23.6933L13.453 23.4264C13.3702 23.7395 13.4374 24.0732 13.6349 24.3298C13.8325 24.5864 14.138 24.7368 14.4618 24.7368V23.6933ZM17.1295 25.5609L16.8727 24.5837L14.8542 25.114L15.111 26.0913L17.1295 25.5609ZM15.8635 23.8054H14.1693V25.8924H15.8635V23.8054ZM13.1619 24.5768L12.898 25.554L14.9128 26.0982L15.1767 25.1209L13.1619 24.5768ZM13.9054 24.7826H12.3575V26.8696H13.9054V24.7826ZM13.3499 26.1485L15.0511 20.9128L13.0663 20.2679L11.3651 25.5037L13.3499 26.1485ZM14.0588 21.6338H15.9383V19.5469H14.0588V21.6338ZM14.9471 20.9165L16.6698 26.1522L18.6522 25.5L16.9296 20.2643L14.9471 20.9165ZM17.661 24.7826H16.1202V26.8696H17.661V24.7826ZM16.5802 23.4284L16.3555 22.5724L14.337 23.1023L14.5617 23.9582L16.5802 23.4284ZM16.3524 22.5606C16.3029 22.3805 16.2407 22.1424 16.1656 21.8441L14.1418 22.354C14.2189 22.6596 14.285 22.9137 14.3402 23.114L16.3524 22.5606ZM16.1674 21.8516C16.0939 21.5504 16.0518 21.3605 16.0341 21.2632L13.9809 21.6365C14.0107 21.8008 14.0661 22.0437 14.14 22.3464L16.1674 21.8516ZM13.9799 21.2685C13.9636 21.3606 13.9263 21.5371 13.8623 21.8144L15.8958 22.2837C15.9602 22.0047 16.0085 21.7817 16.035 21.6312L13.9799 21.2685ZM13.8604 21.8227C13.8039 22.0772 13.6702 22.6053 13.453 23.4264L15.4706 23.9602C15.6861 23.1454 15.8306 22.5773 15.8977 22.2755L13.8604 21.8227ZM14.4618 24.7368H15.5709V22.6498H14.4618V24.7368ZM20.5285 25.8261V26.8696C21.1049 26.8696 21.572 26.4024 21.572 25.8261H20.5285ZM19.1197 25.8261H18.0762C18.0762 26.4024 18.5435 26.8696 19.1197 26.8696V25.8261ZM19.1197 21.7637H20.1632C20.1632 21.1875 19.696 20.7203 19.1197 20.7203V21.7637ZM17.8464 21.7637H16.8029C16.8029 22.3401 17.2702 22.8072 17.8464 22.8072V21.7637ZM17.8464 20.6117V19.5683C17.2702 19.5683 16.8029 20.0355 16.8029 20.6117H17.8464ZM21.7982 20.6117H22.8417C22.8417 20.0355 22.3745 19.5683 21.7982 19.5683V20.6117ZM21.7982 21.7637V22.8072C22.3745 22.8072 22.8417 22.3401 22.8417 21.7637H21.7982ZM20.5285 21.7637V20.7203C19.9522 20.7203 19.485 21.1875 19.485 21.7637H20.5285ZM20.5285 24.7826H19.1197V26.8696H20.5285V24.7826ZM20.1632 25.8261V21.7637H18.0762V25.8261H20.1632ZM19.1197 20.7203H17.8464V22.8072H19.1197V20.7203ZM18.8899 21.7637V20.6117H16.8029V21.7637H18.8899ZM17.8464 21.6552H21.7982V19.5683H17.8464V21.6552ZM20.7548 20.6117V21.7637H22.8417V20.6117H20.7548ZM21.7982 20.7203H20.5285V22.8072H21.7982V20.7203ZM19.485 21.7637V25.8261H21.572V21.7637H19.485ZM22.5436 25.8261H21.5002C21.5002 26.4024 21.9674 26.8696 22.5436 26.8696V25.8261ZM22.5436 20.6117V19.5683C21.9674 19.5683 21.5002 20.0355 21.5002 20.6117H22.5436ZM23.9595 20.6117H25.003C25.003 20.0355 24.5359 19.5683 23.9595 19.5683V20.6117ZM23.9595 25.8261V26.8696C24.5359 26.8696 25.003 26.4024 25.003 25.8261H23.9595ZM23.5871 25.8261V20.6117H21.5002V25.8261H23.5871ZM22.5436 21.6552H23.9595V19.5683H22.5436V21.6552ZM22.9161 20.6117V25.8261H25.003V20.6117H22.9161ZM23.9595 24.7826H22.5436V26.8696H23.9595V24.7826ZM25.5502 25.2091L24.793 25.9271C24.7937 25.9277 24.7943 25.9284 24.795 25.9291L25.5502 25.2091ZM25.5467 21.2181L24.7895 20.5001L24.7894 20.5002L25.5467 21.2181ZM28.2252 24.3567L27.3738 23.7533C27.3725 23.7551 27.3713 23.757 27.37 23.7588L28.2252 24.3567ZM28.2216 22.0598L27.3649 22.6555C27.367 22.6585 27.3692 22.6617 27.3714 22.6648L28.2216 22.0598ZM28.9258 23.2118C28.9258 23.9297 28.7502 24.2997 28.5644 24.4969L30.0829 25.9284C30.7579 25.2125 31.0128 24.2486 31.0128 23.2118H28.9258ZM28.5644 24.4969C28.3891 24.6829 28.0728 24.8539 27.4334 24.8539V26.9409C28.4536 26.9409 29.3975 26.6555 30.0829 25.9284L28.5644 24.4969ZM27.4334 24.8539C26.8137 24.8539 26.4931 24.6858 26.3055 24.489L24.795 25.9291C25.4824 26.6502 26.4173 26.9409 27.4334 26.9409V24.8539ZM26.3075 24.4911C26.1173 24.2905 25.941 23.9194 25.941 23.2047H23.8541C23.8541 24.2446 24.1129 25.2098 24.793 25.9271L26.3075 24.4911ZM25.941 23.2047C25.941 22.5012 26.1152 22.1351 26.304 21.9359L24.7894 20.5002C24.1127 21.2141 23.8541 22.1724 23.8541 23.2047H25.941ZM26.3039 21.9361C26.4862 21.7437 26.8069 21.5732 27.4405 21.5732V19.4863C26.4194 19.4863 25.4774 19.7746 24.7895 20.5001L26.3039 21.9361ZM27.4405 21.5732C28.0818 21.5732 28.396 21.7442 28.5679 21.9266L30.0867 20.4953C29.4026 19.7694 28.4589 19.4863 27.4405 19.4863V21.5732ZM28.5679 21.9266C28.7502 22.12 28.9258 22.4887 28.9258 23.2118H31.0128C31.0128 22.1754 30.7604 21.2102 30.0867 20.4953L28.5679 21.9266ZM25.3378 23.2118C25.3378 23.8047 25.4351 24.4351 25.7877 24.9419C26.1882 25.5175 26.7974 25.7675 27.4334 25.7675V23.6805C27.3829 23.6805 27.3891 23.6717 27.424 23.6884C27.4639 23.7076 27.4911 23.7359 27.5009 23.75C27.506 23.7574 27.485 23.7303 27.4636 23.6377C27.442 23.5449 27.4248 23.4067 27.4248 23.2118H25.3378ZM27.4334 25.7675C28.0555 25.7675 28.6745 25.5351 29.0804 24.9545L27.37 23.7588C27.3764 23.7497 27.3882 23.7353 27.4062 23.7201C27.4244 23.7047 27.4432 23.6932 27.4597 23.6857C27.4928 23.6703 27.4935 23.6805 27.4334 23.6805V25.7675ZM29.0765 24.96C29.437 24.4514 29.529 23.8064 29.529 23.2118H27.4421C27.4421 23.4166 27.4246 23.5604 27.4029 23.6554C27.3812 23.7511 27.3612 23.771 27.3738 23.7533L29.0765 24.96ZM29.529 23.2118C29.529 22.6129 29.4352 21.9655 29.0718 21.4548L27.3714 22.6648C27.36 22.6487 27.3804 22.67 27.4024 22.7663C27.4243 22.8619 27.4421 23.0064 27.4421 23.2118H29.529ZM29.0784 21.4641C28.6798 20.8909 28.0734 20.6418 27.4405 20.6418V22.7288C27.4891 22.7288 27.4813 22.7372 27.445 22.7198C27.4275 22.7115 27.4095 22.6998 27.3934 22.6859C27.3775 22.6722 27.3684 22.6605 27.3649 22.6555L29.0784 21.4641ZM27.4405 20.6418C26.801 20.6418 26.19 20.8938 25.7888 21.472C25.4355 21.981 25.3378 22.6144 25.3378 23.2118H27.4248C27.4248 23.0144 27.4422 22.8738 27.4641 22.7791C27.486 22.6844 27.5076 22.6557 27.5034 22.6618C27.4945 22.6747 27.4682 22.7024 27.4289 22.7213C27.3948 22.7377 27.3893 22.7288 27.4405 22.7288V20.6418ZM35.8755 25.8261V26.8696C36.4518 26.8696 36.9189 26.4024 36.9189 25.8261H35.8755ZM34.028 25.8261L33.1016 26.3064C33.281 26.6524 33.6382 26.8696 34.028 26.8696V25.8261ZM32.1235 22.1525L33.0498 21.6723C32.8704 21.3263 32.5132 21.1091 32.1235 21.1091V22.1525ZM32.0914 22.1525V21.1091C31.8005 21.1091 31.5228 21.2304 31.3253 21.444C31.1278 21.6576 31.0284 21.9438 31.051 22.2338L32.0914 22.1525ZM32.1591 25.8261V26.8696C32.7355 26.8696 33.2026 26.4024 33.2026 25.8261H32.1591ZM30.9109 25.8261H29.8674C29.8674 26.4024 30.3345 26.8696 30.9109 26.8696V25.8261ZM30.9109 20.6117V19.5683C30.3345 19.5683 29.8674 20.0355 29.8674 20.6117H30.9109ZM32.7512 20.6117L33.6756 20.1277C33.4955 19.7838 33.1394 19.5683 32.7512 19.5683V20.6117ZM34.6486 24.2354L33.7242 24.7195C33.9042 25.0634 34.2604 25.2789 34.6486 25.2789V24.2354ZM34.67 24.2354V25.2789C34.9582 25.2789 35.2335 25.1597 35.4309 24.9496C35.6281 24.7394 35.7296 24.4571 35.7114 24.1694L34.67 24.2354ZM34.6201 20.6117V19.5683C34.0437 19.5683 33.5766 20.0355 33.5766 20.6117H34.6201ZM35.8755 20.6117H36.9189C36.9189 20.0355 36.4518 19.5683 35.8755 19.5683V20.6117ZM35.8755 24.7826H34.028V26.8696H35.8755V24.7826ZM34.9544 25.3458L33.0498 21.6723L31.1971 22.6328L33.1016 26.3064L34.9544 25.3458ZM32.1235 21.1091H32.0914V23.196H32.1235V21.1091ZM31.051 22.2338C31.0956 22.8041 31.1156 23.2128 31.1156 23.4757H33.2026C33.2026 23.1299 33.1775 22.6565 33.1316 22.0711L31.051 22.2338ZM31.1156 23.4757V25.8261H33.2026V23.4757H31.1156ZM32.1591 24.7826H30.9109V26.8696H32.1591V24.7826ZM31.9543 25.8261V20.6117H29.8674V25.8261H31.9543ZM30.9109 21.6552H32.7512V19.5683H30.9109V21.6552ZM31.8268 21.0958L33.7242 24.7195L35.573 23.7514L33.6756 20.1277L31.8268 21.0958ZM34.6486 25.2789H34.67V23.1919H34.6486V25.2789ZM35.7114 24.1694C35.6787 23.6537 35.6635 23.2564 35.6635 22.9692H33.5766C33.5766 23.3194 33.5947 23.7661 33.6286 24.3014L35.7114 24.1694ZM35.6635 22.9692V20.6117H33.5766V22.9692H35.6635ZM34.6201 21.6552H35.8755V19.5683H34.6201V21.6552ZM34.832 20.6117V25.8261H36.9189V20.6117H34.832Z" fill="white"/>
<path d="M8.63086 19.4782H7.18122V17.302H5.50519V19.4782H4.05554V14.1397H5.50519V16.1188H7.18122V14.1397H8.63086V19.4782ZM14.3272 14.1397V17.3531C14.3272 18.0517 14.1288 18.5934 13.732 18.978C13.3376 19.3602 12.768 19.5513 12.0231 19.5513C11.2952 19.5513 10.7353 19.365 10.3434 18.9926C9.95391 18.6202 9.75921 18.0846 9.75921 17.3859V14.1397H11.2088V17.2728C11.2088 17.6501 11.2794 17.9239 11.4206 18.0943C11.5618 18.2648 11.7699 18.3499 12.045 18.3499C12.3396 18.3499 12.5526 18.266 12.684 18.098C12.8179 17.9275 12.8849 17.6501 12.8849 17.2655V14.1397H14.3272ZM20.5311 19.4782H18.6396L16.6897 15.7172H16.6569C16.7031 16.3088 16.7263 16.7603 16.7263 17.0719V19.4782H15.4482V14.1397H17.3323L19.275 17.8496H19.2969C19.2628 17.3117 19.2457 16.8796 19.2457 16.5534V14.1397H20.5311V19.4782ZM23.8283 16.3526H26.1325V19.23C25.5069 19.4442 24.8191 19.5513 24.0694 19.5513C23.2466 19.5513 22.61 19.3127 22.1596 18.8355C21.7117 18.3584 21.4877 17.6781 21.4877 16.7944C21.4877 15.9327 21.7336 15.262 22.2254 14.7824C22.7171 14.3028 23.406 14.0631 24.2921 14.0631C24.6281 14.0631 24.9445 14.0948 25.2415 14.158C25.541 14.2213 25.8014 14.3016 26.023 14.399L25.5665 15.5309C25.1819 15.3411 24.7595 15.2462 24.2994 15.2462C23.8783 15.2462 23.5521 15.3837 23.3209 15.6588C23.092 15.9315 22.9776 16.3222 22.9776 16.8309C22.9776 17.33 23.081 17.7109 23.288 17.9738C23.4973 18.2343 23.798 18.3645 24.1899 18.3645C24.4041 18.3645 24.6013 18.3438 24.7814 18.3025V17.4662H23.8283V16.3526ZM30.3901 19.4782H27.2206V14.1397H30.3901V15.2973H28.663V16.1371H30.2623V17.2947H28.663V18.3025H30.3901V19.4782ZM32.7672 17.5356V19.4782H31.3249V14.1397H33.074C34.5249 14.1397 35.2503 14.6655 35.2503 15.7172C35.2503 16.3355 34.9484 16.8139 34.3447 17.1522L35.9003 19.4782H34.2643L33.1324 17.5356H32.7672ZM32.7672 16.4511H33.0375C33.5414 16.4511 33.7933 16.2284 33.7933 15.7829C33.7933 15.4154 33.5463 15.2315 33.0521 15.2315H32.7672V16.4511Z" fill="#592913"/>
<path d="M7.7996 24.2425C7.7996 24.5659 7.71757 24.8536 7.55351 25.1057C7.38944 25.3553 7.15286 25.5503 6.84376 25.6905C6.53465 25.8284 6.17205 25.8974 5.75596 25.8974C5.40881 25.8974 5.11754 25.8737 4.88214 25.8261C4.64675 25.7762 4.40184 25.6905 4.14743 25.5693V24.3138C4.4161 24.4517 4.69549 24.5599 4.98557 24.6384C5.27565 24.7145 5.54196 24.7525 5.78449 24.7525C5.99372 24.7525 6.14709 24.7169 6.24458 24.6456C6.34206 24.5718 6.3908 24.4779 6.3908 24.3638C6.3908 24.2924 6.37059 24.2306 6.33017 24.1783C6.29213 24.1237 6.22912 24.069 6.14114 24.0143C6.05555 23.9596 5.82491 23.8478 5.44923 23.679C5.10922 23.5244 4.85361 23.3747 4.68242 23.2297C4.51359 23.0846 4.38757 22.9182 4.30436 22.7303C4.22351 22.5424 4.1831 22.3202 4.1831 22.0634C4.1831 21.583 4.35785 21.2085 4.70738 20.9399C5.05691 20.6712 5.5372 20.5369 6.14828 20.5369C6.68802 20.5369 7.23846 20.6617 7.7996 20.9113L7.36804 21.9991C6.88061 21.7757 6.45976 21.6639 6.10548 21.6639C5.92239 21.6639 5.78924 21.696 5.70602 21.7602C5.6228 21.8243 5.58119 21.904 5.58119 21.9991C5.58119 22.1014 5.6335 22.193 5.73812 22.2737C5.84511 22.3546 6.13282 22.502 6.60124 22.716C7.05062 22.9182 7.36211 23.1357 7.53567 23.3687C7.71163 23.5994 7.7996 23.8906 7.7996 24.2425ZM10.9061 25.8261H9.49731V21.7637H8.22403V20.6117H12.1758V21.7637H10.9061V25.8261ZM16.1204 25.8261L15.8637 24.8489H14.1695L13.9056 25.8261H12.3577L14.059 20.5903H15.9385L17.6612 25.8261H16.1204ZM15.5711 23.6933L15.3464 22.8373C15.2942 22.647 15.23 22.401 15.1539 22.099C15.0802 21.797 15.0314 21.5807 15.0077 21.4499C14.9863 21.5711 14.9435 21.7709 14.8792 22.049C14.8174 22.3273 14.6784 22.8753 14.462 23.6933H15.5711ZM20.5287 25.8261H19.1199V21.7637H17.8466V20.6117H21.7984V21.7637H20.5287V25.8261ZM22.5438 25.8261V20.6117H23.9597V25.8261H22.5438ZM29.9695 23.2118C29.9695 24.0891 29.7543 24.7561 29.3239 25.2126C28.8935 25.6691 28.2634 25.8974 27.4336 25.8974C26.6157 25.8974 25.9879 25.668 25.5504 25.209C25.1153 24.7502 24.8977 24.082 24.8977 23.2047C24.8977 22.3368 25.1142 21.6746 25.5469 21.2181C25.982 20.7591 26.6133 20.5297 27.4407 20.5297C28.2705 20.5297 28.8995 20.7568 29.3275 21.211C29.7555 21.665 29.9695 22.332 29.9695 23.2118ZM26.3815 23.2118C26.3815 24.2199 26.7322 24.724 27.4336 24.724C27.7903 24.724 28.0542 24.6016 28.2254 24.3567C28.399 24.1117 28.4857 23.7301 28.4857 23.2118C28.4857 22.691 28.3977 22.307 28.2218 22.0598C28.0483 21.8101 27.7879 21.6853 27.4407 21.6853C26.7345 21.6853 26.3815 22.1941 26.3815 23.2118ZM35.8757 25.8261H34.0282L32.1237 22.1525H32.0916C32.1367 22.7303 32.1593 23.1714 32.1593 23.4757V25.8261H30.911V20.6117H32.7514L34.6488 24.2354H34.6702C34.6369 23.7099 34.6203 23.2879 34.6203 22.9692V20.6117H35.8757V25.8261Z" fill="#592913"/>
</svg>
