<svg width="40" height="40" viewBox="0 0 40 40" fill="none" xmlns="http://www.w3.org/2000/svg">
<rect width="40" height="40" fill="#EA1D2C"/>
<path d="M5.37695 22.2359H7.60275L8.8393 16.084H6.61351L5.37695 22.2359ZM7.07721 15.5276H9.70489L10.1377 13.3636H7.51001L7.07721 15.5276ZM8.46834 23.9671H10.6941L12.0543 17.3206H13.7237L13.971 16.084H12.3326L12.3944 15.8058C12.4871 15.2803 12.6726 14.6929 13.5073 14.6929C14.0019 14.6929 14.4656 14.7238 14.9293 14.9402L15.1766 13.6419C14.6511 13.4564 14.0947 13.3636 13.5691 13.3636C11.7761 13.3636 10.5396 14.4147 10.0759 16.084H9.30301L9.0557 17.3206H9.82855L8.46834 23.9671Z" fill="white"/>
<path d="M15.5169 22.3595C18.1446 22.3595 19.9685 19.9792 19.9685 18.0316C19.9685 16.5787 18.6392 15.9604 17.3408 15.9604C14.4658 15.9604 12.8892 18.5262 12.8892 20.2883C12.8892 21.7413 14.2494 22.3595 15.5169 22.3595ZM22.5652 22.3595C25.1929 22.3595 27.0168 19.9792 27.0168 18.0316C27.0168 16.5787 25.6566 15.9604 24.3582 15.9604C21.4833 15.9604 19.9066 18.5262 19.9066 20.2883C19.9066 21.7413 21.2978 22.3595 22.5652 22.3595ZM30.6337 22.2359H32.8286L34.6216 13.4873H32.3958L31.8703 16.084L30.9429 15.9913C28.7789 15.9913 26.8004 18.7735 26.8004 20.752C26.8004 21.5558 27.326 22.3595 28.2225 22.3595C29.4899 22.3595 30.3864 21.7413 30.7574 21.123H30.8811L30.6337 22.2359ZM23.7709 26.842C22.0432 28.2734 19.8242 28.9724 17.5881 28.7896C14.6513 28.6041 12.5492 26.3474 12.1782 23.9671H12.3018C12.9819 25.4509 14.6204 26.842 16.6298 27.0584C18.6701 27.3058 21.1123 26.3783 22.4416 25.1109L20.9577 23.9671H25.4402L24.451 28.7278L23.8018 26.873L23.7709 26.842Z" fill="white"/>
</svg>
