<svg width="40" height="40" viewBox="0 0 40 40" fill="none" xmlns="http://www.w3.org/2000/svg">
<rect width="40" height="40" fill="white"/>
<path fill-rule="evenodd" clip-rule="evenodd" d="M28.3319 29.4191C28.3324 29.2887 28.3846 29.1637 28.4771 29.0717C28.5695 28.9797 28.6947 28.9282 28.8252 28.9284C28.9552 28.9286 29.0799 28.9803 29.1718 29.0723C29.2637 29.1643 29.3154 29.289 29.3155 29.4191C29.3155 29.6915 29.0963 29.9119 28.8252 29.9119C28.7604 29.912 28.6963 29.8993 28.6364 29.8745C28.5766 29.8498 28.5222 29.8135 28.4764 29.7677C28.4306 29.7219 28.3943 29.6676 28.3695 29.6078C28.3447 29.548 28.3319 29.4838 28.3319 29.4191ZM29.2379 29.4191C29.2379 29.18 29.0639 28.9934 28.8252 28.9934C28.585 28.9934 28.4101 29.18 28.4101 29.4191C28.4101 29.6603 28.5852 29.8472 28.8252 29.8472C29.0639 29.8471 29.2379 29.6601 29.2379 29.4191ZM29.0705 29.6942H28.99L28.8329 29.4411H28.7096V29.6942H28.642V29.1454H28.8821C29.0277 29.1454 29.0768 29.1997 29.0768 29.2908C29.0768 29.3983 29.0015 29.4384 28.9042 29.4413L29.0705 29.6942ZM28.8123 29.3879C28.89 29.3879 29.0044 29.4008 29.0044 29.2891C29.0044 29.2033 28.9343 29.1933 28.8667 29.1933H28.7096V29.3879H28.8123Z" fill="#CC2131"/>
<path d="M11.8169 16.4471C11.8078 16.898 11.786 17.258 11.7514 17.5253C11.726 17.7926 11.655 18.0944 11.5387 18.4326C11.426 18.7489 11.2696 19.0435 11.0714 19.3162C10.3932 20.2671 9.39323 20.7417 8.07504 20.7417C7.33323 20.7417 6.6605 20.5817 6.05868 20.2617C5.45504 19.9326 4.99868 19.478 4.68777 18.9017C4.35686 18.3144 4.19141 17.6489 4.19141 16.9053C4.19141 16.3471 4.28595 15.8126 4.47504 15.3053C4.6605 14.8217 4.92959 14.4071 5.28595 14.0617C5.63141 13.7235 6.04959 13.4598 6.53868 13.2707C7.02232 13.0853 7.55686 12.9926 8.1405 12.9926C8.63322 12.9926 9.09323 13.0653 9.5205 13.2089C9.93504 13.3598 10.3041 13.5871 10.6278 13.8926C10.9569 14.2126 11.2223 14.5907 11.4187 15.0253L9.62595 15.7798C9.50413 15.4271 9.3005 15.1417 9.01868 14.9271C8.74959 14.7217 8.42777 14.6198 8.05322 14.6198C7.65868 14.6198 7.31686 14.7289 7.03141 14.9453C6.74232 15.178 6.52777 15.4671 6.38595 15.8089C6.23868 16.1671 6.16413 16.538 6.16413 16.918C6.16413 17.3017 6.23868 17.6707 6.38595 18.0235C6.53868 18.3762 6.7605 18.6598 7.04959 18.8726C7.34413 19.0907 7.68959 19.198 8.08413 19.198C8.35322 19.198 8.6005 19.1507 8.82232 19.0562C9.04777 18.9544 9.22777 18.8126 9.36232 18.6289C9.49323 18.4526 9.57323 18.218 9.60232 17.9253H8.05686V16.4471H11.8169Z" fill="#CF4A48"/>
<path d="M14.408 12.4909V20.5018H12.6462V12.4909H14.408Z" fill="#CF4A48"/>
<path d="M18.1775 15.389C18.712 15.389 19.2066 15.4908 19.6611 15.6963C19.8811 15.7945 20.0829 15.9217 20.2684 16.0781C20.4538 16.2363 20.6157 16.4145 20.7538 16.6163C21.0248 17.0254 21.1593 17.4981 21.1593 18.0363C21.1593 18.5781 21.0248 19.0472 20.7538 19.4472C20.4775 19.8472 20.112 20.1527 19.6611 20.3617C19.1993 20.569 18.7048 20.6727 18.1775 20.6727C17.652 20.6727 17.1557 20.569 16.6884 20.3617C16.4629 20.2508 16.2593 20.1217 16.0775 19.9727C15.8975 19.8236 15.7375 19.6472 15.5993 19.4472C15.3284 19.0472 15.1938 18.5763 15.1938 18.0363C15.1938 17.4981 15.3284 17.0254 15.5993 16.6163C15.8702 16.2163 16.232 15.9108 16.6884 15.6963C17.1502 15.4908 17.6466 15.389 18.1775 15.389ZM18.1775 16.9108C17.9448 16.9108 17.7448 16.9636 17.5793 17.0672C17.4011 17.1654 17.2684 17.2999 17.1829 17.4745C17.092 17.6508 17.0466 17.8381 17.0466 18.0381C17.0466 18.3599 17.1502 18.6254 17.3575 18.8327C17.5593 19.0436 17.832 19.149 18.1775 19.149C18.5284 19.149 18.8066 19.0436 19.0066 18.8327C19.2084 18.6308 19.3084 18.3654 19.3084 18.0381C19.3084 17.8399 19.2629 17.6527 19.172 17.4745C19.0811 17.2981 18.9484 17.1617 18.7757 17.0672C18.6102 16.9636 18.4102 16.9108 18.1775 16.9108Z" fill="#CF4A48"/>
<path d="M23.7104 15.5472V16.3527H23.7286C24.0522 15.7691 24.585 15.4782 25.3286 15.4782H25.6631V17.1618C25.4559 17.0545 25.2086 17.0018 24.9231 17.0018C24.4777 17.0018 24.1613 17.1345 23.9759 17.3982C23.7977 17.6509 23.7068 18.0163 23.7068 18.4982V20.5H21.945V15.5472H23.7104Z" fill="#CF4A48"/>
<path d="M27.1958 12.6618C27.3685 12.6618 27.534 12.7072 27.6922 12.7981C27.8431 12.8836 27.9613 12.9999 28.0467 13.1509C28.1376 13.309 28.1831 13.4727 28.1831 13.6454C28.1831 13.8181 28.1376 13.9818 28.0467 14.1381C27.9558 14.2945 27.8376 14.4127 27.6922 14.4945C27.534 14.5854 27.3685 14.6309 27.1958 14.6309C27.0267 14.6309 26.8613 14.5854 26.7049 14.4945C26.5576 14.4163 26.4376 14.2963 26.3467 14.1363C26.2558 13.9727 26.2103 13.809 26.2103 13.6454C26.2103 13.4818 26.2558 13.3163 26.3467 13.1509C26.4322 12.9999 26.5503 12.8818 26.7049 12.7981C26.8613 12.7072 27.0249 12.6618 27.1958 12.6618ZM28.0794 15.5436V20.4981H26.3176V15.5436H28.0794Z" fill="#CF4A48"/>
<path d="M34.6557 15.5472V20.5017H32.8939V19.9581H32.8757C32.7339 20.1799 32.5248 20.3581 32.2485 20.489C31.9739 20.6108 31.6848 20.6727 31.3794 20.6727C30.903 20.6727 30.4739 20.5508 30.0903 20.3054C29.703 20.0672 29.4048 19.7436 29.1939 19.3381C28.9794 18.929 28.8721 18.4927 28.8721 18.0272C28.8721 17.6617 28.9339 17.3272 29.0557 17.0217C29.1757 16.6908 29.3466 16.4072 29.5703 16.1672C29.7976 15.9217 30.0594 15.7308 30.3594 15.5945C30.6576 15.4581 30.9903 15.389 31.3557 15.389C31.6485 15.389 31.9357 15.4417 32.2194 15.549C32.4903 15.6617 32.7157 15.8254 32.8939 16.0363V15.549H34.6557V15.5472ZM31.823 16.9108C31.5812 16.9108 31.3812 16.9636 31.223 17.0672C31.043 17.1654 30.9121 17.2999 30.8266 17.4745C30.7357 17.6417 30.6903 17.829 30.6903 18.0381C30.6903 18.3654 30.7903 18.6308 30.9921 18.8327C31.1939 19.0436 31.4703 19.149 31.823 19.149C32.1757 19.149 32.4521 19.0436 32.6539 18.8327C32.8521 18.6345 32.9521 18.369 32.9521 18.0381C32.9521 17.8327 32.9085 17.6454 32.8194 17.4745C32.7285 17.2981 32.5957 17.1617 32.423 17.0672C32.2648 16.9636 32.0648 16.9108 31.823 16.9108Z" fill="#CF4A48"/>
<path d="M20.4088 14.0854C20.4088 14.0854 21.6651 11.9581 20.2561 10.089C18.847 8.22177 14.6615 7.62359 13.8306 7.54541C13.8306 7.54541 14.7761 7.81996 15.2324 10.2709C15.6888 12.7181 15.9724 14.6072 19.2761 14.3436C19.2761 14.3436 19.1251 11.8636 17.0379 9.94177C17.0361 9.94359 19.627 11.1018 20.4088 14.0854Z" fill="url(#paint0_radial_678_115)"/>
<path d="M20.9842 14.0454C20.9842 14.0454 20.8279 12.6436 21.9988 11.9981C23.1715 11.3545 25.4915 12.0199 25.9424 12.1745C25.9424 12.1745 25.3842 12.0963 24.5752 13.2672C23.7642 14.4363 23.1752 15.3527 21.517 14.4454C21.517 14.4454 22.1733 13.1872 23.7115 12.6745C23.7115 12.6745 22.0915 12.6727 20.9842 14.0454Z" fill="url(#paint1_radial_678_115)"/>
<path d="M12.1841 24.6491H9.90232V25.8654H11.9732V27.4672H9.90232V30.32H8.00414V23.0472H12.1841V24.6491Z" fill="#90BF62"/>
<path d="M15.8199 25.2072C16.3545 25.2072 16.849 25.3091 17.3036 25.5145C17.5236 25.6127 17.7254 25.74 17.9109 25.8963C18.0963 26.0545 18.2581 26.2327 18.3963 26.4345C18.6672 26.8436 18.8018 27.3163 18.8018 27.8545C18.8018 28.3963 18.6672 28.8654 18.3963 29.2654C18.1199 29.6654 17.7545 29.9709 17.3036 30.18C16.8418 30.3872 16.3472 30.4909 15.8199 30.4909C15.2945 30.4909 14.7981 30.3872 14.3309 30.18C14.1054 30.0691 13.9018 29.94 13.7199 29.7909C13.5399 29.6418 13.3799 29.4654 13.2418 29.2654C12.9709 28.8654 12.8363 28.3945 12.8363 27.8545C12.8363 27.3163 12.9709 26.8436 13.2418 26.4345C13.5127 26.0345 13.8745 25.7291 14.3309 25.5145C14.7927 25.3091 15.289 25.2072 15.8199 25.2072ZM15.8199 26.7291C15.5872 26.7291 15.3872 26.7818 15.2218 26.8854C15.0436 26.9836 14.9109 27.1182 14.8254 27.2927C14.7345 27.4691 14.689 27.6563 14.689 27.8563C14.689 28.1782 14.7927 28.4436 14.9999 28.6509C15.2018 28.8618 15.4745 28.9672 15.8199 28.9672C16.1709 28.9672 16.449 28.8618 16.649 28.6509C16.8509 28.4491 16.9509 28.1836 16.9509 27.8563C16.9509 27.6582 16.9054 27.4709 16.8145 27.2927C16.7236 27.1163 16.5909 26.98 16.4181 26.8854C16.2527 26.7818 16.0527 26.7291 15.8199 26.7291Z" fill="#90BF62"/>
<path d="M22.2103 25.2072C22.7448 25.2072 23.2394 25.3091 23.6939 25.5145C23.9139 25.6127 24.1157 25.74 24.3012 25.8963C24.4867 26.0545 24.6485 26.2327 24.7867 26.4345C25.0576 26.8436 25.1921 27.3163 25.1921 27.8545C25.1921 28.3963 25.0576 28.8654 24.7867 29.2654C24.5103 29.6654 24.1448 29.9709 23.6939 30.18C23.2321 30.3872 22.7376 30.4909 22.2103 30.4909C21.6848 30.4909 21.1885 30.3872 20.7212 30.18C20.4957 30.0691 20.2921 29.94 20.1103 29.7909C19.9303 29.6418 19.7703 29.4654 19.6321 29.2654C19.3612 28.8654 19.2267 28.3945 19.2267 27.8545C19.2267 27.3163 19.3612 26.8436 19.6321 26.4345C19.903 26.0345 20.2648 25.7291 20.7212 25.5145C21.183 25.3091 21.6794 25.2072 22.2103 25.2072ZM22.2103 26.7291C21.9776 26.7291 21.7776 26.7818 21.6121 26.8854C21.4339 26.9836 21.3012 27.1182 21.2157 27.2927C21.1248 27.4691 21.0794 27.6563 21.0794 27.8563C21.0794 28.1782 21.183 28.4436 21.3903 28.6509C21.5921 28.8618 21.8648 28.9672 22.2103 28.9672C22.5612 28.9672 22.8394 28.8618 23.0394 28.6509C23.2412 28.4491 23.3412 28.1836 23.3412 27.8563C23.3412 27.6582 23.2957 27.4709 23.2048 27.2927C23.1139 27.1163 22.9812 26.98 22.8085 26.8854C22.6412 26.7818 22.443 26.7291 22.2103 26.7291Z" fill="#90BF62"/>
<path d="M29.6986 30.3199V29.7763H29.6804C29.5423 29.9981 29.3332 30.1763 29.055 30.3072C28.7877 30.429 28.4986 30.4909 28.1895 30.4909C27.715 30.4909 27.2877 30.369 26.9041 30.1236C26.7004 29.9909 26.5259 29.8454 26.3823 29.6872C26.2386 29.529 26.1132 29.3509 26.0095 29.1563C25.7968 28.7472 25.6895 28.3109 25.6895 27.8454C25.6895 27.4927 25.7514 27.1581 25.8732 26.8399C25.9895 26.5199 26.1604 26.2345 26.3859 25.9854C26.6114 25.7363 26.875 25.5454 27.1768 25.409C27.4695 25.2745 27.8004 25.2054 28.1695 25.2054C28.455 25.2054 28.7404 25.2581 29.0259 25.3654C29.3023 25.4727 29.5259 25.6345 29.6986 25.8509V22.309H31.4605V30.3199H29.6986ZM28.6314 26.729C28.4004 26.729 28.2004 26.7818 28.035 26.8854C27.8623 26.9799 27.7314 27.1163 27.6404 27.2927C27.5495 27.469 27.5041 27.6563 27.5041 27.8563C27.5041 28.1781 27.6077 28.4436 27.815 28.6509C28.015 28.8618 28.2877 28.9672 28.6332 28.9672C28.9768 28.9672 29.2495 28.8618 29.4514 28.6509C29.6586 28.4436 29.7623 28.1781 29.7623 27.8563C29.7623 27.6581 29.7168 27.4709 29.6259 27.2927C29.5423 27.1199 29.4095 26.9836 29.2314 26.8854C29.0623 26.7818 28.8641 26.729 28.6314 26.729Z" fill="#90BF62"/>
<defs>
<radialGradient id="paint0_radial_678_115" cx="0" cy="0" r="1" gradientUnits="userSpaceOnUse" gradientTransform="translate(33.1316 27.8281) scale(36.6452 28.6977)">
<stop stop-color="#A6CE39"/>
<stop offset="1" stop-color="#0DB14B"/>
</radialGradient>
<radialGradient id="paint1_radial_678_115" cx="0" cy="0" r="1" gradientUnits="userSpaceOnUse" gradientTransform="translate(1.38943 21.1387) scale(52.1704 63.1307)">
<stop stop-color="#A6CE39"/>
<stop offset="1" stop-color="#0DB14B"/>
</radialGradient>
</defs>
</svg>
