<svg width="40" height="40" viewBox="0 0 40 40" fill="none" xmlns="http://www.w3.org/2000/svg">
<rect width="40" height="40" fill="white"/>
<path d="M20.5804 32.3818C18.2168 32.3454 16.0895 31.4545 14.3622 29.6363C14.3077 29.5818 14.2531 29.5272 14.1986 29.4545C13.9986 29.2181 14.0168 28.909 14.2168 28.709C14.435 28.509 14.7441 28.509 14.9804 28.7272C15.2168 28.9454 15.435 29.1818 15.6895 29.3818C18.835 32 23.2713 31.8363 26.2168 28.9818C26.3077 28.909 26.3804 28.8181 26.4713 28.7272C26.7077 28.509 26.9986 28.509 27.235 28.709C27.4713 28.9272 27.4895 29.2181 27.2895 29.4727C26.9804 29.8363 26.635 30.1454 26.2713 30.4363C24.635 31.7454 22.7804 32.3636 20.5804 32.3818Z" fill="#F4A008"/>
<path d="M18.3426 26.0909C17.3062 26.0909 16.4881 25.309 16.4881 24.3454C16.4881 23.3636 17.3062 22.5636 18.3426 22.5636C19.3608 22.5636 20.2153 23.3636 20.2153 24.3454C20.1971 25.309 19.3608 26.0909 18.3426 26.0909Z" fill="#F4A008"/>
<path d="M8.61739 15.2363C8.61739 16.2363 8.61739 17.1272 8.61739 18.0545C8.3083 18.0545 8.01739 18.0545 7.72648 18.0545C7.72648 15.7272 7.72648 13.3817 7.72648 10.9454C8.83557 10.9999 9.92648 10.9636 10.9992 11.109C12.1447 11.2726 12.6901 12.1454 12.6174 13.3272C12.5628 14.3636 11.8356 15.1272 10.7265 15.2181C10.0538 15.2908 9.36284 15.2363 8.61739 15.2363ZM8.63557 14.4545C9.29012 14.4545 9.89012 14.4908 10.5083 14.4363C11.1992 14.3817 11.6356 13.909 11.6719 13.2545C11.7083 12.5272 11.381 11.9817 10.7083 11.8727C10.0356 11.7636 9.34466 11.7817 8.63557 11.7454C8.63557 12.709 8.63557 13.5817 8.63557 14.4545Z" fill="black"/>
<path d="M20.3092 18.0727C20.0546 18.0727 19.8183 18.0727 19.5637 18.0727C19.5456 17.8909 19.5274 17.6909 19.491 17.3999C19.0728 17.9636 18.5637 18.1636 17.9637 18.1999C16.8728 18.2727 16.1456 17.6363 16.2001 16.6545C16.2365 16.0727 16.5456 15.6727 17.0546 15.4909C17.5456 15.309 18.0728 15.1999 18.6001 15.1636C18.891 15.1454 19.1456 15.1636 19.4365 15.1636C19.491 14.709 19.3637 14.3454 19.0001 14.1454C18.2728 13.7454 17.6183 14.0181 17.0001 14.4727C16.8183 14.2909 16.6546 14.1272 16.491 13.9454C17.2183 13.1818 18.7819 12.9999 19.6546 13.5818C20.1274 13.8909 20.3092 14.3454 20.3274 14.8909C20.3092 15.9454 20.3092 16.9818 20.3092 18.0727ZM19.4183 15.8363C18.7637 15.8363 18.1092 15.7818 17.491 16.109C17.2001 16.2545 17.0728 16.509 17.091 16.8181C17.1274 17.1454 17.3092 17.3454 17.6183 17.4363C18.7274 17.7636 19.6001 17.0181 19.4183 15.8363Z" fill="black"/>
<path d="M24.0541 13.1817C24.0541 13.509 24.0541 13.7454 24.0541 14.0363C23.5632 14.0363 23.0723 14.0363 22.5632 14.0363C22.5632 15.0181 22.545 15.9454 22.5632 16.8727C22.5632 17.1817 22.7814 17.3999 23.1087 17.3817C23.4178 17.3636 23.7269 17.2908 24.0905 17.2363C24.1632 17.4181 24.236 17.6363 24.3269 17.8908C23.7996 18.109 23.2723 18.2908 22.7087 18.2181C22.0178 18.1272 21.636 17.6545 21.6178 16.8545C21.5996 16.0727 21.6178 15.309 21.6178 14.5272C21.6178 14.3817 21.6178 14.2363 21.6178 14.0545C21.3087 14.0545 21.036 14.0545 20.745 14.0545C20.745 13.7636 20.745 13.509 20.745 13.1999C21.0541 13.1999 21.345 13.1999 21.6905 13.1999C21.6905 12.7272 21.6905 12.309 21.6905 11.8545C21.9996 11.8545 22.2541 11.8545 22.545 11.8545C22.545 12.2908 22.545 12.709 22.545 13.1636C23.0541 13.1817 23.545 13.1817 24.0541 13.1817Z" fill="black"/>
<path d="M31.1451 14.0545C30.9269 14.2363 30.7087 14.4 30.5087 14.5636C29.5814 13.9091 28.8178 13.9091 28.2542 14.5636C27.6723 15.2181 27.6905 16.3636 28.2905 17C28.8723 17.6181 29.7087 17.6181 30.5632 16.9818C30.7451 17.1454 30.9451 17.3272 31.1451 17.4909C30.436 18.4545 28.6723 18.5091 27.6723 17.6545C26.636 16.7636 26.5814 14.9636 27.5632 14C28.4905 13.0363 30.236 13.0363 31.1451 14.0545Z" fill="black"/>
<path d="M13.1641 13.4909C13.4368 13.4909 13.6913 13.4909 14.0004 13.4909C14.0186 13.6909 14.0368 13.8727 14.055 14.1636C14.4913 13.5454 15.0004 13.3091 15.7095 13.4182C15.7095 13.7272 15.7095 14 15.7095 14.3454C15.6004 14.3454 15.4732 14.3454 15.3459 14.3454C14.5459 14.3454 14.1095 14.7636 14.0732 15.5454C14.055 16.2727 14.055 17.0182 14.055 17.7636C14.055 17.8545 14.055 17.9454 14.0368 18.0545C13.7459 18.0545 13.4732 18.0545 13.1641 18.0545C13.1641 16.5636 13.1641 15.0545 13.1641 13.4909Z" fill="black"/>
<path d="M5.40023 13.1991C5.69114 13.1991 5.96386 13.1991 6.27296 13.1991C6.27296 14.8173 6.27296 16.4173 6.27296 18.0536C5.98205 18.0536 5.70932 18.0536 5.40023 18.0536C5.40023 16.4354 5.40023 14.8354 5.40023 13.1991Z" fill="black"/>
<path d="M26.036 18.0726C25.7269 18.0726 25.4542 18.0726 25.1632 18.0726C25.1632 16.4363 25.1632 14.8363 25.1632 13.1999C25.4542 13.1999 25.7269 13.1999 26.036 13.1999C26.036 14.8181 26.036 16.4363 26.036 18.0726Z" fill="black"/>
<path d="M25.618 10.9091C25.927 10.9091 26.1996 11.1817 26.1996 11.4907C26.1996 11.7996 25.927 12.0723 25.618 12.0723C25.2909 12.0723 25.0183 11.7996 25.0364 11.4725C25.0364 11.1453 25.2909 10.9091 25.618 10.9091Z" fill="black"/>
<path d="M34.1637 13.1818C35.5818 13.1818 36.5818 14.2363 36.5818 15.709C36.5818 17.1636 35.5091 18.2545 34.1091 18.2363C32.7273 18.2181 31.6909 17.109 31.6909 15.6727C31.6909 14.1999 32.7091 13.1818 34.1637 13.1818ZM35.6182 15.6727C35.6 15.5454 35.6 15.3636 35.5637 15.1999C35.4 14.4363 34.8182 13.909 34.1455 13.909C33.4728 13.909 32.9091 14.3818 32.7091 15.1454C32.5637 15.7454 32.6182 16.3272 32.9273 16.8545C33.4546 17.709 34.6364 17.7636 35.2364 16.9636C35.5273 16.5999 35.6 16.1636 35.6182 15.6727Z" fill="black"/>
<path d="M5.81806 10.9091C6.12704 10.9091 6.39967 11.1817 6.39967 11.4907C6.39967 11.7996 6.12704 12.0723 5.81806 12.0723C5.49091 12.0723 5.21828 11.7996 5.23646 11.4725C5.23646 11.1453 5.49091 10.9091 5.81806 10.9091Z" fill="black"/>
</svg>
