<svg width="40" height="40" viewBox="0 0 40 40" fill="none" xmlns="http://www.w3.org/2000/svg">
<rect width="40" height="40" fill="#EC1D33"/>
<path d="M8.48398 5.09088C8.48398 5.09088 10.6204 7.24084 8.96104 9.3908C7.30086 11.5408 4.28106 14.5033 7.08619 17.2393C9.78715 19.8727 13.5496 16.9499 12.1446 14.8611C12.0389 14.7037 11.8815 14.586 11.6994 14.5327C11.4577 14.4628 11.0482 14.4 10.4057 14.458C9.20991 14.5653 9.34428 12.9393 9.51841 12.5903C9.51841 12.5903 8.3345 13.6486 9.2107 14.912C9.2926 15.0297 9.4063 15.1219 9.53988 15.1736C9.76012 15.2587 10.1664 15.3509 10.8884 15.3437C11.2501 15.3398 11.5992 15.5075 11.8027 15.8065C12.0246 16.1325 12.2408 16.7304 11.6413 17.3482C10.3914 18.6387 6.8572 17.7378 7.39469 15.2253C7.93218 12.7119 9.85394 11.1798 10.4455 9.74224C10.4455 9.74224 11.7367 6.62305 8.48398 5.09088Z" fill="#F99F19"/>
<path d="M11.6308 20.9584C11.6308 21.5186 11.176 21.9724 10.6168 21.9724C10.0566 21.9724 9.60276 21.5186 9.60276 20.9584C9.60276 20.3982 10.0566 19.9444 10.6168 19.9444C11.176 19.9434 11.6308 20.3982 11.6308 20.9584Z" fill="white"/>
<path d="M8.29698 23.6407C8.58572 23.4434 9.21169 23.105 10.0249 23.1693C10.167 23.1806 10.2685 23.3069 10.2527 23.4434L9.32222 32.5725C9.32222 32.5725 9.05604 33.5594 8.89363 32.5725L8.13682 23.969C8.12554 23.8392 8.18757 23.7152 8.29698 23.6407Z" fill="white"/>
<path d="M17 15.2809C17 15.2809 18.0004 13.8225 19.0302 15.2809L18.1718 26.2902L19.7159 23.8032C19.7159 23.8032 20.202 22.7734 20.6599 23.7456C21.1167 24.7179 21.9469 27.0909 21.9469 27.0909C21.9469 27.0909 22.2615 28.035 21.2893 28.1207C20.3171 28.2064 20.2032 28.035 20.0024 27.4056C19.8028 26.7763 19.4982 25.6901 19.4982 25.6901C19.4982 25.6901 19.3166 25.2897 19.0877 25.7758C18.8587 26.262 18.0872 27.9763 18.0872 27.9763C18.0872 27.9763 17.715 28.2357 17.6586 27.5207C17.6 26.8045 17 15.2809 17 15.2809Z" fill="white"/>
<path d="M13.604 25.8119C13.384 26.0071 13.0885 26.1029 12.7987 26.051C11.9584 25.8999 12.2404 25.0258 12.4648 24.5464C12.5674 24.3276 12.7299 24.1438 12.9318 24.0107C14.3698 23.0599 15.0725 24.2318 15.0725 24.2318C14.9067 24.6186 14.0563 25.4081 13.604 25.8119ZM15.2631 24.2306C15.2631 24.2306 15.3962 22.9291 13.6525 23.1603C11.9088 23.3915 10.1549 24.8025 10.764 27.4327C10.764 27.4327 11.2975 28.4241 12.5178 27.6617L14.3473 25.7555C14.3473 25.7555 14.6146 26.2123 14.6146 26.7086C14.6146 27.2049 14.6529 28.5053 15.7966 27.9504C16.9403 27.3955 16.8748 25.301 15.2631 24.2306Z" fill="white"/>
<path d="M28.1512 23.1333C28.1512 23.1333 27.4271 24.1168 28.4568 24.1935L31.1638 23.6634L27.6944 27.7384C27.6944 27.7384 27.9989 28.0599 28.6091 27.9753C29.2193 27.8907 31.1638 27.9753 31.1638 27.9753L32.4597 26.5564C32.4597 26.5564 32.8026 26.1075 32.1168 26.0646L29.8667 26.2891L32.3446 23.6374L32.2307 23.1603L28.1512 23.1333Z" fill="white"/>
<path d="M24.2622 25.6101C24.2622 25.6101 25.4093 25.0303 25.1307 24.269C24.9322 23.7265 24.1664 23.6566 23.8641 24.1483C23.7163 24.3886 23.6475 24.7348 23.8054 25.2221C24.225 26.518 24.7675 26.8451 27.2748 26.0657C27.2748 26.0657 27.8083 27.4496 25.6732 27.9752C23.5381 28.5008 22.3933 26.5507 22.5851 24.851C22.7757 23.1603 24.1483 22.5524 25.6349 23.1321C27.2511 23.7626 26.1684 25.398 25.7499 25.557C25.3303 25.7183 24.4528 25.9969 24.2622 25.6101Z" fill="white"/>
</svg>
