<svg width="40" height="40" viewBox="0 0 40 40" fill="none" xmlns="http://www.w3.org/2000/svg">
<rect width="40" height="40" fill="white"/>
<path d="M12.7461 21.709C13.1279 21.7817 13.437 21.6908 13.6916 21.3999C13.9643 21.0908 14.2007 20.7454 14.3825 20.3999C14.5643 20.0545 14.7461 19.709 14.9279 19.3454C14.9461 19.4363 14.9643 19.5272 15.0007 19.5999C15.2734 20.0908 15.7279 20.2726 16.2552 20.3635C16.6734 20.4363 16.9461 20.1999 17.1825 19.8908C17.2007 19.8545 17.237 19.8363 17.2552 19.7999C17.2916 19.7454 17.3098 19.7272 17.3825 19.7817C17.7279 20.0908 18.1643 20.109 18.6007 20.109C18.837 20.109 18.9825 19.9817 19.0916 19.7817C19.4552 19.109 19.8007 18.4363 20.1825 17.7635C20.6552 16.9272 21.1098 16.0908 21.637 15.309L21.6552 15.3272C21.637 15.3999 21.6188 15.4726 21.6007 15.5635C21.3098 16.5635 21.0188 17.5817 20.8007 18.5999C20.7279 18.9272 20.8188 19.0726 21.1279 19.2181C21.4734 19.3817 21.837 19.4181 22.2188 19.3817C22.3643 19.3635 22.4916 19.2908 22.5643 19.1454C23.1643 17.9817 23.837 16.8545 24.5461 15.7635C24.5825 15.6908 24.6007 15.5999 24.7098 15.5817C24.7461 15.6545 24.6916 15.709 24.6916 15.7635C24.4734 16.5272 24.2188 17.2908 24.037 18.0545C23.9643 18.3999 24.0734 18.6545 24.3279 18.8726C24.6007 19.109 24.9279 19.2545 25.2552 19.3635C25.6007 19.4726 25.8916 19.3999 26.1461 19.1635C26.4916 18.8726 26.7279 18.509 26.9643 18.1272C27.037 17.9999 27.0916 17.8545 27.2188 17.7272C27.4007 18.2363 27.6916 18.6363 28.0734 18.9999C28.637 19.5454 29.2734 19.7454 30.0189 19.4908C30.4189 19.3635 30.7825 19.1635 31.1098 18.9272C32.3098 18.0545 33.2007 16.909 33.9825 15.6545C34.2734 15.1817 34.5279 14.6908 34.7461 14.1635C34.7825 14.2181 34.8007 14.2363 34.8189 14.2726C35.2734 15.1454 35.637 16.0545 35.7279 17.0363C35.7825 17.6545 35.7825 18.2726 35.3643 18.7999C35.1825 19.0181 34.9643 19.1817 34.6552 19.1272C34.3461 19.0545 34.1825 18.8363 34.0916 18.5454C34.0189 18.2908 34.0189 18.0545 34.0734 17.7999C34.0916 17.709 34.1279 17.5999 34.0189 17.509C33.9098 17.4181 33.8007 17.4726 33.7098 17.5272C33.3461 17.709 33.0189 17.9454 32.7098 18.1999C32.6007 18.2908 32.5643 18.4181 32.5825 18.5635C32.6552 19.3272 33.237 19.8908 34.0007 19.9272C34.9279 19.9635 35.6007 19.5272 36.1279 18.8181C36.8552 17.8181 36.9643 16.6726 36.8552 15.4726C36.7279 14.2181 36.2734 13.0726 35.6734 11.9817C35.5643 11.7817 35.437 11.7454 35.2552 11.7999C34.8007 11.9454 34.3643 12.1272 33.9643 12.3635C33.8734 12.4181 33.8007 12.4908 33.7643 12.5999C33.4007 13.8545 32.8007 14.9817 32.0916 16.0545C31.5461 16.8908 30.9279 17.6908 30.1098 18.2908C29.7279 18.5635 29.3279 18.7817 28.8552 18.7635C28.5279 18.7454 28.4007 18.6181 28.4007 18.2908C28.3825 18.0726 28.4552 17.8726 28.4916 17.6545C28.5279 17.3999 28.5825 17.2181 28.9279 17.1999C29.6189 17.1454 30.1825 16.7635 30.6916 16.309C31.4734 15.6181 32.1098 14.7999 32.437 13.7999C32.5825 13.3817 32.5461 13.0181 32.2552 12.6726C32.0007 12.3817 31.6916 12.1635 31.3461 12.0181C30.5461 11.6545 30.1279 11.7272 29.5279 12.3999C28.8188 13.1999 28.2734 14.109 27.837 15.0726C27.437 15.9635 27.037 16.8726 26.5279 17.7272C26.4188 17.909 26.2916 18.0908 26.1279 18.2181C26.0916 18.2545 26.037 18.2908 25.9825 18.2726C25.9098 18.2545 25.9279 18.1635 25.9098 18.109C25.9098 17.8545 25.9461 17.5817 26.0189 17.3454C26.3461 15.9272 26.8007 14.5454 27.3098 13.1999C27.4007 12.9454 27.3643 12.7999 27.1098 12.6908C26.9098 12.5999 26.7098 12.5272 26.5098 12.4545C26.0734 12.2908 25.9461 12.3272 25.6734 12.709C24.9461 13.6908 24.2734 14.709 23.6007 15.7454C23.437 15.9817 23.2916 16.2181 23.1279 16.4545C23.0916 16.3999 23.0916 16.3635 23.1098 16.3272C23.437 15.1817 23.7825 14.0363 24.1643 12.8908C24.2734 12.5999 24.237 12.509 23.9279 12.3817C23.7279 12.2908 23.5098 12.2181 23.3098 12.1454C22.8916 11.9999 22.7461 12.0363 22.5098 12.4181C21.9279 13.309 21.3461 14.2181 20.7643 15.1272C20.4007 15.709 20.0552 16.2908 19.6734 16.909C19.6734 16.8181 19.6734 16.7999 19.6916 16.7635C20.037 15.6726 20.3643 14.5635 20.7098 13.4726C20.7825 13.2726 20.7461 13.1454 20.5279 13.0726C20.2552 12.9635 19.9825 12.8545 19.7098 12.7635C19.3098 12.6181 19.2552 12.6545 19.1461 13.0545C18.7643 14.3272 18.3461 15.6181 17.8916 16.8726C17.637 17.5817 17.3825 18.309 17.0007 18.9817C16.9461 19.0908 16.8734 19.2726 16.7461 19.2181C16.6188 19.1817 16.6552 18.9999 16.6552 18.8545C16.6916 18.1272 16.837 17.4363 17.0007 16.7272C17.1825 15.9272 17.3825 15.109 17.5643 14.309C17.637 14.0181 17.6007 13.9635 17.3098 13.8363C17.0916 13.7454 16.8552 13.709 16.637 13.6363C16.4188 13.5635 16.3098 13.6545 16.237 13.8545C16.1461 14.1272 16.037 14.3999 15.9461 14.6908C15.8734 14.6181 15.8188 14.5635 15.7643 14.509C15.4007 14.1817 15.0188 13.909 14.5461 13.7454C14.0007 13.5635 13.6552 13.6726 13.3279 14.1272C13.237 14.2363 13.1643 14.3635 13.1098 14.4908C12.6916 15.2726 12.4188 16.0908 12.1825 16.9272C11.8734 18.0726 11.6007 19.2181 11.5825 20.4181C11.6007 21.0908 12.037 21.5817 12.7461 21.709ZM31.0916 12.8181C31.1825 13.2908 31.0916 13.6726 30.9461 14.0363C30.5461 14.9454 29.9643 15.7272 29.2007 16.3454C29.1098 16.4181 29.0189 16.509 28.837 16.5454C29.4007 15.1817 30.0916 13.9272 31.0916 12.8181ZM23.1098 16.4545C23.0916 16.4545 23.0916 16.4545 23.1098 16.4545V16.4545ZM13.2734 20.2363C13.3643 19.3999 13.5279 18.5635 13.7279 17.7454C13.9461 16.8726 14.1643 15.9817 14.4916 15.1454C14.7098 14.5817 14.837 14.5454 15.3279 14.909C15.7825 15.2363 15.7825 15.2545 15.5825 15.7635C15.0188 17.2181 14.437 18.6908 13.6734 20.0545C13.6188 20.1454 13.5825 20.2181 13.5279 20.2908C13.4734 20.3635 13.437 20.4726 13.3461 20.4363C13.237 20.4363 13.2734 20.309 13.2734 20.2363Z" fill="#7E56E0"/>
<path d="M36.583 21.3272C35.1285 21.109 33.6557 20.9636 32.183 20.8727C30.8375 20.7817 29.4739 20.7454 28.6012 20.7636C26.4012 20.7636 24.6921 20.8181 22.983 20.9454C21.2739 21.0726 19.583 21.2363 17.8921 21.4908C15.6557 21.8181 13.4557 22.2727 11.2739 22.8727C10.9648 22.9636 10.8194 23.109 10.7648 23.3999C10.7103 23.6727 10.783 23.7454 11.0375 23.6727C13.0557 23.1999 15.1103 22.8363 17.183 22.5817C19.0375 22.3454 20.9103 22.2181 22.8012 22.1817C24.583 22.1454 26.3466 22.2181 28.1103 22.3636C29.3103 22.4727 30.5285 22.6181 31.7285 22.7999C33.0375 22.9999 34.3284 23.2727 35.6194 23.5454C35.9648 23.6181 36.2194 23.4908 36.3466 23.1817C36.5285 22.7636 36.7103 22.3272 36.8739 21.8908C37.0012 21.5636 36.8921 21.3636 36.583 21.3272Z" fill="#7E56E0"/>
<path d="M11.6366 13.254C11.1821 13.1267 10.7094 13.0358 10.2366 13.0176C9.92754 12.9994 9.80027 13.1085 9.7639 13.4176C9.61845 14.9813 9.47299 16.5631 9.29117 18.1267C9.10936 19.7267 8.90936 21.3085 8.5639 22.8904C8.32754 23.9449 8.05481 24.9994 7.49117 25.9631C7.23663 26.3813 6.94572 26.7267 6.45481 26.8904C6.00027 27.0358 5.60027 26.8722 5.38208 26.4358C5.27299 26.2176 5.23663 25.9631 5.23663 25.7267C5.23663 25.054 5.49117 24.454 5.80027 23.8722C5.94572 23.5813 5.85481 23.4176 5.52754 23.4176C4.9639 23.4176 4.40027 23.5449 3.85481 23.7267C3.67299 23.7813 3.54572 23.9085 3.47299 24.0904C3.23663 24.6358 3.07299 25.2176 3.07299 25.8722C3.05481 26.5631 3.29117 27.2176 3.85481 27.7267C4.65481 28.4176 5.90936 28.4722 6.89117 27.8904C7.70936 27.3994 8.23663 26.654 8.67299 25.8176C9.25481 24.7085 9.65481 23.5267 9.98208 22.3267C10.7821 19.4722 11.3094 16.5449 11.8548 13.6358C11.9094 13.4176 11.8003 13.3085 11.6366 13.254Z" fill="#7E56E0"/>
</svg>
