<svg width="40" height="40" viewBox="0 0 40 40" fill="none" xmlns="http://www.w3.org/2000/svg">
<rect width="40" height="40" fill="white"/>
<path d="M28.8913 21.3928C28.8913 22.6328 28.8913 23.8728 28.8913 25.1128C28.8913 25.1437 28.8913 25.1728 28.8913 25.2037C28.9076 25.8491 29.3113 26.3273 29.8385 26.3291C30.3658 26.3291 30.7731 25.8546 30.7804 25.2109C30.7876 24.5764 30.7876 23.94 30.7804 23.3055C30.7767 23.0328 30.8422 22.9255 31.1513 23.0091C31.9422 23.2218 32.6986 23.1364 33.4167 22.7073C34.504 22.0582 35.2731 20.3655 34.8076 18.8055C34.3876 17.3927 32.8676 15.8982 30.8022 16.7364C30.6676 16.7909 30.5513 16.7927 30.4149 16.7255C29.5131 16.2927 28.8967 16.6746 28.8913 17.6727C28.8876 18.9127 28.8913 20.1528 28.8913 21.3928Z" fill="#FEFEFE"/>
<path d="M21.6931 17.7418C21.7022 16.9 21.1949 16.3927 20.5949 16.4964C20.1331 16.5764 19.9222 16.9273 19.7877 17.3291C19.5167 18.1309 19.264 18.9382 18.9822 19.7346C18.9349 19.8673 18.9586 20.1218 18.7258 20.1C18.5549 20.0837 18.5495 19.8782 18.4986 19.74C18.1931 18.9182 17.8913 18.0964 17.5822 17.2764C17.3495 16.6564 16.8149 16.3473 16.3276 16.5437C15.7767 16.7655 15.5331 17.4182 15.7604 18.0182C16.1458 19.0346 16.4986 20.0655 16.9113 21.0709C17.1513 21.6582 17.2186 22.3473 17.8222 22.7491C17.9695 22.8473 17.8731 23.0255 17.8258 23.1691C17.6386 23.7273 17.484 24.2982 17.2604 24.8419C17.0367 25.3891 17.4476 26.0909 17.9313 26.2473C18.3949 26.3982 18.9131 26.0509 19.1167 25.4455C19.8804 23.1855 20.6477 20.9255 21.4004 18.6618C21.5167 18.3109 21.6786 17.9637 21.6931 17.7418Z" fill="#FEFEFE"/>
<path d="M15.6171 19.84C15.6553 19.2127 15.479 18.64 15.1899 18.0964C14.2808 16.3855 12.148 15.9491 10.7753 17.1909C9.57531 18.2764 9.26986 20.0782 10.0462 21.5C10.9553 23.1691 12.8899 23.6436 14.3662 22.5291C15.2444 21.8655 15.6008 20.9218 15.6171 19.84Z" fill="#FEFEFE"/>
<path d="M22.195 18.8054C22.195 19.1382 22.2005 19.4727 22.1932 19.8054C22.1805 20.4764 22.355 21.1 22.7168 21.6582C23.355 22.6418 24.2332 23.1873 25.4514 23.1127C26.9932 23.0182 28.1568 21.5618 28.2114 20.1618C28.2441 19.3309 28.2568 18.4982 28.2677 17.6654C28.2696 17.4873 28.2387 17.3 28.1841 17.1309C27.9787 16.4764 27.1568 16.2909 26.6805 16.7854C26.4514 17.0236 26.3459 17.3036 26.3441 17.6473C26.3423 18.4182 26.4077 19.1927 26.3077 19.9618C26.2168 20.6545 25.7205 21.1036 25.1459 21.0545C24.5677 21.0055 24.1277 20.4818 24.1186 19.8127C24.1096 19.0709 24.1186 18.3291 24.115 17.5873C24.1114 16.9382 23.7532 16.5254 23.1986 16.5145C22.6459 16.5054 22.2132 16.9582 22.1968 17.58C22.1877 17.9873 22.195 18.3964 22.195 18.8054Z" fill="#FEFEFE"/>
<path d="M9.05732 20.94C9.05732 19.8818 9.06096 18.8236 9.05551 17.7636C9.05187 17.0273 8.60641 16.4746 8.04459 16.4909C7.43914 16.5073 7.09368 16.96 7.08823 17.74C7.08823 17.8455 7.08823 17.9509 7.08823 18.0582C7.08823 19.8727 7.08823 21.6873 7.08823 23.5018C7.08823 23.6382 7.09368 23.7746 7.08096 23.9091C7.0555 24.1909 6.90459 24.24 6.67914 24.1C6.59005 24.0455 6.52096 23.9618 6.43914 23.8927C5.95186 23.4764 5.2555 23.66 5.11004 24.2764C4.98459 24.8091 5.02641 25.3437 5.48277 25.7364C6.12641 26.2891 6.87368 26.4346 7.68459 26.2C8.59732 25.9364 8.99732 25.1473 9.0446 24.0691C9.09187 23.0273 9.05551 21.9837 9.05732 20.94Z" fill="#FEFEFE"/>
<path d="M8.07815 16.0182C8.69633 16.0236 9.14906 15.54 9.14724 14.8782C9.14361 14.2164 8.68361 13.6836 8.10906 13.6709C7.5036 13.6582 6.99451 14.2018 6.99815 14.8527C7.0036 15.4927 7.4836 16.0127 8.07815 16.0182Z" fill="#FEFEFE"/>
<path d="M28.8913 21.3928C28.8913 20.1528 28.8862 18.9127 28.8934 17.6727C28.8989 16.6746 29.5153 16.2927 30.4171 16.7255C30.5534 16.7909 30.6716 16.7891 30.8043 16.7364C32.8698 15.8982 34.388 17.3927 34.8098 18.8055C35.2753 20.3655 34.5062 22.0582 33.4189 22.7073C32.7007 23.1364 31.9425 23.2237 31.1534 23.0091C30.8425 22.9255 30.7789 23.0309 30.7825 23.3055C30.7898 23.94 30.7898 24.5764 30.7825 25.2109C30.7753 25.8546 30.368 26.3291 29.8407 26.3291C29.3153 26.3291 28.9116 25.8491 28.8934 25.2037C28.8934 25.1728 28.8934 25.1437 28.8934 25.1128C28.8916 23.8728 28.8913 22.6328 28.8913 21.3928ZM33.068 19.7982C33.0662 19.1055 32.5825 18.5618 31.9607 18.5546C31.3262 18.5473 30.7971 19.1127 30.7971 19.8018C30.7953 20.4728 31.348 21.0909 31.9444 21.0891C32.5662 21.0873 33.0698 20.5091 33.068 19.7982Z" fill="#4081B8"/>
<path d="M21.6931 17.7418C21.6786 17.9637 21.5176 18.3109 21.3994 18.6655C20.6467 20.9291 19.8794 23.1891 19.1158 25.4491C18.9121 26.0546 18.394 26.4018 17.9303 26.2509C17.4467 26.0946 17.0358 25.3909 17.2594 24.8455C17.4812 24.3018 17.6376 23.7309 17.8249 23.1728C17.8721 23.0291 17.9685 22.8491 17.8212 22.7528C17.2176 22.3509 17.1503 21.66 16.9103 21.0746C16.4976 20.0691 16.1449 19.0382 15.7594 18.0218C15.5321 17.4218 15.7758 16.7691 16.3267 16.5473C16.814 16.3509 17.3485 16.66 17.5812 17.28C17.8885 18.1 18.1921 18.9218 18.4976 19.7437C18.5485 19.8818 18.554 20.0873 18.7249 20.1037C18.9558 20.1255 18.934 19.8709 18.9812 19.7382C19.2631 18.9418 19.5158 18.1327 19.7867 17.3327C19.9231 16.9309 20.134 16.58 20.594 16.5C21.1958 16.3927 21.7022 16.9018 21.6931 17.7418Z" fill="#8EDECC"/>
<path d="M15.6171 19.84C15.6008 20.9218 15.2446 21.8655 14.3664 22.5309C12.89 23.6473 10.9555 23.1709 10.0464 21.5018C9.27184 20.0782 9.57548 18.2782 10.7755 17.1927C12.1482 15.9491 14.2809 16.3855 15.19 18.0982C15.4773 18.64 15.6553 19.2109 15.6171 19.84ZM11.5191 19.7891C11.5155 20.5236 11.9864 21.0946 12.6064 21.1018C13.2082 21.1091 13.7918 20.4618 13.7864 19.7909C13.7809 19.1218 13.2737 18.5709 12.6555 18.5636C11.9809 18.5564 11.5228 19.0509 11.5191 19.7891Z" fill="#8EDECC"/>
<path d="M22.195 18.8054C22.195 18.3964 22.1867 17.9873 22.1976 17.5782C22.214 16.9564 22.6467 16.5018 23.1994 16.5127C23.754 16.5218 24.1122 16.9364 24.1158 17.5855C24.1194 18.3273 24.1104 19.0691 24.1194 19.8109C24.1267 20.48 24.5685 21.0036 25.1467 21.0527C25.7231 21.1018 26.2194 20.6527 26.3085 19.96C26.4085 19.1927 26.3431 18.4182 26.3449 17.6455C26.3467 17.3036 26.4522 17.0236 26.6813 16.7836C27.1576 16.2873 27.9795 16.4745 28.1849 17.1291C28.2376 17.3 28.2704 17.4855 28.2685 17.6636C28.2595 18.4964 28.2449 19.3273 28.2122 20.16C28.1576 21.56 26.994 23.0164 25.4522 23.1109C24.2358 23.1855 23.3558 22.6418 22.7176 21.6564C22.3558 21.0982 22.1813 20.4746 22.194 19.8036C22.2013 19.4709 22.195 19.1382 22.195 18.8054Z" fill="#4081B8"/>
<path d="M9.05578 20.94C9.05578 21.9837 9.09033 23.0291 9.04669 24.0691C9.00124 25.1473 8.60124 25.9364 7.68669 26.2C6.87578 26.4346 6.12851 26.2891 5.48487 25.7364C5.0285 25.3455 4.9885 24.8091 5.11214 24.2764C5.25578 23.66 5.95396 23.4764 6.44123 23.8927C6.52123 23.9618 6.59214 24.0455 6.68123 24.1C6.90487 24.24 7.0576 24.1927 7.08305 23.9091C7.09578 23.7746 7.09033 23.6364 7.09033 23.5018C7.09033 21.6873 7.09033 19.8727 7.09033 18.0582C7.09033 17.9527 7.09033 17.8473 7.09033 17.74C7.09396 16.96 7.44124 16.5073 8.04669 16.4909C8.60851 16.4746 9.05397 17.0273 9.0576 17.7636C9.06124 18.8236 9.0576 19.8818 9.05578 20.94Z" fill="#8DDECB"/>
<path d="M8.07815 16.0182C7.48542 16.0127 7.0036 15.4927 6.99815 14.8527C6.99269 14.2018 7.5036 13.6582 8.10906 13.6709C8.68542 13.6836 9.14363 14.2164 9.14545 14.8764C9.14909 15.54 8.69451 16.0236 8.07815 16.0182Z" fill="#8EDECC"/>
<path d="M33.068 19.7982C33.0698 20.5091 32.5662 21.0855 31.9426 21.0891C31.3462 21.0928 30.7953 20.4727 30.7953 19.8018C30.7971 19.1127 31.3244 18.5473 31.959 18.5546C32.5808 18.5618 33.0662 19.1055 33.068 19.7982Z" fill="white"/>
<path d="M11.5191 19.7891C11.5228 19.0509 11.9809 18.5564 12.6555 18.5636C13.2737 18.5709 13.7809 19.1236 13.7864 19.7909C13.7918 20.4618 13.2082 21.1073 12.6064 21.1018C11.9864 21.0946 11.5137 20.5255 11.5191 19.7891Z" fill="white"/>
</svg>
