<svg width="40" height="40" viewBox="0 0 40 40" fill="none" xmlns="http://www.w3.org/2000/svg">
<rect width="40" height="40" fill="white"/>
<path d="M28.7624 15.6055C28.1781 14.6329 27.5387 13.6987 26.8331 12.8084L26.8166 12.7864L26.8111 12.7809C26.778 12.737 26.6843 12.6216 26.6512 12.5776C26.3315 12.1435 26.3756 11.8248 26.3756 11.8248C26.1826 9.64861 25.9566 8.64847 25.9125 8.39019C25.8629 8.08794 25.7747 7.76922 25.3337 7.72525C24.9754 7.68679 24.4462 7.62634 23.8619 7.59886C23.3713 7.57138 23.3107 8.07695 23.3107 8.07695C23.2997 8.58252 23.3107 8.82981 23.3107 8.89026C23.3107 8.95071 23.2997 9.01665 23.206 9.03863C23.1674 9.03863 23.1288 9.02764 23.1012 9.00566C22.2964 8.34073 21.4475 7.73075 20.56 7.18122C20.3836 7.07681 20.1852 7.02185 19.9812 7.01636C19.7993 7.02185 19.6284 7.0823 19.4796 7.18122C19.215 7.34608 14.7004 9.9014 11.2827 15.5891C11.2827 15.5891 11.0677 15.8858 11.2276 16.1661C11.3158 16.3364 11.4977 16.4408 11.6851 16.4353C11.6851 16.4353 12.8703 16.5727 13.1073 16.6002C13.3774 16.6277 13.3774 16.8475 13.3774 16.8475C13.3554 19.3314 13.5097 21.8097 13.8294 24.2717C13.8294 24.2717 13.8901 24.6838 14.298 24.7058C14.4634 24.7168 15.0807 24.6783 16.7179 24.6398C16.7785 24.6453 16.8337 24.6014 16.8447 24.5409C16.8447 24.5299 16.8447 24.5244 16.8447 24.5134C16.6903 22.8978 16.6407 21.502 16.6352 21.4196C16.6297 21.3591 16.5966 21.3097 16.5415 21.2877C15.9352 20.9415 15.5603 20.304 15.5548 19.6116C15.5107 16.4133 15.7036 13.9569 15.7036 13.9569C15.7036 13.9569 15.7202 13.6162 16.0234 13.6437C16.321 13.6712 16.3045 14.0064 16.3045 14.0064C16.1942 15.3857 16.1556 17.8641 16.1556 17.8641C16.1556 17.8641 16.1556 18.3367 16.6077 18.3367C17.0597 18.3367 17.0597 17.8641 17.0597 17.8641C17.0431 15.9188 17.2085 13.9679 17.2085 13.9679C17.2085 13.9679 17.2085 13.6382 17.5282 13.6382C17.8204 13.6382 17.8094 14.0064 17.8094 14.0064C17.6715 15.6935 17.6605 17.8586 17.6605 17.8586C17.6605 17.8586 17.6605 18.3312 18.1125 18.3312C18.5646 18.3312 18.5646 17.8201 18.5646 17.8201C18.559 16.21 18.7189 13.9514 18.7189 13.9514C18.7134 13.7866 18.8402 13.6492 19.0055 13.6382C19.0166 13.6382 19.0221 13.6382 19.0331 13.6382C19.3032 13.6382 19.3197 13.9514 19.3197 13.9514C19.1709 15.699 19.1709 18.3862 19.1764 19.5457C19.1985 20.2381 18.8457 20.8865 18.2559 21.2492C18.2007 21.2877 18.1732 21.3481 18.1787 21.4141C18.2173 22.4747 18.3055 23.6562 18.3826 24.5025C18.3882 24.5574 18.4323 24.6069 18.4874 24.6124C18.9394 24.6124 19.4355 24.6069 19.9812 24.6069C20.8577 24.6069 21.5798 24.6124 22.2248 24.6234C22.2964 24.6234 22.3295 24.5684 22.335 24.497C22.5004 22.9693 22.561 21.8592 22.5665 21.7603C22.5776 21.6504 22.4397 21.6284 22.4397 21.6284C22.2027 21.6174 21.7672 21.546 21.3703 21.48C20.9679 21.4141 20.9569 20.9635 20.9569 20.9635C20.6207 16.1935 23.1453 13.2151 23.1453 13.2151C23.1453 13.2151 23.3934 12.8909 23.7462 13.0117C24.099 13.1326 24.0935 13.5063 24.0935 13.5063C24.4462 17.4794 24.099 22.6066 23.873 24.5025C23.8619 24.5794 23.9005 24.6398 23.9722 24.6563C23.9777 24.6563 23.9887 24.6563 23.9942 24.6618C25.0747 24.6948 25.5763 24.7223 25.7141 24.7058C25.9621 24.6783 26.1606 24.4915 26.1992 24.2497C26.7339 20.5513 26.6567 16.8475 26.6567 16.8475C26.6677 16.7156 26.7725 16.6112 26.9048 16.6002L28.36 16.4463C28.553 16.4188 28.7128 16.3419 28.7955 16.177C28.8727 15.9847 28.8617 15.7759 28.7624 15.6055Z" fill="#FF8000"/>
<path d="M9.96006 28.3495H8.86887C8.51455 28.3495 8.51455 28.3495 8.44114 28.7631C8.36774 29.1767 8.36774 29.1908 8.69242 29.1908H9.34176L8.97333 31.2998C8.8844 31.7713 8.6783 32.0959 8.04448 32.2879C7.88214 32.3317 7.83838 32.391 7.83838 32.4644C7.83838 32.5533 7.86802 32.6267 7.94143 32.8032C8.04448 33.0544 8.10377 33.0982 8.1927 33.0982C8.28163 33.0982 8.44397 33.0544 8.50184 33.0389C9.40105 32.7439 9.76949 32.0508 9.91771 31.225L10.3313 28.8506C10.4019 28.3495 10.4019 28.3495 9.96006 28.3495Z" fill="#FF8000"/>
<path d="M13.6615 28.3495C13.2197 28.3495 13.2197 28.3495 13.1604 28.7179L12.8357 30.6349C12.7468 31.1953 12.6 31.52 12.0537 31.52C11.5229 31.52 11.3309 31.1953 11.4198 30.6942L11.729 28.8661C11.8179 28.3495 11.8024 28.3495 11.345 28.3495C10.9032 28.3495 10.8877 28.3495 10.8284 28.7038L10.5037 30.6208C10.3117 31.712 10.9907 32.391 11.9492 32.391C13.0263 32.391 13.5712 31.904 13.749 30.7535L14.0737 28.8506C14.1485 28.3495 14.1189 28.3495 13.6615 28.3495Z" fill="#FF8000"/>
<path d="M15.6818 31.4904C16.0362 31.4763 16.2281 31.3139 16.2281 31.1516C16.2281 30.9455 15.9769 30.8721 15.6381 30.7676C14.9746 30.5615 14.3704 30.3258 14.3704 29.6172C14.3704 28.7772 15.0635 28.3199 15.9331 28.3199C16.3015 28.3199 16.7151 28.334 16.9805 28.3636C17.2163 28.3933 17.2756 28.4667 17.2022 28.8351C17.1288 29.2035 17.0398 29.2332 16.8337 29.2191C16.5825 29.205 16.2592 29.1753 15.8752 29.1753C15.4334 29.1753 15.3007 29.3377 15.3007 29.4845C15.3007 29.6764 15.4771 29.7795 15.8908 29.8981C16.6573 30.1197 17.1584 30.4288 17.1584 31.0923C17.1584 31.8743 16.5839 32.3317 15.6536 32.3599C15.1525 32.3741 14.7092 32.3458 14.3267 32.2865C14.0316 32.2428 14.0175 32.2428 14.0909 31.8151C14.1643 31.4311 14.1643 31.4015 14.4452 31.4311C14.9887 31.4904 15.3289 31.5059 15.6818 31.4904Z" fill="#FF8000"/>
<path d="M20.5057 28.3495H18.0127C17.6584 28.3495 17.6584 28.3495 17.585 28.7772C17.5116 29.2049 17.5257 29.2049 17.8363 29.2049H18.6479L18.1906 31.8447C18.1016 32.3613 18.1172 32.3613 18.5745 32.3613C19.0023 32.3613 19.0164 32.3613 19.0757 31.9929L19.5472 29.2063H20.3292C20.6835 29.2063 20.6835 29.2063 20.7569 28.7786C20.8289 28.3495 20.8289 28.3495 20.5057 28.3495Z" fill="#FF8000"/>
<path d="M24.8999 29.1908C25.2542 29.1908 25.2542 29.1908 25.3276 28.7631C25.401 28.3354 25.401 28.3354 25.0763 28.3354H23.292C22.6582 28.3354 22.6723 28.3354 22.5693 28.9692L22.1119 31.6386C21.9933 32.3317 22.0089 32.3317 22.6427 32.3317H24.3832C24.7517 32.3317 24.7375 32.3317 24.811 31.9181C24.8844 31.4904 24.8844 31.4904 24.5597 31.4904H23.0549L23.1735 30.7239H24.427C24.7658 30.7239 24.7658 30.7239 24.8251 30.3258C24.8844 29.9122 24.8844 29.9122 24.427 29.9122H23.3203L23.4389 29.1894L24.8999 29.1908Z" fill="#FF8000"/>
<path d="M26.7867 30.6053L27.3612 29.3376C27.4049 29.2346 27.4049 29.2346 27.4798 29.2346C27.5532 29.2346 27.5532 29.2346 27.5687 29.3532L27.7451 30.6067H26.7867V30.6053ZM28.3493 28.8365C28.2604 28.3354 28.2604 28.3354 27.5532 28.3354C26.8897 28.3354 26.9038 28.3354 26.6977 28.749L25.2085 31.8602C24.9868 32.3021 25.032 32.3472 25.5769 32.3472C26.0046 32.3472 26.0046 32.3472 26.1811 31.9491L26.4168 31.4184H27.8623L27.9357 31.9491C27.995 32.3472 28.0091 32.3472 28.4368 32.3472C28.9239 32.3472 28.9676 32.3176 28.8787 31.8306L28.3493 28.8365Z" fill="#FF8000"/>
<path d="M31.8748 28.3495H29.3677C29.0134 28.3495 29.0134 28.3495 28.94 28.7772C28.8666 29.2049 28.8807 29.2049 29.1913 29.2049H30.003L29.5456 31.8447C29.4567 32.3613 29.4722 32.3613 29.9296 32.3613C30.3573 32.3613 30.3714 32.3613 30.4307 31.9929L30.9022 29.2063H31.6842C32.0385 29.2063 32.0385 29.2063 32.1119 28.7786C32.1995 28.3495 32.1995 28.3495 31.8748 28.3495Z" fill="#FF8000"/>
</svg>
