<svg width="40" height="40" viewBox="0 0 40 40" fill="none" xmlns="http://www.w3.org/2000/svg">
<rect width="40" height="40" fill="#E44647"/>
<path d="M28.7842 16.5017C28.7821 15.1132 28.4509 13.745 27.8178 12.5092C27.1846 11.2735 26.2676 10.2055 25.1419 9.39267C24.0161 8.57989 22.7138 8.04553 21.3416 7.83342C19.9694 7.62131 18.5665 7.73749 17.2479 8.17243C15.9293 8.60737 14.7326 9.34869 13.7559 10.3356C12.7792 11.3225 12.0503 12.5268 11.6291 13.8499C11.2079 15.1729 11.1063 16.577 11.3326 17.9469C11.5589 19.3168 12.1068 20.6135 12.9312 21.7308C13.1181 21.9814 13.322 22.2235 13.5344 22.4571C14.2226 23.3492 15.0381 24.6618 15.0381 25.7789C15.0579 26.3973 15.317 26.9838 15.7608 27.4148C16.2045 27.8459 16.7983 28.0879 17.4169 28.0898H22.5568C23.1755 28.0879 23.7692 27.8459 24.213 27.4148C24.6567 26.9838 24.9158 26.3973 24.9356 25.7789C24.9356 24.6618 25.747 23.3492 26.4351 22.4571C26.649 22.226 26.8504 21.9835 27.0383 21.7308C28.1684 20.2213 28.7808 18.3873 28.7842 16.5017ZM13.9379 19.6621C11.916 18.787 11.9627 15.6946 13.3687 14.1653C15.4714 11.8758 19.9911 12.0414 19.9911 12.0414C21.2393 12.0248 22.4835 12.185 23.6867 12.5172L21.2357 17.9417C20.8456 17.7607 20.4212 17.6651 19.9911 17.6613C17.5911 17.6613 16.4187 20.7325 13.9379 19.6621ZM22.4974 18.7105L22.5271 18.6511L25.0758 13.0439C25.3134 13.1581 25.5421 13.2901 25.7597 13.439L23.262 18.9654C23.227 19.0433 23.2054 19.1266 23.1982 19.2118C22.9604 19.0461 22.731 18.8804 22.4974 18.7105ZM26.0401 19.6621C25.5312 19.9031 24.9537 19.9573 24.4089 19.815C24.4859 19.7461 24.548 19.6623 24.5915 19.5686L26.8811 14.5137C28.0111 16.1109 27.9346 18.8465 26.0401 19.6621Z" fill="white"/>
<path d="M19.9909 32.2697C21.2653 32.2697 22.3187 31.675 22.6288 30.8721H17.353C17.6631 31.675 18.725 32.2697 19.9909 32.2697Z" fill="white"/>
<path d="M23.207 28.7694H16.7715C16.5766 28.7694 16.3897 28.8469 16.2519 28.9847C16.114 29.1225 16.0366 29.3094 16.0366 29.5043C16.0366 29.6992 16.114 29.8861 16.2519 30.0239C16.3897 30.1618 16.5766 30.2392 16.7715 30.2392H23.207C23.4019 30.2392 23.5888 30.1618 23.7266 30.0239C23.8644 29.8861 23.9419 29.6992 23.9419 29.5043C23.9419 29.3094 23.8644 29.1225 23.7266 28.9847C23.5888 28.8469 23.4019 28.7694 23.207 28.7694Z" fill="white"/>
</svg>
