<svg width="40" height="40" viewBox="0 0 40 40" fill="none" xmlns="http://www.w3.org/2000/svg">
<rect width="40" height="40" fill="#FAE652"/>
<path d="M3.34166 17.3956V22.3891H6.13348V23.28H2.37134V17.3956H3.34166Z" fill="#010101"/>
<path d="M7.07029 22.9379C6.77522 22.6428 6.64471 22.2172 6.64471 21.6271V19.0849H7.57531V21.4115C7.57531 21.7916 7.66043 22.047 7.78527 22.2172C7.9555 22.3875 8.16545 22.4726 8.46052 22.4726C8.75559 22.4726 8.96555 22.3875 9.13578 22.1775C9.30601 21.9676 9.39113 21.7122 9.39113 21.4171V19.0906H10.3217V23.3237H9.39113V22.8584C9.26629 22.9833 9.13578 23.1138 8.92583 23.2386C8.71587 23.3635 8.50025 23.4089 8.25057 23.4089C7.74555 23.3578 7.36536 23.2329 7.07029 22.9379Z" fill="#010101"/>
<path d="M12.3534 19.0849V19.5502C12.4782 19.4254 12.6087 19.2949 12.8187 19.1701C13.0286 19.0452 13.2443 18.9998 13.4939 18.9998C13.999 18.9998 14.4245 19.1247 14.6799 19.4651C14.975 19.7602 15.1055 20.1858 15.1055 20.7759V23.3124H14.1749V20.9859C14.1749 20.6057 14.0898 20.3503 13.9649 20.1801C13.8401 20.0099 13.5847 19.9248 13.2897 19.9248C12.9946 19.9248 12.7392 20.0099 12.569 20.2198C12.3988 20.4298 12.3137 20.6851 12.3137 20.9802V23.3067H11.3831V19.0849H12.3534Z" fill="#010101"/>
<path d="M16.966 23.1024C16.6255 22.9322 16.3759 22.6371 16.2056 22.3421C16.0354 22.0016 15.9106 21.6668 15.9106 21.2412C15.9106 20.8156 15.9957 20.4809 16.2056 20.1404C16.4156 19.7999 16.6709 19.5503 16.966 19.38C17.3065 19.2098 17.6413 19.0849 18.0668 19.0849C18.7024 19.0849 19.2074 19.2949 19.633 19.7205L18.9577 20.3106C18.7024 20.0553 18.4527 19.9304 18.1122 19.9304C17.732 19.9304 17.4767 20.0553 17.2214 20.2709C17.0114 20.5263 16.8809 20.8213 16.8809 21.2015C16.8809 21.5817 17.0057 21.8768 17.2214 22.1321C17.4313 22.3875 17.7264 22.4726 18.1122 22.4726C18.4924 22.4726 18.7478 22.3477 19.0031 22.0924C19.2131 21.837 19.3436 21.542 19.3436 21.1618H20.2742C20.2742 21.5874 20.1891 21.9222 19.9791 22.2626C19.8089 22.6031 19.5138 22.8528 19.2187 23.023C18.8783 23.1932 18.5435 23.3181 18.1179 23.3181C17.6413 23.3578 17.3065 23.2727 16.966 23.1024Z" fill="#010101"/>
<path d="M20.8984 17.394L21.8291 17.3089V19.5956C21.9539 19.4254 22.1241 19.3006 22.3341 19.2155C22.544 19.1303 22.7597 19.0906 23.0093 19.0906C23.5144 19.0906 23.9002 19.2609 24.1953 19.5559C24.4904 19.851 24.6209 20.2766 24.6209 20.827V23.3635H23.6903V20.9916C23.6903 20.6511 23.6051 20.4014 23.4803 20.1858C23.3101 20.0156 23.1001 19.8907 22.8051 19.8907C22.51 19.8907 22.2546 19.9758 22.0844 20.1858C21.9142 20.3957 21.8291 20.6511 21.8291 20.9462V23.2727H20.8984V17.394Z" fill="#010101"/>
<path d="M26.9931 23.2329C26.7831 23.1478 26.6129 23.023 26.4426 22.8925V23.3181H25.512V17.394L26.4426 17.3089V19.5502C26.5675 19.4254 26.7377 19.2949 26.9931 19.2098C27.203 19.1247 27.4584 19.0849 27.7137 19.0849C28.1393 19.0849 28.4741 19.1701 28.8145 19.3403C29.1096 19.5105 29.365 19.7659 29.5352 20.1007C29.7054 20.4355 29.7905 20.8213 29.7905 21.2412C29.7905 21.6668 29.7054 22.047 29.5352 22.3818C29.365 22.7222 29.1096 22.9719 28.8145 23.1422C28.5195 23.3124 28.1393 23.3975 27.7137 23.3975C27.4584 23.3578 27.203 23.3181 26.9931 23.2329ZM28.5592 22.1321C28.7692 21.8768 28.8997 21.5817 28.8997 21.2412C28.8997 20.9008 28.7748 20.566 28.5592 20.3503C28.3492 20.095 28.0542 19.9702 27.6683 19.9702C27.2881 19.9702 27.0328 20.095 26.7774 20.3503C26.5221 20.6057 26.437 20.9008 26.437 21.2412C26.437 21.5817 26.5618 21.9165 26.7774 22.1321C26.9874 22.3875 27.2825 22.5123 27.6683 22.5123C28.0088 22.4726 28.3039 22.3421 28.5592 22.1321Z" fill="#010101"/>
<path d="M36.1293 20.8213L35.0285 19.0849H36.1293L36.6797 19.9758L37.2301 19.0849H38.331L37.145 20.8213L38.7112 23.3181H37.6103L36.5946 21.6668L35.5789 23.3181H34.4781L36.1293 20.8213Z" fill="#010101"/>
<path d="M34.353 20.1007C34.1828 19.7602 33.9274 19.5105 33.5926 19.3403C33.2521 19.1701 32.9174 19.0452 32.4918 19.0452C32.0662 19.0452 31.7314 19.1303 31.3909 19.3403C31.0505 19.5105 30.8008 19.8056 30.6306 20.1007C30.4603 20.3957 30.3355 20.7759 30.3355 21.2015C30.3355 21.6271 30.4206 21.9619 30.6306 22.3023C30.8008 22.6428 31.0562 22.8925 31.3909 23.0627C31.7314 23.2329 32.0662 23.3578 32.4918 23.3578C32.9174 23.3578 33.2521 23.2727 33.5926 23.0627C33.9331 22.8925 34.1828 22.5974 34.353 22.3023C34.5232 21.9619 34.6481 21.6271 34.6481 21.2015C34.6481 20.7759 34.5686 20.4411 34.353 20.1007ZM31.6463 20.2255C31.6463 20.2255 31.6463 20.1858 31.686 20.1858C31.686 20.1858 31.686 20.1461 31.7257 20.1461L31.7655 20.1063C31.7655 20.1063 31.7655 20.1063 31.8052 20.1063C31.8449 20.1063 31.8903 20.1063 31.93 20.1063C31.9697 20.1063 31.9697 20.1063 32.0151 20.1063H32.1343C32.174 20.1063 32.2194 20.1063 32.2194 20.1063C32.2591 20.1063 32.3045 20.1063 32.3442 20.1063H32.384C32.4237 20.1063 32.4237 20.1063 32.4691 20.1063C32.5145 20.1063 32.5088 20.1063 32.5542 20.1063C32.5939 20.1063 32.5939 20.1063 32.6393 20.1063H32.679C32.7188 20.1063 32.7642 20.1063 32.8039 20.1063C32.8436 20.1063 32.8436 20.1063 32.889 20.1063C32.9287 20.1063 33.0138 20.1063 33.0592 20.1063C33.0989 20.1063 33.1443 20.1063 33.1443 20.1063H33.2238C33.2635 20.1063 33.2635 20.1063 33.2635 20.1461C33.3032 20.1858 33.3032 20.2312 33.3486 20.2709C33.3486 20.3106 33.3486 20.3106 33.3089 20.3106C33.3089 20.3106 33.3089 20.3106 33.2692 20.3106C33.2295 20.3106 33.1841 20.3106 33.1841 20.3106C33.1443 20.3106 33.0989 20.3106 33.0989 20.3106H33.0592C33.0195 20.3106 32.9344 20.3106 32.889 20.3106C32.8039 20.3106 32.7641 20.3106 32.7188 20.3106C32.679 20.3106 32.5939 20.3106 32.5485 20.3106C32.5088 20.3106 32.4634 20.3106 32.4237 20.3106C32.384 20.3106 32.3386 20.3106 32.2535 20.3106C32.2535 20.3106 32.2535 20.3106 32.2137 20.3106C32.1286 20.3106 32.0889 20.3106 32.0435 20.3106C32.0038 20.3106 31.9187 20.3106 31.8733 20.3106C31.8335 20.3106 31.8335 20.3106 31.7882 20.3106C31.7314 20.3106 31.7314 20.2709 31.6463 20.2255C31.6463 20.2709 31.6463 20.2709 31.6463 20.2255ZM33.6777 21.0767C33.6777 21.1164 33.6777 21.1618 33.6777 21.1618V21.2412C33.6777 21.2809 33.6777 21.2809 33.6777 21.3263C33.6777 21.3661 33.6777 21.3661 33.6777 21.4115C33.6777 21.4512 33.6777 21.4512 33.6777 21.4966C33.6777 21.5363 33.6777 21.5817 33.6777 21.6214C33.6777 21.6611 33.6777 21.7065 33.6777 21.7916C33.6777 21.8314 33.6777 21.8768 33.6777 21.8768C33.6777 21.9165 33.6777 21.9619 33.638 22.0016C33.638 22.0413 33.5983 22.0867 33.5983 22.0867L33.5586 22.1264C33.5188 22.1661 33.5188 22.1661 33.4735 22.1661C33.4337 22.1661 33.4337 22.1661 33.3883 22.1661C33.3486 22.1661 33.3486 22.1661 33.3032 22.1661C33.2635 22.1661 33.2181 22.1661 33.1784 22.1661H33.1273C33.0876 22.1661 33.0422 22.1661 33.0025 22.1661C32.9628 22.1661 32.9628 22.1661 32.9174 22.1661C32.8776 22.1661 32.8776 22.1661 32.8322 22.1661C32.7925 22.1661 32.7925 22.1661 32.7471 22.1661C32.7074 22.1661 32.662 22.1661 32.6223 22.1661C32.5372 22.1661 32.4975 22.1661 32.4123 22.1661C32.3726 22.1661 32.3726 22.1661 32.3272 22.1661C32.3272 22.1661 32.3272 22.1661 32.2875 22.1661C32.2478 22.1661 32.2478 22.1661 32.2024 22.1661C32.1627 22.1661 32.1173 22.1661 32.1173 22.1661C32.0775 22.1661 31.9924 22.1661 31.947 22.1661C31.9073 22.1661 31.8619 22.1661 31.8222 22.1661C31.7825 22.1661 31.7371 22.1661 31.6974 22.1661C31.6576 22.1661 31.6576 22.1661 31.6122 22.1264C31.5725 22.1264 31.5725 22.1264 31.5271 22.1264C31.4874 22.1264 31.442 22.0867 31.442 22.0867L31.4023 22.047C31.4023 22.0073 31.4023 22.0073 31.3626 21.9619C31.3626 21.9221 31.3626 21.8768 31.3626 21.837C31.3626 21.837 31.3626 21.837 31.3626 21.7973C31.3626 21.7576 31.3626 21.7122 31.3626 21.6725C31.3626 21.6328 31.3626 21.5874 31.3626 21.5476C31.3626 21.5079 31.3626 21.5079 31.3626 21.4625C31.3626 21.4228 31.3626 21.3377 31.3626 21.2923C31.3626 21.2526 31.3626 21.2072 31.3626 21.2072C31.3626 21.1675 31.3626 21.1675 31.3626 21.1221V21.0426C31.3626 21.0029 31.3626 21.0029 31.3626 20.9575C31.3626 20.9178 31.3626 20.9178 31.3626 20.8724C31.3626 20.8327 31.3626 20.7873 31.4023 20.7475C31.4023 20.7078 31.442 20.6624 31.4874 20.5773L31.5271 20.5376C31.5271 20.4979 31.5668 20.4979 31.5668 20.4979L31.6066 20.4581H31.9243C31.9243 20.4581 31.9243 20.4581 31.9641 20.4581C32.0038 20.4581 32.0492 20.4581 32.0889 20.4581H32.2081C32.2478 20.4581 32.2478 20.4581 32.2932 20.4581H32.3726C32.4123 20.4581 32.4577 20.4581 32.4577 20.4581C32.4975 20.4581 32.4975 20.4581 32.5428 20.4581C32.5826 20.4581 32.5826 20.4581 32.628 20.4581H32.7074C32.7074 20.4581 32.7074 20.4581 32.7471 20.4581C32.7868 20.4581 32.7868 20.4581 32.8322 20.4581C32.872 20.4581 32.872 20.4581 32.9174 20.4581C32.9571 20.4581 32.9571 20.4581 33.0025 20.4581H33.0422C33.0819 20.4581 33.0819 20.4581 33.1273 20.4581C33.167 20.4581 33.2124 20.4581 33.2522 20.4581C33.2919 20.4581 33.2919 20.4581 33.3373 20.4581H33.377C33.4167 20.4581 33.4621 20.4581 33.4621 20.4979C33.5018 20.5376 33.5472 20.5376 33.5472 20.583C33.5472 20.6227 33.5869 20.6227 33.5869 20.6681V20.7078C33.5869 20.7475 33.5869 20.7929 33.5869 20.7929C33.5869 20.8327 33.5869 20.8781 33.5869 20.9178C33.6777 21.0313 33.6777 21.0767 33.6777 21.0767Z" fill="#010101"/>
</svg>
