<svg width="40" height="40" viewBox="0 0 40 40" fill="none" xmlns="http://www.w3.org/2000/svg">
<rect width="40" height="40" fill="#181719"/>
<path d="M18.9272 26.8828C19.4808 27.0082 20.0345 27.1231 20.5672 27.3007C21.7059 27.6872 22.5311 28.3975 22.8759 29.5884C22.949 29.8391 22.9594 30.1002 22.8759 30.3614C22.8027 30.5703 22.6878 30.6121 22.4998 30.4763C22.1028 30.1942 21.7059 29.9226 21.2985 29.651C19.5017 28.4497 17.5379 27.6245 15.3964 27.2693C15.1039 27.2171 14.801 27.1649 14.5189 27.1857C13.7772 27.238 13.2967 26.3918 13.6519 25.6919C13.9026 25.201 14.2264 24.7518 14.6234 24.3757C14.7801 24.2295 14.7905 24.125 14.6547 23.9579C14.0697 23.2475 13.7354 22.4327 13.6205 21.5239C13.5787 21.2001 13.537 20.8658 13.5683 20.542C13.6101 20.1659 13.5787 20.1346 13.1922 20.1868C12.2416 20.3226 11.291 20.333 10.33 20.2599C9.32715 20.1764 8.35566 19.9256 7.40505 19.6332C6.39177 19.3198 5.40983 18.9124 4.50101 18.3587C4.22941 18.1916 3.94737 18.014 3.75933 17.7528C3.65487 17.6066 3.50863 17.4499 3.62353 17.2619C3.728 17.0843 3.92647 17.1679 4.08317 17.1992C5.28448 17.429 6.47534 17.6275 7.69755 17.6693C8.97198 17.7111 10.2151 17.5544 11.4373 17.1992C12.8789 16.7813 14.2891 16.2486 15.7516 15.883C17.7154 15.392 19.6898 15.204 21.6954 15.4338C23.1266 15.5905 24.5368 15.8621 25.9679 15.9561C26.7723 16.0083 27.5662 16.0292 28.3601 15.9143C28.7779 15.8516 28.9869 15.674 28.966 15.3711C28.9451 15.0473 28.7466 14.8384 28.4228 14.8175C28.0572 14.7861 27.6915 14.8488 27.3259 14.8906C26.8141 14.9428 26.3022 14.901 25.8008 14.7652C25.5919 14.7026 25.4247 14.5772 25.2889 14.4205C25.0173 14.0967 25.1218 13.6684 25.4978 13.449C25.9052 13.2088 26.3649 13.1461 26.8141 13.0416C26.8976 13.0207 27.0125 13.0521 27.0439 12.9476C27.0752 12.8431 26.9603 12.8013 26.9081 12.7491C26.6156 12.4671 26.4171 12.1641 26.5529 11.7358C26.6469 11.4538 26.8454 11.2867 27.1483 11.2867C27.6289 11.2867 28.0467 11.4747 28.4541 11.6941C29.2376 12.1119 29.9584 12.6342 30.6583 13.167C30.7314 13.2192 30.8045 13.2505 30.8881 13.2714C32.2147 13.5326 33.5205 13.846 34.7741 14.3474C35.1919 14.5145 35.6306 14.6399 36.0172 14.8801C36.3514 15.0891 36.4768 15.3607 36.3932 15.7576C36.2574 16.4262 35.9754 16.7605 35.3173 16.9067C34.889 17.0007 34.4711 17.147 34.0115 17.1261C33.2803 17.0947 32.6326 16.8022 31.9849 16.4889C31.87 16.4262 31.7551 16.3739 31.6298 16.3217C31.588 16.3008 31.5357 16.259 31.4835 16.3008C31.4208 16.3635 31.4835 16.4157 31.5253 16.4575C31.7551 16.7082 32.0372 16.9067 32.3088 17.0947C32.4341 17.1783 32.6326 17.241 32.6117 17.3977C32.5908 17.5544 32.3819 17.523 32.2565 17.5544C30.6269 17.9618 29.2271 18.787 27.9422 19.8525C27.211 20.4688 26.4902 21.0956 25.8635 21.8164C25.6023 22.1193 25.6232 22.3074 25.9261 22.5581C26.344 22.9028 26.3649 23.0804 26.0515 23.5191C25.5605 24.1877 24.9024 24.6473 24.1921 25.0547C23.6489 25.3577 23.0639 25.5561 22.4789 25.7337C22.3953 25.7546 22.2909 25.8277 22.2073 25.7442C22.1237 25.6606 22.2073 25.5666 22.2386 25.483C22.6983 24.1564 22.4998 22.9133 21.7372 21.7537C21.6641 21.6388 21.5596 21.409 21.4029 21.5135C21.2671 21.597 21.4238 21.7851 21.4865 21.9C22.0297 22.861 22.2491 23.8743 22.0193 24.9607C21.8417 25.8068 21.2671 26.2769 20.4941 26.559C19.9927 26.7575 19.4704 26.8306 18.9272 26.8828ZM23.5757 20.239C23.8996 20.2077 24.1921 20.2077 24.4846 20.1137C25.3516 19.8421 26.1455 19.4242 26.8558 18.8497C26.929 18.787 27.0439 18.7348 26.9499 18.6303C26.8663 18.5363 26.7723 18.599 26.6992 18.6617C26.1351 19.1108 25.5083 19.466 24.8397 19.7376C24.3592 19.9361 23.8578 20.0719 23.3355 19.9988C22.6774 19.9152 22.0924 19.7063 21.9984 18.8392C21.9879 18.7557 21.9775 18.6512 21.8626 18.6512C21.7372 18.6512 21.7477 18.7661 21.7477 18.8497C21.7686 19.2466 21.9252 19.56 22.2282 19.8212C22.6356 20.1659 23.1161 20.2181 23.5757 20.239ZM31.1701 14.0967C30.8881 14.0967 30.7105 14.2638 30.7105 14.5145C30.7105 14.7966 30.9403 15.0055 31.2328 15.0055C31.5044 15.0055 31.6611 14.8592 31.6611 14.6294C31.6715 14.3056 31.4731 14.0967 31.1701 14.0967Z" fill="#F0C651"/>
</svg>
