<svg width="40" height="40" viewBox="0 0 40 40" fill="none" xmlns="http://www.w3.org/2000/svg">
<rect width="40" height="40" fill="white"/>
<path d="M28.7606 15.9691C28.1763 14.9965 27.5369 14.0622 26.8313 13.172L26.8148 13.15L26.8092 13.1445C26.7762 13.1006 26.6825 12.9852 26.6494 12.9412C26.3297 12.5071 26.3738 12.1883 26.3738 12.1883C26.1808 10.0122 25.9548 9.01205 25.9107 8.75377C25.8611 8.45153 25.7729 8.1328 25.3319 8.08884C24.9736 8.05037 24.4444 7.98992 23.8601 7.96245C23.3695 7.93497 23.3089 8.44054 23.3089 8.44054C23.2979 8.94611 23.3089 9.1934 23.3089 9.25385C23.3089 9.3143 23.2979 9.38024 23.2042 9.40222C23.1656 9.40222 23.127 9.39123 23.0994 9.36925C22.2946 8.70432 21.4457 8.09434 20.5582 7.5448C20.3818 7.44039 20.1834 7.38544 19.9794 7.37994C19.7975 7.38544 19.6266 7.44589 19.4778 7.5448C19.2132 7.70966 14.6986 10.265 11.2809 15.9526C11.2809 15.9526 11.0659 16.2494 11.2258 16.5296C11.314 16.7 11.4959 16.8044 11.6833 16.7989C11.6833 16.7989 12.8685 16.9363 13.1055 16.9638C13.3756 16.9913 13.3756 17.2111 13.3756 17.2111C13.3536 19.6949 13.5079 22.1733 13.8276 24.6352C13.8276 24.6352 13.8883 25.0474 14.2962 25.0694C14.4615 25.0804 15.0789 25.0419 16.7161 25.0034C16.7767 25.0089 16.8319 24.965 16.8429 24.9045C16.8429 24.8935 16.8429 24.888 16.8429 24.877C16.6885 23.2614 16.6389 21.8656 16.6334 21.7832C16.6279 21.7227 16.5948 21.6733 16.5397 21.6513C15.9333 21.3051 15.5585 20.6676 15.553 19.9752C15.5089 16.7769 15.7018 14.3205 15.7018 14.3205C15.7018 14.3205 15.7184 13.9798 16.0215 14.0073C16.3192 14.0348 16.3027 14.37 16.3027 14.37C16.1924 15.7493 16.1538 18.2277 16.1538 18.2277C16.1538 18.2277 16.1538 18.7003 16.6059 18.7003C17.0579 18.7003 17.0579 18.2277 17.0579 18.2277C17.0413 16.2824 17.2067 14.3315 17.2067 14.3315C17.2067 14.3315 17.2067 14.0018 17.5264 14.0018C17.8186 14.0018 17.8076 14.37 17.8076 14.37C17.6697 16.057 17.6587 18.2222 17.6587 18.2222C17.6587 18.2222 17.6587 18.6948 18.1107 18.6948C18.5627 18.6948 18.5627 18.1837 18.5627 18.1837C18.5572 16.5736 18.7171 14.315 18.7171 14.315C18.7116 14.1502 18.8384 14.0128 19.0037 14.0018C19.0148 14.0018 19.0203 14.0018 19.0313 14.0018C19.3014 14.0018 19.3179 14.315 19.3179 14.315C19.1691 16.0625 19.1691 18.7498 19.1746 19.9093C19.1967 20.6017 18.8439 21.2501 18.2541 21.6128C18.1989 21.6513 18.1714 21.7117 18.1769 21.7777C18.2155 22.8383 18.3037 24.0198 18.3808 24.866C18.3863 24.921 18.4304 24.9705 18.4856 24.9759C18.9376 24.9759 19.4337 24.9705 19.9794 24.9705C20.8559 24.9705 21.578 24.9759 22.223 24.9869C22.2946 24.9869 22.3277 24.932 22.3332 24.8605C22.4986 23.3328 22.5592 22.2228 22.5647 22.1239C22.5757 22.014 22.4379 21.992 22.4379 21.992C22.2009 21.981 21.7654 21.9096 21.3685 21.8436C20.9661 21.7777 20.9551 21.3271 20.9551 21.3271C20.6189 16.5571 23.1435 13.5787 23.1435 13.5787C23.1435 13.5787 23.3916 13.2544 23.7444 13.3753C24.0972 13.4962 24.0916 13.8699 24.0916 13.8699C24.4444 17.843 24.0972 22.9702 23.8712 24.866C23.8601 24.943 23.8987 25.0034 23.9704 25.0199C23.9759 25.0199 23.9869 25.0199 23.9924 25.0254C25.0728 25.0584 25.5745 25.0859 25.7123 25.0694C25.9603 25.0419 26.1588 24.8551 26.1974 24.6133C26.7321 20.9149 26.6549 17.2111 26.6549 17.2111C26.6659 17.0792 26.7707 16.9748 26.903 16.9638L28.3582 16.8099C28.5512 16.7824 28.711 16.7055 28.7937 16.5406C28.8709 16.3483 28.8598 16.1395 28.7606 15.9691Z" fill="#FF8000"/>
<path d="M8.33221 27.2144H9.41263C9.46776 27.2144 9.51186 27.2474 9.53391 27.2968L10.6254 30.0775C10.6474 30.1324 10.7246 30.1324 10.7466 30.0775L11.8546 27.2968C11.8767 27.2474 11.9208 27.2144 11.9759 27.2144H13.0343C13.1059 27.2144 13.161 27.2694 13.161 27.3408V31.237C13.161 31.3084 13.1059 31.3634 13.0343 31.3634H12.3066C12.235 31.3634 12.1798 31.3084 12.1798 31.237V29.1817C12.1798 29.1103 12.0806 29.0938 12.0586 29.1598L11.1876 31.2864C11.1656 31.3359 11.1215 31.3634 11.0663 31.3634H10.3111C10.2615 31.3634 10.2119 31.3304 10.1899 31.2864L9.31892 29.1598C9.29136 29.0938 9.19765 29.1158 9.19765 29.1817V31.237C9.19765 31.3084 9.14253 31.3634 9.07087 31.3634H8.33221C8.26055 31.3634 8.20543 31.3084 8.20543 31.237V27.3408C8.19991 27.2694 8.26055 27.2144 8.33221 27.2144Z" fill="#FF8000"/>
<path d="M13.4304 29.7843C13.4304 29.0095 13.9045 28.1302 15.0511 28.1302C16.2032 28.1302 16.6497 29.0095 16.6497 29.7843C16.6497 29.8448 16.6441 29.9272 16.6331 29.9986C16.6221 30.0591 16.5725 30.1086 16.5063 30.1086H14.4833C14.4392 30.1086 14.4061 30.158 14.4227 30.1965C14.5439 30.4767 14.8416 30.6031 15.1338 30.6031C15.3708 30.6031 15.5968 30.5372 15.7456 30.4273C15.7952 30.3888 15.8669 30.3943 15.911 30.4383L16.3079 30.8229C16.3575 30.8724 16.363 30.9548 16.3079 31.0043C16.0488 31.2516 15.6133 31.4329 15.0952 31.4329C13.9596 31.4384 13.4304 30.5592 13.4304 29.7843ZM14.4613 29.4546H15.6354C15.6795 29.4546 15.707 29.4106 15.696 29.3722C15.5968 29.0589 15.3487 28.9271 15.0511 28.9271C14.7479 28.9271 14.4998 29.0589 14.4006 29.3722C14.3896 29.4106 14.4172 29.4546 14.4613 29.4546Z" fill="#FF8000"/>
<path d="M16.9857 28.2072H17.6196C17.6913 28.2072 17.7464 28.2621 17.7464 28.3336V28.5149H17.7574C17.9228 28.2841 18.248 28.1302 18.667 28.1302C19.593 28.1302 20.0009 28.7457 20.0009 29.5865V31.2351C20.0009 31.3065 19.9458 31.3615 19.8742 31.3615H19.1851C19.1135 31.3615 19.0583 31.3065 19.0583 31.2351V29.7349C19.0583 29.3337 18.8985 28.9985 18.4409 28.9985C18.0055 28.9985 17.807 29.3117 17.807 29.7349V31.2351C17.807 31.3065 17.7519 31.3615 17.6802 31.3615H16.9912C16.9195 31.3615 16.8644 31.3065 16.8644 31.2351V28.3391C16.8589 28.2676 16.914 28.2072 16.9857 28.2072Z" fill="#FF8000"/>
<path d="M20.2599 29.9822V28.3336C20.2599 28.2621 20.315 28.2072 20.3867 28.2072H21.0757C21.1474 28.2072 21.2025 28.2621 21.2025 28.3336V29.8448C21.2025 30.2404 21.3513 30.5647 21.7813 30.5647C22.2058 30.5647 22.4042 30.2569 22.4042 29.8448V28.3336C22.4042 28.2621 22.4593 28.2072 22.531 28.2072H23.2255C23.2972 28.2072 23.3523 28.2621 23.3523 28.3336V31.2296C23.3523 31.301 23.2972 31.356 23.2255 31.356H22.5916C22.52 31.356 22.4648 31.301 22.4648 31.2296V31.0482H22.4538C22.2884 31.279 21.9742 31.4329 21.5718 31.4329C20.6568 31.4384 20.2599 30.8229 20.2599 29.9822Z" fill="#FF8000"/>
<path d="M23.887 26.8608H24.5761C24.6477 26.8608 24.7028 26.9158 24.7028 26.9872V31.2296C24.7028 31.301 24.6477 31.356 24.5761 31.356H23.887C23.8153 31.356 23.7602 31.301 23.7602 31.2296V26.9872C23.7602 26.9158 23.8209 26.8608 23.887 26.8608Z" fill="#FF8000"/>
<path d="M24.9402 29.7843C24.9402 29.0095 25.4859 28.1302 26.638 28.1302C27.7901 28.1302 28.3358 29.0095 28.3358 29.7843C28.3358 30.5592 27.7901 31.4384 26.638 31.4384C25.4859 31.4384 24.9402 30.5592 24.9402 29.7843ZM26.638 30.5427C27.0349 30.5427 27.3657 30.2295 27.3657 29.7843C27.3657 29.3392 27.0349 29.026 26.638 29.026C26.2411 29.026 25.9104 29.3392 25.9104 29.7843C25.9049 30.2295 26.2411 30.5427 26.638 30.5427Z" fill="#FF8000"/>
<path d="M28.8757 32.0374L29.3002 31.6088C29.3443 31.5648 29.4159 31.5593 29.4656 31.5978C29.6144 31.7132 29.8404 31.7956 30.0829 31.7956C30.4853 31.7956 30.8436 31.6637 30.8436 31.1637V30.8504H30.8326C30.7169 31.0043 30.4247 31.1911 29.9727 31.1911C29.0191 31.1911 28.4899 30.4822 28.4899 29.6909C28.4899 28.8062 29.1073 28.1357 29.9727 28.1357C30.4137 28.1357 30.7169 28.2896 30.8877 28.5039H30.8988V28.3391C30.8988 28.2676 30.9539 28.2127 31.0256 28.2127H31.665C31.7366 28.2127 31.7918 28.2676 31.7918 28.3391V31.1856C31.7918 32.0319 31.1744 32.6199 30.0774 32.6199C29.5648 32.6199 29.1238 32.4496 28.8757 32.2242C28.8261 32.1748 28.8261 32.0924 28.8757 32.0374ZM30.8492 29.6579C30.8492 29.2952 30.6011 28.949 30.1491 28.949C29.7026 28.949 29.449 29.2952 29.449 29.6579C29.449 30.0206 29.6971 30.3668 30.1491 30.3668C30.6011 30.3668 30.8492 30.0206 30.8492 29.6579Z" fill="#FF8000"/>
</svg>
