<svg width="40" height="40" viewBox="0 0 40 40" fill="none" xmlns="http://www.w3.org/2000/svg">
<rect width="40" height="40" fill="white"/>
<path d="M7.88744 16.8544C7.88744 16.8423 7.88744 16.8301 7.88744 16.8179C7.9111 16.8179 7.92294 16.7936 7.92294 16.7692C7.9466 16.684 7.93477 16.5988 7.9466 16.5257C7.98209 16.2457 8.02941 15.9901 8.04124 15.7223C8.06491 15.3814 8.11223 15.0527 8.14772 14.724C8.18321 14.4075 8.20688 14.1031 8.24237 13.7866C8.28969 13.4336 8.32518 13.0805 8.34885 12.7275C8.34885 12.6666 8.37251 12.6423 8.43166 12.6666C8.45532 12.6788 8.47899 12.6666 8.50265 12.6788C8.50265 12.7153 8.49082 12.7397 8.52631 12.7762C8.65645 12.9101 8.7156 13.0927 8.81025 13.251C8.94039 13.4579 9.07053 13.6649 9.17701 13.884C9.23616 13.9936 9.30715 14.091 9.3663 14.2005C9.38996 14.237 9.40179 14.2614 9.43729 14.2614C9.63841 14.6144 9.85137 14.9553 10.0525 15.3084C10.6677 16.3797 11.2829 17.4388 11.8981 18.5101C12.2412 19.1188 12.6198 19.7153 12.9392 20.3362C13.0812 20.604 13.1995 20.884 13.3178 21.1518C13.3296 21.1883 13.3415 21.2127 13.3651 21.2614C13.5071 20.9327 13.6372 20.6162 13.8029 20.3118C13.8384 20.3118 13.8502 20.2996 13.862 20.2753C13.9094 20.1779 13.9803 20.0805 14.0395 19.9831C14.0868 19.8979 14.146 19.8127 14.1933 19.7153C14.2879 19.5449 14.3826 19.3866 14.4891 19.2162C14.5246 19.1675 14.5601 19.1309 14.5601 19.0701C14.5601 19.0336 14.5955 18.997 14.6074 18.9605C14.6429 18.8631 14.7612 18.8023 14.7257 18.6805C14.915 18.3518 15.1043 18.011 15.2936 17.6823C15.8969 16.6231 16.5121 15.564 17.1274 14.517C17.4823 13.9084 17.8254 13.2997 18.1803 12.691C18.2276 12.6179 18.2868 12.6179 18.3459 12.6301C18.4169 12.6301 18.3933 12.7031 18.4051 12.7397C18.4287 12.9466 18.4406 13.1414 18.4642 13.3484C18.4642 13.3727 18.4524 13.4092 18.4524 13.4336C18.4761 13.6527 18.4761 13.8718 18.4997 14.091C18.5234 14.2614 18.5352 14.4318 18.5589 14.6023C18.5826 14.8701 18.6417 15.1379 18.6535 15.4179C18.6772 15.6857 18.7127 15.9536 18.7364 16.2214C18.76 16.4649 18.7955 16.7083 18.8192 16.964C18.8428 17.1953 18.8428 17.4266 18.8902 17.6579C18.973 18.0475 18.9611 18.437 19.0203 18.8266C19.0558 19.0944 19.1149 19.3744 19.1031 19.6544C19.1031 19.7883 19.1386 19.9344 19.1504 20.0805C19.1859 20.397 19.2451 20.7257 19.2569 21.0422C19.2569 21.1883 19.2924 21.3344 19.2924 21.4805C19.2924 21.6509 19.3871 21.8214 19.3397 22.004C19.3397 22.0162 19.3397 22.0405 19.3516 22.0649C19.3989 22.1744 19.4107 22.284 19.4225 22.4057C19.4344 22.5396 19.4107 22.6735 19.458 22.7953C19.4699 22.844 19.4699 22.9049 19.4817 22.9535C19.5054 23.2335 19.529 23.5257 19.5645 23.8057C19.6 24.1466 19.6473 24.4875 19.6592 24.8283C19.6592 24.9014 19.6473 24.9988 19.7301 25.0475C19.742 25.1692 19.7538 25.2909 19.7775 25.4127C19.7893 25.4614 19.7656 25.4857 19.7065 25.4857C19.3161 25.4857 18.9138 25.4857 18.5234 25.4857C18.4642 25.4857 18.4524 25.4614 18.4406 25.4005C18.3933 24.9501 18.3459 24.5118 18.2986 24.0614C18.204 23.2092 18.1093 22.3449 18.0147 21.4927C17.9792 21.1762 17.9437 20.8718 17.9082 20.5553C17.9082 20.5309 17.9082 20.4944 17.8845 20.4701C17.8964 20.397 17.8727 20.3362 17.8727 20.2631C17.849 19.9344 17.8017 19.6179 17.7662 19.2892C17.7189 18.8144 17.6597 18.3275 17.6124 17.8527C17.5651 17.451 17.5296 17.037 17.5178 16.6353C17.5059 16.404 17.4941 16.1605 17.4704 15.9292C17.4231 16.0388 17.3876 16.1483 17.3403 16.2579C17.08 16.964 16.7369 17.6336 16.3583 18.2788C15.8496 19.1431 15.3646 20.0196 14.8558 20.8962C14.3944 21.6996 13.933 22.5031 13.4716 23.3066C13.4243 23.3796 13.306 23.3918 13.2587 23.3066C13.235 23.2701 13.2232 23.2335 13.1995 23.197C13.2232 23.124 13.164 23.0753 13.1403 23.0144C13.022 22.7709 12.8682 22.564 12.7499 22.3205C12.7144 22.2475 12.6789 22.1501 12.6316 22.0892C12.537 21.9796 12.466 21.8457 12.4068 21.7118C12.3359 21.5657 12.2175 21.4318 12.1466 21.2857C12.1466 21.2736 12.1229 21.2736 12.1111 21.2736C12.0992 21.1153 11.9928 20.9814 11.9099 20.8596C11.8153 20.7136 11.768 20.5431 11.6615 20.4092C11.6023 20.3483 11.5787 20.2509 11.5314 20.1657C11.4959 20.1049 11.4604 20.044 11.4367 19.9709C11.3894 19.8736 11.3184 19.7883 11.2592 19.6788C11.2592 19.6666 11.2237 19.6666 11.2001 19.6666C11.2001 19.6544 11.2001 19.6423 11.2001 19.6301C11.1764 19.5692 11.1646 19.5205 11.0936 19.4962C11.1054 19.4231 11.0699 19.3866 11.0226 19.3501C11.0463 19.277 10.9871 19.2283 10.9398 19.1796C10.857 19.0701 10.8452 18.9362 10.7623 18.8266C10.6204 18.644 10.5257 18.4249 10.4074 18.2301C10.3364 18.0962 10.2418 17.9744 10.1945 17.8283C10.1826 17.804 10.159 17.7553 10.0998 17.7553C9.82771 17.3049 9.62658 16.8179 9.42546 16.331C9.3663 16.1727 9.30715 16.0266 9.23616 15.8684C9.2125 17.3292 8.99954 18.7779 8.83391 20.2144C8.79842 20.2144 8.77476 20.2266 8.78659 20.2753C8.79842 20.3118 8.78659 20.3362 8.78659 20.3727C8.78659 20.4823 8.7511 20.5796 8.73927 20.6892C8.72743 20.9814 8.69194 21.2614 8.65645 21.5414C8.60913 21.9675 8.53814 22.3936 8.52631 22.8196C8.52631 22.8318 8.52631 22.844 8.52631 22.8562C8.43166 23.0144 8.49082 23.197 8.44349 23.3675C8.408 23.5257 8.41983 23.6962 8.39617 23.8544C8.36068 24.0857 8.36068 24.317 8.31335 24.5483C8.2542 24.804 8.28969 25.0718 8.20688 25.3275C8.19505 25.3762 8.18321 25.3883 8.13589 25.3883C7.97026 25.3883 7.80463 25.4005 7.63899 25.4005C7.46153 25.4005 7.2959 25.4005 7.11844 25.4005C7.08294 25.4005 7.01196 25.4127 7.01196 25.3396C7.01196 25.1327 7.07111 24.9257 7.07111 24.7066C7.07111 24.5727 7.09477 24.4388 7.11844 24.317C7.1421 24.1466 7.1421 23.9762 7.16576 23.8057C7.18942 23.5866 7.21308 23.3675 7.23674 23.1605C7.24858 23.0022 7.24858 22.844 7.28407 22.6979C7.33139 22.4544 7.35505 22.2109 7.36688 21.9675C7.39055 21.6875 7.41421 21.4196 7.46153 21.1396C7.47336 21.0788 7.50885 21.0057 7.49702 20.9449C7.48519 20.8475 7.49702 20.7501 7.50885 20.6649C7.53252 20.4701 7.54435 20.2753 7.56801 20.0683C7.57984 19.9344 7.61533 19.8005 7.61533 19.6788C7.61533 19.5083 7.63899 19.3501 7.65082 19.1918C7.66266 18.9483 7.72181 18.7049 7.73364 18.4614C7.7573 18.084 7.84012 17.7188 7.85195 17.3536C7.88744 17.2075 7.88744 17.0249 7.88744 16.8544Z" fill="#E72979"/>
<path d="M32.7087 28.3101C32.7087 28.3222 32.7205 28.3344 32.7205 28.3466C32.7205 28.3831 32.7087 28.4318 32.7323 28.4683C32.7915 28.6144 32.8506 28.7483 32.9098 28.8944C32.9571 28.9918 32.9453 29.0161 32.8388 29.0161C32.4839 29.0161 32.129 29.0161 31.774 29.0161C31.6794 29.0161 31.6321 28.9796 31.6084 28.8944C31.5729 28.7118 31.4546 28.5657 31.3954 28.3953C31.3954 28.3709 31.3836 28.3344 31.3718 28.3101C31.3481 28.1883 31.2535 28.1031 31.2653 27.9692C31.2653 27.9327 31.2298 27.8596 31.1588 27.8475V27.8353C31.1588 27.7014 31.0997 27.5796 31.0405 27.4579C31.0168 27.4214 31.0405 27.3483 30.9695 27.3483C30.9814 27.2266 30.8985 27.1414 30.8867 27.0318C30.8512 26.8614 30.7329 26.8857 30.6264 26.8857C28.698 26.8857 26.7577 26.8857 24.8293 26.8857C24.7701 26.8857 24.711 26.8857 24.6518 26.8735C24.5809 26.8614 24.5217 26.8979 24.498 26.9709C24.4625 27.0683 24.4271 27.1657 24.3916 27.2753C24.3679 27.3362 24.3206 27.397 24.3442 27.4701C24.2496 27.7501 24.1431 28.0301 24.0248 28.3101C24.0011 28.3101 23.9775 28.3101 23.9775 28.3466C23.9183 28.5414 23.8118 28.7118 23.7645 28.9066C23.7527 28.9674 23.7172 29.0161 23.6344 29.004C23.3386 29.004 23.031 29.004 22.7352 29.004C22.6524 29.004 22.5696 29.004 22.4986 28.9431C22.5105 28.9188 22.5105 28.9066 22.5223 28.8822C22.5696 28.8822 22.5696 28.8457 22.5814 28.8092C22.6169 28.724 22.6643 28.6266 22.6997 28.5414C22.7471 28.4196 22.7707 28.2857 22.8417 28.1883C22.9245 28.0666 22.9482 27.9205 22.9955 27.7866C23.0665 27.5918 23.2321 27.4335 23.2203 27.2144C23.2203 27.2022 23.2321 27.1779 23.244 27.1657C23.3268 26.9831 23.3978 26.7883 23.4806 26.6057C23.5042 26.5448 23.5161 26.4596 23.5516 26.4109C23.6107 26.3135 23.658 26.204 23.6699 26.0944C23.6935 25.9362 23.8828 25.8509 23.8355 25.6683C23.8355 25.6562 23.8592 25.644 23.871 25.6318C23.8947 25.6075 23.8947 25.5953 23.9065 25.5588C23.9302 25.4492 23.9538 25.3518 24.013 25.2544C24.0366 25.2057 24.0485 25.157 24.0485 25.0962C24.0958 24.9622 24.1431 24.8162 24.2023 24.6822C24.2141 24.6701 24.2141 24.6579 24.2259 24.6457C24.3324 24.3779 24.4507 24.1222 24.5454 23.8544C24.5927 23.7327 24.6637 23.6231 24.6755 23.4892C24.6873 23.477 24.6873 23.4649 24.6992 23.4527C24.7938 23.2092 24.9003 22.9779 24.9949 22.7344C25.0423 22.7344 25.0541 22.6979 25.0659 22.6614C25.0778 22.6127 25.0896 22.564 25.1132 22.5275C25.1487 22.4301 25.2197 22.3449 25.2552 22.2353C25.3025 22.0649 25.3499 21.8944 25.4327 21.7605C25.5155 21.6266 25.5273 21.4805 25.5983 21.3344C25.6575 21.2249 25.7048 21.0909 25.7521 20.9692C25.8231 20.7866 25.8468 20.5675 26.0006 20.4214C26.0597 20.3727 26.0124 20.2996 26.0361 20.251C26.0834 20.1049 26.1425 19.9588 26.2135 19.8249C26.2253 19.8005 26.249 19.7518 26.2963 19.8005C26.3555 19.8736 26.4501 19.9223 26.462 20.0318C26.462 20.0562 26.4856 20.0805 26.5093 20.0927C26.6039 20.1414 26.6513 20.2388 26.6868 20.3362C26.7341 20.4457 26.7696 20.5675 26.8051 20.6892C26.8406 20.811 26.8997 20.9327 26.876 21.0544C26.7696 21.3466 26.6513 21.6388 26.5448 21.9309C26.4146 22.284 26.2727 22.6249 26.1425 22.9779C26.0242 23.2701 25.9059 23.5622 25.7994 23.8666C25.7048 24.1101 25.5983 24.3292 25.5392 24.5849C25.5273 24.597 25.5155 24.6092 25.5037 24.6214C25.3617 24.9744 25.2316 25.3396 25.0896 25.6927C25.0659 25.7414 25.0896 25.7535 25.1369 25.7535C25.1724 25.7535 25.1961 25.7535 25.2316 25.7535C26.8879 25.7535 28.5324 25.7535 30.1887 25.7535C30.378 25.7535 30.378 25.7535 30.307 25.5831C30.2952 25.5588 30.2952 25.5344 30.2833 25.5222C30.307 25.3396 30.2123 25.1814 30.1414 25.0475C30.0822 24.9135 30.0349 24.7675 29.9876 24.6335C29.9166 24.4388 29.8456 24.2196 29.7628 24.0249C29.6563 23.7814 29.5853 23.5257 29.467 23.2944C29.4552 23.2701 29.4552 23.2457 29.4552 23.2214C29.467 23.1605 29.4433 23.124 29.4079 23.0753C29.3842 23.0509 29.3724 23.0388 29.3605 23.0022C29.3014 22.7953 29.2186 22.6005 29.1357 22.4057C29.0529 22.1866 28.9701 21.9553 28.8518 21.7362C28.8163 21.6631 28.8518 21.5779 28.8045 21.5292C28.7217 21.4318 28.7098 21.3101 28.6625 21.2005C28.5915 21.0301 28.5324 20.8596 28.4732 20.6892C28.4614 20.6527 28.4496 20.6283 28.4022 20.6405C28.4141 20.5918 28.4022 20.531 28.3904 20.4944C28.3667 20.4336 28.3549 20.3605 28.2839 20.324C28.3076 20.1901 28.2011 20.0805 28.2129 19.9466C28.2129 19.9344 28.1893 19.9223 28.1774 19.9101C28.1538 19.8979 28.1301 19.8736 28.1301 19.8492C28.0946 19.7396 28.0591 19.6301 28.0236 19.5205C27.9763 19.3988 27.9881 19.2527 27.9172 19.131C27.9053 19.1066 27.8817 19.0701 27.9053 19.0457C27.9408 19.0092 27.9053 18.9727 27.8935 18.9483C27.8462 18.8753 27.8107 18.8023 27.8107 18.7049C27.8107 18.6683 27.8343 18.6197 27.7752 18.6197C27.7279 18.6197 27.6569 18.6318 27.6687 18.7049C27.6687 18.7779 27.6332 18.8388 27.6214 18.9118C27.6096 18.9483 27.5977 18.9727 27.6214 18.997C27.6214 19.0092 27.6096 19.0214 27.6096 19.0336C27.5386 18.9849 27.4676 18.924 27.4084 18.851C27.3611 18.7901 27.3138 18.6927 27.2073 18.717C27.1008 18.6318 27.0062 18.5344 26.8879 18.4492C26.8524 18.4249 26.7814 18.4127 26.7814 18.3397C26.9234 17.9866 27.0653 17.6457 27.1955 17.2927C27.2191 17.2927 27.2428 17.2805 27.2546 17.2562C27.3729 16.964 27.4913 16.6718 27.5977 16.3797C27.6332 16.3066 27.6687 16.2336 27.7515 16.2457C27.8343 16.2457 27.8698 16.3188 27.8817 16.3918C27.8935 16.477 27.9408 16.5379 27.9645 16.611C27.9881 16.684 28.0473 16.7327 28.0118 16.8179C28 16.8423 28.0236 16.891 28.0355 16.891C28.1183 16.9153 28.1183 17.0005 28.1419 17.0614C28.2011 17.1831 28.2484 17.2927 28.2957 17.4144C28.3431 17.5483 28.4022 17.6823 28.4496 17.8162C28.4969 17.9623 28.5797 18.084 28.627 18.2301C28.6507 18.291 28.6507 18.364 28.7335 18.4005C28.7335 18.4127 28.7453 18.4249 28.7453 18.437C28.7453 18.4857 28.7572 18.5344 28.769 18.5953C28.8281 18.7779 28.9346 18.9483 28.9819 19.1431C28.9938 19.1918 29.0056 19.2162 29.0648 19.2162C29.0648 19.3136 29.0884 19.411 29.1476 19.5083C29.2067 19.6057 29.2422 19.7396 29.2777 19.8614C29.325 20.0075 29.4197 20.1292 29.467 20.2753C29.538 20.4944 29.6326 20.6892 29.7155 20.9083C29.8101 21.1762 29.9402 21.4196 30.0349 21.6875C30.0704 21.7727 30.1769 21.8579 30.1059 21.9796C30.1059 21.9796 30.1177 22.004 30.1295 22.0162C30.1769 22.0527 30.2005 22.1014 30.2123 22.1501C30.2242 22.1988 30.2478 22.2475 30.307 22.2718C30.307 22.2718 30.3188 22.284 30.307 22.284C30.307 22.3083 30.2952 22.3449 30.307 22.357C30.3661 22.4909 30.4135 22.637 30.4608 22.7709C30.4608 22.7831 30.4845 22.7953 30.4963 22.8075C30.52 22.8318 30.5318 22.8562 30.52 22.8805C30.4963 22.9414 30.5318 22.9779 30.5673 23.0144C30.6028 23.0509 30.6146 23.0753 30.6264 23.124C30.6619 23.2214 30.6856 23.3309 30.7329 23.4283C30.8394 23.6109 30.8867 23.8301 30.9814 24.0249C31.0878 24.2196 31.147 24.4266 31.2298 24.6214C31.3126 24.8405 31.3954 25.0596 31.4901 25.2788C31.5019 25.3031 31.5256 25.3275 31.5492 25.3275C31.5374 25.4127 31.5729 25.4979 31.6084 25.5709C31.7622 25.8996 31.8805 26.2527 32.0343 26.5935C32.058 26.6422 32.1053 26.7031 32.0698 26.7762C32.058 26.7883 32.0816 26.837 32.0935 26.8492C32.1763 26.8735 32.1763 26.9466 32.1999 26.9953C32.2591 27.117 32.2946 27.2388 32.3537 27.3605C32.3892 27.4457 32.3892 27.5431 32.472 27.604C32.4839 27.677 32.4957 27.7379 32.5194 27.7988C32.6022 27.957 32.6613 28.1275 32.7323 28.2857C32.6732 28.2857 32.6732 28.2979 32.7087 28.3101ZM25.1014 25.7779C26.8051 25.7901 28.5205 25.7901 30.2242 25.7901V25.7779C28.5205 25.7779 26.8051 25.7779 25.1014 25.7779Z" fill="#1E74B9"/>
<path d="M14.3471 11.3884C14.3471 11.9484 14.3471 12.4962 14.3471 13.0562C14.3471 13.0927 14.3116 13.1536 14.3826 13.1536C14.4418 13.1536 14.5246 13.1901 14.5719 13.1049C14.6547 12.9466 14.702 12.7762 14.7494 12.6057C14.915 11.8266 14.9978 11.0475 15.0688 10.2562C15.0925 9.92749 15.1161 9.61097 15.0688 9.28228C15.0215 8.96576 14.9268 8.66141 14.6784 8.45445C14.5009 8.30837 14.2998 8.2475 14.075 8.18663C13.9922 8.16228 13.862 8.18663 13.8147 8.12576C13.7674 8.07706 13.8029 7.94315 13.8029 7.85793C13.8029 7.60228 13.8029 7.33446 13.8029 7.07881C13.8029 7.00576 13.8147 6.99359 13.8857 7.00576C14.7494 7.15185 15.4947 7.56576 16.0862 8.27185C17.222 9.64749 17.2457 11.6075 16.1454 13.0075C15.4829 13.8231 14.6311 14.2857 13.6018 14.3588C12.0638 14.4684 10.6677 13.5918 10.0525 12.131C9.24801 10.2318 10.159 7.97967 12.0401 7.22489C12.2885 7.1275 12.5606 7.05446 12.8209 7.00576C12.8919 6.99359 12.9156 6.99359 12.9156 7.07881C12.9156 7.39533 12.9156 7.72402 12.9156 8.05272C12.9156 8.12576 12.8919 8.15011 12.8209 8.16228C12.6198 8.18663 12.4187 8.23532 12.2294 8.33272C12.0046 8.44228 11.8508 8.62489 11.7562 8.85619C11.6615 9.0875 11.6142 9.34315 11.626 9.58662C11.6615 10.5362 11.7443 11.4736 11.9336 12.411C11.9809 12.6423 12.0401 12.8614 12.1347 13.0805C12.1702 13.1536 12.2176 13.1779 12.2885 13.1657C12.324 13.1657 12.3477 13.1536 12.3477 13.1049C12.3477 13.0805 12.3477 13.0684 12.3477 13.044C12.3477 11.9362 12.3477 10.8405 12.3477 9.73271C12.3477 9.61097 12.3595 9.50141 12.4897 9.44054C12.5961 9.39184 12.6908 9.39184 12.7854 9.46489C12.8683 9.52576 12.8919 9.62315 12.8919 9.72054C12.9392 10.5362 12.9866 11.3518 13.0339 12.1675C13.0457 12.4353 13.0694 12.691 13.093 12.9588C13.1049 13.0805 13.2232 13.1779 13.3533 13.1901C13.4716 13.1901 13.5899 13.1049 13.6018 12.971C13.6373 12.7518 13.6373 12.5449 13.6491 12.3257C13.7082 11.4614 13.7556 10.6092 13.8147 9.74489C13.8266 9.63532 13.8384 9.53793 13.933 9.46489C14.1342 9.34315 14.3471 9.46489 14.3471 9.70836C14.3471 9.92749 14.3471 10.1466 14.3471 10.3536C14.3353 10.6944 14.3353 11.0475 14.3471 11.3884C14.3353 11.3884 14.3353 11.3884 14.3471 11.3884Z" fill="#020202"/>
<path d="M17.719 19.2892C17.7545 19.6179 17.8018 19.9344 17.8255 20.2631C17.8255 20.3362 17.8491 20.397 17.8373 20.4701C17.6953 20.4823 17.5652 20.4823 17.4232 20.4701C17.3286 20.4701 17.2931 20.4944 17.2931 20.5918C17.2931 21.4318 17.2931 22.2718 17.2931 23.1118C17.2931 24.1588 17.2931 25.2179 17.2931 26.2649C17.2931 26.4231 17.2576 26.4231 17.4469 26.4231C18.6773 26.4231 19.9077 26.4231 21.1381 26.4231C21.3629 26.4231 21.3156 26.4231 21.3156 26.6057C21.3156 26.8979 21.3156 27.1901 21.3156 27.4701C21.3156 27.604 21.3156 27.604 21.1854 27.604C19.955 27.604 18.7246 27.604 17.506 27.604C17.2457 27.604 17.2931 27.5796 17.2931 27.8231C17.2931 28.7605 17.2931 29.6979 17.2931 30.6231C17.2931 30.7692 17.2931 30.7692 17.435 30.7692C19.4936 30.7692 21.5522 30.7692 23.6108 30.7692C23.7646 30.7692 23.7527 30.7327 23.7527 30.9153C23.7527 31.2196 23.7527 31.524 23.7527 31.8283C23.7527 31.9744 23.7527 31.9744 23.6108 31.9744C22.7826 31.9744 21.9426 31.9744 21.1144 31.9744C19.4463 31.9744 17.79 31.9744 16.1218 31.9744C15.9917 31.9744 15.9917 31.9744 15.9917 31.8405C15.9917 31.7796 15.9917 31.7309 15.9917 31.6701C15.9917 27.604 15.9917 23.5379 15.9917 19.4718C15.9917 19.2771 15.9917 19.2771 16.181 19.2771C16.6779 19.2771 17.1748 19.2771 17.6598 19.2771C17.6835 19.2892 17.6953 19.2892 17.719 19.2892Z" fill="#89C441"/>
<path d="M25.4799 24.5849C25.5391 24.3414 25.6456 24.1101 25.7402 23.8666C25.8467 23.5744 25.965 23.2822 26.0833 22.9779C26.1306 22.9536 26.1661 22.9049 26.2134 22.8805C26.805 22.3692 26.9706 21.7118 26.876 20.957C26.8286 20.4214 26.5802 19.9953 26.1779 19.6666C25.9177 19.4475 25.6456 19.2527 25.3498 19.0944C25.0777 18.9483 24.8056 18.8144 24.5216 18.6805C23.9537 18.4127 23.3859 18.157 22.8416 17.8527C22.4157 17.6092 22.0135 17.3414 21.6822 16.9762C21.2681 16.5257 21.0078 15.9901 20.925 15.3692C20.8422 14.7362 20.8777 14.1275 21.1262 13.531C21.3746 12.9466 21.7769 12.5084 22.3092 12.1918C22.9126 11.8266 23.587 11.7049 24.2732 11.7171C24.8411 11.7292 25.3853 11.8388 25.894 12.0944C26.3909 12.3379 26.805 12.691 27.1362 13.1292C27.2309 13.251 27.3137 13.3849 27.3965 13.5066C27.4675 13.6162 27.4675 13.6284 27.361 13.6892C27.0771 13.8718 26.7931 14.0544 26.4974 14.2492C26.4382 14.2857 26.3909 14.2857 26.3436 14.2127C26.0833 13.7866 25.752 13.4214 25.3143 13.1901C25.0303 13.044 24.7346 12.9588 24.4151 12.9344C23.9537 12.8979 23.516 12.9344 23.0901 13.1414C22.6405 13.3605 22.3447 13.7257 22.2264 14.2249C22.12 14.6631 22.1436 15.0892 22.2974 15.5031C22.4276 15.844 22.6642 16.1118 22.9481 16.3188C23.3385 16.611 23.7763 16.8301 24.214 17.037C24.8647 17.3536 25.5391 17.6336 26.1661 18.011C26.3317 18.1083 26.4855 18.2179 26.6512 18.3275C26.6748 18.3396 26.6867 18.364 26.7222 18.3518C26.734 18.4249 26.7931 18.437 26.8286 18.4614C26.9351 18.5466 27.0298 18.644 27.1481 18.7292C27.2664 18.8753 27.3847 19.0092 27.5267 19.131C27.5385 19.1431 27.5385 19.1675 27.5503 19.1796C27.7988 19.5083 27.9762 19.8736 28.0827 20.2753C28.2838 21.0423 28.2838 21.8092 28.0117 22.5518C27.7988 23.1483 27.4202 23.6109 26.9233 23.9762C26.6393 24.1831 26.3317 24.3292 26.0123 24.4509C25.8348 24.5118 25.6692 24.5727 25.4799 24.5849Z" fill="#F3921D"/>
<path d="M24.6515 23.5014C24.6397 23.6353 24.5687 23.7449 24.5214 23.8666C24.4267 24.1344 24.3084 24.4023 24.202 24.6579C24.202 24.6701 24.1901 24.6823 24.1783 24.6944C23.989 24.7066 23.8115 24.6823 23.6341 24.6579C23.1253 24.597 22.6284 24.4631 22.167 24.244C21.6465 24.0005 21.1851 23.6475 20.7947 23.2092C20.5344 22.9049 20.3214 22.5762 20.1203 22.2231C20.0848 22.1501 20.0848 22.1136 20.1558 22.0649C20.4752 21.8944 20.7828 21.724 21.1023 21.5414C21.1614 21.5049 21.1851 21.5536 21.2087 21.5901C21.327 21.797 21.4572 22.004 21.611 22.1988C21.9186 22.6127 22.309 22.9414 22.7704 23.1727C22.7822 23.1727 22.7941 23.1849 22.8059 23.1849C22.8532 23.2214 22.9124 23.2457 22.9597 23.2579C23.5039 23.4892 24.0718 23.5379 24.6515 23.5014Z" fill="#F3921D"/>
<path d="M19.1029 19.3014C19.1384 19.2892 19.1738 19.2892 19.2212 19.2892C20.6172 19.2892 22.0133 19.2892 23.4093 19.2892C23.4921 19.2892 23.5158 19.3136 23.5158 19.3988C23.5158 19.7275 23.5158 20.0684 23.5158 20.3971C23.5158 20.4701 23.4921 20.4944 23.4211 20.4944C22.0487 20.4944 20.6645 20.4944 19.2922 20.4944C19.2685 20.4944 19.2448 20.4944 19.2212 20.4823C19.2093 20.4579 19.2093 20.4336 19.2093 20.4092C19.1738 20.1049 19.1384 19.7884 19.1147 19.484C19.1029 19.4231 19.0674 19.3623 19.1029 19.3014Z" fill="#8AC442"/>
<path d="M29.337 30.5866C29.337 30.8544 29.337 31.1101 29.337 31.3779C29.337 31.4509 29.3489 31.4753 29.4317 31.4753C29.5855 31.4631 29.5855 31.4753 29.5855 31.6214C29.5855 31.7066 29.5855 31.7918 29.5855 31.877C29.5855 31.9379 29.5736 31.9622 29.5145 31.9622C29.3489 31.9622 29.3489 31.9622 29.3489 32.1327C29.3489 32.2422 29.3489 32.3518 29.3489 32.4614C29.3489 32.5222 29.3252 32.5222 29.2779 32.5222C29.1596 32.5222 29.0294 32.5222 28.9111 32.5222C28.8638 32.5222 28.8401 32.5101 28.8401 32.4492C28.8401 32.3153 28.8401 32.1814 28.8401 32.0353C28.8401 31.9501 28.8165 31.9379 28.7455 31.9501C28.4142 31.9501 28.083 31.9501 27.7517 31.9501C27.6807 31.9501 27.6689 31.9379 27.6689 31.8648C27.6452 31.597 27.7162 31.3657 27.87 31.1466C28.1894 30.6962 28.4734 30.2335 28.7691 29.7709C28.8046 29.7101 28.8401 29.6979 28.9111 29.6979C29.0176 29.6979 29.1359 29.6979 29.2424 29.6979C29.3134 29.6979 29.337 29.7101 29.337 29.7831C29.337 30.0509 29.337 30.3188 29.337 30.5866ZM28.8401 30.5501C28.6272 30.8666 28.4379 31.1588 28.2368 31.4631C28.4379 31.4631 28.6153 31.4631 28.7928 31.4631C28.8283 31.4631 28.8401 31.4509 28.8401 31.4144C28.8401 31.1344 28.8401 30.8544 28.8401 30.5501Z" fill="#050505"/>
<path d="M26.7814 32.0231C27.0772 32.0231 27.3611 32.0231 27.6332 32.0231C27.7042 32.0231 27.7397 32.0352 27.7279 32.1205C27.716 32.23 27.7279 32.3396 27.7279 32.4492C27.7279 32.4979 27.7161 32.51 27.6569 32.51C27.089 32.51 26.5093 32.51 25.9414 32.51C25.8823 32.51 25.8704 32.4857 25.8704 32.437C25.8586 32.3152 25.8941 32.23 25.9769 32.1448C26.249 31.877 26.4975 31.597 26.7577 31.3292C26.8997 31.1831 27.0299 31.0248 27.1245 30.8422C27.1482 30.7935 27.1718 30.7326 27.1837 30.6839C27.2428 30.4648 27.1363 30.27 26.9589 30.2092C26.7459 30.1483 26.5566 30.2579 26.4738 30.477C26.4501 30.5379 26.4856 30.6231 26.4147 30.6474C26.3555 30.6718 26.2963 30.6474 26.2372 30.6474C26.1662 30.6474 26.1071 30.6474 26.0361 30.6474C25.9769 30.6474 25.9533 30.6353 25.9533 30.5622C26.0006 29.8805 26.6631 29.4787 27.2546 29.7709C27.6332 29.9535 27.7989 30.4283 27.6332 30.8666C27.5268 31.1709 27.3256 31.4144 27.1127 31.6457C27.0062 31.7796 26.8997 31.8892 26.7814 32.0231Z" fill="#050505"/>
<path d="M32.1525 30.2579C31.8094 30.2579 31.4663 30.2579 31.1351 30.2579C31.0759 30.2579 31.0523 30.2457 31.0523 30.1727C31.0641 30.0509 31.0523 29.9414 31.0523 29.8196C31.0523 29.7709 31.0641 29.7466 31.1232 29.7466C31.6675 29.7466 32.1999 29.7466 32.7441 29.7466C32.7914 29.7466 32.8151 29.7587 32.8151 29.8074C32.8151 29.9413 32.8032 30.0631 32.7441 30.1848C32.3773 30.9518 32.0106 31.7187 31.6556 32.4857C31.632 32.5466 31.6083 32.5587 31.5492 32.5222C31.4545 32.4735 31.3599 32.4248 31.2652 32.3761C31.1942 32.3518 31.2061 32.3153 31.2297 32.2544C31.5373 31.6092 31.8449 30.9518 32.1525 30.3066C32.1407 30.3187 32.1525 30.2944 32.1525 30.2579Z" fill="#050505"/>
<path d="M29.4789 32.997C29.8693 31.9135 30.2597 30.8422 30.6501 29.7709C30.6738 29.7101 30.6974 29.6857 30.7684 29.6857C30.8276 29.6979 30.8986 29.6857 30.9577 29.6857C31.0169 29.6857 31.0287 29.6979 31.005 29.7588C30.8394 30.197 30.6856 30.6353 30.5318 31.0735C30.307 31.6822 30.0822 32.2909 29.8693 32.9118C29.8456 32.9848 29.8101 33.0092 29.7391 32.997C29.6445 32.997 29.5617 32.997 29.4789 32.997Z" fill="#070707"/>
<path d="M7.88744 16.8544C7.88744 17.037 7.87569 17.2075 7.86386 17.3901C7.84019 17.7675 7.76921 18.1327 7.74555 18.4979C7.73372 18.7414 7.67456 18.9849 7.66273 19.2284C7.6509 19.3866 7.62724 19.5571 7.62724 19.7153C7.62724 19.8371 7.59174 19.971 7.57991 20.1049C7.55625 20.2997 7.54442 20.4944 7.52076 20.7014C7.50893 20.7988 7.4971 20.884 7.50893 20.9814C7.50893 21.0423 7.48527 21.1031 7.47344 21.1762C7.42611 21.4562 7.40245 21.724 7.37879 22.004C7.36696 22.2475 7.3433 22.491 7.29597 22.7344C7.27231 22.8805 7.27231 23.0388 7.24865 23.197C7.22499 23.4162 7.21316 23.6353 7.17766 23.8423C7.154 24.0127 7.154 24.1831 7.13034 24.3536C7.11851 24.4875 7.09485 24.6214 7.09485 24.7553C7.09485 24.9744 7.03569 25.1814 7.03569 25.3883C7.03569 25.4614 7.10668 25.4492 7.14217 25.4492C7.31963 25.4614 7.48527 25.4614 7.66273 25.4492C7.82836 25.4492 7.99399 25.437 8.15963 25.437C8.20695 25.437 8.21878 25.4127 8.23061 25.3762C8.3016 25.1205 8.27794 24.8527 8.33709 24.597C8.38441 24.3657 8.38441 24.1344 8.41991 23.9031C8.44357 23.7449 8.43174 23.5744 8.46723 23.4162C8.50272 23.2457 8.4554 23.0631 8.55005 22.9049C8.55005 22.8927 8.55005 22.8805 8.55005 22.8684C8.56188 22.4423 8.63286 22.0162 8.68019 21.5901C8.71568 21.3101 8.75117 21.0179 8.763 20.7379C8.763 20.6284 8.79849 20.531 8.81032 20.4214C8.81032 20.3849 8.82216 20.3605 8.81032 20.324C8.79849 20.2753 8.82216 20.2631 8.85765 20.2631C8.82216 20.5918 8.78666 20.9205 8.75117 21.2492C8.63286 22.284 8.52638 23.3188 8.40808 24.3657C8.37258 24.731 8.32526 25.084 8.28977 25.4492C8.28977 25.4979 8.27794 25.5344 8.20695 25.5223C7.84019 25.5223 7.48527 25.5223 7.11851 25.5223C6.98837 25.5223 6.98837 25.5223 7.01203 25.3883C7.16583 23.9883 7.3078 22.5884 7.46161 21.2005C7.57991 19.764 7.72188 18.3518 7.87569 16.9518C7.87569 16.9153 7.88744 16.8788 7.88744 16.8544Z" fill="#C6457C"/>
<path d="M19.1029 19.3014C19.0792 19.3623 19.1033 19.4231 19.1033 19.4718C19.1269 19.7762 19.1624 20.0927 19.1979 20.397C19.1979 20.4214 19.2098 20.4457 19.2098 20.4701C19.2098 20.6892 19.2453 20.9083 19.2689 21.1275C19.3991 22.3814 19.5292 23.6353 19.6712 24.8892C19.6712 24.9379 19.6712 24.9988 19.683 25.0474C19.6002 24.9988 19.612 24.9014 19.612 24.8283C19.6002 24.4874 19.5529 24.1466 19.5174 23.8057C19.4819 23.5257 19.47 23.2335 19.4346 22.9535C19.4346 22.9048 19.4227 22.844 19.4109 22.7953C19.3636 22.6614 19.3872 22.5396 19.3754 22.4057C19.3754 22.284 19.3517 22.1744 19.3044 22.0648C19.2926 22.0527 19.2926 22.0283 19.2926 22.004C19.3517 21.8214 19.2571 21.6631 19.2453 21.4805C19.2453 21.3344 19.2098 21.1883 19.2098 21.0422C19.1979 20.7135 19.1388 20.397 19.1033 20.0805C19.0915 19.9344 19.056 19.8005 19.056 19.6544C19.0678 19.3744 19.0086 19.1066 18.9731 18.8266C18.9258 18.437 18.9258 18.0475 18.843 17.6579C18.7957 17.4388 18.7957 17.1953 18.772 16.964C18.7484 16.7205 18.7129 16.477 18.6892 16.2214C18.6655 15.9536 18.6301 15.6857 18.6064 15.4179C18.5827 15.1501 18.5354 14.8823 18.5117 14.6023C18.4999 14.4318 18.4762 14.2614 18.4526 14.091C18.4289 13.8718 18.4171 13.6527 18.4053 13.4336C18.4053 13.4092 18.4171 13.3727 18.4171 13.3483C18.4644 13.6162 18.4762 13.8962 18.5117 14.164C18.6064 15.0527 18.701 15.9414 18.7957 16.8301C18.8785 17.597 18.9613 18.3762 19.0441 19.1431C19.0678 19.204 19.0674 19.2649 19.1029 19.3014Z" fill="#C6457C"/>
<path d="M24.3442 27.4701C24.3206 27.397 24.3679 27.3362 24.3916 27.2753C24.4271 27.1779 24.4625 27.0805 24.498 26.9709C24.5217 26.8979 24.5809 26.8614 24.6518 26.8735C24.711 26.8857 24.7701 26.8857 24.8293 26.8857C26.7577 26.8857 28.698 26.8857 30.6264 26.8857C30.7329 26.8857 30.8512 26.8492 30.8867 27.0318C30.9104 27.1414 30.9814 27.2388 30.9695 27.3483C30.9104 27.2388 30.8747 27.117 30.8274 26.9953C30.8037 26.9344 30.7801 26.9222 30.7209 26.9222C30.6499 26.9222 30.5789 26.9222 30.5079 26.9222C28.5677 26.9222 26.6274 26.9222 24.6872 26.9222C24.5925 26.9222 24.5452 26.9466 24.5097 27.044C24.4624 27.1901 24.3916 27.324 24.3442 27.4701Z" fill="#236696"/>
<path d="M26.1779 19.6666C26.5684 20.0075 26.8168 20.4336 26.876 20.957C26.8523 20.9936 26.8403 21.0179 26.8166 21.0544C26.8403 20.9205 26.7811 20.8109 26.7456 20.6892C26.7101 20.5675 26.6865 20.4457 26.6273 20.3361C26.5918 20.2388 26.5445 20.1535 26.4499 20.0927C26.4262 20.0805 26.4025 20.0561 26.4025 20.0318C26.3907 19.9222 26.2961 19.8735 26.2369 19.8005C26.2014 19.7518 26.1659 19.8005 26.1541 19.8248C26.0949 19.9709 26.0239 20.1048 25.9766 20.2509C25.9648 20.2996 26.0003 20.3727 25.9411 20.4214C25.7755 20.5675 25.7637 20.7866 25.6927 20.9692C25.6454 21.0909 25.598 21.2248 25.5389 21.3344C25.4679 21.4683 25.4442 21.6266 25.3732 21.7605C25.2904 21.9066 25.2431 22.077 25.1958 22.2353C25.1721 22.3448 25.1011 22.4301 25.0538 22.5274C25.042 22.5761 25.0183 22.6127 25.0065 22.6614C24.9947 22.6979 24.9828 22.7344 24.9355 22.7344C25.042 22.4544 25.1603 22.1622 25.2668 21.8822C25.5507 21.164 25.8346 20.4457 26.1304 19.7275C26.1659 19.7275 26.1779 19.691 26.1779 19.6666Z" fill="#35729E"/>
<path d="M24.0248 25.1083C24.0366 25.157 24.0248 25.2179 23.9893 25.2666C23.9302 25.364 23.9183 25.4735 23.8828 25.5709C23.871 25.5953 23.871 25.6196 23.8473 25.644C23.8355 25.6562 23.8118 25.6683 23.8118 25.6805C23.8592 25.8631 23.6699 25.9361 23.6462 26.1066C23.6344 26.204 23.5871 26.3257 23.5279 26.4231C23.4924 26.484 23.4924 26.557 23.4569 26.6179C23.3741 26.8005 23.3031 26.9953 23.2203 27.1779C23.2085 27.1901 23.1966 27.2144 23.1966 27.2266C23.1966 27.4457 23.031 27.604 22.9719 27.7988C22.9245 27.9327 22.9009 28.0788 22.8181 28.2005C22.7471 28.2979 22.7234 28.4318 22.6761 28.5535C22.6406 28.6388 22.6051 28.7361 22.5578 28.8214C22.5459 28.8457 22.5341 28.8822 22.4986 28.8944C22.6761 28.4318 22.8654 27.9692 23.0428 27.5066C23.3031 26.837 23.5752 26.1796 23.8355 25.5101C23.9065 25.364 23.9657 25.2422 24.0248 25.1083Z" fill="#35729E"/>
<path d="M8.51456 12.6788C8.4909 12.6788 8.46724 12.6788 8.44358 12.6666C8.38442 12.6423 8.36076 12.6666 8.36076 12.7275C8.3371 13.0805 8.30161 13.4336 8.25428 13.7866C8.20696 14.1032 8.19513 14.4075 8.15963 14.724C8.12414 15.0527 8.06499 15.3936 8.05316 15.7223C8.04133 15.9901 7.994 16.2458 7.95851 16.5136C7.94668 16.5988 7.95851 16.684 7.93485 16.7571C7.92302 16.7814 7.92302 16.8058 7.89936 16.8058C7.89936 16.6231 7.93485 16.4405 7.95851 16.2579C8.07682 15.0892 8.20696 13.9084 8.3371 12.7397C8.3371 12.7032 8.32527 12.6545 8.37259 12.6545C8.43174 12.6545 8.50273 12.6179 8.55005 12.691C8.52639 12.6788 8.51456 12.6788 8.51456 12.6788Z" fill="#C6457C"/>
<path d="M28.6744 18.4127C28.6034 18.3884 28.5916 18.3031 28.5679 18.2423C28.5088 18.0962 28.4378 17.9744 28.3904 17.8284C28.3431 17.6945 28.284 17.5605 28.2366 17.4266C28.1893 17.3049 28.142 17.1831 28.0828 17.0736C28.0592 17.0127 28.0592 16.9275 27.9764 16.9031C27.9645 16.9031 27.9409 16.8545 27.9527 16.8301C27.9882 16.7449 27.929 16.684 27.9054 16.6231C27.8817 16.5501 27.8344 16.4771 27.8226 16.404C27.8107 16.331 27.7752 16.2579 27.6924 16.2579C27.6096 16.2579 27.5623 16.3188 27.5386 16.3918C27.4321 16.684 27.3138 16.9762 27.1955 17.2684C27.1837 17.3049 27.1719 17.3049 27.1364 17.3049C27.2783 16.964 27.4085 16.611 27.5505 16.2701C27.5859 16.1849 27.6569 16.2336 27.7161 16.2214C27.7634 16.2092 27.7989 16.2214 27.8226 16.2823C28.071 16.9031 28.3195 17.5118 28.5797 18.1327C28.6034 18.2179 28.6389 18.3153 28.6744 18.4127Z" fill="#35729E"/>
<path d="M30.2359 22.2353C30.1767 22.2109 30.1649 22.1622 30.1412 22.1135C30.1175 22.0648 30.1057 22.004 30.0584 21.9796C30.0466 21.9674 30.0347 21.9431 30.0347 21.9431C30.1057 21.8214 29.9874 21.7483 29.9637 21.6509C29.8691 21.3831 29.7508 21.1396 29.6443 20.8718C29.5615 20.6648 29.4669 20.4579 29.3959 20.2388C29.3485 20.0927 29.2539 19.9709 29.2066 19.8248C29.1711 19.7031 29.1356 19.5814 29.0764 19.4718C29.0173 19.3744 29.0054 19.2892 28.9936 19.1796C29.1001 19.3866 29.1829 19.6179 29.2657 19.837C29.5733 20.5796 29.8691 21.3222 30.1767 22.0648C30.2004 22.1379 30.2122 22.1866 30.2359 22.2353Z" fill="#35729E"/>
<path d="M31.4784 25.291C31.4429 25.291 31.4311 25.2666 31.4193 25.2423C31.3365 25.0231 31.2418 24.804 31.159 24.5849C31.0762 24.3779 31.017 24.171 30.9106 23.9883C30.8041 23.7936 30.7686 23.5866 30.6621 23.3918C30.6148 23.2944 30.5911 23.1849 30.5556 23.0875C30.5438 23.051 30.5201 23.0144 30.4965 22.9779C30.461 22.9414 30.4255 22.9049 30.4492 22.844C30.461 22.8197 30.4492 22.7953 30.4255 22.771C30.4137 22.7588 30.4018 22.7466 30.39 22.7344C30.3427 22.5884 30.2954 22.4544 30.2362 22.3205C30.2244 22.2962 30.2362 22.2718 30.2362 22.2475C30.3663 22.5031 30.461 22.7831 30.5675 23.051C30.8632 23.7692 31.1472 24.4875 31.4429 25.2057C31.4666 25.2301 31.4666 25.2666 31.4784 25.291Z" fill="#35729E"/>
<path d="M31.3958 28.3831C31.4549 28.5535 31.5732 28.6995 31.6086 28.882C31.6205 28.9672 31.6796 29.0037 31.7742 29.0037C32.129 29.0037 32.4838 29.0037 32.8386 29.0037C32.945 29.0037 32.9569 28.9794 32.9096 28.882C32.8504 28.736 32.7913 28.6021 32.7322 28.4561C32.7203 28.4196 32.7203 28.3831 32.7203 28.3344C32.8149 28.5535 32.9096 28.7725 32.9923 28.9916C33.016 29.0524 32.9805 29.0402 32.945 29.0402C32.5311 29.0402 32.1053 29.0402 31.6914 29.0402C31.6559 29.0402 31.6323 29.0402 31.6205 28.9916C31.5377 28.7847 31.4667 28.5778 31.3839 28.3709C31.3839 28.3831 31.3958 28.3831 31.3958 28.3831Z" fill="#35729E"/>
<path d="M32.3892 27.5675C32.3064 27.5066 32.3064 27.4092 32.2709 27.324C32.2117 27.2023 32.1644 27.0805 32.1171 26.9588C32.0934 26.8979 32.0934 26.8249 32.0106 26.8127C31.9988 26.8127 31.9751 26.764 31.9869 26.7396C32.0224 26.6666 31.9751 26.6057 31.9514 26.557C31.7976 26.2283 31.6793 25.8753 31.5255 25.5344C31.49 25.4614 31.4664 25.3762 31.4664 25.291C31.6202 25.6196 31.7503 25.9605 31.8805 26.3014C32.0461 26.6909 32.1999 27.0805 32.3537 27.4701C32.3892 27.4944 32.401 27.5309 32.3892 27.5675Z" fill="#35729E"/>
<path d="M12.0758 21.2857C12.0876 21.2857 12.1113 21.2857 12.1113 21.2979C12.1823 21.444 12.2887 21.5779 12.3716 21.724C12.4307 21.8579 12.5017 21.9918 12.5963 22.1014C12.6555 22.1622 12.6792 22.2596 12.7147 22.3327C12.8211 22.5762 12.9868 22.7953 13.1051 23.0266C13.1287 23.0875 13.1879 23.124 13.1642 23.2092C13.0341 23.0266 12.9276 22.8196 12.8211 22.6127C12.5727 22.1988 12.3479 21.7727 12.1113 21.3466C12.0876 21.3222 12.0876 21.3101 12.0758 21.2857Z" fill="#C3427A"/>
<path d="M8.51456 12.6788C8.52639 12.6788 8.52607 12.6788 8.5379 12.6788C8.65616 12.8735 8.7626 13.0561 8.88087 13.2508C9.05827 13.555 9.23566 13.8714 9.41306 14.1756C9.42489 14.2 9.44854 14.2243 9.44854 14.2608C9.40124 14.2608 9.38941 14.2365 9.37758 14.2C9.31845 14.0905 9.23566 13.9931 9.18836 13.8836C9.08192 13.6645 8.95183 13.4576 8.82174 13.2508C8.72712 13.0926 8.66799 12.91 8.5379 12.7762C8.50242 12.7397 8.51456 12.7153 8.51456 12.6788Z" fill="#C3427A"/>
<path d="M11.1645 19.691C11.1881 19.691 11.2118 19.691 11.2236 19.7031C11.2709 19.8005 11.3537 19.8857 11.401 19.9952C11.4247 20.0561 11.4601 20.1291 11.4956 20.1899C11.5429 20.2629 11.5784 20.3603 11.6257 20.4333C11.744 20.5672 11.7795 20.7375 11.8741 20.8836C11.9569 21.0053 12.0633 21.1391 12.0751 21.2973C11.9805 21.1756 11.9095 21.0296 11.8386 20.8957C11.6257 20.5185 11.4128 20.1534 11.2 19.7762C11.1881 19.7396 11.1763 19.7153 11.1645 19.691Z" fill="#C3427A"/>
<path d="M14.7133 18.7048C14.7369 18.8265 14.6305 18.8874 14.595 18.9847C14.5832 19.0213 14.5477 19.0456 14.5477 19.0943C14.5359 19.1551 14.5004 19.1916 14.4767 19.2403C14.3703 19.3985 14.2757 19.5689 14.1811 19.7393C14.1338 19.8244 14.0746 19.9096 14.0273 20.007C13.9682 20.1043 13.9091 20.2017 13.8499 20.299C13.8381 20.3234 13.8263 20.3477 13.7908 20.3356C13.9209 20.0557 14.0865 19.8001 14.2402 19.5324C14.3821 19.2768 14.524 19.0334 14.6778 18.7779C14.6896 18.7414 14.7014 18.7292 14.7133 18.7048Z" fill="#C3427A"/>
<path d="M10.0763 17.7675C10.1236 17.7675 10.1591 17.8162 10.1709 17.8405C10.2182 17.9865 10.3128 18.1082 10.3838 18.2421C10.5021 18.4368 10.5967 18.6559 10.7386 18.8384C10.8214 18.9479 10.845 19.0818 10.916 19.1913C10.9515 19.24 11.0106 19.2887 10.9988 19.3617C10.9988 19.3739 10.9988 19.3739 10.9988 19.386C10.8923 19.24 10.8214 19.0818 10.7386 18.9358C10.5257 18.5707 10.3128 18.1934 10.1 17.8162C10.0881 17.804 10.0881 17.7918 10.0763 17.7675Z" fill="#C3427A"/>
<path d="M22.4986 28.9431C22.5696 29.004 22.6524 29.004 22.7352 29.004C23.0309 29.004 23.3378 29.0037 23.6335 29.0037C23.7163 29.0037 23.7399 28.9672 23.7636 28.9064C23.8109 28.7116 23.9291 28.5413 23.9765 28.3466C23.9883 28.3222 24.0001 28.3101 24.0238 28.3101C23.941 28.5413 23.8464 28.7725 23.7636 29.0037C23.7517 29.0402 23.7281 29.0524 23.6926 29.0524C23.3023 29.0524 22.9121 29.0524 22.5218 29.0524C22.439 29.0524 22.4627 29.0159 22.4863 28.9672C22.4863 28.955 22.4868 28.9553 22.4986 28.9431Z" fill="#35729E"/>
<path d="M28.9939 19.2037C28.9465 19.2159 28.9229 19.1794 28.9111 19.1307C28.8756 18.936 28.7573 18.7778 28.6982 18.5831C28.6864 18.5344 28.6745 18.4857 28.6745 18.4249C28.8046 18.6926 28.8992 18.9481 28.9939 19.2037Z" fill="#35729E"/>
<path d="M32.7087 28.3101C32.6732 28.3101 32.673 28.2854 32.6612 28.2611C32.5902 28.0907 32.5192 27.9325 32.4483 27.7743C32.4128 27.7135 32.401 27.6405 32.401 27.5796C32.4601 27.604 32.4601 27.677 32.4719 27.7256C32.5547 27.9082 32.6259 28.1032 32.7087 28.3101Z" fill="#35729E"/>
<path d="M31.3958 28.3831C31.3839 28.3831 31.3834 28.3831 31.3716 28.3831C31.2888 28.2005 31.218 28.0301 31.1588 27.8475C31.2298 27.8475 31.2653 27.9205 31.2653 27.9692C31.2535 28.1031 31.3481 28.1883 31.3718 28.3101C31.3836 28.3344 31.3958 28.3588 31.3958 28.3831Z" fill="#236696"/>
<path d="M30.9695 27.3483C31.0405 27.3483 31.0287 27.4214 31.0405 27.4579C31.0997 27.5796 31.1588 27.7014 31.1588 27.8353C31.0878 27.677 31.0287 27.5188 30.9695 27.3483Z" fill="#236696"/>
<path d="M11.0701 19.5083C11.1295 19.5328 11.1533 19.594 11.1771 19.643C11.1652 19.643 11.1652 19.6552 11.1533 19.6552C11.1177 19.6185 11.082 19.5695 11.0701 19.5083Z" fill="#C6457C"/>
<path d="M10.999 19.3867C10.999 19.3745 10.9988 19.3739 10.9988 19.3617C11.0464 19.3984 11.0822 19.4479 11.0703 19.5091C11.0346 19.4724 11.0108 19.4357 10.999 19.3867Z" fill="#C6457C"/>
<path d="M11.1531 19.6668C11.1652 19.6668 11.1652 19.6544 11.1772 19.6544C11.1772 19.6668 11.1772 19.6792 11.1772 19.6916C11.1652 19.6792 11.1531 19.6668 11.1531 19.6668Z" fill="#C3427A"/>
<path d="M22.4986 28.9431C22.4986 28.9558 22.4867 28.9558 22.4867 28.9684C22.4867 28.9558 22.4863 28.9558 22.4986 28.9431Z" fill="#1E74B9"/>
<path d="M30.2359 25.5101C30.0821 25.1205 29.9283 24.731 29.7745 24.3414C29.3723 23.3066 28.97 22.2718 28.5796 21.2492C28.4968 21.0545 28.4258 20.8475 28.3548 20.6527C28.3903 20.6405 28.414 20.6771 28.4258 20.7014C28.485 20.8718 28.5441 21.0545 28.6151 21.2127C28.6624 21.3223 28.6743 21.444 28.7571 21.5414C28.8044 21.5901 28.7689 21.6753 28.8044 21.7484C28.9109 21.9675 28.9937 22.1866 29.0883 22.4179C29.1593 22.6127 29.2421 22.8075 29.3131 23.0145C29.3249 23.051 29.3368 23.0631 29.3604 23.0875C29.3959 23.124 29.4196 23.1727 29.4078 23.2336C29.4078 23.2579 29.4078 23.2945 29.4196 23.3066C29.5379 23.5379 29.6089 23.7936 29.7154 24.0371C29.7982 24.2318 29.8692 24.4388 29.9402 24.6458C29.9875 24.7797 30.0348 24.9257 30.094 25.0597C30.1531 25.1814 30.2596 25.3275 30.2359 25.5101Z" fill="#35729E"/>
<path d="M28.2364 20.3234C28.1063 20.0556 28.0235 19.7757 27.9289 19.4958C27.8461 19.2281 27.7634 18.9482 27.6806 18.6561C27.6214 18.7657 27.6096 18.8995 27.5623 19.0091C27.5268 18.9847 27.5505 18.9482 27.5623 18.9239C27.5741 18.8509 27.6214 18.79 27.6096 18.717C27.6096 18.644 27.6687 18.6318 27.7161 18.6318C27.7752 18.6318 27.7634 18.6927 27.7515 18.717C27.7515 18.8144 27.7752 18.8874 27.8343 18.9604C27.858 18.9847 27.8816 19.0091 27.8461 19.0577C27.8225 19.0821 27.8461 19.1186 27.858 19.1429C27.9289 19.2646 27.9289 19.3985 27.9644 19.5323C27.9999 19.6419 28.0354 19.7514 28.0709 19.8609C28.0827 19.8853 28.0945 19.9096 28.1182 19.9218C28.13 19.9339 28.1655 19.9461 28.1536 19.9583C28.1418 20.08 28.2601 20.1895 28.2364 20.3234Z" fill="#35729E"/>
<path d="M25.1014 25.7779C26.8051 25.7779 28.5205 25.7779 30.2242 25.7779V25.7901C28.5205 25.7901 26.8051 25.7901 25.1014 25.7779Z" fill="#236696"/>
<path d="M27.5506 19.0457C27.5388 19.0701 27.5267 19.1066 27.5267 19.131C27.3965 19.0092 27.2664 18.8753 27.1481 18.7292C27.2546 18.7049 27.3021 18.8023 27.3495 18.8631C27.4086 18.9362 27.4678 18.997 27.5506 19.0457Z" fill="#35729E"/>
<path d="M28.3554 20.6422C28.3079 20.5443 28.2602 20.4335 28.2364 20.3234C28.3078 20.3601 28.3198 20.4342 28.3436 20.4954C28.3554 20.5321 28.3673 20.5933 28.3554 20.6422Z" fill="#35729E"/>
</svg>
