<svg width="40" height="40" viewBox="0 0 40 40" fill="none" xmlns="http://www.w3.org/2000/svg">
<rect width="40" height="40" fill="white"/>
<path d="M34.1958 18.9548C33.0719 18.9548 32.1647 19.8367 32.1647 20.9493C32.1647 22.089 33.0719 22.9573 34.1958 22.9573C35.3332 22.9573 36.2403 22.0754 36.2403 20.9493C36.2539 19.8232 35.3332 18.9548 34.1958 18.9548ZM34.2229 21.9533C33.7219 21.9533 33.3157 21.5191 33.3157 20.9493C33.3157 20.393 33.7219 19.9588 34.2229 19.9588C34.7238 19.9588 35.1301 20.393 35.1301 20.9493C35.1301 21.5056 34.7238 21.9533 34.2229 21.9533Z" fill="#0AA640"/>
<path d="M12.0448 18.8869C10.9209 18.8869 10.0137 19.796 10.0137 20.9357C10.0137 22.1161 10.9209 23.0116 12.0448 23.0116C13.1822 23.0116 14.0894 22.1161 14.0894 20.9357C14.0894 19.796 13.1822 18.8869 12.0448 18.8869ZM12.0583 22.0211C11.5573 22.0211 11.1511 21.5463 11.1511 20.9493C11.1511 20.3658 11.5573 19.891 12.0583 19.891C12.5593 19.891 12.9655 20.3658 12.9655 20.9493C12.9655 21.5463 12.5593 22.0211 12.0583 22.0211Z" fill="#0AA640"/>
<path d="M8.88981 17.1378L6.53381 20.0006L4.16426 17.1378L4.15072 17.1243H3.75806V17.1378L3.7716 22.9585H3.78514V22.972H4.90898V19.6207L6.53381 21.5338L6.54735 21.5474L6.56089 21.5338L8.17218 19.6207V22.972H9.30956V17.1243H8.91689L8.88981 17.1378Z" fill="#0AA640"/>
<path d="M24.543 20.5558C24.9898 20.0131 25.2471 19.3754 25.2471 18.8192C25.2471 17.8151 24.5024 17.1367 23.3785 17.1367C22.1599 17.1367 21.4287 17.8558 21.4287 19.0634H22.5932C22.5796 18.5478 22.8775 18.2086 23.3785 18.2086C23.9743 18.2086 24.0555 18.6835 24.0555 18.9141C24.0555 19.2805 23.8524 19.6604 23.3514 20.2573L21.0767 22.9574L25.2471 23.0116V21.9533H23.365L24.543 20.5558Z" fill="#0AA640"/>
<path d="M29.174 19.796V20.7729H30.3791C30.3249 21.397 29.6073 21.9398 28.8896 21.9398C27.9147 21.9398 27.1836 21.1528 27.1836 20.0945C27.1836 18.9955 27.9418 18.1543 28.9303 18.1543C29.4312 18.1543 29.8645 18.3985 30.2166 18.8327L31.0967 18.1815C30.4738 17.4759 29.8239 17.1096 28.9303 17.1096C27.2377 17.1096 25.9785 18.385 25.9785 20.0674C25.9785 21.7498 27.2242 23.0116 28.8625 23.0116C30.5145 23.0116 31.7331 21.9126 31.5164 19.7689L29.174 19.796Z" fill="#0AA640"/>
<path d="M17.0684 18.887C16.5675 18.887 16.1748 19.0362 15.904 19.3483V17.1503H14.7937V22.9709H15.8904V22.5639C16.1612 22.8624 16.5539 23.0252 17.0549 23.0252C17.9756 23.0252 18.585 22.1976 18.585 20.9493C18.585 19.7011 17.9756 18.887 17.0684 18.887ZM16.6893 21.994C16.1883 21.994 15.904 21.6006 15.904 20.9493C15.904 20.2845 16.2019 19.9046 16.6893 19.9046C17.1768 19.9046 17.4611 20.2981 17.4611 20.9493C17.4611 21.6141 17.1768 21.994 16.6893 21.994Z" fill="#0AA640"/>
<path d="M20.3082 18.3946C20.5725 18.1298 20.5768 17.7047 20.3179 17.4452C20.0589 17.1856 19.6347 17.1898 19.3703 17.4546C19.106 17.7194 19.1017 18.1445 19.3606 18.4041C19.6196 18.6636 20.0438 18.6594 20.3082 18.3946Z" fill="#0AA640"/>
<path d="M19.3018 18.9548H20.3986V22.9573H19.3018V18.9548Z" fill="#0AA640"/>
</svg>
