<svg width="40" height="40" viewBox="0 0 40 40" fill="none" xmlns="http://www.w3.org/2000/svg">
<g clip-path="url(#clip0_678_1402)">
<rect width="40" height="40" fill="white"/>
<path d="M40 40C26.6727 40 13.3273 40 0 40C0 26.6727 0 13.3273 0 0C13.3273 0 26.6727 0 40 0C40 13.3273 40 26.6727 40 40ZM18.7636 27.4727C17.7273 28.4545 17.8 29.9818 18.6909 30.8727C19.5818 31.7636 21 31.7818 21.9273 30.9455C22.8727 30.0909 23.0182 28.5091 21.9455 27.4727C23.8 23.3455 25.6545 19.2364 27.4909 15.1091C27.8909 15.2182 28.2909 15.2182 28.6909 15.2C29.1273 16.6727 29.5455 18.1455 29.9818 19.6C28.6545 20.5091 28.4727 22.1636 29.1273 23.2909C29.7818 24.4 31.1091 24.9091 32.3273 24.5273C33.4909 24.1636 34.3455 23.0364 34.2364 21.6909C34.1273 20.2545 32.8727 19.0909 31.3818 19.1636C30.9636 17.7091 30.5273 16.2545 30.1091 14.8C31.1455 14.2182 31.8182 13.3636 32.0727 12.2182C32.3091 11.0727 32.0727 10 31.3455 9.07273C29.9818 7.34546 27.4545 7.12727 25.8182 8.6C25.0182 9.32727 24.5818 10.2545 24.5636 11.3455C24.5455 12.6727 25.1091 13.7091 26.1636 14.5091C24.3091 18.6364 22.4545 22.7636 20.6182 26.8727C20.4364 26.8727 20.2909 26.8727 20.1273 26.8727C18.2727 22.7455 16.4364 18.6364 14.5818 14.5091C15.5273 13.7818 16.0909 12.8545 16.1636 11.6545C16.2364 10.4545 15.8364 9.43636 14.9636 8.61818C13.3818 7.14545 10.9091 7.29091 9.49091 8.92727C8.8 9.72727 8.49091 10.6727 8.58182 11.7273C8.70909 13.0909 9.41818 14.0909 10.5818 14.7636C10.1455 16.2364 9.70909 17.6909 9.27273 19.1455C7.74545 19.1273 6.6 20.3273 6.47273 21.6727C6.38182 22.8727 7.09091 24.0727 8.29091 24.4909C9.49091 24.9091 10.8364 24.4545 11.5273 23.3636C11.8727 22.8182 12 22.2182 11.9273 21.6C11.8364 20.7273 11.3818 20.0727 10.6727 19.5818C11.1091 18.1091 11.5455 16.6545 11.9818 15.2C12.4 15.2182 12.8 15.2182 13.2 15.1091C15.0727 19.2182 16.9273 23.3455 18.7636 27.4727Z" fill="#0BBDD4"/>
<path d="M18.7636 27.4727C16.9091 23.3455 15.0544 19.2363 13.218 15.109C12.818 15.2181 12.418 15.2181 11.9998 15.2C11.5634 16.6727 11.1271 18.1272 10.6907 19.5818C11.418 20.0727 11.8544 20.7454 11.9453 21.6C12.018 22.2363 11.8907 22.8363 11.5453 23.3636C10.8544 24.4363 9.52708 24.909 8.3089 24.4909C7.09072 24.0545 6.38163 22.8727 6.49072 21.6727C6.59981 20.3272 7.76345 19.1454 9.29072 19.1454C9.72708 17.6909 10.1634 16.2363 10.5998 14.7636C9.41799 14.0909 8.72708 13.0727 8.59981 11.7272C8.49072 10.6727 8.81799 9.72723 9.5089 8.92723C10.9089 7.29086 13.3816 7.14541 14.9816 8.61814C15.8544 9.43632 16.2544 10.4545 16.1816 11.6545C16.1089 12.8363 15.5453 13.7818 14.5998 14.509C16.4544 18.6363 18.3089 22.7454 20.1453 26.8727C20.3089 26.8727 20.4544 26.8727 20.6362 26.8727C22.4907 22.7636 24.3271 18.6363 26.1816 14.509C25.1271 13.709 24.5634 12.6545 24.5816 11.3454C24.5998 10.2545 25.018 9.32723 25.8362 8.59995C27.4725 7.12723 29.9998 7.32723 31.3634 9.07268C32.0907 9.99996 32.3453 11.0545 32.0907 12.2181C31.8544 13.3636 31.1634 14.2181 30.1271 14.8C30.5453 16.2545 30.9816 17.709 31.3998 19.1636C32.8907 19.0909 34.1453 20.2545 34.2544 21.6909C34.3634 23.0363 33.5089 24.1636 32.3453 24.5272C31.1271 24.909 29.7998 24.4 29.1453 23.2909C28.4907 22.1636 28.6725 20.5272 29.9998 19.6C29.5634 18.1454 29.1453 16.6727 28.7089 15.2C28.3089 15.2181 27.9089 15.2181 27.5089 15.109C25.6544 19.2363 23.7998 23.3636 21.9634 27.4727C23.0544 28.509 22.8907 30.0909 21.9453 30.9454C21.018 31.7818 19.5998 31.7636 18.7089 30.8727C17.7998 29.9636 17.7455 28.4545 18.7636 27.4727ZM26.0362 11.4C26.0362 12.6 26.9998 13.7272 28.3634 13.7272C29.6544 13.7272 30.6725 12.6909 30.6907 11.4C30.6907 10.0363 29.5816 9.07268 28.3634 9.07268C27.0725 9.07268 26.018 10.109 26.0362 11.4ZM14.6907 11.4C14.6907 10.109 13.6544 9.07268 12.3634 9.07268C11.0544 9.07268 10.0362 10.1636 10.0362 11.4C10.0362 12.5636 10.9816 13.709 12.3634 13.709C13.7453 13.7272 14.7089 12.5818 14.6907 11.4ZM9.21799 23.1636C9.85436 23.1636 10.4725 22.6545 10.4907 21.8909C10.4907 21.2 9.9089 20.6181 9.19981 20.6363C8.5089 20.6363 7.94527 21.2181 7.94527 21.909C7.94527 22.6 8.52708 23.1636 9.21799 23.1636ZM30.2362 21.8909C30.2362 22.6 30.7998 23.1636 31.5089 23.1636C32.1998 23.1636 32.7635 22.6 32.7635 21.909C32.7635 21.2 32.1998 20.6363 31.4907 20.6363C30.7998 20.6181 30.2362 21.1818 30.2362 21.8909ZM20.3634 30.0727C20.8544 30.0727 21.2362 29.6909 21.2362 29.2C21.2362 28.7272 20.8362 28.3272 20.3634 28.3272C19.8907 28.3272 19.4907 28.7272 19.4907 29.2C19.4907 29.6727 19.8725 30.0727 20.3634 30.0727Z" fill="#FDFEFE"/>
<path d="M26.0362 11.4C26.0362 10.109 27.0725 9.07268 28.3634 9.07268C29.5816 9.07268 30.6907 10.0363 30.6907 11.4C30.6907 12.6909 29.6544 13.7272 28.3634 13.7272C26.9816 13.7272 26.018 12.6 26.0362 11.4Z" fill="#0BBDD4"/>
<path d="M14.6907 11.4C14.7089 12.5818 13.7452 13.7273 12.3634 13.7273C10.9816 13.7273 10.0361 12.5818 10.0361 11.4182C10.0361 10.1818 11.0543 9.09089 12.3634 9.09089C13.6361 9.07271 14.6907 10.109 14.6907 11.4Z" fill="#0BBDD4"/>
<path d="M9.2173 23.1627C8.50847 23.1627 7.94504 22.5992 7.94504 21.8904C7.94504 21.1997 8.50847 20.6181 9.19912 20.6181C9.88978 20.6181 10.4896 21.1816 10.4896 21.8722C10.4896 22.6538 9.85343 23.1627 9.2173 23.1627Z" fill="#0BBDD4"/>
<path d="M30.2362 21.8909C30.2362 21.182 30.8179 20.6181 31.5085 20.6181C32.1992 20.6181 32.7808 21.1997 32.7808 21.8904C32.7808 22.5811 32.2174 23.1445 31.5267 23.1445C30.7997 23.1627 30.2362 22.5997 30.2362 21.8909Z" fill="#0BBDD4"/>
<path d="M20.3634 30.0727C19.8909 30.0727 19.4907 29.6725 19.4907 29.2C19.4907 28.7272 19.8907 28.3272 20.3634 28.3272C20.8362 28.3272 21.2362 28.7272 21.2362 29.2C21.2362 29.6725 20.836 30.0727 20.3634 30.0727Z" fill="#0BBDD4"/>
</g>
<defs>
<clipPath id="clip0_678_1402">
<rect width="40" height="40" fill="white"/>
</clipPath>
</defs>
</svg>
