<svg width="40" height="40" viewBox="0 0 40 40" fill="none" xmlns="http://www.w3.org/2000/svg">
<rect width="40" height="40" fill="white"/>
<path d="M29.2542 15.2545C29.3814 15.2909 29.5087 15.2909 29.636 15.3273C30.9087 15.5454 31.7996 16.4182 32.036 17.6727C32.0724 17.8363 32.0905 18 32.0905 18.1636C32.0905 19.3636 32.0905 20.5818 32.0905 21.7818C32.0905 22.3091 31.6724 22.7454 31.1451 22.7273C30.6178 22.7273 30.1996 22.3091 30.1996 21.7818C30.1996 20.5636 30.1996 19.3454 30.1996 18.1454C30.1996 17.8182 30.1451 17.5273 29.9269 17.2727C29.6724 16.9636 29.3269 16.8545 28.9269 16.8545C28.4542 16.8545 28.0724 17 27.7996 17.4C27.6724 17.6 27.6178 17.8182 27.6178 18.0545C27.6178 19.2727 27.6178 20.4909 27.6178 21.7273C27.6178 22.0727 27.5087 22.3636 27.2178 22.5636C26.9087 22.7818 26.5814 22.8 26.236 22.6363C25.8905 22.4727 25.7269 22.1818 25.7269 21.8C25.7269 20.5636 25.7269 19.3273 25.7269 18.1091C25.7269 17.5273 25.436 17.1091 24.9269 16.9273C24.3451 16.7273 23.6905 16.8909 23.3633 17.3273C23.1996 17.5454 23.1269 17.8 23.1269 18.0727C23.1269 19.3091 23.1269 20.5454 23.1269 21.7818C23.1269 22.3091 22.7451 22.7273 22.236 22.7454C21.6905 22.7818 21.236 22.3454 21.236 21.8C21.236 20.6 21.236 19.4 21.236 18.2C21.236 16.8 22.1633 15.6545 23.5451 15.3636C23.7087 15.3273 23.8724 15.3273 24.036 15.2727C24.2905 15.2727 24.5451 15.2727 24.7996 15.2727C24.7996 15.2909 24.8178 15.2909 24.836 15.2909C25.4905 15.3454 26.0905 15.5636 26.6178 16C26.6724 16.0363 26.6905 16.0182 26.7269 16C27.1087 15.6727 27.5633 15.4727 28.036 15.3636C28.1996 15.3273 28.3451 15.3091 28.5087 15.2727C28.7633 15.2545 29.0178 15.2545 29.2542 15.2545Z" fill="#161616"/>
<path d="M11.1632 15.2545C11.3086 15.3091 11.4541 15.2909 11.5995 15.3091C12.8904 15.5272 13.6722 16.2727 14.0541 17.4909C14.1813 17.9091 14.2359 18.3454 14.2359 18.7818C14.2359 19.1818 13.945 19.4909 13.5268 19.4909C12.4722 19.4909 11.4177 19.4909 10.3632 19.4909C10.1086 19.4909 9.98134 19.3636 9.98134 19.1091C9.98134 18.9636 9.98134 18.8182 9.98134 18.6727C9.98134 18.4 10.1086 18.2727 10.3632 18.2727C10.9995 18.2727 11.6359 18.2727 12.2722 18.2727C12.2904 18.2727 12.3268 18.2727 12.345 18.2727C12.2541 17.8363 12.1268 17.4545 11.7813 17.1454C11.2904 16.7091 10.2177 16.6727 9.76316 17.5454C9.58134 17.9091 9.50861 18.2909 9.47225 18.6909C9.43588 19.1636 9.47225 19.6363 9.6177 20.0909C9.74498 20.5091 9.98134 20.8545 10.3995 21.0363C10.9632 21.2727 11.5813 21.1091 11.9632 20.6545C12.1086 20.4727 12.3086 20.3818 12.545 20.3818C12.8722 20.3818 13.2177 20.4 13.545 20.3818C13.8359 20.3636 14.0177 20.6363 13.8904 20.9091C13.5268 21.7454 12.9268 22.3454 12.0359 22.5818C11.0722 22.8363 10.1268 22.8182 9.23588 22.3454C8.49043 21.9636 8.05407 21.3273 7.83588 20.5454C7.52679 19.3818 7.52679 18.2 7.98134 17.0727C8.38134 16.0727 9.18134 15.5273 10.2359 15.3454C10.3995 15.3273 10.5632 15.3273 10.7086 15.2727C10.8722 15.2545 11.0177 15.2545 11.1632 15.2545Z" fill="#161616"/>
<path d="M35.9993 15.2545C36.1448 15.3091 36.3084 15.3091 36.4538 15.3272C37.5811 15.5818 38.3266 16.2363 38.672 17.3272C39.0357 18.4545 39.0357 19.5818 38.6538 20.7091C38.2357 21.9454 37.3084 22.5818 36.0357 22.6909C35.3993 22.7454 34.7629 22.6909 34.1811 22.4545C33.3266 22.0909 32.7993 21.4363 32.5448 20.5454C32.3266 19.8181 32.2902 19.0727 32.3629 18.3272C32.4175 17.8181 32.5266 17.3272 32.7448 16.8727C33.1811 16 33.8902 15.4909 34.8357 15.3091C34.9629 15.2909 35.0902 15.2909 35.1993 15.2363C35.4538 15.2545 35.7266 15.2545 35.9993 15.2545ZM34.1266 18.9818C34.1266 19.5454 34.2175 20 34.3811 20.3454C34.672 20.9272 35.2357 21.2181 35.872 21.1091C36.3629 21.0181 36.672 20.6909 36.8538 20.2545C37.0538 19.7818 37.0902 19.2909 37.0538 18.8C37.0357 18.3818 36.9811 17.9636 36.7811 17.5818C36.5266 17.1091 36.1447 16.8545 35.6175 16.8363C35.072 16.8363 34.6538 17.0727 34.4175 17.5636C34.1811 18.0181 34.1447 18.4909 34.1266 18.9818Z" fill="#161616"/>
<path d="M4.65421 15.2554C4.81785 15.2918 4.98149 15.31 5.12694 15.3463C6.32694 15.6372 7.10876 16.3645 7.38149 17.5827C7.43603 17.8009 7.45421 18.0372 7.45421 18.2554C7.45421 19.419 7.45421 20.5645 7.45421 21.7281C7.45421 22.2918 7.05421 22.7281 6.52694 22.7281C5.99967 22.7463 5.5633 22.31 5.5633 21.7827C5.5633 20.5645 5.5633 19.3281 5.5633 18.11C5.5633 17.6918 5.43603 17.3281 5.07239 17.0736C4.49058 16.6736 3.58149 16.8009 3.19967 17.3281C3.05421 17.5281 2.98149 17.7645 2.98149 18.019C2.98149 19.2736 2.98149 20.5281 2.98149 21.7827C2.98149 22.2736 2.65421 22.6372 2.1633 22.7281C1.72694 22.8009 1.27239 22.5281 1.12694 22.0918C1.10876 22.0554 1.12694 22.019 1.09058 22.0009C1.09058 20.619 1.09058 19.2372 1.09058 17.8554C1.14512 17.7827 1.12694 17.6918 1.14512 17.619C1.41785 16.4009 2.18149 15.6736 3.3633 15.3645C3.52694 15.3281 3.67239 15.3281 3.83603 15.2736C4.10876 15.2554 4.38149 15.2554 4.65421 15.2554Z" fill="#161616"/>
<path d="M16.345 18.2727C16.4905 18.2727 16.6359 18.2727 16.7814 18.2727C17.2905 18.2727 17.7996 18.2727 18.3268 18.2727C18.5814 18.2727 18.7087 18.4 18.7087 18.6545C18.7087 18.8182 18.7087 18.9636 18.7087 19.1272C18.7087 19.3636 18.5814 19.4909 18.345 19.4909C17.2723 19.4909 16.1996 19.4909 15.145 19.4909C14.7814 19.4909 14.4723 19.2182 14.4723 18.8545C14.4723 17.9272 14.6541 17.0545 15.2541 16.3272C15.6723 15.8 16.2359 15.4909 16.8723 15.3636C17.5996 15.2182 18.3268 15.2363 19.0359 15.4727C19.9268 15.7818 20.4905 16.4 20.7996 17.2545C21.0541 17.9818 21.0905 18.7454 21.0541 19.5091C21.0178 20.0363 20.9087 20.5636 20.6723 21.0363C20.2541 21.9091 19.5814 22.4363 18.6359 22.6363C17.8178 22.8 17.0178 22.7636 16.2541 22.4182C15.5632 22.1091 15.0905 21.5818 14.8178 20.8909C14.7087 20.6182 14.8723 20.3818 15.1632 20.3818C15.5087 20.3818 15.8359 20.3818 16.1814 20.3818C16.4178 20.3818 16.6178 20.4727 16.7632 20.6545C17.2359 21.2727 18.145 21.2545 18.6178 20.8727C18.9087 20.6363 19.0723 20.3091 19.1632 19.9454C19.3268 19.2 19.345 18.4727 19.0541 17.7454C18.745 16.9454 17.9087 16.6182 17.1632 17C16.7814 17.2 16.5996 17.5272 16.4723 17.9272C16.3814 18.0363 16.345 18.1454 16.345 18.2727Z" fill="#161616"/>
<path d="M19.9995 24.7454C15.854 24.7454 11.7268 24.7454 7.5813 24.7454C7.36312 24.7454 7.25403 24.6727 7.25403 24.5091C7.25403 24.3454 7.36312 24.2727 7.5813 24.2727C15.854 24.2727 24.1268 24.2727 32.3995 24.2727C32.4358 24.2727 32.4904 24.2727 32.5268 24.2727C32.654 24.2909 32.7449 24.3818 32.7449 24.5091C32.7449 24.6182 32.654 24.7273 32.5268 24.7273C32.4904 24.7273 32.4358 24.7273 32.3995 24.7273C28.254 24.7454 24.1268 24.7454 19.9995 24.7454Z" fill="#FE7800"/>
</svg>
