<svg width="40" height="40" viewBox="0 0 40 40" fill="none" xmlns="http://www.w3.org/2000/svg">
<rect width="40" height="40" fill="white"/>
<path d="M17.6603 26.5641C17.3484 26.5358 17.0365 26.5074 16.7246 26.4507V28.4922C16.7246 29.2011 17.2917 29.7682 18.0005 29.7682H21.9702C22.679 29.7682 23.2461 29.2011 23.2461 28.4922V26.7059C21.4598 26.876 19.4466 26.7342 17.6603 26.5641Z" fill="#FBC36F"/>
<path d="M21.9702 13.2091C22.3671 13.2091 22.7925 13.2658 23.2461 13.3792V11.5078C23.2461 10.7989 22.679 10.2318 21.9702 10.2318H18.0005C17.2917 10.2318 16.7246 10.7989 16.7246 11.5078V13.3508C18.3408 13.0673 20.3823 13.2091 21.9702 13.2091Z" fill="#FBC36F"/>
<path d="M13.2373 16.8952C13.2373 16.8384 13.2373 16.7817 13.2656 16.725H11.5077C10.7988 16.725 10.2317 17.2921 10.2317 18.001V21.9707C10.2317 22.6795 10.7988 23.2466 11.5077 23.2466H13.294C13.294 23.1899 13.294 23.1332 13.2656 23.0765C13.0388 20.0992 13.0955 18.4263 13.2373 16.8952Z" fill="#FBC36F"/>
<path d="M28.4922 16.725H26.7909C26.9327 18.2278 26.8476 20.8081 26.8476 21.8289C26.8476 22.3109 26.8193 22.7929 26.7342 23.2466H28.4922C29.2011 23.2466 29.7681 22.6795 29.7681 21.9707V18.001C29.7681 17.2921 29.2011 16.725 28.4922 16.725Z" fill="#FBC36F"/>
<path d="M15.4491 16.725C16.158 16.725 16.7251 16.158 16.7251 15.4491V13.3225C16.5833 13.3508 16.4415 13.3792 16.3281 13.3792C14.3149 13.8045 13.4927 14.7402 13.2658 16.6967H15.4491V16.725Z" fill="#F28B25"/>
<path d="M23.2467 15.4207C23.2467 16.1296 23.8138 16.6967 24.5227 16.6967H26.7627C26.7344 16.243 26.6493 15.8744 26.5642 15.6759C26.0255 14.4567 24.5794 13.6627 23.2184 13.3508V15.4207H23.2467Z" fill="#F28B25"/>
<path d="M24.5224 23.2466C23.8135 23.2466 23.2464 23.8137 23.2464 24.5226V26.7342C23.3031 26.7342 23.3599 26.7342 23.4449 26.7059C25.4581 26.5074 26.4223 25.033 26.7342 23.2466L24.5224 23.2466Z" fill="#F28B25"/>
<path d="M16.7248 24.5226C16.7248 23.8137 16.1577 23.2466 15.4488 23.2466L13.294 23.2466C13.5208 25.3449 14.9952 26.1388 16.7531 26.4507V24.5226H16.7248Z" fill="#F28B25"/>
<path d="M23.3029 20.7514C23.3029 21.8856 22.8776 23.0198 21.6583 23.1332C20.7793 23.2183 19.7585 23.1616 18.8512 23.0765C17.8021 22.9914 16.8096 22.6512 16.7246 21.3752C16.6112 19.9291 16.6395 19.1068 16.7246 18.3696C16.8096 17.3772 17.235 16.8668 18.2274 16.6683C19.0497 16.4982 20.1555 16.5833 20.9778 16.5833C21.7434 16.5833 22.8776 17.0086 23.2178 17.8025C23.3596 18.1711 23.3029 20.0993 23.3029 20.7514ZM26.7909 16.725L24.5505 16.725C23.8416 16.725 23.2745 16.158 23.2745 15.4491V13.3508C22.8208 13.2374 22.3955 13.1807 21.9986 13.1807C20.4107 13.1807 18.3692 13.0673 16.7529 13.3225V15.4207C16.7529 16.1296 16.1858 16.6967 15.477 16.6967H13.2937C13.2937 16.7534 13.2937 16.8101 13.2653 16.8668C13.1235 18.398 13.0668 20.0993 13.2937 23.0481C13.2937 23.1049 13.2937 23.1616 13.322 23.2183H15.477C16.1858 23.2183 16.7529 23.7854 16.7529 24.4942V26.4224C17.0648 26.4791 17.3767 26.5074 17.6886 26.5358C19.5033 26.7343 21.5165 26.8477 23.3029 26.7059V24.4942C23.3029 23.7854 23.87 23.2183 24.5788 23.2183H26.7621C26.8472 22.7646 26.8756 22.2826 26.8756 21.8005C26.8189 20.7798 26.9043 18.2278 26.7909 16.725Z" fill="#E9453E"/>
<path d="M23.1902 17.7742C22.85 16.9802 21.7158 16.5549 20.9502 16.5549C20.0996 16.5549 19.0221 16.4982 18.1998 16.64C17.2074 16.8385 16.7821 17.3488 16.697 18.3413C16.6403 19.0785 16.6119 19.9008 16.697 21.3469C16.7821 22.6228 17.7745 22.9347 18.8236 23.0481C19.731 23.1332 20.7517 23.2183 21.6307 23.1048C22.8783 23.0198 23.3029 21.8856 23.3029 20.7514C23.3029 20.0993 23.3604 18.1711 23.1902 17.7742Z" fill="#B4182A"/>
</svg>
