<svg width="40" height="40" viewBox="0 0 40 40" fill="none" xmlns="http://www.w3.org/2000/svg">
<rect width="40" height="40" fill="white"/>
<path d="M8.87274 15.6545C8.14546 15.3999 7.40001 15.3454 6.65455 15.4727C5.47274 15.6545 4.52728 16.1999 3.87274 17.1999C3.43637 17.8545 3.20001 18.5818 3.1091 19.3636C3.00001 20.309 3.09092 21.2181 3.47274 22.109C4.00001 23.3272 4.89092 24.1272 6.18183 24.4545C6.81819 24.6181 7.45455 24.6363 8.1091 24.5454C9.27274 24.3818 10.2182 23.8181 10.8727 22.8363C11.4364 21.9999 11.6727 21.0545 11.6546 19.9636C11.6727 19.4727 11.5818 18.909 11.4 18.3636C10.9818 17.0545 10.1636 16.1272 8.87274 15.6545ZM9.23637 21.9636C8.76364 22.709 8.07274 22.9999 7.21819 22.9636C6.60001 22.9454 6.05455 22.7272 5.65455 22.2363C5.3091 21.8181 5.12728 21.3272 5.03637 20.7999C4.9091 20.109 4.94546 19.4363 5.14546 18.7636C5.29092 18.2545 5.54546 17.7818 5.98183 17.4545C6.32728 17.1999 6.7091 17.0545 7.12728 17.0363C7.34546 17.0363 7.58183 17.0181 7.80001 17.0545C8.49092 17.1636 8.98183 17.5454 9.3091 18.1636C9.61819 18.7454 9.7091 19.3636 9.7091 20.0545C9.72728 20.7272 9.61819 21.3818 9.23637 21.9636Z" fill="#0D2F3F"/>
<path d="M24.6903 15.6545V18.7454C24.4721 18.5454 24.2721 18.3635 24.0539 18.2181C23.4721 17.8545 22.8358 17.7817 22.1812 17.9454C21.2176 18.1635 20.5994 18.7817 20.2539 19.6908C19.8903 20.6545 19.8903 21.6545 20.2176 22.6181C20.4176 23.2181 20.7449 23.7454 21.2903 24.109C21.9449 24.5635 22.6721 24.6363 23.4176 24.4908C23.9449 24.3999 24.2903 24.0726 24.6721 23.709C24.6903 23.6908 24.7449 23.6363 24.7994 23.5999V24.3999H26.4176C26.4721 23.9272 26.4176 15.8908 26.3994 15.6726C26.3994 15.6545 24.6903 15.6545 24.6903 15.6545ZM24.5267 22.4726C24.3085 22.9454 23.9449 23.1999 23.4358 23.2363C22.8721 23.2726 22.4358 23.0726 22.1085 22.5999C21.9085 22.309 21.8176 21.9635 21.7812 21.6181C21.7085 21.0363 21.763 20.4545 22.0358 19.909C22.3085 19.3999 22.763 19.1635 23.3812 19.1999C23.9085 19.2363 24.4539 19.6908 24.6176 20.1999C24.6721 20.3999 24.7085 20.6181 24.7449 20.8181C24.7812 21.109 24.7812 21.5635 24.7267 21.8363C24.6721 22.0545 24.6176 22.2726 24.5267 22.4726Z" fill="#0D2F3F"/>
<path d="M36.9266 21.6545C36.9812 21.1636 36.9266 20.7272 36.8357 20.2909C36.6175 19.4 36.163 18.6545 35.3266 18.2181C34.7448 17.909 34.1266 17.8363 33.4902 17.909C32.4357 18.0181 31.5993 18.5272 31.0721 19.4727C30.4357 20.6363 30.4539 21.8363 31.0539 23.0181C31.3812 23.6727 31.9084 24.109 32.5993 24.3636C33.4175 24.6545 34.2539 24.6545 35.0902 24.3818C36.0175 24.0727 36.5448 23.3818 36.8357 22.4727C36.3266 22.4727 35.8175 22.4727 35.3266 22.4727C35.1266 22.8727 34.7993 23.1272 34.363 23.2181C34.163 23.2545 33.9266 23.2545 33.7266 23.2545C32.8902 23.2181 32.3448 22.5454 32.4357 21.6727C33.8902 21.6545 35.3993 21.6545 36.9266 21.6545ZM32.3812 20.509C32.4357 19.6363 33.0902 19.2 33.7266 19.2C34.5812 19.2 35.0539 19.6 35.163 20.509C34.2357 20.509 33.3266 20.509 32.3812 20.509Z" fill="#0D2F3F"/>
<path d="M27.8002 15.7453C27.8002 18.5453 27.8002 21.3635 27.8002 24.1635C27.8002 24.2181 27.8002 24.2726 27.8002 24.3272V24.3635C27.8002 24.3635 27.8366 24.3635 27.8548 24.3635C28.4002 24.3635 28.9457 24.3635 29.5275 24.3635C29.5275 21.4363 29.5275 18.5272 29.5275 15.6363C28.9457 15.6363 28.3639 15.6363 27.8002 15.6363C27.8002 15.6908 27.8002 15.7272 27.8002 15.7453Z" fill="#0D2F3F"/>
<path d="M17.2177 15.6545V18.7454C16.9995 18.5454 16.7995 18.3635 16.5813 18.2181C15.9995 17.8545 15.3631 17.7817 14.7086 17.9454C13.7449 18.1635 13.1268 18.7817 12.7813 19.6908C12.4177 20.6545 12.4177 21.6545 12.7449 22.6181C12.9449 23.2181 13.2722 23.7454 13.8177 24.109C14.4722 24.5635 15.1995 24.6363 15.9449 24.4908C16.4722 24.3999 16.8177 24.0726 17.1995 23.709C17.2177 23.6908 17.2722 23.6363 17.3268 23.5999V24.3999H18.9449C18.9995 23.9272 18.9449 15.8908 18.9268 15.6726C18.9268 15.6545 17.2177 15.6545 17.2177 15.6545ZM17.0358 22.4726C16.8177 22.9454 16.454 23.1999 15.9449 23.2363C15.3813 23.2726 14.9449 23.0726 14.6177 22.5999C14.4177 22.309 14.3268 21.9635 14.2904 21.6181C14.2177 21.0363 14.2722 20.4545 14.5449 19.909C14.8177 19.3999 15.2722 19.1635 15.8904 19.1999C16.4177 19.2363 16.9631 19.6908 17.1268 20.1999C17.1813 20.3999 17.2177 20.6181 17.254 20.8181C17.2904 21.109 17.2904 21.5635 17.2358 21.8363C17.1995 22.0545 17.1449 22.2726 17.0358 22.4726Z" fill="#0D2F3F"/>
</svg>
