<svg width="40" height="40" viewBox="0 0 40 40" fill="none" xmlns="http://www.w3.org/2000/svg">
<rect width="40" height="40" fill="#0172BB"/>
<path d="M20.0104 28.2138C14.6815 28.2138 10.0651 24.506 8.98074 19.3366C8.09775 15.1518 9.78627 10.7977 13.2873 8.21302C15.0532 6.90527 17.0516 6.18217 19.2513 6.02831C24.6577 5.64368 29.7078 9.21306 30.9781 14.5825C32.2174 19.8135 29.5219 24.9829 24.7197 27.183C23.2171 27.8754 21.6525 28.2138 20.0104 28.2138ZM17.2065 20.1212C17.3304 22.3828 17.4544 24.6445 17.5628 26.9061C19.3753 27.4446 21.9623 27.26 23.279 26.6599C23.3875 24.6598 23.4959 22.6598 23.5888 20.6443C22.7988 20.4443 22.1792 20.0289 21.6989 19.4289C21.5595 19.2596 21.4821 19.075 21.4666 18.8596C21.4511 18.3057 21.3891 17.7519 21.4356 17.2134C21.5595 15.5518 21.7299 13.9056 21.8848 12.244C21.9158 11.9055 21.9778 11.567 22.0242 11.2439C22.2411 11.2439 22.4425 11.2439 22.6594 11.2439C22.6594 11.7055 22.6594 12.167 22.6594 12.6132C22.6594 13.0594 22.6594 13.5209 22.6594 13.9671C22.6594 14.4133 22.6594 14.8748 22.6594 15.321C22.6594 15.7672 22.6594 16.2287 22.6594 16.6749C22.6594 17.1211 22.6439 17.5672 22.6749 18.0134C22.8917 18.0134 23.0776 18.0134 23.279 18.0134C23.279 17.6749 23.279 17.3519 23.279 17.0441C23.279 16.7211 23.279 16.3826 23.279 16.0595C23.279 15.7364 23.279 15.4133 23.279 15.1056C23.279 14.7825 23.279 14.4594 23.279 14.1517C23.279 13.8286 23.279 13.5055 23.279 13.1978C23.279 12.8747 23.279 12.5363 23.279 12.2132C23.279 11.9055 23.279 11.5824 23.2945 11.2747C23.5424 11.2747 23.7438 11.2747 23.9916 11.2747C23.9916 11.6593 23.9916 12.0439 23.9916 12.4132C23.9916 12.7824 23.9916 13.1671 23.9916 13.5363C23.9916 13.9056 23.9916 14.2902 23.9916 14.6594C23.9916 15.0441 23.9916 15.4287 23.9916 15.8133C23.9916 16.1826 23.9916 16.5672 23.9916 16.9365C23.9916 17.3057 23.9761 17.6749 24.0071 18.0442C24.224 18.0442 24.4099 18.0442 24.6113 18.0442C24.6113 17.6596 24.6113 17.2749 24.6113 16.9057C24.6113 16.5364 24.6113 16.1518 24.6113 15.7826C24.6113 15.4133 24.6113 15.0287 24.6113 14.6594C24.6113 14.2748 24.6113 13.8902 24.6113 13.5055C24.6113 13.1363 24.6113 12.7517 24.6113 12.3824C24.6113 12.0132 24.6113 11.6439 24.6113 11.2747C24.8746 11.2747 25.0915 11.2747 25.3238 11.2747C25.3238 13.5363 25.3238 15.7826 25.3238 18.0442C25.5407 18.0442 25.7266 18.0442 25.959 18.0442C25.959 17.7057 25.959 17.3826 25.959 17.0749C25.959 16.7518 25.959 16.4134 25.959 16.0903C25.959 15.7672 25.959 15.4441 25.959 15.1364C25.959 14.8287 25.959 14.4902 25.959 14.1825C25.959 13.8594 25.959 13.5363 25.959 13.2286C25.959 12.9055 25.959 12.567 25.959 12.244C25.959 11.9362 25.928 11.6132 25.99 11.3055C26.1604 11.3055 26.2998 11.3055 26.4392 11.3055C26.4857 11.6439 26.5476 11.967 26.5786 12.3055C26.7335 13.9517 26.8884 15.5979 27.0279 17.2442C27.0743 17.798 27.0124 18.3673 26.9969 18.9212C26.9969 19.1519 26.9039 19.3519 26.7645 19.5212C26.3463 20.0597 25.8196 20.4443 25.1534 20.6443C25.0605 20.6751 24.9676 20.7058 24.8746 20.752C24.9676 22.4751 25.0605 24.1829 25.1534 25.906C28.4376 24.1521 31.102 19.8904 30.0331 15.0287C28.9952 10.2439 24.6732 6.76681 19.5457 6.99758C14.3097 7.22836 10.2045 11.2439 9.78627 16.2749C9.36802 21.2751 12.6366 24.9368 15.6109 26.183C15.7194 24.1521 15.8123 22.1059 15.9208 20.1058C15.8743 20.0597 15.8588 20.075 15.8433 20.075C15.7658 20.0443 15.7039 20.0135 15.6264 19.9981C14.7124 19.7366 14.0773 19.1519 13.659 18.3365C13.0239 17.1211 12.8225 15.8287 13.1169 14.4902C13.3957 13.2748 14.0463 12.3055 15.1152 11.6439C16.0757 11.0439 17.0671 11.0439 18.0275 11.6285C18.926 12.1824 19.5302 12.9824 19.8865 13.9671C20.2273 14.8748 20.2273 15.7979 20.0569 16.7364C19.9175 17.5057 19.6541 18.2288 19.1739 18.8442C18.7866 19.3519 18.3219 19.7366 17.7022 19.9366C17.5318 19.9981 17.3769 20.0597 17.2065 20.1212ZM14.4026 14.0286C14.3097 14.121 14.2787 14.1671 14.2322 14.244C13.5971 15.3518 13.4267 16.4749 13.9689 17.6749C14.2322 18.275 14.6195 18.7673 15.1772 19.1212C15.2546 19.1673 15.3476 19.2289 15.4405 19.2596C15.5025 19.275 15.5645 19.2442 15.6729 19.2289C14.4181 17.6903 14.0153 16.0287 14.573 14.1671C14.5111 14.1056 14.4801 14.0748 14.4026 14.0286Z" fill="#FAFAFA"/>
<path fill-rule="evenodd" clip-rule="evenodd" d="M14.2937 32.9372H13.4107V30.3986C13.5403 30.3986 13.6687 30.396 13.7958 30.3935C14.109 30.3872 14.4144 30.3811 14.7119 30.414C15.2231 30.4755 15.5175 30.7678 15.5949 31.2602C15.6259 31.5217 15.6259 31.814 15.5794 32.0756C15.502 32.5525 15.1922 32.7987 14.7274 32.891C14.588 32.9218 14.4331 32.9372 14.2937 32.9372ZM14.1393 32.291V31.0294C14.604 30.9217 14.8519 31.0909 14.8829 31.5525V31.6909C14.8829 32.1833 14.697 32.3371 14.1393 32.291Z" fill="#FAFAFA"/>
<path fill-rule="evenodd" clip-rule="evenodd" d="M12.1714 32.9064L11.7531 32.0756L11.4898 32.091V32.9218H10.7772V30.3832C10.9542 30.3887 11.1313 30.3844 11.3083 30.3801C11.627 30.3723 11.9457 30.3645 12.2643 30.414C12.5587 30.4601 12.8065 30.614 12.884 30.9371C12.9769 31.2755 12.9305 31.5986 12.6516 31.8448C12.6197 31.8765 12.5878 31.9009 12.5459 31.933C12.5268 31.9477 12.5055 31.964 12.4812 31.9833L12.9614 32.9064H12.1714ZM11.4901 30.9832V31.5063H11.8619C11.9684 31.5063 12.0658 31.4973 12.1335 31.4245C12.1647 31.4025 12.193 31.3759 12.2028 31.337C12.2648 31.1678 12.1254 30.9832 11.9395 30.9832H11.5212V30.999L11.4901 30.9832Z" fill="#FAFAFA"/>
<path fill-rule="evenodd" clip-rule="evenodd" d="M18.5073 32.9064V30.3832C18.6201 30.3832 18.7328 30.3822 18.8452 30.3813C19.1801 30.3784 19.5108 30.3755 19.824 30.3986C20.2423 30.414 20.5211 30.6294 20.5831 30.9371C20.6605 31.3063 20.6295 31.6602 20.2732 31.9063C20.2676 31.912 20.2598 31.9176 20.25 31.9247C20.233 31.9371 20.2098 31.954 20.1803 31.9833C20.2597 32.1331 20.3391 32.2869 20.4205 32.4448C20.498 32.595 20.5774 32.7489 20.6605 32.9064H19.8705L19.4677 32.091H19.2044V32.9064H18.5073ZM19.2201 30.9832H19.6384C19.8243 30.9832 19.9637 31.1678 19.9017 31.3371C19.8884 31.39 19.8407 31.4201 19.7981 31.4471L19.79 31.4523L19.7778 31.4601C19.6849 31.5012 19.6195 31.5012 19.4852 31.5012C19.4181 31.5012 19.3337 31.5012 19.2201 31.5063V30.9832Z" fill="#FAFAFA"/>
<path fill-rule="evenodd" clip-rule="evenodd" d="M10.3744 31.4909V31.5833C10.3589 31.7679 10.3589 31.8448 10.3589 31.9371C10.266 32.691 9.59987 33.1372 8.8563 32.9372C8.46902 32.8295 8.17469 32.5064 8.06625 32.1217C7.97331 31.7833 7.97331 31.4448 8.09724 31.1063C8.26764 30.614 8.6859 30.337 9.21259 30.337C9.75478 30.3524 10.173 30.6448 10.3125 31.1678C10.3434 31.3063 10.3589 31.3986 10.3744 31.4909ZM8.7645 31.8909C8.77999 32.1371 8.90392 32.3217 9.18276 32.3525C9.43062 32.3371 9.57004 32.1678 9.60102 31.9678C9.61651 31.7524 9.61651 31.5371 9.57004 31.3217C9.52356 31.0755 9.36865 30.9678 9.15178 30.9832C8.96588 30.9832 8.81097 31.1063 8.77999 31.337C8.74901 31.5217 8.74901 31.7063 8.7645 31.8909Z" fill="#FAFAFA"/>
<path d="M17.996 30.3986V30.9832H16.7723V31.3217H17.5003V31.9063H16.7723V32.3371H18.027V32.891C17.4384 32.8987 17.3067 32.8987 17.1421 32.8987C16.9775 32.8987 16.78 32.8987 16.0597 32.9064V30.3986H17.996Z" fill="#FAFAFA"/>
<path d="M26.6711 32.6141C27.0119 32.8295 27.585 32.8141 27.9723 32.5833H27.9878V31.7679H27.4301C27.3991 31.7679 27.3837 31.7371 27.3837 31.7217V31.5833C27.3837 31.5525 27.4146 31.5371 27.4301 31.5371H28.2357V32.7679C27.709 33.0141 27.1823 33.091 26.6246 32.8295C26.0824 32.5679 25.8036 31.9833 25.974 31.2448C26.1134 30.6294 26.6711 30.2447 27.3372 30.2755C27.6315 30.2909 27.9258 30.3678 28.1582 30.5986C28.1737 30.614 28.1737 30.6448 28.1582 30.6601L28.0653 30.7832C28.0498 30.814 28.0188 30.814 28.0033 30.7986C27.985 30.786 27.9673 30.7737 27.9501 30.7616C27.7777 30.6413 27.6484 30.551 27.3527 30.5371C26.733 30.5063 26.2063 30.9832 26.1754 31.5986C26.1599 32.014 26.2993 32.3679 26.6711 32.6141Z" fill="#FAFAFA"/>
<path fill-rule="evenodd" clip-rule="evenodd" d="M24.208 30.2909C24.998 30.2909 25.5402 30.8601 25.5402 31.6602C25.5402 32.4602 24.9825 33.0141 24.177 32.9987C23.387 32.9833 22.8448 32.4294 22.8603 31.614C22.8757 30.8448 23.4334 30.2909 24.208 30.2909ZM23.1241 31.6448C23.1241 30.9832 23.5578 30.5217 24.193 30.5217C24.8436 30.5217 25.2928 30.9986 25.2928 31.6602C25.2773 32.3217 24.8281 32.7833 24.193 32.7679C23.5578 32.7679 23.1241 32.3064 23.1241 31.6448Z" fill="#FAFAFA"/>
<path d="M30.4664 30.3986C30.9931 30.1678 31.5663 30.2755 31.9535 30.6909L31.7986 30.8294C31.0241 30.3063 30.4044 30.3986 30.0326 31.2602C29.8312 31.7371 30.0326 32.3064 30.4354 32.5833C30.8692 32.891 31.3184 32.8295 31.8451 32.3987C31.8683 32.4141 31.8954 32.4333 31.9225 32.4525C31.9497 32.4718 31.9768 32.491 32 32.5064C31.7367 32.9218 31.2409 33.091 30.6833 32.9525C30.1566 32.8295 29.7693 32.3679 29.7228 31.814C29.6608 31.1679 29.9397 30.6294 30.4664 30.3986Z" fill="#FAFAFA"/>
<path d="M21.2027 32.9218V30.414C21.2027 30.3832 21.2182 30.3678 21.2492 30.3678H21.4196C21.4351 30.3678 21.4506 30.3986 21.4506 30.414V32.691H22.5969C22.6279 32.691 22.6434 32.7218 22.6434 32.7371V32.8756C22.6434 32.9064 22.6124 32.9218 22.5969 32.9218H21.2027Z" fill="#FAFAFA"/>
<path d="M29.1651 30.3524V32.9218H28.9483V30.3524H29.1651Z" fill="#FAFAFA"/>
</svg>
