<svg width="40" height="40" viewBox="0 0 40 40" fill="none" xmlns="http://www.w3.org/2000/svg">
<rect width="40" height="40" fill="white"/>
<path fill-rule="evenodd" clip-rule="evenodd" d="M32.509 11.6363C28.1272 4.74541 26.1272 5.4545 22.5453 8.12723C21.5272 8.89086 20.6908 9.2545 19.9999 9.38177C19.309 9.23632 18.4544 8.87268 17.4544 8.12723C13.8544 5.4545 11.8726 4.74541 7.4908 11.6363C3.10898 18.5272 0.708984 20.6363 0.708984 20.6363C0.708984 20.6363 2.45444 23.2 4.2908 26.6C5.83626 29.4545 7.50899 33.0727 16.9635 33.709V33.7272C17.9454 33.7818 18.8544 33.8 19.7272 33.8C19.8181 33.8 19.909 33.8 19.9999 33.8C20.0908 33.8 20.1817 33.8 20.2726 33.8C21.1453 33.8 22.0544 33.7818 23.0363 33.7272V33.709C32.4908 33.0727 34.1635 29.4727 35.709 26.6C37.5453 23.2181 39.2908 20.6363 39.2908 20.6363C39.2908 20.6363 36.8908 18.5272 32.509 11.6363Z" fill="#7B29E7"/>
<path fill-rule="evenodd" clip-rule="evenodd" d="M25.5092 8.50894C25.1821 8.96332 25.4547 9.72668 26.109 10.2174C26.7815 10.7081 27.5994 10.7445 27.9265 10.2901C28.2537 9.83573 27.9811 9.07237 27.3267 8.58164C26.6543 8.09091 25.8364 8.05456 25.5092 8.50894Z" fill="#B07FF1"/>
<path fill-rule="evenodd" clip-rule="evenodd" d="M29.0281 10.2384C28.919 10.4929 29.1371 10.8019 29.5188 10.9654C29.8823 11.129 30.2822 11.0381 30.373 10.8019C30.4821 10.5474 30.264 10.2384 29.8823 10.0749C29.5188 9.92946 29.1371 10.0022 29.0281 10.2384Z" fill="#B07FF1"/>
<path fill-rule="evenodd" clip-rule="evenodd" d="M27.9816 17.3454C24.3452 14.8727 21.5816 16.7636 21.5816 16.7636C21.5816 16.7636 19.5452 17.9272 16.7816 16.5454C13.327 14.8181 10.9634 18.4363 6.38158 20.1818C3.12704 21.4181 1.49068 21.0727 0.817948 20.7818C0.908857 20.909 1.05431 21.1454 1.25431 21.4363C4.43613 23.6363 10.527 25.1454 20.0543 25.2727C29.8179 25.4 36.8543 22.7272 38.9634 21.1272C39.1634 20.8181 39.2908 20.6363 39.2908 20.6363C39.2908 20.6363 39.2361 20.5818 39.127 20.4909C36.5816 21.4727 31.7634 19.9272 27.9816 17.3454Z" fill="#3A128C"/>
<path fill-rule="evenodd" clip-rule="evenodd" d="M20.0545 20.0363C23.7272 20.0363 26.9817 19.5636 28.9817 18.8545C28.6363 18.6545 28.309 18.4363 27.9817 18.2181C24.3454 15.7454 21.5817 17.6363 21.5817 17.6363C21.5817 17.6363 19.5454 18.7999 16.7817 17.4181C14.5999 16.3272 12.8726 17.3636 10.7454 18.709C12.6726 19.509 16.1272 20.0363 20.0545 20.0363Z" fill="white"/>
<path fill-rule="evenodd" clip-rule="evenodd" d="M31.0169 23.6182C31.0169 23.6182 29.7078 20.8909 24.5442 19.9273C19.3624 18.9636 18.126 17.0909 16.5805 14.7091C15.0351 12.3273 13.9624 8.45455 9.36237 8.9091C4.76237 9.36364 4.926 17.2 7.83509 23.1091C10.1078 24.5273 22.3805 25.5455 31.0169 23.6182Z" fill="#59CC8F"/>
<path fill-rule="evenodd" clip-rule="evenodd" d="M29.327 21.8363C27.3633 21.6909 24.9451 21.8545 22.3088 22.3636C14.9633 23.7454 12.8542 20.5454 11.836 19.1636C13.5815 21.5636 11.1815 23.5999 8.70877 21.4909C6.69059 19.7636 6.1815 14.1818 6.05422 12.1818C5.29059 15.109 6.03509 19.4727 7.83509 23.1091C10.1078 24.5273 22.3805 25.5455 31.0169 23.6182C31.0169 23.6182 30.5997 22.7636 29.327 21.8363Z" fill="#519C8E"/>
<path fill-rule="evenodd" clip-rule="evenodd" d="M10.4545 9.67264C10.1274 10.127 10.4 10.8904 11.0543 11.3811C11.7268 11.8718 12.5447 11.9082 12.8718 11.4538C13.199 10.9994 12.9264 10.2361 12.2721 9.74534C11.5996 9.25461 10.7817 9.21826 10.4545 9.67264Z" fill="#9BE0BC"/>
</svg>
