<svg width="40" height="40" viewBox="0 0 40 40" fill="none" xmlns="http://www.w3.org/2000/svg">
<rect width="40" height="40" fill="white"/>
<path d="M25.6754 12.3737L25.6579 12.3655L25.6019 12.309C25.6019 12.309 25.5343 12.2822 25.5231 12.2779C25.5562 12.217 25.5805 12.1552 25.5805 12.0954C25.5805 12.0258 25.5562 11.9601 25.509 11.909C25.4875 11.8856 25.454 11.8875 25.4262 11.8739C25.4481 11.8656 25.4759 11.8554 25.4759 11.8554C25.5065 11.8369 25.5343 11.8145 25.5343 11.8145L25.5523 11.8009L25.6019 11.7357L25.6428 11.6296L25.6316 11.5425L25.6136 11.4734L25.5883 11.4354L25.5119 11.3527C25.4841 11.3337 25.4418 11.3113 25.4418 11.3113L25.4106 11.2952L25.3459 11.2845L25.2831 11.2802L25.179 11.3084C25.179 11.3084 25.1206 11.3551 25.1191 11.3556C25.1181 11.3561 25.0622 11.3585 25.0622 11.3585C25.0636 11.3585 24.9405 11.3721 24.9405 11.3721C24.9342 11.3731 24.7473 11.4408 24.7473 11.4408L24.7054 11.4578C24.7059 11.4578 24.5628 11.4967 24.5628 11.4967H24.409C24.3803 11.3936 24.3482 11.2821 24.3482 11.2821C24.01 10.4917 23.1038 10.2542 21.0066 10.4085C19.4746 10.5214 18.3927 11.0242 17.7911 11.9031C17.4271 12.4375 17.9109 13.3412 17.9688 13.4425L17.9775 13.4571L18.0019 13.5028C17.9732 13.5466 17.7361 13.6367 17.5614 13.7014C17.0387 13.8966 16.2508 14.191 15.8196 15.0072C15.2404 16.0969 15.4147 17.1423 16.3072 17.9497C17.341 18.888 19.0098 19.0505 19.9126 19.0642C20.7108 19.0754 21.7026 19.0885 23.0366 18.193C24.1204 17.4635 24.6636 16.3937 24.6636 15.6121C24.6636 15.4539 24.6427 15.3079 24.5974 15.179C24.5974 15.179 24.5872 15.1571 24.5794 15.142C24.6295 15.0665 24.6908 14.9721 24.6908 14.9721C24.7054 14.939 24.7371 14.8704 24.7371 14.8704C24.7371 14.8636 24.7692 14.6855 24.7692 14.6855C24.7687 14.6733 24.6733 14.375 24.6733 14.375C24.668 14.3667 24.6441 14.3321 24.6441 14.3321C24.5385 14.1968 24.3983 14.1107 24.2402 14.0547C24.2455 14.0542 24.2674 14.0479 24.2674 14.0479L24.4037 13.989C24.4217 13.9793 24.5808 13.8722 24.5808 13.8722C24.5959 13.86 25.0179 13.5291 25.0179 13.5291C25.0223 13.5262 25.1838 13.3164 25.1838 13.3164C25.1902 13.3067 25.233 13.242 25.233 13.242L25.3167 13.1675L25.561 12.9295C25.5615 12.9281 25.6861 12.7524 25.6861 12.7524C25.6934 12.7378 25.7236 12.527 25.7236 12.527C25.7226 12.5134 25.6871 12.4093 25.6871 12.4093L25.6754 12.3737ZM18.583 12.4355C18.6209 12.1085 18.8093 11.7985 19.0964 11.6038C19.257 11.4943 19.4254 11.4082 19.5972 11.3244C19.7272 11.2592 19.8644 11.2476 19.9895 11.1911C20.0922 11.1439 20.1681 11.1366 20.2732 11.1259C20.8037 11.0758 21.3468 11.1994 21.8627 11.3371C22.0871 11.3974 22.3051 11.4062 22.5188 11.4816C22.5543 11.4953 22.5796 11.5162 22.6151 11.5308C22.7563 11.5863 22.8984 11.5853 23.0395 11.6515C23.1563 11.706 23.2945 11.7357 23.4245 11.7479C23.7934 11.7795 24.1871 11.7547 24.5599 11.7615C24.6972 11.7644 24.8169 11.6968 24.9371 11.6471C25.031 11.6096 25.1415 11.6296 25.2442 11.6111C25.2666 11.6067 25.2778 11.5819 25.3011 11.5527C25.3216 11.5284 25.4092 11.5994 25.3342 11.6291C25.2393 11.6641 25.1649 11.6734 25.0739 11.7216C24.8422 11.8437 24.4864 11.9703 24.2426 12.091C24.1506 12.1362 24.0504 12.1143 23.9394 12.1435C23.6922 12.2088 23.4313 12.2603 23.1729 12.2272C22.9981 12.2049 22.84 12.1932 22.6847 12.1328C22.4589 12.0462 22.2545 11.9785 22.0287 11.9075C21.8272 11.8418 21.6583 11.7235 21.4578 11.6656C21.4286 11.6573 21.2578 11.5994 21.2188 11.5936C20.9361 11.5473 20.6382 11.5055 20.3438 11.4855C20.1243 11.4719 19.5033 11.7031 19.3573 11.7688C19.3208 11.7848 19.2707 11.7897 19.241 11.8063C19.1733 11.8394 19.1305 11.89 19.0575 11.9333C19.0215 11.9557 18.8229 12.1401 18.8059 12.1557C18.7548 12.2019 18.6784 12.273 18.6691 12.3411C18.6608 12.3908 18.6779 12.4214 18.6774 12.4686C18.6754 12.5032 18.6273 12.5309 18.5985 12.5134C18.5718 12.4969 18.5878 12.4613 18.583 12.4355ZM25.2822 12.1547C25.1673 12.199 25.1099 12.3178 24.9906 12.3499C24.9541 12.3606 24.941 12.3606 24.9103 12.381C24.7283 12.4998 24.5414 12.6239 24.3794 12.7791C24.2188 12.9339 23.8751 12.967 23.6678 13.0468C23.5389 13.096 23.4172 13.1023 23.2673 13.132C22.7957 13.2279 22.29 13.1033 21.9017 12.8341C21.5396 12.583 21.1356 12.362 20.6971 12.2998C20.5224 12.272 20.3229 12.2691 20.1496 12.344C20.0167 12.402 19.9359 12.5168 19.88 12.6497C19.8746 12.6589 19.8206 12.6633 19.8128 12.6618C19.7783 12.6521 19.7768 12.6278 19.7826 12.6005C19.8099 12.4881 19.8814 12.3879 19.969 12.3095C20.1642 12.1382 20.6718 11.9571 20.9697 12.0087C21.0831 12.0277 21.1882 12.0413 21.2923 12.0501C21.378 12.0584 21.5722 12.1494 21.6656 12.18C21.7936 12.2204 21.9065 12.3119 22.0355 12.3742C22.1791 12.4438 22.3192 12.4788 22.4842 12.5236C22.7743 12.6005 23.1524 12.6278 23.4561 12.5986C23.5598 12.5888 23.6362 12.5309 23.7399 12.5329C23.8143 12.5343 23.8878 12.5397 23.9633 12.5261C24.1521 12.493 24.3599 12.4793 24.5332 12.4122C24.7376 12.3324 24.9493 12.2224 25.1615 12.1581C25.2062 12.1445 25.2588 12.1265 25.286 12.089C25.3011 12.0793 25.3148 12.0934 25.307 12.1017C25.2724 12.107 25.3148 12.1421 25.2822 12.1547ZM19.2152 14.3472C19.2648 14.3949 19.2317 14.4689 19.1801 14.464C19.0877 14.4543 18.984 14.4124 18.9528 14.3317C18.9285 14.2718 19.0356 14.3024 19.0288 14.2577C19.0224 14.2144 18.9504 14.1983 18.928 14.1598C18.9217 14.1165 18.8492 14.0542 18.9066 14.0163C18.9791 13.971 19.0424 14.0791 19.1091 14.1044C19.2103 14.1409 19.3237 14.1054 19.3802 14.1818C19.3899 14.1944 19.3772 14.1983 19.3855 14.2134C19.4016 14.2455 19.4639 14.2299 19.4955 14.2645C19.5081 14.2757 19.5052 14.2801 19.4999 14.2952C19.4824 14.3643 19.4108 14.3701 19.3402 14.3798C19.2862 14.3867 19.2707 14.3331 19.2264 14.3127C19.2123 14.3059 19.202 14.336 19.2152 14.3472ZM19.056 12.9076C19.0833 12.8555 19.1139 12.8867 19.1577 12.8935L19.1728 12.876C19.2449 12.8993 19.3271 12.8721 19.3982 12.8804C19.4892 12.9164 19.5957 12.9354 19.661 13.023C19.6843 13.0677 19.6751 13.1174 19.6839 13.1807C19.6391 13.2337 19.5773 13.2736 19.5081 13.2833C19.4605 13.205 19.3217 13.1948 19.3402 13.0799C19.2439 13.0405 19.1251 13.0259 19.0604 12.9383C19.0585 12.9222 19.0585 12.9232 19.056 12.9076ZM19.1787 13.9817C19.1543 13.9365 19.1305 13.8912 19.1767 13.8542C19.2327 13.8785 19.2833 13.8722 19.3349 13.8664C19.3899 13.8912 19.441 13.8849 19.4955 13.9102C19.5325 13.8094 19.4999 13.7009 19.5773 13.6269C19.5826 13.6085 19.5753 13.588 19.5841 13.5627C19.6658 13.461 19.6843 13.3267 19.7778 13.2327C19.8644 13.1072 19.9525 12.9845 20.0922 12.9037C20.0966 12.9037 20.1584 12.8804 20.209 12.874C20.2377 12.9514 20.1934 13.004 20.1306 13.0439C19.9442 13.3087 19.7933 13.5831 19.6829 13.8859C19.6386 13.9394 19.5958 13.9934 19.551 14.0469C19.4201 14.0961 19.3003 13.9988 19.1787 13.9817ZM20.1194 13.2055C20.2572 13.204 20.4095 13.1855 20.554 13.2318C20.6485 13.2838 20.6962 13.3734 20.6592 13.4756C20.5355 13.5393 20.3783 13.4449 20.3783 13.4449C20.3754 13.425 20.371 13.405 20.3686 13.3831C20.2912 13.3281 20.1919 13.3578 20.1155 13.3023C20.0946 13.2726 20.1243 13.2371 20.1194 13.2055ZM22.9363 17.134C22.8195 17.2352 22.7212 17.3549 22.5869 17.4503C22.5358 17.4868 22.491 17.5666 22.4351 17.5978C22.4034 17.6163 22.381 17.6328 22.3582 17.6552C22.2492 17.7559 21.9922 17.8898 21.8491 17.9604C21.6238 18.0718 20.9361 18.2753 20.6718 18.301C20.4577 18.321 20.2572 18.4086 20.0347 18.4285C19.8269 18.4475 19.6225 18.4621 19.4147 18.4427C19.2536 18.4286 19.0804 18.4173 18.9066 18.3945C18.8307 18.3847 18.7596 18.3594 18.6735 18.3429C18.4496 18.3001 18.2525 18.2168 18.0423 18.1497C17.6719 18.0334 17.3551 17.8212 17.0757 17.5666C16.9536 17.4537 16.8265 17.3471 16.7302 17.2094C16.6494 17.095 16.554 16.9665 16.4863 16.839C16.4756 16.8181 16.5034 16.8035 16.4961 16.7894C16.4289 16.6526 16.3549 16.5027 16.3442 16.3431C16.3423 16.2852 16.3248 16.2312 16.3379 16.183C16.3588 16.1149 16.3442 16.036 16.3603 15.9723C16.3768 15.9036 16.3768 15.852 16.4021 15.7907C16.4552 15.6632 16.5199 15.5649 16.5579 15.434C16.6397 15.1517 16.7871 14.9167 17.0056 14.7195C17.0777 14.6558 17.1804 14.6183 17.2587 14.5599C17.3604 14.5458 17.4553 14.4874 17.5751 14.4723C17.7177 14.4543 17.8495 14.4193 18.1075 14.4533C18.2204 14.52 18.3411 14.52 18.472 14.5838C18.6015 14.648 18.7022 14.7478 18.8307 14.7945C19.1534 14.8816 19.4785 14.7473 19.7306 14.5697C20.0931 14.3487 20.3574 14.028 20.6066 13.7053C20.6767 13.5841 20.7448 13.4644 20.8285 13.3408L20.8631 13.3364C20.9288 13.4435 20.8329 13.6152 20.7609 13.7024C20.7458 13.8333 20.6742 13.9374 20.6047 14.0421C20.4265 14.2406 20.2854 14.4329 20.082 14.6057C19.9744 14.6962 19.77 14.7823 19.7491 14.8071C19.5544 14.8962 19.348 14.9059 19.1509 14.9794C19.0974 14.9955 19.0288 15.0159 18.9811 14.9999C18.8876 14.9687 18.8034 14.958 18.7115 14.9225C18.5995 14.8719 18.5095 14.7775 18.4053 14.7205C18.3615 14.6952 18.2248 14.6577 18.0939 14.7108C17.9975 14.7502 17.8938 14.7682 17.7965 14.8125C17.7288 14.8222 17.7259 14.8378 17.6972 14.8417C17.6485 14.8446 17.4042 14.9648 17.3599 15.0111C17.1818 15.195 16.9939 15.4077 16.936 15.6588C16.8971 15.8292 16.8733 16.0005 16.8903 16.1762C16.9132 16.4 16.9273 16.6118 17.0358 16.8171C17.2422 17.207 17.4524 17.4021 17.8636 17.6425C17.9099 17.6693 17.9659 17.6761 18.0111 17.7039C18.105 17.7594 18.1751 17.8241 18.2778 17.8635C18.7071 18.03 19.1592 18.1706 19.6099 18.2407C20.081 18.3122 20.5613 18.2324 21.01 18.1288C21.3332 18.0553 21.6447 17.9258 21.9435 17.7711C22.1776 17.6494 22.3548 17.4985 22.5733 17.3549C22.6278 17.3194 22.9441 17.0172 22.9495 16.9705C22.9592 16.8858 22.9286 16.8016 22.9655 16.7281C23.0006 16.6561 23.1524 16.6264 23.1865 16.7003C23.2342 16.8113 23.023 17.0595 22.9363 17.134ZM23.5934 16.4088C23.4946 16.5655 23.2551 16.7081 23.0979 16.568C23.1096 16.5339 23.0736 16.5217 23.0707 16.5057C23.1159 16.4516 23.2074 16.4546 23.2658 16.4176C23.4031 16.3305 23.4926 16.1986 23.5588 16.0604C23.5695 16.0102 23.5617 15.963 23.5919 15.9275C23.588 15.9114 23.5846 15.8803 23.5812 15.8652C23.6313 15.8418 23.6498 15.8569 23.6742 15.9012C23.7136 16.0565 23.6547 16.2399 23.588 16.3767C23.5895 16.3923 23.5895 16.3923 23.5934 16.4088ZM24.4928 14.7561C24.4913 14.7575 24.4329 14.8787 24.4256 14.8923C24.2056 15.2573 23.972 15.4092 23.6557 15.6623C23.3043 15.946 22.9928 16.2842 22.6302 16.5611C22.4643 16.6882 22.2973 16.7884 22.126 16.8974C21.6778 17.1812 21.2344 17.3394 20.7234 17.4596C20.2737 17.5637 19.7953 17.5574 19.3451 17.4883C19.2492 17.4737 19.0925 17.4221 19.0015 17.3861C18.7869 17.3038 18.582 17.1929 18.4165 17.0439C18.1435 16.7977 17.9483 16.4001 18.0797 16.0438C18.0865 16.0292 18.0681 16.0112 18.0734 15.9961C18.1187 15.8749 18.1678 15.7377 18.2657 15.6515C18.3377 15.5873 18.4448 15.5664 18.5207 15.507C18.5718 15.4685 18.6526 15.4929 18.7022 15.4525C18.7392 15.4788 18.8502 15.396 18.9373 15.4072C19.0667 15.4223 19.1767 15.3566 19.2964 15.3775C19.3928 15.3951 19.4858 15.4082 19.551 15.4729C19.6478 15.5664 19.6941 15.7002 19.6727 15.8277C19.6478 15.9825 19.5369 16.1304 19.4025 16.2297C19.3763 16.2501 19.3636 16.2638 19.3402 16.2706C19.241 16.2954 19.1207 16.3781 19.0195 16.327C18.9966 16.3144 19.1159 16.2832 19.1178 16.2828C19.1636 16.2531 19.2186 16.2336 19.2604 16.1996C19.2741 16.1888 19.2828 16.2069 19.294 16.1957C19.4074 16.0915 19.5033 15.9494 19.5135 15.799C19.5194 15.7036 19.4546 15.6272 19.4264 15.5527C19.3982 15.4875 19.3208 15.4656 19.2376 15.4481C19.1704 15.434 19.1105 15.4413 19.0512 15.4715C19.0176 15.4895 19.0117 15.5367 18.9757 15.5455C18.8589 15.5732 18.7869 15.6637 18.7124 15.7552C18.6973 15.7732 18.6779 15.7606 18.6633 15.7776C18.5747 15.8856 18.5728 16.0049 18.5421 16.129C18.5241 16.2039 18.5216 16.2526 18.5022 16.3266C18.471 16.4385 18.4808 16.5378 18.546 16.6259C18.5844 16.6789 18.5815 16.7417 18.6209 16.7938C18.7757 16.9831 18.9986 17.1135 19.223 17.2454C19.4916 17.4046 20.0644 17.4143 20.3526 17.4099C20.684 17.4026 21.0319 17.3141 21.2972 17.1301C21.4466 17.0259 21.6934 17.0011 21.8676 16.8979C22.601 16.4643 23.0419 16.0365 23.6279 15.4729C23.8304 15.2807 24.2387 15.0889 24.1438 14.7502C24.0786 14.5064 23.2848 14.6913 23.1573 14.7307C22.5149 14.9264 21.8296 15.0733 21.23 15.3741C20.974 15.5021 20.7511 15.6618 20.5394 15.8467C20.4878 15.8905 20.4367 15.9061 20.3808 15.9465C20.3238 15.9869 20.2864 16.0496 20.2294 16.0939C19.9257 16.3222 19.6838 16.585 19.4254 16.8522C19.3782 16.9004 19.3276 16.9544 19.2741 16.9992C19.2332 17.0323 19.1689 16.9894 19.1957 16.9447C19.2706 16.8288 19.3364 16.7013 19.4415 16.6098C19.459 16.5933 19.476 16.6059 19.4901 16.5869C19.972 15.981 20.5774 15.5065 21.2417 15.0996C21.4052 14.9999 21.5649 14.9254 21.7425 14.8607C22.1061 14.7278 22.4643 14.5843 22.8225 14.4519C22.9801 14.3935 23.4581 14.2367 23.6065 14.2577C23.7136 14.2713 23.8304 14.2358 23.9341 14.248C24.0255 14.2587 24.1122 14.2689 24.2017 14.3098C24.3891 14.3945 24.5254 14.5643 24.4928 14.7561ZM22.6044 15.7936C22.8487 15.5707 23.1159 15.3921 23.4045 15.2442L23.4099 15.2753C23.1709 15.5308 22.8526 15.7153 22.6122 15.9689C22.5275 15.9796 22.4161 16.0409 22.3684 15.9528C22.3411 15.7659 22.4287 15.5625 22.5694 15.4291C22.7451 15.2145 22.9675 15.0398 23.2172 14.8996C23.3515 14.8816 23.4624 14.8042 23.5973 14.7867C23.6021 14.8188 23.6484 14.7809 23.6532 14.8125C23.6557 14.8281 23.6557 14.8281 23.6571 14.8431C23.6411 14.8456 23.6411 14.8456 23.624 14.8471C23.5632 14.9035 23.5184 14.9561 23.4342 14.9682C23.4172 14.9697 23.4221 14.978 23.4031 14.9872C23.023 15.1147 22.7606 15.4374 22.5835 15.7649C22.5854 15.78 22.5869 15.7961 22.6044 15.7936ZM22.5971 15.1532C22.5869 15.1658 22.5358 15.1464 22.5295 15.1615C22.5183 15.1921 22.5085 15.1785 22.4828 15.1994C22.4443 15.2315 22.3635 15.2286 22.3183 15.2524C22.1192 15.3566 21.9537 15.5011 21.7673 15.6262C21.7187 15.6603 21.6549 15.6963 21.6486 15.7537C21.6447 15.7756 21.6505 15.7844 21.6398 15.8034C21.4875 16.0608 21.3259 16.3202 21.2188 16.5938C21.212 16.6084 21.2291 16.6342 21.2398 16.623C21.3673 16.5023 21.4228 16.3188 21.5795 16.2273C21.6121 16.2073 21.6179 16.2735 21.6072 16.3042C21.5581 16.4604 21.4038 16.5689 21.2865 16.6965C21.2505 16.7334 21.0816 16.8512 21.0548 16.7743C20.9268 16.4215 21.1288 16.0526 21.3225 15.763C21.4539 15.6014 21.6242 15.4612 21.8165 15.3639C21.8501 15.3459 21.8642 15.3527 21.8983 15.3371C21.9761 15.3021 22.0287 15.25 22.1036 15.215C22.2282 15.1585 22.3523 15.1323 22.4866 15.1031C22.5202 15.0962 22.5587 15.0724 22.5903 15.106C22.602 15.1172 22.6069 15.14 22.5971 15.1532ZM21.1001 15.7907C21.0261 15.8306 20.9546 15.8389 20.8937 15.9129C20.8791 15.9309 20.8655 15.9226 20.8451 15.9348C20.7847 15.9732 20.7716 16.0404 20.7122 16.0798C20.6913 16.0934 20.6806 16.0866 20.6635 16.1027C20.5419 16.2117 20.4221 16.3144 20.336 16.4638C20.2834 16.5577 20.2528 16.6619 20.2061 16.7514C20.1978 16.767 20.2114 16.8147 20.2294 16.7982C20.319 16.7067 20.3856 16.6103 20.483 16.5256C20.4961 16.5144 20.5068 16.5393 20.5049 16.5558C20.4781 16.6882 20.3647 16.8001 20.3151 16.9164C20.3068 16.9364 20.3019 16.9427 20.3049 16.9651C20.3097 17.0001 20.225 17.004 20.2289 17.0381C20.2319 17.061 20.2309 17.0683 20.2187 17.0882C20.1773 17.1573 20.0639 17.223 19.9783 17.2143C19.9165 17.2075 19.9097 17.1607 19.8936 17.1126C19.843 16.9442 19.8936 16.7539 19.9403 16.5938C19.9759 16.4672 20.0678 16.3641 20.1511 16.2628C20.4144 16.0355 20.7073 15.8073 21.0787 15.7611C21.0977 15.7596 21.1161 15.782 21.1001 15.7907ZM25.4452 12.6239C25.3488 12.7923 25.1946 12.9081 25.0432 13.0483C24.9575 13.1276 24.9279 13.2507 24.8398 13.3257C24.7035 13.4415 24.5526 13.5403 24.4168 13.6571C24.2197 13.826 23.9487 13.8489 23.7073 13.9413C23.6231 13.9735 23.5364 13.9832 23.4517 13.9691C23.1013 13.9117 22.7207 14.0129 22.3085 13.9077C21.8593 13.7924 21.4778 13.551 21.1492 13.2507C21.0597 13.1675 20.9239 13.0955 20.9176 12.9675C20.9424 12.9456 20.9234 12.8993 20.9794 12.9242C21.1001 12.9767 21.1775 13.0979 21.3026 13.1432C21.6861 13.2853 22.0798 13.4157 22.4993 13.4712C22.731 13.5009 22.8911 13.5009 23.13 13.4916C23.5418 13.4741 23.9267 13.3807 24.3253 13.2853C24.4747 13.2498 24.6845 13.1656 24.8042 13.0731C24.9843 12.9349 25.1644 12.7835 25.361 12.6375C25.3921 12.6156 25.3897 12.5567 25.4272 12.529C25.4627 12.5042 25.4559 12.6044 25.4452 12.6239Z" fill="#FFD58E"/>
<path d="M22.9649 16.7306C22.9284 16.8045 22.9586 16.8882 22.9494 16.9729C22.9435 17.0196 22.6277 17.3228 22.5727 17.3579C22.3542 17.5015 22.1775 17.6518 21.9429 17.7735C21.6446 17.9283 21.3326 18.0577 21.0099 18.1312C20.5612 18.2349 20.0809 18.3152 19.6093 18.2436C19.1591 18.1731 18.707 18.0324 18.2777 17.8665C18.175 17.827 18.1049 17.7618 18.0105 17.7063C17.9653 17.6791 17.9093 17.6723 17.863 17.645C17.4518 17.4046 17.242 17.2094 17.0352 16.8201C16.9272 16.6152 16.913 16.4025 16.8897 16.1791C16.8731 16.003 16.897 15.8321 16.9359 15.6618C16.9933 15.4107 17.1812 15.198 17.3598 15.014C17.4036 14.9678 17.6484 14.8471 17.6971 14.8447C17.7258 14.8403 17.7287 14.8242 17.7959 14.815C17.8937 14.7712 17.9969 14.7527 18.0933 14.7137C18.2247 14.6597 18.3614 14.6977 18.4052 14.7235C18.5089 14.7799 18.5994 14.8743 18.7118 14.925C18.8023 14.961 18.8875 14.9717 18.981 15.0023C19.0287 15.0189 19.0973 14.998 19.1503 14.9824C19.3474 14.9089 19.5538 14.8987 19.7485 14.8101C19.7699 14.7853 19.9743 14.6987 20.0813 14.6081C20.2848 14.4354 20.4264 14.2436 20.6045 14.0455C20.6741 13.9404 20.7457 13.8358 20.7603 13.7048C20.8328 13.6177 20.9287 13.4459 20.863 13.3393L20.8284 13.3432C20.7442 13.4664 20.6766 13.5861 20.606 13.7078C20.3573 14.0299 20.093 14.3516 19.7305 14.5721C19.4774 14.7498 19.1528 14.8841 18.8311 14.797C18.7016 14.7498 18.6009 14.65 18.4719 14.5857C18.341 14.522 18.2198 14.522 18.1069 14.4553C17.8494 14.4212 17.717 14.4568 17.5749 14.4738C17.4552 14.4899 17.3603 14.5492 17.2591 14.5619C17.1797 14.6203 17.0775 14.6587 17.0055 14.722C16.787 14.9186 16.639 15.1537 16.5583 15.4365C16.5198 15.5674 16.4551 15.6657 16.4015 15.7927C16.3762 15.8545 16.3762 15.9056 16.3597 15.9747C16.3436 16.039 16.3582 16.1168 16.3383 16.1855C16.3242 16.2336 16.3422 16.2877 16.3441 16.3451C16.3548 16.5052 16.4288 16.6546 16.4955 16.7914C16.5028 16.8055 16.4755 16.8206 16.4853 16.841C16.5534 16.9685 16.6483 17.097 16.7296 17.2119C16.8254 17.3496 16.953 17.4557 17.0751 17.5686C17.3545 17.8236 17.6713 18.0353 18.0417 18.1517C18.2519 18.2188 18.449 18.3025 18.6734 18.3454C18.7585 18.3619 18.8306 18.3862 18.9065 18.3965C19.0798 18.4198 19.253 18.4305 19.4141 18.4451C19.6219 18.4646 19.8263 18.4495 20.0341 18.4305C20.2566 18.4111 20.4571 18.3235 20.6712 18.3035C20.9345 18.2777 21.6232 18.0743 21.8485 17.9628C21.9906 17.8918 22.2485 17.7584 22.3576 17.6572C22.3804 17.6353 22.4023 17.6183 22.434 17.6003C22.4904 17.5686 22.5342 17.4888 22.5858 17.4528C22.7201 17.3569 22.8189 17.2372 22.9362 17.1364C23.0219 17.062 23.2341 16.8147 23.1859 16.7043C23.1523 16.6298 23 16.6585 22.9649 16.7306ZM23.9334 14.2519C23.8298 14.2378 23.713 14.2748 23.6059 14.2611C23.458 14.2402 22.9795 14.3969 22.8223 14.4553C22.4637 14.5882 22.1059 14.7317 21.7419 14.8636C21.5643 14.9284 21.4051 15.0033 21.2416 15.1036C20.5768 15.51 19.9718 15.9845 19.4895 16.5904C19.4754 16.6089 19.4584 16.5977 19.4414 16.6137C19.3358 16.7057 19.2701 16.8318 19.1956 16.9481C19.1688 16.9924 19.2331 17.0362 19.2739 17.0026C19.3275 16.9583 19.3776 16.9033 19.4248 16.8551C19.6832 16.5884 19.9256 16.3251 20.2288 16.0969C20.2862 16.0536 20.3237 15.9903 20.3807 15.9499C20.4366 15.9095 20.4877 15.8939 20.5388 15.8501C20.751 15.6652 20.9739 15.5056 21.2299 15.3781C21.8295 15.0768 22.5148 14.9303 23.1567 14.7342C23.2847 14.6948 24.078 14.5093 24.1437 14.7541C24.2386 15.0919 23.8298 15.2836 23.6283 15.4769C23.0414 16.0399 22.6009 16.4673 21.8675 16.9014C21.6932 17.0041 21.446 17.0289 21.2971 17.1335C21.0314 17.317 20.6834 17.4061 20.3519 17.4129C20.0643 17.4187 19.4915 17.4075 19.2224 17.2494C18.9985 17.117 18.7751 16.9865 18.6208 16.7967C18.5814 16.7452 18.5838 16.6833 18.5459 16.6298C18.4806 16.5417 18.4704 16.4419 18.5021 16.33C18.521 16.2555 18.5235 16.2074 18.542 16.1319C18.5721 16.0083 18.5741 15.8891 18.6632 15.7815C18.6778 15.7625 18.6972 15.7776 18.7118 15.7586C18.7868 15.6671 18.8583 15.5761 18.9751 15.5489C19.0116 15.5406 19.0175 15.4934 19.0506 15.4754C19.1104 15.4438 19.1698 15.4374 19.237 15.452C19.3202 15.4691 19.398 15.4905 19.4263 15.5562C19.4545 15.6302 19.5187 15.7071 19.5129 15.8024C19.5027 15.9533 19.4078 16.0954 19.2939 16.1986C19.2827 16.2098 19.2739 16.1918 19.2598 16.203C19.2185 16.2371 19.163 16.2555 19.1177 16.2847C19.1158 16.2862 18.996 16.3178 19.0194 16.33C19.1206 16.3811 19.2404 16.2984 19.3396 16.2736C19.363 16.2667 19.3761 16.2526 19.4019 16.2327C19.5368 16.1334 19.6472 15.985 19.672 15.8302C19.6935 15.7032 19.6472 15.5693 19.5504 15.4759C19.4852 15.4107 19.3927 15.3975 19.2958 15.3805C19.1771 15.3596 19.0661 15.4248 18.9367 15.4102C18.85 15.399 18.7391 15.4817 18.7016 15.4545C18.6524 15.4963 18.5712 15.471 18.5201 15.51C18.4441 15.5693 18.3371 15.5903 18.265 15.6545C18.1672 15.7406 18.1181 15.8779 18.0728 15.9991C18.0679 16.0137 18.0864 16.0312 18.0791 16.0463C17.9477 16.4025 18.1434 16.8006 18.4159 17.0469C18.5819 17.1953 18.7868 17.3063 19.0009 17.3895C19.0924 17.4246 19.2491 17.4766 19.345 17.4907C19.7952 17.5603 20.2736 17.5667 20.7228 17.463C21.2338 17.3428 21.6772 17.1841 22.1254 16.9009C22.2972 16.7914 22.4637 16.6911 22.6301 16.5641C22.9922 16.2867 23.3037 15.9489 23.6555 15.6652C23.9719 15.4121 24.205 15.2598 24.425 14.8953C24.4323 14.8816 24.4907 14.7605 24.4922 14.759C24.5248 14.5672 24.389 14.3984 24.2011 14.3137C24.1121 14.2728 24.0249 14.2626 23.9334 14.2519ZM20.1509 16.2672C20.0672 16.3685 19.9757 16.4716 19.9402 16.5977C19.894 16.7583 19.8434 16.9481 19.894 17.117C19.9095 17.1652 19.9168 17.2124 19.9782 17.2182C20.0638 17.2265 20.1772 17.1613 20.2191 17.0922C20.2308 17.0727 20.2322 17.0654 20.2293 17.042C20.2254 17.008 20.3096 17.0041 20.3052 16.969C20.3018 16.9471 20.3072 16.9408 20.315 16.9204C20.3641 16.8045 20.4775 16.6926 20.5043 16.5602C20.5062 16.5432 20.496 16.5188 20.4824 16.53C20.3855 16.6147 20.3189 16.7106 20.2293 16.8026C20.2113 16.8186 20.1977 16.7714 20.2059 16.7559C20.2527 16.6658 20.2833 16.5622 20.3354 16.4682C20.422 16.3188 20.5417 16.2161 20.6634 16.1066C20.6805 16.0906 20.6907 16.0969 20.7116 16.0837C20.771 16.0443 20.7846 15.9772 20.8445 15.9392C20.8654 15.9251 20.8795 15.9348 20.8936 15.9173C20.9545 15.8433 21.0255 15.8351 21.1 15.7947C21.116 15.7864 21.0975 15.763 21.0795 15.765C20.7077 15.8117 20.4142 16.0399 20.1509 16.2672ZM22.486 15.1075C22.3517 15.1362 22.2281 15.1629 22.1035 15.2189C22.0281 15.2544 21.9755 15.3065 21.8981 15.3411C21.8636 15.3576 21.8495 15.3508 21.8164 15.3683C21.6236 15.4652 21.4533 15.6053 21.3224 15.7669C21.1282 16.056 20.9262 16.4254 21.0542 16.7787C21.081 16.8551 21.2504 16.7374 21.2859 16.7009C21.4032 16.5729 21.5575 16.4648 21.6066 16.3081C21.6173 16.2779 21.6115 16.2113 21.5794 16.2317C21.4226 16.3227 21.3667 16.5062 21.2397 16.6269C21.2285 16.6376 21.2114 16.6123 21.2182 16.5972C21.3253 16.3247 21.4874 16.0648 21.6392 15.8068C21.6499 15.7878 21.6441 15.7801 21.6485 15.7582C21.6548 15.7002 21.7185 15.6642 21.7672 15.6302C21.9531 15.5051 22.1186 15.361 22.3177 15.2564C22.3629 15.233 22.4442 15.2359 22.4822 15.2033C22.5084 15.1824 22.5187 15.1965 22.5289 15.1664C22.5347 15.1508 22.5863 15.1693 22.5965 15.1581C22.6067 15.1445 22.6014 15.1216 22.5902 15.1104C22.5586 15.0773 22.5196 15.1007 22.486 15.1075ZM23.6736 15.9042C23.6492 15.8594 23.6312 15.8443 23.5811 15.8681C23.5845 15.8832 23.5874 15.9139 23.5913 15.9304C23.5616 15.966 23.5689 16.0132 23.5592 16.0628C23.492 16.201 23.4025 16.3329 23.2657 16.421C23.2068 16.457 23.1153 16.4546 23.0706 16.5086C23.073 16.5247 23.109 16.5364 23.0973 16.5709C23.255 16.7106 23.4945 16.568 23.5933 16.4118C23.5884 16.3957 23.5884 16.3957 23.5874 16.3792C23.6541 16.2424 23.7135 16.0594 23.6736 15.9042ZM23.4025 14.9911C23.4215 14.9819 23.4171 14.9741 23.4336 14.9722C23.5173 14.96 23.5626 14.907 23.6234 14.851C23.6405 14.85 23.6405 14.85 23.657 14.8471C23.6551 14.8315 23.6551 14.8315 23.6526 14.8164C23.6478 14.7853 23.6015 14.8232 23.5967 14.7906C23.4618 14.8082 23.3509 14.8855 23.2166 14.9031C22.9669 15.0432 22.7445 15.2179 22.5688 15.4331C22.4281 15.5659 22.3405 15.7698 22.3678 15.9567C22.4155 16.0448 22.5269 15.9845 22.6116 15.9723C22.852 15.7192 23.1708 15.5343 23.4093 15.2797C23.4068 15.2642 23.4069 15.2642 23.4039 15.2481C23.1148 15.3961 22.8481 15.5742 22.6038 15.7976C22.5863 15.8005 22.5844 15.784 22.5829 15.7689C22.76 15.4418 23.0224 15.1182 23.4025 14.9911ZM19.3402 14.3798C19.4103 14.3701 19.4813 14.3648 19.4998 14.2962C19.5046 14.2806 19.5072 14.2762 19.4955 14.2645C19.4639 14.2304 19.4005 14.246 19.3849 14.2144C19.3766 14.1993 19.3889 14.1944 19.3802 14.1818C19.3237 14.1054 19.2103 14.1409 19.1091 14.1044C19.0424 14.0791 18.9791 13.971 18.9066 14.0163C18.8492 14.0542 18.9217 14.1165 18.928 14.1598C18.9504 14.1988 19.0218 14.2154 19.0282 14.2587C19.035 14.303 18.928 14.2723 18.9528 14.3317C18.984 14.4124 19.0877 14.4543 19.1801 14.464C19.2317 14.4689 19.2648 14.3949 19.2152 14.3472C19.202 14.336 19.2116 14.3064 19.2253 14.3132C19.2696 14.3336 19.2867 14.3867 19.3402 14.3798ZM19.6828 13.8874C19.7937 13.5846 19.9441 13.3097 20.13 13.0454C20.1928 13.0055 20.2371 12.9529 20.2089 12.8755C20.1578 12.8828 20.0964 12.9052 20.0921 12.9052C19.9524 12.986 19.8638 13.1087 19.7777 13.2342C19.6842 13.3277 19.6662 13.4625 19.584 13.5642C19.5747 13.5895 19.582 13.6099 19.5767 13.6284C19.5002 13.7024 19.5329 13.8109 19.4954 13.9117C19.4404 13.8869 19.3898 13.8927 19.3348 13.8674C19.2832 13.8747 19.2326 13.8801 19.1766 13.8567C19.1304 13.8937 19.1547 13.9389 19.1786 13.9842C19.2997 14.0012 19.4195 14.0986 19.5509 14.0494C19.5952 13.9959 19.6385 13.9409 19.6828 13.8874ZM25.4271 12.5334C25.3896 12.5607 25.392 12.6195 25.3609 12.6419C25.1643 12.7879 24.9837 12.9388 24.8041 13.0775C24.6844 13.17 24.4746 13.2542 24.3252 13.2897C23.9266 13.3851 23.5417 13.4781 23.1299 13.4961C22.891 13.5058 22.7308 13.5058 22.4992 13.4751C22.0797 13.4201 21.6855 13.2897 21.3019 13.1476C21.1778 13.1023 21.1 12.9811 20.9798 12.9286C20.9223 12.9038 20.9423 12.95 20.9175 12.9719C20.9233 13.0999 21.0586 13.1719 21.1486 13.2551C21.4772 13.5554 21.8587 13.7968 22.3084 13.9122C22.7201 14.0173 23.1012 13.9161 23.4521 13.9735C23.5363 13.9871 23.6229 13.9774 23.7071 13.9453C23.9485 13.8533 24.2191 13.8299 24.4167 13.6615C24.5525 13.5447 24.7034 13.4454 24.8392 13.3306C24.9272 13.2551 24.9574 13.132 25.0431 13.0522C25.1939 12.912 25.3487 12.7967 25.4451 12.6278C25.4563 12.6083 25.4626 12.5086 25.4271 12.5334ZM20.368 13.3846C20.2911 13.3301 20.1913 13.3593 20.1149 13.3038C20.0945 13.2746 20.1237 13.2391 20.1188 13.2075C20.257 13.205 20.4089 13.187 20.5534 13.2337C20.6478 13.2858 20.6955 13.3749 20.6581 13.4771C20.5354 13.5408 20.3777 13.4469 20.3777 13.4469C20.3753 13.4265 20.3709 13.4065 20.368 13.3846ZM19.5071 13.2848C19.5767 13.2751 19.6385 13.2357 19.6828 13.1826C19.6745 13.1189 19.6832 13.0697 19.6604 13.0249C19.5952 12.9373 19.4891 12.9184 19.3976 12.8824C19.327 12.8741 19.2438 12.9004 19.1722 12.877L19.1571 12.8945C19.1138 12.8862 19.0827 12.8551 19.0554 12.9086C19.0574 12.9237 19.0574 12.9237 19.0598 12.9398C19.1245 13.0279 19.2438 13.042 19.3396 13.0809C19.3211 13.1963 19.4599 13.2065 19.5071 13.2848ZM25.286 12.089C25.2588 12.1265 25.2062 12.1445 25.1615 12.1581C24.9493 12.2224 24.7376 12.3324 24.5332 12.4122C24.3599 12.4793 24.1521 12.493 23.9633 12.5261C23.8878 12.5397 23.8143 12.5343 23.7399 12.5329C23.6372 12.5319 23.5593 12.5883 23.4561 12.5986C23.1524 12.6278 22.7743 12.6005 22.4842 12.5236C22.3192 12.4788 22.1791 12.4438 22.0355 12.3742C21.906 12.3119 21.793 12.2209 21.665 12.181C21.5721 12.1504 21.3775 12.0584 21.2923 12.0501C21.1882 12.0413 21.0831 12.0277 20.9697 12.0087C20.6713 11.9576 20.1641 12.1392 19.9689 12.3105C19.8813 12.3893 19.8098 12.4891 19.7825 12.6015C19.7767 12.6283 19.7792 12.6526 19.8128 12.6618C19.8211 12.6633 19.8745 12.6604 19.8794 12.6507C19.9358 12.5178 20.0166 12.4039 20.1495 12.3451C20.3227 12.2701 20.5214 12.2735 20.6971 12.2998C21.1347 12.362 21.5394 12.584 21.9015 12.8351C22.2894 13.1048 22.7956 13.2284 23.2677 13.1335C23.4166 13.1033 23.5387 13.097 23.6672 13.0478C23.8755 12.9685 24.2188 12.9344 24.3794 12.7791C24.5414 12.6239 24.7283 12.4998 24.9103 12.381C24.9415 12.3616 24.9535 12.3621 24.9905 12.3509C25.1093 12.3188 25.1672 12.2005 25.2816 12.1557C25.3142 12.1431 25.2723 12.1085 25.3069 12.1032C25.3142 12.0949 25.301 12.0818 25.2854 12.0905L25.286 12.089ZM18.6774 12.4686C18.6774 12.4205 18.6613 12.3913 18.6691 12.3411C18.6784 12.273 18.7548 12.2019 18.8059 12.1557C18.8229 12.1401 19.0215 11.9557 19.0575 11.9333C19.1305 11.89 19.1733 11.8394 19.241 11.8063C19.2702 11.7907 19.3208 11.7844 19.3573 11.7688C19.5028 11.7021 20.1238 11.4719 20.3438 11.4855C20.6382 11.5055 20.9361 11.5473 21.2188 11.5936C21.2578 11.5994 21.4286 11.6573 21.4578 11.6656C21.6583 11.7235 21.8272 11.8418 22.0287 11.9075C22.2545 11.9785 22.4589 12.0462 22.6847 12.1328C22.84 12.1932 22.9981 12.2049 23.1729 12.2272C23.4313 12.2603 23.6922 12.2088 23.9394 12.1435C24.0504 12.1143 24.1506 12.1362 24.2426 12.091C24.4859 11.9708 24.8411 11.8433 25.0728 11.7216C25.1647 11.6734 25.2388 11.6646 25.3342 11.6291C25.4092 11.5994 25.3216 11.5284 25.3011 11.5527C25.2768 11.5809 25.2666 11.6072 25.2442 11.6111C25.1415 11.6296 25.031 11.6096 24.9371 11.6471C24.8174 11.6963 24.6966 11.7644 24.5588 11.7615C24.1865 11.7547 23.7929 11.78 23.4245 11.7479C23.2936 11.7371 23.1557 11.706 23.0389 11.6525C22.8978 11.5858 22.7563 11.5863 22.6151 11.5308C22.5796 11.5157 22.5533 11.4948 22.5188 11.4816C22.3051 11.4062 22.0871 11.3974 21.8627 11.3371C21.3468 11.1994 20.8037 11.0758 20.2732 11.1259C20.1681 11.1356 20.0916 11.1444 19.9884 11.1911C19.8633 11.2486 19.7266 11.2598 19.5961 11.325C19.4248 11.4087 19.257 11.4948 19.0964 11.6038C18.8093 11.7985 18.6208 12.1095 18.5824 12.4365C18.5877 12.4619 18.5712 12.4974 18.5984 12.5144C18.6271 12.531 18.6754 12.5027 18.6774 12.4686Z" fill="#3C1605"/>
<path d="M16.9106 29.6359H16.5515V27.7909H17.6606C18.0957 27.7909 18.4111 27.8907 18.4111 28.3423C18.4111 28.681 18.1673 28.8694 17.8962 28.884L18.4607 29.6359H18.0169L17.482 28.9078H16.9106V29.6359ZM25.7654 29.6359H24.8616V27.7909H25.7498C26.3343 27.7909 26.8 28.0372 26.8 28.7039C26.8 29.3308 26.3742 29.6359 25.7654 29.6359ZM24.0157 29.6359H23.6327L23.4405 29.2125H22.378L22.1824 29.6359H21.7994L22.7085 27.7909H23.1188L24.0157 29.6359ZM21.1005 29.6359H19.4156V27.7909H21.0684V28.1009H19.7753V28.5297H20.8883V28.8382H19.7753V29.3269H21.1005V29.6359ZM14.8661 29.6359H13.6873V27.7909H14.7984C15.2311 27.7909 15.5207 27.9131 15.5207 28.262C15.5207 28.4966 15.4068 28.5827 15.3075 28.646C15.4379 28.7039 15.5927 28.8587 15.5927 29.1001C15.5927 29.449 15.3163 29.6359 14.8661 29.6359ZM14.8311 29.3356C15.0598 29.3356 15.2311 29.2913 15.2311 29.0728C15.2311 28.8796 15.0739 28.8193 14.8311 28.8193H14.0485V29.3356H14.8311ZM25.5872 29.3269C26.2014 29.3269 26.4399 29.1376 26.4399 28.7064C26.4399 28.2557 26.1917 28.1009 25.5872 28.1009H25.2217V29.3269H25.5872ZM23.2998 28.902L22.9144 28.0815L22.5284 28.902H23.2998ZM27.7768 27.658C28.0601 27.658 28.3019 27.878 28.3019 28.1759C28.3019 28.4752 28.0601 28.6957 27.7768 28.6957C27.4926 28.6957 27.2502 28.4752 27.2502 28.1759C27.2502 27.878 27.4926 27.658 27.7768 27.658ZM17.6066 28.611C17.901 28.611 18.0505 28.5677 18.0505 28.3496C18.0505 28.1335 17.901 28.0897 17.6066 28.0897H16.9106V28.611H17.6066ZM27.7768 27.7413C27.5374 27.7413 27.3514 27.9277 27.3514 28.1759C27.3514 28.4285 27.5374 28.611 27.7768 28.611C28.0153 28.611 28.2012 28.4285 28.2012 28.1759C28.2012 27.9277 28.0153 27.7413 27.7768 27.7413ZM14.8208 28.52C15.0564 28.52 15.1615 28.4606 15.1615 28.3063C15.1615 28.1496 15.0564 28.0897 14.8208 28.0897H14.0485V28.52H14.8208ZM27.6668 28.4752H27.5748V27.878H27.8046C27.9467 27.878 28.0163 27.9316 28.0163 28.0474C28.0163 28.1559 27.9496 28.2026 27.8595 28.2124L28.0313 28.4752H27.9301L27.77 28.2153H27.6668V28.4752ZM27.6668 28.1408H27.7753C27.8883 28.1408 27.9248 28.1087 27.9248 28.043C27.9248 27.9851 27.8965 27.953 27.7919 27.953H27.6668V28.1408ZM9.35733 24.5438C9.29552 24.3763 9.2488 24.205 9.20013 24.0337C9.13005 23.7845 9.06922 23.5319 9.0444 23.2735C9.03953 23.2171 9.03515 23.2151 9.08625 23.1956C9.11058 23.1859 9.13443 23.1767 9.15925 23.1674C9.20938 23.148 9.25659 23.1236 9.30818 23.1056C10.339 22.7615 11.4068 22.2666 11.9869 21.8646C12.8206 21.2859 12.8887 20.7637 12.8366 20.5632C12.7875 20.3748 12.6731 20.1918 12.5032 20.1013C11.363 19.4881 8.75482 19.2822 7.2573 19.4701C6.94095 19.5095 6.61731 19.5548 6.31411 19.6618C5.97051 19.7835 5.75345 20.0346 5.80455 20.2916C5.8795 20.6741 6.1647 21.0051 6.52143 21.1423C6.67669 21.2003 6.83875 21.2343 6.98476 21.138C7.14293 21.0333 7.28066 20.9262 7.46024 20.8562C7.68217 20.7691 8.11045 20.6897 8.15815 20.7072C8.20487 20.7257 8.0175 21.6134 7.98148 21.8354C7.93963 22.0787 7.90118 22.325 7.85105 22.5678C7.75371 23.0253 7.61744 24.8509 7.81114 25.2266C7.98245 25.5609 8.18151 25.7814 8.5363 25.9143C8.71248 25.9804 8.90374 26.0033 9.08966 25.9741C9.24248 25.9503 9.41233 25.9011 9.51064 25.7717C9.68 25.5444 9.58413 25.2032 9.50723 24.9594C9.46294 24.8187 9.40941 24.681 9.35733 24.5438ZM29.6807 22.3128C29.8277 22.3269 29.9099 22.2126 29.888 22.0685C29.8613 21.8933 29.6778 21.7599 29.5152 21.7205C28.7234 21.5497 27.8625 21.922 27.2804 22.4418C27.275 22.2948 27.1685 22.1391 27.0911 22.0189C27.003 21.8797 26.8993 21.7278 26.7621 21.63C26.7183 21.5969 26.6467 21.5643 26.6248 21.6368C26.601 21.7113 26.618 21.8003 26.618 21.8753C26.618 21.997 26.6141 22.1206 26.6059 22.2413C26.5752 22.6579 26.5236 23.0939 26.4078 23.495C26.325 23.7923 26.218 24.0819 26.1367 24.3793C26.0549 24.6781 25.9805 24.9983 26.0189 25.3103C26.052 25.5969 26.2121 25.8174 26.4871 25.9143C26.7431 26.0038 26.9582 25.8928 27.0925 25.6704C27.2351 25.4383 27.2965 25.1609 27.3519 24.8971C27.4025 24.6538 27.421 24.4143 27.4541 24.1695C27.5038 23.786 27.6216 23.4074 27.8639 23.1007C28.1019 22.8 28.393 22.5089 28.74 22.3362C28.8952 22.2593 29.0836 22.1717 29.2607 22.2048C29.4028 22.2315 29.5367 22.2997 29.6807 22.3128ZM20.0434 21.9736C19.2433 22.086 18.577 22.7581 18.1556 23.4151C18.1181 23.3071 18.1673 23.0818 18.1536 22.9669C18.1351 22.8112 18.1264 22.6491 18.0597 22.5046C17.994 22.36 17.8718 22.2452 17.7361 22.1673C17.5132 22.0373 17.2635 21.9366 17.0148 21.8665C16.8951 21.832 16.7642 21.8028 16.6396 21.8164C16.587 21.8222 16.4391 21.8665 16.4863 21.9454C16.5461 22.0442 16.6882 22.1045 16.7841 22.1571C16.8883 22.2135 16.9944 22.2617 17.0893 22.3332C17.2197 22.432 17.2197 22.5513 17.2036 22.7046C17.1778 22.9528 17.1 23.1942 17.0129 23.4263C16.8557 23.8498 16.6722 24.2683 16.624 24.7209C16.6016 24.9385 16.6099 25.1623 16.679 25.3711C16.7296 25.5264 16.7968 25.6583 16.9695 25.6918C17.2645 25.7464 17.5136 25.6743 17.665 25.4188C17.8271 25.1414 17.9332 24.6893 18.0685 24.3997C18.1828 24.1578 18.3103 23.8682 18.4398 23.6356C18.5873 23.3665 18.8068 23.1689 18.9956 22.9285C19.0978 22.7995 19.4404 22.5411 19.5188 22.5182C19.5966 22.4939 19.6502 22.5012 19.6088 22.6175C19.5597 22.7591 19.0525 24.0464 19.2433 24.8071C19.4239 25.5225 20.1082 25.7283 20.3043 25.8057C20.3544 25.8281 20.4483 25.8583 20.4848 25.796C20.5389 25.7035 20.4771 25.5381 20.4357 25.4568C20.2225 25.0426 20.131 24.5039 20.3301 23.6249C20.3734 23.4331 20.4722 23.0803 20.5282 22.8438C20.5851 22.6092 20.607 22.3887 20.5262 22.1848C20.4469 21.9814 20.2391 21.9454 20.0434 21.9736ZM15.5796 24.8484C15.5153 24.6761 15.5217 24.4664 15.5479 24.2863C15.5796 24.0707 15.6506 23.8648 15.6988 23.6531C15.7416 23.4706 15.7533 23.2998 15.6652 23.1261C15.5129 22.8243 15.1406 22.6447 14.8208 22.7922C14.6641 22.8662 14.5551 22.9932 14.4797 23.145C14.413 23.2808 14.3668 23.4283 14.2743 23.549C14.1813 23.6711 14.0368 23.7612 13.9219 23.8609C13.7827 23.9826 13.6465 24.1048 13.5087 24.2269C13.2153 24.4858 12.914 24.7428 12.5782 24.9438C12.2862 25.1195 11.947 25.2641 11.6009 25.2256C11.6345 25.0324 11.746 24.8718 11.8526 24.7122C11.9776 24.5258 12.1129 24.3471 12.2628 24.1787C12.5641 23.839 12.9544 23.585 13.3189 23.3198C13.647 23.0818 13.9852 22.8433 14.3687 22.7026C14.6082 22.6146 14.8778 22.489 14.7834 22.1838C14.688 21.8845 14.2933 21.8918 14.0412 21.9196C13.7526 21.9527 13.4693 22.033 13.1958 22.1274C12.9276 22.2203 12.6682 22.3332 12.4288 22.4875C12.0793 22.7138 11.7747 23.0078 11.526 23.3421C11.2885 23.6604 11.0734 24.0366 10.9804 24.4265C10.9079 24.7311 10.9196 25.0796 11.0982 25.3463C11.2753 25.6091 11.5824 25.7069 11.8866 25.668C12.1022 25.6422 12.31 25.56 12.5076 25.4728C12.7227 25.3789 12.9325 25.2645 13.1335 25.1414C13.5365 24.8942 13.9112 24.6065 14.2845 24.317C14.2441 24.7024 14.578 25.0859 14.8379 25.3273C15.0909 25.5629 15.4861 25.8617 15.8575 25.8067C16.0575 25.7259 15.7996 25.2957 15.747 25.1901C15.69 25.0777 15.6243 24.9672 15.5796 24.8484ZM25.6057 23.7344C25.4821 23.7359 25.3551 23.7913 25.2412 23.8332C24.8299 23.987 24.4323 24.1714 24.0206 24.3223C23.6278 24.4674 23.185 24.6265 22.7586 24.5944C22.6053 24.5817 22.4486 24.536 22.3401 24.4201C22.2155 24.2868 22.1829 24.098 22.1848 23.9218C22.9479 23.9602 23.714 23.8882 24.4304 23.6113C24.72 23.5003 24.9837 23.3684 25.1843 23.1261C25.2913 22.9937 25.3784 22.8355 25.3906 22.6622C25.4042 22.4749 25.3215 22.3026 25.195 22.1673C24.9292 21.8422 24.446 21.8548 24.0722 21.923C23.6215 22.0047 23.1816 22.1814 22.7839 22.4092C22.435 22.6077 22.1182 22.8681 21.8456 23.1611C21.5692 23.4585 21.3069 23.8162 21.2017 24.2167C21.1185 24.5258 21.1302 24.8713 21.2689 25.1633C21.4198 25.4753 21.7069 25.6763 22.0403 25.7488C22.4759 25.8422 22.9333 25.7459 23.3451 25.6018C23.6858 25.4831 24.0099 25.3254 24.3272 25.157C24.5978 25.011 24.8655 24.8543 25.1132 24.6708C25.3361 24.5048 25.5911 24.2951 25.6812 24.022C25.7123 23.9286 25.7517 23.7315 25.6057 23.7344ZM34.0136 25.4514C33.7927 25.2295 33.7538 24.8762 33.7367 24.7C33.7143 24.463 33.7226 24.2269 33.7572 23.9933C33.8122 23.623 33.9645 23.0866 33.6116 22.819C33.5386 22.7645 33.4579 22.7236 33.3751 22.689C33.3094 22.6608 33.2364 22.6233 33.1629 22.6277C33.0145 22.6345 32.887 22.7606 32.7935 22.8662C32.6957 22.9781 32.611 23.1017 32.5375 23.2307C32.4295 23.4147 32.3025 23.585 32.1604 23.7437C31.8606 24.0751 31.5038 24.3481 31.1393 24.6031C30.9568 24.7326 30.7714 24.8606 30.582 24.9808C30.3961 25.1 30.1883 25.2129 29.9669 25.2353C29.6189 25.2723 29.8535 24.8002 29.9352 24.6557C30.1372 24.2975 30.4093 23.9709 30.6828 23.6823C31.2308 23.1056 31.9462 22.6262 32.7677 22.5746C32.8748 22.4437 33.0072 22.2262 32.8461 22.085C32.7108 21.9643 32.4947 21.9478 32.3224 21.9381C31.6557 21.905 31.0084 22.1366 30.4633 22.5119C30.1358 22.7391 29.8384 23.0214 29.6174 23.3543C29.4276 23.64 29.3181 23.9661 29.2315 24.2965C29.1429 24.6304 29.0582 25.0567 29.2588 25.3682C29.468 25.6953 29.8554 25.7721 30.2136 25.6811C30.4175 25.6295 30.6122 25.5322 30.7986 25.4358C31.0108 25.3293 31.2157 25.2095 31.4182 25.084C31.8153 24.8358 32.1949 24.5618 32.5667 24.2785C32.7935 24.7185 32.9094 25.2548 33.3342 25.5789C33.4754 25.6875 33.6603 25.7736 34.0506 25.7118C34.0891 25.7064 34.2609 25.6573 34.185 25.593C34.1251 25.5444 34.0711 25.5079 34.0136 25.4514ZM22.6798 23.0983C22.8852 22.947 23.1129 22.8146 23.349 22.7231C23.6716 22.5995 24.0605 22.578 24.3958 22.6515C24.4854 22.671 24.92 22.8005 24.7389 22.9606C24.2712 23.3748 23.0088 23.6682 22.3615 23.5281C22.2948 23.3645 22.579 23.1728 22.6798 23.0983ZM8.83464 21.4903C8.8176 21.3005 8.79813 21.1117 8.78451 20.9224C8.77915 20.8576 8.76309 20.6299 8.83464 20.6182C9.92091 20.4551 11.6598 20.4036 11.9708 20.716C12.0876 20.8318 11.8409 21.2372 11.5284 21.5103C11.1157 21.8709 10.1818 22.4574 8.99086 22.8282C8.91104 22.3858 8.87211 21.9381 8.83464 21.4903Z" fill="#606B21"/>
</svg>
