<svg width="40" height="40" viewBox="0 0 40 40" fill="none" xmlns="http://www.w3.org/2000/svg">
<rect width="40" height="40" fill="#F52F41"/>
<path d="M22.9325 13.4448H22.7381H21.9214H12.782C12.6264 13.4448 12.5098 13.5615 12.5098 13.717V15.156C12.5098 16.7505 13.6376 17.645 15.6988 17.645H22.9325C23.7104 17.645 24.3326 18.2673 24.3326 19.0451C24.3326 19.8229 23.7104 20.4452 22.9325 20.4452H14.8043C14.6877 20.4452 14.571 20.5229 14.571 20.6396L12.6264 28.2233C12.5875 28.3011 12.6264 28.3789 12.6653 28.4567C12.7042 28.5345 12.782 28.5734 12.8598 28.5734H15.4266C16.3989 28.5734 16.8656 27.7567 16.9822 27.3677L17.7212 24.6065H22.8936C25.966 24.6065 28.455 22.1175 28.455 19.0451C28.455 15.9338 25.966 13.4448 22.9325 13.4448Z" fill="white"/>
</svg>
