<svg width="40" height="40" viewBox="0 0 40 40" fill="none" xmlns="http://www.w3.org/2000/svg">
<rect width="40" height="40" fill="white"/>
<path d="M24.8222 17.2668H13.719C13.6262 17.2668 13.5344 17.285 13.4487 17.3205C13.363 17.356 13.2852 17.408 13.2196 17.4736C13.1541 17.5392 13.102 17.617 13.0666 17.7027C13.0311 17.7884 13.0128 17.8802 13.0128 17.9729C13.0128 18.0657 13.0311 18.1575 13.0666 18.2432C13.102 18.3288 13.1541 18.4067 13.2196 18.4722C13.2852 18.5378 13.363 18.5898 13.4487 18.6253C13.5344 18.6608 13.6262 18.6791 13.719 18.6791H24.8222C24.9149 18.6791 25.0067 18.6608 25.0924 18.6253C25.1781 18.5898 25.2559 18.5378 25.3215 18.4722C25.3871 18.4067 25.4391 18.3288 25.4746 18.2432C25.5101 18.1575 25.5283 18.0657 25.5283 17.9729C25.5283 17.8802 25.5101 17.7884 25.4746 17.7027C25.4391 17.617 25.3871 17.5392 25.3215 17.4736C25.2559 17.408 25.1781 17.356 25.0924 17.3205C25.0067 17.285 24.9149 17.2668 24.8222 17.2668Z" fill="#EF4649"/>
<path d="M13.719 15.248H24.8222C25.0095 15.248 25.1891 15.1736 25.3215 15.0411C25.4539 14.9087 25.5283 14.7291 25.5283 14.5418C25.5283 14.3545 25.4539 14.1749 25.3215 14.0425C25.1891 13.9101 25.0095 13.8357 24.8222 13.8357H13.719C13.5317 13.8357 13.3521 13.9101 13.2196 14.0425C13.0872 14.1749 13.0128 14.3545 13.0128 14.5418C13.0128 14.7291 13.0872 14.9087 13.2196 15.0411C13.3521 15.1736 13.5317 15.248 13.719 15.248Z" fill="#EF4649"/>
<path d="M24.8222 20.7H13.719C13.6262 20.7 13.5344 20.7182 13.4487 20.7537C13.363 20.7892 13.2852 20.8412 13.2196 20.9068C13.1541 20.9724 13.102 21.0502 13.0666 21.1359C13.0311 21.2216 13.0128 21.3134 13.0128 21.4061C13.0128 21.4989 13.0311 21.5907 13.0666 21.6764C13.102 21.762 13.1541 21.8399 13.2196 21.9054C13.2852 21.971 13.363 22.023 13.4487 22.0585C13.5344 22.094 13.6262 22.1123 13.719 22.1123H24.8222C24.9149 22.1123 25.0067 22.094 25.0924 22.0585C25.1781 22.023 25.2559 21.971 25.3215 21.9054C25.3871 21.8399 25.4391 21.762 25.4746 21.6764C25.5101 21.5907 25.5283 21.4989 25.5283 21.4061C25.5283 21.3134 25.5101 21.2216 25.4746 21.1359C25.4391 21.0502 25.3871 20.9724 25.3215 20.9068C25.2559 20.8412 25.1781 20.7892 25.0924 20.7537C25.0067 20.7182 24.9149 20.7 24.8222 20.7Z" fill="#EF4649"/>
<path d="M29.1842 18.5052C28.7071 18.5052 28.2787 18.8826 27.8928 19.417C27.4695 20.0411 27.1141 20.7087 26.8325 21.4082C26.6028 21.8667 26.4591 22.3633 26.4084 22.8735C26.3879 23.2351 26.4952 23.5924 26.7116 23.8829C26.2766 24.4467 25.7785 24.959 25.2272 25.4097C25.1403 25.4797 24.9367 25.6451 24.6144 25.8677C24.1891 26.1569 23.7408 26.4108 23.2742 26.6269C22.6045 26.9364 21.8995 27.1628 21.1748 27.3012C21.0094 27.3323 20.8398 27.3599 20.6659 27.3839C20.1592 27.4514 19.648 27.4784 19.137 27.4645L18.2485 28.4824L17.6865 29.1186V27.297C17.315 27.2262 16.9482 27.1327 16.5881 27.0171C16.1629 26.8808 15.7483 26.7135 15.3475 26.5166C13.6577 25.6887 12.2621 24.3631 11.3484 22.7181C10.4347 21.0731 10.0468 19.1876 10.237 17.3155C10.3655 16.0226 10.7682 14.772 11.4182 13.647C12.0297 12.5835 12.8468 11.6525 13.8217 10.9079C14.7967 10.1634 15.9101 9.62038 17.097 9.31044C17.6327 9.17195 18.18 9.08252 18.732 9.04325C19.0034 9.02204 19.2642 9.01568 19.5314 9.0178C19.7986 9.01992 20.0467 9.03476 20.2948 9.06021C21.9656 9.2188 23.5609 9.83271 24.907 10.8351C25.3261 11.1444 25.717 11.4899 26.0754 11.8678C26.3511 12.1541 26.5186 12.364 26.5929 12.4552C26.822 12.744 27.0344 13.0456 27.229 13.3586C27.0209 13.6509 26.8889 13.9906 26.8452 14.3468C26.7973 14.7047 26.8388 15.069 26.9661 15.407C27.3043 16.314 27.4774 17.2742 27.4771 18.2422H27.9818C27.9837 17.2203 27.8027 16.2062 27.4474 15.248C27.3286 14.9345 27.313 14.5913 27.4029 14.2683C27.4412 14.1118 27.5102 13.9644 27.6059 13.8348C27.7017 13.7052 27.8222 13.5959 27.9606 13.5134C28.1073 13.4345 28.2712 13.3932 28.4377 13.3932C28.6043 13.3932 28.7682 13.4345 28.9149 13.5134C29.2783 13.7 29.5584 14.0164 29.6995 14.3998C30.1593 15.6323 30.3949 16.9373 30.395 18.2528H30.8997C30.9016 16.877 30.6552 15.5121 30.1724 14.2238C30.001 13.7534 29.6875 13.348 29.2754 13.0638C28.9464 12.8282 28.5395 12.728 28.1387 12.7839C27.922 12.4378 27.6848 12.105 27.4284 11.7872C26.4725 10.599 25.2648 9.6377 23.8923 8.97286C22.5198 8.30803 21.0169 7.9562 19.4919 7.94278C17.967 7.92936 16.4581 8.25468 15.0741 8.89525C13.6902 9.53582 12.4657 10.4757 11.4891 11.647C10.5125 12.8182 9.80811 14.1917 9.42681 15.6683C9.04551 17.1449 8.9968 18.6877 9.28419 20.1854C9.57157 21.6831 10.1879 23.0983 11.0887 24.3288C11.9894 25.5594 13.1522 26.5746 14.493 27.3012C15.1552 27.6614 15.8559 27.9459 16.5817 28.1495V32.0576L19.6438 28.5418C19.8813 28.5418 20.1188 28.5248 20.3563 28.5015C22.8558 28.2717 25.1853 27.1368 26.9067 25.31C27.1357 25.0662 27.3541 24.8117 27.5577 24.5488C27.7453 24.6209 27.9474 24.6468 28.1471 24.6243C28.3468 24.6018 28.5382 24.5315 28.7049 24.4194C29.129 24.1628 29.604 23.6454 29.9879 22.7548C30.2134 22.2366 30.3565 21.6864 30.412 21.1241C30.4571 20.6608 30.4227 20.1932 30.3102 19.7415C30.0918 18.9568 29.6549 18.5137 29.1842 18.5052Z" fill="#EF4649"/>
<path d="M29.8479 18.2486C29.8505 17.0519 29.646 15.8639 29.2435 14.7369L28.7685 14.9066C29.1496 15.9796 29.344 17.1099 29.3432 18.2486H29.8479Z" fill="#EF4649"/>
<path d="M27.894 15.2183C28.2398 16.1911 28.4162 17.2161 28.4156 18.2485H28.9224C28.9228 17.1581 28.7356 16.0756 28.369 15.0486L27.894 15.2183Z" fill="#EF4649"/>
</svg>
