<svg width="40" height="40" viewBox="0 0 40 40" fill="none" xmlns="http://www.w3.org/2000/svg">
<rect width="40" height="40" fill="black"/>
<path fill-rule="evenodd" clip-rule="evenodd" d="M28.5373 17.1338C28.3532 17.2582 28.1824 17.3992 28.0265 17.5546L27.4889 17.1541L26.6135 16.4669C26.9199 16.3531 27.8741 15.9679 27.4889 15.7753C27.2871 15.7254 27.0824 15.6874 26.8761 15.6615L27.6202 15.0225L27.7734 14.8693L29.1871 13.6831L28.5394 12.4576L26.5634 14.153L28.2592 12.6708L27.3007 12.592L24.8846 14.5835C24.8949 14.5835 24.9059 14.5834 24.9176 14.5832C24.5829 14.6522 24.2417 14.685 23.8998 14.6811C23.3655 14.5942 23.1437 14.1617 22.9401 13.7648C22.8668 13.622 22.7959 13.4838 22.7137 13.368C22.6216 13.2592 22.4946 13.1934 22.3832 13.1358C22.2616 13.0727 22.1586 13.0194 22.1403 12.9303C22.2339 12.9267 22.3253 12.9012 22.4073 12.8559C22.7881 12.6633 22.9413 12.5101 23.0201 12.2781C23.0705 12.0842 23.0795 11.8818 23.0463 11.6842C23.0131 11.4866 22.9385 11.2982 22.8275 11.1314C22.9807 11.0176 23.5934 10.558 23.554 10.4792C23.1946 10.4954 22.8365 10.5334 22.4817 10.593C22.4671 10.5801 22.4532 10.5611 22.4394 10.5424C22.4158 10.5105 22.3927 10.4792 22.3679 10.4792C22.2291 10.3484 22.0514 10.2665 21.8618 10.246C21.6722 10.2254 21.481 10.2674 21.3174 10.3654C20.2845 10.8031 20.3195 11.5516 20.6653 12.2781C20.7355 12.4271 20.8373 12.559 20.9634 12.6648C21.0896 12.7706 21.2373 12.8477 21.3962 12.8909C19.7417 14.3047 15.9163 16.7076 14.9271 16.7864C15.7675 17.0928 18.1836 17.1322 19.1771 16.5544C18.9101 17.6662 18.8707 18.7779 19.3697 19.3119C19.0144 19.5622 18.6628 19.8424 18.4592 20.0046L18.4112 20.0428C18.2394 20.1795 18.2835 20.2221 18.4037 20.3384C18.4182 20.3524 18.4341 20.3678 18.4506 20.3842C18.8833 20.3958 19.3139 20.3184 19.7155 20.1566L19.9037 19.9641L21.2474 20.8832L21.1292 22.1963L21.0925 22.5507L21.057 22.5508C20.3654 22.5551 19.6906 22.7641 19.1177 23.1515C18.5447 23.5388 18.0994 24.0872 17.8377 24.7274C17.576 25.3676 17.5098 26.0709 17.6474 26.7487C17.7849 27.4265 18.1201 28.0484 18.6107 28.5359C19.1012 29.0234 19.7252 29.3547 20.4038 29.4881C21.0824 29.6214 21.7853 29.5508 22.4239 29.2852C23.0624 29.0195 23.608 28.5707 23.9918 27.9954C24.3756 27.42 24.5804 26.7439 24.5804 26.0523C24.5804 25.5906 24.4891 25.1335 24.3118 24.7072C24.2395 24.5335 24.1535 24.3662 24.0548 24.207L24.3463 24.0259L24.6133 23.8727C24.7479 23.9497 24.9017 23.987 25.0567 23.98C25.2117 23.973 25.3615 23.9221 25.4886 23.8333C25.6155 23.7461 25.7128 23.6223 25.7676 23.4784C25.8223 23.3345 25.8319 23.1774 25.795 23.0279L26.9812 22.6821C27.4189 22.5683 27.4801 22.4151 27.3663 22.2444C27.2744 22.0657 26.8593 22.0836 26.499 22.0991C26.2415 22.1102 26.0121 22.1201 25.9482 22.0562L25.6418 21.3647L26.2546 16.9877L27.2876 17.7143L27.6619 17.9817C27.4993 18.2062 27.3632 18.4504 27.2572 18.7097C26.9956 19.3499 26.9294 20.0533 27.0669 20.731C27.2045 21.4088 27.5397 22.0307 28.0303 22.5182C28.5208 23.0057 29.1447 23.3371 29.8234 23.4704C30.502 23.6037 31.2049 23.5331 31.8435 23.2675C32.482 23.0018 33.0276 22.553 33.4114 21.9777C33.7952 21.4023 34 20.7262 34 20.0346C33.9989 19.5737 33.9067 19.1175 33.7289 18.6922C33.551 18.267 33.291 17.881 32.9636 17.5565C32.6363 17.232 32.2481 16.9753 31.8213 16.8012C31.3945 16.6271 30.9375 16.5389 30.4766 16.5418V16.5331C29.785 16.5374 29.1102 16.7464 28.5373 17.1338ZM23.7671 23.8085L24.0968 23.6013L24.3419 23.47C24.2986 23.3814 24.2732 23.2852 24.2672 23.1868C24.2612 23.0884 24.2747 22.9898 24.3069 22.8966L22.8494 22.3582C22.5824 22.2444 22.543 22.0519 22.6174 21.7455L21.7989 21.1896L21.6851 22.1875L21.6408 22.5961C21.9018 22.6385 22.1578 22.7105 22.4037 22.811C22.8311 22.9857 23.2196 23.2431 23.5471 23.5686C23.6243 23.6452 23.6976 23.7253 23.7671 23.8085ZM21.5666 23.3285C21.9383 23.3974 22.294 23.5413 22.6113 23.7534C22.807 23.8842 22.9843 24.0384 23.1398 24.2119L21.3787 25.2864L21.5666 23.3285ZM21.0206 23.2821L20.7878 25.7854C20.7856 25.8305 20.7949 25.8755 20.8148 25.9161C20.8347 25.9566 20.8646 25.9915 20.9016 26.0174C20.9366 26.0524 21.0154 26.0524 21.0898 26.0524C21.1642 26.0524 21.1686 26.0524 21.1686 26.0174L23.4295 24.5975C23.511 24.7281 23.582 24.8658 23.6414 25.0093C23.8529 25.5206 23.908 26.0832 23.7998 26.6258C23.6915 27.1685 23.4247 27.6668 23.0331 28.0578C22.6415 28.4488 22.1428 28.7148 21.6 28.8222C21.0571 28.9296 20.4947 28.8736 19.9837 28.6613C19.4727 28.4489 19.0362 28.0897 18.7294 27.6292C18.4226 27.1687 18.2593 26.6275 18.2602 26.0742C18.2648 25.3342 18.5611 24.626 19.0847 24.1031C19.5997 23.5889 20.2938 23.2949 21.0206 23.2821ZM27.6797 20.0565C27.6835 19.4525 27.8813 18.8695 28.2383 18.391L30.2464 19.8109C30.2814 19.8503 30.3602 19.8503 30.3996 19.8503C30.4293 19.8493 30.4585 19.8417 30.485 19.8281C30.5115 19.8145 30.5346 19.7951 30.5527 19.7715C30.6841 19.6971 30.6228 19.557 30.509 19.4651L28.6022 17.9903C29.1145 17.5252 29.7816 17.2639 30.4766 17.2596C31.0298 17.2596 31.5705 17.4237 32.0304 17.731C32.4904 18.0383 32.8489 18.4751 33.0605 18.9862C33.2722 19.4972 33.3276 20.0596 33.2197 20.6021C33.1118 21.1447 32.8454 21.643 32.4543 22.0342C32.0631 22.4253 31.5648 22.6917 31.0222 22.7996C30.4797 22.9075 29.9173 22.8522 29.4063 22.6405C28.8952 22.4288 28.4584 22.0703 28.1511 21.6104C27.8438 21.1504 27.6797 20.6097 27.6797 20.0565ZM25.3398 15.2939C24.8205 15.3773 24.2934 15.4023 23.7685 15.3683C23.3833 15.1407 24.1187 15.8672 24.3813 15.7884L25.528 15.6746L25.3398 15.2939ZM20.6127 19.6183C20.5005 19.6508 20.3836 19.6641 20.267 19.6577L21.4925 20.5024L22.7181 19.3513C22.0219 19.4797 21.319 19.5689 20.6127 19.6183ZM22.8789 21.0181C23.0326 20.6112 23.2386 20.0661 23.4446 19.3907L21.9302 20.7694L22.7574 21.3428C22.7924 21.247 22.8335 21.1383 22.8789 21.0181ZM24.6702 22.4545C24.7804 22.4097 24.8972 22.3831 25.0159 22.3758L25.0466 21.9556C24.8311 21.4398 24.5357 20.9612 24.1712 20.5374C23.9438 20.902 23.7518 21.2874 23.5978 21.6886C23.8229 21.8806 24.0679 22.0479 24.3288 22.1875C24.4555 22.2586 24.5706 22.3487 24.6702 22.4545ZM24.6308 18.9705L25.2829 20.4236L25.7425 17.2854L24.5958 18.3577C24.6469 18.5578 24.6588 18.7659 24.6308 18.9705ZM21.2255 17.8194C22.1447 17.6662 23.5978 17.4386 24.2894 17.9332L25.8213 16.5369L25.5499 16.3487H25.5149C25.055 16.5333 24.5807 16.6797 24.0968 16.7864C24.0968 16.7864 22.4117 16.213 22.2979 15.714C22.1728 16.2003 21.8979 16.6548 21.6353 17.0887C21.4843 17.3384 21.3374 17.5812 21.2255 17.8194Z" fill="white"/>
<path d="M14.4271 20.0643L14.9305 21.5569L16.423 21.5962L15.2369 22.5504L15.6746 24.0823L14.449 23.1632L13.2235 24.0823L13.6612 22.5504L12.4357 21.5962L13.9282 21.5569L14.4271 20.0643Z" fill="white"/>
<path d="M12.9341 25.5748L13.4287 27.0674L14.9257 27.1024L13.7395 28.061L14.1772 29.5929L12.9516 28.6737L11.6867 29.5929L12.1244 28.061L10.8988 27.1024L12.4308 27.0674L12.9341 25.5748Z" fill="white"/>
<path d="M8.87344 21.527L9.37678 23.0195L10.8693 23.0589L9.68316 24.0131L10.1208 25.545L8.89532 24.6258L7.66979 25.545L8.10748 24.0131L6.88196 23.0589L8.37447 23.0195L8.87344 21.527Z" fill="white"/>
</svg>
