<svg width="40" height="40" viewBox="0 0 40 40" fill="none" xmlns="http://www.w3.org/2000/svg">
<rect width="40" height="40" fill="white"/>
<path d="M18.6725 15.8545C18.6725 16.9272 18.4543 17.8727 17.9997 18.7636C17.9634 18.8363 17.9816 18.8727 18.0179 18.9091C18.2179 19.0909 18.3997 19.2909 18.5816 19.4727C18.8179 19.7091 18.8361 20 18.6179 20.2181C18.4179 20.4181 18.1088 20.4 17.8725 20.1818C17.727 20.0363 17.5997 19.9091 17.4543 19.7636C17.3997 19.7091 17.3816 19.7091 17.3452 19.7636C17.2906 19.8545 17.1816 19.9272 17.1816 20C17.1816 20.0727 17.3088 20.1454 17.3816 20.2181C17.5452 20.3818 17.7088 20.5272 17.8543 20.6909C18.0725 20.9091 18.0725 21.2 17.8725 21.4C17.6725 21.6 17.3634 21.6 17.1634 21.3818C16.9452 21.1636 16.7452 20.9636 16.527 20.7454C16.4906 20.6909 16.4543 20.6909 16.3997 20.7454C16.3452 20.8 16.2906 20.8545 16.2361 20.8909C16.1634 20.9454 16.1816 20.9636 16.2361 21.0181C16.8179 21.6 17.3997 22.1818 17.9816 22.7454C18.127 22.8909 18.1816 23.0545 18.127 23.2545C18.0179 23.6181 17.5816 23.7272 17.3088 23.4545C17.0543 23.2181 16.8179 22.9636 16.5634 22.7091C16.1816 22.3272 15.7816 21.9272 15.3997 21.5454C15.3452 21.4909 15.3088 21.4909 15.2543 21.5272C14.1816 22.0727 13.0543 22.2909 11.8543 22.2C9.07247 22 6.70883 19.9091 6.16338 17.1636C5.45428 13.8363 7.47247 10.6181 10.7634 9.7636C14.2361 8.87269 17.7634 11.0727 18.527 14.5636C18.6179 15.0181 18.6725 15.4545 18.6725 15.8545ZM16.8179 17.7272C16.8361 17.6909 16.8543 17.6727 16.8543 17.6545C17.1997 16.7636 17.2725 15.8363 17.0725 14.9091C16.5088 12.2727 13.9452 10.6363 11.327 11.1818C8.19974 11.8363 6.54519 15.3091 8.0361 18.1272C8.92701 19.8181 10.3997 20.6909 12.3088 20.7454C12.927 20.7636 13.5088 20.6363 14.0906 20.4181C14.1634 20.3818 14.1816 20.3636 14.1088 20.3091C13.9452 20.1636 13.7997 20 13.6361 19.8545C13.4361 19.6545 13.4361 19.3454 13.6179 19.1454C13.8179 18.9454 14.127 18.9454 14.327 19.1636C14.5088 19.3454 14.6906 19.5272 14.8543 19.6909C14.927 19.7636 14.9816 19.8727 15.0543 19.8727C15.127 19.8727 15.1997 19.7636 15.2906 19.7272C15.3634 19.6909 15.3634 19.6545 15.3088 19.5818C14.5088 18.7818 13.6906 17.9818 12.8906 17.1818C12.5816 16.8727 12.2543 16.5454 11.9452 16.2363C11.6725 15.9636 11.7816 15.5272 12.1452 15.4181C12.3452 15.3636 12.527 15.4181 12.6725 15.5818C13.7816 16.6909 14.8906 17.7818 15.9816 18.8909C16.0361 18.9454 16.0725 18.9636 16.127 18.8909C16.1452 18.8363 16.1816 18.8 16.2179 18.7636C16.2725 18.6909 16.2725 18.6545 16.1997 18.5818C15.927 18.3272 15.6725 18.0545 15.3997 17.7818C15.3088 17.6909 15.2361 17.5818 15.2361 17.4363C15.2179 17.2363 15.327 17.0545 15.527 16.9636C15.7088 16.8727 15.927 16.9091 16.0725 17.0545C16.3452 17.2545 16.5816 17.4909 16.8179 17.7272Z" fill="#0000AA"/>
<path d="M8.50873 25.6C9.72692 25.6182 10.7269 26.4909 10.8724 27.7091C10.9451 28.3091 10.7996 28.8727 10.436 29.3818C10.3996 29.4364 10.3815 29.4727 10.4542 29.5273C10.5633 29.6364 10.6724 29.7454 10.7815 29.8545C10.9087 29.9818 10.9087 30.1636 10.7996 30.2909C10.6724 30.4182 10.4906 30.4 10.3633 30.2727C10.2542 30.1636 10.1451 30.0545 10.036 29.9454C9.98146 29.8909 9.9451 29.8909 9.89055 29.9273C8.5451 30.8909 6.67237 30.2364 6.21783 28.6545C5.76328 27.1454 6.92692 25.5818 8.50873 25.6ZM8.59964 26.2C7.81783 26.2 7.1451 26.6182 6.87237 27.2727C6.58146 27.9818 6.67237 28.6364 7.18146 29.2C7.7451 29.8545 8.7451 29.9818 9.47237 29.5091C9.5451 29.4545 9.56328 29.4364 9.49055 29.3818C9.38146 29.2909 9.29055 29.1818 9.19964 29.0909C9.07237 28.9636 9.07237 28.7818 9.18146 28.6727C9.29055 28.5454 9.47237 28.5454 9.59964 28.6727C9.69055 28.7636 9.79964 28.8545 9.89055 28.9636C9.96328 29.0545 9.99964 29.0364 10.036 28.9454C10.3815 28.3454 10.3996 27.7454 10.0724 27.1454C9.7451 26.5273 9.19964 26.2364 8.59964 26.2Z" fill="#0000AA"/>
<path d="M22.873 28.8727C22.5821 28.8727 22.3094 28.8727 22.0185 28.8727C21.8366 28.8727 21.7275 28.7636 21.7094 28.6182C21.7094 28.4727 21.8366 28.3636 22.0003 28.3636C22.4366 28.3636 22.8912 28.3636 23.3276 28.3636C23.4185 28.3636 23.4366 28.3273 23.4185 28.2545C23.3457 27.5273 22.7094 27.2909 22.2003 27.3455C21.6366 27.4182 21.3275 27.8 21.3094 28.3636C21.3094 28.5636 21.3094 28.7636 21.3275 28.9636C21.4185 29.4545 21.7275 29.7636 22.2185 29.8364C22.6003 29.8909 22.9821 29.8182 23.3457 29.6909C23.5457 29.6182 23.7094 29.7636 23.6912 29.9636C23.673 30.0545 23.6366 30.1273 23.5457 30.1636C22.9457 30.4 22.3276 30.5091 21.6912 30.2727C21.1457 30.0727 20.8003 29.6727 20.7457 29.0727C20.7094 28.7273 20.7094 28.3818 20.7639 28.0364C20.8548 27.4909 21.1639 27.1273 21.673 26.9273C22.2548 26.7091 22.8003 26.7636 23.3276 27.1091C23.7094 27.3455 23.9094 27.7091 23.9457 28.1636C23.9639 28.3091 23.9639 28.4727 23.9639 28.6182C23.9457 28.8182 23.873 28.8727 23.6912 28.8909C23.4548 28.8727 23.1639 28.8727 22.873 28.8727Z" fill="#0000AA"/>
<path d="M32.8904 28.8727C32.5995 28.8727 32.3267 28.8727 32.0358 28.8727C31.854 28.8727 31.7449 28.7636 31.7449 28.6182C31.7449 28.4727 31.854 28.3636 32.0358 28.3636C32.4722 28.3636 32.9086 28.3636 33.3631 28.3636C33.4358 28.3636 33.4722 28.3455 33.4722 28.2545C33.4358 27.7455 33.0358 27.3636 32.4904 27.3273C31.8358 27.2909 31.3813 27.7091 31.3813 28.3818C31.3813 28.5636 31.3813 28.7455 31.3995 28.9273C31.4722 29.4545 31.8358 29.7636 32.3631 29.8182C32.7086 29.8545 33.0176 29.8 33.3449 29.6909C33.3995 29.6727 33.454 29.6545 33.5267 29.6545C33.654 29.6727 33.7267 29.7455 33.7631 29.8545C33.7813 29.9636 33.7267 30.0909 33.6176 30.1273C33.0176 30.3636 32.4176 30.4545 31.7995 30.2364C31.1995 30.0182 30.8358 29.5273 30.8358 28.8727C30.8358 28.5818 30.7995 28.2727 30.8722 27.9818C30.9995 27.3636 31.3813 27 31.9631 26.8364C32.4722 26.7091 32.9449 26.7818 33.3995 27.0545C33.8358 27.3273 34.0358 27.7273 34.054 28.2182C34.054 28.3273 34.054 28.4545 34.054 28.5818C34.054 28.7636 33.9631 28.8545 33.7813 28.8545C33.454 28.8727 33.1813 28.8727 32.8904 28.8727Z" fill="#0000AA"/>
<path d="M18.8174 25.7454C19.1811 25.7636 19.472 25.7818 19.7811 25.8727C19.9447 25.9272 20.0356 26.0363 19.9992 26.2C19.9629 26.3454 19.8356 26.4181 19.672 26.3818C19.272 26.3091 18.872 26.2545 18.4538 26.3272C18.1811 26.3818 17.9447 26.5091 17.8356 26.7818C17.7265 27.0363 17.7992 27.3091 18.0174 27.4727C18.1811 27.6 18.3811 27.6727 18.5811 27.7272C18.8901 27.8363 19.2174 27.9091 19.5265 28.0545C19.872 28.2182 20.1447 28.4545 20.1992 28.8545C20.3083 29.5272 19.9811 30.0545 19.3265 30.2545C18.6356 30.4545 17.9629 30.3818 17.2901 30.1636C17.1447 30.1272 17.0901 29.9636 17.1265 29.8363C17.1629 29.7091 17.3265 29.6363 17.4901 29.6727C17.8538 29.7818 18.2356 29.8363 18.6356 29.8181C18.8538 29.8181 19.0538 29.7818 19.2538 29.6909C19.4902 29.5818 19.6174 29.3818 19.6356 29.1272C19.6538 28.8545 19.5083 28.6909 19.2901 28.5636C19.0356 28.4181 18.7629 28.3636 18.472 28.2727C18.2538 28.2 18.0356 28.1272 17.8356 28.0363C16.9629 27.6181 17.072 26.4727 17.7265 26.0545C18.072 25.8 18.4538 25.7454 18.8174 25.7454Z" fill="#0000AA"/>
<path d="M28.818 29.6545C28.8543 29.6182 28.8543 29.5818 28.8725 29.5454C29.218 28.7091 29.5452 27.8545 29.8907 27.0182C29.9271 26.9091 29.9998 26.8363 30.1089 26.8C30.1998 26.7818 30.2907 26.8 30.3634 26.8909C30.4362 26.9818 30.4543 27.0727 30.3998 27.1818C30.2725 27.4909 30.1453 27.8 30.018 28.1091C29.7634 28.7454 29.5089 29.3818 29.2362 30.0182C29.218 30.0545 29.1998 30.1091 29.1816 30.1454C29.0907 30.2909 28.9816 30.4 28.7816 30.3818C28.5998 30.3818 28.4725 30.2727 28.3998 30.1272C28.3271 29.9818 28.2725 29.8363 28.218 29.6909C27.8907 28.8727 27.5634 28.0363 27.2362 27.2182C27.1634 27.0363 27.218 26.8727 27.3816 26.8182C27.5452 26.7636 27.6907 26.8363 27.7634 27.0182C28.0907 27.8727 28.4362 28.7091 28.7634 29.5636C28.7816 29.5818 28.7998 29.6182 28.818 29.6545Z" fill="#0000AA"/>
<path d="M13.7265 28.0363C13.7265 27.3636 13.7265 26.6909 13.7265 26.0181C13.7265 25.8 13.9083 25.6545 14.0901 25.709C14.2174 25.7454 14.2901 25.8545 14.2901 26C14.2901 26.3818 14.2901 26.7818 14.2901 27.1636C14.2901 28.0909 14.2901 29.0363 14.2901 29.9636C14.2901 30 14.2901 30.0545 14.2901 30.0909C14.272 30.2363 14.1447 30.3454 13.9992 30.3272C13.8538 30.3272 13.7447 30.2181 13.7265 30.0727C13.7265 30.0363 13.7265 30 13.7265 29.9636C13.7265 29.3636 13.7265 28.709 13.7265 28.0363Z" fill="#0000AA"/>
<path d="M24.7633 28.9818C24.7815 28.6727 24.7451 28.2727 24.7815 27.8909C24.8542 27.2727 25.2724 26.8545 25.9088 26.8C26.0724 26.7818 26.236 26.7818 26.3997 26.8182C26.5633 26.8545 26.636 26.9636 26.636 27.0909C26.636 27.2 26.5633 27.2909 26.4542 27.3091C26.3815 27.3273 26.3088 27.3091 26.2179 27.3273C26.1269 27.3273 26.0542 27.3273 25.9633 27.3454C25.5633 27.4182 25.3451 27.6545 25.3451 28.0909C25.327 28.7454 25.3451 29.4 25.327 30.0364C25.327 30.0909 25.327 30.1636 25.3088 30.2182C25.2542 30.3454 25.1451 30.4182 24.9997 30.4C24.8542 30.3818 24.7633 30.2545 24.7633 30.0909C24.7633 29.7454 24.7633 29.4 24.7633 28.9818Z" fill="#0000AA"/>
<path d="M16.1632 30.3818C16.0723 30.3818 15.9996 30.3455 15.9451 30.2727C15.5451 29.8182 15.1632 29.3455 14.7632 28.8909C14.5996 28.6909 14.5996 28.5091 14.7632 28.3091C15.1632 27.8364 15.5451 27.3818 15.9451 26.9091C16.0542 26.7818 16.2178 26.7636 16.3451 26.8727C16.4542 26.9636 16.4723 27.1455 16.3632 27.2727C15.9996 27.6909 15.6542 28.1091 15.2905 28.5273C15.236 28.5818 15.236 28.6364 15.2905 28.6909C15.6542 29.0909 15.9996 29.5091 16.3451 29.9273C16.4905 30.1091 16.436 30.3273 16.236 30.3818C16.1996 30.3636 16.1814 30.3818 16.1632 30.3818Z" fill="#0000AA"/>
<path d="M11.9449 28.6909C11.9449 28.2363 11.9449 27.7818 11.9449 27.3273C11.9449 27.1273 12.054 27 12.2176 27C12.3813 27 12.5085 27.1273 12.5085 27.3273C12.5085 28.2363 12.5085 29.1454 12.5085 30.0545C12.5085 30.2545 12.3995 30.3636 12.2358 30.3636C12.054 30.3636 11.9449 30.2363 11.9449 30.0363C11.9449 29.6 11.9449 29.1454 11.9449 28.6909Z" fill="#0000AA"/>
<path d="M20.3274 21.436C20.3274 21.6359 20.2366 21.7813 20.0366 21.8722C19.8549 21.963 19.6731 21.9449 19.5096 21.7995C19.3096 21.6177 19.1279 21.436 18.9461 21.236C18.7825 21.0543 18.7825 20.7635 18.9643 20.5817C19.1279 20.4 19.4369 20.3636 19.6186 20.5272C19.8367 20.7089 20.0185 20.9089 20.2184 21.127C20.3093 21.2178 20.3274 21.3269 20.3274 21.436Z" fill="#0000AA"/>
<path d="M12.2364 26.5636C12.0182 26.5636 11.8182 26.3454 11.8182 26.0909C11.8182 25.8727 12 25.7273 12.2364 25.7273C12.4546 25.7273 12.6546 25.9273 12.6546 26.1454C12.6546 26.3636 12.4546 26.5636 12.2364 26.5636Z" fill="#0000AA"/>
<path d="M35.2545 27.2364C35.2545 27.5091 35.0545 27.7091 34.8 27.7091C34.5454 27.7091 34.3454 27.5091 34.3454 27.2545C34.3454 26.9818 34.5454 26.7818 34.8 26.7818C35.0545 26.7818 35.2545 26.9818 35.2545 27.2364ZM35.1636 27.2545C35.1636 27.0182 35.0182 26.8727 34.8 26.8727C34.5818 26.8727 34.4363 27.0364 34.4363 27.2545C34.4363 27.4727 34.5818 27.6364 34.8 27.6364C35 27.6364 35.1636 27.4727 35.1636 27.2545Z" fill="#0000AA"/>
<path d="M12.9265 18.9085C12.7993 18.9085 12.6902 18.8722 12.5993 18.7813C12.4176 18.6177 12.2358 18.436 12.0723 18.2542C11.8905 18.0543 11.8905 17.7635 12.0904 17.5817C12.2722 17.4 12.5812 17.3818 12.7811 17.5636C12.9628 17.7271 13.1264 17.9089 13.29 18.0725C13.4354 18.2179 13.4718 18.4178 13.3809 18.5995C13.3082 18.8176 13.1446 18.9085 12.9265 18.9085Z" fill="#0000AA"/>
<path d="M34.7453 26.9818C34.9272 26.9818 34.9817 27.0363 34.9817 27.1454C34.9817 27.1636 34.9817 27.2 34.9635 27.2182C34.8544 27.2727 34.9272 27.3454 34.9453 27.4182C34.9453 27.4363 34.9999 27.4727 34.9635 27.5091C34.9272 27.5272 34.8908 27.4909 34.8908 27.4545C34.8726 27.4182 34.8544 27.3818 34.8363 27.3272C34.8181 27.2909 34.7999 27.2909 34.7635 27.2909C34.709 27.2909 34.7272 27.3272 34.7272 27.3636C34.7272 27.4 34.7272 27.4363 34.7272 27.4727C34.7272 27.4909 34.7272 27.5091 34.6908 27.5091C34.6544 27.5091 34.6544 27.4909 34.6544 27.4727C34.6544 27.3272 34.6544 27.1818 34.6544 27.0363C34.6363 26.9454 34.7272 27 34.7453 26.9818ZM34.709 27.1454C34.6908 27.2 34.7272 27.2363 34.7817 27.2182C34.8363 27.2182 34.909 27.2182 34.909 27.1272C34.909 27.0545 34.8544 27.0545 34.7817 27.0545C34.7272 27.0545 34.6908 27.0727 34.709 27.1454Z" fill="#0000AA"/>
</svg>
