<svg width="40" height="40" viewBox="0 0 40 40" fill="none" xmlns="http://www.w3.org/2000/svg">
<rect width="40" height="40" fill="#F33959"/>
<path d="M7.65811 21.4772C7.59169 21.7111 7.53104 21.9392 7.47618 22.1558C7.40975 22.4446 7.34911 22.6785 7.29135 22.9037C7.2336 23.129 7.19894 23.2965 7.17584 23.4264C7.15788 23.5329 7.1065 23.6309 7.02914 23.7061C6.95177 23.7814 6.85245 23.8301 6.74555 23.8452C6.52711 23.8833 6.30256 23.8654 6.0929 23.7932C5.86392 23.7178 5.65608 23.5891 5.48646 23.4178C5.39327 23.3277 5.31955 23.2195 5.26988 23.0997C5.22021 22.98 5.19563 22.8514 5.19767 22.7218C5.218 22.356 5.27508 21.9932 5.36805 21.6389C5.48068 21.1479 5.6424 20.5646 5.85032 19.9062C6.05825 19.2477 6.3066 18.5316 6.59538 17.7663C6.84085 17.1079 7.11808 16.4437 7.41842 15.7881C7.46652 15.683 7.541 15.5921 7.63461 15.5243C7.72823 15.4565 7.8378 15.4141 7.95267 15.4011C8.41187 15.3363 8.87882 15.351 9.33306 15.4445C9.38795 15.4578 9.43924 15.4831 9.48334 15.5184C9.52744 15.5537 9.56327 15.5982 9.58832 15.6489C9.61336 15.6995 9.62701 15.755 9.62831 15.8115C9.62962 15.868 9.61853 15.9241 9.59585 15.9758C9.34461 16.5534 9.11069 17.0992 8.90565 17.645C8.73816 18.0868 8.57644 18.5113 8.42627 18.9474C8.42235 18.9566 8.42132 18.9668 8.42332 18.9765C8.42533 18.9863 8.43027 18.9953 8.43749 19.0022C8.4447 19.0091 8.45385 19.0136 8.46372 19.0152C8.47358 19.0167 8.48369 19.0153 8.4927 19.0109C8.69854 18.9136 8.89818 18.8037 9.09048 18.6817C9.41029 18.4776 9.70161 18.2319 9.95683 17.9511C10.2146 17.6716 10.4261 17.3529 10.5835 17.0068C10.7401 16.6643 10.82 16.2918 10.8174 15.9152C10.8315 15.7152 10.8009 15.5145 10.728 15.3278C10.6551 15.141 10.5416 14.9727 10.3958 14.8351C10.0633 14.5879 9.65417 14.4662 9.24064 14.4915C8.74559 14.4852 8.25791 14.6118 7.82849 14.8582C7.41078 15.0964 7.03753 15.4051 6.72534 15.7708C6.4321 16.1123 6.19167 16.4958 6.01204 16.9086C5.86314 17.231 5.77783 17.5791 5.7608 17.9338C5.7653 18.028 5.73739 18.121 5.68169 18.1972C5.62599 18.2734 5.54588 18.3282 5.45469 18.3525C5.27128 18.4069 5.07489 18.3977 4.89734 18.3265C4.68982 18.2413 4.51061 18.0991 4.38041 17.9164C4.21179 17.6773 4.1284 17.3885 4.14361 17.0963C4.16929 16.7174 4.28727 16.3506 4.48726 16.0278C4.74881 15.5763 5.08692 15.1737 5.48646 14.838C5.96918 14.4281 6.51537 14.0994 7.10365 13.8648C7.80742 13.5827 8.56052 13.4442 9.31862 13.4576C9.79107 13.458 10.2619 13.5122 10.7221 13.6193C11.1632 13.72 11.586 13.8885 11.9754 14.1189C12.3308 14.3287 12.6378 14.6111 12.8764 14.9478C13.11 15.2872 13.2322 15.6909 13.2259 16.1029C13.2306 16.56 13.1256 17.0116 12.9198 17.4197C12.7099 17.8253 12.4292 18.1901 12.0909 18.4969C11.7262 18.8271 11.3182 19.1059 10.878 19.3257C10.4912 19.52 10.0895 19.6832 9.67671 19.8138C9.6657 19.8159 9.65594 19.8222 9.64948 19.8313C9.64302 19.8405 9.64036 19.8518 9.64205 19.8629C9.64205 20.0737 9.66516 20.2787 9.68826 20.478C9.71136 20.6772 9.74313 20.9285 9.78067 21.1393C9.81821 21.3501 9.86442 21.5465 9.9164 21.7399C9.95394 21.8872 10.0001 22.0287 10.0463 22.1673C10.0781 22.254 10.1099 22.3406 10.1416 22.4186C10.2052 22.5756 10.2775 22.7289 10.3582 22.8778C10.4303 23.0148 10.5113 23.147 10.6008 23.2734C10.6817 23.3909 10.7705 23.5029 10.8665 23.6084C10.9573 23.71 11.0537 23.8064 11.1553 23.8972C11.2472 23.974 11.3437 24.0454 11.4441 24.1109C11.5454 24.1697 11.6506 24.2218 11.7588 24.2668C11.8663 24.3075 11.9763 24.3412 12.0881 24.3679C12.2012 24.3929 12.3161 24.4093 12.4317 24.417C12.5499 24.4256 12.6687 24.4256 12.7869 24.417C12.9123 24.405 13.0367 24.3847 13.1594 24.3563C13.2901 24.3261 13.4185 24.2866 13.5435 24.2379C13.68 24.1867 13.8131 24.1269 13.942 24.0589C13.9911 24.0329 14.0431 24.0069 14.0922 23.9751C14.1721 23.9301 14.2657 23.9162 14.3552 23.9359C14.4447 23.9556 14.5238 24.0076 14.5774 24.082C14.631 24.1559 14.6551 24.2473 14.645 24.3381C14.6348 24.4289 14.5912 24.5126 14.5225 24.5729L14.3117 24.752C14.1413 24.8906 13.9709 25.0205 13.8063 25.1332C13.6417 25.2458 13.4887 25.344 13.3327 25.4219L13.0844 25.5577C12.9255 25.6373 12.7626 25.7087 12.5963 25.7714C12.4397 25.8311 12.2796 25.8812 12.1169 25.9215C11.9611 25.9594 11.8029 25.9864 11.6433 26.0024C11.534 26.0139 11.4241 26.0197 11.3141 26.0197H11.1842C11.0348 26.0142 10.8861 25.9968 10.7394 25.9677C10.6672 25.9677 10.595 25.936 10.5257 25.9158C10.4564 25.8955 10.3871 25.8753 10.3178 25.8493C10.1816 25.7998 10.0493 25.7399 9.92217 25.6703C9.79484 25.5995 9.67231 25.5204 9.55542 25.4335C9.34103 25.2641 9.14719 25.0703 8.97785 24.8559C8.87439 24.7375 8.77796 24.6131 8.68907 24.4834C8.60532 24.3506 8.52446 24.1946 8.44938 24.0647C8.37429 23.9347 8.3021 23.7759 8.23856 23.6055C8.17503 23.4351 8.11439 23.2821 8.05952 23.1088C8.00465 22.9355 7.95845 22.7594 7.91513 22.5745C7.87181 22.3897 7.83715 22.1991 7.80539 21.997C7.77362 21.7948 7.75629 21.6475 7.73608 21.4685C7.73608 21.4555 7.73091 21.443 7.7217 21.4338C7.71249 21.4246 7.70001 21.4194 7.68699 21.4194C7.67397 21.4194 7.66148 21.4246 7.65227 21.4338C7.64306 21.443 7.63789 21.4555 7.63789 21.4685" fill="white"/>
<path d="M35.8575 14.5853C35.8575 14.8629 35.7752 15.1342 35.621 15.365C35.4668 15.5959 35.2476 15.7757 34.9911 15.882C34.7347 15.9882 34.4525 16.016 34.1802 15.9618C33.908 15.9077 33.6579 15.774 33.4616 15.5777C33.2654 15.3814 33.1317 15.1314 33.0775 14.8591C33.0234 14.5869 33.0512 14.3047 33.1574 14.0482C33.2636 13.7918 33.4435 13.5726 33.6743 13.4184C33.9051 13.2641 34.1765 13.1818 34.4541 13.1818C34.6384 13.1818 34.8209 13.2181 34.9911 13.2887C35.1614 13.3592 35.3161 13.4626 35.4465 13.5929C35.5768 13.7232 35.6802 13.8779 35.7507 14.0482C35.8212 14.2185 35.8575 14.401 35.8575 14.5853Z" fill="white"/>
<path d="M35.5455 20.231C35.5075 20.1769 35.4569 20.1328 35.398 20.1026C35.3392 20.0724 35.2738 20.057 35.2076 20.0578C35.1456 20.0568 35.0844 20.0714 35.0294 20.1001C34.9744 20.1289 34.9275 20.1709 34.8929 20.2224C34.8091 20.3437 34.7052 20.4852 34.5868 20.6469C34.4567 20.823 34.3169 20.9917 34.168 21.1523C34.0338 21.2964 33.8911 21.4323 33.7406 21.5594C33.6634 21.6378 33.5613 21.6868 33.4518 21.6981C33.4143 21.6981 33.3479 21.6981 33.3334 21.5219C33.3228 21.2804 33.3501 21.0387 33.4143 20.8057C33.4964 20.4735 33.5986 20.1466 33.7204 19.8267C33.8561 19.4658 33.9919 19.1221 34.1247 18.8044C34.2576 18.4868 34.3788 18.198 34.4857 17.9641C34.5925 17.7302 34.6561 17.5771 34.6821 17.5107C34.7236 17.4207 34.7372 17.3204 34.7213 17.2226C34.7053 17.1249 34.6605 17.0341 34.5925 16.962C34.4554 16.8054 34.2743 16.6937 34.0727 16.6415C33.8515 16.5892 33.6211 16.5892 33.3999 16.6415C33.2752 16.6682 33.1576 16.7208 33.0546 16.796C32.9517 16.8711 32.8656 16.967 32.8021 17.0775C32.623 17.3905 32.4601 17.7124 32.314 18.0421C32.1177 18.4752 31.9271 18.9575 31.7365 19.486C31.6296 19.8007 31.5285 20.1184 31.4477 20.439C31.2939 20.971 30.9828 21.4441 30.5553 21.7962C30.4006 21.9217 30.2397 22.0393 30.0731 22.1486C29.998 22.1976 29.9229 22.2439 29.8478 22.2843C29.8428 22.2863 29.8372 22.2866 29.832 22.2853C29.8267 22.2839 29.822 22.281 29.8185 22.2769C29.815 22.2727 29.8129 22.2676 29.8125 22.2622C29.812 22.2568 29.8133 22.2514 29.8161 22.2467C29.946 22.0764 30.0731 21.8915 30.1973 21.6952C30.4771 21.2388 30.7093 20.755 30.8903 20.2512C31.0877 19.7407 31.2234 19.2085 31.2946 18.6658C31.3489 18.2557 31.3304 17.8392 31.2398 17.4356C31.1712 17.1194 31.0068 16.832 30.769 16.6126C30.5341 16.416 30.2348 16.3131 29.9287 16.3238C29.5598 16.3112 29.1951 16.4044 28.8775 16.5924C28.6652 16.7287 28.4651 16.8833 28.2797 17.0544C28.2653 17.0544 28.2537 17.0544 28.2422 17.0544C28.1979 16.9867 28.1434 16.9263 28.0805 16.8754C27.922 16.7462 27.7331 16.6597 27.5318 16.6241C27.32 16.5842 27.1015 16.5981 26.8965 16.6646C26.7867 16.7015 26.6859 16.7609 26.6004 16.839C26.5149 16.9171 26.4466 17.0121 26.3997 17.1179C26.1976 17.554 25.9839 18.0623 25.7673 18.6312C25.5507 19.2001 25.3341 19.7863 25.132 20.3899C25.1089 20.4563 25.0887 20.5227 25.0656 20.592C24.8945 21.1047 24.5736 21.5544 24.1443 21.8829C24.0317 21.9695 23.9162 22.0533 23.7949 22.1312C23.7198 22.1803 23.6447 22.2265 23.5697 22.267C23.5466 22.267 23.5235 22.267 23.5379 22.2294C23.6679 22.059 23.7949 21.8742 23.9191 21.6778C24.2005 21.2219 24.4337 20.738 24.6151 20.2339C24.8116 19.7233 24.9464 19.1911 25.0165 18.6485C25.0716 18.2386 25.054 17.8221 24.9645 17.4183C24.894 17.1028 24.73 16.816 24.4938 16.5952C24.2589 16.3986 23.9596 16.2958 23.6534 16.3065C23.277 16.3034 22.9078 16.4098 22.5907 16.6126C22.3793 16.7489 22.1802 16.9035 21.9958 17.0746C21.9943 17.0784 21.9917 17.0816 21.9884 17.0839C21.985 17.0861 21.9811 17.0873 21.977 17.0873C21.973 17.0873 21.969 17.0861 21.9657 17.0839C21.9623 17.0816 21.9598 17.0784 21.9583 17.0746C21.9138 17.0062 21.8581 16.9456 21.7936 16.8956C21.6362 16.7665 21.4483 16.68 21.2478 16.6443C21.036 16.6042 20.8175 16.6181 20.6125 16.6848C20.5023 16.7208 20.401 16.7798 20.3154 16.858C20.2297 16.9362 20.1617 17.0317 20.1158 17.1382C19.9137 17.5742 19.7 18.0825 19.4805 18.6514C19.261 19.2203 19.0762 19.7343 18.8856 20.2946C18.7521 20.702 18.52 21.07 18.2098 21.366C18.1261 21.4468 18.0452 21.519 17.9701 21.5854C17.8926 21.6634 17.7907 21.7123 17.6814 21.724C17.6438 21.724 17.5774 21.724 17.563 21.5479C17.5538 21.3065 17.5811 21.065 17.6438 20.8317C17.727 20.4994 17.8302 20.1725 17.9528 19.8527C18.0857 19.4946 18.2214 19.151 18.3542 18.8304C18.4871 18.5099 18.6112 18.2211 18.7152 17.9901C18.8192 17.759 18.8856 17.6031 18.9116 17.5367C18.9539 17.4469 18.968 17.3464 18.952 17.2484C18.936 17.1505 18.8907 17.0597 18.8221 16.988C18.6831 16.8293 18.4985 16.7174 18.2936 16.6674C18.0723 16.6153 17.842 16.6153 17.6207 16.6674C17.4996 16.6964 17.3858 16.7501 17.2864 16.8251C17.187 16.9002 17.1042 16.995 17.0432 17.1035L16.9507 17.2566C16.9486 17.2608 16.9452 17.2644 16.9412 17.2668C16.9371 17.2693 16.9324 17.2706 16.9276 17.2706C16.9229 17.2706 16.9182 17.2693 16.9141 17.2668C16.91 17.2644 16.9067 17.2608 16.9045 17.2566C16.8791 17.1305 16.8353 17.0089 16.7746 16.8956C16.6827 16.7253 16.5459 16.5834 16.379 16.4855C16.1767 16.3743 15.9483 16.3194 15.7176 16.3267C15.009 16.3657 14.3411 16.6698 13.8463 17.1786C13.237 17.7331 12.7316 18.6225 12.3446 19.8123C12.1754 20.3231 12.0687 20.8526 12.027 21.3891C11.9923 21.8027 12.0315 22.2193 12.1425 22.6193C12.23 22.9346 12.4088 23.2169 12.6565 23.4308C12.9005 23.6294 13.2086 23.7321 13.5229 23.7195C13.7576 23.7202 13.9905 23.6781 14.2102 23.5954C14.4147 23.5177 14.6087 23.4149 14.7878 23.2893C14.9204 23.1949 15.0433 23.0876 15.1545 22.9687C15.1726 22.9493 15.1955 22.935 15.221 22.9273C15.2464 22.9196 15.2734 22.9188 15.2992 22.925C15.3251 22.9312 15.3488 22.9441 15.368 22.9624C15.3872 22.9807 15.4013 23.0038 15.4086 23.0293C15.4431 23.1469 15.4947 23.2588 15.5617 23.3615C15.6478 23.4811 15.763 23.5767 15.8964 23.6394C16.0298 23.702 16.177 23.7296 16.3241 23.7195C16.7454 23.709 17.1514 23.5598 17.4792 23.295C17.6585 23.1623 17.8301 23.0197 17.9933 22.8676C18.0006 22.8585 18.0111 22.8523 18.0226 22.8502C18.0342 22.8481 18.0461 22.8502 18.0562 22.8562C18.0664 22.8621 18.074 22.8715 18.0778 22.8826C18.0816 22.8937 18.0814 22.9058 18.077 22.9167C17.9788 23.243 17.8922 23.5434 17.8113 23.8235C17.6785 24.2971 17.5716 24.7072 17.4908 25.0364C17.4313 25.2392 17.3907 25.447 17.3695 25.6573C17.3623 25.9109 17.4521 26.1578 17.6207 26.3475C17.772 26.5188 17.9635 26.6498 18.1781 26.7287C18.3047 26.7757 18.4386 26.8001 18.5737 26.8009C18.6427 26.8005 18.7114 26.7927 18.7787 26.7778C18.879 26.7583 18.9708 26.7081 19.0412 26.6341C19.1116 26.5601 19.1571 26.4659 19.1715 26.3648C19.1946 26.2146 19.235 26.0154 19.2957 25.767C19.3563 25.5187 19.4372 25.2154 19.5238 24.9007C19.6104 24.5859 19.7086 24.2278 19.827 23.8148L20.0003 23.2199C20.0047 23.2115 20.0113 23.2043 20.0194 23.1994C20.0276 23.1944 20.037 23.1918 20.0465 23.1918C20.056 23.1918 20.0654 23.1944 20.0736 23.1994C20.0817 23.2043 20.0883 23.2115 20.0927 23.2199C20.1198 23.2679 20.1497 23.3141 20.1822 23.3586C20.2903 23.4905 20.4287 23.5944 20.5856 23.6613C20.7425 23.7282 20.9132 23.7561 21.0832 23.7426H21.3258C21.8975 23.7473 22.4649 23.6434 22.9979 23.4365C23.4661 23.2523 23.9126 23.017 24.3292 22.7348C24.3376 22.7289 24.3476 22.7258 24.3579 22.7258C24.3681 22.7259 24.3781 22.7292 24.3864 22.7353C24.3947 22.7414 24.4008 22.7499 24.4041 22.7596C24.4073 22.7694 24.4073 22.7799 24.4042 22.7897C24.2916 23.1651 24.1877 23.5174 24.0981 23.8408C23.9653 24.3202 23.8556 24.7274 23.7776 25.0537C23.7163 25.2561 23.6757 25.4641 23.6563 25.6746C23.6491 25.9283 23.739 26.1751 23.9075 26.3648C24.0573 26.5366 24.248 26.6677 24.462 26.746C24.5888 26.7924 24.7226 26.8168 24.8576 26.8182C24.9266 26.8181 24.9954 26.8104 25.0627 26.7951C25.1633 26.7758 25.2555 26.7257 25.3264 26.6517C25.3972 26.5777 25.4434 26.4835 25.4583 26.3821C25.4785 26.232 25.5218 26.0327 25.5825 25.7843C25.6431 25.536 25.7211 25.2328 25.8077 24.918C25.8944 24.6032 25.9954 24.2451 26.0965 23.8322C26.1514 23.6416 26.2091 23.4423 26.2698 23.2373C26.2742 23.2288 26.2808 23.2217 26.2889 23.2167C26.2971 23.2117 26.3065 23.2091 26.316 23.2091C26.3255 23.2091 26.3349 23.2117 26.3431 23.2167C26.3512 23.2217 26.3578 23.2288 26.3622 23.2373C26.3911 23.2835 26.42 23.3297 26.4546 23.3759C26.5619 23.508 26.6997 23.612 26.8562 23.6789C27.0127 23.7458 27.1831 23.7737 27.3527 23.76H27.5982C28.169 23.7647 28.7354 23.6608 29.2674 23.4539C29.8148 23.2414 30.3315 22.9569 30.8037 22.6077C30.8788 22.55 30.9539 22.4922 31.0232 22.4345C31.0306 22.4287 31.0395 22.425 31.0489 22.4239C31.0582 22.4228 31.0677 22.4242 31.0763 22.4281C31.0849 22.4319 31.0923 22.4381 31.0977 22.4458C31.1031 22.4535 31.1063 22.4626 31.1069 22.472V22.5298C31.0926 22.8343 31.1701 23.1361 31.3293 23.3961C31.4154 23.5157 31.5306 23.6114 31.664 23.674C31.7974 23.7367 31.9446 23.7643 32.0917 23.7542C32.5125 23.7416 32.9179 23.5926 33.2468 23.3297C33.6211 23.0543 33.9647 22.7397 34.272 22.3911C34.5639 22.0618 34.8349 21.7146 35.0835 21.3515C35.3116 21.0079 35.4676 20.7739 35.5571 20.6353C35.5901 20.5847 35.6077 20.5255 35.6077 20.4649C35.6077 20.4044 35.5901 20.3452 35.5571 20.2946L35.5455 20.231ZM16.1306 18.4666C16.0989 18.7586 16.0468 19.0481 15.9747 19.3329C15.8896 19.6653 15.7845 19.9922 15.6599 20.3119C15.527 20.6498 15.3884 20.9645 15.2411 21.2533C15.1197 21.5016 14.9777 21.7392 14.8166 21.9637C14.7076 22.1189 14.5774 22.2579 14.4297 22.3767C14.3878 22.415 14.3356 22.4401 14.2795 22.4489H14.2564C14.242 22.4489 14.1871 22.4056 14.1582 22.2352C14.133 22.0358 14.133 21.834 14.1582 21.6345C14.1845 21.3499 14.2337 21.0679 14.3055 20.7913C14.3892 20.4585 14.4943 20.1315 14.6203 19.8123C14.7531 19.4715 14.909 19.1568 15.039 18.8738C15.1618 18.622 15.3047 18.3805 15.4664 18.1518C15.5722 17.9933 15.7017 17.8521 15.8505 17.7331C15.8924 17.6948 15.9446 17.6696 16.0006 17.6609H16.0209C16.0382 17.6609 16.0959 17.7042 16.1306 17.8774C16.1617 18.0774 16.1617 18.281 16.1306 18.481V18.4666ZM22.9315 18.481C22.8791 18.7669 22.8097 19.0495 22.7235 19.3271C22.6242 19.6601 22.5056 19.9869 22.3683 20.3061C22.2124 20.6469 22.0536 20.9617 21.8918 21.2476C21.7529 21.4988 21.5965 21.74 21.424 21.9695C21.306 22.1271 21.1682 22.2688 21.0139 22.3911C20.9689 22.4315 20.9123 22.4568 20.8522 22.4633H20.8291C20.8147 22.4633 20.7627 22.42 20.7396 22.2525C20.7219 22.0508 20.7326 21.8477 20.7713 21.649C20.8257 21.3616 20.8951 21.0772 20.9793 20.797C21.0802 20.4624 21.1998 20.1336 21.3374 19.8123C21.4732 19.4912 21.6284 19.1788 21.8023 18.8766C21.9444 18.6274 22.1046 18.389 22.2817 18.1633C22.3988 18.0067 22.5368 17.8668 22.6918 17.7475C22.7368 17.7071 22.7933 17.6818 22.8535 17.6753H22.8737C22.891 17.6753 22.943 17.7186 22.9661 17.8861C22.984 18.085 22.9723 18.2855 22.9315 18.481ZM29.2183 18.481C29.1632 18.7663 29.0938 19.0488 29.0104 19.3271C28.9095 19.6599 28.7899 19.9868 28.6523 20.3061C28.4992 20.6469 28.3375 20.9617 28.1787 21.2476C28.0398 21.4995 27.8825 21.7408 27.7079 21.9695C27.5907 22.1277 27.4528 22.2696 27.2979 22.3911C27.2528 22.4315 27.1963 22.4568 27.1361 22.4633H27.113C27.113 22.4633 27.0466 22.42 27.0235 22.2525C27.0055 22.0507 27.0172 21.8474 27.0582 21.649C27.1095 21.3609 27.1789 21.0764 27.2661 20.797C27.367 20.4624 27.4866 20.1336 27.6242 19.8123C27.7576 19.4902 27.913 19.1775 28.0891 18.8766C28.2313 18.6282 28.3905 18.3898 28.5656 18.1633C28.6827 18.0067 28.8207 17.8668 28.9757 17.7475C29.0213 17.708 29.0776 17.6829 29.1374 17.6753H29.1605C29.175 17.6753 29.2269 17.7186 29.25 17.8861C29.2679 18.0849 29.2572 18.2852 29.2183 18.481Z" fill="white"/>
</svg>
