<svg width="40" height="40" viewBox="0 0 40 40" fill="none" xmlns="http://www.w3.org/2000/svg">
<rect width="40" height="40" fill="white"/>
<path d="M8.2867 20.6491C8.2867 21.3754 7.86752 21.7938 7.03915 21.7938C6.31289 21.7938 5.9129 21.4683 5.65264 21.4683C5.46225 21.4805 5.31485 21.641 5.31792 21.8314C5.31792 22.3381 6.43572 22.5246 7.02994 22.5246C8.20225 22.5246 9.06824 21.8176 9.06824 20.5884C9.06824 18.9593 7.53049 18.9401 6.63917 18.4749C6.42497 18.3628 6.09946 18.1578 6.09946 17.5437C6.09946 16.7337 6.66911 16.5011 7.26332 16.5011C7.89593 16.5011 8.13853 16.7614 8.42719 16.7614C8.4341 16.7621 8.44178 16.7621 8.44869 16.7621C8.64369 16.7614 8.8003 16.6024 8.79953 16.4082C8.79953 15.8869 7.67329 15.7756 7.20805 15.7756C6.05263 15.7756 5.32636 16.465 5.32636 17.5913C5.32636 19.2396 6.87102 19.248 7.75543 19.7132C7.98729 19.8345 8.28593 20.0472 8.2867 20.6491Z" fill="#17C981"/>
<path d="M12.682 19.2831V19.8205C12.3765 19.7329 12.0602 19.6884 11.7424 19.6899C10.6437 19.6899 10.104 20.1552 10.104 21.0672V21.1049C10.104 21.9424 10.5693 22.5106 11.5282 22.5106C12.0018 22.519 12.4594 22.3409 12.8041 22.0154C12.9231 22.2941 13.1949 22.476 13.4974 22.4806C13.7023 22.4806 13.9165 22.3962 13.9165 22.1635C13.9165 22.0054 13.8236 21.8465 13.6463 21.8465C13.6095 21.8465 13.5995 21.8557 13.5718 21.8557C13.4605 21.8557 13.4045 21.7628 13.4045 21.5762V19.528C13.4045 18.2981 12.9392 17.6463 11.7754 17.6463C11.1328 17.6463 10.4342 17.8236 10.4718 18.2512C10.481 18.391 10.5547 18.5583 10.732 18.5583C10.8165 18.5491 10.8986 18.5238 10.9739 18.4839C11.1858 18.351 11.4314 18.2827 11.6809 18.2858C12.3512 18.2858 12.6774 18.6029 12.6774 19.2823L12.682 19.2831ZM10.8149 21.0703C10.8149 20.6511 10.9647 20.298 11.727 20.3018C12.0487 20.3049 12.368 20.3517 12.6767 20.4415V21.4381C12.3949 21.7037 12.021 21.8503 11.6341 21.848C11.013 21.848 10.8149 21.5409 10.8149 21.1033V21.0657V21.0703Z" fill="#17C981"/>
<path d="M17.9166 18.1437C17.9273 18.1076 17.9335 18.07 17.9358 18.0316C17.9358 17.8313 17.773 17.6685 17.5726 17.6685C17.4214 17.6716 17.2893 17.7698 17.2425 17.9142L16.2276 21.4419L15.0637 17.9142C15.0207 17.7645 14.8848 17.6608 14.729 17.6585C14.534 17.6562 14.3735 17.8121 14.3705 18.0071C14.3666 18.0516 14.3735 18.0961 14.3897 18.1376L15.869 22.41C15.5896 23.2752 15.3293 23.5922 14.7428 23.6199C14.5532 23.6222 14.4004 23.775 14.3981 23.9646C14.3981 23.9715 14.3981 23.9792 14.3989 23.9861C14.4096 24.1803 14.5762 24.3293 14.7704 24.3185C15.9804 24.2909 16.3343 23.2944 16.7811 21.8426L17.9166 18.1437Z" fill="#17C981"/>
<path d="M22.2236 22.4292C22.4178 22.4061 22.556 22.2303 22.533 22.0361C22.5099 21.8419 22.3341 21.7037 22.1399 21.7267H19.5818C20.0471 20.7402 21.0336 20.0423 21.7975 19.1856C22.2397 18.7226 22.4808 18.1031 22.4677 17.4636C22.4677 16.4732 21.7791 15.6809 20.5968 15.6809C20.0102 15.6809 19.5174 15.793 19.0329 16.1001C18.8755 16.2022 18.7911 16.3051 18.7911 16.454C18.7949 16.6459 18.9523 16.7995 19.145 16.7987C19.3124 16.7987 19.4705 16.6375 19.7039 16.5385C19.9811 16.4164 20.2812 16.3557 20.5845 16.3603C21.3484 16.3603 21.7391 16.8816 21.7391 17.5603C21.7391 18.0493 21.4973 18.4355 21.2271 18.7426C20.4271 19.6646 19.254 20.4738 18.7512 21.6753C18.7089 21.7912 18.6898 21.9148 18.6959 22.0384C18.6959 22.0469 18.6951 22.0545 18.6959 22.063C18.6997 22.2695 18.8709 22.4338 19.0775 22.4299H22.1407C22.1683 22.4322 22.1959 22.4323 22.2236 22.4292Z" fill="#17C981"/>
<path d="M25.3119 21.8618C24.6416 21.8618 24.2969 21.5263 24.2969 21.005V20.4553C24.6109 20.5091 24.928 20.5375 25.2466 20.5398C26.3537 20.5398 26.8197 20.0185 26.8197 19.1625C26.8197 18.2397 26.3076 17.6455 25.275 17.6455C24.1657 17.6455 23.5714 18.328 23.5714 19.2193V20.9605C23.5714 21.8349 24.1764 22.5052 25.2282 22.5052C25.731 22.5052 26.7367 22.3562 26.7367 21.9002C26.7344 21.7213 26.5901 21.5762 26.4112 21.5747C26.3659 21.5739 26.3214 21.5831 26.2807 21.6023C25.9537 21.7497 25.7034 21.8618 25.3119 21.8618ZM26.1034 19.161C26.1034 19.5433 25.9813 19.9249 25.2742 19.9249C24.9472 19.921 24.6209 19.8995 24.2969 19.8596V19.1525C24.2969 18.6312 24.6509 18.3057 25.2558 18.3057C25.7963 18.305 26.1034 18.5598 26.1034 19.161Z" fill="#17C981"/>
<path d="M30.3326 19.2831V19.8205C30.0271 19.7329 29.7108 19.6884 29.3929 19.6899C28.2943 19.6899 27.7546 20.1552 27.7546 21.0672V21.1049C27.7546 21.9424 28.2198 22.5106 29.1787 22.5106C29.6524 22.519 30.11 22.3409 30.4547 22.0154C30.5737 22.2941 30.8455 22.476 31.1479 22.4806C31.3529 22.4806 31.5671 22.3962 31.5671 22.1635C31.5671 22.0054 31.4742 21.8465 31.2969 21.8465C31.26 21.8465 31.25 21.8557 31.2224 21.8557C31.1111 21.8557 31.055 21.7628 31.055 21.5762V19.528C31.055 18.2981 30.5898 17.6463 29.4259 17.6463C28.7834 17.6463 28.0847 17.8236 28.1223 18.2512C28.1316 18.391 28.2053 18.5583 28.3826 18.5583C28.4671 18.5491 28.5492 18.5238 28.6244 18.4839C28.8363 18.351 29.082 18.2827 29.3315 18.2858C30.0017 18.2858 30.328 18.6029 30.328 19.2823L30.3326 19.2831ZM28.4663 21.0703C28.4663 20.6511 28.6175 20.298 29.3783 20.3018C29.7 20.3041 30.0194 20.3517 30.328 20.4415V21.4381C30.0463 21.7037 29.6724 21.8503 29.2854 21.848C28.6644 21.848 28.4663 21.5409 28.4663 21.1033V21.0657V21.0703Z" fill="#17C981"/>
<path d="M32.5307 16.6482V20.5452C32.5307 21.8296 32.8477 22.4722 34.1506 22.4722C34.4108 22.4722 34.6811 22.4353 34.6811 22.1182C34.6811 21.8211 34.4108 21.7835 34.1966 21.7835C34.1398 21.7835 34.0746 21.7927 34.0193 21.7927C33.3491 21.7927 33.2554 21.4388 33.2554 20.4807V18.629H34.2243C34.4154 18.629 34.5705 18.4739 34.5705 18.2827C34.5705 18.0916 34.4154 17.9365 34.2243 17.9365H33.2554V16.6482C33.2454 16.4624 33.0973 16.3143 32.9115 16.3043C32.7119 16.2943 32.5414 16.4479 32.5307 16.6482Z" fill="#17C981"/>
</svg>
