<svg width="40" height="40" viewBox="0 0 40 40" fill="none" xmlns="http://www.w3.org/2000/svg">
<rect width="40" height="40" fill="black"/>
<path d="M27.3536 11.901C27.3376 11.7892 27.2418 11.7254 27.1619 11.7254C27.0821 11.7254 25.5012 11.6934 25.5012 11.6934C25.5012 11.6934 24.1757 10.4159 24.048 10.2722C23.9202 10.1444 23.6647 10.1764 23.5689 10.2083C23.5689 10.2083 23.3134 10.2882 22.8982 10.4159C22.8343 10.1923 22.7226 9.92087 22.5788 9.63343C22.1157 8.73916 21.4131 8.26009 20.5827 8.26009C20.5188 8.26009 20.4709 8.26009 20.4071 8.27606C20.3751 8.24413 20.3591 8.21219 20.3272 8.19622C19.9599 7.81296 19.4968 7.62134 18.9379 7.63731C17.868 7.66924 16.7981 8.45172 15.9198 9.82505C15.313 10.7992 14.8499 12.0128 14.7061 12.955C13.4765 13.3382 12.6142 13.6097 12.5823 13.6097C11.9595 13.8013 11.9435 13.8173 11.8637 14.4081C11.8317 14.8553 10.2029 27.4548 10.2029 27.4548L23.8723 29.8182L29.7968 28.3491C29.7808 28.3491 27.3695 12.0128 27.3536 11.901ZM22.2115 10.6395C21.8922 10.7353 21.5408 10.8471 21.1576 10.9748C21.1576 10.4319 21.0777 9.66536 20.8382 9.02661C21.6526 9.15436 22.0519 10.0806 22.2115 10.6395ZM20.439 11.1824C19.7204 11.406 18.9379 11.6455 18.1554 11.8851C18.379 11.0387 18.7942 10.2083 19.3052 9.64939C19.4968 9.4418 19.7683 9.21823 20.0717 9.09048C20.3911 9.71327 20.455 10.5916 20.439 11.1824ZM18.9698 8.35591C19.2253 8.35591 19.4329 8.40382 19.6086 8.53157C19.3212 8.67529 19.0337 8.89885 18.7782 9.1863C18.0916 9.92087 17.5646 11.0547 17.357 12.1565C16.7023 12.3641 16.0635 12.5557 15.4886 12.7314C15.8719 10.9908 17.325 8.40382 18.9698 8.35591Z" fill="#95BF47"/>
<path d="M27.1619 11.7254C27.0821 11.7254 25.5012 11.6934 25.5012 11.6934C25.5012 11.6934 24.1757 10.4159 24.048 10.2722C24.0001 10.2243 23.9367 10.1923 23.8728 10.1923L23.8723 29.8182L29.7968 28.3491C29.7968 28.3491 27.386 12.0128 27.37 11.901C27.3381 11.7892 27.2418 11.7254 27.1619 11.7254Z" fill="#5E8E3E"/>
<path d="M20.5837 14.7754L19.897 17.3464C19.897 17.3464 19.1305 16.9951 18.2203 17.059C16.8789 17.1388 16.8789 17.9852 16.8789 18.1928C16.9587 19.3426 19.9769 19.5981 20.1525 22.2968C20.2803 24.4207 19.0347 25.8739 17.2143 25.9857C15.0425 26.0974 13.8448 24.8199 13.8448 24.8199L14.3079 22.8557C14.3079 22.8557 15.5215 23.766 16.4797 23.7021C17.1025 23.6702 17.342 23.1432 17.3101 22.7919C17.2143 21.2908 14.755 21.3866 14.5953 18.9114C14.4676 16.8354 15.825 14.7435 18.8271 14.5519C19.9929 14.472 20.5837 14.7754 20.5837 14.7754Z" fill="white"/>
</svg>
