<svg width="40" height="40" viewBox="0 0 40 40" fill="none" xmlns="http://www.w3.org/2000/svg">
<rect width="40" height="40" fill="#EA1D2C"/>
<path d="M17.923 16.9779C17.2695 16.0175 16.546 14.6121 15.9392 12.5976C16.0559 12.5273 16.1959 12.4336 16.2892 12.3165C16.9661 11.6372 16.9661 10.5128 16.2892 9.83349C15.6124 9.15418 14.4921 9.15418 13.8153 9.83349C13.6519 9.99746 13.5352 10.1614 13.4652 10.3723C13.1151 10.0209 12.6484 9.81007 12.1349 9.81007C11.0847 9.81007 10.2445 10.6533 10.2445 11.7074C10.2445 11.9885 10.3145 12.2462 10.4078 12.4805C9.45093 12.5273 8.72742 13.3003 8.72742 14.2373C8.72742 15.1977 9.52094 15.9941 10.4778 15.9941C10.7346 15.9941 10.968 15.9473 11.2013 15.8301C11.8082 16.5329 13.0451 18.0086 14.1421 19.4844C14.4455 19.0627 14.8422 18.6411 15.2857 18.2429L13.6053 15.5256C13.5819 15.5022 13.6053 15.4788 13.6286 15.4788C13.6519 15.4554 13.6753 15.4788 13.6986 15.4788L15.5657 18.0555C15.6824 17.9618 15.8225 17.8681 15.9625 17.7978C16.0559 17.7509 16.1492 17.6807 16.2192 17.6338L15.0289 15.6193C15.0289 15.5959 15.0289 15.5725 15.0523 15.5725C15.0756 15.5491 15.099 15.5725 15.099 15.5725L16.4993 17.4699C16.9661 17.2356 17.4562 17.0716 17.923 16.9779ZM17.6662 18.4303C17.6662 18.2194 17.853 18.032 18.063 18.032C18.1564 18.032 18.2497 18.0789 18.3197 18.1257H18.2731C18.1564 18.1257 18.063 18.2194 18.063 18.3366C18.063 18.4537 18.1564 18.5474 18.2731 18.5474C18.3431 18.5474 18.4131 18.5005 18.4598 18.4303C18.4598 18.6411 18.2731 18.8285 18.063 18.8285C17.8296 18.8285 17.6662 18.6645 17.6662 18.4303ZM31.2729 17.9852V17.4933C27.702 19.4141 24.5746 20.515 22.2174 21.1475C21.2838 20.679 20.1635 20.4448 19.23 20.7024C17.8763 21.0772 17.0828 20.9835 16.616 20.679C16.7327 20.6556 16.826 20.5853 16.9194 20.515C17.0361 20.4448 17.1528 20.3511 17.2695 20.3745C17.3862 20.3979 17.4562 20.4682 17.5029 20.5385C17.5729 20.6322 17.6429 20.7259 17.7829 20.7259H17.8296C18.063 20.7259 18.1564 20.5385 18.203 20.4448C18.2264 20.3745 18.203 20.3276 18.133 20.3042C18.0864 20.2808 18.0163 20.3042 17.9697 20.3511C17.9697 20.3511 17.8996 20.4448 17.7829 20.4213C17.7363 20.3979 17.7129 20.3511 17.6896 20.2808C17.6429 20.1637 17.5729 20.0231 17.3628 19.9294C17.3162 19.906 17.2461 19.906 17.1995 19.906C17.0594 19.906 16.9427 19.9528 16.826 19.9997C16.7094 20.0465 16.5927 20.0934 16.5226 20.07C16.2426 19.9997 16.0792 19.8591 16.0325 19.6015C15.9858 19.2033 16.0792 18.8519 16.0792 18.8519C16.0792 18.8519 16.686 20.1637 19.7901 19.8826C19.7901 19.8826 19.5567 19.7186 19.6034 19.3672C19.9301 19.2033 20.0468 18.7816 19.8601 18.4771C19.6967 18.1492 19.2766 18.032 18.9732 18.2194C18.7165 17.9618 18.4131 17.6338 18.063 17.1653C17.4329 17.423 16.7794 17.7509 16.1492 18.1492C15.4257 18.5942 14.7956 19.1096 14.2588 19.6249C14.8422 20.4213 15.3557 21.1943 15.7058 21.8502C17.0361 24.3332 18.6932 29.7208 16.9894 30.8452C15.5657 31.8056 14.6322 29.7443 14.6322 29.7443L14.002 30.283L12.6017 28.7839L11.6681 29.5803L12.1116 30.1425C12.1116 30.1425 11.108 30.119 10.5245 30.7281C9.75433 31.5245 10.6412 33.0705 10.6412 33.0705L11.4581 32.8831C11.4581 32.8831 11.2013 30.8921 12.6717 31.4074L12.0882 31.8993C12.0882 31.8993 16.7794 36.2328 18.9732 31.2434C18.9266 31.3137 18.8799 31.384 18.8565 31.4542C18.6698 31.7822 18.5298 32.0164 18.5298 32.0164C18.6465 31.829 18.7632 31.6416 18.8565 31.4542C19.0199 31.1497 19.1366 30.8218 19.2533 30.5173C19.37 30.1893 19.4634 29.8145 19.5567 29.3929C19.58 29.2758 19.6034 29.1352 19.6267 29.0181C19.7434 28.3856 22.5441 29.7443 23.9444 32.4615L24.4579 32.0867L25.7182 33.6796L26.6984 32.9534L26.3017 32.3444C26.3017 32.3444 27.3053 32.4381 27.9354 31.8759C28.7756 31.1263 28.0054 29.5334 28.0054 29.5334L27.1886 29.7208C27.1886 29.7208 27.2819 31.6885 25.9049 31.1029L26.6051 30.611C26.6051 30.611 25.6482 28.3388 23.3843 27.9874C22.8942 27.9406 23.1742 27.8703 23.501 27.8235C23.8277 27.3315 24.7146 25.7855 24.2945 23.9116H23.5944C22.8008 23.9116 22.0073 23.8647 21.2371 23.7944C21.2138 23.7944 21.1904 23.771 21.1904 23.7242C21.1904 23.7008 21.2138 23.6773 21.2605 23.6773H21.6339C23.2676 23.6773 24.7613 23.4899 25.9749 23.2323C26.0449 22.9277 26.115 22.4827 26.1383 22.0142C26.1383 21.9205 26.1616 21.8502 26.1616 21.7565C26.185 21.1943 26.2783 21.5691 26.3484 21.9205C27.0719 21.7565 28.3322 21.1943 28.3088 19.4141C29.2424 19.0159 30.246 18.5474 31.2729 17.9852Z" fill="white"/>
<path d="M12.5082 22.8583C12.2048 23.0223 11.8314 22.9052 11.668 22.6007C11.5046 22.2961 11.6213 21.9214 11.9247 21.7574C12.2281 21.5934 12.6016 21.7105 12.7649 22.0151C12.9283 22.3196 12.8116 22.6944 12.5082 22.8583ZM13.5818 24.9197C13.8852 24.7557 14.2586 24.8728 14.422 25.1774C14.5854 25.4819 14.4687 25.8567 14.1653 26.0206C13.8619 26.1846 13.4884 26.0675 13.3251 25.763C13.1617 25.4584 13.2784 25.0837 13.5818 24.9197ZM13.045 23.889C12.1814 24.3575 11.8547 25.4116 12.2981 26.2783C12.7416 27.145 13.8152 27.4964 14.7021 27.0279C15.5656 26.5828 15.8923 25.5287 15.4722 24.662L15.4489 24.6152L14.8654 23.4908L15.5656 23.1394L15.0988 22.2493L14.422 22.6007L13.8385 21.4763L13.8152 21.4294C13.3484 20.5862 12.2981 20.2582 11.4346 20.7267C10.5711 21.1952 10.221 22.2493 10.6878 23.1394C11.1079 24.0061 12.1581 24.3341 13.045 23.889Z" fill="white"/>
<path d="M21.1211 14.121C20.3509 14.121 20.0708 14.6364 20.0708 15.058C20.0708 15.4796 20.4443 16.1355 20.9577 16.1355C21.2144 16.1355 21.4245 16.0184 21.5179 15.8076C21.5879 15.6436 21.5412 15.4562 21.4012 15.2922C21.3778 15.2688 21.3545 15.2688 21.3311 15.2922C21.3078 15.3157 21.3078 15.3391 21.3078 15.3625C21.3311 15.4094 21.3545 15.4796 21.3311 15.5031C21.3311 15.5265 21.3078 15.5265 21.2611 15.5265C21.1911 15.5265 21.1444 15.4796 21.1211 15.4328C21.0977 15.3625 21.0977 15.2922 21.1211 15.222C21.1678 15.1517 21.2611 15.1048 21.4012 15.1048H21.4245C21.6579 15.1048 21.9613 15.3157 22.1013 15.5968C22.1713 15.7373 22.2647 16.0652 22.0546 16.3698C22.0313 16.3932 22.0313 16.4166 22.0546 16.44C22.0546 16.44 22.078 16.4635 22.1013 16.4635H22.1247C22.148 16.4635 22.5448 16.1824 22.5448 15.4796C22.5214 14.7769 21.8679 14.121 21.1211 14.121ZM23.1049 10.3965C22.9649 10.3965 22.8248 10.42 22.6848 10.4668C22.1247 10.6776 21.7279 11.3335 22.0546 12.1768C22.2414 12.6687 22.5448 12.7155 22.6615 12.7155C22.8248 12.7155 22.9649 12.6453 23.0349 12.5282C23.1049 12.4345 23.1282 12.3173 23.0816 12.2236C23.0816 12.2002 23.0349 12.1768 23.0115 12.1768C22.9882 12.1768 22.9649 12.2002 22.9649 12.2236C22.9649 12.2236 22.9415 12.3173 22.8482 12.3408C22.7315 12.3642 22.6615 12.2236 22.6381 12.1065C22.6148 11.966 22.6848 11.8254 22.8715 11.7786H22.9415C23.0816 11.7786 23.1983 11.8723 23.2216 11.966C23.3383 12.2939 23.1983 12.7155 23.0582 13.1606C22.8949 13.6759 22.7081 14.1913 22.8949 14.6832C23.1049 15.222 23.6417 15.3391 24.0851 15.3391C24.3885 15.3391 24.6219 15.2922 24.6453 15.2688C24.6686 15.2688 24.692 15.2454 24.692 15.1985C24.692 15.1751 24.6686 15.1517 24.6453 15.1517C24.6453 15.1517 23.5483 15.0814 23.3616 14.5427C23.2216 14.1679 23.525 13.7228 23.8518 13.2543C24.2485 12.6921 24.692 12.0831 24.4352 11.4272C24.0618 10.4902 23.385 10.3965 23.1049 10.3965ZM28.0294 14.0507C28.0294 14.0273 28.0061 14.0039 27.9594 14.0039H27.9361C27.7727 14.0039 26.8858 13.957 26.4657 12.8327C26.139 11.966 26.5591 11.4038 27.0025 10.8182C27.4693 10.2091 27.9594 9.55325 27.5627 8.49915C27.2126 7.5856 26.3957 6.99998 25.4155 6.99998C25.1821 6.99998 24.9253 7.02341 24.7153 7.11711C24.2485 7.25765 23.8984 7.53875 23.7117 7.91354C23.5483 8.24148 23.5017 8.66312 23.6184 9.01449C23.7817 9.48298 24.5052 10.1857 25.2288 10.1857C25.3921 10.1857 25.5322 10.1623 25.6722 10.092C26.1156 9.85777 26.1623 9.55325 26.139 9.36585C26.1156 9.06134 25.9056 8.80367 25.7189 8.73339C25.6955 8.73339 25.6722 8.73339 25.6489 8.75682C25.6255 8.78024 25.6255 8.80367 25.6489 8.82709C25.6722 8.87394 25.7655 8.99106 25.7422 9.08476C25.7422 9.10818 25.6955 9.15503 25.6489 9.15503C25.5555 9.17846 25.4855 9.08476 25.4855 9.06134C25.3921 8.82709 25.3921 8.61627 25.5088 8.4523C25.6255 8.28833 25.8356 8.19463 26.0923 8.19463C26.4657 8.19463 26.8858 8.38203 27.0492 8.82709C27.446 9.88119 26.5357 10.8182 25.7422 11.6146C25.0887 12.2939 24.5052 12.9029 24.7153 13.4886C24.902 14.0039 25.5088 14.285 26.4657 14.285C27.2126 14.285 27.9127 14.121 27.9127 14.121C28.0061 14.0976 28.0294 14.0742 28.0294 14.0507ZM28.823 15.6202C28.823 15.1985 28.7529 14.8003 28.6129 14.4255C26.6991 14.9877 24.3652 15.8778 21.7979 17.1896C22.3814 18.4545 23.665 19.3212 25.1354 19.3212C27.1659 19.2978 28.823 17.6581 28.823 15.6202Z" fill="white"/>
</svg>
