<svg width="40" height="40" viewBox="0 0 40 40" fill="none" xmlns="http://www.w3.org/2000/svg">
<rect width="40" height="40" fill="#EF8633"/>
<path d="M26.9999 14.0338C27.0403 13.9529 26.9999 13.8314 26.9594 13.7505C26.8784 13.6695 26.7975 13.6291 26.6761 13.6291H23.8428L20.362 25.3667L19.0264 19.6598L23.0738 14.1552C23.1143 14.1148 23.1143 14.0743 23.1143 14.0338L23.1952 13.791C23.2357 13.71 23.1548 13.6291 23.1143 13.6291H20.2001L17.1241 18.1217L18.4597 14.0338C18.5002 13.8719 18.4193 13.6695 18.2169 13.6291C18.1764 13.6291 18.1359 13.6291 18.1359 13.6291H15.3027L12.8338 22.0073C12.8742 20.5502 11.7814 19.4574 11.1338 18.7289C10.6077 18.1622 10.2839 17.717 10.3648 17.2718C10.4458 16.6242 10.9719 16.1385 11.6195 16.1385C12.3481 16.098 12.6314 16.3004 13.0766 16.5028C13.1171 16.5432 13.198 16.5432 13.2385 16.5432C13.279 16.5432 13.3195 16.5432 13.3599 16.5028C13.4409 16.4623 13.5218 16.3813 13.5623 16.3004L14.2099 14.0743L13.7647 13.8719L13.6837 13.8314H13.6433C13.1171 13.5886 12.51 13.4672 11.9028 13.5076C9.39343 13.5076 7.12685 15.2885 6.76258 17.4741C6.51974 19.0122 7.49112 20.105 8.21967 20.874L8.30062 20.955C8.82679 21.5216 9.19106 21.9263 9.11011 22.4525C8.98868 23.1406 8.30061 23.5453 7.65302 23.6263C6.92448 23.6667 6.47926 23.4644 5.91262 23.2215C5.83167 23.1811 5.71024 23.1406 5.58882 23.1811C5.4674 23.2215 5.38645 23.3025 5.34597 23.4239L4.69838 25.5691L4.61743 25.8524C4.61743 25.8524 5.87214 26.5 7.28875 26.5C9.4339 26.5 11.2553 25.6905 12.3481 23.7072L11.7005 25.8928C11.66 25.9738 11.7005 26.0952 11.741 26.1762C11.8219 26.2571 11.9029 26.2976 12.0243 26.2976H14.8575L15.586 23.8691L16.436 22.6144L17.0836 26.0143C17.1241 26.1762 17.2455 26.2976 17.4074 26.2976H23.3976L26.9999 14.0338Z" fill="white"/>
<path d="M34.6082 14.5599C34.0416 13.9528 33.2726 13.5886 32.4226 13.629H27.6871L27.4847 14.2766C27.4847 14.3576 27.4847 14.398 27.5252 14.479L27.6466 14.6814C27.768 14.8837 27.8085 15.1266 27.7275 15.3694L24.6515 25.7714C24.611 25.9333 24.692 26.1357 24.8539 26.1761C24.8943 26.1761 24.8943 26.1761 24.9348 26.1761H27.6871L28.537 23.262H29.7918C32.7869 23.3024 34.2844 21.1978 34.9725 18.9312C35.2558 18.0003 35.3772 17.3122 35.3772 16.867C35.4177 15.9361 35.1749 15.2075 34.6082 14.5599ZM32.3416 17.2313C32.3012 17.8384 32.0988 18.5669 31.8155 19.174C31.4512 19.9431 31.1274 20.5502 30.1965 20.6311H29.387L30.6417 16.3408H31.6941C31.856 16.3408 31.9774 16.3813 32.0988 16.5027C32.2607 16.6646 32.3416 16.9075 32.3416 17.2313Z" fill="white"/>
</svg>
