<svg width="40" height="40" viewBox="0 0 40 40" fill="none" xmlns="http://www.w3.org/2000/svg">
<rect width="40" height="40" fill="white"/>
<path d="M17.3569 13.3674C16.243 13.3674 13.9408 13.3674 13.5546 13.3674H13.3467V13.8126C13.3615 15.9492 13.8071 17.7001 15.129 19.2284C16.6737 20.9942 18.9016 21.5135 20.877 22.567C21.5751 22.938 22.3772 23.4276 22.3772 24.3327C22.3772 25.4901 21.486 26.2023 19.6888 26.2023C18.0847 26.2023 16.3172 25.3714 14.9211 24.1992L12.4407 27.1816C14.3864 29.0216 17.0599 29.9564 19.57 29.9564C24.1892 29.9564 26.8478 27.1816 26.8478 23.9915C26.8478 23.2199 26.729 22.4335 26.4171 21.7212C26.0012 20.7568 25.2735 20 24.3971 19.451C24.3823 19.4362 24.3526 19.4213 24.3377 19.4065C23.3872 18.7981 22.3772 18.4569 21.3375 18.0711C21.0998 17.9821 20.877 17.893 20.6394 17.804C19.0799 17.1808 17.7431 16.2608 17.4163 14.5396C17.4163 14.51 17.3569 14.0797 17.3569 13.7977V13.3674Z" fill="#1F1D30"/>
<path d="M19.6735 12.67C19.6735 14.5396 21.1884 16.0531 23.0599 16.0531C24.9313 16.0531 26.4463 14.5396 26.4463 12.67C26.4463 10.8004 24.9313 9.28693 23.0599 9.28693C21.1884 9.28693 19.6735 10.8004 19.6735 12.67Z" fill="#D092DD"/>
</svg>
