<svg width="40" height="40" viewBox="0 0 40 40" fill="none" xmlns="http://www.w3.org/2000/svg">
<rect width="40" height="40" fill="#C82F32"/>
<path d="M33.6363 20C33.6363 27.5312 27.531 33.6364 19.9999 33.6364C12.4687 33.6364 6.36353 27.5312 6.36353 20C6.36353 12.4688 12.4687 6.36363 19.9999 6.36363C27.531 6.36363 33.6363 12.4688 33.6363 20Z" fill="white"/>
<path d="M19.8688 25.2945C19.0446 25.2945 18.2446 25.1927 17.4688 24.9891C16.6931 24.7854 16.0628 24.5139 15.5779 24.1745L16.5234 22.0509C16.9791 22.3515 17.5076 22.5939 18.1088 22.7782C18.7101 22.9624 19.3016 23.0545 19.8834 23.0545C20.9888 23.0545 21.5416 22.7782 21.5416 22.2254C21.5416 21.9345 21.3816 21.7212 21.0616 21.5854C20.7513 21.44 20.247 21.2897 19.5488 21.1345C18.7828 20.9697 18.1428 20.7951 17.6288 20.6109C17.1149 20.417 16.6737 20.1115 16.3052 19.6945C15.9367 19.2776 15.7525 18.7151 15.7525 18.0073C15.7525 17.3867 15.9222 16.8291 16.2616 16.3345C16.601 15.8303 17.1052 15.4327 17.7743 15.1418C18.4531 14.8509 19.2822 14.7054 20.2616 14.7054C20.9307 14.7054 21.5901 14.783 22.2398 14.9382C22.8895 15.0836 23.4616 15.3018 23.9561 15.5927L23.0689 17.7309C22.0992 17.2073 21.1585 16.9454 20.247 16.9454C19.6749 16.9454 19.2579 17.0327 18.9961 17.2073C18.7343 17.3721 18.6034 17.5903 18.6034 17.8618C18.6034 18.1333 18.7585 18.337 19.0688 18.4727C19.3791 18.6085 19.8785 18.7491 20.567 18.8945C21.3428 19.0594 21.9828 19.2388 22.487 19.4327C23.001 19.617 23.4422 19.9176 23.8107 20.3345C24.1889 20.7418 24.3779 21.2994 24.3779 22.0073C24.3779 22.6182 24.2082 23.1709 23.8689 23.6654C23.5295 24.16 23.0204 24.5576 22.3416 24.8582C21.6628 25.1491 20.8385 25.2945 19.8688 25.2945Z" fill="#C82F32"/>
</svg>
