<svg width="40" height="40" viewBox="0 0 40 40" fill="none" xmlns="http://www.w3.org/2000/svg">
<rect width="40" height="40" fill="#414042"/>
<path fill-rule="evenodd" clip-rule="evenodd" d="M19.4018 8.0094C19.2854 8.02002 18.8255 8.08173 18.3798 8.14655C16.7637 8.38157 15.6476 8.91468 14.6 9.95199C13.4549 11.0857 12.9112 12.3624 12.9123 13.9147C12.913 14.8477 13.0759 15.5529 13.4723 16.3379C13.815 17.0167 14.1167 17.4242 14.6688 17.9539C15.3476 18.6052 16.1634 19.0715 17.9674 19.8395C20.6841 20.9959 21.3083 21.3427 22.108 22.1395C22.6121 22.6417 22.8282 22.9367 23.1161 23.5156C23.707 24.7033 23.7093 26.0655 23.1224 27.2257C22.945 27.5762 22.8388 27.6697 22.6395 27.6506L22.4822 27.6356L22.4807 26.9076C22.4794 26.2624 22.4666 26.1449 22.3682 25.8743C21.8727 24.5113 20.2913 23.4023 17.5912 22.5244C17.2291 22.4067 16.7423 22.2547 16.5096 22.1866C15.1143 21.7787 14.3351 21.4534 14.019 21.1468C13.6539 20.7927 13.5016 20.2334 13.557 19.4499L13.5846 19.0588L13.4481 19.089C11.5534 19.5086 9.59634 20.592 8.63333 21.7545C7.92451 22.6101 7.8092 23.3685 8.29482 23.9801C8.45594 24.183 8.67279 24.324 9.05551 24.4747C9.41687 24.6169 9.76456 24.6774 10.7494 24.7694C11.1507 24.8069 11.5634 24.8673 11.6664 24.9037C12.2365 25.105 12.6978 25.5325 12.9167 26.0622C12.9995 26.2628 13.0239 26.4149 13.0257 26.7432C13.0279 27.1379 13.0165 27.1897 12.853 27.525C12.6041 28.0355 12.145 28.414 11.5245 28.6204C11.4381 28.6492 11.4438 28.6629 11.5951 28.7898C12.5088 29.5566 13.36 30.1134 14.3933 30.6203C15.732 31.2771 16.8056 31.6142 18.3784 31.8717C19.0647 31.984 19.271 31.9972 20.3894 31.9999C21.7715 32.0033 22.4545 31.9285 23.6344 31.6448C27.3306 30.7561 30.3146 28.4444 31.4316 25.6045C31.9154 24.3745 32.1161 22.8375 31.9331 21.7647C31.8257 21.1355 31.6975 20.7465 31.3916 20.1209C30.8779 19.0707 29.9452 18.0184 28.706 17.091C27.8182 16.4265 26.9565 15.9255 24.7866 14.8127C22.8473 13.818 22.5837 13.6494 22.3 13.2226C21.5133 12.0389 22.2298 10.6595 23.8506 10.2375C24.5043 10.0672 25.2708 10.0195 26.1898 10.0917C27.3056 10.1793 27.3524 10.1789 27.4143 10.0818C27.4951 9.95514 27.4141 9.87219 26.9725 9.62919C25.6701 8.91257 24.1397 8.40134 22.5106 8.1387C21.9154 8.0427 21.5724 8.01748 20.6951 8.00522C20.1002 7.99686 19.5182 7.99874 19.4018 8.0094ZM10.6716 21.8405C10.4753 21.9406 10.3925 22.2671 10.5086 22.4837C10.5625 22.5844 10.8322 22.7277 10.9673 22.7274C11.0992 22.7271 11.3553 22.5543 11.4138 22.426C11.4815 22.2775 11.4297 22.0112 11.3125 21.9052C11.2025 21.8058 10.8163 21.7668 10.6716 21.8405Z" fill="white"/>
</svg>
