<svg width="40" height="40" viewBox="0 0 40 40" fill="none" xmlns="http://www.w3.org/2000/svg">
<rect width="40" height="40" fill="#00953A"/>
<path d="M9.20023 30.2H30.8002C34.0366 30.2 36.6911 27.5454 36.6911 24.3091C36.6911 21.0727 34.0366 18.4181 30.8002 18.4181H9.20023C5.96387 18.4181 3.30933 21.0727 3.30933 24.3091C3.30933 27.5454 5.96387 30.2 9.20023 30.2Z" fill="white"/>
<path d="M10.8175 14.182C10.8175 15.2547 9.90843 16.0002 8.59934 16.0002C7.47207 16.0002 6.61752 15.4911 6.29025 14.6184L6.19934 14.4002L7.16298 13.8366L7.27207 14.1638C7.43571 14.6366 7.92662 14.9275 8.59934 14.9275C9.1448 14.9275 9.70843 14.7275 9.70843 14.2002C9.70843 13.7638 9.23571 13.6184 8.45389 13.4184C7.56298 13.182 6.43571 12.8911 6.43571 11.6366C6.43571 10.582 7.32662 9.81838 8.5448 9.81838C9.50843 9.81838 10.2903 10.2911 10.6357 11.0547L10.7448 11.2911L9.81752 11.8184L9.69025 11.5275C9.52662 11.1275 9.10843 10.8911 8.56298 10.8911C8.05389 10.8911 7.5448 11.1275 7.5448 11.6184C7.5448 12.0547 8.01753 12.182 8.78116 12.382C9.69025 12.6184 10.8175 12.9093 10.8175 14.182Z" fill="white"/>
<path d="M16.4908 9.92724V15.8727H15.3999V15.4C14.9635 15.8 14.4181 16 13.7453 16C12.309 16 11.3817 15.0363 11.3817 13.5636V9.92724H12.4908V13.5636C12.4908 14.4363 12.9635 14.9272 13.7999 14.9272C14.8181 14.9272 15.4181 14.2363 15.4181 13.0545V9.92724H16.4908Z" fill="white"/>
<path d="M20.7455 9.79999C19.9637 9.79999 19.2364 10.0909 18.7092 10.6V9.90908H17.6182V18.0182H18.7092V15.1818C19.2364 15.7091 19.9637 15.9818 20.7455 15.9818C22.4728 15.9818 23.8183 14.6182 23.8183 12.8909C23.8183 11.1636 22.4546 9.79999 20.7455 9.79999ZM20.7092 14.9091C19.5819 14.9091 18.7092 14.0182 18.7092 12.8909C18.7092 11.7636 19.6001 10.8727 20.7092 10.8727C21.8364 10.8727 22.7092 11.7636 22.7092 12.8909C22.7092 14.0364 21.8364 14.9091 20.7092 14.9091Z" fill="white"/>
<path d="M30.2007 12.8364V12.9645C30.2007 12.9462 30.2007 12.9279 30.2007 12.9096C30.219 12.8913 30.219 12.873 30.2007 12.8364Z" fill="white"/>
<path d="M29.5458 10.7636C29.3639 10.5454 29.1458 10.3818 28.9094 10.2363C28.4548 9.96361 27.9458 9.81815 27.3821 9.81815C26.7821 9.81815 26.2185 9.96361 25.7639 10.2363C25.2185 10.5454 24.8003 11.0363 24.5639 11.6182C24.4003 12 24.3094 12.4363 24.3094 12.9091C24.3094 14.7091 25.6185 16 27.4185 16C28.5458 16 29.4912 15.5091 30.0003 14.6363L30.1458 14.4L29.1821 13.8363L29.0367 14.0909C28.7458 14.6182 28.1458 14.9272 27.4185 14.9272C26.5094 14.9272 25.7821 14.4182 25.5094 13.6363C25.5094 13.6182 25.4912 13.6 25.4912 13.5818C25.473 13.5636 25.473 13.4727 25.5639 13.4727H30.2912V13.2C30.2912 13.1636 30.2912 13.1272 30.2912 13.0909V13.0727C30.2912 13.0363 30.2912 13.0182 30.2912 12.9818V12.8545C30.3094 12.0545 30.0367 11.3272 29.5458 10.7636ZM29.3639 12.4182C29.3458 12.4182 29.3458 12.4363 29.3639 12.4182H25.5276C25.5094 12.4182 25.5094 12.4182 25.4912 12.4182C25.4003 12.4 25.4003 12.2545 25.4185 12.1636C25.7094 11.3272 26.473 10.8 27.4185 10.8C27.5094 10.8 27.6003 10.8 27.6912 10.8182C27.7094 10.8182 27.7276 10.8182 27.7458 10.8182C28.5458 10.9272 29.1821 11.4182 29.4367 12.1636C29.4548 12.2545 29.4548 12.4 29.3639 12.4182Z" fill="white"/>
<path d="M33.8189 9.85451V10.9272H33.5462C33.1825 10.9272 32.0189 11.0545 32.0189 12.6V15.8727H30.928V9.92724H32.0189V10.3818C32.4007 10.0363 32.9098 9.85451 33.5462 9.85451H33.8189Z" fill="white"/>
<path d="M12.1279 21.1272C11.9098 20.8727 11.6552 20.6727 11.3825 20.4908C10.8552 20.1636 10.237 19.9818 9.58249 19.9818C8.8734 19.9818 8.21886 20.1636 7.6734 20.4908C7.03704 20.8545 6.54613 21.4181 6.25522 22.109C6.0734 22.5636 5.96431 23.0727 5.96431 23.6181C5.96431 25.7272 7.50977 27.2545 9.63704 27.2545C10.9643 27.2545 12.0734 26.6727 12.6916 25.6545L12.8552 25.3818L11.7279 24.709L11.5643 24.9999C11.2189 25.6181 10.5098 25.9818 9.65522 25.9818C8.58249 25.9818 7.72795 25.3999 7.41886 24.4545C7.41886 24.4363 7.40068 24.3999 7.40068 24.3818C7.38249 24.3636 7.38249 24.2545 7.49158 24.2545H13.0552V23.9272C13.0552 23.8909 13.0552 23.8545 13.0552 23.7999V23.7818C13.0552 23.7454 13.0552 23.709 13.0552 23.6727V23.5272C13.0189 22.6545 12.7098 21.7999 12.1279 21.1272ZM11.9098 23.0908H7.38249C7.36431 23.0908 7.36431 23.0908 7.34613 23.0908C7.23704 23.0545 7.23704 22.8909 7.2734 22.7999C7.61886 21.8181 8.50977 21.1999 9.63704 21.1999C9.74613 21.1999 9.85522 21.1999 9.94613 21.2181C9.96431 21.2181 9.98249 21.2181 10.0007 21.2181C10.9461 21.3454 11.6916 21.9272 12.0007 22.7999C12.0189 22.909 12.0189 23.0727 11.9098 23.0908Z" fill="#00953B"/>
<path d="M19.8015 20.9818C19.1651 20.3454 18.3106 20 17.3651 20C15.3469 20 13.7469 21.6 13.7469 23.6364C13.7469 25.6727 15.3287 27.2727 17.3651 27.2727C18.3106 27.2727 19.1651 26.9273 19.8015 26.2909V27.1273H21.0742V20.1273H19.8015V20.9818ZM17.4197 26.0545C16.0742 26.0545 15.0197 25 15.0197 23.6364C15.0197 22.2909 16.0742 21.2364 17.4197 21.2364C18.7469 21.2364 19.8015 22.2909 19.8015 23.6364C19.8015 25 18.7469 26.0545 17.4197 26.0545Z" fill="#00953B"/>
<path d="M27.3285 25.1636C27.3285 26.4181 26.2558 27.2909 24.7285 27.2909C23.4013 27.2909 22.4013 26.6909 22.0194 25.6727L21.9285 25.4363L23.0376 24.7999L23.1649 25.1636C23.3467 25.7272 23.9467 26.0727 24.7467 26.0727C25.4013 26.0727 26.0922 25.8363 26.0922 25.1818C26.0922 24.6363 25.5285 24.4727 24.6013 24.2181C23.5467 23.9454 22.2376 23.5999 22.2376 22.1454C22.2376 20.909 23.274 20.0181 24.7104 20.0181C25.8376 20.0181 26.7649 20.5636 27.1649 21.4727L27.274 21.7272L26.1831 22.3454L26.0558 22.0181C25.8558 21.5272 25.3467 21.2363 24.7104 21.2363C24.0922 21.2363 23.4922 21.509 23.4922 22.1272C23.4922 22.6545 24.0558 22.8181 24.9649 23.0545C26.0013 23.3272 27.3285 23.6727 27.3285 25.1636Z" fill="#00953B"/>
<path d="M34.0563 20.1454L31.129 27.5272C30.5835 28.8909 29.6017 29.6909 28.4745 29.6909C28.4199 29.6909 28.3472 29.6909 28.2926 29.6909L28.0017 29.6727V28.4545L28.329 28.4909C29.2017 28.5636 29.6926 27.7091 29.9108 27.1818L30.0017 26.9636L26.929 20.1454H28.2926L30.5108 25.0363L30.529 25.0727C30.5472 25.1091 30.5835 25.1272 30.6381 25.1272C30.6745 25.1272 30.729 25.1091 30.7472 25.0727L30.7654 25.0182L32.6745 20.1272H34.0563V20.1454Z" fill="#00953B"/>
</svg>
