<svg width="40" height="40" viewBox="0 0 40 40" fill="none" xmlns="http://www.w3.org/2000/svg">
<rect width="40" height="40" fill="white"/>
<path d="M15.8892 16.7743C15.8892 17.2759 15.8792 17.9983 15.8892 18.7106C15.8892 19.2323 16.1501 19.7239 16.5915 20.0249C16.8424 20.1955 16.9226 20.3961 16.9327 20.677C16.9628 21.3693 17.0029 22.0716 17.0731 22.7639C17.1032 23.0649 17.043 23.1853 16.722 23.1752C16.12 23.1652 15.5281 23.1752 14.9261 23.2053C14.4947 23.2254 14.294 23.0548 14.2338 22.6234C13.973 20.667 13.8425 18.7006 13.8626 16.7241C13.8726 16.2124 13.7021 16.0419 13.2305 16.0318C12.9496 16.0218 12.6687 15.9917 12.3878 15.9415C11.7958 15.8512 11.6554 15.5502 11.9764 15.0486C12.7289 13.8748 13.5817 12.7711 14.5348 11.7478C15.8792 10.3131 17.3841 9.04896 19.0295 7.98547C19.7318 7.534 20.3338 7.51393 20.9859 8.02561C22.0996 8.88843 22.7718 9.44024 22.9524 9.30981C22.9825 9.28975 22.9724 9.25965 23.0025 9.01886C23.0527 8.57741 23.0728 8.35669 23.1831 8.2363C23.2734 8.13597 23.4039 8.10587 23.8955 8.13597C24.7182 8.18613 25.0894 8.19616 25.28 8.37676C25.4706 8.55735 25.5208 8.92856 25.6211 9.68103C25.6613 10.0121 25.7014 10.3934 25.8017 11.3766C25.8218 11.6475 25.882 11.9184 25.9823 12.1692C26.0726 12.3899 26.203 12.5906 26.3535 12.7711C26.9555 13.4734 27.5073 14.2259 28.0089 15.0185C28.3501 15.5502 28.2096 15.8613 27.5976 15.9516C27.3066 16.0017 27.0057 16.0318 26.7047 16.0419C26.2833 16.0519 26.1529 16.2325 26.1529 16.6539C26.1629 18.3494 26.0826 20.0349 25.892 21.7104C25.6913 23.3959 25.7917 23.2454 24.2065 23.1752C23.5443 23.1451 23.5543 23.1552 23.6145 22.493C23.8754 19.6537 24.0259 16.8144 23.8152 13.955C23.8052 13.7945 23.7751 13.6239 23.765 13.4534C23.745 13.2126 23.7149 12.9818 23.4239 12.9116C23.153 12.8414 22.9825 12.9919 22.832 13.1825C21.9892 14.246 21.4775 15.46 21.1465 16.7542C20.9057 17.6872 20.8555 18.6404 20.8655 19.6136C20.8756 20.1052 21.0762 20.356 21.5678 20.366C21.7183 20.366 21.8688 20.4061 22.0093 20.4162C22.2802 20.4262 22.3905 20.5466 22.3604 20.8275C22.2902 21.4696 22.24 22.1117 22.1999 22.7639C22.1798 23.0749 22.0394 23.1552 21.7585 23.1451C20.7652 23.1251 19.772 23.0448 18.7687 23.1351C18.568 23.1552 18.4577 23.0649 18.4476 22.8542C18.3975 22.0415 18.3473 21.2288 18.2871 20.4262C18.2771 20.2356 18.3674 20.1252 18.5078 20.0149C18.9392 19.7139 19.2001 19.2223 19.18 18.6905C19.1901 17.0853 19.18 15.48 19.3105 13.8748C19.3305 13.6641 19.2804 13.4835 19.0496 13.4734C18.8389 13.4634 18.7988 13.654 18.7988 13.8346C18.7486 14.858 18.6984 15.8914 18.6583 16.9147C18.6483 17.2358 18.6583 17.5969 18.2068 17.5869C17.7554 17.5669 17.7754 17.1956 17.7855 16.8846C17.8156 15.9716 17.8657 15.0687 17.8958 14.1557C17.8958 14.0554 17.9059 13.955 17.9159 13.8547C17.9259 13.6741 17.8758 13.4935 17.6751 13.4835C17.4744 13.4634 17.4142 13.634 17.4042 13.8246C17.3641 14.6874 17.3139 15.5402 17.2637 16.403C17.2537 16.6539 17.2637 16.9047 17.2537 17.1455C17.2437 17.4063 17.1233 17.5969 16.8323 17.5969C16.5113 17.5969 16.3809 17.3963 16.3809 17.1154C16.4009 16.2425 16.4411 15.3596 16.4712 14.4868C16.4812 14.2861 16.4912 14.0855 16.5113 13.8848C16.5313 13.6841 16.4812 13.4835 16.2504 13.4835C16.0397 13.4734 16.0096 13.6641 15.9896 13.8447C15.9193 14.7476 15.9494 15.6606 15.8892 16.7743Z" fill="#F7931E"/>
<path d="M8.19916 28.0671H7.25055C7.1842 28.0671 7.12915 28.0135 7.12915 27.9457V27.3782C7.12915 27.3119 7.18279 27.2568 7.25055 27.2568H10.222C10.2884 27.2568 10.3434 27.3105 10.3434 27.3782V27.9457C10.3434 28.012 10.2898 28.0671 10.222 28.0671H9.27342C9.23954 28.0671 9.21271 28.0939 9.21271 28.1278V31.0626C9.21271 31.1289 9.15907 31.184 9.09131 31.184H8.37844C8.3121 31.184 8.25704 31.1303 8.25704 31.0626V28.1278C8.25986 28.0953 8.23304 28.0671 8.19916 28.0671Z" fill="#F7931E"/>
<path d="M9.72901 30.344C9.72901 29.8005 10.1341 29.4928 10.9727 29.4505L11.7152 29.4138V29.401C11.7152 29.051 11.4554 28.9126 11.1181 28.9126C10.8781 28.9126 10.648 28.9832 10.5096 29.099C10.4786 29.1244 10.4334 29.1215 10.4038 29.0947C10.3092 29.003 10.1144 28.8138 10.0015 28.7051C9.95204 28.6571 9.95204 28.5781 10.0015 28.5315C10.2485 28.2986 10.6621 28.1278 11.2084 28.1278C12.0963 28.1278 12.6087 28.6162 12.6087 29.3531V31.0625C12.6087 31.1289 12.5551 31.1839 12.4873 31.1839H11.8902C11.8239 31.1839 11.7688 31.1303 11.7688 31.0625V30.8931H11.7561C11.5754 31.1289 11.255 31.2559 10.8625 31.2559C10.2231 31.2559 9.72901 30.9242 9.72901 30.344ZM11.7152 30.0913V30.0702C11.7152 30.0349 11.6855 30.008 11.6516 30.0095L11.087 30.0419C10.7849 30.0603 10.6282 30.1506 10.6282 30.3313C10.6282 30.536 10.8273 30.6278 11.0686 30.6278C11.4371 30.6278 11.7152 30.4231 11.7152 30.0913Z" fill="#F7931E"/>
<path d="M13.7108 31.1839H13.0586C12.9923 31.1839 12.9372 31.1303 12.9372 31.0625V27.0479C12.9372 26.9815 12.9909 26.9265 13.0586 26.9265H13.7108C13.7772 26.9265 13.8322 26.9801 13.8322 27.0479V29.1836C13.8322 29.2387 13.8986 29.2655 13.9367 29.2246L14.8655 28.2379C14.8881 28.2139 14.9206 28.1997 14.953 28.1997H15.7111C15.817 28.1997 15.872 28.3254 15.8 28.403L14.826 29.4561C14.8062 29.4773 14.8048 29.5097 14.8218 29.5337L15.9045 30.9919C15.9638 31.071 15.9073 31.1853 15.8071 31.1853H15.0377C14.9996 31.1853 14.9643 31.1684 14.9417 31.1388L14.2472 30.2381C14.2021 30.1803 14.1174 30.1746 14.0665 30.2268L13.8675 30.4259C13.8449 30.4485 13.8322 30.4795 13.8322 30.512V31.0654C13.8322 31.1289 13.7772 31.1839 13.7108 31.1839Z" fill="#F7931E"/>
<path d="M15.7334 29.6918C15.7334 28.9606 16.1809 28.1278 17.2608 28.1278C18.3478 28.1278 18.7699 28.9606 18.7699 29.6918C18.7699 29.7483 18.7628 29.8274 18.7529 29.8951C18.7444 29.9544 18.6936 29.9996 18.6329 29.9996H16.723C16.6792 29.9996 16.6496 30.0448 16.6679 30.0843C16.7851 30.3511 17.0646 30.4711 17.3385 30.4711C17.5601 30.4711 17.7775 30.4075 17.9172 30.3031C17.9638 30.2678 18.0316 30.2734 18.0739 30.3158L18.4494 30.68C18.4988 30.728 18.4988 30.8056 18.4494 30.8536C18.2066 31.0865 17.7958 31.2573 17.3074 31.2573C16.2289 31.2559 15.7334 30.4231 15.7334 29.6918ZM16.7046 29.3785H17.8114C17.8523 29.3785 17.8805 29.3389 17.8692 29.2994C17.7775 29.0001 17.5403 28.8773 17.2608 28.8773C16.9771 28.8773 16.7385 29.0001 16.6468 29.2994C16.6355 29.3375 16.6637 29.3785 16.7046 29.3785Z" fill="#F7931E"/>
<path d="M21.872 28.2012H22.6004C22.654 28.2012 22.7006 28.2351 22.7162 28.2859L23.2639 30.0603H23.2766L23.8342 28.2845C23.8497 28.2337 23.8963 28.1998 23.9499 28.1998H24.6967C24.7489 28.1998 24.7955 28.2337 24.811 28.2831L25.3813 30.0589H25.394L25.9417 28.2845C25.9573 28.2337 26.0038 28.1998 26.0575 28.1998H26.7859C26.8692 28.1998 26.9285 28.2831 26.8988 28.3621L25.905 31.1035C25.8881 31.1515 25.8429 31.1826 25.7921 31.1826H25.0213C24.9705 31.1826 24.9239 31.1501 24.907 31.1007L24.3776 29.5733C24.3593 29.5182 24.2817 29.5197 24.2633 29.5733L23.7495 31.0993C23.7325 31.1487 23.6874 31.1811 23.6351 31.1811H22.8644C22.8136 31.1811 22.7684 31.1487 22.7514 31.1021L21.7577 28.3607C21.7294 28.2845 21.7873 28.2012 21.872 28.2012Z" fill="#F7931E"/>
<path d="M29.9761 32.2187V31.671C29.9761 31.599 30.0383 31.5439 30.1103 31.551C30.1568 31.5566 30.2077 31.5594 30.2542 31.5594C30.5535 31.5594 30.6735 31.4592 30.7765 31.2334C30.7907 31.2037 30.7921 31.1684 30.7794 31.1374L29.691 28.3663C29.6599 28.2873 29.7178 28.2012 29.8039 28.2012H30.5196C30.5704 28.2012 30.6156 28.2336 30.634 28.2816L31.2819 30.097H31.2946L31.9425 28.2816C31.9595 28.2336 32.0047 28.2012 32.0569 28.2012H32.7486C32.8333 28.2012 32.8926 28.2873 32.8615 28.3663L31.7492 31.184C31.4471 31.9392 31.1577 32.3556 30.3418 32.3556C30.2585 32.3556 30.1653 32.35 30.082 32.3387C30.0199 32.3288 29.9761 32.278 29.9761 32.2187Z" fill="#F7931E"/>
<path d="M18.8478 30.344C18.8478 29.8005 19.253 29.4928 20.0915 29.4505L20.834 29.4138V29.401C20.834 29.051 20.5743 28.9126 20.2369 28.9126C19.9969 28.9126 19.7668 28.9832 19.6285 29.099C19.5974 29.1244 19.5522 29.1215 19.5226 29.0947C19.428 29.003 19.2332 28.8138 19.1203 28.7051C19.0709 28.6571 19.0709 28.5781 19.1203 28.5315C19.3673 28.2986 19.7809 28.1278 20.3272 28.1278C21.2151 28.1278 21.7276 28.6162 21.7276 29.3531V31.0625C21.7276 31.1289 21.6739 31.1839 21.6062 31.1839H21.009C20.9427 31.1839 20.8876 31.1303 20.8876 31.0625V30.8931H20.8749C20.6943 31.1289 20.3738 31.2559 19.9814 31.2559C19.3419 31.2559 18.8478 30.9242 18.8478 30.344ZM20.834 30.0913V30.0702C20.834 30.0349 20.8044 30.008 20.7705 30.0095L20.2058 30.0419C19.9037 30.0603 19.747 30.1506 19.747 30.3313C19.747 30.536 19.9461 30.6278 20.1875 30.6278C20.5559 30.6278 20.834 30.4231 20.834 30.0913Z" fill="#F7931E"/>
<path d="M26.8002 30.344C26.8002 29.8005 27.2054 29.4928 28.0439 29.4505L28.7864 29.4138V29.401C28.7864 29.051 28.5266 28.9126 28.1893 28.9126C27.9493 28.9126 27.7192 28.9832 27.5809 29.099C27.5498 29.1244 27.5046 29.1215 27.475 29.0947C27.3804 29.003 27.1856 28.8138 27.0727 28.7051C27.0233 28.6571 27.0233 28.5781 27.0727 28.5315C27.3197 28.2986 27.7333 28.1278 28.2796 28.1278C29.1675 28.1278 29.6799 28.6162 29.6799 29.3531V31.0625C29.6799 31.1289 29.6263 31.1839 29.5585 31.1839H28.9614C28.8951 31.1839 28.84 31.1303 28.84 31.0625V30.8931H28.8273C28.6466 31.1289 28.3262 31.2559 27.9338 31.2559C27.2957 31.2559 26.8002 30.9242 26.8002 30.344ZM28.7878 30.0913V30.0702C28.7878 30.0349 28.7582 30.008 28.7243 30.0095L28.1596 30.0419C27.8575 30.0603 27.7008 30.1506 27.7008 30.3313C27.7008 30.536 27.8999 30.6278 28.1413 30.6278C28.5097 30.6278 28.7878 30.4231 28.7878 30.0913Z" fill="#F7931E"/>
</svg>
