<svg width="40" height="40" viewBox="0 0 40 40" fill="none" xmlns="http://www.w3.org/2000/svg">
<rect width="40" height="40" fill="#EE772F"/>
<path d="M37.1021 22.8059L37.5178 23.6373C37.1252 23.8914 36.6402 24.1224 36.0397 24.1224C34.9542 24.1224 34.3075 23.545 34.3075 22.2516V20.1499H33.3375V19.1798H34.3075V17.3091H35.3699V19.1798H37.2176V20.1268H35.3699V22.2054C35.3699 22.8521 35.7164 23.1061 36.1321 23.1061C36.4554 23.1292 36.8019 22.9676 37.1021 22.8059ZM2.48145 17.3091H8.18612V18.3715H5.89963V23.9607H4.76793V18.3946H2.48145V17.3091ZM13.706 23.9838V17.3091H14.7684V23.9838H13.706Z" fill="#FEFEFE"/>
<path d="M30.035 23.1985C29.0419 23.1985 28.5107 22.4595 28.5107 21.5818C28.5107 20.7042 29.0419 19.9651 30.035 19.9651C30.9357 19.9651 31.5593 20.7042 31.5593 21.5818C31.5593 22.4595 30.9357 23.1985 30.035 23.1985ZM31.4669 19.5494L31.4207 19.5956L31.3745 19.5494C31.0512 19.226 30.5431 19.0182 30.0119 19.0182C28.6492 19.0182 27.4944 20.0575 27.4944 21.5818C27.4944 23.1061 28.6492 24.1455 30.0119 24.1455C30.5431 24.1455 31.0512 23.9376 31.3745 23.6143L31.4207 23.5681L31.4669 23.6143L31.5824 24.03H32.5293V19.1337H31.5824L31.4669 19.5494Z" fill="#FEFEFE"/>
<path d="M18.2341 23.1985C17.241 23.1985 16.7098 22.4595 16.7098 21.5818C16.7098 20.7042 17.241 19.9651 18.2341 19.9651C19.1348 19.9651 19.7584 20.7042 19.7584 21.5818C19.7584 22.4595 19.1348 23.1985 18.2341 23.1985ZM19.666 19.5494L19.6198 19.5956L19.5736 19.5494C19.2503 19.226 18.7422 19.0182 18.211 19.0182C16.8483 19.0182 15.6935 20.0575 15.6935 21.5818C15.6935 23.1061 16.8252 24.1455 18.1879 24.1455C18.7191 24.1455 19.2272 23.9376 19.5505 23.6143L19.5967 23.5681L19.6429 23.6143L19.7584 24.03H20.7053V19.1337H19.7584L19.666 19.5494Z" fill="#FEFEFE"/>
<path d="M10.0796 23.1985C9.08643 23.1985 8.55523 22.4595 8.55523 21.5818C8.55523 20.7042 9.08643 19.9651 10.0796 19.9651C10.9803 19.9651 11.6039 20.7042 11.6039 21.5818C11.6039 22.4595 10.9803 23.1985 10.0796 23.1985ZM11.5115 19.5494L11.4653 19.5956L11.4191 19.5494C11.0958 19.226 10.5877 19.0182 10.0565 19.0182C8.6938 19.0182 7.53901 20.0575 7.53901 21.5818C7.53901 23.1061 8.67071 24.1455 10.0334 24.1455C10.5646 24.1455 11.0727 23.9376 11.396 23.6143L11.4422 23.5681L11.4884 23.6143L11.6039 24.03H12.5508V19.1337H11.6039L11.5115 19.5494Z" fill="#FEFEFE"/>
<path d="M24.2379 23.1985C23.3372 23.1985 22.7136 22.4595 22.7136 21.5818C22.7136 20.7042 23.3372 19.9651 24.2379 19.9651C25.231 19.9651 25.7622 20.7042 25.7622 21.5818C25.7622 22.4595 25.231 23.1985 24.2379 23.1985ZM24.2841 19.0182C23.7529 19.0182 23.2448 19.226 22.9214 19.5494L22.8752 19.5956L22.806 19.5494V17.3091H21.7666V24.03H22.7136L22.829 23.6142L22.8752 23.5681L22.9214 23.6142C23.2448 23.9376 23.7529 24.1454 24.2841 24.1454C25.6467 24.1454 26.8015 23.1061 26.8015 21.5818C26.8015 20.0575 25.6467 19.0182 24.2841 19.0182Z" fill="#FEFEFE"/>
</svg>
