<svg width="40" height="40" viewBox="0 0 40 40" fill="none" xmlns="http://www.w3.org/2000/svg">
<rect width="40" height="40" fill="white"/>
<path d="M23.4354 27.1004C23.4027 27.1167 23.37 27.1167 23.3373 27.1167C23.2719 27.1167 23.1901 27.084 23.141 27.035C23.0756 26.9532 23.0592 26.8223 23.1246 26.7242L27.5576 20.0666C27.5576 20.0829 27.5739 20.1156 27.5903 20.132L30.5674 23.7143L23.4354 27.1004ZM37.8466 20.2792L30.8618 23.5835L27.9174 20.0502L30.8455 16.5333L30.5347 16.3861L27.5739 19.9521C27.5576 19.9684 27.5412 20.0011 27.5412 20.0339L23.1083 13.3763C23.0756 13.3272 23.0592 13.2945 23.0592 13.2454C23.0592 13.18 23.0756 13.1309 23.1246 13.0818C23.1737 13.0327 23.2391 13 23.3209 13C23.3536 13 23.3864 13.0164 23.4191 13.0327L37.8466 19.8539C37.9284 19.8866 37.9938 19.9848 37.9938 20.0829C37.9938 20.1484 37.9447 20.2301 37.8466 20.2792Z" fill="url(#paint0_linear_678_1431)"/>
<path d="M27.558 20.0816L23.1251 26.7392C23.0596 26.8374 23.0596 26.9519 23.1414 27.05C23.1905 27.1155 23.2559 27.1318 23.3377 27.1318C23.3704 27.1318 23.4032 27.1318 23.4359 27.1155L30.5678 23.7458L27.5907 20.1634C27.5744 20.1307 27.558 20.098 27.558 20.0816Z" fill="url(#paint1_linear_678_1431)"/>
<path d="M37.8461 19.82L23.435 12.9988C23.4023 12.9824 23.3695 12.9661 23.3368 12.9661C23.2714 12.9661 23.1896 12.9988 23.1405 13.0479C23.1078 13.0969 23.0751 13.146 23.0751 13.2114C23.0751 13.2605 23.0915 13.3096 23.1242 13.3423L27.5571 19.9999C27.5571 19.9672 27.5735 19.9345 27.5898 19.9181L30.5506 16.3521L30.8614 16.4993L27.9334 20.0162L30.8777 23.5495L37.8625 20.2453C37.9443 20.2125 38.0097 20.1144 38.0097 20.0162C37.9934 19.9508 37.9443 19.869 37.8461 19.82Z" fill="url(#paint2_linear_678_1431)"/>
<path d="M27.558 20.0816L23.1251 26.7392C23.0596 26.8374 23.0596 26.9519 23.1414 27.05C23.1905 27.1155 23.2559 27.1318 23.3377 27.1318C23.3704 27.1318 23.4032 27.1318 23.4359 27.1155L30.5678 23.7458L27.5907 20.1634C27.5744 20.1307 27.558 20.098 27.558 20.0816Z" fill="url(#paint3_linear_678_1431)"/>
<path d="M37.8461 19.82L23.435 12.9988C23.4023 12.9824 23.3695 12.9661 23.3368 12.9661C23.2714 12.9661 23.1896 12.9988 23.1405 13.0479C23.1078 13.0969 23.0751 13.146 23.0751 13.2114C23.0751 13.2605 23.0915 13.3096 23.1242 13.3423L27.5571 19.9999C27.5571 19.9672 27.5735 19.9345 27.5898 19.9181L30.5506 16.3521L30.8614 16.4993L27.9334 20.0162L30.8777 23.5495L37.8625 20.2453C37.9443 20.2125 38.0097 20.1144 38.0097 20.0162C37.9934 19.9508 37.9443 19.869 37.8461 19.82Z" fill="url(#paint4_linear_678_1431)"/>
<path d="M16.4667 27.1155C14.88 27.1155 13.9639 26.2649 13.9639 24.7927V20.8832C13.9639 20.7196 14.0621 20.6378 14.2257 20.6378H14.4056C14.5692 20.6378 14.651 20.7196 14.651 20.8832V24.7927C14.651 25.8723 15.2889 26.4775 16.4503 26.4775C17.6117 26.4775 18.2333 25.8887 18.2333 24.7927V20.8832C18.2333 20.7196 18.3151 20.6378 18.4787 20.6378H18.675C18.8386 20.6378 18.9203 20.7196 18.9203 20.8832V24.7927C18.9531 26.2649 18.037 27.1155 16.4667 27.1155ZM4.86905 27.0501H4.68911C4.52553 27.0501 4.42739 26.9683 4.42739 26.8047V24.4492L2.03916 21.0141C1.99009 20.9486 1.99009 20.8668 2.0228 20.7851C2.07187 20.7196 2.1373 20.6869 2.21909 20.6869H2.46446C2.59532 20.6869 2.70983 20.7033 2.79161 20.8505L4.78726 23.7458L6.7829 20.8505C6.88105 20.7033 6.97919 20.6869 7.11006 20.6869H7.33906C7.42085 20.6869 7.48628 20.7196 7.53536 20.7851C7.56807 20.8505 7.56807 20.9323 7.519 21.0141V21.0304L5.13077 24.4655V26.8211C5.13077 26.9683 5.03262 27.0501 4.86905 27.0501ZM12.3445 21.1776C11.9029 20.7687 11.2649 20.5724 10.4634 20.5724C8.84398 20.5724 7.91158 21.3903 7.91158 22.8298V24.9236C7.91158 26.363 8.84398 27.1809 10.4634 27.1809C11.2649 27.1809 11.9029 26.9846 12.3445 26.5757C12.7698 26.1831 12.9988 25.6106 12.9988 24.9236V22.8298C13.0152 22.1264 12.7862 21.5539 12.3445 21.1776ZM12.3118 24.9236C12.3118 25.9541 11.6575 26.5266 10.4797 26.5266C9.28563 26.5266 8.63133 25.9541 8.63133 24.9236V22.8298C8.63133 21.7992 9.28563 21.2267 10.4797 21.2267C11.6575 21.2267 12.3118 21.7992 12.3118 22.8298V24.9236Z" fill="url(#paint5_linear_678_1431)"/>
<path d="M14.2094 19.5747H18.6423C18.7732 19.5747 18.8877 19.4601 18.8877 19.3293V19.2639C18.8877 19.133 18.7732 19.0185 18.6423 19.0185H14.2094C14.0785 19.0185 13.964 19.133 13.964 19.2639V19.3293C13.964 19.4601 14.0785 19.5747 14.2094 19.5747Z" fill="url(#paint6_linear_678_1431)"/>
<path d="M12.3449 13.4241C11.9033 13.0152 11.2653 12.8189 10.4638 12.8189C8.84439 12.8189 7.912 13.6368 7.912 15.0763V17.1701C7.912 18.6095 8.84439 19.4274 10.4638 19.4274C11.2653 19.4274 11.9033 19.2311 12.3449 18.8222C12.7702 18.4296 12.9993 17.8571 12.9993 17.1701V15.0763C13.0156 14.3893 12.7866 13.8167 12.3449 13.4241ZM12.3122 17.1701C12.3122 18.217 11.6579 18.7731 10.4802 18.7731C9.28605 18.7731 8.63174 18.2006 8.63174 17.1701V15.0763C8.63174 14.0294 9.28605 13.4732 10.4802 13.4732C11.6579 13.4732 12.3122 14.0457 12.3122 15.0763V17.1701Z" fill="url(#paint7_linear_678_1431)"/>
<path d="M4.88713 19.3788H4.70719C4.54362 19.3788 4.44547 19.297 4.44547 19.1334V13.6699H2.64612C2.48254 13.6699 2.3844 13.5882 2.3844 13.4246V13.2774C2.3844 13.1138 2.46618 13.032 2.64612 13.032H6.91549C7.07906 13.032 7.17721 13.1138 7.17721 13.2774V13.4246C7.17721 13.5882 7.07906 13.6699 6.91549 13.6699H5.13249V19.1334C5.13249 19.297 5.05071 19.3788 4.88713 19.3788Z" fill="url(#paint8_linear_678_1431)"/>
<defs>
<linearGradient id="paint0_linear_678_1431" x1="23.0654" y1="20.039" x2="38.0347" y2="20.039" gradientUnits="userSpaceOnUse">
<stop stop-color="#86C175"/>
<stop offset="1" stop-color="#00ADDE"/>
</linearGradient>
<linearGradient id="paint1_linear_678_1431" x1="23.0654" y1="20.039" x2="38.0347" y2="20.039" gradientUnits="userSpaceOnUse">
<stop stop-color="#86C175"/>
<stop offset="1" stop-color="#00ADDE"/>
</linearGradient>
<linearGradient id="paint2_linear_678_1431" x1="23.0654" y1="20.039" x2="38.0347" y2="20.039" gradientUnits="userSpaceOnUse">
<stop stop-color="#86C175"/>
<stop offset="1" stop-color="#00ADDE"/>
</linearGradient>
<linearGradient id="paint3_linear_678_1431" x1="23.0654" y1="20.039" x2="38.0347" y2="20.039" gradientUnits="userSpaceOnUse">
<stop stop-color="#86C175"/>
<stop offset="1" stop-color="#00ADDE"/>
</linearGradient>
<linearGradient id="paint4_linear_678_1431" x1="23.0654" y1="20.039" x2="38.0347" y2="20.039" gradientUnits="userSpaceOnUse">
<stop stop-color="#86C175"/>
<stop offset="1" stop-color="#00ADDE"/>
</linearGradient>
<linearGradient id="paint5_linear_678_1431" x1="2.00701" y1="19.9899" x2="18.9495" y2="19.9899" gradientUnits="userSpaceOnUse">
<stop stop-color="#86C175"/>
<stop offset="1" stop-color="#00ADDE"/>
</linearGradient>
<linearGradient id="paint6_linear_678_1431" x1="2.00701" y1="19.9899" x2="18.9495" y2="19.9899" gradientUnits="userSpaceOnUse">
<stop stop-color="#86C175"/>
<stop offset="1" stop-color="#00ADDE"/>
</linearGradient>
<linearGradient id="paint7_linear_678_1431" x1="2.00701" y1="19.9899" x2="18.9495" y2="19.9899" gradientUnits="userSpaceOnUse">
<stop stop-color="#86C175"/>
<stop offset="1" stop-color="#00ADDE"/>
</linearGradient>
<linearGradient id="paint8_linear_678_1431" x1="2.00701" y1="19.9899" x2="18.9495" y2="19.9899" gradientUnits="userSpaceOnUse">
<stop stop-color="#86C175"/>
<stop offset="1" stop-color="#00ADDE"/>
</linearGradient>
</defs>
</svg>
