<svg width="40" height="40" viewBox="0 0 40 40" fill="none" xmlns="http://www.w3.org/2000/svg">
<rect width="40" height="40" fill="#06C167"/>
<path d="M19.5481 26.2364C19.5481 25.2048 18.7257 24.3942 17.6879 24.3942C16.6649 24.3942 15.8278 25.2048 15.8278 26.2364C15.8278 27.268 16.6649 28.0786 17.6879 28.0786C18.7257 28.0786 19.5481 27.268 19.5481 26.2364ZM21.0655 23.2202V29.2575H19.5187V28.7123C18.9802 29.1593 18.2998 29.4098 17.5607 29.4098C15.7299 29.4098 14.3005 28 14.3005 26.2364C14.3005 24.4777 15.7348 23.063 17.5607 23.063C18.2998 23.063 18.9802 23.3135 19.5187 23.7605V23.2202H21.0655ZM26.2054 27.887H25.0403C24.6879 27.887 24.4578 27.7347 24.4578 27.4105V24.5858H26.2005V23.2202H24.4578V21.5008H22.8963V23.2202H21.7215V24.5907H22.8963V27.7986C22.8963 28.6091 23.4788 29.2526 24.5264 29.2526H26.2005V27.887H26.2054ZM29.7298 29.4098C31.5165 29.4098 32.5249 28.5698 32.5249 27.4105C32.5249 26.5852 31.9277 25.9711 30.6795 25.7058L29.3578 25.4406C28.5942 25.303 28.3494 25.1606 28.3494 24.8806C28.3494 24.517 28.7166 24.296 29.397 24.296C30.1361 24.296 30.6746 24.4925 30.8312 25.1606H32.3781C32.2949 23.903 31.3697 23.063 29.4998 23.063C27.8844 23.063 26.7487 23.7212 26.7487 24.9935C26.7487 25.8729 27.3753 26.4476 28.7214 26.7276L30.1949 27.0617C30.7774 27.1747 30.934 27.327 30.934 27.5628C30.934 27.941 30.4935 28.1768 29.7837 28.1768C28.8928 28.1768 28.3788 27.9803 28.183 27.3122H26.6215C26.8515 28.5698 27.8012 29.4098 29.7298 29.4098ZM8.05933 21.0783H13.8894V22.4735H9.63554V24.4728H13.7768V25.8287H9.63554V27.8526H13.8894V29.2477H8.05933V21.0783Z" fill="#010101"/>
<path d="M32.5249 13.9324V12.8116H32.1061C31.4408 12.8116 30.9481 13.1232 30.6524 13.6108V12.8569H29.4599V18.9433H30.6623V15.4854C30.6623 14.5406 31.2339 13.9324 32.0223 13.9324H32.5249ZM23.872 15.3397C24.0889 14.4099 24.8378 13.7867 25.7297 13.7867C26.6216 13.7867 27.3756 14.4049 27.5776 15.3397H23.872ZM25.7544 12.7413C23.9804 12.7413 22.6303 14.1837 22.6303 15.9026C22.6303 17.717 24.0346 19.079 25.8628 19.079C26.9715 19.079 27.8782 18.5915 28.4843 17.7773L27.6121 17.134C27.1588 17.7421 26.5625 18.0286 25.8579 18.0286C24.8329 18.0286 24.01 17.2898 23.8425 16.2996H28.7898V15.9076C28.7947 14.0882 27.5086 12.7413 25.7544 12.7413ZM18.8754 18.0286C17.7076 18.0286 16.7763 17.0837 16.7763 15.9177C16.7763 14.7366 17.7174 13.8068 18.8754 13.8068C20.0186 13.8068 20.9598 14.7366 20.9598 15.9177C20.9647 17.0837 20.0236 18.0286 18.8754 18.0286ZM15.5986 18.9483H16.7911V18.1844C17.338 18.7473 18.1166 19.0891 18.9592 19.0891C20.7479 19.0891 22.1523 17.6667 22.1523 15.9126C22.1523 14.1485 20.7479 12.7262 18.9592 12.7262C18.1117 12.7262 17.3479 13.073 16.8009 13.6309V10.5901H15.5986V18.9483ZM11.3658 17.9683C12.5237 17.9683 13.4156 17.0736 13.4156 15.7468V10.5901H14.6673V18.9433H13.4255V18.1693C12.8637 18.7523 12.0901 19.0891 11.2179 19.0891C9.4292 19.0891 8.05933 17.7873 8.05933 15.8172V10.5901H9.31587V15.7468C9.31587 17.0988 10.1979 17.9683 11.3658 17.9683Z" fill="#010101"/>
</svg>
