<svg width="40" height="40" viewBox="0 0 40 40" fill="none" xmlns="http://www.w3.org/2000/svg">
<rect width="40" height="40" fill="white"/>
<path d="M19.4338 16.996L18.1505 20.2182L16.7727 16.5015L16.9894 16.4182L18.1616 19.5626L19.4338 16.3571L20.706 19.5626L21.8783 16.4182L22.0949 16.5015L20.7172 20.2237L19.4338 16.996Z" fill="#262524"/>
<path d="M24.5897 20.1611L23.9508 18.75H22.2952L21.6563 20.1611L21.4452 20.0611L23.123 16.35L24.8063 20.0611L24.5897 20.1611ZM22.4063 18.5111H23.8452L23.1286 16.9222L22.4063 18.5111Z" fill="#262524"/>
<path d="M25.0839 20.1056V16.45H25.3172V20.1056H25.0839Z" fill="#262524"/>
<path d="M28.4233 16.6889H27.1456V20.1056H26.9122V16.6889H25.64V16.4556H28.4233V16.6889Z" fill="#262524"/>
<path d="M30.7397 18.4333C30.5619 18.6056 30.3397 18.7167 30.073 18.7667L31.0508 20.0389L30.8619 20.1778L29.7952 18.7889H28.9897V20.1056H28.7564V16.45H29.7619C30.1508 16.45 30.4619 16.5389 30.6952 16.7222C30.823 16.8222 30.923 16.9389 30.9841 17.0833C31.0508 17.2222 31.0786 17.3833 31.0786 17.5611C31.0841 17.9222 30.973 18.2111 30.7397 18.4333ZM28.9897 18.55H29.7564C29.923 18.5556 30.0786 18.5333 30.2119 18.4833C30.3508 18.4333 30.473 18.3611 30.573 18.2611C30.7564 18.0833 30.8452 17.85 30.8452 17.5611C30.8452 17.3611 30.8064 17.2056 30.723 17.0889C30.6397 16.9722 30.5397 16.8889 30.423 16.8278C30.3064 16.7667 30.1897 16.7278 30.0619 16.7111C29.9397 16.6944 29.8341 16.6833 29.7564 16.6833H28.9841L28.9897 18.55Z" fill="#262524"/>
<path d="M15.6282 20.5667L11.8893 18.4111L8.15595 20.5667V15.8556L7.90039 15.7389V21.0444L11.8893 18.75L15.8837 21.0444V15.7389L15.6282 15.8556V20.5667Z" fill="#262524"/>
<path d="M15.095 16.1L11.8895 17.5723L8.68947 16.1V19.6334L11.8895 17.7945L15.095 19.6334V16.1Z" fill="#99C53D"/>
<path d="M31.3843 19.8222C31.3843 19.7722 31.3954 19.7278 31.4121 19.6834C31.4288 19.6389 31.4565 19.6 31.4899 19.5722C31.5232 19.5389 31.5621 19.5167 31.6065 19.4945C31.651 19.4722 31.6954 19.4667 31.7454 19.4667C31.7954 19.4667 31.8399 19.4778 31.8843 19.4945C31.9288 19.5111 31.9677 19.5389 31.9954 19.5722C32.0288 19.6056 32.0565 19.6389 32.0732 19.6834C32.0899 19.7278 32.101 19.7722 32.101 19.8222C32.101 19.8722 32.0899 19.9167 32.0732 19.9611C32.0565 20.0056 32.0288 20.0445 31.9954 20.0722C31.9621 20.1056 31.9232 20.1278 31.8843 20.15C31.8399 20.1667 31.7954 20.1778 31.7454 20.1778C31.6954 20.1778 31.651 20.1667 31.6065 20.15C31.5621 20.1334 31.5232 20.1056 31.4899 20.0722C31.4565 20.0389 31.4343 20.0056 31.4121 19.9611C31.3954 19.9222 31.3843 19.8722 31.3843 19.8222ZM31.4399 19.8222C31.4399 19.8611 31.4454 19.9 31.4621 19.9389C31.4788 19.9778 31.501 20.0056 31.5288 20.0334C31.5565 20.0611 31.5899 20.0834 31.6232 20.1C31.6621 20.1167 31.701 20.1222 31.7399 20.1222C31.7788 20.1222 31.8232 20.1167 31.8565 20.1C31.8954 20.0834 31.9232 20.0611 31.951 20.0334C31.9788 20.0056 32.001 19.9722 32.0177 19.9389C32.0343 19.9056 32.0399 19.8611 32.0399 19.8222C32.0399 19.7778 32.0343 19.7389 32.0177 19.7056C32.001 19.6667 31.9788 19.6389 31.951 19.6111C31.9232 19.5834 31.8899 19.5611 31.8565 19.5445C31.8177 19.5278 31.7788 19.5222 31.7399 19.5222C31.701 19.5222 31.6565 19.5278 31.6232 19.5445C31.5843 19.5611 31.5565 19.5834 31.5288 19.6111C31.501 19.6389 31.4788 19.6722 31.4621 19.7056C31.451 19.7445 31.4399 19.7834 31.4399 19.8222ZM31.601 19.6222H31.7399C31.7565 19.6222 31.7788 19.6222 31.7954 19.6278C31.8121 19.6334 31.8288 19.6389 31.8454 19.65C31.8565 19.6611 31.8732 19.6722 31.8788 19.6834C31.8899 19.7 31.8899 19.7167 31.8899 19.7389C31.8899 19.7667 31.8788 19.7945 31.8676 19.8111C31.851 19.8278 31.8288 19.8389 31.801 19.85L31.9065 20.0278H31.8176L31.7232 19.8611H31.6732V20.0278H31.601V19.6222ZM31.7343 19.8C31.7565 19.8 31.7732 19.7945 31.7954 19.7889C31.8121 19.7834 31.8232 19.7667 31.8232 19.7389C31.8232 19.7167 31.8121 19.7 31.7954 19.6945C31.7788 19.6889 31.7621 19.6834 31.7399 19.6834H31.6732V19.8H31.7343Z" fill="#262524"/>
<path d="M10.1665 23.534H10.0141V22.8885L9.45324 22.0356H9.64371L10.0903 22.7425L10.5368 22.0356H10.7273L10.1665 22.8885V23.534Z" fill="#262524"/>
<path d="M11.5049 23.0387C11.5049 22.9837 11.4957 22.9322 11.4774 22.8843C11.4604 22.8363 11.4358 22.7947 11.4033 22.7594C11.3709 22.7241 11.3313 22.6966 11.2848 22.6768C11.2396 22.6557 11.1881 22.6451 11.1303 22.6451C11.0724 22.6451 11.0202 22.6557 10.9737 22.6768C10.9285 22.6966 10.8897 22.7241 10.8573 22.7594C10.8262 22.7947 10.8016 22.8363 10.7832 22.8843C10.7663 22.9322 10.7578 22.9837 10.7578 23.0387C10.7578 23.0938 10.7663 23.1453 10.7832 23.1932C10.8016 23.2412 10.8262 23.2828 10.8573 23.3181C10.8897 23.3534 10.9285 23.3816 10.9737 23.4028C11.0202 23.4225 11.0724 23.4324 11.1303 23.4324C11.1881 23.4324 11.2396 23.4225 11.2848 23.4028C11.3313 23.3816 11.3709 23.3534 11.4033 23.3181C11.4358 23.2828 11.4604 23.2412 11.4774 23.1932C11.4957 23.1453 11.5049 23.0938 11.5049 23.0387ZM11.6573 23.0387C11.6573 23.1135 11.6439 23.1827 11.6171 23.2461C11.5917 23.3096 11.5557 23.3647 11.5091 23.4112C11.4626 23.4578 11.4068 23.4945 11.3419 23.5213C11.2784 23.5467 11.2079 23.5594 11.1303 23.5594C11.0541 23.5594 10.9836 23.5467 10.9187 23.5213C10.8552 23.4945 10.8001 23.4578 10.7536 23.4112C10.707 23.3647 10.6703 23.3096 10.6435 23.2461C10.6181 23.1827 10.6054 23.1135 10.6054 23.0387C10.6054 22.964 10.6181 22.8948 10.6435 22.8313C10.6703 22.7678 10.707 22.7128 10.7536 22.6663C10.8001 22.6197 10.8552 22.5837 10.9187 22.5583C10.9836 22.5315 11.0541 22.5181 11.1303 22.5181C11.2079 22.5181 11.2784 22.5315 11.3419 22.5583C11.4068 22.5837 11.4626 22.6197 11.5091 22.6663C11.5557 22.7128 11.5917 22.7678 11.6171 22.8313C11.6439 22.8948 11.6573 22.964 11.6573 23.0387Z" fill="#262524"/>
<path d="M12.6261 23.534C12.6233 23.5072 12.6211 23.4811 12.6197 23.4557C12.6197 23.4289 12.6197 23.4021 12.6197 23.3752H12.6155C12.6 23.4021 12.5802 23.4267 12.5562 23.4493C12.5323 23.4719 12.5055 23.4916 12.4758 23.5086C12.4462 23.5241 12.4145 23.5361 12.3806 23.5446C12.3481 23.5544 12.3157 23.5594 12.2832 23.5594C12.1563 23.5594 12.0624 23.5262 12.0018 23.4599C11.9411 23.3922 11.9108 23.2962 11.9108 23.1721V22.5435H12.0504V23.0917C12.0504 23.1467 12.0547 23.1954 12.0631 23.2377C12.0716 23.28 12.0857 23.316 12.1055 23.3456C12.1266 23.3738 12.1541 23.3957 12.188 23.4112C12.2233 23.4253 12.267 23.4324 12.3192 23.4324C12.3263 23.4324 12.346 23.4296 12.3785 23.4239C12.4109 23.4183 12.4448 23.4028 12.4801 23.3774C12.5167 23.352 12.5492 23.3139 12.5774 23.2631C12.6056 23.2123 12.6197 23.1417 12.6197 23.0514V22.5435H12.7594V23.316C12.7594 23.3428 12.7601 23.3767 12.7615 23.4176C12.7644 23.4585 12.7672 23.4973 12.77 23.534H12.6261Z" fill="#262524"/>
<path d="M13.8789 22.698H14.1498C14.2176 22.698 14.2747 22.691 14.3213 22.6768C14.3692 22.6627 14.4073 22.6444 14.4356 22.6218C14.4638 22.5978 14.4842 22.5703 14.4969 22.5393C14.5096 22.5068 14.516 22.4723 14.516 22.4356C14.516 22.4003 14.5096 22.3672 14.4969 22.3361C14.4842 22.3037 14.4638 22.2754 14.4356 22.2515C14.4073 22.2275 14.3692 22.2091 14.3213 22.1964C14.2747 22.1823 14.2176 22.1753 14.1498 22.1753H13.8789V22.698ZM13.8789 23.534H13.7266V22.0356H14.1879C14.3403 22.0356 14.4602 22.0687 14.5477 22.1351C14.6366 22.2014 14.681 22.3015 14.681 22.4356C14.681 22.54 14.6479 22.6282 14.5816 22.7001C14.5167 22.7707 14.4221 22.8116 14.298 22.8229L14.7297 23.534H14.5435L14.1329 22.8377H13.8789V23.534Z" fill="#262524"/>
<path d="M15.7007 22.9626C15.7007 22.868 15.6724 22.7918 15.616 22.734C15.5596 22.6747 15.4806 22.6451 15.379 22.6451C15.3338 22.6451 15.2901 22.6543 15.2478 22.6726C15.2054 22.6895 15.168 22.7128 15.1356 22.7425C15.1045 22.7721 15.0792 22.8059 15.0594 22.844C15.0411 22.8821 15.0319 22.9216 15.0319 22.9626H15.7007ZM15.0277 23.0768C15.0319 23.1262 15.0439 23.1728 15.0636 23.2165C15.0834 23.2603 15.1095 23.2984 15.1419 23.3308C15.1744 23.3618 15.2118 23.3865 15.2541 23.4049C15.2964 23.4232 15.3423 23.4324 15.3917 23.4324C15.4664 23.4324 15.5306 23.4155 15.5843 23.3816C15.6393 23.3463 15.6809 23.3061 15.7091 23.261L15.8171 23.3499C15.7578 23.4246 15.6922 23.4782 15.6202 23.5107C15.5497 23.5431 15.4735 23.5594 15.3917 23.5594C15.3183 23.5594 15.2499 23.5467 15.1864 23.5213C15.1243 23.4945 15.0707 23.4578 15.0255 23.4112C14.9804 23.3647 14.9444 23.3096 14.9176 23.2461C14.8922 23.1827 14.8795 23.1135 14.8795 23.0387C14.8795 22.964 14.8922 22.8948 14.9176 22.8313C14.943 22.7678 14.9783 22.7128 15.0234 22.6663C15.0686 22.6197 15.1215 22.5837 15.1821 22.5583C15.2428 22.5315 15.3084 22.5181 15.379 22.5181C15.4538 22.5181 15.5208 22.5315 15.58 22.5583C15.6393 22.5851 15.6887 22.6211 15.7282 22.6663C15.7691 22.71 15.8001 22.7622 15.8213 22.8229C15.8425 22.8821 15.853 22.9456 15.853 23.0133V23.0768H15.0277Z" fill="#262524"/>
<path d="M16.2777 23.534H16.138V21.934H16.2777V23.534Z" fill="#262524"/>
<path d="M17.1777 23.0409C17.1424 23.0409 17.098 23.043 17.0443 23.0472C16.9921 23.05 16.9413 23.0585 16.892 23.0726C16.844 23.0853 16.8024 23.1058 16.7671 23.134C16.7332 23.1622 16.7163 23.201 16.7163 23.2504C16.7163 23.2828 16.7227 23.3111 16.7354 23.335C16.7495 23.3576 16.7678 23.3767 16.7904 23.3922C16.813 23.4063 16.8376 23.4169 16.8644 23.4239C16.8927 23.4296 16.9209 23.4324 16.9491 23.4324C16.9999 23.4324 17.0436 23.4239 17.0803 23.407C17.1184 23.3901 17.1502 23.3675 17.1756 23.3393C17.201 23.3096 17.2193 23.2758 17.2306 23.2377C17.2433 23.1982 17.2496 23.1566 17.2496 23.1128V23.0409H17.1777ZM17.2496 22.9266V22.9012C17.2496 22.7305 17.165 22.6451 16.9957 22.6451C16.88 22.6451 16.7791 22.6839 16.693 22.7615L16.6084 22.662C16.7015 22.5661 16.8412 22.5181 17.0274 22.5181C17.0754 22.5181 17.1212 22.5252 17.165 22.5393C17.2101 22.5534 17.2489 22.5753 17.2814 22.6049C17.3138 22.6331 17.3399 22.6691 17.3597 22.7128C17.3794 22.7566 17.3893 22.8088 17.3893 22.8694V23.3118C17.3893 23.3499 17.3907 23.3901 17.3935 23.4324C17.3978 23.4733 17.402 23.5072 17.4062 23.534H17.2708C17.2666 23.51 17.263 23.4839 17.2602 23.4557C17.2588 23.4275 17.2581 23.3999 17.2581 23.3731H17.2539C17.2129 23.4394 17.1643 23.4874 17.1078 23.517C17.0528 23.5453 16.9851 23.5594 16.9047 23.5594C16.8609 23.5594 16.8186 23.553 16.7777 23.5403C16.7368 23.529 16.7001 23.5114 16.6676 23.4874C16.6366 23.462 16.6112 23.4317 16.5914 23.3964C16.5731 23.3597 16.5639 23.3174 16.5639 23.2694C16.5639 23.189 16.5844 23.1262 16.6253 23.0811C16.6676 23.0345 16.7198 22.9999 16.7819 22.9774C16.8454 22.9548 16.9124 22.9407 16.983 22.935C17.0549 22.9294 17.1205 22.9266 17.1798 22.9266H17.2496Z" fill="#262524"/>
<path d="M17.9683 23.0049L17.6085 22.5435H17.7989L18.0741 22.9139L18.3365 22.5435H18.51L18.1651 23.0049L18.5799 23.534H18.3894L18.0571 23.1001L17.7376 23.534H17.5598L17.9683 23.0049Z" fill="#262524"/>
<path d="M18.8601 23.8303H18.7183L18.8601 23.3329H19.0316L18.8601 23.8303Z" fill="#262524"/>
<path d="M20.481 23.3181H20.4852L20.862 22.0356H21.044L21.4207 23.3181H21.4249L21.7805 22.0356H21.9498L21.5075 23.534H21.3297L20.953 22.2515H20.9487L20.572 23.534H20.3942L19.9519 22.0356H20.1212L20.481 23.3181Z" fill="#9AC63C"/>
<path d="M22.836 22.9626C22.836 22.868 22.8078 22.7918 22.7514 22.734C22.6949 22.6747 22.6159 22.6451 22.5143 22.6451C22.4692 22.6451 22.4254 22.6543 22.3831 22.6726C22.3408 22.6895 22.3034 22.7128 22.271 22.7425C22.2399 22.7721 22.2145 22.8059 22.1948 22.844C22.1764 22.8821 22.1672 22.9216 22.1672 22.9626H22.836ZM22.163 23.0768C22.1672 23.1262 22.1792 23.1728 22.199 23.2165C22.2187 23.2603 22.2448 23.2984 22.2773 23.3308C22.3098 23.3618 22.3471 23.3865 22.3895 23.4049C22.4318 23.4232 22.4776 23.4324 22.527 23.4324C22.6018 23.4324 22.666 23.4155 22.7196 23.3816C22.7746 23.3463 22.8163 23.3061 22.8445 23.261L22.9524 23.3499C22.8932 23.4246 22.8276 23.4782 22.7556 23.5107C22.6851 23.5431 22.6089 23.5594 22.527 23.5594C22.4537 23.5594 22.3852 23.5467 22.3217 23.5213C22.2597 23.4945 22.206 23.4578 22.1609 23.4112C22.1158 23.3647 22.0798 23.3096 22.053 23.2461C22.0276 23.1827 22.0149 23.1135 22.0149 23.0387C22.0149 22.964 22.0276 22.8948 22.053 22.8313C22.0784 22.7678 22.1136 22.7128 22.1588 22.6663C22.2039 22.6197 22.2568 22.5837 22.3175 22.5583C22.3782 22.5315 22.4438 22.5181 22.5143 22.5181C22.5891 22.5181 22.6561 22.5315 22.7154 22.5583C22.7746 22.5851 22.824 22.6211 22.8635 22.6663C22.9045 22.71 22.9355 22.7622 22.9567 22.8229C22.9778 22.8821 22.9884 22.9456 22.9884 23.0133V23.0768H22.163Z" fill="#9AC63C"/>
<path d="M24.0127 23.3943H24.309C24.4233 23.3943 24.522 23.3774 24.6053 23.3435C24.6899 23.3082 24.7598 23.2624 24.8148 23.2059C24.8712 23.1481 24.9129 23.0832 24.9397 23.0112C24.9665 22.9379 24.9799 22.8624 24.9799 22.7848C24.9799 22.7072 24.9665 22.6324 24.9397 22.5604C24.9129 22.4871 24.8712 22.4222 24.8148 22.3657C24.7598 22.3079 24.6899 22.262 24.6053 22.2282C24.522 22.1929 24.4233 22.1753 24.309 22.1753H24.0127V23.3943ZM23.8603 22.0356H24.3577C24.4508 22.0356 24.5439 22.0511 24.637 22.0821C24.7316 22.1132 24.8162 22.1605 24.891 22.2239C24.9672 22.286 25.0285 22.3643 25.0751 22.4589C25.1217 22.552 25.1449 22.6606 25.1449 22.7848C25.1449 22.9104 25.1217 23.0197 25.0751 23.1128C25.0285 23.2059 24.9672 23.2842 24.891 23.3477C24.8162 23.4098 24.7316 23.4564 24.637 23.4874C24.5439 23.5185 24.4508 23.534 24.3577 23.534H23.8603V22.0356Z" fill="#9AC63C"/>
<path d="M26.1697 22.9626C26.1697 22.868 26.1415 22.7918 26.0851 22.734C26.0286 22.6747 25.9496 22.6451 25.848 22.6451C25.8029 22.6451 25.7591 22.6543 25.7168 22.6726C25.6745 22.6895 25.6371 22.7128 25.6046 22.7425C25.5736 22.7721 25.5482 22.8059 25.5285 22.844C25.5101 22.8821 25.5009 22.9216 25.5009 22.9626H26.1697ZM25.4967 23.0768C25.5009 23.1262 25.5129 23.1728 25.5327 23.2165C25.5524 23.2603 25.5785 23.2984 25.611 23.3308C25.6434 23.3618 25.6808 23.3865 25.7232 23.4049C25.7655 23.4232 25.8113 23.4324 25.8607 23.4324C25.9355 23.4324 25.9997 23.4155 26.0533 23.3816C26.1083 23.3463 26.15 23.3061 26.1782 23.261L26.2861 23.3499C26.2269 23.4246 26.1613 23.4782 26.0893 23.5107C26.0187 23.5431 25.9426 23.5594 25.8607 23.5594C25.7874 23.5594 25.7189 23.5467 25.6554 23.5213C25.5934 23.4945 25.5397 23.4578 25.4946 23.4112C25.4494 23.3647 25.4135 23.3096 25.3867 23.2461C25.3613 23.1827 25.3486 23.1135 25.3486 23.0387C25.3486 22.964 25.3613 22.8948 25.3867 22.8313C25.4121 22.7678 25.4473 22.7128 25.4925 22.6663C25.5376 22.6197 25.5905 22.5837 25.6512 22.5583C25.7119 22.5315 25.7775 22.5181 25.848 22.5181C25.9228 22.5181 25.9898 22.5315 26.0491 22.5583C26.1083 22.5851 26.1577 22.6211 26.1972 22.6663C26.2381 22.71 26.2692 22.7622 26.2903 22.8229C26.3115 22.8821 26.3221 22.9456 26.3221 23.0133V23.0768H25.4967Z" fill="#9AC63C"/>
<path d="M26.7468 23.534H26.6071V21.934H26.7468V23.534Z" fill="#9AC63C"/>
<path d="M27.2869 22.1626C27.2869 22.1922 27.2764 22.2169 27.2552 22.2366C27.234 22.255 27.2108 22.2642 27.1854 22.2642C27.16 22.2642 27.1367 22.255 27.1155 22.2366C27.0944 22.2169 27.0838 22.1922 27.0838 22.1626C27.0838 22.1329 27.0944 22.109 27.1155 22.0906C27.1367 22.0709 27.16 22.061 27.1854 22.061C27.2108 22.061 27.234 22.0709 27.2552 22.0906C27.2764 22.109 27.2869 22.1329 27.2869 22.1626ZM27.2552 23.534H27.1155V22.5435H27.2552V23.534Z" fill="#9AC63C"/>
<path d="M28.0282 23.534H27.8716L27.4694 22.5435H27.6366L27.952 23.3774H27.9562L28.2716 22.5435H28.4303L28.0282 23.534Z" fill="#9AC63C"/>
<path d="M29.3835 22.9626C29.3835 22.868 29.3553 22.7918 29.2989 22.734C29.2424 22.6747 29.1634 22.6451 29.0619 22.6451C29.0167 22.6451 28.973 22.6543 28.9306 22.6726C28.8883 22.6895 28.8509 22.7128 28.8185 22.7425C28.7874 22.7721 28.762 22.8059 28.7423 22.844C28.7239 22.8821 28.7148 22.9216 28.7148 22.9626H29.3835ZM28.7105 23.0768C28.7148 23.1262 28.7268 23.1728 28.7465 23.2165C28.7663 23.2603 28.7924 23.2984 28.8248 23.3308C28.8573 23.3618 28.8947 23.3865 28.937 23.4049C28.9793 23.4232 29.0252 23.4324 29.0746 23.4324C29.1493 23.4324 29.2135 23.4155 29.2671 23.3816C29.3222 23.3463 29.3638 23.3061 29.392 23.261L29.4999 23.3499C29.4407 23.4246 29.3751 23.4782 29.3031 23.5107C29.2326 23.5431 29.1564 23.5594 29.0746 23.5594C29.0012 23.5594 28.9328 23.5467 28.8693 23.5213C28.8072 23.4945 28.7536 23.4578 28.7084 23.4112C28.6633 23.3647 28.6273 23.3096 28.6005 23.2461C28.5751 23.1827 28.5624 23.1135 28.5624 23.0387C28.5624 22.964 28.5751 22.8948 28.6005 22.8313C28.6259 22.7678 28.6612 22.7128 28.7063 22.6663C28.7515 22.6197 28.8044 22.5837 28.865 22.5583C28.9257 22.5315 28.9913 22.5181 29.0619 22.5181C29.1366 22.5181 29.2036 22.5315 29.2629 22.5583C29.3222 22.5851 29.3715 22.6211 29.4111 22.6663C29.452 22.71 29.483 22.7622 29.5042 22.8229C29.5253 22.8821 29.5359 22.9456 29.5359 23.0133V23.0768H28.7105Z" fill="#9AC63C"/>
<path d="M29.804 22.8525C29.804 22.8088 29.8026 22.7643 29.7998 22.7192C29.7983 22.674 29.7969 22.6155 29.7955 22.5435H29.9331V22.7276H29.9373C29.9472 22.7008 29.9613 22.6754 29.9796 22.6514C29.998 22.6261 30.0199 22.6035 30.0453 22.5837C30.0721 22.564 30.1024 22.5485 30.1363 22.5372C30.1715 22.5245 30.211 22.5181 30.2548 22.5181C30.2943 22.5181 30.3288 22.5224 30.3585 22.5308L30.331 22.6684C30.3126 22.6613 30.2858 22.6578 30.2505 22.6578C30.1969 22.6578 30.1511 22.6684 30.113 22.6895C30.0749 22.7093 30.0431 22.7354 30.0177 22.7678C29.9923 22.7989 29.9733 22.8328 29.9606 22.8694C29.9493 22.9061 29.9437 22.9414 29.9437 22.9753V23.534H29.804V22.8525Z" fill="#9AC63C"/>
<path d="M30.5537 23.4324C30.5537 23.462 30.5431 23.4888 30.5219 23.5128C30.5008 23.5354 30.4733 23.5467 30.4394 23.5467C30.4055 23.5467 30.378 23.5354 30.3569 23.5128C30.3357 23.4888 30.3251 23.462 30.3251 23.4324C30.3251 23.4028 30.3357 23.3767 30.3569 23.3541C30.378 23.3301 30.4055 23.3181 30.4394 23.3181C30.4733 23.3181 30.5008 23.3301 30.5219 23.3541C30.5431 23.3767 30.5537 23.4028 30.5537 23.4324Z" fill="#9AC63C"/>
<path d="M30.7691 22.8794H30.6677V22.8394H30.9132V22.8794H30.8118V23.1543H30.7691V22.8794Z" fill="#262524"/>
<path d="M30.9555 22.8394H31.0191L31.1192 23.0778H31.1209L31.2201 22.8394H31.2837V23.1543H31.241V22.8954L31.1338 23.1543H31.1054L30.9991 22.8954L30.9982 23.1543H30.9555V22.8394Z" fill="#262524"/>
</svg>
