<svg width="40" height="40" viewBox="0 0 40 40" fill="none" xmlns="http://www.w3.org/2000/svg">
<rect width="40" height="40" fill="#FCB427"/>
<path d="M19.8828 22.921C19.2159 24.1768 18.1773 24.8617 16.8391 25.021C15.1802 25.2183 13.6053 24.9654 12.3332 23.7468C11.4725 22.9223 11.0108 21.8774 11.0019 20.6694C10.9836 18.2197 10.9966 15.7692 10.9966 13.3195C10.9966 12.8747 10.9966 12.8702 10.5657 12.8756C10.1343 12.8805 9.73178 12.7878 9.38923 12.5119C8.84033 12.07 8.56993 11.4691 8.55737 10.7755C8.53385 9.45845 8.55007 8.14053 8.55088 6.8226C8.55128 6.5133 8.75317 6.2909 9.02478 6.29338C9.29275 6.29544 9.4776 6.5063 9.4776 6.81478C9.47841 8.07051 9.4772 9.32666 9.47841 10.5824C9.47882 10.8822 9.53922 11.1689 9.68638 11.4308C9.86435 11.7479 10.1351 11.9217 10.4959 11.9254C11.0769 11.9316 11.6578 11.9337 12.2387 11.9254C12.8225 11.9176 13.2437 11.4123 13.2498 10.7125C13.2563 9.9712 13.2514 9.23028 13.2514 8.48895C13.2514 7.93995 13.2502 7.39096 13.2518 6.84196C13.253 6.52031 13.4565 6.28967 13.7298 6.29379C13.9985 6.29791 14.1943 6.51907 14.1947 6.83578C14.1972 8.1327 14.2024 9.43003 14.1931 10.7269C14.1866 11.647 13.643 12.4864 12.8983 12.764C12.6672 12.85 12.426 12.8912 12.1828 12.8698C11.9801 12.8521 11.9221 12.9135 11.9229 13.1264C11.931 15.6107 11.9209 18.095 11.931 20.5792C11.9363 21.8539 12.501 22.8308 13.5575 23.5038C14.1883 23.9053 14.9013 24.0573 15.6355 24.1125C16.3093 24.1632 16.968 24.1047 17.6004 23.8353C18.5361 23.4371 19.0696 22.7102 19.299 21.7279C19.3821 21.3725 19.4186 21.0109 19.4182 20.646C19.4166 18.3334 19.4129 16.0209 19.4089 13.7079C19.4085 13.4678 19.3935 13.2277 19.4008 12.988C19.4052 12.8426 19.3566 12.7965 19.2163 12.8031C18.8361 12.8212 18.4595 12.7965 18.1084 12.6248C17.3134 12.236 16.8561 11.5877 16.7738 10.7031C16.7033 9.94526 16.7353 9.18045 16.7576 8.41976C16.7905 7.32053 17.6479 6.18012 19.0047 6.18176C19.5719 6.18218 20.139 6.19453 20.7061 6.1933C21.6783 6.19124 22.6273 7.0137 22.802 8.16112C22.8851 8.70641 22.8304 9.25747 22.8373 9.80564C22.8426 10.2228 22.8657 10.6417 22.7603 11.0544C22.5207 11.9938 21.6981 12.8422 20.5651 12.8035C20.3989 12.7977 20.3474 12.8459 20.3478 13.0197C20.353 15.5864 20.3466 18.153 20.3543 20.7197C20.3563 21.4425 20.4941 22.1393 20.8869 22.7608C21.3495 23.4931 22.033 23.8983 22.8559 24.0408C24.0539 24.2484 25.2214 24.1265 26.2734 23.4688C27.3112 22.8197 27.8345 21.8358 27.841 20.5986C27.8536 18.0731 27.8423 15.5477 27.85 13.0222C27.8508 12.8187 27.7968 12.7664 27.6043 12.7796C27.2042 12.8068 26.8057 12.7817 26.4372 12.5984C25.6706 12.2174 25.2802 11.5527 25.2534 10.7224C25.21 9.37896 25.2404 8.03262 25.2425 6.68752C25.2429 6.40128 25.4277 6.20895 25.7127 6.20853C27.4016 6.20565 29.0905 6.20565 30.7793 6.20812C31.0736 6.20853 31.2605 6.39922 31.2613 6.70028C31.2642 8.03839 31.2913 9.37773 31.2524 10.7146C31.2252 11.6487 30.5758 12.8047 29.144 12.7837C28.7779 12.7784 28.7779 12.7829 28.7779 13.1589C28.7779 15.6156 28.7613 18.0727 28.784 20.5294C28.7982 22.043 27.9108 24.0413 25.821 24.7402C24.6105 25.145 23.3756 25.2389 22.142 24.8415C21.1983 24.5375 20.4613 23.9552 19.9756 23.0648C19.9525 23.0248 19.925 22.9873 19.8828 22.921ZM28.2387 7.15332C27.6043 7.15332 26.9698 7.15497 26.3354 7.15167C26.2251 7.15126 26.1619 7.16568 26.1623 7.30529C26.1672 8.40905 26.1473 9.51364 26.1724 10.617C26.1866 11.2257 26.5588 11.8657 27.4154 11.8365C27.9817 11.8171 28.5493 11.8332 29.116 11.8328C29.8279 11.8319 30.3147 11.3546 30.3204 10.6281C30.3289 9.53093 30.3204 8.43418 30.3257 7.33701C30.3265 7.19327 30.2827 7.1492 30.142 7.15085C29.5076 7.15703 28.8732 7.15332 28.2387 7.15332ZM19.7985 9.51693C19.1502 9.51693 18.502 9.5194 17.8542 9.51446C17.735 9.51364 17.6868 9.54329 17.6908 9.67385C17.6994 9.96173 17.6827 10.2504 17.6961 10.5379C17.7298 11.2681 18.3241 11.8945 19.029 11.8542C19.5269 11.8258 20.0291 11.8245 20.5274 11.8542C21.2636 11.8983 21.8283 11.2895 21.8826 10.6096C21.9065 10.3097 21.8858 10.0062 21.9008 9.70556C21.9089 9.54453 21.8473 9.5124 21.7026 9.51405C21.0678 9.52064 20.4329 9.51693 19.7985 9.51693ZM21.0718 8.57462C21.2875 8.57462 21.5035 8.56473 21.7184 8.57791C21.8826 8.5878 21.9053 8.52519 21.8883 8.37446C21.7987 7.57794 21.1582 7.05612 20.364 7.13396C20.2505 7.14508 20.2558 7.20398 20.2558 7.28223C20.2566 7.66566 20.2622 8.0491 20.2525 8.43212C20.2493 8.56103 20.3007 8.57874 20.4049 8.57626C20.6271 8.57132 20.8492 8.57462 21.0718 8.57462ZM18.5174 8.57462C18.7404 8.57462 18.9634 8.57132 19.1859 8.57585C19.2925 8.57791 19.3384 8.55938 19.3319 8.428C19.3173 8.11993 19.327 7.81063 19.3266 7.50216C19.3266 7.13232 19.3266 7.13232 18.9682 7.13685C18.3046 7.14508 17.7204 7.73321 17.6925 8.41276C17.6872 8.54002 17.7225 8.58244 17.8489 8.57709C18.0715 8.56803 18.2945 8.57462 18.5174 8.57462Z" fill="#FEFDFA"/>
<path d="M12.0257 30.265C12.228 29.6337 12.4315 29.0027 12.6313 28.3705C12.6824 28.2091 12.7509 28.0633 12.8957 27.9694C13.1924 27.7766 13.5905 27.9088 13.7145 28.2502C13.9363 28.8614 14.1491 29.4759 14.3652 30.0892C14.383 30.1394 14.3838 30.1979 14.458 30.2415C14.5955 29.5381 14.7345 28.8437 14.8663 28.1481C14.9477 27.7173 15.1626 27.539 15.5266 27.616C15.8023 27.6745 15.9576 27.8994 15.8968 28.1782C15.6369 29.3631 15.3742 30.5471 15.1079 31.7304C15.039 32.0364 14.8922 32.1694 14.6368 32.1855C14.3141 32.2057 14.1366 32.1027 14.0239 31.7971C13.7733 31.1176 13.5329 30.4339 13.2881 29.7519C13.2698 29.7008 13.25 29.6501 13.2135 29.5538C13.1056 29.8643 13.0112 30.1386 12.9151 30.4121C12.7635 30.8437 12.6143 31.2765 12.4582 31.7065C12.3731 31.9413 12.2393 32.1385 11.9734 32.1797C11.6268 32.2333 11.3892 32.0945 11.3017 31.7399C11.1363 31.069 10.9968 30.391 10.8517 29.7152C10.7463 29.2259 10.6445 28.7358 10.5484 28.2445C10.4609 27.7956 10.7333 27.5242 11.1735 27.6098C11.4257 27.6588 11.4938 27.8524 11.5368 28.0711C11.6746 28.7696 11.8149 29.4681 11.9547 30.1662C11.9612 30.1979 11.9705 30.2292 11.9787 30.2609C11.9945 30.2617 12.0099 30.2634 12.0257 30.265Z" fill="#FEFDFA"/>
<path d="M28.1672 27.5985C29.0157 27.6257 29.7102 27.9947 30.1528 28.7673C30.5935 29.5359 30.5663 30.3225 30.1216 31.0885C30.0596 31.1956 30.0519 31.2508 30.1573 31.3381C30.3936 31.5333 30.4281 31.7553 30.283 31.9666C30.1342 32.1828 29.8768 32.2533 29.6453 32.0634C29.4126 31.8727 29.235 31.9287 28.9971 32.0272C28.0618 32.4147 26.9847 32.1206 26.3434 31.327C25.7325 30.5713 25.6656 29.4967 26.1975 28.6792C26.6543 27.9766 27.3119 27.6253 28.1672 27.5985ZM28.4076 31.1417C28.3712 31.0787 28.3359 31.028 28.3108 30.9728C28.2329 30.8002 28.2572 30.6371 28.374 30.493C28.4879 30.3526 28.6383 30.3134 28.811 30.3579C28.9042 30.3822 28.993 30.4226 29.0591 30.4897C29.2071 30.64 29.2752 30.5696 29.3408 30.4102C29.5298 29.9522 29.4811 29.5186 29.188 29.131C28.8645 28.7031 28.4198 28.5478 27.8977 28.6364C27.2134 28.7525 26.7318 29.4609 26.87 30.1388C27.0135 30.8431 27.7278 31.3179 28.4076 31.1417Z" fill="#FEFDFA"/>
<path d="M17.0583 29.9139C17.0583 29.3513 17.0571 28.7883 17.0587 28.2257C17.0595 27.846 17.274 27.6059 17.6112 27.6022C17.9469 27.5981 18.1626 27.8378 18.167 28.2175C18.1691 28.3752 18.118 28.5688 18.1897 28.6812C18.2761 28.8167 18.4707 28.687 18.6195 28.6977C19.4951 28.7591 20.0898 29.3962 20.0931 30.2883C20.0947 30.7273 20.0955 31.1668 20.0927 31.6058C20.0906 31.9571 19.851 32.217 19.5393 32.2137C19.2207 32.21 18.9961 31.9608 18.9936 31.6004C18.9908 31.1614 18.994 30.722 18.992 30.2829C18.9912 30.0881 18.913 29.9399 18.7301 29.8575C18.5761 29.7879 18.4391 29.8254 18.315 29.9259C18.1861 30.0305 18.167 30.1804 18.167 30.3352C18.1666 30.7471 18.1674 31.1589 18.1666 31.5704C18.1658 31.9596 17.9424 32.217 17.6108 32.2137C17.2881 32.2104 17.0591 31.9406 17.0587 31.5613C17.0579 31.0119 17.0583 30.4629 17.0583 29.9139Z" fill="#FEFDFA"/>
<path d="M22.6091 30.4844C22.7737 30.075 22.9079 29.7241 23.0559 29.379C23.1957 29.0528 23.5136 28.9326 23.8059 29.0804C24.0491 29.2036 24.174 29.4931 24.0673 29.762C23.6652 30.7768 23.2695 31.7949 22.8366 32.7966C22.5731 33.4061 22.0683 33.7158 21.4112 33.7446C21.097 33.7586 20.8882 33.5816 20.8737 33.3134C20.8566 33.0054 21.0314 32.7945 21.3565 32.7784C21.7059 32.7607 21.9131 32.5816 22.0396 32.2661C22.0809 32.1627 22.0829 32.0779 22.0404 31.9745C21.7493 31.2678 21.4639 30.559 21.1781 29.8498C21.0399 29.5067 21.157 29.1826 21.459 29.0607C21.7566 28.9408 22.0375 29.085 22.1794 29.4313C22.3156 29.7637 22.451 30.0961 22.6091 30.4844Z" fill="#FEFDFA"/>
<path d="M11.0839 8.5518C11.0839 9.14816 11.0863 9.74493 11.0827 10.3413C11.0811 10.5929 10.9461 10.7684 10.7255 10.8289C10.5362 10.8808 10.3262 10.7947 10.2168 10.6205C10.1608 10.5312 10.1373 10.4303 10.1373 10.3273C10.1357 9.14116 10.1353 7.95503 10.1373 6.76849C10.1377 6.56215 10.218 6.39412 10.4053 6.2961C10.5707 6.20961 10.7336 6.22938 10.8832 6.33605C11.0344 6.44354 11.0859 6.59963 11.0851 6.78249C11.0827 7.37267 11.0843 7.96244 11.0839 8.5518Z" fill="#FEFDFA"/>
<path d="M11.7046 8.54664C11.7046 7.95687 11.7038 7.3671 11.705 6.77733C11.7058 6.4635 11.8992 6.24357 12.1712 6.24192C12.4412 6.24028 12.6415 6.45732 12.6423 6.77362C12.6455 7.95316 12.6455 9.1327 12.6423 10.3122C12.6415 10.6302 12.4453 10.8444 12.1741 10.8452C11.8943 10.846 11.705 10.6253 11.7046 10.2949C11.7042 9.71259 11.7046 9.12982 11.7046 8.54664Z" fill="#FEFDFA"/>
<path d="M27.7942 9.42815C27.7942 9.14037 27.7906 8.85259 27.7954 8.56523C27.7999 8.27868 27.9976 8.07901 28.2639 8.08271C28.5212 8.08642 28.7174 8.28198 28.7198 8.5574C28.725 9.13296 28.725 9.70811 28.7198 10.2837C28.7174 10.555 28.5147 10.7571 28.2619 10.7604C28.0074 10.7637 27.7991 10.5496 27.7954 10.2713C27.791 9.99012 27.7942 9.70893 27.7942 9.42815Z" fill="#FEFDFA"/>
<path d="M29.9362 9.4068C29.9362 9.68799 29.9383 9.96918 29.9358 10.2504C29.9334 10.534 29.7413 10.7485 29.4844 10.7592C29.2287 10.7699 29.009 10.5707 29.0033 10.2837C28.9916 9.70816 28.9908 9.13178 29.0029 8.55581C29.009 8.2598 29.2141 8.07495 29.4811 8.08153C29.7454 8.08812 29.9342 8.30385 29.9358 8.60439C29.9374 8.872 29.9362 9.1396 29.9362 9.4068Z" fill="#FEFDFA"/>
<path d="M26.5733 9.41351C26.5733 9.13273 26.5705 8.85236 26.5741 8.57158C26.5778 8.29163 26.7593 8.09277 27.0142 8.08207C27.2793 8.07095 27.4924 8.2624 27.4977 8.551C27.5078 9.12573 27.5074 9.70088 27.4985 10.2756C27.494 10.5622 27.2817 10.7639 27.0236 10.7589C26.7658 10.754 26.5766 10.5445 26.5737 10.255C26.5713 9.97466 26.5733 9.69429 26.5733 9.41351Z" fill="#FEFDFA"/>
</svg>
