<svg width="40" height="40" viewBox="0 0 40 40" fill="none" xmlns="http://www.w3.org/2000/svg">
<rect width="40" height="40" fill="#00C2E8"/>
<path fill-rule="evenodd" clip-rule="evenodd" d="M30.6797 19.3107C30.5823 19.3154 30.5979 19.3161 30.679 19.3143L30.6782 19.3184C30.6782 19.3184 30.6613 19.4156 30.6348 19.5731C30.5764 19.8891 30.5048 20.3355 30.4446 20.7744C30.3962 21.1059 30.3537 21.4286 30.3332 21.6616C30.06 22.5884 29.6059 23.3641 29.1097 23.8298C28.7923 24.1251 28.458 24.2935 28.1431 24.2935C27.6456 24.2935 27.3487 23.9966 27.3487 23.1059C27.3487 21.906 27.6135 20.3959 28.0109 18.8768C28.0232 18.8412 28.0353 18.8012 28.0472 18.7567C28.633 17.3524 28.97 15.7876 28.97 15.0815C28.97 14.855 28.9113 14.6051 28.6935 14.4973C28.6641 14.4704 28.6234 14.4505 28.5684 14.4395C27.9907 14.3271 27.445 14.3432 27.0598 14.4635C26.7379 14.5609 26.6605 14.8817 26.6124 15.0807L26.6024 15.1215C26.4018 16.0444 26.0809 17.6813 25.8562 19.1177L25.8533 19.137C25.3485 19.7451 24.7717 20.1691 24.147 20.2813C24.0904 19.1636 23.6846 18.4201 23.0501 17.997C23.3557 17.2567 22.9388 17.2926 22.4527 17.7114C22.1387 17.6099 21.7912 17.561 21.4187 17.561C18.7466 17.561 17.0374 19.9443 17.0374 22.6164C17.0374 24.7831 18.2169 25.6898 19.9422 25.6898C21.9707 25.6898 23.4865 24.2478 24.0493 21.612C24.6241 21.4909 25.1194 21.2187 25.551 20.827L25.5552 20.8238C25.5195 21.0095 25.2591 22.393 25.2395 23.2983C25.233 23.3352 25.2296 23.3727 25.2296 23.4109C25.2296 24.8713 25.8555 25.6818 27.324 25.6818C28.1318 25.6818 28.8683 25.3037 29.4645 24.745C29.7658 24.4641 30.0316 24.137 30.2529 23.789L30.254 23.8041C30.4306 25.1602 31.1367 25.6899 32.2842 25.6899C33.3434 25.6899 34.3545 25.0238 35.0767 23.8121C35.2212 23.5714 35.3255 23.3628 35.2372 23.2584C35.0286 23.0177 34.6274 22.8973 34.523 23.0899C34.0496 23.9566 33.536 24.3096 32.9823 24.3096C32.541 24.3096 32.1879 24.0448 32.1879 23.2905C32.1879 22.1912 32.8058 19.2302 32.8058 19.2302L32.8076 19.2216C33.1715 19.2111 33.5557 19.2005 33.94 19.19L34.523 19.174C35.0285 19.1659 35.3816 19.0054 35.4699 18.532C35.518 18.2511 35.3575 18.0666 35.0285 18.0505C35.0285 18.0505 34.0897 18.0024 33.0144 17.9542C33.0157 17.9473 33.2314 16.7572 33.3434 16.2691C33.3996 16.0284 33.2712 15.7957 32.9663 15.7154C32.6727 15.644 31.9946 15.6354 31.7545 15.6662C31.7488 15.6664 31.7431 15.6667 31.7375 15.6673C31.5449 15.6913 31.3603 15.8037 31.3122 16.0043C31.2006 16.4984 30.9545 17.8631 30.9511 17.8818L30.9328 17.8815C30.5414 17.8736 30.1675 17.8661 29.9009 17.874C29.6521 17.882 29.5318 18.0104 29.4756 18.211C29.4275 18.4197 29.3793 18.7166 29.3633 19.0215C29.3472 19.2542 29.604 19.3665 29.8608 19.3505C29.8608 19.3505 30.1822 19.3347 30.6797 19.3107ZM21.649 18.8219C21.6366 18.815 21.624 18.8093 21.6113 18.8048C21.499 18.7567 21.3706 18.7406 21.2261 18.7406C19.9422 18.7406 19.22 20.9072 19.22 22.9294C19.22 23.9806 19.6293 24.5102 20.2471 24.5102C21.0977 24.5102 21.8841 23.0337 22.157 21.2603L22.1578 21.255C21.565 20.788 21.4912 20.1823 21.5067 19.6956C21.5185 19.4002 21.5521 19.1004 21.649 18.8219Z" fill="white"/>
<path d="M15.2222 14.4108C15.3746 14.3947 15.6956 14.3787 16.0487 14.3787C16.8592 14.3787 17.3005 14.5231 17.3005 15.3978C17.3005 18.7359 15.511 25.6611 12.7346 25.6611C10.6402 25.6611 10.2149 23.3259 10.1106 20.3489C9.0674 22.6358 8.50569 23.8235 7.81558 25.0111C7.49461 25.5728 7.10141 25.6851 6.66809 25.6851C6.29094 25.6851 5.31195 25.5648 5.08727 25.4203C4.85456 25.2839 4.73419 25.1555 4.62185 24.6179C4.10828 22.1223 4.43729 18.9045 4.95085 16.3366C5.03912 15.8873 5.15146 15.6706 5.46442 15.47C5.79342 15.2533 6.52365 15.2373 7.00511 15.2293C7.2619 15.2293 7.40634 15.4138 7.34214 15.7187C6.88475 17.9576 6.33908 21.0309 6.76438 24.2006C6.76438 24.2006 8.36125 21.039 10.0143 17.107C10.0423 17.0399 10.0686 16.9767 10.0933 16.9171C10.3587 16.2781 10.4502 16.0576 10.7365 15.9916C11.1538 15.9033 11.4507 15.9033 11.8679 15.9515C12.1408 15.9836 12.2772 16.0558 12.2692 16.4329C12.2604 16.8056 12.2451 17.1975 12.2293 17.6037C12.2019 18.3083 12.1729 19.0557 12.1729 19.8193C12.1729 21.8575 12.3895 24.1444 13.1759 24.1444C14.2271 24.1444 15.158 19.2415 14.829 15.0286C14.8049 14.7398 14.9092 14.4429 15.2222 14.4108Z" fill="white"/>
</svg>
