<svg width="40" height="40" viewBox="0 0 40 40" fill="none" xmlns="http://www.w3.org/2000/svg">
<rect width="40" height="40" fill="#DD2F2D"/>
<path d="M14.2484 25.2486C12.9862 26.785 11.0715 27.7649 8.92788 27.7649C5.1268 27.7649 2.04541 24.6836 2.04541 20.8825C2.04541 17.0814 5.1268 14 8.92788 14C11.0891 14 13.0177 14.9962 14.2795 16.5544C15.5417 15.018 17.4564 14.038 19.6 14.038C21.7816 14.038 23.7261 15.0531 24.9871 16.6366C26.2488 15.0749 28.1796 14.0761 30.3437 14.0761C34.1447 14.0761 37.2261 17.1575 37.2261 20.9585C37.2261 24.7596 34.1447 27.841 30.3437 27.841C28.1621 27.841 26.2175 26.826 24.9566 25.2424C23.6949 26.8042 21.7641 27.803 19.6 27.803C17.4388 27.803 15.5102 26.8068 14.2484 25.2486Z" fill="white"/>
<path d="M24.0008 20.908C24.008 17.5623 26.6254 14.5844 30.3244 14.5699C33.9513 14.5627 36.6985 17.4181 36.6841 20.9513C36.6697 24.5061 33.8936 27.3037 30.3172 27.2893C26.6038 27.2749 23.9864 24.2681 24.0008 20.908ZM32.5236 19.675C32.5236 18.4276 31.5863 17.4614 30.3677 17.4469C29.1419 17.4397 28.1396 18.4348 28.1396 19.6606C28.1396 20.8719 29.1059 21.8454 30.3316 21.867C31.5358 21.8958 32.5236 20.908 32.5236 19.675ZM30.3461 23.9076C31.1176 23.9076 31.8819 23.9004 32.6534 23.9076C32.9491 23.9076 33.1005 23.8066 33.1005 23.4894C33.1005 23.1577 32.9058 23.1288 32.6534 23.1288C32.1271 23.1216 32.1199 23.1216 32.0838 22.5953C32.0622 22.2924 31.8891 22.2131 31.6295 22.2131C31.37 22.2131 31.1464 22.2347 31.1176 22.5736C31.0599 23.136 31.0527 23.136 30.4975 23.136C30.3893 23.136 30.2812 23.136 30.173 23.136C29.6322 23.136 29.6178 23.136 29.5817 22.5808C29.5601 22.2636 29.3726 22.2203 29.1131 22.2203C28.8607 22.2203 28.666 22.2636 28.6444 22.5808C28.6011 23.1216 28.5939 23.1288 28.0459 23.136C27.7647 23.136 27.6277 23.237 27.6277 23.5326C27.6277 23.8427 27.7791 23.922 28.0531 23.9148C28.8102 23.9004 29.5745 23.9076 30.3461 23.9076Z" fill="#F0001E"/>
<path d="M19.6038 27.2605C16.3591 27.2533 13.684 24.8161 13.3307 21.6002C12.9701 18.3122 15.2847 15.1035 18.7602 14.6492C21.0027 14.3536 22.899 15.1035 24.4205 16.7836C24.5719 16.9494 24.5791 17.0936 24.4637 17.2955C23.0793 19.711 23.0721 22.1338 24.4565 24.5493C24.5935 24.7873 24.5575 24.9315 24.3916 25.1189C23.0937 26.5178 21.5146 27.2605 19.6038 27.2605ZM17.7435 18.0887C17.3974 18.0887 17.0441 18.0887 16.698 18.0815C16.4312 18.0743 16.3014 18.1824 16.3014 18.4636C16.3014 18.752 16.4023 18.889 16.698 18.8818C17.1162 18.8746 17.5416 18.8818 17.9598 18.8818C18.205 18.8818 18.342 18.9756 18.342 19.2424C18.3348 19.675 18.342 20.1076 18.3348 20.5403C18.3276 20.8503 18.205 21.1027 17.9454 21.2757C17.5128 21.5642 17.0873 21.8526 16.6475 22.1194C16.3519 22.2996 16.3375 22.5015 16.5033 22.7827C16.6691 23.0567 16.8566 23.1216 17.1234 22.9414C17.5993 22.6169 18.0968 22.314 18.5583 21.9752C18.9405 21.6939 19.2649 21.3406 19.301 20.8359C19.3587 20.0788 19.337 19.3217 19.3082 18.5646C19.2938 18.2545 19.0991 18.0959 18.7818 18.0887C18.4357 18.0887 18.0896 18.0887 17.7435 18.0887ZM21.7886 20.9008C21.7886 19.9995 21.7814 19.1054 21.7958 18.204C21.803 17.8579 21.6588 17.7354 21.3271 17.7354C20.9955 17.7354 20.844 17.8507 20.844 18.1968C20.8512 19.9923 20.8512 21.7949 20.844 23.5903C20.844 23.9292 20.9882 24.059 21.3199 24.059C21.6516 24.059 21.7958 23.9436 21.7958 23.5975C21.7814 22.6962 21.7886 21.7949 21.7886 20.9008Z" fill="#FFC800"/>
<path d="M8.84548 14.5555C10.814 14.6348 12.4291 15.3343 13.6982 16.7908C13.8496 16.9638 13.8568 17.0936 13.7414 17.2955C12.357 19.7111 12.3498 22.1338 13.7342 24.5493C13.8568 24.7656 13.8424 24.9026 13.6837 25.0901C12.6166 26.3087 11.2826 27.0442 9.6819 27.2389C6.2641 27.6426 3.2501 25.3857 2.64441 21.9968C1.98825 18.3699 4.69942 14.8728 8.36958 14.606C8.54984 14.5916 8.73011 14.5699 8.84548 14.5555ZM8.37679 17.4542C7.151 17.4542 6.20642 18.4132 6.19921 19.6606C6.19921 20.908 7.14379 21.8742 8.36237 21.8814C9.57374 21.8886 10.5688 20.908 10.5832 19.6966C10.5976 18.4708 9.60258 17.4542 8.37679 17.4542ZM8.384 23.9076C9.15553 23.9076 9.91985 23.9004 10.6914 23.9076C10.9654 23.9076 11.1168 23.8211 11.1168 23.5182C11.1168 23.2082 10.9726 23.1288 10.6914 23.1288C10.1434 23.1216 10.1362 23.1144 10.1001 22.5736C10.0785 22.2564 9.89101 22.2131 9.63864 22.2131C9.38627 22.2131 9.16274 22.2564 9.17716 22.5736C9.21321 23.2226 8.9969 23.1288 8.57148 23.1361C8.44169 23.1361 8.30469 23.1361 8.1749 23.1361C7.6269 23.1361 7.61247 23.1361 7.59084 22.5953C7.57642 22.2852 7.41779 22.2131 7.151 22.2203C6.89142 22.2275 6.64626 22.2564 6.66789 22.5953C6.70395 23.2082 6.5381 23.1433 6.09105 23.1361C5.83868 23.1361 5.63679 23.1649 5.644 23.4966C5.644 23.8138 5.78821 23.922 6.09105 23.9148C6.84816 23.9004 7.61247 23.9076 8.384 23.9076Z" fill="#F0001E"/>
<path d="M31.6076 19.6745C31.6076 20.3809 31.0237 20.9575 30.3318 20.9575C29.6542 20.9575 29.056 20.3448 29.0632 19.6529C29.0704 18.9537 29.6614 18.3627 30.3534 18.3771C31.0598 18.3843 31.6148 18.9537 31.6076 19.6745Z" fill="#F0001E"/>
<path d="M9.66626 19.6673C9.66626 20.3593 9.05359 20.9647 8.37604 20.9575C7.68409 20.9431 7.08583 20.3376 7.09304 19.6601C7.10024 18.9753 7.71292 18.3699 8.39046 18.3771C9.07521 18.3843 9.66626 18.9826 9.66626 19.6673Z" fill="#F0001E"/>
</svg>
