<svg width="40" height="40" viewBox="0 0 40 40" fill="none" xmlns="http://www.w3.org/2000/svg">
<rect width="40" height="40" fill="#CB202D"/>
<path fill-rule="evenodd" clip-rule="evenodd" d="M7.30178 23.1528V22.2456H4.33361L7.30178 18.8911V18.1304H3.01136L3.01137 19.0378H5.87784L2.90967 22.3922V23.1528H7.30178ZM10.5602 23.2627C12.1141 23.2627 13.2607 22.0806 13.2607 20.6508V20.6325C13.2607 19.1935 12.1233 18.0296 10.5791 18.0296C9.02583 18.0296 7.87894 19.2211 7.87894 20.6508V20.6692C7.87894 22.0989 9.01605 23.2627 10.5602 23.2627ZM10.5791 22.3006C9.65436 22.3006 8.98857 21.549 8.98857 20.6508V20.6325C8.98857 19.7435 9.60794 18.9919 10.5602 18.9919C11.485 18.9919 12.1508 19.7526 12.1508 20.6508V20.6692C12.1508 21.5582 11.5314 22.3006 10.5791 22.3006ZM14.2447 23.1528H15.354V20.3209C15.354 19.5327 15.8163 19.0378 16.4821 19.0378C17.1479 19.0378 17.5364 19.4777 17.5364 20.2751V23.1528H18.6548V20.3117C18.6548 19.4869 19.1264 19.0378 19.7739 19.0378C20.4397 19.0378 20.8373 19.4777 20.8373 20.2934V23.1528H21.9472V19.9634C21.9472 18.7353 21.2716 18.0296 20.1623 18.0296C19.3762 18.0296 18.8491 18.387 18.4423 18.9186C18.1741 18.387 17.6568 18.0296 16.917 18.0296C16.1309 18.0296 15.6869 18.4512 15.354 18.9095V18.1304H14.2447V23.1528ZM24.928 22.4472C24.3642 22.4472 23.911 22.1631 23.911 21.659V21.6407C23.911 21.1091 24.3642 20.7791 25.1314 20.7791C25.6121 20.7791 26.0195 20.8708 26.3243 20.9808V21.3474C26.3243 21.9981 25.7233 22.4472 24.928 22.4472ZM24.6324 23.2536C25.4185 23.2536 25.9548 22.9237 26.2968 22.5114V23.1528H27.3786V20.1651C27.3786 19.5052 27.2119 18.9828 26.8423 18.6254C26.4813 18.2679 25.9175 18.0663 25.1687 18.0663C24.3642 18.0663 23.8187 18.2313 23.2635 18.4787L23.5597 19.3402C24.0221 19.1477 24.4473 19.0286 25.0208 19.0286C25.8528 19.0286 26.306 19.4227 26.306 20.1559V20.2842C25.9084 20.1559 25.4924 20.0734 24.9188 20.0734C23.6801 20.0734 22.82 20.605 22.82 21.6865V21.7048C22.82 22.713 23.6801 23.2536 24.6324 23.2536ZM30.2305 23.2352C30.6557 23.2352 30.9703 23.1436 31.2567 22.9879V22.0806C31.0258 22.1906 30.7943 22.2547 30.5353 22.2547C30.1285 22.2547 29.8885 22.0623 29.8885 21.604V19.0836H31.2751V18.1304H29.8885V16.7373H28.7786V18.1304H28.122V19.0836H28.7786V21.7782C28.7786 22.8687 29.3797 23.2352 30.2305 23.2352ZM37.0915 20.6508V20.6325C37.0915 19.1935 35.9541 18.0296 34.41 18.0296C32.8567 18.0296 31.7101 19.2211 31.7101 20.6508V20.6692C31.7101 22.0989 32.8475 23.2627 34.3917 23.2627C35.945 23.2627 37.0915 22.0806 37.0915 20.6508ZM34.41 22.3006C33.4852 22.3006 32.8194 21.549 32.8194 20.6508V20.6325C32.8194 19.7435 33.4394 18.9919 34.3917 18.9919C35.3164 18.9919 35.9816 19.7526 35.9816 20.6508V20.6692C35.9816 21.5582 35.3623 22.3006 34.41 22.3006Z" fill="white"/>
</svg>
