<svg width="24" height="24" viewBox="0 0 24 24" fill="none" xmlns="http://www.w3.org/2000/svg">
<path fill-rule="evenodd" clip-rule="evenodd" d="M21.1407 3.85427C22 5.03718 22 6.72462 22 10.0995V13.8995C22 17.2744 22 18.9618 21.1407 20.1447C20.8625 20.5265 20.5265 20.8625 20.1447 21.1407C18.9618 22 17.2744 22 13.8995 22H10.0995C6.72462 22 5.03719 22 3.85427 21.1407C3.47266 20.8627 3.13693 20.5266 2.8593 20.1447C2 18.9618 2 17.2744 2 13.8995V10.0995C2 6.72462 2 5.03718 2.8593 3.85427C3.13663 3.47241 3.47241 3.13663 3.85427 2.8593C5.03719 2 6.72462 2 10.0995 2H13.8965C17.2714 2 18.9588 2 20.1417 2.8593C20.5247 3.13669 20.8618 3.47242 21.1407 3.85427ZM12 5.12663C13.3598 5.12663 14.6891 5.52987 15.8198 6.28534C16.9504 7.04082 17.8316 8.1146 18.352 9.37092C18.8724 10.6272 19.0086 12.0096 18.7433 13.3433C18.478 14.677 17.8232 15.9021 16.8616 16.8636C15.9001 17.8252 14.675 18.48 13.3413 18.7453C12.0076 19.0106 10.6252 18.8744 9.36891 18.354C8.1126 17.8336 7.03881 16.9524 6.28333 15.8218C5.52786 14.6911 5.12462 13.3618 5.12462 12.002C5.12449 11.0991 5.30224 10.205 5.64771 9.37076C5.99318 8.53654 6.49962 7.77855 7.13808 7.14009C7.77654 6.50163 8.53453 5.99519 9.36875 5.64972C10.203 5.30424 11.0971 5.1265 12 5.12663Z" fill="black"/>
</svg>
