<svg width="24" height="24" viewBox="0 0 24 24" fill="none" xmlns="http://www.w3.org/2000/svg">
<path d="M11.995 11.5C10.7557 11.5 9.69628 11.06 8.81677 10.18C7.93726 9.3 7.4975 8.24 7.4975 7C7.4975 5.76 7.93726 4.7 8.81677 3.82C9.69628 2.94 10.7557 2.5 11.995 2.5C13.2343 2.5 14.2937 2.94 15.1732 3.82C16.0527 4.7 16.4925 5.76 16.4925 7C16.4925 8.24 16.0527 9.3 15.1732 10.18C14.2937 11.06 13.2343 11.5 11.995 11.5ZM5.24875 21C4.62909 21 4.09939 20.78 3.65963 20.34C3.21988 19.9 3 19.37 3 18.75V18.22C3 17.58 3.16991 17 3.49972 16.46C3.82954 15.93 4.2593 15.52 4.80899 15.24C5.96835 14.66 7.1477 14.22 8.34703 13.93C9.54636 13.64 10.7657 13.49 12.005 13.49C13.2443 13.49 14.4636 13.64 15.663 13.93C16.8623 14.22 18.0416 14.66 19.201 15.24C19.7407 15.52 20.1805 15.93 20.5103 16.46C20.8401 16.99 21 17.58 21 18.22V18.75C21 19.37 20.7801 19.9 20.3404 20.34C19.9006 20.78 19.3709 21 18.7512 21H5.24875Z" fill="black"/>
</svg>
