<svg width="24" height="24" viewBox="0 0 24 24" fill="none" xmlns="http://www.w3.org/2000/svg">
<path fill-rule="evenodd" clip-rule="evenodd" d="M10.5 2.5C6.08172 2.5 2.5 6.08172 2.5 10.5C2.5 14.9183 6.08172 18.5 10.5 18.5C11.9836 18.5 13.3729 18.0961 14.5639 17.3924L18.5858 21.4142C19.3668 22.1953 20.6332 22.1953 21.4142 21.4142C22.1953 20.6332 22.1953 19.3668 21.4142 18.5858L17.3924 14.5639C18.0961 13.3729 18.5 11.9836 18.5 10.5C18.5 6.08172 14.9183 2.5 10.5 2.5ZM5.5 10.5C5.5 7.73858 7.73858 5.5 10.5 5.5C13.2614 5.5 15.5 7.73858 15.5 10.5C15.5 13.2614 13.2614 15.5 10.5 15.5C7.73858 15.5 5.5 13.2614 5.5 10.5Z" fill="black"/>
</svg>
