<svg width="24" height="24" viewBox="0 0 24 24" fill="none" xmlns="http://www.w3.org/2000/svg">
<path fill-rule="evenodd" clip-rule="evenodd" d="M19.3066 18.9774L16.5498 18.581C16.2007 18.8224 15.8315 19.0369 15.4452 19.2213L14.4191 21.7368C14.2792 22.0719 13.9793 22.3182 13.6195 22.3774C13.1597 22.4463 12.69 22.4956 12.2202 22.4956C12.1069 22.5022 11.9936 22.5 11.8804 22.4978C11.8238 22.4967 11.767 22.4956 11.7104 22.4956C11.2407 22.4858 10.7809 22.4463 10.3211 22.3675C9.96132 22.3084 9.66147 22.0521 9.53153 21.7171L8.52638 19.207C8.14593 19.0234 7.78224 18.8107 7.43822 18.5716L4.70395 18.9675C4.33413 19.0168 3.96432 18.8887 3.73443 18.6127C3.43458 18.2481 3.15472 17.8638 2.90485 17.4498C2.8049 17.3119 2.71494 17.164 2.64498 17.0162C2.42509 16.622 2.23518 16.218 2.07526 15.804C1.94533 15.469 2.02529 15.0945 2.24518 14.8087L4.01948 12.5566C4.00705 12.3744 4.00073 12.1905 4.00073 12.0051C4.00073 11.8169 4.00725 11.6301 4.02007 11.4451L2.23518 9.23073C2.01529 8.94494 1.93533 8.56059 2.06527 8.22552C2.22519 7.80175 2.41509 7.38784 2.64498 6.98378C2.72494 6.83596 2.8049 6.68813 2.90485 6.55016C3.14473 6.14611 3.41459 5.77161 3.70445 5.41683C3.93433 5.13104 4.30415 5.00292 4.66397 5.0522L7.43794 5.43889C7.78702 5.19629 8.15637 4.98076 8.54294 4.79536L9.58151 2.26322C9.72144 1.92815 10.0213 1.68177 10.3811 1.62264C10.8409 1.55366 11.3106 1.50438 11.7804 1.50438C11.8937 1.49781 12.007 1.5 12.1202 1.50219C12.1769 1.50329 12.2335 1.50438 12.2902 1.50438C12.7599 1.51424 13.2197 1.55366 13.6795 1.6325C14.0393 1.69163 14.3391 1.94786 14.4691 2.28293L15.477 4.80424C15.8649 4.99153 16.2354 5.20918 16.5854 5.45411L19.3366 5.07191C19.6965 5.02263 20.0663 5.15075 20.2962 5.43654C20.586 5.79132 20.8559 6.17567 21.0958 6.56987C21.1957 6.70784 21.2857 6.85567 21.3556 7.00349C21.5755 7.40755 21.7654 7.82146 21.9353 8.25508C22.0653 8.59016 21.9953 8.96465 21.7654 9.25044L19.983 11.4689C19.9948 11.6461 20.0007 11.8249 20.0007 12.0051C20.0007 12.193 19.9942 12.3794 19.9815 12.564L21.7654 14.8185C21.9853 15.1043 22.0653 15.4788 21.9353 15.8139C21.7754 16.2278 21.5855 16.6319 21.3656 17.0261C21.2857 17.1739 21.2057 17.3217 21.1057 17.4597C20.8559 17.8638 20.576 18.258 20.2762 18.6226C20.0463 18.8985 19.6665 19.0266 19.3066 18.9774ZM11.9949 15.502C13.9279 15.502 15.4949 13.9364 15.4949 12.0051C15.4949 10.0739 13.9279 8.50825 11.9949 8.50825C10.0619 8.50825 8.49487 10.0739 8.49487 12.0051C8.49487 13.9364 10.0619 15.502 11.9949 15.502Z" fill="black"/>
</svg>
