<svg width="24" height="24" viewBox="0 0 24 24" fill="none" xmlns="http://www.w3.org/2000/svg">
<path d="M20.3333 17.3253C21.2556 17.3253 22 16.5649 22 15.6228C22 14.6808 21.2556 13.9204 20.3333 13.9204C19.7222 13.9204 19.2222 13.4097 19.2222 12.7855V9.38059C19.2222 5.22665 15.7333 1.87854 11.7778 2.00338C7.82222 2.12823 4.77778 5.64659 4.77778 9.68703V12.7855C4.77778 13.4097 4.27778 13.9204 3.66667 13.9204C2.74444 13.9204 2 14.6808 2 15.6228C2 16.5649 2.74444 17.3253 3.66667 17.3253H20.3333Z" fill="black"/>
<path d="M12 23C10.1556 23 8.66667 21.4792 8.66667 19.5951H15.3333C15.3333 21.4792 13.8444 23 12 23Z" fill="black"/>
</svg>
