<svg width="24" height="24" viewBox="0 0 24 24" fill="none" xmlns="http://www.w3.org/2000/svg">
<path fill-rule="evenodd" clip-rule="evenodd" d="M14.8047 2.60239C13.8684 2.18674 12.8399 1.96986 11.7778 2.00338C7.82222 2.12822 4.77778 5.64659 4.77778 9.68703V12.7855C4.77778 13.4097 4.27778 13.9204 3.66667 13.9204C2.74444 13.9204 2 14.6808 2 15.6228C2 16.5649 2.74444 17.3253 3.66667 17.3253H20.3333C21.2556 17.3253 22 16.5649 22 15.6228C22 14.6808 21.2556 13.9204 20.3333 13.9204C19.7222 13.9204 19.2222 13.4097 19.2222 12.7855V9.38059C19.2222 9.1889 19.2148 8.99893 19.2002 8.81093C19.1517 8.82598 19.1027 8.84012 19.0533 8.85333C18.9389 8.88767 18.8146 8.91219 18.6973 8.93531C18.678 8.93912 18.6589 8.94289 18.64 8.94666C18.4267 8.98666 18.2133 9 18 9C17.4533 9 16.9333 8.89333 16.4533 8.68C15.2933 8.2 14.4 7.18666 14.1067 5.93333C14.04 5.62666 14 5.32 14 5C14 4.34666 14.16 3.73333 14.44 3.2C14.5422 2.98419 14.6638 2.78774 14.8047 2.60239ZM8.66667 19.5951C8.66667 21.4792 10.1556 23 12 23C13.8444 23 15.3333 21.4792 15.3333 19.5951H8.66667Z" fill="black"/>
<path d="M21 5C21 6.39 20.06 7.55 18.79 7.89C18.69 7.92 18.58 7.94 18.48 7.96C18.32 7.99 18.16 8 18 8C17.59 8 17.2 7.92 16.84 7.76C15.97 7.4 15.3 6.64 15.08 5.7C15.03 5.47 15 5.24 15 5C15 4.51 15.12 4.05 15.33 3.65C15.42 3.46 15.53 3.29 15.66 3.13C16.2 2.44 17.05 2 18 2C19.66 2 21 3.34 21 5Z" fill="#DA252F"/>
</svg>
