<svg width="40" height="40" viewBox="0 0 40 40" fill="none" xmlns="http://www.w3.org/2000/svg">
<rect width="40" height="40" rx="10" fill="#E97430"/>
<path d="M33.0337 24.6886C33.0337 30.0894 28.2581 34.4675 22.367 34.4675L17.0337 34.4675C11.1427 34.4675 6.36703 30.0894 6.36703 24.6886C6.36703 23.3384 7.56093 22.2439 9.03369 22.2439L30.367 22.2439C31.8398 22.2439 33.0337 23.3384 33.0337 24.6886Z" fill="white"/>
<path d="M33.0337 10.2448C33.0337 15.6455 28.2581 20.0237 22.367 20.0237L17.0337 20.0237C11.1427 20.0237 6.36703 15.6455 6.36703 10.2448C6.36703 8.8946 7.56093 7.80006 9.03369 7.80006L30.367 7.80005C31.8398 7.80005 33.0337 8.8946 33.0337 10.2448Z" fill="white"/>
</svg>
