<svg width="40" height="40" viewBox="0 0 40 40" fill="none" xmlns="http://www.w3.org/2000/svg">
<rect width="40" height="40" rx="10" fill="#E126A6"/>
<path d="M19.1318 10.06C19.1318 10.2306 19.1773 10.3925 19.2727 10.5456C19.3682 10.6987 19.5 10.8168 19.6727 10.8912L22.9727 12.3743L24.4818 15.6162C24.5591 15.7868 24.6773 15.9181 24.8364 16.01C24.9955 16.1018 25.1591 16.15 25.3318 16.15C25.5046 16.15 25.6682 16.1018 25.8273 16.01C25.9864 15.9181 26.1 15.7868 26.1818 15.6162L27.6909 12.3743L30.9909 10.8912C31.1637 10.8125 31.2955 10.6987 31.3909 10.5456C31.4864 10.3925 31.5318 10.2306 31.5318 10.06C31.5318 9.88935 31.4864 9.72747 31.3909 9.57435C31.2955 9.42122 31.1637 9.3031 30.9909 9.22872L27.6909 7.7456L26.1818 4.50372C26.1046 4.3331 25.9864 4.20185 25.8273 4.10997C25.6682 4.0181 25.5046 3.96997 25.3318 3.96997C25.1591 3.96997 24.9955 4.0181 24.8364 4.10997C24.6773 4.20185 24.5637 4.3331 24.4818 4.50372L22.9727 7.7456L19.6727 9.22872C19.5 9.30747 19.3682 9.42122 19.2727 9.57435C19.1773 9.72747 19.1318 9.88935 19.1318 10.06Z" fill="white"/>
<path d="M19.8906 6C20.2724 6 20.377 6.50359 20.0225 6.65234C18.3095 7.37832 18.0225 7.62286 17.709 7.88965C17.4863 8.07771 17.2046 8.18748 16.9092 8.1875H15C13.4955 8.1875 12.2725 9.36437 12.2725 10.8125V24.2461C12.2727 25.694 13.4956 26.8711 15 26.8711H25C26.5044 26.8711 27.7273 25.694 27.7275 24.2461V18.5566C27.7275 18.3292 27.8273 18.1102 28 17.957C28.3727 17.6289 28.686 17.2303 28.877 16.7666C28.9769 16.5216 29.1271 16.1106 29.2861 15.6689C29.418 15.293 29.9996 15.3845 30 15.7822V29.1875C30 31.8475 27.7636 34 25 34H15C12.2364 34 10 31.8475 10 29.1875V10.8125C10 8.1525 12.2364 6 15 6H19.8906ZM20 29C19.1718 29 18.5003 29.6708 18.5 30.499C18.5 31.3274 19.1716 31.999 20 31.999C20.8284 31.999 21.5 31.3274 21.5 30.499C21.4997 29.6708 20.8283 29 20 29Z" fill="white"/>
</svg>
