<svg width="40" height="40" viewBox="0 0 40 40" fill="none" xmlns="http://www.w3.org/2000/svg">
<rect width="40" height="40" rx="10" fill="#9B9F31"/>
<path d="M18.5971 27.1903C18.5971 30.4023 15.9933 33.0061 12.7813 33.0061C9.56932 33.0061 6.9655 30.4023 6.9655 27.1903C6.9655 23.9783 9.56932 21.3745 12.7813 21.3745C15.9933 21.3745 18.5971 23.9783 18.5971 27.1903Z" fill="white"/>
<path d="M11.3423 8.1628C11.9818 7.05503 13.5808 7.05503 14.2203 8.1628L18.5374 15.6403C19.177 16.7481 18.3775 18.1328 17.0984 18.1328H8.46419C7.18504 18.1328 6.38558 16.7481 7.02515 15.6403L11.3423 8.1628Z" fill="white"/>
<path d="M20.6512 24.6978C20.6512 22.8624 22.1391 21.3745 23.9745 21.3745H28.9595C30.7949 21.3745 32.2828 22.8624 32.2828 24.6978V29.6828C32.2828 31.5182 30.7949 33.0061 28.9595 33.0061H23.9745C22.1391 33.0061 20.6512 31.5182 20.6512 29.6828V24.6978Z" fill="white"/>
<path d="M31.932 7.7498C30.493 6.56712 28.3511 6.81351 27.1027 8.19988L26.8694 8.45613C26.6526 8.69595 26.2748 8.69595 26.0613 8.45613L25.828 8.19988C24.5829 6.81351 22.441 6.56712 20.9987 7.7498C20.1643 8.43642 19.7339 9.42855 19.7339 10.4207C19.7339 11.242 20.0263 12.0666 20.6209 12.7269L24.8392 17.4084C25.7098 18.3742 27.2242 18.3742 28.0948 17.4084L32.313 12.7269C32.9077 12.0666 33.2001 11.242 33.2001 10.4207C33.2001 9.42855 32.7697 8.43642 31.9352 7.7498H31.932Z" fill="white"/>
</svg>
