<svg width="40" height="40" viewBox="0 0 40 40" fill="none" xmlns="http://www.w3.org/2000/svg">
<rect width="40" height="40" rx="10" fill="#D78320"/>
<path fill-rule="evenodd" clip-rule="evenodd" d="M28.4529 10.4H11.5473C9.14729 10.4 7.19849 12.2604 7.19849 14.5516V25.4484C7.19849 27.7396 9.14729 29.6 11.5473 29.6H28.4529C30.8529 29.6 32.8017 27.7396 32.8017 25.4484V14.5516C32.8017 12.2604 30.8529 10.4 28.4529 10.4ZM20 24.1287C22.3859 24.1287 24.32 22.2823 24.32 20.0046C24.32 17.7269 22.3859 15.8805 20 15.8805C17.6142 15.8805 15.68 17.7269 15.68 20.0046C15.68 22.2823 17.6142 24.1287 20 24.1287Z" fill="white"/>
</svg>
