<svg width="40" height="40" viewBox="0 0 40 40" fill="none" xmlns="http://www.w3.org/2000/svg">
<rect width="40" height="40" rx="10" fill="#FCA6CB"/>
<path d="M8.75 22.75C8.75 17.7794 12.7794 13.75 17.75 13.75H22.25C27.2206 13.75 31.25 17.7794 31.25 22.75C31.25 23.9926 30.2426 25 29 25H11C9.75736 25 8.75 23.9926 8.75 22.75Z" fill="white"/>
<path d="M33.75 30C33.75 28.6193 32.6307 27.5 31.25 27.5H8.75C7.36929 27.5 6.25 28.6193 6.25 30C6.25 31.3807 7.36929 32.5 8.75 32.5H31.25C32.6307 32.5 33.75 31.3807 33.75 30Z" fill="white"/>
<path d="M16.875 8.125C16.875 6.39911 18.2741 5 20 5C21.7259 5 23.125 6.39911 23.125 8.125C23.125 9.85089 21.7259 11.25 20 11.25C18.2741 11.25 16.875 9.85089 16.875 8.125Z" fill="white"/>
</svg>
