<svg width="40" height="40" viewBox="0 0 40 40" fill="none" xmlns="http://www.w3.org/2000/svg">
<rect width="40" height="40" rx="10" fill="#242424"/>
<path d="M31.4829 13.5326H29.1131L23.5893 19.3234V13.5326H21.7035V26.149H23.5893V21.8601L25.4083 19.9242L29.7139 26.149H32.0002L26.6933 18.5725L31.4829 13.5326Z" fill="white"/>
<path d="M14.1416 15.0308C15.9773 15.0308 17.4626 16.0989 17.6795 17.5674H19.6487C19.2983 15.1143 17.0287 13.3787 14.1583 13.3787C10.9541 13.3787 8.00024 15.4981 8.00024 19.8371C8.00024 24.1594 10.9207 26.2955 14.1583 26.2955C17.0787 26.2955 19.3317 24.5599 19.5987 22.09H17.7129C17.5126 23.5586 16.0107 24.6266 14.1416 24.6266C11.6884 24.6266 9.91941 22.9578 9.91941 19.8371C9.9361 16.7163 11.6884 15.0308 14.1416 15.0308Z" fill="white"/>
</svg>
