<svg width="40" height="40" viewBox="0 0 40 40" fill="none" xmlns="http://www.w3.org/2000/svg">
<rect width="40" height="40" rx="10" fill="#EF673D"/>
<path d="M30.3355 10.8026V12.6769H27.9415C25.152 12.6769 22.8862 14.9872 22.8862 17.8205V25.2416H11.4826C9.23817 25.2416 7.3999 23.6506 7.3999 21.6891V10.8026C7.3999 8.84102 9.23817 7.25 11.4826 7.25H26.2528C28.5079 7.25 30.3355 8.84102 30.3355 10.8026Z" fill="white"/>
<path d="M21.8281 32.75H15.9072C14.7316 32.75 13.7697 31.7692 13.7697 30.5705C13.7697 29.3718 14.7316 28.391 15.9072 28.391H21.8281C23.0038 28.391 23.9656 29.3718 23.9656 30.5705C23.9656 31.7692 23.0038 32.75 21.8281 32.75Z" fill="white"/>
<path d="M27.9415 15.75H32.5586C33.6808 15.75 34.5999 16.6872 34.5999 17.8205V26.1462C34.5999 27.2904 33.6808 28.2167 32.5586 28.2167H27.9415C26.8193 28.2167 25.9002 27.2904 25.9002 26.1462V17.8205C25.9002 16.6872 26.8193 15.75 27.9415 15.75Z" fill="white"/>
</svg>
