<svg width="40" height="40" viewBox="0 0 40 40" fill="none" xmlns="http://www.w3.org/2000/svg">
<rect width="40" height="40" rx="10" fill="#DF5234"/>
<path d="M16.3575 10.016C16.3575 8.0213 17.9788 6.39996 19.9735 6.39996C21.9682 6.39996 23.5895 8.0213 23.5895 10.016C23.5895 12.0106 21.9682 13.632 19.9735 13.632C17.9788 13.632 16.3575 12.0106 16.3575 10.016Z" fill="white"/>
<path d="M16.3575 20.3519C16.3575 18.3572 17.9788 16.7359 19.9735 16.7359C21.9682 16.7359 23.5895 18.3572 23.5895 20.3519V29.984C23.5895 31.9786 21.9682 33.6 19.9735 33.6C17.9788 33.6 16.3575 31.9786 16.3575 29.984V20.3519Z" fill="white"/>
<path d="M30.0853 12.5334H27.1946C25.8613 12.5334 24.7733 13.6214 24.7733 14.9547C24.7733 16.2881 25.8613 17.3761 27.1946 17.3761H30.0853C31.4186 17.3761 32.5066 16.2881 32.5066 14.9547C32.5066 13.6214 31.4186 12.5334 30.0853 12.5334Z" fill="white"/>
<path d="M9.91475 12.5334H12.8161C14.1494 12.5334 15.2374 13.6214 15.2374 14.9547C15.2374 16.2881 14.1494 17.3761 12.8161 17.3761H9.91475C8.58141 17.3761 7.49341 16.2881 7.49341 14.9547C7.49341 13.6214 8.58141 12.5334 9.91475 12.5334Z" fill="white"/>
</svg>
