<svg width="40" height="40" viewBox="0 0 40 40" fill="none" xmlns="http://www.w3.org/2000/svg">
<rect width="40" height="40" rx="10" fill="#1588D5"/>
<path fill-rule="evenodd" clip-rule="evenodd" d="M11.4733 32.8539C13.0505 33.9998 15.3003 33.9998 19.8 33.9998H20.2C24.6997 33.9998 26.9495 33.9998 28.5267 32.8539C29.0361 32.4838 29.484 32.0359 29.8541 31.5265C31 29.9493 31 27.6995 31 23.1998V16.7998C31 12.3001 31 10.0503 29.8541 8.4731C29.484 7.96374 29.0361 7.51579 28.5267 7.14571C26.9495 5.99981 24.6997 5.99981 20.2 5.99982L19.8 5.99982C15.3003 5.99982 13.0505 5.99982 11.4733 7.14572C10.9639 7.51579 10.516 7.96374 10.1459 8.4731C9 10.0503 9 12.3001 9 16.7998L9 23.1998C9 27.6995 9 29.9493 10.1459 31.5265C10.516 32.0359 10.9639 32.4838 11.4733 32.8539ZM13.0001 23.9997C13.0001 25.3804 14.1194 26.4997 15.5001 26.4997H24.5001C25.8808 26.4997 27.0001 25.3804 27.0001 23.9997C27.0001 22.619 25.8808 21.4997 24.5001 21.4997L15.5001 21.4997C14.1194 21.4997 13.0001 22.619 13.0001 23.9997ZM13.0001 15.9997C13.0001 17.3804 14.1194 18.4997 15.5001 18.4997L20.5001 18.4997C21.8808 18.4997 23.0001 17.3804 23.0001 15.9997C23.0001 14.619 21.8808 13.4997 20.5001 13.4997H15.5001C14.1194 13.4997 13.0001 14.619 13.0001 15.9997Z" fill="white"/>
</svg>
