<svg width="40" height="40" viewBox="0 0 40 40" fill="none" xmlns="http://www.w3.org/2000/svg">
<rect width="40" height="40" rx="10" fill="#119786"/>
<path d="M20.3183 12.6131C21.8648 12.6131 23.1185 11.3851 23.1185 9.87035C23.1185 8.35559 21.8648 7.12762 20.3183 7.12762C18.7718 7.12762 17.5181 8.35559 17.5181 9.87035C17.5181 11.3851 18.7718 12.6131 20.3183 12.6131Z" fill="white"/>
<path d="M17.5184 16.9112C17.5184 15.5479 18.4518 14.4428 20.3186 14.4428C22.1854 14.4428 23.1188 15.5479 23.1188 16.9112V30.2592C23.1188 31.6225 22.1854 32.7276 20.3186 32.7276C18.4518 32.7276 17.5184 31.6225 17.5184 30.2592V16.9112Z" fill="white"/>
<path d="M14.7157 13.5279C14.7157 15.0427 13.462 16.2706 11.9155 16.2706C10.3689 16.2706 9.11523 15.0427 9.11523 13.5279C9.11523 12.0131 10.3689 10.7852 11.9155 10.7852C13.462 10.7852 14.7157 12.0131 14.7157 13.5279Z" fill="white"/>
<path d="M11.9155 18.1003C10.0486 18.1003 9.11523 19.2055 9.11523 20.5688V26.6028C9.11523 27.9661 10.0486 29.0712 11.9155 29.0712C13.7823 29.0712 14.7157 27.9661 14.7157 26.6028V20.5688C14.7157 19.2055 13.7823 18.1003 11.9155 18.1003Z" fill="white"/>
<path d="M31.5153 13.5279C31.5153 15.0427 30.2616 16.2707 28.715 16.2707C27.1685 16.2707 25.9148 15.0427 25.9148 13.5279C25.9148 12.0132 27.1685 10.7852 28.715 10.7852C30.2616 10.7852 31.5153 12.0132 31.5153 13.5279Z" fill="white"/>
<path d="M28.715 18.0974C26.8482 18.0974 25.9148 19.2025 25.9148 20.5658V26.5998C25.9148 27.9631 26.8482 29.0683 28.715 29.0683C30.5819 29.0683 31.5153 27.9631 31.5153 26.5998V20.5658C31.5153 19.2025 30.5819 18.0974 28.715 18.0974Z" fill="white"/>
</svg>
