<svg width="40" height="40" viewBox="0 0 40 40" fill="none" xmlns="http://www.w3.org/2000/svg">
<rect width="40" height="40" rx="10" fill="#F58663"/>
<path fill-rule="evenodd" clip-rule="evenodd" d="M12.9228 14.4421C12.9228 12.2097 14.796 10.4 17.1066 10.4H30.7039C33.0145 10.4 34.8877 12.2097 34.8877 14.4421C34.8877 16.6745 33.0145 18.4842 30.7039 18.4842H17.1066C14.796 18.4842 12.9228 16.6745 12.9228 14.4421Z" fill="white"/>
<path fill-rule="evenodd" clip-rule="evenodd" d="M6.08765 25.5578C6.08765 23.3254 7.96079 21.5157 10.2714 21.5157H23.8687C26.1793 21.5157 28.0525 23.3254 28.0525 25.5578C28.0525 27.7902 26.1793 29.5999 23.8687 29.5999H10.2714C7.96079 29.5999 6.08765 27.7902 6.08765 25.5578Z" fill="white"/>
</svg>
