<svg width="40" height="40" viewBox="0 0 40 40" fill="none" xmlns="http://www.w3.org/2000/svg">
<rect width="40" height="40" rx="10" fill="#B57020"/>
<path d="M27.334 6.66797C30.6477 6.66797 33.334 9.35426 33.334 12.668C33.334 15.9817 30.6477 18.668 27.334 18.668C24.0203 18.668 21.334 15.9817 21.334 12.668C21.334 9.35426 24.0203 6.66797 27.334 6.66797Z" fill="white"/>
<path d="M27.334 21.332C30.6477 21.332 33.334 24.0183 33.334 27.332C33.334 30.6457 30.6477 33.332 27.334 33.332C24.0203 33.332 21.334 30.6457 21.334 27.332C21.334 24.0183 24.0203 21.332 27.334 21.332Z" fill="white"/>
<path d="M12.666 6.66797C15.9797 6.66797 18.666 9.35426 18.666 12.668C18.666 15.9817 15.9797 18.668 12.666 18.668C9.35231 18.668 6.66602 15.9817 6.66602 12.668C6.66602 9.35426 9.35231 6.66797 12.666 6.66797Z" fill="white"/>
<path d="M12.666 21.332C15.9797 21.332 18.666 24.0183 18.666 27.332C18.666 30.6457 15.9797 33.332 12.666 33.332C9.35231 33.332 6.66602 30.6457 6.66602 27.332C6.66602 24.0183 9.35231 21.332 12.666 21.332Z" fill="white"/>
</svg>
