<svg width="40" height="40" viewBox="0 0 40 40" fill="none" xmlns="http://www.w3.org/2000/svg">
<rect width="40" height="40" rx="10" fill="#AF202E"/>
<path d="M10.5154 7C8.57945 7 7.01003 8.58283 7.01003 10.5354C7.01003 12.4879 8.57945 14.0707 10.5154 14.0707H15.1325C17.0685 14.0707 18.6379 12.4879 18.6379 10.5354C18.6379 8.58283 17.0685 7 15.1325 7H10.5154Z" fill="white"/>
<path d="M10.5054 16.8283H15.1225C17.0585 16.8283 18.6279 18.4111 18.6279 20.3636V29.4545C18.6279 31.4071 17.0585 32.9899 15.1225 32.9899H10.5054C8.56942 32.9899 7 31.4071 7 29.4545V20.3636C7 18.4111 8.56942 16.8283 10.5054 16.8283Z" fill="white"/>
<path d="M21.3621 29.4646C21.3621 27.5121 22.9315 25.9293 24.8675 25.9293H29.4846C31.4206 25.9293 32.99 27.5121 32.99 29.4646C32.99 31.4172 31.4206 33 29.4846 33H24.8675C22.9315 33 21.3621 31.4172 21.3621 29.4646Z" fill="white"/>
<path d="M29.4946 23.1616H24.8775C22.9415 23.1616 21.3721 21.5788 21.3721 19.6263V10.5354C21.3721 8.58283 22.9415 7 24.8775 7H29.4946C31.4306 7 33 8.58283 33 10.5354V19.6263C33 21.5788 31.4306 23.1616 29.4946 23.1616Z" fill="white"/>
</svg>
