<svg width="40" height="40" viewBox="0 0 40 40" fill="none" xmlns="http://www.w3.org/2000/svg">
<rect width="40" height="40" rx="10" fill="#F97EB3"/>
<path d="M16.979 28C14.328 28 12.179 25.8509 12.179 23.2L12.179 10.4C12.179 7.74901 14.328 5.59998 16.979 5.59998L23.379 5.59998C26.0299 5.59998 28.179 7.74901 28.179 10.4V23.2C28.179 25.8509 26.0299 28 23.379 28H16.979Z" fill="white"/>
<path fill-rule="evenodd" clip-rule="evenodd" d="M16.179 32.8C16.179 31.4745 17.2535 30.4 18.579 30.4H21.779C23.1044 30.4 24.179 31.4745 24.179 32.8C24.179 34.1255 23.1044 35.2 21.779 35.2H18.579C17.2535 35.2 16.179 34.1255 16.179 32.8Z" fill="white"/>
</svg>
