<svg width="40" height="40" viewBox="0 0 40 40" fill="none" xmlns="http://www.w3.org/2000/svg">
<rect width="40" height="40" rx="10" fill="#6A29BB"/>
<path fill-rule="evenodd" clip-rule="evenodd" d="M20 32.7999C27.0692 32.7999 32.7999 27.0692 32.7999 20C32.7999 12.9307 27.0692 7.19995 20 7.19995C12.9307 7.19995 7.19995 12.9307 7.19995 20C7.19995 27.0692 12.9307 32.7999 20 32.7999ZM18.199 18.1959C17.0743 19.3206 17.0743 21.1441 18.199 22.2688L22.2719 26.3417C23.3966 27.4664 25.2202 27.4664 26.3449 26.3417C27.4696 25.217 27.4696 23.3935 26.3449 22.2688L22.2719 18.1959C21.1472 17.0712 19.3237 17.0712 18.199 18.1959Z" fill="white"/>
</svg>
