<svg width="40" height="40" viewBox="0 0 40 40" fill="none" xmlns="http://www.w3.org/2000/svg">
<rect width="40" height="40" rx="10" fill="#A73E29"/>
<path d="M12.9725 18.1689C12.1594 18.4223 11.4942 18.9714 10.8607 19.5416V19.5521C10.7657 19.6366 10.6601 19.7105 10.5545 19.7739C9.41414 20.4496 7.862 19.4677 8.00982 18.1373C8.02038 18.0317 8.0415 17.9155 8.07317 17.8099L10.0793 10.4716C10.3328 9.55296 11.1669 8.91943 12.1172 8.91943H27.9026C28.8529 8.91943 29.687 9.55296 29.9404 10.4716L31.9466 17.8099V17.8311C32.3267 19.2776 30.5951 20.5552 29.3597 19.7105C29.2647 19.6366 29.1696 19.5627 29.0746 19.4677C28.061 18.4435 26.6989 17.8838 25.2523 17.8838C23.8058 17.8838 22.4437 18.454 21.4195 19.4888C20.6276 20.2913 19.3605 20.2807 18.5686 19.4782C17.1537 18.0422 15.0631 17.5143 12.9725 18.1689Z" fill="white"/>
<path d="M16.1929 22.2218C18.3047 24.3336 21.7257 24.3336 23.8375 22.2218C24.5661 21.5038 25.9704 21.4933 26.6989 22.2218C27.4697 23.0032 28.4517 23.51 29.5181 23.7106V28.9689C29.5181 30.1304 28.5678 31.0807 27.4064 31.0807H12.6241C11.4626 31.0807 10.5123 30.1304 10.5123 28.9689V23.7106C11.5682 23.51 12.5501 23.0032 13.3315 22.2218C14.0601 21.4933 15.4644 21.4933 16.1929 22.2218Z" fill="white"/>
</svg>
