<svg width="40" height="40" viewBox="0 0 40 40" fill="none" xmlns="http://www.w3.org/2000/svg">
<rect width="40" height="40" rx="10" fill="#B15623"/>
<path d="M7.19995 10.4002C7.19995 8.63288 8.63264 7.2002 10.4 7.2002H18.4C20.1673 7.2002 21.6 8.63288 21.6 10.4002V18.4002C21.6 20.1675 20.1673 21.6002 18.4 21.6002H10.4C8.63264 21.6002 7.19995 20.1675 7.19995 18.4002V10.4002Z" fill="white"/>
<path d="M18.4 21.6002C18.4 19.8329 19.8326 18.4002 21.6 18.4002H29.6C31.3673 18.4002 32.8 19.8329 32.8 21.6002V29.6002C32.8 31.3675 31.3673 32.8002 29.6 32.8002H21.6C19.8326 32.8002 18.4 31.3675 18.4 29.6002V21.6002Z" fill="white"/>
</svg>
