<svg width="40" height="40" viewBox="0 0 40 40" fill="none" xmlns="http://www.w3.org/2000/svg">
<rect width="40" height="40" rx="10" fill="#2D8942"/>
<path d="M29.4199 11.8234C26.9396 9.78486 23.2475 10.2096 21.0957 12.5992L20.6937 13.0409C20.3199 13.4543 19.6687 13.4543 19.3006 13.0409L18.8986 12.5992C16.7524 10.2096 13.0603 9.78486 10.5744 11.8234C9.1361 13.0069 8.39429 14.7171 8.39429 16.4272C8.39429 17.8429 8.89827 19.2642 9.92322 20.4024L11.9958 22.7015L17.1941 28.4718C18.6947 30.1366 21.3052 30.1366 22.8058 28.4718L28.0042 22.7015L30.0767 20.4024C31.1017 19.2642 31.6057 17.8429 31.6057 16.4272C31.6057 14.7171 30.8639 13.0069 29.4255 11.8234H29.4199Z" fill="white"/>
</svg>
