<svg width="40" height="40" viewBox="0 0 40 40" fill="none" xmlns="http://www.w3.org/2000/svg">
<rect width="40" height="40" rx="10" fill="#2EAFBC"/>
<path fill-rule="evenodd" clip-rule="evenodd" d="M27.4373 9.98089V9.56303C27.4373 8.25661 26.407 7.19995 25.1331 7.19995H14.8668C13.5929 7.19995 12.5626 8.25661 12.5626 9.56303V9.98089H8.47855C7.7724 9.98089 7.19995 10.5679 7.19995 11.2921C7.19995 11.3461 7.20313 11.3993 7.20932 11.4516V15.7877C7.20932 18.6519 9.47514 20.9894 12.2815 20.9894H13.6145C14.5698 22.6868 16.1085 23.9964 17.9486 24.6348C18.1734 25.0863 18.3045 25.5666 18.3045 26.0757C18.3045 27.1708 17.705 28.1602 16.8058 28.7462C15.2602 29.7452 14.0051 30.946 14.0051 32.7327C14.0051 32.7711 14.0332 32.7999 14.0706 32.7999H25.9105C25.9105 32.7999 25.9761 32.7711 25.9761 32.7327C25.9761 30.946 24.7209 29.7452 23.1754 28.7462C22.2761 28.1602 21.6766 27.1708 21.6766 26.0757C21.6766 25.5666 21.8171 25.0767 22.0326 24.6348C23.8726 23.9964 25.4113 22.6868 26.3667 20.9894H27.7277C30.5207 20.9894 32.7999 18.6657 32.7999 15.7877V11.2921C32.7999 10.5679 32.2275 9.98089 31.5214 9.98089H27.4373ZM27.2981 18.3669C27.3773 17.907 27.4186 17.4335 27.4186 16.95H27.4373V12.6033H30.2428V15.7877C30.2428 17.2132 29.1125 18.3669 27.7277 18.3669H27.2981ZM9.76651 12.6033H12.5626V16.95C12.5626 17.4335 12.6039 17.907 12.6831 18.3669H12.2815C10.8915 18.3669 9.76651 17.2078 9.76651 15.7877V12.6033Z" fill="white"/>
</svg>
