<svg width="40" height="40" viewBox="0 0 40 40" fill="none" xmlns="http://www.w3.org/2000/svg">
<rect width="40" height="40" rx="10" fill="#FD8947"/>
<path d="M28.0007 10.5C28.0007 9.11929 29.12 8 30.5007 8C31.8814 8 33.0007 9.11929 33.0007 10.5L33.0007 29.5C33.0007 30.8807 31.8815 32 30.5007 32C29.12 32 28.0007 30.8807 28.0007 29.5L28.0007 10.5Z" fill="white"/>
<path fill-rule="evenodd" clip-rule="evenodd" d="M7.45745 10.7039C7.00073 11.8065 7.00073 13.2043 7.00073 16L7.00073 24C7.00073 26.7956 7.00073 28.1935 7.45746 29.2961C8.06642 30.7663 9.23447 31.9343 10.7046 32.5433C11.8073 33 13.2051 33 16.0007 33C18.7964 33 20.1942 33 21.2968 32.5433C22.767 31.9343 23.935 30.7663 24.544 29.2961C25.0007 28.1935 25.0007 26.7956 25.0007 24L25.0007 16C25.0007 13.2043 25.0007 11.8065 24.544 10.7039C23.935 9.23373 22.767 8.06569 21.2968 7.45672C20.1942 7 18.7964 7 16.0007 7C13.2051 7 11.8073 7 10.7046 7.45672C9.23446 8.06569 8.06642 9.23373 7.45745 10.7039ZM16.0006 12C13.7915 12 12.0007 13.791 12.0007 16C12.0007 18.209 13.7915 20 16.0006 20C18.2096 20 20.0004 18.209 20.0004 16C20.0004 13.791 18.2096 12 16.0006 12Z" fill="white"/>
</svg>
