<svg width="40" height="40" viewBox="0 0 40 40" fill="none" xmlns="http://www.w3.org/2000/svg">
<rect width="40" height="40" rx="10" fill="#F658C4"/>
<path fill-rule="evenodd" clip-rule="evenodd" d="M6.57886 14.4C6.57886 11.749 8.72789 9.59998 11.3789 9.59998H28.9789C31.6298 9.59998 33.7789 11.749 33.7789 14.4V22.5845C33.525 22.4005 33.2479 22.2378 32.9481 22.1003L24.9961 18.4533C20.9501 16.5977 16.7765 20.7713 18.6321 24.8173L21.1924 30.4H11.3789C8.72789 30.4 6.57886 28.2509 6.57886 25.6V14.4ZM33.8817 32.3131C33.8078 32.557 33.6745 32.7868 33.4817 32.9796C32.8569 33.6044 31.8438 33.6044 31.219 32.9796L28.9563 30.7168L27.7735 31.8996C26.9852 32.6879 25.6525 32.4486 25.1878 31.4352L24.713 30.4H24.7129L21.5407 23.4833C20.9222 22.1346 22.3134 20.7434 23.6621 21.362L31.6141 25.009C32.6275 25.4737 32.8668 26.8064 32.0785 27.5947L31.219 28.4542L33.4817 30.7169C33.8332 31.0684 33.9869 31.5426 33.9431 32.0015C33.933 32.1068 33.9125 32.2112 33.8817 32.3131Z" fill="white"/>
</svg>
