<svg width="40" height="40" viewBox="0 0 40 40" fill="none" xmlns="http://www.w3.org/2000/svg">
<rect width="40" height="40" rx="10" fill="#DB2939"/>
<path fill-rule="evenodd" clip-rule="evenodd" d="M7.19995 11.3646C7.19995 9.94823 8.4668 8.80005 10.0295 8.80005H29.9704C31.5331 8.80005 32.7999 9.94823 32.7999 11.3646C32.7999 12.7809 31.5331 13.9291 29.9704 13.9291H10.0295C8.4668 13.9291 7.19995 12.7809 7.19995 11.3646Z" fill="white"/>
<path fill-rule="evenodd" clip-rule="evenodd" d="M8.74336 20.0001C8.74336 18.5837 10.0102 17.4355 11.5729 17.4355H28.427C29.9897 17.4355 31.2565 18.5837 31.2565 20.0001C31.2565 21.4164 29.9897 22.5646 28.427 22.5646H11.5729C10.0102 22.5646 8.74336 21.4164 8.74336 20.0001Z" fill="white"/>
<path fill-rule="evenodd" clip-rule="evenodd" d="M10.5337 28.6355C10.5337 27.2192 11.8006 26.071 13.3633 26.071H26.6366C28.1993 26.071 29.4662 27.2192 29.4662 28.6355C29.4662 30.0519 28.1993 31.2001 26.6366 31.2001H13.3633C11.8006 31.2001 10.5337 30.0519 10.5337 28.6355Z" fill="white"/>
</svg>
