<svg width="40" height="40" viewBox="0 0 40 40" fill="none" xmlns="http://www.w3.org/2000/svg">
<rect width="40" height="40" rx="10" fill="#E4337D"/>
<path d="M7.37891 13.6C7.37891 10.9491 9.52794 8.80005 12.1789 8.80005H28.1789C30.8299 8.80005 32.9789 10.9491 32.9789 13.6V20C32.9789 22.651 30.8299 24.8001 28.1789 24.8001H12.1789C9.52794 24.8001 7.37891 22.651 7.37891 20V13.6Z" fill="white"/>
<path fill-rule="evenodd" clip-rule="evenodd" d="M12.9789 29.6001C12.9789 28.2746 14.0534 27.2001 15.3789 27.2001H24.9789C26.3044 27.2001 27.3789 28.2746 27.3789 29.6001C27.3789 30.9255 26.3044 32 24.9789 32H15.3789C14.0534 32 12.9789 30.9255 12.9789 29.6001Z" fill="white"/>
</svg>
