<svg width="40" height="40" viewBox="0 0 40 40" fill="none" xmlns="http://www.w3.org/2000/svg">
<rect width="40" height="40" rx="10" fill="#F45498"/>
<path d="M16.9861 9.59998H10.9801C10.218 9.59998 9.6001 10.2178 9.6001 10.98V16.986C9.6001 17.7481 10.218 18.366 10.9801 18.366H16.9861C17.7483 18.366 18.3661 17.7481 18.3661 16.986V10.98C18.3661 10.2178 17.7483 9.59998 16.9861 9.59998Z" fill="white"/>
<path d="M29.0201 9.59998H23.0141C22.2519 9.59998 21.6341 10.2178 21.6341 10.98V16.986C21.6341 17.7481 22.2519 18.366 23.0141 18.366H29.0201C29.7822 18.366 30.4001 17.7481 30.4001 16.986V10.98C30.4001 10.2178 29.7822 9.59998 29.0201 9.59998Z" fill="white"/>
<path d="M16.9861 21.634H10.9801C10.218 21.634 9.6001 22.2518 9.6001 23.014V29.0199C9.6001 29.7821 10.218 30.4 10.9801 30.4H16.9861C17.7483 30.4 18.3661 29.7821 18.3661 29.0199V23.014C18.3661 22.2518 17.7483 21.634 16.9861 21.634Z" fill="white"/>
<path d="M30.367 21.634H27.0328V24.9681H30.367V21.634Z" fill="white"/>
<path d="M30.367 27.0548H27.0328V30.389H30.367V27.0548Z" fill="white"/>
<path d="M24.9793 21.645H21.6451V24.9792H24.9793V21.645Z" fill="white"/>
<path d="M24.9793 27.0657H21.6451V30.3999H24.9793V27.0657Z" fill="white"/>
</svg>
