<svg width="40" height="40" viewBox="0 0 40 40" fill="none" xmlns="http://www.w3.org/2000/svg">
<rect width="40" height="40" rx="10" fill="#0F6155"/>
<path d="M18.0978 8.52076C18.6965 6.67814 21.3034 6.67814 21.9021 8.52076L23.5922 13.7224C23.8599 14.5464 24.6278 15.1044 25.4943 15.1044H30.9636C32.9011 15.1044 33.7066 17.5836 32.1392 18.7224L27.7144 21.9372C27.0134 22.4465 26.7201 23.3492 26.9879 24.1732L28.678 29.3749C29.2767 31.2175 27.1677 32.7497 25.6003 31.6109L21.1755 28.3962C20.4746 27.8869 19.5254 27.8869 18.8244 28.3962L14.3996 31.6109C12.8322 32.7497 10.7232 31.2175 11.3219 29.3749L13.012 24.1732C13.2798 23.3492 12.9865 22.4465 12.2855 21.9372L7.86073 18.7224C6.29331 17.5836 7.09886 15.1044 9.0363 15.1044H14.5056C15.3721 15.1044 16.14 14.5464 16.4077 13.7224L18.0978 8.52076Z" fill="white"/>
</svg>
