<svg width="40" height="40" viewBox="0 0 40 40" fill="none" xmlns="http://www.w3.org/2000/svg">
<rect width="40" height="40" rx="10" fill="#FFA93E"/>
<path fill-rule="evenodd" clip-rule="evenodd" d="M8.80747 31.8802C6.36952 29.4423 6.36952 25.4896 8.80747 23.0516L11.7505 20.1086L8.80773 17.1659C6.36978 14.7279 6.36978 10.7752 8.80773 8.33726C11.2457 5.8993 15.1984 5.8993 17.6363 8.33725L20.5791 11.28L23.5218 8.33725C25.9598 5.8993 29.9125 5.8993 32.3504 8.33726C34.7884 10.7752 34.7884 14.7279 32.3504 17.1659L29.4077 20.1086L32.3507 23.0516C34.7887 25.4896 34.7887 29.4423 32.3507 31.8802C29.9127 34.3182 25.96 34.3182 23.5221 31.8802L20.5791 28.9372L17.6361 31.8802C15.1981 34.3182 11.2454 34.3182 8.80747 31.8802ZM20.5788 15.2528C17.897 15.2528 15.723 17.4268 15.723 20.1086C15.723 22.7904 17.897 24.9644 20.5788 24.9644C23.2606 24.9644 25.4346 22.7904 25.4346 20.1086C25.4346 17.4268 23.2606 15.2528 20.5788 15.2528Z" fill="white"/>
</svg>
