<svg width="40" height="40" viewBox="0 0 40 40" fill="none" xmlns="http://www.w3.org/2000/svg">
<rect width="40" height="40" rx="10" fill="#AC1653"/>
<path d="M15.3789 9.59995C15.3789 8.27447 16.4535 7.19995 17.7789 7.19995H22.5789C23.9044 7.19995 24.9789 8.27447 24.9789 9.59995C24.9789 10.9254 23.9044 12 22.5789 12H17.7789C16.4535 12 15.3789 10.9254 15.3789 9.59995Z" fill="white"/>
<path d="M8.52722 20.9413C7.93318 17.9711 10.205 15.2 13.234 15.2H27.1239C30.1529 15.2 32.4247 17.9711 31.8307 20.9413L30.5507 27.3413C30.1019 29.5849 28.132 31.2 25.8439 31.2H14.514C12.2259 31.2 10.2559 29.5849 9.80722 27.3413L8.52722 20.9413Z" fill="white"/>
</svg>
