<svg width="40" height="40" viewBox="0 0 40 40" fill="none" xmlns="http://www.w3.org/2000/svg">
<rect width="40" height="40" rx="10" fill="#FFBF62"/>
<path fill-rule="evenodd" clip-rule="evenodd" d="M31.6666 19.9999C31.6666 26.4432 26.4432 31.6666 19.9999 31.6666C13.5566 31.6666 8.33325 26.4432 8.33325 19.9999C8.33325 13.5566 13.5566 8.33325 19.9999 8.33325C26.4432 8.33325 31.6666 13.5566 31.6666 19.9999ZM22.0587 14.5097C22.0587 13.3727 21.137 12.4509 19.9999 12.4509C18.8629 12.4509 17.9411 13.3727 17.9411 14.5097V19.8294C17.9411 20.4846 18.2014 21.113 18.6647 21.5763L23.3968 26.3084C24.2008 27.1124 25.5044 27.1124 26.3084 26.3084C27.1124 25.5044 27.1124 24.2008 26.3084 23.3968L22.0587 19.1471V14.5097Z" fill="white"/>
</svg>
