<svg width="40" height="40" viewBox="0 0 40 40" fill="none" xmlns="http://www.w3.org/2000/svg">
<rect width="40" height="40" rx="10" fill="#C5C948"/>
<path d="M32.3509 18.7948L32.3527 18.791L33.146 17.0555V25.4913C33.146 28.1423 30.997 30.2913 28.346 30.2913H10.746C8.09507 30.2913 5.94604 28.1423 5.94604 25.4913V14.2913C5.94604 11.6403 8.09508 9.49131 10.746 9.49131H21.1254C20.9658 9.66383 20.822 9.85473 20.6969 10.0632C20.3758 10.5984 20.1861 11.2207 20.1861 11.8913C20.1861 12.562 20.3758 13.1843 20.6969 13.7195C21.0707 14.3425 21.6115 14.8085 22.243 15.0964L22.2464 15.0979L24.7809 16.2565L25.9395 18.791L25.9411 18.7945C26.2289 19.4259 26.6949 19.9667 27.3179 20.3405C27.8531 20.6616 28.4754 20.8513 29.1461 20.8513C29.8168 20.8513 30.4391 20.6616 30.9742 20.3405C31.5971 19.9668 32.0631 19.4261 32.3509 18.7948Z" fill="white"/>
<path d="M29.6 18.4001C29.4215 18.4001 29.2512 18.3514 29.0889 18.2541C28.9267 18.1567 28.805 18.0189 28.7239 17.8404L27.1665 14.4336L23.7596 12.8761C23.5812 12.795 23.4433 12.6734 23.346 12.5111C23.2486 12.3489 23.2 12.1786 23.2 12.0001C23.2 11.8216 23.2486 11.6513 23.346 11.4891C23.4433 11.3268 23.5812 11.2052 23.7596 11.1241L27.1665 9.56664L28.7239 6.15979C28.805 5.98134 28.9267 5.84344 29.0889 5.7461C29.2512 5.64877 29.4215 5.6001 29.6 5.6001C29.7784 5.6001 29.9487 5.64877 30.111 5.7461C30.2732 5.84344 30.3949 5.98134 30.476 6.15979L32.0334 9.56664L35.4403 11.1241C35.6187 11.2052 35.7566 11.3268 35.8539 11.4891C35.9513 11.6513 36 11.8216 36 12.0001C36 12.1786 35.9513 12.3489 35.8539 12.5111C35.7566 12.6734 35.6187 12.795 35.4403 12.8761L32.0334 14.4336L30.476 17.8404C30.3949 18.0189 30.2732 18.1567 30.111 18.2541C29.9487 18.3514 29.7784 18.4001 29.6 18.4001Z" fill="white"/>
</svg>
