<svg width="40" height="40" viewBox="0 0 40 40" fill="none" xmlns="http://www.w3.org/2000/svg">
<rect width="40" height="40" rx="10" fill="#228800"/>
<path d="M19.6998 14.6C19.6998 12.6 18.4998 10.9 16.6998 10.1C14.8998 9.3 12.7998 9.7 11.3998 11.1C9.99979 12.5 9.59979 14.6 10.2998 16.4C10.9998 18.2 12.7998 19.4 14.7998 19.4H19.6998V14.6ZM21.0998 14.6C21.0998 12.6 22.2998 10.9 24.0998 10.1C25.8998 9.3 27.9998 9.7 29.3998 11.1C30.7998 12.5 31.1998 14.6 30.4998 16.4C29.7998 18.2 27.9998 19.4 25.9998 19.4H21.0998V14.6ZM21.0998 25.6C21.0998 27.6 22.2998 29.3 24.0998 30.1C25.8998 30.9 27.9998 30.5 29.3998 29.1C30.7998 27.7 31.1998 25.6 30.4998 23.8C29.7998 22 27.9998 20.8 25.9998 20.8H21.0998V25.6ZM14.7998 29.1C16.6998 29.1 18.2998 27.6 18.2998 25.6V22.1H14.7998C12.8998 22.1 11.2998 23.6 11.2998 25.6C11.2998 27.6 12.8998 29.1 14.7998 29.1ZM19.6998 25.6C19.6998 27.6 18.4998 29.3 16.6998 30.1C14.8998 30.9 12.7998 30.5 11.3998 29.1C9.99979 27.7 9.59979 25.6 10.2998 23.8C10.9998 22 12.7998 20.8 14.7998 20.8H19.6998V25.6Z" fill="white"/>
</svg>
