<svg width="40" height="40" viewBox="0 0 40 40" fill="none" xmlns="http://www.w3.org/2000/svg">
<rect width="40" height="40" rx="10" fill="#00B5FA"/>
<path fill-rule="evenodd" clip-rule="evenodd" d="M25.1043 18.3348C26.1254 18.2899 27.0945 18.4341 27.9737 18.7343L18.4955 27.4301C18.1221 26.6832 17.9164 25.8512 17.9164 24.9672C17.9164 21.4785 21.1357 18.5074 25.1043 18.3348ZM25.5534 13.8723C29.321 13.8723 32.6798 15.5717 34.8779 18.2285L20.8024 31.1198C24.2746 34.3154 32.6892 33.5 33.3605 23.7263L37.3621 23.5514C37.4803 24.2156 37.5441 24.8987 37.5441 25.5959C37.5441 32.07 32.1739 37.3196 25.5534 37.3196C18.9328 37.3196 13.5649 32.07 13.5649 25.5959C13.5626 19.1219 18.9328 13.8723 25.5534 13.8723Z" fill="white"/>
</svg>
