<svg width="40" height="40" viewBox="0 0 40 40" fill="none" xmlns="http://www.w3.org/2000/svg">
<rect width="40" height="40" rx="10" fill="#E81C1C"/>
<path d="M19.8998 7.47495L21.068 9.50763C21.3017 9.92818 21.3017 10.4422 21.068 10.8627L14.1055 22.942L17.3999 28.6429C17.9139 29.5307 18.8718 30.0914 19.8998 30.0914C20.9279 30.0914 21.8858 29.5307 22.3998 28.6429L25.6941 22.942L24.8297 21.4L21.0914 27.8718C20.8578 28.2924 20.3905 28.5494 19.9232 28.5494C19.4325 28.5494 18.9886 28.2924 18.755 27.8718L15.8812 22.942L22.3531 11.7272L23.5213 13.7599C23.7549 14.1805 23.7549 14.6945 23.5213 15.115L19.012 22.942L19.8998 24.484L24.8063 15.9795L28.0305 21.5635C28.5212 22.428 28.5212 23.4794 28.0305 24.3439L24.7596 30.0213C24.2689 30.8858 22.7035 32.825 19.8998 32.825C17.0961 32.825 15.5541 30.8858 15.0401 30.0213L11.7691 24.3439C11.2785 23.4794 11.2785 22.428 11.7691 21.5635L19.8998 7.47495Z" fill="white"/>
</svg>
