<svg width="40" height="40" viewBox="0 0 40 40" fill="none" xmlns="http://www.w3.org/2000/svg">
<rect width="40" height="40" rx="10" fill="#4FBE37"/>
<path d="M22.9251 15.4193L24.9294 17.307C24.8755 17.3311 24.8126 17.3614 24.738 17.3988C24.623 17.4584 24.4841 17.5396 24.318 17.6539C23.9883 17.8823 23.5567 18.2439 23.006 18.8394L19.0901 22.9835C18.4181 23.6929 17.7358 24.255 17.1013 24.5518L15.097 22.6641C15.1514 22.6392 15.2152 22.61 15.2877 22.571C15.4034 22.5129 15.5421 22.431 15.7074 22.3164C16.0371 22.0885 16.4692 21.7275 17.0192 21.1325L20.9351 16.994C21.6073 16.2854 22.2907 15.7164 22.9251 15.4193Z" fill="white"/>
<path d="M15.1675 25.4394C16.054 25.4394 16.8676 25.2633 17.4203 24.977C17.6726 24.8452 18.0327 24.6176 18.3435 24.3773C18.6525 24.1359 19.0891 23.761 19.46 23.3671L23.3811 19.2344C24.3693 18.1927 24.9639 17.8715 25.324 17.7449L27.3353 19.6493C26.9156 20.0984 21.9107 25.4291 21.9107 25.4291C21.5684 25.7973 21.2094 26.1525 20.9654 26.3769C20.7312 26.5939 20.3289 26.9154 20.1214 27.0676C18.9445 27.9306 17.3718 28.6298 15.2542 28.6298C10.4574 28.6298 6.57642 24.7245 6.57642 20.2281C6.57642 14.6495 10.9348 11.4132 14.905 11.4132C16.121 11.3773 17.098 11.5813 17.8689 11.8437C18.5829 12.0867 19.1217 12.3798 19.5121 12.5793C19.0507 12.8756 18.6038 13.2785 17.866 14.0664L17.0624 14.9299C16.877 14.859 16.0557 14.5733 15.0004 14.6046C12.4544 14.68 9.66851 16.7454 9.7688 20.1313C9.86229 23.2984 12.473 25.4394 15.1675 25.4394Z" fill="white"/>
<path d="M22.5811 15.0235C22.3278 15.1548 21.9674 15.3819 21.6568 15.6233C21.3477 15.8636 20.9112 16.239 20.54 16.6324L16.6199 20.7656C15.6312 21.807 15.0366 22.128 14.6765 22.2548L12.665 20.351C13.0854 19.9016 18.0898 14.5712 18.0898 14.5712C18.4321 14.2033 18.7911 13.8486 19.0352 13.6226C19.2696 13.4061 19.6719 13.0846 19.8797 12.9321C21.0555 12.0697 22.6303 11.3702 24.7475 11.3702C29.5452 11.3702 33.424 15.2747 33.424 19.7708C33.424 25.3503 29.0661 28.5858 25.0955 28.5858C23.8795 28.6224 22.9025 28.4176 22.1314 28.155C21.4164 27.912 20.876 27.6178 20.4855 27.4183C20.9736 27.0897 21.3915 26.7276 22.1345 25.9344L22.9383 25.0701C23.1236 25.1402 23.945 25.4267 24.9996 25.3959C27.5461 25.3203 30.3325 23.2541 30.232 19.8676C30.1378 16.7016 27.526 14.5606 24.832 14.5606C23.945 14.5606 23.1334 14.7362 22.5811 15.0235Z" fill="white"/>
</svg>
