<svg width="40" height="40" viewBox="0 0 40 40" fill="none" xmlns="http://www.w3.org/2000/svg">
<rect width="40" height="40" rx="10" fill="#00A3E0"/>
<path d="M21.7117 26.8256C21.6847 26.7986 21.6578 26.7447 21.6578 26.6908C21.6578 26.6099 21.7386 26.529 21.8195 26.529C21.8734 26.529 21.9004 26.556 21.9273 26.556C22.0352 26.6369 22.1699 26.6908 22.3047 26.6908C22.4395 26.6908 22.5204 26.6369 22.5204 26.556C22.5204 26.4751 22.4665 26.4212 22.2239 26.3673C21.9273 26.2864 21.7117 26.2055 21.7117 25.909C21.7117 25.6395 21.9273 25.4508 22.2508 25.4508C22.4395 25.4508 22.6013 25.5047 22.736 25.5855C22.763 25.6125 22.8169 25.6395 22.8169 25.7203C22.8169 25.8012 22.736 25.8821 22.6552 25.8821C22.6282 25.8821 22.6013 25.8821 22.5743 25.8551C22.4665 25.8012 22.3586 25.7473 22.2508 25.7473C22.116 25.7473 22.0621 25.8012 22.0621 25.8821C22.0621 25.9899 22.116 26.0168 22.3856 26.0708C22.6821 26.1516 22.8708 26.2595 22.8708 26.529C22.8708 26.8256 22.6552 26.9873 22.3047 26.9873C22.0891 27.0143 21.8734 26.9603 21.7117 26.8256Z" fill="white"/>
<path d="M23.8951 26.4212L23.4099 25.7473C23.383 25.7203 23.356 25.6664 23.356 25.6394C23.356 25.5586 23.4369 25.4777 23.5177 25.4777C23.5986 25.4777 23.6525 25.5316 23.6795 25.5855L24.0569 26.1247L24.4343 25.5855C24.4882 25.5316 24.5152 25.4777 24.596 25.4777C24.7038 25.4777 24.7578 25.5586 24.7578 25.6394C24.7578 25.6934 24.7308 25.7203 24.7038 25.7473L24.2186 26.3942V26.8256C24.2186 26.9064 24.1378 26.9873 24.0569 26.9873C23.976 26.9873 23.8951 26.9064 23.8951 26.8256V26.4212Z" fill="white"/>
<path d="M25.3509 26.8256C25.3239 26.7986 25.297 26.7447 25.297 26.6908C25.297 26.6099 25.3778 26.529 25.4587 26.529C25.5126 26.529 25.5396 26.556 25.5665 26.556C25.6744 26.6369 25.8091 26.6908 25.9439 26.6908C26.0787 26.6908 26.1596 26.6369 26.1596 26.556C26.1596 26.4751 26.1057 26.4212 25.8631 26.3673C25.5665 26.2864 25.3509 26.2055 25.3509 25.909C25.3509 25.6395 25.5665 25.4508 25.89 25.4508C26.0787 25.4508 26.2405 25.5047 26.3752 25.5855C26.4022 25.6125 26.4561 25.6395 26.4561 25.7203C26.4561 25.8012 26.3752 25.8821 26.2944 25.8821C26.2674 25.8821 26.2405 25.8821 26.2135 25.8551C26.1057 25.8012 25.9978 25.7473 25.89 25.7473C25.7552 25.7473 25.7013 25.8012 25.7013 25.8821C25.7013 25.9899 25.7552 26.0168 26.0248 26.0708C26.3213 26.1516 26.51 26.2595 26.51 26.529C26.51 26.8256 26.2944 26.9873 25.9439 26.9873C25.7283 27.0143 25.5126 26.9603 25.3509 26.8256Z" fill="white"/>
<path d="M27.5074 25.8012H27.1839C27.1031 25.8012 27.0222 25.7203 27.0222 25.6394C27.0222 25.5586 27.1031 25.4777 27.1839 25.4777H28.1544C28.2353 25.4777 28.3161 25.5586 28.3161 25.6394C28.3161 25.7203 28.2353 25.8012 28.1544 25.8012H27.8309V26.8525C27.8309 26.9334 27.75 27.0143 27.6692 27.0143C27.5883 27.0143 27.5074 26.9334 27.5074 26.8525V25.8012Z" fill="white"/>
<path d="M28.99 26.8256V25.6394C28.99 25.5586 29.0709 25.4777 29.1517 25.4777H29.9874C30.0683 25.4777 30.1491 25.5316 30.1491 25.6394C30.1491 25.7203 30.0952 25.7742 29.9874 25.7742H29.3135V26.0708H29.8796C29.9604 26.0708 30.0413 26.1247 30.0413 26.2325C30.0413 26.3403 29.9874 26.3673 29.8796 26.3673H29.3135V26.6908H29.9874C30.0683 26.6908 30.1491 26.7447 30.1491 26.8525C30.1491 26.9334 30.0952 26.9873 29.9874 26.9873H29.1517C29.0709 26.9873 28.99 26.9064 28.99 26.8256Z" fill="white"/>
<path d="M30.877 25.6394C30.877 25.5586 30.9579 25.4777 31.0387 25.4777H31.0657C31.1466 25.4777 31.1735 25.5047 31.2274 25.5586L31.6318 26.2055L32.0361 25.5586C32.0631 25.5047 32.117 25.4777 32.1979 25.4777H32.2248C32.3057 25.4777 32.3866 25.5586 32.3866 25.6394V26.8256C32.3866 26.9064 32.3057 26.9873 32.2248 26.9873C32.144 26.9873 32.0631 26.9064 32.0631 26.8256V26.0708L31.7666 26.529C31.7396 26.5829 31.6857 26.6099 31.6318 26.6099C31.5779 26.6099 31.524 26.5829 31.497 26.529L31.2005 26.0977V26.8525C31.2005 26.9334 31.1196 27.0143 31.0387 27.0143C30.9579 27.0143 30.877 26.9334 30.877 26.8525V25.6394Z" fill="white"/>
<path d="M33.1414 26.8256C33.1145 26.7986 33.0875 26.7447 33.0875 26.6908C33.0875 26.6099 33.1684 26.529 33.2493 26.529C33.3032 26.529 33.3301 26.556 33.3571 26.556C33.4649 26.6369 33.5997 26.6908 33.7345 26.6908C33.8693 26.6908 33.9501 26.6369 33.9501 26.556C33.9501 26.4751 33.8962 26.4212 33.6536 26.3673C33.3571 26.2864 33.1414 26.2055 33.1414 25.909C33.1414 25.6395 33.3571 25.4508 33.6806 25.4508C33.8693 25.4508 34.031 25.5047 34.1658 25.5855C34.1928 25.6125 34.2467 25.6395 34.2467 25.7203C34.2467 25.8012 34.1658 25.8821 34.0849 25.8821C34.058 25.8821 34.031 25.8821 34.0041 25.8551C33.8962 25.8012 33.7884 25.7473 33.6806 25.7473C33.5458 25.7473 33.4919 25.8012 33.4919 25.8821C33.4919 25.9899 33.5458 26.0168 33.8154 26.0708C34.1119 26.1516 34.3006 26.2595 34.3006 26.529C34.3006 26.8256 34.0849 26.9873 33.7345 26.9873C33.5188 27.0143 33.3301 26.9603 33.1414 26.8256Z" fill="white"/>
<path d="M5.45654 15.9619C5.45654 15.4497 5.8609 15.0453 6.37308 15.0453H9.28444C10.3358 15.0453 11.1714 15.3419 11.7106 15.881C12.1688 16.3393 12.4384 17.0132 12.4384 17.7949V17.8219C12.4384 19.1428 11.7914 19.9515 10.7671 20.3559L12.0341 21.9194C12.2228 22.135 12.3306 22.3507 12.3306 22.6203C12.3306 23.1324 11.8993 23.4559 11.468 23.4559C11.0367 23.4559 10.7671 23.2403 10.5514 22.9707L8.77226 20.7063H7.28962V22.5394C7.28962 23.0516 6.88527 23.4559 6.37308 23.4559C5.8609 23.4559 5.45654 23.0516 5.45654 22.5394V15.9619ZM9.14966 19.1158C10.0392 19.1158 10.5514 18.6306 10.5514 17.9297V17.9028C10.5514 17.121 10.0123 16.7167 9.09574 16.7167H7.28962V19.1158H9.14966Z" fill="white"/>
<path d="M16.2124 23.5368C14.2985 23.5368 12.8697 22.1889 12.8697 20.2211V20.1941C12.8697 18.361 14.1637 16.8514 16.0237 16.8514C18.1533 16.8514 19.0968 18.6037 19.0968 19.9246C19.0968 20.4367 18.7194 20.7872 18.2611 20.7872H14.6759C14.8646 21.6228 15.4307 22.0542 16.2394 22.0542C16.7515 22.0542 17.1559 21.8924 17.5333 21.6228C17.6681 21.515 17.7759 21.4881 17.9646 21.4881C18.369 21.4881 18.6655 21.8115 18.6655 22.2159C18.6655 22.4585 18.5577 22.6472 18.4229 22.755C17.8837 23.2403 17.1559 23.5368 16.2124 23.5368ZM17.3985 19.7089C17.2907 18.9002 16.8055 18.3341 16.0507 18.3341C15.2959 18.3341 14.8106 18.8732 14.6759 19.7089H17.3985Z" fill="white"/>
<path d="M22.4125 23.5368H22.3047C21.8195 23.5368 21.469 23.2133 21.2803 22.755L19.3125 18.2263C19.2586 18.1184 19.2046 17.9567 19.2046 17.7949C19.2046 17.3636 19.609 16.9593 20.0942 16.9593C20.5794 16.9593 20.849 17.2288 20.9838 17.6062L22.3586 21.3263L23.7604 17.5793C23.8682 17.2558 24.1378 16.9593 24.596 16.9593C25.0813 16.9593 25.4587 17.3367 25.4587 17.8219C25.4587 17.9836 25.4048 18.1723 25.3508 18.2532L23.383 22.782C23.2482 23.2133 22.9247 23.5368 22.4125 23.5368Z" fill="white"/>
<path d="M28.9362 23.5368C27.0222 23.5368 25.5935 22.1889 25.5935 20.2211V20.1941C25.5935 18.361 26.8874 16.8514 28.7475 16.8514C30.8771 16.8514 31.8206 18.6037 31.8206 19.9246C31.8206 20.4367 31.4432 20.7872 30.9849 20.7872H27.3727C27.5614 21.6228 28.1275 22.0542 28.9362 22.0542C29.4484 22.0542 29.8527 21.8924 30.2301 21.6228C30.3649 21.515 30.4727 21.4881 30.6614 21.4881C31.0658 21.4881 31.3623 21.8115 31.3623 22.2159C31.3623 22.4585 31.2545 22.6472 31.1197 22.755C30.5806 23.2403 29.8527 23.5368 28.9362 23.5368ZM30.0953 19.7089C29.9875 18.9002 29.5023 18.3341 28.7475 18.3341C27.9927 18.3341 27.5075 18.8732 27.3727 19.7089H30.0953Z" fill="white"/>
<path d="M32.7101 15.5306C32.7101 15.0184 33.1145 14.614 33.6267 14.614C34.1389 14.614 34.5432 15.0184 34.5432 15.5306V22.5663C34.5432 23.0785 34.1389 23.4829 33.6267 23.4829C33.1145 23.4829 32.7101 23.0785 32.7101 22.5663V15.5306Z" fill="white"/>
</svg>
