<svg width="40" height="40" viewBox="0 0 40 40" fill="none" xmlns="http://www.w3.org/2000/svg">
<rect width="40" height="40" rx="10" fill="#FBF7EE"/>
<path d="M28.5084 12.2077C28.4907 12.0792 28.3781 12.008 28.285 12.0002C28.1922 11.9924 26.2267 11.8468 26.2267 11.8468C26.2267 11.8468 24.8617 10.4916 24.7118 10.3416C24.5619 10.1917 24.2691 10.2373 24.1555 10.2707C24.1388 10.2756 23.8573 10.3625 23.3916 10.5066C22.9356 9.1945 22.1309 7.9887 20.7151 7.9887C20.676 7.9887 20.6358 7.99028 20.5956 7.99257C20.1929 7.4601 19.6942 7.22876 19.2634 7.22876C15.9654 7.22876 14.3898 11.3515 13.8958 13.4466C12.6143 13.8437 11.7039 14.126 11.5877 14.1625C10.8723 14.3869 10.8497 14.4094 10.7558 15.0834C10.6851 15.5937 8.81348 30.068 8.81348 30.068L23.3977 32.8005L31.2999 31.091C31.2999 31.091 28.5259 12.3362 28.5084 12.2077H28.5084ZM22.5855 10.7559L21.3515 11.1379C21.3519 11.0509 21.3524 10.9653 21.3524 10.8718C21.3524 10.0563 21.2392 9.39969 21.0576 8.87918C21.787 8.97073 22.2729 9.80074 22.5855 10.7559ZM20.1526 9.04089C20.3554 9.54907 20.4873 10.2784 20.4873 11.2625C20.4873 11.3129 20.4869 11.3589 20.4864 11.4055C19.6839 11.6541 18.8118 11.924 17.9378 12.1947C18.4285 10.3007 19.3484 9.38596 20.1526 9.04089ZM19.1728 8.11335C19.3151 8.11335 19.4585 8.16167 19.5958 8.25613C18.5388 8.75348 17.4059 10.0061 16.9275 12.5076L14.9129 13.1315C15.4733 11.2235 16.8039 8.11335 19.1727 8.11335H19.1728Z" fill="#95BF46"/>
<path d="M28.285 12.0002C28.1922 11.9924 26.2267 11.8468 26.2267 11.8468C26.2267 11.8468 24.8617 10.4916 24.7118 10.3416C24.6558 10.2858 24.5801 10.2572 24.5011 10.2448L23.3984 32.8003L31.2999 31.091C31.2999 31.091 28.5258 12.3362 28.5084 12.2077C28.4907 12.0792 28.3781 12.008 28.285 12.0002Z" fill="#5E8E3E"/>
<path d="M20.7151 16.3665L19.7407 19.2649C19.7407 19.2649 18.8871 18.8093 17.8406 18.8093C16.3064 18.8093 16.2292 19.772 16.2292 20.0146C16.2292 21.3384 19.6799 21.8456 19.6799 24.9463C19.6799 27.3858 18.1327 28.9566 16.0464 28.9566C13.5429 28.9566 12.2626 27.3986 12.2626 27.3986L12.933 25.1838C12.933 25.1838 14.249 26.3136 15.3595 26.3136C16.0851 26.3136 16.3802 25.7423 16.3802 25.3249C16.3802 23.5981 13.5493 23.5211 13.5493 20.6837C13.5493 18.2956 15.2633 15.9847 18.7233 15.9847C20.0565 15.9847 20.7151 16.3665 20.7151 16.3665Z" fill="white"/>
</svg>
