<svg width="40" height="40" viewBox="0 0 40 40" fill="none" xmlns="http://www.w3.org/2000/svg">
<rect width="40" height="40" rx="10" fill="black"/>
<path d="M27.4705 9H12.8392C10.8109 9 9.16699 10.6439 9.16699 12.6722V27.3035C9.16699 29.3318 10.8109 30.9757 12.8392 30.9757H27.4705C29.4988 30.9757 31.1427 29.3318 31.1427 27.3035V12.6722C31.1427 10.6439 29.4988 9 27.4705 9ZM27.1479 25.8209C27.1479 26.4617 26.6287 26.9809 25.9879 26.9809H14.3218C13.681 26.9809 13.1618 26.4617 13.1618 25.8209V14.1548C13.1618 13.514 13.681 12.9948 14.3218 12.9948H25.9879C26.6287 12.9948 27.1479 13.514 27.1479 14.1548V25.8209ZM17.8238 22.9707C17.4548 22.9707 17.1588 22.6724 17.1588 22.3034V17.6458C17.1588 17.2768 17.4548 16.9763 17.8238 16.9763H22.4881C22.8549 16.9763 23.1531 17.2746 23.1531 17.6458V22.3012C23.1531 22.6702 22.8549 22.9685 22.4881 22.9685H17.8238V22.9707Z" fill="white"/>
</svg>
