<svg width="40" height="40" viewBox="0 0 40 40" fill="none" xmlns="http://www.w3.org/2000/svg">
<rect width="40" height="40" rx="10" fill="#FF4C00"/>
<path d="M30.4973 23.8723C30.5137 22.5266 30.4549 21.181 30.3214 19.8417C30.2228 18.9366 29.9137 17.7795 28.9354 17.5435C29.0617 17.5754 29.1947 17.5709 29.3185 17.5306C30.4562 16.9358 30.3691 15.4716 29.9663 14.4131C29.4385 13.0248 28.1807 12.0422 26.9377 11.3893C22.4706 9.04265 16.4925 9.23982 12.1618 11.9129C11.0355 12.6078 9.73664 13.9605 10.3072 15.4716C10.4621 15.8459 10.6906 16.1864 10.9796 16.4736C11.1062 16.6078 11.4087 16.9197 11.4087 16.9213C10.8284 17.7084 10.4042 18.4162 10.1312 19.373C9.31081 22.2465 9.44727 24.0937 9.67252 26.4048C9.81227 27.8334 10.2858 29.9603 11.9332 30.1962C13.2765 30.3821 14.7283 29.9393 16.0732 29.7825C17.5529 29.608 19.0458 29.3364 20.5387 29.3752C22.6465 29.4286 24.7379 29.9296 26.849 29.949C27.9637 29.9603 29.8167 30.0653 30.1488 28.5995C30.4645 27.2048 30.4776 25.7502 30.4776 24.3264C30.4957 24.1745 30.4973 24.0226 30.4973 23.8723ZM28.087 26.2852C27.5625 27.4666 26.0779 27.3341 25.0437 27.2468C23.4949 27.1159 21.9708 26.7425 20.4138 26.6957C19.036 26.6553 17.673 26.9155 16.3297 27.2096C15.3251 27.431 13.9243 28.008 13.0167 27.2355C12.0105 26.3821 11.8296 24.9244 11.8165 23.701C11.8364 22.593 11.9464 21.4884 12.1453 20.3976C12.2696 19.7241 12.4675 19.0657 12.7356 18.434C13.0973 17.5193 13.6283 16.9698 13.6563 16.9989C13.385 16.7193 13.0611 16.5706 12.8786 16.1908C12.1914 14.7525 13.9095 13.5371 14.8516 13.1202C18.1399 11.6511 22.7435 11.7965 25.851 13.6826C26.8194 14.2692 28.7003 16.2926 26.9427 17.2995C28.0262 17.8102 28.3008 19.3536 28.4224 20.4493C28.6121 22.2079 28.5568 23.9837 28.258 25.7276C28.2241 25.9196 28.1667 26.1068 28.087 26.2852Z" fill="white"/>
</svg>
