<svg width="40" height="40" viewBox="0 0 40 40" fill="none" xmlns="http://www.w3.org/2000/svg">
<rect width="40" height="40" rx="10" fill="#00A3AD"/>
<path d="M24.7228 19.4553C24.7228 19.2604 24.721 18.8866 24.721 18.8275C24.6995 16.5291 24.882 15.4488 24.9803 14.7691C26.5865 14.5831 27.8368 13.2165 27.8368 11.562C27.8368 9.78231 26.388 8.3335 24.6083 8.3335C24.3472 8.3335 24.0914 8.36927 23.8428 8.43009C23.1666 6.94729 21.666 5.95459 20.0007 5.95459C18.2961 5.95459 16.8259 6.97055 16.1587 8.4283C15.9101 8.36748 15.6543 8.3335 15.3914 8.3335C13.6117 8.3335 12.1628 9.78231 12.1628 11.562C12.1628 13.2183 13.4167 14.5884 15.0265 14.7709C15.1177 15.3719 15.2894 16.225 15.284 18.2158C14.8637 18.6558 14.4988 19.1692 14.2037 19.7505C13.1055 21.9112 13.0733 24.7194 14.1089 27.6599C16.139 33.4229 20.7466 34.0454 22.6318 34.0454C23.3026 34.0454 24.0323 33.7968 24.2577 33.4891C24.3472 33.3675 24.3811 33.2244 24.3561 33.0652C24.3382 33.0062 24.2702 32.9722 24.2023 32.9883C23.6836 33.1207 21.8198 33.473 19.6537 32.4607C18.2317 31.7953 16.3072 30.3554 15.2197 27.27C14.2913 24.6371 14.3039 22.1562 15.2536 20.2853C15.8671 19.0779 16.833 18.223 17.9706 17.8813C19.5035 17.4216 20.9022 17.9547 21.8055 18.4841C23.6388 19.5555 25.1252 21.5982 25.5921 23.6855C26.4166 27.3701 25.6046 29.9351 23.4206 30.5468C21.0936 31.1979 18.5609 28.9495 17.6558 26.4383C17.0727 24.8177 17.0834 22.8896 17.6844 21.6393C17.8776 21.2368 18.2282 20.7163 18.7952 20.5232C20.5928 19.915 22.4476 22.0686 23.0414 23.7928C23.392 24.8088 23.5512 26.2272 23.1148 27.1036C22.9359 27.4649 22.6748 27.6975 22.317 27.8137C21.9969 27.9193 21.6803 27.8799 21.3458 27.6939C20.4908 27.2163 19.8791 25.9929 19.7539 25.476C19.4713 24.2937 19.5339 23.3689 19.9006 23.2813C20.0043 23.2544 20.1259 23.3081 20.2637 23.4423C20.7251 23.8912 20.9738 24.7891 20.9791 25.1468C20.9791 25.1862 20.9988 25.2166 21.0328 25.2345L21.0399 25.2381C21.2295 25.3329 21.4048 25.3364 21.5515 25.2434C21.7661 25.1075 21.9039 24.7712 21.8931 24.4081C21.877 23.893 21.6856 23.3493 21.3655 22.92C20.7055 22.0328 19.9936 22.0489 19.6269 22.1383C18.4983 22.4102 18.128 23.7267 18.6109 25.7514C18.8131 26.5974 19.6162 28.0767 20.7716 28.7242C21.3905 29.0694 22.0505 29.1427 22.6837 28.937C23.3384 28.7224 23.8517 28.2716 24.1701 27.6313C24.7979 26.3703 24.5725 24.6246 24.154 23.4136C23.7462 22.2349 22.9502 21.0669 22.0201 20.2924C20.8646 19.3284 19.584 19.0171 18.416 19.4142C17.6612 19.6718 17.0423 20.2656 16.6237 21.1331C15.8832 22.6731 15.8528 24.9125 16.5486 26.8407C17.6272 29.8367 20.6822 32.5411 23.7372 31.6826C26.5955 30.8831 27.717 27.7976 26.7404 23.4297C26.4166 21.9881 25.6958 20.6072 24.7228 19.4553ZM22.3993 17.4646C21.3333 16.8403 20.2458 16.5237 19.169 16.5237C18.6467 16.5237 18.1298 16.5989 17.6308 16.7491C17.2247 16.8707 16.8384 17.0478 16.4735 17.266C16.4359 15.9371 16.3089 15.032 16.2159 14.5312C16.495 14.3112 16.6774 13.9749 16.6774 13.5939H16.0102H15.3914C14.2717 13.5939 13.3595 12.6817 13.3595 11.562C13.3595 10.4423 14.2717 9.53011 15.3914 9.53011C15.5416 9.53011 15.6901 9.54621 15.8332 9.5784C15.8099 10.1937 16.3572 10.6927 16.9815 10.6051L17.0029 10.6015C16.9833 10.462 16.9725 10.3189 16.9725 10.1758C16.9725 8.507 18.3301 7.1512 19.9971 7.1512C21.2599 7.1512 22.3814 7.95073 22.8196 9.11693C22.6676 9.4836 22.7392 9.93077 23.0754 10.2259C23.4618 9.7841 24.0198 9.5319 24.6047 9.5319C25.7906 9.5319 26.7422 10.5514 26.6277 11.7606C26.5293 12.8141 25.6028 13.5975 24.5457 13.5975H24.4652H23.9733H21.251C21.251 14.2593 21.7876 14.7941 22.4476 14.7941H23.7354C23.6299 15.4452 23.5101 16.5667 23.519 18.2677C23.1613 17.9708 22.791 17.6953 22.3993 17.4646Z" fill="white"/>
</svg>
