<svg width="40" height="40" viewBox="0 0 40 40" fill="none" xmlns="http://www.w3.org/2000/svg">
<rect width="40" height="40" rx="10" fill="#1C69E8"/>
<path fill-rule="evenodd" clip-rule="evenodd" d="M20.0001 15.4865C21.8558 15.4865 23.3601 16.9909 23.3601 18.8465V29.1857C23.3601 31.0414 21.8558 32.5457 20.0001 32.5457C18.1444 32.5457 16.6401 31.0414 16.6401 29.1857V18.8465C16.6401 16.9909 18.1444 15.4865 20.0001 15.4865Z" fill="white"/>
<path fill-rule="evenodd" clip-rule="evenodd" d="M29.8305 7.21133C31.6862 7.21133 33.1905 8.71566 33.1905 10.5713V29.1857C33.1905 31.0414 31.6862 32.5457 29.8305 32.5457C27.9748 32.5457 26.4705 31.0414 26.4705 29.1857V10.5713C26.4705 8.71566 27.9748 7.21133 29.8305 7.21133Z" fill="white"/>
<path d="M13.8753 29.1857C13.8753 31.0414 12.371 32.5457 10.5153 32.5457C8.6596 32.5457 7.15527 31.0414 7.15527 29.1857C7.15527 27.3301 8.6596 25.8257 10.5153 25.8257C12.371 25.8257 13.8753 27.3301 13.8753 29.1857Z" fill="white"/>
</svg>
