<svg width="24" height="24" viewBox="0 0 24 24" fill="none" xmlns="http://www.w3.org/2000/svg">
<path d="M7.12502 18.5758C7.32494 18.5592 7.51695 18.6086 7.70021 18.7253C8.10016 18.9919 8.52066 19.2127 8.96193 19.3874C9.40391 19.5627 9.85858 19.7092 10.3252 19.8258C10.5083 19.8759 10.6704 19.9796 10.8115 20.1374C10.9534 20.2959 11.0243 20.4669 11.0244 20.6501C11.0244 21.0334 10.8994 21.3338 10.6494 21.5504C10.3995 21.767 10.1077 21.834 9.77443 21.7506C9.2413 21.6173 8.72042 21.4468 8.21193 21.2389C7.70401 21.0303 7.21661 20.7839 6.75002 20.5006C6.45002 20.3173 6.28707 20.0545 6.26174 19.7126C6.23707 19.3712 6.35835 19.0671 6.62502 18.8004C6.75832 18.6672 6.9251 18.5925 7.12502 18.5758ZM16.875 18.5758C17.0749 18.5925 17.2417 18.6672 17.375 18.8004C17.6416 19.0671 17.762 19.3713 17.7373 19.7126C17.712 20.0545 17.5499 20.3173 17.25 20.5006C16.7834 20.7839 16.296 21.0303 15.7881 21.2389C15.2794 21.4469 14.758 21.6173 14.2246 21.7506C13.8914 21.8339 13.5996 21.7671 13.3496 21.5504C13.0997 21.3338 12.9746 21.0333 12.9746 20.6501C12.9748 20.4669 13.0457 20.2959 13.1875 20.1374C13.3288 19.9794 13.4915 19.8758 13.6748 19.8258C14.1415 19.7092 14.5961 19.5627 15.0381 19.3874C15.4793 19.2127 15.8999 18.9918 16.2998 18.7253C16.4831 18.6087 16.6751 18.5592 16.875 18.5758ZM3.32521 12.9753C3.52504 12.9753 3.70847 13.0422 3.87502 13.1754C4.04162 13.3088 4.15022 13.4755 4.20021 13.6754C4.30021 14.1421 4.44168 14.5964 4.62502 15.0378C4.80829 15.4796 5.02454 15.9006 5.27443 16.3004C5.3911 16.4671 5.43777 16.6553 5.4131 16.8639C5.38772 17.0718 5.30808 17.2424 5.17482 17.3756C4.90827 17.6422 4.6123 17.7632 4.28713 17.7379C3.96246 17.7133 3.70776 17.5584 3.52443 17.2751C3.2413 16.8087 2.99568 16.3255 2.78713 15.8258C2.57913 15.3258 2.40777 14.8084 2.27443 14.2751C2.1913 13.9419 2.25404 13.6422 2.46193 13.3756C2.6706 13.109 2.95855 12.9753 3.32521 12.9753ZM20.6748 12.9753C21.0415 12.9753 21.3294 13.109 21.5381 13.3756C21.7459 13.6421 21.8078 13.942 21.7246 14.2751C21.5913 14.8084 21.4209 15.3258 21.2129 15.8258C21.0043 16.3257 20.7578 16.8085 20.4746 17.2751C20.2913 17.5584 20.0375 17.7133 19.7129 17.7379C19.3877 17.7633 19.0918 17.6421 18.8252 17.3756C18.692 17.2424 18.6123 17.0717 18.5869 16.8639C18.5623 16.6553 18.608 16.4671 18.7246 16.3004C18.9746 15.9005 19.1917 15.4797 19.375 15.0378C19.5584 14.5964 19.6998 14.1421 19.7998 13.6754C19.8498 13.4755 19.9584 13.3088 20.125 13.1754C20.2916 13.0422 20.4749 12.9753 20.6748 12.9753ZM4.29982 6.20084C4.63314 6.16751 4.92483 6.2838 5.17482 6.55045C5.30816 6.68378 5.38777 6.85917 5.4131 7.07584C5.43768 7.29229 5.39095 7.48351 5.27443 7.65006C5.02443 8.05005 4.80835 8.47142 4.62502 8.91275C4.44178 9.35455 4.3002 9.80862 4.20021 10.2751C4.15025 10.4749 4.04146 10.6418 3.87502 10.7751C3.70835 10.9084 3.53296 10.9753 3.34963 10.9753C2.96655 10.9752 2.66683 10.8422 2.45021 10.5758C2.23355 10.3092 2.16668 10.0088 2.25002 9.67545C2.38334 9.1422 2.55377 8.62557 2.76174 8.12564C2.97039 7.62567 3.22446 7.14209 3.52443 6.67545C3.70776 6.39211 3.96649 6.23417 4.29982 6.20084ZM19.7002 6.20084C20.0333 6.23427 20.2914 6.39233 20.4746 6.67545C20.7746 7.14209 21.0287 7.62567 21.2373 8.12564C21.4453 8.62563 21.6167 9.14212 21.75 9.67545C21.8334 10.0088 21.7665 10.3092 21.5498 10.5758C21.3332 10.8424 21.0327 10.9753 20.6494 10.9753C20.4662 10.9752 20.2916 10.9083 20.125 10.7751C19.9584 10.6417 19.8498 10.475 19.7998 10.2751C19.6998 9.80864 19.5582 9.35452 19.375 8.91275C19.1917 8.47142 18.9746 8.05005 18.7246 7.65006C18.6082 7.48355 18.5624 7.29222 18.5869 7.07584C18.6123 6.85917 18.6919 6.68378 18.8252 6.55045C19.0752 6.28397 19.367 6.16751 19.7002 6.20084ZM9.75002 2.20084C10.0832 2.11758 10.3751 2.18349 10.625 2.40006C10.8749 2.61663 10.9999 2.90861 11 3.27506C11 3.47489 10.9289 3.65426 10.7871 3.81216C10.6458 3.97082 10.4831 4.07564 10.2998 4.12564C9.81649 4.24231 9.35816 4.3925 8.92482 4.57584C8.49151 4.75917 8.06608 4.98399 7.64943 5.25064C7.48288 5.35049 7.29541 5.39226 7.08693 5.37564C6.87893 5.35897 6.70855 5.28339 6.57521 5.15006C6.30867 4.8835 6.19143 4.57977 6.22463 4.23795C6.25795 3.8967 6.42477 3.63416 6.72463 3.45084C7.19123 3.16754 7.67893 2.9212 8.18752 2.71256C8.69552 2.50456 9.21668 2.33417 9.75002 2.20084ZM13.375 2.40006C13.6249 2.18365 13.9169 2.11755 14.25 2.20084C14.7832 2.33414 15.3037 2.50463 15.8115 2.71256C16.3202 2.92121 16.8078 3.16753 17.2744 3.45084C17.5744 3.63417 17.7411 3.89661 17.7744 4.23795C17.8076 4.57968 17.6912 4.88355 17.4248 5.15006C17.2916 5.28332 17.121 5.35892 16.9131 5.37564C16.7044 5.39231 16.5163 5.35064 16.3496 5.25064C15.9331 4.98409 15.5084 4.75912 15.0752 4.57584C14.642 4.39256 14.1834 4.24229 13.7002 4.12564C13.5169 4.07564 13.3542 3.97083 13.2129 3.81216C13.071 3.6542 13 3.475 13 3.27506C13.0001 2.90861 13.1251 2.61663 13.375 2.40006Z" fill="#525252"/>
</svg>
