<svg width="20" height="20" viewBox="0 0 20 20" fill="none" xmlns="http://www.w3.org/2000/svg">
  <path d="M20 10C20 15.5228 15.5228 20 10 20C4.47715 20 0 15.5228 0 10C0 4.47715 4.47715 0 10 0C15.5228 0 20 4.47715 20 10ZM2.8 10C2.8 13.9765 6.02355 17.2 10 17.2C13.9765 17.2 17.2 13.9765 17.2 10C17.2 6.02355 13.9765 2.8 10 2.8C6.02355 2.8 2.8 6.02355 2.8 10Z" fill="black" fill-opacity="0.08"/>
  <path transform="translate(10.285, 1.066)" d="M1.025e-07 1.314C1.118e-07 0.541 0.630 -0.096 1.395 0.012C3.339 0.286 5.171 1.128 6.652 2.447C8.133 3.767 9.180 5.490 9.676 7.389C9.871 8.137 9.311 8.836 8.543 8.925C7.775 9.014 7.093 8.456 6.857 7.720C6.467 6.501 5.757 5.400 4.789 4.538C3.822 3.676 2.646 3.097 1.391 2.850C0.633 2.700 9.333e-08 2.087 1.025e-07 1.314Z" fill="#1258D2"/>
</svg>
