<svg width="20" height="20" viewBox="0 0 20 20" fill="none" xmlns="http://www.w3.org/2000/svg">
<path fill-rule="evenodd" clip-rule="evenodd" d="M8.53868 0.605305C9.34576 -0.201771 10.6542 -0.201766 11.4613 0.605305L19.3947 8.53865C20.2018 9.34573 20.2018 10.6543 19.3947 11.4614L11.4613 19.3947C10.6542 20.2018 9.34576 20.2018 8.53868 19.3947L0.605299 11.4614C-0.201768 10.6543 -0.201765 9.34573 0.605299 8.53865L8.53868 0.605305ZM10.384 4.2795C10.2454 3.95647 9.78736 3.95654 9.64883 4.27963L8.18791 7.68677C8.07904 7.94067 7.87594 8.14244 7.62131 8.24959L4.29947 9.64737C3.97291 9.78477 3.97299 10.2475 4.2996 10.3848L7.62085 11.7807C7.87574 11.8878 8.07912 12.0898 8.18804 12.3439L9.64883 15.7524C9.78733 16.0756 10.2454 16.0757 10.384 15.7526L11.8467 12.3434C11.9557 12.0896 12.1589 11.8878 12.4135 11.7808L15.7334 10.3848C16.0599 10.2475 16.06 9.7848 15.7335 9.64737L12.4131 8.24952C12.1587 8.14242 11.9557 7.94083 11.8468 7.68716L10.384 4.2795Z" fill="black"/>
</svg>
