<svg preserveAspectRatio="none" width="100%" height="100%" overflow="visible" style="display: block;" viewBox="0 0 61.3836 19.7285" fill="none" xmlns="http://www.w3.org/2000/svg">
<g id="Otter Wordmark">
<path id="Vector" d="M9.8701 5.14479e-05C4.46185 5.14479e-05 5.1478e-05 4.45921 5.1478e-05 9.86425C-0.00414515 11.1608 0.248289 12.4454 0.742819 13.6441C1.23735 14.8427 1.96421 15.9318 2.88157 16.8486C3.79892 17.7655 4.88865 18.4919 6.08804 18.9861C7.28742 19.4804 8.57277 19.7326 9.8701 19.7284C15.4136 19.7284 19.7402 15.4044 19.7402 9.86425C19.7443 8.56769 19.4919 7.2831 18.9974 6.08443C18.5029 4.88575 17.776 3.79667 16.8586 2.87986C15.9413 1.96304 14.8516 1.23661 13.6522 0.742376C12.4528 0.248139 11.1674 -0.0041427 9.8701 5.14479e-05ZM9.8701 16.8908C6.08433 16.8908 2.97459 13.7829 2.97459 9.86425C2.97459 6.08072 6.08433 2.97282 9.8701 2.97282C13.7911 2.97282 16.9008 6.08072 16.9008 9.86425C16.9008 13.7829 13.7911 16.8908 9.8701 16.8908Z" fill="var(--fill-0, black)"/>
<path id="Vector_2" d="M52.3248 11.7481C52.3248 7.28893 49.8911 4.45128 45.4293 4.45128C41.1027 4.45128 38.2634 7.55918 38.2634 12.0183C38.2634 16.4775 40.8323 19.7205 45.4293 19.7205C49.2151 19.7205 51.3784 17.6936 52.1896 14.856H49.3503C49.0799 15.8019 48.1334 17.4234 45.5645 17.4234C42.59 17.4234 41.2379 15.2614 41.2379 12.8291H52.3248V11.7481ZM41.2379 10.6671C41.3731 8.23481 42.9956 6.74842 45.4293 6.74842C47.863 6.74842 49.3503 8.36993 49.3503 10.6671H41.2379Z" fill="var(--fill-0, black)"/>
<path id="Vector_3" d="M57.1922 7.75604H61.3836V4.91839H58.1386C55.8401 4.91839 54.3528 4.91839 54.3528 8.43167V19.3769H57.1922V7.75604Z" fill="var(--fill-0, black)"/>
<path id="Vector_4" d="M20.8001 4.91461V7.21175H23.5042V15.8598C23.5042 19.3731 24.9915 19.3731 27.29 19.3731H29.1829V16.8057H26.3435V7.21175H31.4814V15.8598C31.4814 19.3731 32.9686 19.3731 35.4024 19.3731H37.16V16.8057H34.3207V7.21175H37.16V4.91461H34.3207V1.40134H31.4814V4.91461H26.3435V1.40134H23.5042V4.91461H20.8001Z" fill="var(--fill-0, black)"/>
</g>
</svg>
