<svg width="32" height="32" viewBox="0 0 32 32" fill="none" xmlns="http://www.w3.org/2000/svg">
<path d="M0 8C0 3.58172 3.58172 0 8 0H24C28.4183 0 32 3.58172 32 8V24C32 28.4183 28.4183 32 24 32H8C3.58172 32 0 28.4183 0 24V8Z" fill="black" fill-opacity="0.01"/>
<path d="M13.4833 13.55C13.3611 13.4278 13.3 13.2666 13.3 13.0666C13.3 12.8666 13.3611 12.7055 13.4833 12.5833L15.5333 10.5333C15.6 10.4666 15.6722 10.4193 15.75 10.3913C15.8278 10.3638 15.9111 10.35 16 10.35C16.0889 10.35 16.1751 10.3638 16.2587 10.3913C16.3418 10.4193 16.4111 10.4666 16.4667 10.5333L18.5333 12.6C18.6555 12.7222 18.7138 12.8804 18.708 13.0746C18.7027 13.2693 18.6389 13.4278 18.5167 13.55C18.3944 13.6722 18.2333 13.7333 18.0333 13.7333C17.8333 13.7333 17.6722 13.6722 17.55 13.55L16 12L14.4333 13.5666C14.3111 13.6889 14.1529 13.7473 13.9587 13.742C13.764 13.7362 13.6055 13.6722 13.4833 13.55ZM16 21.7166C15.9111 21.7166 15.8278 21.7 15.75 21.6666C15.6722 21.6333 15.6 21.5889 15.5333 21.5333L13.4833 19.4833C13.3611 19.3611 13.3 19.2 13.3 19C13.3 18.8 13.3611 18.6389 13.4833 18.5166C13.6055 18.3944 13.7667 18.3333 13.9667 18.3333C14.1667 18.3333 14.3278 18.3944 14.45 18.5166L16 20.0666L17.5667 18.5C17.6889 18.3778 17.8471 18.3195 18.0413 18.3253C18.236 18.3306 18.3944 18.3944 18.5167 18.5166C18.6389 18.6389 18.7 18.8 18.7 19C18.7 19.2 18.6389 19.3611 18.5167 19.4833L16.4667 21.5333C16.4111 21.5889 16.3418 21.6333 16.2587 21.6666C16.1751 21.7 16.0889 21.7166 16 21.7166Z" fill="#141414"/>
</svg>
