<svg width="40" height="40" viewBox="0 0 40 40" fill="none" xmlns="http://www.w3.org/2000/svg">
<rect width="40" height="40" rx="10" fill="#EFEFEF"/>
<path fill-rule="evenodd" clip-rule="evenodd" d="M27.3088 26.9767L24.552 26.5803C24.2029 26.8218 23.8337 27.0362 23.4474 27.2206L22.4213 29.7361C22.2814 30.0712 21.9815 30.3176 21.6217 30.3767C21.1619 30.4457 20.6922 30.4949 20.2224 30.4949C20.1091 30.5015 19.9958 30.4993 19.8826 30.4971C19.826 30.496 19.7692 30.4949 19.7126 30.4949C19.2429 30.4851 18.7831 30.4457 18.3233 30.3668C17.9635 30.3077 17.6637 30.0515 17.5337 29.7164L16.5286 27.2063C16.1481 27.0227 15.7844 26.81 15.4404 26.5709L12.7061 26.9668C12.3363 27.0161 11.9665 26.888 11.7366 26.6121C11.4368 26.2474 11.1569 25.8631 10.907 25.4492C10.8071 25.3112 10.7171 25.1634 10.6472 25.0155C10.4273 24.6213 10.2374 24.2173 10.0775 23.8034C9.94752 23.4683 10.0275 23.0938 10.2474 22.808L12.0217 20.556C12.0092 20.3737 12.0029 20.1898 12.0029 20.0045C12.0029 19.8162 12.0094 19.6294 12.0223 19.4444L10.2374 17.2301C10.0175 16.9443 9.93753 16.5599 10.0675 16.2248C10.2274 15.8011 10.4173 15.3872 10.6472 14.9831C10.7271 14.8353 10.8071 14.6875 10.907 14.5495C11.1469 14.1454 11.4168 13.7709 11.7066 13.4162C11.9365 13.1304 12.3063 13.0022 12.6662 13.0515L15.4401 13.4382C15.7892 13.1956 16.1586 12.9801 16.5451 12.7947L17.5837 10.2625C17.7236 9.92748 18.0235 9.6811 18.3833 9.62197C18.8431 9.55298 19.3128 9.50371 19.7826 9.50371C19.8959 9.49714 20.0092 9.49933 20.1224 9.50152C20.1791 9.50261 20.2357 9.50371 20.2924 9.50371C20.7621 9.51356 21.2219 9.55298 21.6817 9.63182C22.0415 9.69095 22.3413 9.94719 22.4713 10.2823L23.4792 12.8036C23.8671 12.9909 24.2376 13.2085 24.5876 13.4534L27.3388 13.0712C27.6986 13.022 28.0685 13.1501 28.2983 13.4359C28.5882 13.7907 28.8581 14.175 29.0979 14.5692C29.1979 14.7072 29.2879 14.855 29.3578 15.0028C29.5777 15.4069 29.7676 15.8208 29.9375 16.2544C30.0675 16.5895 29.9975 16.964 29.7676 17.2498L27.9852 19.4682C27.997 19.6454 28.0029 19.8243 28.0029 20.0045C28.0029 20.1923 27.9964 20.3787 27.9837 20.5633L29.7676 22.8179C29.9875 23.1037 30.0675 23.4782 29.9375 23.8132C29.7776 24.2271 29.5877 24.6312 29.3678 25.0254C29.2879 25.1732 29.2079 25.3211 29.1079 25.459C28.8581 25.8631 28.5782 26.2573 28.2784 26.6219C28.0485 26.8979 27.6687 27.026 27.3088 26.9767ZM19.9971 23.5014C21.9301 23.5014 23.4971 21.9358 23.4971 20.0045C23.4971 18.0732 21.9301 16.5076 19.9971 16.5076C18.0641 16.5076 16.4971 18.0732 16.4971 20.0045C16.4971 21.9358 18.0641 23.5014 19.9971 23.5014Z" fill="black"/>
</svg>
