<svg width="32" height="32" viewBox="0 0 32 32" fill="none" xmlns="http://www.w3.org/2000/svg">
<rect width="32" height="32" rx="8" fill="#EFEFEF"/>
<path fill-rule="evenodd" clip-rule="evenodd" d="M21.8471 21.5814L19.6416 21.2643C19.3623 21.4574 19.067 21.629 18.7579 21.7765L17.937 23.7889C17.8251 24.057 17.5852 24.2541 17.2974 24.3014C16.9295 24.3566 16.5537 24.396 16.1779 24.396C16.0873 24.4012 15.9967 24.3995 15.906 24.3977C15.8608 24.3969 15.8153 24.396 15.7701 24.396C15.3943 24.3881 15.0265 24.3566 14.6587 24.2935C14.3708 24.2462 14.1309 24.0412 14.027 23.7731L13.2229 21.7651C12.9185 21.6182 12.6275 21.448 12.3523 21.2568L10.1649 21.5735C9.86906 21.6129 9.57321 21.5104 9.3893 21.2897C9.14942 20.998 8.92554 20.6905 8.72564 20.3594C8.64568 20.249 8.57371 20.1307 8.51774 20.0125C8.34183 19.6971 8.1899 19.3739 8.06197 19.0427C7.95802 18.7747 8.02199 18.4751 8.1979 18.2464L9.61734 16.4448C9.6074 16.299 9.60234 16.1519 9.60234 16.0036C9.60234 15.853 9.60756 15.7036 9.61781 15.5556L8.1899 13.7841C8.01399 13.5554 7.95002 13.248 8.05397 12.9799C8.18191 12.6409 8.33383 12.3098 8.51774 11.9865C8.58171 11.8683 8.64568 11.75 8.72564 11.6396C8.91754 11.3164 9.13343 11.0168 9.36532 10.733C9.54922 10.5043 9.84508 10.4018 10.1329 10.4412L12.3521 10.7506C12.6314 10.5565 12.9269 10.3841 13.2361 10.2358L14.067 8.21006C14.1789 7.942 14.4188 7.7449 14.7066 7.6976C15.0745 7.64241 15.4503 7.60299 15.8261 7.60299C15.9167 7.59774 16.0073 7.59949 16.0979 7.60124C16.1433 7.60212 16.1886 7.60299 16.2339 7.60299C16.6097 7.61088 16.9775 7.64241 17.3453 7.70548C17.6332 7.75279 17.8731 7.95777 17.977 8.22583L18.7833 10.2429C19.0937 10.3927 19.3901 10.5668 19.67 10.7628L21.8711 10.457C22.1589 10.4176 22.4548 10.5201 22.6387 10.7487C22.8706 11.0325 23.0865 11.34 23.2784 11.6554C23.3583 11.7658 23.4303 11.884 23.4863 12.0023C23.6622 12.3255 23.8141 12.6567 23.95 13.0036C24.054 13.2716 23.998 13.5712 23.8141 13.7998L22.3882 15.5746C22.3976 15.7164 22.4023 15.8594 22.4023 16.0036C22.4023 16.1539 22.3972 16.303 22.3869 16.4507L23.8141 18.2543C23.99 18.483 24.054 18.7826 23.95 19.0506C23.8221 19.3817 23.6702 19.705 23.4943 20.0203C23.4303 20.1386 23.3663 20.2569 23.2864 20.3672C23.0865 20.6905 22.8626 21.0059 22.6227 21.2976C22.4388 21.5183 22.1349 21.6208 21.8471 21.5814ZM15.9977 18.8011C17.5441 18.8011 18.7977 17.5486 18.7977 16.0036C18.7977 14.4586 17.5441 13.2061 15.9977 13.2061C14.4513 13.2061 13.1977 14.4586 13.1977 16.0036C13.1977 17.5486 14.4513 18.8011 15.9977 18.8011Z" fill="black"/>
</svg>
