<svg width="24" height="24" viewBox="0 0 24 24" fill="none" xmlns="http://www.w3.org/2000/svg">
<rect width="24" height="24" rx="6" fill="#EFEFEF"/>
<path fill-rule="evenodd" clip-rule="evenodd" d="M16.3853 16.1861L14.7312 15.9482C14.5218 16.0931 14.3002 16.2218 14.0685 16.3324L13.4528 17.8417C13.3688 18.0428 13.1889 18.1906 12.973 18.2261C12.6972 18.2675 12.4153 18.297 12.1334 18.297C12.0655 18.301 11.9975 18.2996 11.9295 18.2983C11.8956 18.2977 11.8615 18.297 11.8276 18.297C11.5457 18.2911 11.2699 18.2675 10.994 18.2201C10.7781 18.1847 10.5982 18.0309 10.5202 17.8299L9.91715 16.3238C9.68888 16.2137 9.47066 16.086 9.26425 15.9426L7.62369 16.1802C7.4018 16.2097 7.17991 16.1329 7.04198 15.9673C6.86207 15.7485 6.69415 15.5179 6.54423 15.2695C6.48426 15.1868 6.43028 15.0981 6.3883 15.0094C6.25637 14.7729 6.14243 14.5304 6.04648 14.2821C5.96851 14.081 6.01649 13.8563 6.14842 13.6849L7.213 12.3336C7.20555 12.2243 7.20176 12.114 7.20176 12.0027C7.20176 11.8898 7.20567 11.7777 7.21336 11.6667L6.14243 10.3381C6.01049 10.1666 5.96252 9.936 6.04048 9.73496C6.13643 9.4807 6.25037 9.23235 6.3883 8.98992C6.43628 8.90122 6.48426 8.81253 6.54423 8.72974C6.68815 8.48731 6.85007 8.26261 7.02399 8.04975C7.16192 7.87827 7.38381 7.8014 7.5997 7.83096L9.26408 8.06298C9.47353 7.91742 9.69514 7.7881 9.92708 7.67686L10.5502 6.15758C10.6342 5.95653 10.8141 5.80871 11.03 5.77323C11.3058 5.73184 11.5877 5.70227 11.8696 5.70227C11.9375 5.69833 12.0055 5.69965 12.0735 5.70096C12.1074 5.70162 12.1414 5.70227 12.1754 5.70227C12.4573 5.70819 12.7331 5.73184 13.009 5.77914C13.2249 5.81462 13.4048 5.96836 13.4828 6.1694L14.0875 7.68219C14.3203 7.79456 14.5426 7.92515 14.7525 8.07211L16.4033 7.84279C16.6192 7.81322 16.8411 7.89009 16.979 8.06157C17.1529 8.27444 17.3148 8.50505 17.4588 8.74157C17.5187 8.82435 17.5727 8.91305 17.6147 9.00174C17.7466 9.24418 17.8606 9.49252 17.9625 9.7527C18.0405 9.95374 17.9985 10.1784 17.8606 10.3499L16.7911 11.681C16.7982 11.7873 16.8018 11.8946 16.8018 12.0027C16.8018 12.1154 16.7979 12.2273 16.7902 12.338L17.8606 13.6908C17.9925 13.8622 18.0405 14.0869 17.9625 14.288C17.8666 14.5363 17.7526 14.7788 17.6207 15.0153C17.5727 15.104 17.5247 15.1927 17.4648 15.2755C17.3148 15.5179 17.1469 15.7544 16.967 15.9732C16.8291 16.1388 16.6012 16.2156 16.3853 16.1861ZM11.9982 14.1009C13.158 14.1009 14.0982 13.1615 14.0982 12.0027C14.0982 10.844 13.158 9.90459 11.9982 9.90459C10.8384 9.90459 9.89824 10.844 9.89824 12.0027C9.89824 13.1615 10.8384 14.1009 11.9982 14.1009Z" fill="black"/>
</svg>
