<svg width="24" height="24" viewBox="0 0 24 24" fill="none" xmlns="http://www.w3.org/2000/svg">
<path fill-rule="evenodd" clip-rule="evenodd" d="M16.2214 8.57524C15.1751 8.06166 14.3801 7.10179 14.1067 5.93333C14.04 5.62667 14 5.32 14 5C14 4.35141 14.1577 3.74225 14.4339 3.21163C13.7179 2.73721 12.905 2.5 11.995 2.5C10.7557 2.5 9.69628 2.94 8.81677 3.82C7.93726 4.7 7.4975 5.76 7.4975 7C7.4975 8.24 7.93726 9.3 8.81677 10.18C9.69628 11.06 10.7557 11.5 11.995 11.5C13.2343 11.5 14.2937 11.06 15.1732 10.18C15.6541 9.69888 16.0035 9.16396 16.2214 8.57524ZM3.65963 20.34C4.09939 20.78 4.62909 21 5.24875 21H18.7512C19.3709 21 19.9006 20.78 20.3404 20.34C20.7801 19.9 21 19.37 21 18.75V18.22C21 17.58 20.8401 16.99 20.5103 16.46C20.1805 15.93 19.7407 15.52 19.201 15.24C18.0416 14.66 16.8623 14.22 15.663 13.93C14.4636 13.64 13.2443 13.49 12.005 13.49C10.7657 13.49 9.54636 13.64 8.34703 13.93C7.1477 14.22 5.96835 14.66 4.80899 15.24C4.2593 15.52 3.82954 15.93 3.49972 16.46C3.16991 17 3 17.58 3 18.22V18.75C3 19.37 3.21988 19.9 3.65963 20.34Z" fill="black"/>
<path d="M21 5C21 6.39 20.06 7.55 18.79 7.89C18.69 7.92 18.58 7.94 18.48 7.96C18.32 7.99 18.16 8 18 8C17.59 8 17.2 7.92 16.84 7.76C15.97 7.4 15.3 6.64 15.08 5.7C15.03 5.47 15 5.24 15 5C15 4.51 15.12 4.05 15.33 3.65C15.42 3.46 15.53 3.29 15.66 3.13C16.2 2.44 17.05 2 18 2C19.66 2 21 3.34 21 5Z" fill="#DA252F"/>
</svg>
