<svg width="32" height="32" viewBox="0 0 32 32" fill="none" xmlns="http://www.w3.org/2000/svg">
<g clip-path="url(#clip0_5615_3430)">
<path fill-rule="evenodd" clip-rule="evenodd" d="M30.6251 2.96683C32 4.85949 32 7.5594 32 12.9592V19.0392C32 24.439 32 27.1389 30.6251 29.0316C30.18 29.6423 29.6423 30.18 29.0316 30.6251C27.1389 32 24.439 32 19.0392 32H12.9592C7.5594 32 4.8595 32 2.96683 30.6251C2.35625 30.1803 1.81909 29.6426 1.37487 29.0316C-1.99361e-06 27.1389 0 24.439 0 19.0392V12.9592C0 7.5594 -1.99361e-06 4.85949 1.37487 2.96683C1.81861 2.35585 2.35585 1.81861 2.96683 1.37487C4.8595 -1.99361e-06 7.5594 0 12.9592 0H19.0344C24.4342 0 27.1341 -1.99361e-06 29.0267 1.37487C29.6395 1.8187 30.1788 2.35588 30.6251 2.96683ZM16 5.00261C18.1757 5.00261 20.3026 5.64779 22.1116 6.85655C23.9206 8.06531 25.3306 9.78337 26.1632 11.7935C26.9958 13.8036 27.2137 16.0154 26.7892 18.1493C26.3648 20.2832 25.3171 22.2434 23.7786 23.7818C22.2401 25.3203 20.28 26.368 18.1461 26.7924C16.0122 27.2169 13.8003 26.9991 11.7902 26.1664C9.78015 25.3338 8.06209 23.9239 6.85333 22.1148C5.64457 20.3058 4.9994 18.1789 4.9994 16.0032C4.99919 14.5585 5.28358 13.128 5.83634 11.7932C6.38909 10.4585 7.19938 9.24569 8.22093 8.22414C9.24247 7.2026 10.4552 6.39231 11.79 5.83955C13.1247 5.28679 14.5553 5.0024 16 5.00261Z" fill="black"/>
</g>
<defs>
<clipPath id="clip0_5615_3430">
<rect width="32" height="32" fill="white"/>
</clipPath>
</defs>
</svg>
