<svg preserveAspectRatio="none" width="100%" height="100%" overflow="visible" style="display: block;" viewBox="0 0 9.33333 9.33333" fill="none" xmlns="http://www.w3.org/2000/svg">
<path id="Vector" d="M4.66667 9.33333C4.47778 9.33333 4.31956 9.26933 4.192 9.14133C4.064 9.01378 4 8.85556 4 8.66667V5.33333H0.666667C0.477778 5.33333 0.319333 5.26933 0.191333 5.14133C0.0637779 5.01378 0 4.85556 0 4.66667C0 4.47778 0.0637779 4.31933 0.191333 4.19133C0.319333 4.06378 0.477778 4 0.666667 4H4V0.666667C4 0.477778 4.064 0.319333 4.192 0.191333C4.31956 0.0637779 4.47778 0 4.66667 0C4.85556 0 5.014 0.0637779 5.142 0.191333C5.26956 0.319333 5.33333 0.477778 5.33333 0.666667V4H8.66667C8.85556 4 9.01378 4.06378 9.14133 4.19133C9.26933 4.31933 9.33333 4.47778 9.33333 4.66667C9.33333 4.85556 9.26933 5.01378 9.14133 5.14133C9.01378 5.26933 8.85556 5.33333 8.66667 5.33333H5.33333V8.66667C5.33333 8.85556 5.26956 9.01378 5.142 9.14133C5.014 9.26933 4.85556 9.33333 4.66667 9.33333Z" fill="var(--fill-0, #141414)"/>
</svg>
