<svg width="24" height="24" viewBox="0 0 24 24" fill="none" xmlns="http://www.w3.org/2000/svg">
<path d="M9.74695 2.93251C10.9917 1.68789 13.0101 1.68783 14.2548 2.93251L21.0673 9.74599C22.312 10.9907 22.312 13.0091 21.0673 14.2538L14.2548 21.0663C13.01 22.311 10.9917 22.311 9.74695 21.0663L2.93347 14.2538C1.6888 13.0091 1.68889 10.9907 2.93347 9.74599L9.74695 2.93251ZM12.6532 7.18154C12.4392 6.59644 11.6089 6.60162 11.4022 7.18935L10.5038 9.74697C10.3689 10.1302 10.0658 10.4306 9.68152 10.5624L7.24011 11.3993C6.6458 11.6031 6.6407 12.4421 7.2323 12.6532L9.69617 13.5311C10.0719 13.665 10.3679 13.9602 10.5018 14.3358L11.4032 16.8671C11.6113 17.4515 12.4368 17.4567 12.6522 16.8749L13.5975 14.3202C13.7333 13.9538 14.024 13.666 14.3915 13.5331L16.829 12.6522C17.4171 12.4397 17.4127 11.6059 16.8221 11.4003L14.4071 10.5604C14.0308 10.4295 13.7325 10.1368 13.5956 9.76259L12.6532 7.18154Z" fill="black"/>
</svg>
