<svg preserveAspectRatio="none" width="100%" height="100%" overflow="visible" style="display: block;" viewBox="0 0 11.175 6.575" fill="none" xmlns="http://www.w3.org/2000/svg">
<path id="Vector" d="M0.275 6.275C0.0916663 6.09167 0 5.85833 0 5.575C0 5.29167 0.0916663 5.05833 0.275 4.875L4.875 0.275001C4.975 0.175001 5.08333 0.104 5.2 0.0620003C5.31667 0.0206669 5.44167 0 5.575 0C5.70833 0 5.83333 0.0206669 5.95 0.0620003C6.06667 0.104 6.175 0.175001 6.275 0.275001L10.9 4.9C11.0833 5.08333 11.175 5.30833 11.175 5.575C11.175 5.84167 11.075 6.075 10.875 6.275C10.6917 6.45833 10.4583 6.55 10.175 6.55C9.89167 6.55 9.65833 6.45833 9.475 6.275L5.575 2.375L1.65 6.3C1.46667 6.48333 1.24167 6.575 0.975 6.575C0.708333 6.575 0.475 6.475 0.275 6.275Z" fill="var(--fill-0, #D6D6D6)"/>
</svg>
