<svg preserveAspectRatio="none" width="100%" height="100%" overflow="visible" style="display: block;" viewBox="0 0 25.678 14.5455" fill="none" xmlns="http://www.w3.org/2000/svg">
<path id="Vector" d="M24.6865 3.46173C24.1303 2.41126 23.2969 1.53323 22.2769 0.92297C21.2569 0.31271 20.0891 -0.00646392 18.9005 9.92137e-05H0.604641C0.5205 0.00167868 0.437572 0.0204781 0.360974 0.0553358C0.284375 0.0901934 0.21573 0.140371 0.159268 0.202776C0.102806 0.265181 0.0597258 0.338491 0.0326827 0.418184C0.00563964 0.497878 -0.00479398 0.582266 0.00202764 0.666146C0.0143807 0.835613 0.0847927 0.995638 0.201389 1.11924L4.19313 5.11098C4.36913 5.28298 4.57747 5.41839 4.80612 5.50938C5.03476 5.60037 5.27917 5.64514 5.52523 5.6411H18.4293C18.8703 5.6411 19.2933 5.8163 19.6051 6.12814C19.917 6.43998 20.0921 6.86294 20.0921 7.30395C20.0921 7.74497 19.917 8.16792 19.6051 8.47976C19.2933 8.79161 18.8703 8.9668 18.4293 8.9668H9.51697C9.43805 8.9662 9.35979 8.98123 9.2867 9.01102C9.21361 9.04081 9.14715 9.08477 9.09113 9.14037C9.03511 9.19596 8.99065 9.26209 8.96031 9.33495C8.92997 9.40781 8.91435 9.48596 8.91436 9.56488C8.92484 9.73571 8.99735 9.89683 9.11825 10.018L13.1055 14.0097C13.4613 14.3571 13.9403 14.5493 14.4376 14.5444H18.4293C23.6217 14.635 27.6135 9.04836 24.6865 3.46173Z" fill="var(--fill-0, white)"/>
</svg>
