<svg preserveAspectRatio="none" width="100%" height="100%" overflow="visible" style="display: block;" viewBox="0 0 11.9833 9.33333" fill="none" xmlns="http://www.w3.org/2000/svg">
<path id="Vector" d="M0 8V1.33333C0 0.966667 0.130444 0.652889 0.391333 0.392C0.652667 0.130667 0.966667 0 1.33333 0H10.65C11.0167 0 11.3307 0.130667 11.592 0.392C11.8529 0.652889 11.9833 0.966667 11.9833 1.33333V8C11.9833 8.36667 11.8529 8.68067 11.592 8.942C11.3307 9.20289 11.0167 9.33333 10.65 9.33333H1.33333C0.966667 9.33333 0.652667 9.20289 0.391333 8.942C0.130444 8.68067 0 8.36667 0 8ZM1.33333 8H3.55V1.33333H1.33333V8ZM4.88333 8H7.1V1.33333H4.88333V8ZM8.43333 8H10.65V1.33333H8.43333V8Z" fill="var(--fill-0, #141414)"/>
</svg>
