<svg preserveAspectRatio="none" width="100%" height="100%" overflow="visible" style="display: block;" viewBox="0 0 59.1112 34.017" fill="none" xmlns="http://www.w3.org/2000/svg">
<g id="Group">
<path id="Vector" d="M0.341669 0.341976L6.20835 33.6753H52.855L46.9883 0.341976H0.341669Z" fill="var(--fill-0, black)" stroke="var(--stroke-0, black)" stroke-width="0.683333" stroke-linecap="round" stroke-linejoin="round"/>
<g id="Group_2">
<path id="Vector_2" d="M12.1229 0.341667L6.2362 33.675H52.8762L58.7695 0.341667H12.1229Z" fill="var(--fill-0, white)" stroke="var(--stroke-0, black)" stroke-width="0.683333" stroke-linecap="round" stroke-linejoin="round"/>
<path id="Vector_3" d="M6.22253 33.6751H52.8692L55.6225 18.1284H8.97587L6.22253 33.6751Z" fill="var(--fill-0, #FFBF62)" stroke="var(--stroke-0, black)" stroke-width="0.683333" stroke-linecap="round" stroke-linejoin="round"/>
<path id="Vector_4" d="M33.6828 29.7881L34.5895 24.6481L38.2495 29.7881H39.7761L41.1228 22.1747H39.5961L38.6895 27.3147L35.0295 22.1747H33.5028L32.1561 29.7881H33.6828Z" fill="var(--fill-0, black)" stroke="var(--stroke-0, black)" stroke-width="0.341667" stroke-linecap="round" stroke-linejoin="round"/>
<path id="Vector_5" d="M23.3367 23.6947L23.0634 25.2147L22.7967 26.7414L22.53 28.2614L22.2567 29.7881H23.7834H29.8767L30.1434 28.2614H24.05L24.3234 26.7414H30.41L30.6834 25.2147H24.59L24.8567 23.6947H30.95L31.2234 22.1747H25.13H23.6034L23.3367 23.6947Z" fill="var(--fill-0, black)" stroke="var(--stroke-0, black)" stroke-width="0.341667" stroke-linecap="round" stroke-linejoin="round"/>
<path id="Vector_6" d="M45.8624 29.7881C47.9624 29.7881 49.969 28.0814 50.3424 25.9814L51.0157 22.1747H49.4957L48.8224 25.9814C48.5957 27.2414 47.3957 28.2681 46.1357 28.2681C44.8757 28.2681 44.029 27.2481 44.2557 25.9814L44.929 22.1747H43.409L42.7357 25.9814C42.3624 28.0814 43.769 29.7881 45.869 29.7881H45.8624Z" fill="var(--fill-0, black)" stroke="var(--stroke-0, black)" stroke-width="0.341667" stroke-linecap="round" stroke-linejoin="round"/>
<path id="Vector_7" d="M12.1825 22.1747L10.8358 29.7881H12.3558L13.1625 25.2147L14.6425 29.7881H16.1625L19.2558 25.2147L18.4491 29.7881H19.9691L21.3225 22.1747H19.7958L15.6691 28.2614L13.7025 22.1747H12.1825Z" fill="var(--fill-0, black)" stroke="var(--stroke-0, black)" stroke-width="0.341667" stroke-linecap="round" stroke-linejoin="round"/>
</g>
</g>
</svg>
