<svg preserveAspectRatio="none" width="100%" height="100%" overflow="visible" style="display: block;" viewBox="0 0 20 21" fill="none" xmlns="http://www.w3.org/2000/svg">
<g id="Vector">
<path d="M18.3333 15.3253C19.2556 15.3253 20 14.5649 20 13.6228C20 12.6808 19.2556 11.9204 18.3333 11.9204C17.7222 11.9204 17.2222 11.4097 17.2222 10.7855V7.38059C17.2222 3.22665 13.7333 -0.121464 9.77778 0.00338157C5.82222 0.128227 2.77778 3.64659 2.77778 7.68703V10.7855C2.77778 11.4097 2.27778 11.9204 1.66667 11.9204C0.744444 11.9204 0 12.6808 0 13.6228C0 14.5649 0.744444 15.3253 1.66667 15.3253H18.3333Z" fill="var(--fill-0, black)"/>
<path d="M10 21C8.15556 21 6.66667 19.4792 6.66667 17.5951H13.3333C13.3333 19.4792 11.8444 21 10 21Z" fill="var(--fill-0, black)"/>
</g>
</svg>
