<svg preserveAspectRatio="none" width="100%" height="100%" overflow="visible" style="display: block;" viewBox="0 0 81 81" fill="none" xmlns="http://www.w3.org/2000/svg">
<g id="Group">
<g id="Group_2">
<path id="Vector" d="M40.5 80.5C62.5914 80.5 80.5 62.5914 80.5 40.5C80.5 18.4086 62.5914 0.5 40.5 0.5C18.4086 0.5 0.5 18.4086 0.5 40.5C0.5 62.5914 18.4086 80.5 40.5 80.5Z" fill="var(--fill-0, #E6E6E6)" stroke="var(--stroke-0, black)" stroke-linecap="round" stroke-linejoin="round"/>
<g id="Group_3">
<path id="Vector_2" d="M67.1673 57.1663H13.834V63.833H67.1673V57.1663Z" fill="var(--fill-0, black)" stroke="var(--stroke-0, black)" stroke-linecap="round" stroke-linejoin="round"/>
<path id="Vector_3" d="M67.1676 17.1663V57.1663L40.501 63.833V23.833L67.1676 17.1663Z" fill="var(--fill-0, white)" stroke="var(--stroke-0, black)" stroke-linecap="round" stroke-linejoin="round"/>
</g>
<g id="Group_4">
<path id="Vector_4" d="M13.834 17.1663V57.1663L27.1673 60.4997V20.4997L13.834 17.1663Z" fill="var(--fill-0, #FFBF62)" stroke="var(--stroke-0, black)" stroke-linecap="round" stroke-linejoin="round"/>
<path id="Vector_5" d="M40.5003 23.833L27.167 20.4997V60.4997L40.5003 63.833V23.833Z" fill="var(--fill-0, white)" stroke="var(--stroke-0, black)" stroke-linecap="round" stroke-linejoin="round"/>
</g>
<g id="Group_5">
<path id="Vector_6" d="M17.166 40.9533L21.5727 42.06L17.166 44.8733V46.18L23.6927 47.8133V46.5067L19.286 45.4067L23.6927 42.5867V41.28L17.166 39.6533V40.9533Z" fill="var(--fill-0, black)" stroke="var(--stroke-0, black)" stroke-width="0.5" stroke-linecap="round" stroke-linejoin="round"/>
<path id="Vector_7" d="M22.386 32.4672L21.086 32.1405L19.7794 31.8138L18.4727 31.4871L17.166 31.1605V32.4672V37.6938L18.4727 38.0205V32.7938L19.7794 33.1205V38.3472L21.086 38.6738V33.4471L22.386 33.7738V39.0005L23.6927 39.3272V34.1005V32.7938L22.386 32.4672Z" fill="var(--fill-0, black)" stroke="var(--stroke-0, black)" stroke-width="0.5" stroke-linecap="round" stroke-linejoin="round"/>
<path id="Vector_8" d="M17.166 51.4071C17.166 53.2138 18.626 55.0405 20.4327 55.4871L23.6993 56.3004V54.9938L20.4327 54.1804C19.3527 53.9071 18.4727 52.8138 18.4727 51.7338C18.4727 50.6538 19.3527 49.9938 20.4327 50.2671L23.6993 51.0805V49.7738L20.4327 48.9605C18.626 48.5071 17.166 49.6071 17.166 51.4071V51.4071Z" fill="var(--fill-0, black)" stroke="var(--stroke-0, black)" stroke-width="0.5" stroke-linecap="round" stroke-linejoin="round"/>
<path id="Vector_9" d="M23.6927 23.0002L17.166 21.3669V22.6735L21.086 23.6469L17.166 24.6269V25.9335L21.086 28.8735L17.166 27.8935V29.2002L23.6927 30.8335V29.5269L18.4727 25.6069L23.6927 24.3002V23.0002Z" fill="var(--fill-0, black)" stroke="var(--stroke-0, black)" stroke-width="0.5" stroke-linecap="round" stroke-linejoin="round"/>
</g>
</g>
<path id="Vector_10" d="M67.167 43.8333V37.1667L47.167 50.5H67.167V57.1667H76.8603C78.7537 53.0467 79.9603 48.56 80.3537 43.8333H67.167Z" fill="var(--fill-0, black)" stroke="var(--stroke-0, black)" stroke-linecap="round" stroke-linejoin="round"/>
<g id="Group_6">
<path id="Vector_11" d="M58.6128 39.0539C61.6261 37.6072 64.7794 40.7606 63.3261 43.7672L78.6461 28.4472C77.2194 23.9206 74.9994 19.7472 72.1661 16.0739L53.8994 34.3406C56.9061 32.8939 60.0594 36.0472 58.6128 39.0539Z" fill="var(--fill-0, #F6F6F6)" stroke="var(--stroke-0, black)" stroke-linecap="round" stroke-linejoin="round"/>
<path id="Vector_12" d="M58.6127 39.0542C60.0594 36.0408 56.906 32.8875 53.8994 34.3408L47.166 50.5008L63.326 43.7675C64.7727 40.7542 61.6194 37.6008 58.6127 39.0542V39.0542Z" fill="var(--fill-0, #E6E6E6)" stroke="var(--stroke-0, black)" stroke-linecap="round" stroke-linejoin="round"/>
<path id="Vector_13" d="M51.9194 48.5204L49.146 45.7471L47.166 50.5004L51.9194 48.5204Z" fill="var(--fill-0, black)" stroke="var(--stroke-0, black)" stroke-linecap="round" stroke-linejoin="round"/>
<path id="Vector_14" d="M58.6123 39.0536L75.859 21.807" stroke="var(--stroke-0, black)" stroke-linecap="round" stroke-linejoin="round"/>
</g>
<path id="Vector_15" d="M67.167 50.5V43.8333" stroke="var(--stroke-0, white)" stroke-linecap="round" stroke-linejoin="round"/>
</g>
</svg>
