<svg width="24" height="24" viewBox="0 0 24 24" fill="none" xmlns="http://www.w3.org/2000/svg">
<path d="M22 12C22 17.5228 17.5228 22 12 22C6.47715 22 2 17.5228 2 12C2 6.47715 6.47715 2 12 2C17.5228 2 22 6.47715 22 12ZM4.8 12C4.8 15.9764 8.02355 19.2 12 19.2C15.9764 19.2 19.2 15.9764 19.2 12C19.2 8.02355 15.9764 4.8 12 4.8C8.02355 4.8 4.8 8.02355 4.8 12Z" fill="black" fill-opacity="0.08"/>
<path d="M12 3.4C12 2.6268 12.6298 1.98993 13.3955 2.09782C15.3393 2.37175 17.1709 3.21381 18.652 4.53332C20.1331 5.85284 21.1802 7.57536 21.6759 9.47478C21.8712 10.2229 21.311 10.9218 20.5429 11.0108C19.7749 11.0997 19.0931 10.5418 18.8574 9.80541C18.4675 8.58711 17.7571 7.48609 16.7894 6.62399C15.8217 5.7619 14.6463 5.18286 13.3912 4.93567C12.6326 4.78626 12 4.1732 12 3.4Z" fill="#1258D2"/>
</svg>
