<svg preserveAspectRatio="none" width="100%" height="100%" overflow="visible" style="display: block;" viewBox="0 0 14.6794 4.99891" fill="none" xmlns="http://www.w3.org/2000/svg">
<path id="Logo" d="M6.89325 3.09484C6.89325 2.47587 6.39982 1.98954 5.77717 1.98954C5.16333 1.98954 4.66109 2.47587 4.66109 3.09484C4.66109 3.71381 5.16333 4.20014 5.77717 4.20014C6.39982 4.20014 6.89325 3.71381 6.89325 3.09484ZM7.80373 1.2851V4.90754H6.87563V4.58037C6.55255 4.84859 6.1443 4.99891 5.70081 4.99891C4.60235 4.99891 3.74473 4.15298 3.74473 3.09484C3.74473 2.03965 4.60529 1.19078 5.70081 1.19078C6.1443 1.19078 6.55255 1.3411 6.87563 1.60932V1.2851H7.80373ZM10.8876 4.08519H10.1886C9.97715 4.08519 9.83911 3.99382 9.83911 3.79929V2.10449H10.8847V1.2851H9.83911V0.253483H8.90219V1.2851H8.1973V2.10744H8.90219V4.03214C8.90219 4.51847 9.2517 4.90459 9.88022 4.90459H10.8847V4.08519H10.8876ZM13.0023 4.99891C14.0743 4.99891 14.6794 4.49489 14.6794 3.79929C14.6794 3.30411 14.321 2.93568 13.5721 2.77652L12.7791 2.61735C12.3209 2.53482 12.1741 2.44935 12.1741 2.28134C12.1741 2.06323 12.3943 1.93059 12.8026 1.93059C13.2461 1.93059 13.5692 2.04849 13.6631 2.44935H14.5912C14.5413 1.69479 13.9862 1.19078 12.8643 1.19078C11.895 1.19078 11.2136 1.58574 11.2136 2.34913C11.2136 2.87673 11.5896 3.22158 12.3973 3.38959L13.2813 3.59002C13.6308 3.65781 13.7248 3.74918 13.7248 3.89066C13.7248 4.11761 13.4605 4.25909 13.0346 4.25909C12.5001 4.25909 12.1917 4.14119 12.0742 3.74034H11.1373C11.2753 4.49489 11.8451 4.99891 13.0023 4.99891ZM0 0H3.49802V0.837082H0.945729V2.0367H3.43047V2.8502H0.945729V4.06456H3.49802V4.90164H0V0Z" fill="var(--fill-0, #010101)"/>
</svg>
