<svg preserveAspectRatio="none" width="100%" height="100%" overflow="visible" style="display: block;" viewBox="0 0 14.6794 5.09935" fill="none" xmlns="http://www.w3.org/2000/svg">
<path id="Logo" d="M14.6794 2.00536V1.33289H14.4281C14.0289 1.33289 13.7333 1.51985 13.5559 1.81236V1.36003H12.8404V5.01189H13.5618V2.93718C13.5618 2.37025 13.9047 2.00536 14.3778 2.00536H14.6794ZM9.48763 2.84972C9.61772 2.29184 10.0671 1.91791 10.6023 1.91791C11.1374 1.91791 11.5897 2.28883 11.711 2.84972H9.48763ZM10.617 1.29067C9.55267 1.29067 8.74257 2.15614 8.74257 3.18747C8.74257 4.27609 9.58519 5.09332 10.6821 5.09332C11.3473 5.09332 11.8913 4.8008 12.255 4.31228L11.7317 3.92629C11.4597 4.29117 11.1019 4.46306 10.6791 4.46306C10.0642 4.46306 9.57041 4.01977 9.46989 3.4257H12.4383V3.19048C12.4412 2.09884 11.6696 1.29067 10.617 1.29067ZM6.48967 4.46306C5.78896 4.46306 5.23017 3.89613 5.23017 3.19652C5.23017 2.48785 5.79487 1.92997 6.48967 1.92997C7.17559 1.92997 7.74029 2.48785 7.74029 3.19652C7.74325 3.89613 7.17855 4.46306 6.48967 4.46306ZM4.52355 5.01491H5.23904V4.55654C5.56722 4.89429 6.03435 5.09935 6.53993 5.09935C7.61316 5.09935 8.45578 4.24594 8.45578 3.1935C8.45578 2.13503 7.61316 1.28162 6.53993 1.28162C6.0314 1.28162 5.57313 1.4897 5.24495 1.82443V0H4.52355V5.01491ZM1.98386 4.42687C2.67865 4.42687 3.21379 3.8901 3.21379 3.09399V0H3.96476V5.01189H3.2197V4.5475C2.88265 4.8973 2.41847 5.09935 1.89516 5.09935C0.821926 5.09935 0 4.31831 0 3.1362V0H0.753925V3.09399C0.753925 3.90518 1.28315 4.42687 1.98386 4.42687Z" fill="var(--fill-0, #010101)"/>
</svg>
