<svg preserveAspectRatio="none" width="100%" height="100%" overflow="visible" style="display: block;" viewBox="0 0 20 20" fill="none" xmlns="http://www.w3.org/2000/svg">
<g id="Icon">
<g id="Vector">
<path d="M15.0004 4.0625C15.0004 3.19956 15.7 2.5 16.5629 2.5C17.4258 2.5 18.1254 3.19956 18.1254 4.0625L18.1254 15.9375C18.1254 16.8004 17.4259 17.5 16.5629 17.5C15.7 17.5 15.0004 16.8004 15.0004 15.9375L15.0004 4.0625Z" fill="var(--fill-0, white)"/>
<path fill-rule="evenodd" clip-rule="evenodd" d="M2.16085 4.18994C1.8754 4.87908 1.8754 5.75272 1.8754 7.5L1.8754 12.5C1.8754 14.2473 1.8754 15.1209 2.16086 15.8101C2.54146 16.7289 3.27149 17.4589 4.19034 17.8395C4.87948 18.125 5.75312 18.125 7.5004 18.125C9.24769 18.125 10.1213 18.125 10.8105 17.8395C11.7293 17.4589 12.4594 16.7289 12.84 15.8101C13.1254 15.1209 13.1254 14.2473 13.1254 12.5L13.1254 7.5C13.1254 5.75272 13.1254 4.87908 12.84 4.18994C12.4593 3.27108 11.7293 2.54105 10.8105 2.16045C10.1213 1.875 9.24768 1.875 7.5004 1.875C5.75312 1.875 4.87948 1.875 4.19034 2.16045C3.27148 2.54105 2.54146 3.27108 2.16085 4.18994ZM7.50029 5C6.11964 5 5.0004 6.11935 5.0004 7.5C5.0004 8.88065 6.11964 10 7.5003 10C8.88095 10 10.0002 8.88065 10.0002 7.5C10.0002 6.11935 8.88095 5 7.50029 5Z" fill="var(--fill-0, white)"/>
</g>
</g>
</svg>
