<svg preserveAspectRatio="none" width="100%" height="100%" overflow="visible" style="display: block;" viewBox="0 0 19.6446 19.6446" fill="none" xmlns="http://www.w3.org/2000/svg">
<path id="Otter Mark" fill-rule="evenodd" clip-rule="evenodd" d="M18.8006 1.82132C19.6446 2.98321 19.6446 4.64066 19.6446 7.95556V11.688C19.6446 15.0029 19.6446 16.6604 18.8006 17.8223C18.5273 18.1972 18.1972 18.5273 17.8223 18.8006C16.6604 19.6446 15.0029 19.6446 11.688 19.6446H7.95556C4.64066 19.6446 2.98321 19.6446 1.82132 18.8006C1.44649 18.5275 1.11673 18.1974 0.844025 17.8223C-1.18397e-06 16.6604 0 15.0029 0 11.688V7.95556C0 4.64066 -1.18397e-06 2.98321 0.844025 1.82132C1.11643 1.44624 1.44624 1.11643 1.82132 0.844025C2.98321 -1.18397e-06 4.64066 0 7.95556 0H11.6851C15 0 16.6574 -1.18397e-06 17.8193 0.844025C18.1955 1.11649 18.5266 1.44626 18.8006 1.82132ZM9.82229 3.07107C11.1579 3.07107 12.4636 3.46714 13.5742 4.20919C14.6847 4.95124 15.5503 6.00594 16.0614 7.23993C16.5726 8.47391 16.7063 9.83176 16.4457 11.1418C16.1852 12.4517 15.542 13.655 14.5975 14.5995C13.6531 15.5439 12.4498 16.1871 11.1398 16.4477C9.82978 16.7083 8.47194 16.5745 7.23796 16.0634C6.00397 15.5523 4.94927 14.6867 4.20721 13.5761C3.46516 12.4656 3.0691 11.1599 3.0691 9.82427C3.06897 8.93739 3.24355 8.05917 3.58289 7.23978C3.92222 6.42038 4.41965 5.67586 5.04677 5.04875C5.67389 4.42163 6.41841 3.92419 7.2378 3.58486C8.0572 3.24553 8.93541 3.07094 9.82229 3.07107Z" fill="var(--fill-0, black)"/>
</svg>
