<svg preserveAspectRatio="none" width="100%" height="100%" overflow="visible" style="display: block;" viewBox="0 0 12.9939 13.3333" fill="none" xmlns="http://www.w3.org/2000/svg">
<path id="Vector" d="M7.74697 13.3333H5.24697C5.0803 13.3333 4.93586 13.2778 4.81364 13.1667C4.69141 13.0556 4.61919 12.9167 4.59697 12.75L4.39697 11.2C4.25253 11.1444 4.11652 11.0778 3.98897 11C3.86097 10.9222 3.73586 10.8389 3.61364 10.75L2.16364 11.35C2.00808 11.4056 1.85253 11.4111 1.69697 11.3667C1.54141 11.3222 1.41919 11.2278 1.3303 11.0833L0.0969697 8.93333C0.0080808 8.78889 -0.019697 8.63333 0.0136364 8.46667C0.0469697 8.3 0.130303 8.16667 0.263636 8.06667L1.51364 7.11667C1.50253 7.03889 1.49697 6.96378 1.49697 6.89133V6.44133C1.49697 6.36933 1.50253 6.29444 1.51364 6.21667L0.263636 5.26667C0.130303 5.16667 0.0469697 5.03333 0.0136364 4.86667C-0.019697 4.7 0.0080808 4.54444 0.0969697 4.4L1.3303 2.25C1.40808 2.09444 1.52741 1.99711 1.6883 1.958C1.84964 1.91933 2.00808 1.92778 2.16364 1.98333L3.61364 2.58333C3.73586 2.49444 3.86364 2.41111 3.99697 2.33333C4.1303 2.25556 4.26364 2.18889 4.39697 2.13333L4.59697 0.583333C4.61919 0.416667 4.69141 0.277778 4.81364 0.166667C4.93586 0.0555555 5.0803 0 5.24697 0H7.74697C7.91364 0 8.05808 0.0555555 8.1803 0.166667C8.30252 0.277778 8.37475 0.416667 8.39697 0.583333L8.59697 2.13333C8.74141 2.18889 8.87764 2.25556 9.00564 2.33333C9.13319 2.41111 9.25808 2.49444 9.3803 2.58333L10.8303 1.98333C10.9859 1.92778 11.1414 1.92222 11.297 1.96667C11.4525 2.01111 11.5747 2.10556 11.6636 2.25L12.897 4.4C12.9859 4.54444 13.0136 4.7 12.9803 4.86667C12.947 5.03333 12.8636 5.16667 12.7303 5.26667L11.4803 6.21667C11.4914 6.29444 11.497 6.36933 11.497 6.44133V6.89133C11.497 6.96378 11.4859 7.03889 11.4636 7.11667L12.7136 8.06667C12.847 8.16667 12.9303 8.3 12.9636 8.46667C12.997 8.63333 12.9692 8.78889 12.8803 8.93333L11.647 11.0667C11.5581 11.2111 11.4332 11.3084 11.2723 11.3587C11.111 11.4084 10.9525 11.4056 10.797 11.35L9.3803 10.75C9.25808 10.8389 9.1303 10.9222 8.99697 11C8.86364 11.0778 8.7303 11.1444 8.59697 11.2L8.39697 12.75C8.37475 12.9167 8.30252 13.0556 8.1803 13.1667C8.05808 13.2778 7.91364 13.3333 7.74697 13.3333ZM6.5303 9C7.17475 9 7.72475 8.77222 8.1803 8.31667C8.63586 7.86111 8.86364 7.31111 8.86364 6.66667C8.86364 6.02222 8.63586 5.47222 8.1803 5.01667C7.72475 4.56111 7.17475 4.33333 6.5303 4.33333C5.87475 4.33333 5.32186 4.56111 4.87164 5.01667C4.42186 5.47222 4.19697 6.02222 4.19697 6.66667C4.19697 7.31111 4.42186 7.86111 4.87164 8.31667C5.32186 8.77222 5.87475 9 6.5303 9ZM6.5303 7.66667C6.25253 7.66667 6.01653 7.56933 5.8223 7.37467C5.62764 7.18044 5.5303 6.94444 5.5303 6.66667C5.5303 6.38889 5.62764 6.15289 5.8223 5.95867C6.01653 5.764 6.25253 5.66667 6.5303 5.66667C6.80808 5.66667 7.0443 5.764 7.23897 5.95867C7.43319 6.15289 7.5303 6.38889 7.5303 6.66667C7.5303 6.94444 7.43319 7.18044 7.23897 7.37467C7.0443 7.56933 6.80808 7.66667 6.5303 7.66667ZM5.8303 12H7.14697L7.3803 10.2333C7.72475 10.1444 8.0443 10.0138 8.33897 9.84133C8.63319 9.66933 8.90253 9.46111 9.14697 9.21667L10.797 9.9L11.447 8.76667L10.0136 7.68333C10.0692 7.52778 10.1081 7.36378 10.1303 7.19133C10.1525 7.01933 10.1636 6.84444 10.1636 6.66667C10.1636 6.48889 10.1525 6.31378 10.1303 6.14133C10.1081 5.96933 10.0692 5.80556 10.0136 5.65L11.447 4.56667L10.797 3.43333L9.14697 4.13333C8.90253 3.87778 8.63319 3.66378 8.33897 3.49133C8.0443 3.31933 7.72475 3.18889 7.3803 3.1L7.16364 1.33333H5.84697L5.61364 3.1C5.26919 3.18889 4.94986 3.31933 4.65564 3.49133C4.36097 3.66378 4.09141 3.87222 3.84697 4.11667L2.19697 3.43333L1.54697 4.56667L2.9803 5.63333C2.92475 5.8 2.88586 5.96667 2.86364 6.13333C2.84141 6.3 2.8303 6.47778 2.8303 6.66667C2.8303 6.84444 2.84141 7.01667 2.86364 7.18333C2.88586 7.35 2.92475 7.51667 2.9803 7.68333L1.54697 8.76667L2.19697 9.9L3.84697 9.2C4.09141 9.45556 4.36097 9.66933 4.65564 9.84133C4.94986 10.0138 5.26919 10.1444 5.61364 10.2333L5.8303 12Z" fill="var(--fill-0, #141414)"/>
</svg>
