<svg preserveAspectRatio="none" width="100%" height="100%" overflow="visible" style="display: block;" viewBox="0 0 242.047 32.0903" fill="none" xmlns="http://www.w3.org/2000/svg">
<g id="Layer 1">
<path id="Vector" d="M19.3369 9.31962H20.074C21.1077 9.51235 22.0397 10.0649 22.7047 10.8794C23.3698 11.6938 23.7249 12.7175 23.7071 13.7688C23.7071 18.8499 15.5721 23.8914 15.5721 23.8914C15.5721 23.8914 7.45038 18.6261 7.45038 13.7688C7.44412 12.7167 7.81094 11.6963 8.48571 10.889C9.16049 10.0817 10.0995 9.53965 11.1361 9.35911H11.8733C12.5735 9.26583 13.2859 9.35774 13.9396 9.62565C14.5932 9.89357 15.1652 10.3282 15.5985 10.8861C16.0356 10.3291 16.6101 9.89545 17.2655 9.62774C17.921 9.36002 18.6348 9.26745 19.3369 9.35911" fill="var(--fill-0, white)"/>
<path id="Vector_2" d="M41.8067 23.8783H45.6504V24.6154C46.0189 26.7874 48.0066 28.13 50.9157 28.13C53.8248 28.13 55.2991 27.0638 55.2991 25.4052C55.2991 21.3377 47.638 23.9178 43.4521 19.7713C42.3653 18.6582 41.752 17.1673 41.7409 15.6117C41.8067 11.847 45.0449 9.21434 49.4809 9.21434C51.312 9.19297 53.1202 9.62243 54.7462 10.4649V9.55658H58.5372V16.7701H54.7857V15.4537C54.2491 14.6031 53.4954 13.9107 52.6024 13.448C51.7093 12.9853 50.7091 12.7689 49.7047 12.8211C47.4011 12.8211 45.8741 13.8873 45.8741 15.4537C45.8741 19.1 54.2723 16.9807 57.8791 20.5743C59.0662 21.7828 59.7325 23.4084 59.7351 25.1025C59.7351 29.0514 56.3653 31.7499 51.3764 31.7499C49.3509 31.8389 47.3485 31.2911 45.6504 30.1835V31.3814H41.8067V23.8783Z" fill="var(--fill-0, white)"/>
<path id="Vector_3" d="M65.0399 3.79103H61.0909V0H69.3838V12.0576C72.0955 9.84615 74.2674 8.91156 76.6236 8.91156C80.0461 8.91156 82.6261 10.6228 82.6261 15.4932V27.6429H86.3776V31.4208H78.2954V16.441C78.2954 14.3217 77.6504 12.7421 75.6627 12.7421C74.0963 12.7421 71.8848 13.7688 69.4365 15.6117V27.6429H73.1748V31.4208H61.0646V27.6429H65.0136L65.0399 3.79103Z" fill="var(--fill-0, white)"/>
<path id="Vector_4" d="M101.608 23.2332C100.024 21.9024 98.041 21.138 95.9736 21.0613C95.4517 21.0181 94.9264 21.082 94.4301 21.2491C93.9338 21.4162 93.4768 21.683 93.0873 22.0331C92.6978 22.3832 92.3839 22.8092 92.165 23.2849C91.946 23.7606 91.8266 24.2761 91.814 24.7997C91.8117 25.3036 91.9151 25.8023 92.1173 26.2638C92.3196 26.7253 92.6163 27.1393 92.9884 27.4791C93.3604 27.8189 93.7996 28.077 94.2775 28.2367C94.7554 28.3964 95.2614 28.4542 95.763 28.4064C97.9716 28.2739 100.055 27.3374 101.621 25.7738L101.608 23.2332ZM109.69 31.355H102.121V28.7223C99.3961 30.9338 97.5006 31.7631 95.1048 31.7631C94.1622 31.8036 93.2209 31.6557 92.3361 31.328C91.4513 31.0003 90.6408 30.4994 89.9519 29.8547C89.263 29.2099 88.7097 28.4343 88.3242 27.5731C87.9388 26.7119 87.729 25.7824 87.7071 24.8392C87.7071 20.8902 91.169 17.7705 95.6051 17.7705C97.7225 17.8231 99.7831 18.4659 101.555 19.6265V16.7174C101.555 13.624 99.2908 12.5183 96.7108 12.5183C95.7636 12.4761 94.8235 12.7004 93.9975 13.1658C93.1714 13.6312 92.4925 14.319 92.0378 15.151L87.9308 14.0321C89.8395 10.6228 92.9724 8.91157 97.4216 8.91157C103.793 8.91157 105.965 12.0971 105.965 15.6117V27.643H109.703L109.69 31.355Z" fill="var(--fill-0, white)"/>
<path id="Vector_5" d="M116.522 13.3476H112.138V9.55656H119.944V14.4796H120.036C120.482 12.9905 121.386 11.68 122.62 10.7346C123.853 9.78917 125.354 9.25716 126.908 9.21432H129.724V13.5582H127.421C122.393 13.5582 120.839 16.3752 120.839 21.364V27.6429H125.552V31.4208H112.23V27.6429H116.522V13.3476Z" fill="var(--fill-0, white)"/>
<path id="Vector_6" d="M147.508 18.4286C147.18 16.7603 146.291 15.2547 144.988 14.1625C143.685 13.0703 142.047 12.4575 140.347 12.4262C138.706 12.4491 137.13 13.0726 135.917 14.1786C134.705 15.2846 133.939 16.7965 133.766 18.4286H147.508ZM133.568 21.5747C134.213 25.8264 136.977 28.2748 141.045 28.2748C142.424 28.2981 143.788 27.9856 145.02 27.3641C146.251 26.7426 147.313 25.8309 148.114 24.7075L151.891 26.3266C150.709 28.1326 149.082 29.6035 147.166 30.5973C145.25 31.591 143.11 32.0741 140.953 32C133.884 32 128.803 27.1954 128.803 20.4558C128.793 18.9446 129.081 17.4463 129.652 16.047C130.222 14.6477 131.064 13.3751 132.128 12.3022C133.193 11.2294 134.459 10.3775 135.853 9.79559C137.248 9.2137 138.744 8.91327 140.255 8.91157C146.31 8.91157 151.891 13.5319 151.891 21.522L133.568 21.5747Z" fill="var(--fill-0, white)"/>
<path id="Vector_7" d="M174.098 17.7836H170.228C170.058 16.3788 169.385 15.0833 168.332 14.1374C167.22 13.2321 165.816 12.764 164.383 12.8211C160.606 12.8342 157.973 15.796 157.973 20.232C157.973 24.8918 160.698 28.13 164.555 28.13C165.954 28.1513 167.328 27.7543 168.501 26.9898C169.674 26.2253 170.591 25.1281 171.136 23.8387L174.69 25.4973C173.874 27.5219 172.449 29.2427 170.612 30.4218C168.775 31.6009 166.617 32.18 164.436 32.079C156.867 32.079 153.313 25.8922 153.313 20.3505C153.267 18.9013 153.508 17.4573 154.022 16.1014C154.535 14.7455 155.312 13.5043 156.306 12.4489C157.3 11.3936 158.493 10.5448 159.816 9.95138C161.139 9.35791 162.566 9.03139 164.015 8.99053C166.253 8.94091 168.435 9.69776 170.162 11.123V9.55655H174.032L174.098 17.7836Z" fill="var(--fill-0, white)"/>
<path id="Vector_8" d="M190.881 23.2332C189.278 21.8913 187.271 21.1265 185.181 21.0613C184.66 21.018 184.135 21.082 183.64 21.2492C183.144 21.4165 182.688 21.6835 182.3 22.0337C181.911 22.384 181.599 22.8101 181.381 23.2858C181.163 23.7615 181.046 24.2767 181.035 24.7997C181.033 25.3035 181.136 25.8023 181.338 26.2638C181.541 26.7253 181.837 27.1393 182.209 27.4791C182.581 27.8189 183.02 28.077 183.498 28.2367C183.976 28.3964 184.482 28.4542 184.984 28.4064C187.196 28.271 189.283 27.3352 190.855 25.7737L190.881 23.2332ZM198.95 31.355H191.381V28.7223C188.656 30.9338 186.761 31.763 184.365 31.763C183.423 31.8036 182.483 31.6556 181.599 31.3277C180.715 30.9999 179.905 30.4988 179.217 29.8539C178.529 29.209 177.977 28.4332 177.593 27.5721C177.209 26.711 177.001 25.7818 176.981 24.8391C176.981 20.8902 180.443 17.7705 184.879 17.7705C187.009 17.8057 189.088 18.4348 190.881 19.587V16.7174C190.881 13.624 188.604 12.5183 186.024 12.5183C185.078 12.4739 184.139 12.6974 183.315 13.1632C182.49 13.6289 181.814 14.3179 181.364 15.151L177.257 14.0321C179.1 10.6623 182.233 8.95104 186.669 8.95104C193.04 8.95104 195.225 12.1366 195.225 15.6512V27.6429H198.95V31.355Z" fill="var(--fill-0, white)"/>
<path id="Vector_9" d="M205.743 13.3476H201.412V9.55656H209.218V14.4796H209.31C209.756 12.9884 210.662 11.6764 211.898 10.7308C213.135 9.78518 214.638 9.25443 216.194 9.21432H219.011V13.5582H216.708C211.666 13.5582 210.126 16.3752 210.126 21.364V27.6429H214.838V31.4208H201.412V27.6429H205.716L205.743 13.3476Z" fill="var(--fill-0, white)"/>
<path id="Vector_10" d="M237.65 18.4286C237.325 16.7592 236.436 15.2522 235.133 14.1596C233.829 13.067 232.19 12.4551 230.489 12.4262C228.828 12.4201 227.223 13.0305 225.985 14.1392C224.748 15.248 223.965 16.7763 223.789 18.4286H237.65ZM223.71 21.5747C224.355 25.8264 227.12 28.2616 231.187 28.2616C232.571 28.283 233.939 27.9669 235.173 27.3408C236.406 26.7147 237.469 25.7973 238.269 24.668L242.047 26.3266C240.861 28.1319 239.231 29.6018 237.313 30.5954C235.395 31.5889 233.254 32.0726 231.095 32C224.026 32 218.945 27.2086 218.945 20.4558C218.935 18.9468 219.222 17.4507 219.791 16.0531C220.361 14.6555 221.2 13.384 222.261 12.3115C223.323 11.239 224.586 10.3866 225.977 9.80316C227.369 9.21972 228.862 8.91673 230.371 8.91157C236.426 8.91157 242.021 13.5319 242.021 21.522L223.71 21.5747Z" fill="var(--fill-0, white)"/>
<path id="Vector_11" d="M15.6117 27.8009C13.2686 27.8009 10.9781 27.1061 9.02987 25.8043C7.08164 24.5026 5.56318 22.6523 4.66651 20.4876C3.76984 18.3228 3.53523 15.9408 3.99235 13.6427C4.44947 11.3446 5.57779 9.23369 7.23462 7.57686C8.89145 5.92003 11.0024 4.79171 13.3005 4.3346C15.5986 3.87748 17.9806 4.11209 20.1453 5.00876C22.3101 5.90543 24.1603 7.42388 25.4621 9.37211C26.7639 11.3203 27.4587 13.6108 27.4587 15.9539C27.4587 17.5097 27.1522 19.0502 26.5569 20.4876C25.9615 21.9249 25.0889 23.2309 23.9888 24.331C22.8887 25.4311 21.5827 26.3038 20.1453 26.8991C18.708 27.4945 17.1675 27.8009 15.6117 27.8009V27.8009ZM35.1724 31.3945L27.9457 25.5105C30.1691 22.8273 31.3349 19.4237 31.2234 15.9408C31.2264 12.406 30.0297 8.97483 27.8291 6.20858C25.6285 3.44233 22.5543 1.50474 19.1094 0.712791C15.6645 -0.0791601 12.0528 0.321404 8.86512 1.84896C5.67745 3.37651 3.10252 5.94062 1.56157 9.12184C0.0206141 12.3031 -0.395146 15.913 0.3823 19.3613C1.15975 22.8095 3.08438 25.8918 5.84134 28.104C8.59831 30.3162 12.0244 31.5273 15.5592 31.5392C19.0939 31.5511 22.5281 30.3631 25.2999 28.1695L26.8005 31.3945H35.1724Z" fill="var(--fill-0, white)"/>
</g>
</svg>
