<svg preserveAspectRatio="none" width="100%" height="100%" overflow="visible" style="display: block;" viewBox="0 0 2061.45 2027.41" fill="none" xmlns="http://www.w3.org/2000/svg">
<g id="Group 41">
<path id="Path 30" fill-rule="evenodd" clip-rule="evenodd" d="M2008.62 1048.4C2107.98 1236.17 2036.01 1365.95 2032.28 1521.8C2028.32 1687.6 2108.1 1912.36 1986.14 1988.24C1861.85 2065.6 1627.52 2020.51 1409.33 1909.46C1210.16 1808.12 1086.69 1572.36 894.809 1432.89C661.92 1263.6 372.926 1240.61 190.39 1023.46C7.10075 805.421 -32.1081 553.787 24.3956 397.472C77.9423 249.345 329.742 300.655 475.348 235.163C622.713 168.895 656.613 -52.6684 880.803 12.2926C1104.65 77.1521 1304.16 345.76 1510.16 535.009C1691.4 701.513 1907.65 857.581 2008.62 1048.4Z" stroke="var(--stroke-0, #D1D3FD)"/>
<path id="Path 31" fill-rule="evenodd" clip-rule="evenodd" d="M1904.08 1044.14C1992.28 1210.84 1928.38 1326.07 1925.08 1464.42C1921.55 1611.63 1992.39 1811.17 1884.11 1878.55C1773.77 1947.21 1565.73 1907.18 1372.01 1808.61C1195.2 1718.62 1085.58 1509.32 915.226 1385.5C708.468 1235.2 451.899 1214.78 289.843 1022.01C127.118 828.439 92.3093 605.042 142.474 466.259C190.012 334.753 413.56 380.304 542.829 322.163C673.662 263.318 703.76 66.6143 902.795 124.286C1101.53 181.868 1278.65 420.337 1461.53 588.354C1622.44 736.176 1814.44 874.735 1904.08 1044.14Z" stroke="var(--stroke-0, #D1D3FD)"/>
<path id="Path 32" fill-rule="evenodd" clip-rule="evenodd" d="M1796.04 1039.74C1872.72 1184.67 1817.16 1284.83 1814.29 1405.12C1811.22 1533.11 1872.81 1706.59 1778.68 1765.17C1682.75 1824.87 1501.88 1790.06 1333.46 1704.35C1179.74 1626.12 1084.44 1444.16 936.332 1336.52C756.576 1205.85 533.517 1188.1 392.628 1020.5C251.155 852.212 220.892 657.982 264.505 537.334C305.838 423.002 500.186 462.606 612.573 412.058C726.318 360.898 752.484 189.885 925.524 240.023C1098.3 290.085 1252.29 497.41 1411.28 643.483C1551.18 771.999 1718.1 892.461 1796.04 1039.74Z" stroke="var(--stroke-0, #D1D3FD)"/>
<path id="Path 33" fill-rule="evenodd" clip-rule="evenodd" d="M1695.88 1035.66C1761.88 1160.4 1714.07 1246.64 1711.59 1350.16C1708.96 1460.34 1761.96 1609.65 1680.94 1660.06C1598.36 1711.45 1442.68 1681.49 1297.71 1607.72C1165.41 1540.39 1083.38 1383.76 955.896 1291.09C801.179 1178.64 609.179 1163.35 487.908 1019.1C366.138 874.258 340.089 707.069 377.624 603.223C413.199 504.814 580.485 538.9 677.219 495.392C775.125 451.355 797.646 304.159 946.588 347.314C1095.31 390.406 1227.85 568.857 1364.71 694.587C1485.12 805.205 1628.79 908.893 1695.88 1035.66Z" stroke="var(--stroke-0, #D1D3FD)"/>
<path id="Path 34" fill-rule="evenodd" clip-rule="evenodd" d="M1591.58 1031.41C1646.45 1135.14 1606.71 1206.84 1604.65 1292.93C1602.45 1384.54 1646.53 1508.68 1579.15 1550.62C1510.5 1593.34 1381.05 1568.43 1260.5 1507.1C1150.48 1451.1 1082.28 1320.87 976.268 1243.82C847.615 1150.3 687.972 1137.6 587.129 1017.64C485.874 897.196 464.213 758.182 495.425 671.832C525.006 590.003 664.108 618.348 744.545 582.163C825.954 545.547 844.682 423.15 968.53 459.036C1092.19 494.865 1202.41 643.252 1316.2 747.798C1416.33 839.787 1535.8 926.004 1591.58 1031.41Z" stroke="var(--stroke-0, #D1D3FD)"/>
</g>
</svg>
