<svg preserveAspectRatio="none" width="100%" height="100%" overflow="visible" style="display: block;" viewBox="0 0 2.66667 10.6667" fill="none" xmlns="http://www.w3.org/2000/svg">
<path id="Vector" d="M1.33333 10.6667C0.966667 10.6667 0.652889 10.5362 0.392 10.2753C0.130667 10.014 0 9.7 0 9.33333C0 8.96667 0.130667 8.65267 0.392 8.39133C0.652889 8.13044 0.966667 8 1.33333 8C1.7 8 2.014 8.13044 2.27533 8.39133C2.53622 8.65267 2.66667 8.96667 2.66667 9.33333C2.66667 9.7 2.53622 10.014 2.27533 10.2753C2.014 10.5362 1.7 10.6667 1.33333 10.6667ZM1.33333 6.66667C0.966667 6.66667 0.652889 6.536 0.392 6.27467C0.130667 6.01378 0 5.7 0 5.33333C0 4.96667 0.130667 4.65267 0.392 4.39133C0.652889 4.13044 0.966667 4 1.33333 4C1.7 4 2.014 4.13044 2.27533 4.39133C2.53622 4.65267 2.66667 4.96667 2.66667 5.33333C2.66667 5.7 2.53622 6.01378 2.27533 6.27467C2.014 6.536 1.7 6.66667 1.33333 6.66667ZM1.33333 2.66667C0.966667 2.66667 0.652889 2.536 0.392 2.27467C0.130667 2.01378 0 1.7 0 1.33333C0 0.966667 0.130667 0.652889 0.392 0.392C0.652889 0.130667 0.966667 0 1.33333 0C1.7 0 2.014 0.130667 2.27533 0.392C2.53622 0.652889 2.66667 0.966667 2.66667 1.33333C2.66667 1.7 2.53622 2.01378 2.27533 2.27467C2.014 2.536 1.7 2.66667 1.33333 2.66667Z" fill="var(--fill-0, #141414)"/>
</svg>
