<svg preserveAspectRatio="none" width="100%" height="100%" overflow="visible" style="display: block;" viewBox="0 0 15 15.4167" fill="none" xmlns="http://www.w3.org/2000/svg">
<path id="Vector" d="M7.49584 7.5C6.46308 7.5 5.58023 7.13333 4.84731 6.4C4.11438 5.66667 3.74792 4.78333 3.74792 3.75C3.74792 2.71667 4.11438 1.83333 4.84731 1.1C5.58023 0.366667 6.46308 0 7.49584 0C8.52859 0 9.41144 0.366667 10.1444 1.1C10.8773 1.83333 11.2438 2.71667 11.2438 3.75C11.2438 4.78333 10.8773 5.66667 10.1444 6.4C9.41144 7.13333 8.52859 7.5 7.49584 7.5ZM1.87396 15.4167C1.35758 15.4167 0.916158 15.2333 0.549695 14.8667C0.183232 14.5 0 14.0583 0 13.5417V13.1C0 12.5667 0.141588 12.0833 0.416435 11.6333C0.691283 11.1917 1.04942 10.85 1.5075 10.6167C2.47363 10.1333 3.45641 9.76667 4.45586 9.525C5.4553 9.28333 6.4714 9.15833 7.50416 9.15833C8.53692 9.15833 9.55303 9.28333 10.5525 9.525C11.5519 9.76667 12.5347 10.1333 13.5008 10.6167C13.9506 10.85 14.317 11.1917 14.5919 11.6333C14.8667 12.075 15 12.5667 15 13.1V13.5417C15 14.0583 14.8168 14.5 14.4503 14.8667C14.0838 15.2333 13.6424 15.4167 13.126 15.4167H1.87396Z" fill="var(--fill-0, #141414)"/>
</svg>
