<svg preserveAspectRatio="none" width="100%" height="100%" overflow="visible" style="display: block;" viewBox="0 0 5 5" fill="none" xmlns="http://www.w3.org/2000/svg">
<path id="Vector" d="M5 2.5C5 3.65833 4.21667 4.625 3.15833 4.90833C3.075 4.93333 2.98333 4.95 2.9 4.96667C2.76667 4.99167 2.63333 5 2.5 5C2.15833 5 1.83333 4.93333 1.53333 4.8C0.808333 4.5 0.25 3.86667 0.0666666 3.08333C0.0249999 2.89167 0 2.7 0 2.5C0 2.09167 0.0999999 1.70833 0.275 1.375C0.35 1.21667 0.441667 1.075 0.55 0.941667C1 0.366667 1.70833 0 2.5 0C3.88333 0 5 1.11667 5 2.5V2.5Z" fill="var(--fill-0, #DA252F)"/>
</svg>
