<svg preserveAspectRatio="none" width="100%" height="100%" overflow="visible" style="display: block;" viewBox="0 0 19.2 4.02559" fill="none" xmlns="http://www.w3.org/2000/svg">
<path id="Vector" d="M13.3664 0.0575999H12.6944C12.656 0.0575999 12.6368 0.0959998 12.6368 0.1152V1.5776H11.9648V0.1152C11.9648 0.0767999 11.9264 0.0575999 11.9072 0.0575999H11.2352C11.1968 0.0575999 11.1776 0.0959998 11.1776 0.1152V3.86879C11.1776 3.90719 11.216 3.92639 11.2352 3.92639H11.9072C11.9456 3.92639 11.9648 3.88799 11.9648 3.86879V2.368H12.6368V3.86879C12.6368 3.90719 12.6752 3.92639 12.6944 3.92639H13.3664C13.4048 3.92639 13.424 3.88799 13.424 3.86879V0.1152C13.424 0.0959998 13.4048 0.0575999 13.3664 0.0575999ZM7.70239 0.0575999H7.03039C6.99199 0.0575999 6.97279 0.0767999 6.97279 0.1152V2.77439C6.97279 2.90879 6.93439 3.00479 6.87679 3.08159C6.81919 3.15839 6.74239 3.17759 6.64639 3.17759C6.55359 3.17759 6.47359 3.13919 6.41599 3.08159C6.35839 3.00479 6.31999 2.90879 6.31999 2.77439V0.1152C6.31999 0.0767999 6.28159 0.0575999 6.26239 0.0575999H5.59039C5.55199 0.0575999 5.53279 0.0767999 5.53279 0.1152V2.7936C5.53279 3.13919 5.60959 3.46559 5.82079 3.67999C6.03199 3.89119 6.31999 4.00639 6.64959 4.00639C6.99519 4.00639 7.28639 3.89119 7.47839 3.67999C7.68958 3.46879 7.76638 3.16159 7.76638 2.7936V0.1152C7.76318 0.0959998 7.74399 0.0575999 7.70239 0.0575999ZM1.1168 0C0.771199 0 0.479999 0.1152 0.287999 0.326399C0.0767999 0.537599 0 0.844799 0 1.2128V2.8128C0 3.15839 0.0767999 3.48479 0.287999 3.69919C0.499199 3.91039 0.787198 4.02559 1.1168 4.02559C1.4624 4.02559 1.7536 3.91039 1.9456 3.69919C2.1568 3.48799 2.2336 3.18079 2.2336 2.8128V1.9296C2.2336 1.8912 2.1952 1.8528 2.1568 1.8528H1.1744C1.136 1.8528 1.0976 1.8912 1.0976 1.9296V2.5856C1.0976 2.624 1.136 2.6624 1.1744 2.6624H1.4272V2.81599C1.4272 2.95039 1.3888 3.06879 1.3312 3.14239C1.2736 3.21919 1.1968 3.23839 1.1008 3.23839C1.008 3.23839 0.927998 3.19999 0.870398 3.14239C0.812798 3.06559 0.774398 2.95039 0.774398 2.81599V1.2352C0.774398 1.1008 0.812798 0.982398 0.870398 0.908798C0.927998 0.831998 1.0048 0.812799 1.1008 0.812799C1.1936 0.812799 1.2736 0.851198 1.3312 0.908798C1.3888 0.985598 1.4272 1.1008 1.4272 1.2352V1.3888C1.4272 1.4272 1.4656 1.4464 1.4848 1.4464H2.1568C2.1952 1.4464 2.2144 1.4272 2.2144 1.3888V1.2352C2.2144 0.889598 2.1376 0.563199 1.9264 0.348799C1.7536 0.1152 1.4432 0 1.1168 0ZM9.78238 3.06239C9.72478 3.13919 9.64798 3.15839 9.52958 3.15839H9.14558V2.3456H9.52958C9.62558 2.3456 9.70238 2.384 9.75998 2.4416C9.81758 2.5184 9.85598 2.6144 9.85598 2.7296C9.86238 2.88959 9.84318 2.98239 9.78238 3.06239ZM9.14558 0.847998H9.49118C9.58718 0.847998 9.66398 0.867198 9.72158 0.943998C9.77918 1.0016 9.79838 1.0976 9.79838 1.216C9.79838 1.3344 9.77918 1.4272 9.72158 1.504C9.66398 1.5616 9.58718 1.6 9.51038 1.6H9.16478V0.847998H9.14558ZM10.2624 1.9456C10.3776 1.8304 10.5888 1.5616 10.5888 1.2128C10.5888 0.806399 10.4352 0.556799 10.3168 0.422399C10.1056 0.192 9.81758 0.0767999 9.48798 0.0767999H8.43518C8.39678 0.0767999 8.37758 0.1152 8.37758 0.1344V3.89119C8.37758 3.92959 8.41598 3.94879 8.43518 3.94879H9.55198C9.89758 3.94879 10.224 3.81439 10.4384 3.54239C10.5536 3.38879 10.6912 3.13599 10.6912 2.752C10.6688 2.2912 10.3808 2.0192 10.2624 1.9456ZM4.14079 1.5776C4.08319 1.6544 3.98719 1.6928 3.86879 1.6928H3.54239V0.847998H3.86879C3.98399 0.847998 4.07999 0.886398 4.14079 0.963198C4.21759 1.04 4.23679 1.136 4.23679 1.2704C4.23679 1.4048 4.22079 1.5008 4.14079 1.5776ZM4.56639 2.272C4.64319 2.2144 4.70079 2.176 4.75839 2.0992C4.89279 1.9456 5.06559 1.6736 5.06559 1.2512C5.06559 0.844798 4.91199 0.579199 4.75839 0.422399C4.56639 0.192 4.27839 0.0767999 3.94879 0.0575999H2.83199C2.79359 0.0575999 2.77439 0.0959998 2.77439 0.1152V3.86879C2.77439 3.90719 2.81279 3.92639 2.83199 3.92639H3.50399C3.54239 3.92639 3.56159 3.88799 3.56159 3.86879V2.48H3.79199L4.21759 3.90399C4.21759 3.92319 4.25599 3.94239 4.27519 3.94239H4.98559C5.00479 3.94239 5.02399 3.92319 5.04319 3.92319C5.06239 3.92319 5.06239 3.88479 5.06239 3.86559L4.56639 2.272ZM18.2752 3.06239C18.2176 3.13919 18.1408 3.15839 18.0224 3.15839H17.6384V2.3456H18.0224C18.1184 2.3456 18.1952 2.384 18.2528 2.4416C18.3104 2.5184 18.3488 2.6144 18.3488 2.7296C18.3712 2.88959 18.336 2.98239 18.2752 3.06239ZM17.6576 0.847998H18.0032C18.0992 0.847998 18.176 0.867198 18.2336 0.943998C18.2912 1.0016 18.3104 1.0976 18.3104 1.216C18.3104 1.3344 18.2912 1.4272 18.2336 1.504C18.176 1.5616 18.0992 1.6 18.0224 1.6H17.6768V0.847998H17.6576ZM18.7744 1.9456C18.8896 1.8304 19.1008 1.5616 19.1008 1.2128C19.1008 0.806399 18.9472 0.556799 18.8288 0.422399C18.6176 0.192 18.3296 0.0767999 18 0.0767999H16.9376C16.8992 0.0767999 16.88 0.1152 16.88 0.1344V3.89119C16.88 3.92959 16.9184 3.94879 16.9376 3.94879H18.0608C18.4064 3.94879 18.7328 3.81439 18.9472 3.54239C19.0624 3.38879 19.2 3.13599 19.2 2.752C19.1616 2.2912 18.8736 2.0192 18.7744 1.9456ZM16.1952 0.0575999H15.5232C15.4848 0.0575999 15.4656 0.0767999 15.4656 0.1152V2.77439C15.4656 2.90879 15.4272 3.00479 15.3696 3.08159C15.312 3.15839 15.2352 3.17759 15.1392 3.17759C15.0464 3.17759 14.9664 3.13919 14.9088 3.08159C14.8512 3.00479 14.8128 2.90879 14.8128 2.77439V0.1152C14.8128 0.0767999 14.7744 0.0575999 14.7552 0.0575999H14.08C14.0416 0.0575999 14.0224 0.0767999 14.0224 0.1152V2.7936C14.0224 3.13919 14.0992 3.46559 14.3104 3.67999C14.5216 3.89119 14.8096 4.00639 15.1392 4.00639C15.4848 4.00639 15.776 3.89119 15.968 3.67999C16.1792 3.46879 16.256 3.16159 16.256 2.7936V0.1152C16.2752 0.0959998 16.2368 0.0575999 16.1952 0.0575999Z" fill="var(--fill-0, white)"/>
</svg>
