<svg preserveAspectRatio="none" width="100%" height="100%" overflow="visible" style="display: block;" viewBox="0 0 13.3333 13.3333" fill="none" xmlns="http://www.w3.org/2000/svg">
<path id="Vector" d="M4 7.33333H9.35C9.53889 7.33333 9.69444 7.26933 9.81667 7.14133C9.93889 7.01378 10 6.85556 10 6.66667C10 6.47778 9.936 6.31933 9.808 6.19133C9.68044 6.06378 9.52222 6 9.33333 6H3.98333C3.79444 6 3.63889 6.06378 3.51667 6.19133C3.39444 6.31933 3.33333 6.47778 3.33333 6.66667C3.33333 6.85556 3.39711 7.01378 3.52467 7.14133C3.65267 7.26933 3.81111 7.33333 4 7.33333ZM6.66667 13.3333C5.74444 13.3333 4.87778 13.1582 4.06667 12.808C3.25556 12.4582 2.55 11.9833 1.95 11.3833C1.35 10.7833 0.875111 10.0778 0.525333 9.26667C0.175111 8.45555 0 7.58889 0 6.66667C0 5.74444 0.175111 4.87778 0.525333 4.06667C0.875111 3.25556 1.35 2.55 1.95 1.95C2.55 1.35 3.25556 0.874889 4.06667 0.524667C4.87778 0.174889 5.74444 0 6.66667 0C7.58889 0 8.45555 0.174889 9.26667 0.524667C10.0778 0.874889 10.7833 1.35 11.3833 1.95C11.9833 2.55 12.4582 3.25556 12.808 4.06667C13.1582 4.87778 13.3333 5.74444 13.3333 6.66667C13.3333 7.58889 13.1582 8.45555 12.808 9.26667C12.4582 10.0778 11.9833 10.7833 11.3833 11.3833C10.7833 11.9833 10.0778 12.4582 9.26667 12.808C8.45555 13.1582 7.58889 13.3333 6.66667 13.3333Z" fill="var(--fill-0, #A88020)"/>
</svg>
