<svg preserveAspectRatio="none" width="100%" height="100%" overflow="visible" style="display: block;" viewBox="0 0 16.667 17.4999" fill="none" xmlns="http://www.w3.org/2000/svg">
<path id="Vector" d="M11.1113 14.6629C11.1113 16.2329 9.87003 17.4999 8.33301 17.4999C6.79614 17.4997 5.55569 16.2328 5.55566 14.6629H11.1113ZM8.14844 0.0027854C9.03344 -0.0251002 9.88974 0.15743 10.6699 0.503762C10.5529 0.657799 10.4511 0.820572 10.3662 0.999856C10.1329 1.44421 10.0001 1.95554 10 2.49986C10 2.76652 10.0333 3.02262 10.0889 3.27818C10.3334 4.32254 11.0783 5.16726 12.0449 5.56724C12.4447 5.74482 12.8778 5.8338 13.333 5.83384C13.5106 5.83384 13.6886 5.82219 13.8662 5.78892C13.9772 5.76671 14.0999 5.74506 14.2109 5.71177C14.2515 5.70091 14.2911 5.68604 14.3311 5.67368C14.3433 5.83118 14.3516 5.99062 14.3516 6.15122V8.98814C14.3516 9.50818 14.7683 9.93418 15.2773 9.93443C16.0458 9.93443 16.6669 10.5675 16.667 11.3524C16.667 12.1374 16.0459 12.7713 15.2773 12.7713H1.38867C0.620254 12.7712 0 12.1373 0 11.3524C0.00013096 10.5676 0.620335 9.93455 1.38867 9.93443C1.89793 9.93443 2.31445 9.50833 2.31445 8.98814V6.40611C2.31446 3.03908 4.85215 0.106823 8.14844 0.0027854Z" fill="var(--fill-0, black)"/>
</svg>
