<svg preserveAspectRatio="none" width="100%" height="100%" overflow="visible" style="display: block;" viewBox="0 0 12 12" fill="none" xmlns="http://www.w3.org/2000/svg">
<path id="Vector" d="M6.66667 5.73333L8.33333 7.4C8.45556 7.52222 8.51667 7.67778 8.51667 7.86667C8.51667 8.05556 8.45556 8.21111 8.33333 8.33333C8.21111 8.45556 8.05556 8.51667 7.86667 8.51667C7.67778 8.51667 7.52222 8.45556 7.4 8.33333L5.53333 6.46667C5.46667 6.4 5.41667 6.32489 5.38333 6.24133C5.35 6.15822 5.33333 6.07222 5.33333 5.98333V3.33333C5.33333 3.14444 5.39733 2.986 5.52533 2.858C5.65289 2.73044 5.81111 2.66667 6 2.66667C6.18889 2.66667 6.34733 2.73044 6.47533 2.858C6.60289 2.986 6.66667 3.14444 6.66667 3.33333V5.73333ZM6 12C4.65556 12 3.45 11.6027 2.38333 10.808C1.31667 10.0138 0.6 8.97778 0.233333 7.7C0.177778 7.5 0.197333 7.31111 0.292 7.13333C0.386222 6.95556 0.533333 6.84444 0.733333 6.8C0.922222 6.75556 1.09178 6.79711 1.242 6.92467C1.39178 7.05267 1.49444 7.21111 1.55 7.4C1.83889 8.37778 2.39733 9.16667 3.22533 9.76667C4.05289 10.3667 4.97778 10.6667 6 10.6667C7.3 10.6667 8.40267 10.2138 9.308 9.308C10.2138 8.40267 10.6667 7.3 10.6667 6C10.6667 4.7 10.2138 3.59711 9.308 2.69133C8.40267 1.786 7.3 1.33333 6 1.33333C5.23333 1.33333 4.51667 1.51111 3.85 1.86667C3.18333 2.22222 2.62222 2.71111 2.16667 3.33333H3.33333C3.52222 3.33333 3.68067 3.39711 3.80867 3.52467C3.93622 3.65267 4 3.81111 4 4C4 4.18889 3.93622 4.34711 3.80867 4.47467C3.68067 4.60267 3.52222 4.66667 3.33333 4.66667H0.666667C0.477778 4.66667 0.319556 4.60267 0.192 4.47467C0.0640001 4.34711 0 4.18889 0 4V1.33333C0 1.14444 0.0640001 0.986 0.192 0.858C0.319556 0.730445 0.477778 0.666667 0.666667 0.666667C0.855556 0.666667 1.014 0.730445 1.142 0.858C1.26956 0.986 1.33333 1.14444 1.33333 1.33333V2.23333C1.9 1.52222 2.59178 0.972222 3.40867 0.583333C4.22511 0.194444 5.08889 0 6 0C6.83333 0 7.614 0.158222 8.342 0.474667C9.06956 0.791556 9.70289 1.21933 10.242 1.758C10.7807 2.29711 11.2084 2.93044 11.5253 3.658C11.8418 4.386 12 5.16667 12 6C12 6.83333 11.8418 7.61378 11.5253 8.34133C11.2084 9.06933 10.7807 9.70267 10.242 10.2413C9.70289 10.7804 9.06956 11.2084 8.342 11.5253C7.614 11.8418 6.83333 12 6 12Z" fill="var(--fill-0, #141414)"/>
</svg>
