<svg width="116" height="40" viewBox="0 0 116 40" fill="none" xmlns="http://www.w3.org/2000/svg">
<rect width="116" height="40" rx="8" fill="black" fill-opacity="0.01"/>
<path d="M52.3076 10.0469C46.8994 10.0469 42.4376 14.5061 42.4376 19.9111C42.4334 21.2077 42.6858 22.4923 43.1803 23.6909C43.6748 24.8896 44.4017 25.9787 45.3191 26.8955C46.2364 27.8123 47.3262 28.5388 48.5255 29.033C49.7249 29.5272 51.0103 29.7795 52.3076 29.7753C57.8511 29.7753 62.1777 25.4513 62.1777 19.9111C62.1818 18.6146 61.9294 17.33 61.4349 16.1313C60.9404 14.9326 60.2135 13.8435 59.2961 12.9267C58.3788 12.0099 57.2891 11.2835 56.0897 10.7893C54.8903 10.295 53.6049 10.0427 52.3076 10.0469ZM52.3076 26.9377C48.5218 26.9377 45.4121 23.8298 45.4121 19.9111C45.4121 16.1276 48.5218 13.0197 52.3076 13.0197C56.2286 13.0197 59.3383 16.1276 59.3383 19.9111C59.3383 23.8298 56.2286 26.9377 52.3076 26.9377Z" fill="black"/>
<path d="M94.7607 21.795C94.7607 17.3358 92.3269 14.4982 87.8651 14.4982C83.5385 14.4982 80.6992 17.6061 80.6992 22.0652C80.6992 26.5244 83.2681 29.7674 87.8651 29.7674C91.6509 29.7674 93.8142 27.7405 94.6254 24.9029H91.7861C91.5157 25.8488 90.5693 27.4703 88.0003 27.4703C85.0258 27.4703 83.6738 25.3082 83.6738 22.876H94.7607V21.795ZM83.6738 20.714C83.809 18.2817 85.4314 16.7953 87.8651 16.7953C90.2989 16.7953 91.7861 18.4168 91.7861 20.714H83.6738Z" fill="black"/>
<path d="M99.6284 17.8029H103.82V14.9653H100.575C98.2763 14.9653 96.7891 14.9653 96.7891 18.4785V29.4237H99.6284V17.8029Z" fill="black"/>
<path d="M63.2383 14.9615V17.2586H65.9424V25.9067C65.9424 29.4199 67.4297 29.4199 69.7282 29.4199H71.6211V26.8525H68.7817V17.2586H73.9196V25.9067C73.9196 29.4199 75.4068 29.4199 77.8405 29.4199H79.5982V26.8525H76.7589V17.2586H79.5982V14.9615H76.7589V11.4482H73.9196V14.9615H68.7817V11.4482H65.9424V14.9615H63.2383Z" fill="black"/>
<path fill-rule="evenodd" clip-rule="evenodd" d="M31.8006 11.5967C32.6446 12.7586 32.6446 14.4161 32.6446 17.731V21.4634C32.6446 24.7783 32.6446 26.4358 31.8006 27.5977C31.5273 27.9726 31.1972 28.3027 30.8223 28.5759C29.6604 29.42 28.0029 29.42 24.688 29.42H20.9556C17.6407 29.42 15.9832 29.42 14.8213 28.5759C14.4465 28.3029 14.1167 27.9728 13.844 27.5977C13 26.4358 13 24.7783 13 21.4634V17.731C13 14.4161 13 12.7586 13.844 11.5967C14.1164 11.2216 14.4462 10.8918 14.8213 10.6194C15.9832 9.77539 17.6407 9.77539 20.9556 9.77539H24.6851C28 9.77539 29.6574 9.77539 30.8193 10.6194C31.1955 10.8919 31.5266 11.2216 31.8006 11.5967ZM22.8223 12.8465C24.1579 12.8465 25.4636 13.2425 26.5742 13.9846C27.6847 14.7266 28.5503 15.7813 29.0614 17.0153C29.5726 18.2493 29.7063 19.6071 29.4457 20.9171C29.1852 22.2271 28.542 23.4304 27.5975 24.3749C26.6531 25.3193 25.4498 25.9625 24.1398 26.2231C22.8298 26.4837 21.4719 26.3499 20.238 25.8388C19.004 25.3277 17.9493 24.4621 17.2072 23.3515C16.4652 22.241 16.0691 20.9353 16.0691 19.5997C16.069 18.7128 16.2436 17.8346 16.5829 17.0152C16.9222 16.1958 17.4197 15.4513 18.0468 14.8241C18.6739 14.197 19.4184 13.6996 20.2378 13.3603C21.0572 13.0209 21.9354 12.8463 22.8223 12.8465Z" fill="black"/>
</svg>
