<svg width="20" height="20" viewBox="0 0 20 20" fill="none" xmlns="http://www.w3.org/2000/svg">
<path d="M12.778 16.3294C12.7779 17.8994 11.5367 19.1664 9.99963 19.1664C8.46277 19.1662 7.22232 17.8993 7.22229 16.3294H12.778ZM9.81506 1.66929C10.7001 1.6414 11.5564 1.82393 12.3365 2.17027C12.2196 2.3243 12.1178 2.48708 12.0328 2.66636C11.7996 3.11071 11.6667 3.62204 11.6666 4.16636C11.6666 4.43303 11.6999 4.68912 11.7555 4.94468C12 5.98904 12.7449 6.83377 13.7115 7.23374C14.1113 7.41132 14.5444 7.5003 14.9996 7.50034C15.1773 7.50034 15.3552 7.4887 15.5328 7.45542C15.6439 7.43322 15.7665 7.41156 15.8776 7.37827C15.9181 7.36741 15.9577 7.35254 15.9977 7.34019C16.0099 7.49768 16.0182 7.65712 16.0182 7.81773V10.6546C16.0182 11.1747 16.4349 11.6007 16.944 11.6009C17.7124 11.6009 18.3335 12.234 18.3336 13.0189C18.3336 13.8039 17.7125 14.4378 16.944 14.4378L3.0553 14.4378C2.28688 14.4377 1.66663 13.8038 1.66663 13.0189C1.66676 12.2341 2.28696 11.601 3.0553 11.6009C3.56456 11.6009 3.98108 11.1748 3.98108 10.6546L3.98108 8.07261C3.98109 4.70559 6.51877 1.77333 9.81506 1.66929Z" fill="black"/>
<path d="M17.5 4.1665C17.5 5.32484 16.7167 6.2915 15.6583 6.57484C15.575 6.59984 15.4833 6.6165 15.4 6.63317C15.2667 6.65817 15.1333 6.6665 15 6.6665C14.6583 6.6665 14.3333 6.59984 14.0333 6.4665C13.3083 6.1665 12.75 5.53317 12.5667 4.74984C12.525 4.55817 12.5 4.3665 12.5 4.1665C12.5 3.75817 12.6 3.37484 12.775 3.0415C12.85 2.88317 12.9417 2.7415 13.05 2.60817C13.5 2.03317 14.2083 1.6665 15 1.6665C16.3833 1.6665 17.5 2.78317 17.5 4.1665Z" fill="#DA252F"/>
</svg>
