<svg width="24" height="24" viewBox="0 0 24 24" fill="none" xmlns="http://www.w3.org/2000/svg">
<path fill-rule="evenodd" clip-rule="evenodd" d="M5 2H19C19.55 2 20 2.45 20 3V22L17.5 20L15 22L12 20L9 22L7 20L4 22V3C4 2.45 4.45 2 5 2ZM12.9999 6.23173V5H10.9999V6.20653C9.74583 6.6098 8.81 7.75154 8.81 9.15005C8.81 10.2175 9.20641 10.9977 9.91051 11.5041C10.4842 11.9167 11.2012 12.0876 11.6975 12.2059L11.7669 12.2225C12.3648 12.3658 12.7015 12.4613 12.9218 12.6197C13.0389 12.704 13.19 12.8425 13.19 13.35C13.19 13.9143 12.7053 14.4417 12.0164 14.45H12.0135C12.0034 14.4493 11.9812 14.4474 11.9487 14.443C11.8798 14.4335 11.7663 14.4125 11.6224 14.3664C11.3374 14.2752 10.9272 14.0841 10.5005 13.6767L9.11952 15.1234C9.78745 15.761 10.4668 16.0946 10.9999 16.2671V17.5H12.9999V16.2936C14.2541 15.8904 15.19 14.7486 15.19 13.35C15.19 12.2826 14.7936 11.5024 14.0895 10.996C13.5158 10.5834 12.7988 10.4125 12.3025 10.2942L12.2331 10.2776C11.6352 10.1343 11.2985 10.0388 11.0782 9.88039C10.9611 9.79613 10.81 9.65757 10.81 9.15005C10.81 8.58508 11.296 8.05695 11.9864 8.05012C11.9965 8.05077 12.0195 8.0526 12.0536 8.05726C12.1234 8.06679 12.2379 8.0879 12.3822 8.13396C12.6681 8.2252 13.0762 8.41566 13.4962 8.82025L14.8838 7.37985C14.2178 6.7383 13.5351 6.40391 12.9999 6.23173Z" fill="black"/>
</svg>
