<svg width="24" height="24" viewBox="0 0 24 24" fill="none" xmlns="http://www.w3.org/2000/svg">
<path d="M20.5 6H3.5L4.72 3.55C4.89 3.21 5.24 3 5.62 3H18.38C18.76 3 19.11 3.21 19.28 3.55L20.5 6Z" fill="black"/>
<path d="M13 8V9C13 9.55 12.55 10 12 10C11.45 10 11 9.55 11 9V8H3V20C3 20.55 3.45 21 4 21H12.62C12.09 20.11 11.79 19.07 11.79 17.97C11.79 14.66 14.48 11.97 17.79 11.97C18.97 11.97 20.07 12.31 21 12.91V8H13Z" fill="black"/>
<path d="M19 18C19 18.5523 18.5523 19 18 19C17.4477 19 17 18.5523 17 18C17 17.4477 17.4477 17 18 17C18.5523 17 19 17.4477 19 18Z" fill="black"/>
<path d="M15 19C15.5523 19 16 18.5523 16 18C16 17.4477 15.5523 17 15 17C14.4477 17 14 17.4477 14 18C14 18.5523 14.4477 19 15 19Z" fill="black"/>
<path d="M22 18C22 18.5523 21.5523 19 21 19C20.4477 19 20 18.5523 20 18C20 17.4477 20.4477 17 21 17C21.5523 17 22 17.4477 22 18Z" fill="black"/>
</svg>
