<svg width="24" height="24" viewBox="0 0 24 24" fill="none" xmlns="http://www.w3.org/2000/svg">
<path d="M20.5 6H3.5L4.72 3.55C4.89 3.21 5.24 3 5.62 3H18.38C18.76 3 19.11 3.21 19.28 3.55L20.5 6Z" fill="black"/>
<path d="M13 8V9C13 9.55 12.55 10 12 10C11.45 10 11 9.55 11 9V8H3V20C3 20.55 3.45 21 4 21H10.79C10.6 20.37 10.5 19.7 10.5 19C10.5 15.13 13.63 12 17.5 12C18.78 12 19.97 12.34 21 12.94V8H13Z" fill="black"/>
<path d="M17.2105 21.71L21.7105 17.21C22.1005 16.82 22.1005 16.18 21.7105 15.79C21.5205 15.6 21.2605 15.5 21.0005 15.5C20.7405 15.5 20.4805 15.6 20.2905 15.79L16.5005 19.59L15.2105 18.29C14.8205 17.9 14.1805 17.9 13.7905 18.29C13.4005 18.68 13.4005 19.32 13.7905 19.71L15.7905 21.71C15.9905 21.9 16.2405 22 16.5005 22C16.7605 22 17.0105 21.9 17.2105 21.71Z" fill="black"/>
</svg>
