<svg width="24" height="24" viewBox="0 0 24 24" fill="none" xmlns="http://www.w3.org/2000/svg">
<path d="M10.6014 13.8082L8.42358 11.6404C8.24376 11.4605 8.01399 11.3706 7.74426 11.3706C7.47453 11.3706 7.24476 11.4705 7.04496 11.6703C6.86514 11.8502 6.76523 12.0899 6.76523 12.3696C6.76523 12.6494 6.85514 12.8891 7.04496 13.0689L9.89211 15.9161C10.0719 16.0959 10.3117 16.1858 10.5914 16.1858C10.8711 16.1858 11.1109 16.0959 11.2907 15.9161L16.965 10.2518C17.1449 10.0719 17.2348 9.84216 17.2348 9.57243C17.2348 9.3027 17.1349 9.07293 16.9351 8.87313C16.7552 8.69331 16.5155 8.6034 16.2358 8.6034C15.956 8.6034 15.7163 8.69331 15.5365 8.87313L10.5914 13.8182L10.6014 13.8082ZM12 22C10.6214 22 9.32268 21.7403 8.1039 21.2108C6.88511 20.6913 5.82617 19.972 4.92707 19.0729C4.02797 18.1738 3.31868 17.1149 2.78921 15.8961C2.25974 14.6773 2 13.3786 2 12C2 10.6214 2.25974 9.32268 2.78921 8.1039C3.30869 6.88511 4.02797 5.83617 4.92707 4.92708C5.82617 4.02798 6.88511 3.31869 8.1039 2.78922C9.32268 2.26974 10.6214 2 12 2C13.3786 2 14.6773 2.25975 15.8961 2.78922C17.1149 3.31869 18.1638 4.02798 19.0729 4.92708C19.972 5.82618 20.6813 6.88511 21.2108 8.1039C21.7403 9.32268 22 10.6214 22 12C22 13.3786 21.7403 14.6773 21.2108 15.8961C20.6913 17.1149 19.972 18.1638 19.0729 19.0729C18.1738 19.972 17.1149 20.6813 15.8961 21.2108C14.6773 21.7403 13.3786 22 12 22Z" fill="black"/>
</svg>
