<svg width="24" height="24" viewBox="0 0 24 24" fill="none" xmlns="http://www.w3.org/2000/svg">
<path d="M9.73774 21.4194C10.1181 21.7998 10.5986 22 11.1692 22C11.7397 22 12.2102 21.8098 12.6006 21.4194L21.3994 12.6106C21.5796 12.4304 21.7297 12.2102 21.8398 11.96C21.9499 11.7097 22 11.4394 22 11.1592V4.002C22 3.45145 21.7998 2.98098 21.4094 2.59059C21.019 2.2002 20.5485 2 19.998 2H12.8408C12.5606 2 12.2903 2.05005 12.04 2.16016C11.7898 2.27027 11.5696 2.41041 11.3894 2.6006L2.58058 11.4394C2.2002 11.8198 2 12.2903 2 12.8509C2 13.4114 2.19019 13.8819 2.58058 14.2623L9.73774 21.4194ZM17.4955 8.00601C17.0751 8.00601 16.7247 7.85586 16.4344 7.56557C16.1441 7.27528 15.994 6.91492 15.994 6.5045C15.994 6.09409 16.1441 5.73373 16.4344 5.44344C16.7247 5.15315 17.0851 5.003 17.4955 5.003C17.9059 5.003 18.2663 5.15315 18.5566 5.44344C18.8468 5.73373 18.997 6.09409 18.997 6.5045C18.997 6.91492 18.8468 7.27528 18.5566 7.56557C18.2663 7.85586 17.9059 8.00601 17.4955 8.00601Z" fill="black"/>
</svg>
