<svg width="24" height="24" viewBox="0 0 24 24" fill="none" xmlns="http://www.w3.org/2000/svg">
<path fill-rule="evenodd" clip-rule="evenodd" d="M19.9989 2C20.5495 2 21.0199 2.2002 21.4103 2.59059C21.8007 2.98098 22.0009 3.45145 22.0009 4.002V11.1591C22.0009 11.4494 21.9408 11.7097 21.8307 11.9599C21.7206 12.2102 21.5805 12.4304 21.4003 12.6106L18.4774 15.5335L8.46739 5.52352L11.3903 2.6006C11.5705 2.42042 11.7907 2.28028 12.041 2.17017C12.2912 2.06006 12.5515 2 12.8418 2H19.9989ZM17.4964 8.00599C17.9068 8.00599 18.2672 7.86585 18.5575 7.57557C18.8478 7.28528 18.9979 6.91491 18.9979 6.5045C18.9979 6.09409 18.8478 5.73373 18.5575 5.44344C18.2672 5.15315 17.9168 5.003 17.4964 5.003C17.076 5.003 16.7156 5.15315 16.4253 5.44344C16.135 5.73373 15.9949 6.08408 15.9949 6.5045C15.9949 6.92492 16.135 7.28528 16.4253 7.57557C16.7156 7.86585 17.086 8.00599 17.4964 8.00599Z" fill="black"/>
<path d="M2.3003 3.27131C2.69069 2.88092 3.32132 2.88092 3.71171 3.27131L20.7287 20.2983C21.1191 20.6887 21.1191 21.3193 20.7287 21.7097C20.5285 21.8999 20.2782 22 20.018 22C19.7577 22 19.5075 21.9099 19.3073 21.7097L15.8038 18.2062L12.5906 21.4194C12.2002 21.8098 11.7297 22 11.1591 22C10.5886 22 10.1181 21.8098 9.73772 21.4194L2.58058 14.2623C2.19019 13.8819 2 13.4114 2 12.8509C2 12.2903 2.19019 11.8198 2.58058 11.4395L5.8038 8.20623L2.29029 4.69273C1.8999 4.30234 1.90991 3.6617 2.3003 3.27131Z" fill="black"/>
</svg>
