<svg width="24" height="24" viewBox="0 0 24 24" fill="none" xmlns="http://www.w3.org/2000/svg">
<path d="M7.7043 16.3057C7.88412 16.4855 8.12388 16.5854 8.4036 16.5854C8.68332 16.5854 8.92308 16.4955 9.1029 16.3057L12 13.4086L14.9271 16.3357C15.1069 16.5155 15.3367 16.6054 15.6164 16.5954C15.8861 16.5954 16.1159 16.4955 16.3057 16.3057C16.4855 16.1259 16.5854 15.8861 16.5854 15.6064C16.5854 15.3267 16.4955 15.0869 16.3057 14.9071L13.4086 12.01L16.3357 9.09291C16.5155 8.91309 16.6054 8.68332 16.5954 8.4036C16.5954 8.13387 16.4955 7.9041 16.3057 7.71429C16.1259 7.53447 15.8861 7.43457 15.6064 7.43457C15.3267 7.43457 15.0869 7.52448 14.9071 7.71429L12.01 10.6114L9.08292 7.68432C8.9031 7.5045 8.67333 7.41459 8.39361 7.42458C8.11389 7.42458 7.89411 7.53447 7.7043 7.71429C7.52448 7.89411 7.43457 8.13386 7.43457 8.41358C7.43457 8.6933 7.52448 8.93308 7.7043 9.1129L10.6014 12.01L7.67433 14.9271C7.49451 15.1069 7.4046 15.3367 7.41459 15.6164C7.41459 15.8861 7.51449 16.1259 7.7043 16.3057ZM12 22C10.6214 22 9.32268 21.7403 8.1039 21.2108C6.88511 20.6913 5.82617 19.972 4.92707 19.0729C4.02797 18.1738 3.31868 17.1149 2.78921 15.8961C2.25974 14.6773 2 13.3786 2 12C2 10.6214 2.25974 9.32268 2.78921 8.1039C3.30869 6.88511 4.02797 5.83617 4.92707 4.92708C5.82617 4.02798 6.88511 3.31869 8.1039 2.78922C9.32268 2.26974 10.6214 2 12 2C13.3786 2 14.6773 2.25975 15.8961 2.78922C17.1149 3.31869 18.1638 4.02798 19.0729 4.92708C19.972 5.82618 20.6813 6.88511 21.2108 8.1039C21.7403 9.32268 22 10.6214 22 12C22 13.3786 21.7403 14.6773 21.2108 15.8961C20.6913 17.1149 19.972 18.1638 19.0729 19.0729C18.1738 19.972 17.1149 20.6813 15.8961 21.2108C14.6773 21.7403 13.3786 22 12 22Z" fill="black"/>
</svg>
