<svg preserveAspectRatio="none" width="100%" height="100%" overflow="visible" style="display: block;" viewBox="0 0 20 20" fill="none" xmlns="http://www.w3.org/2000/svg">
<g id="Icon">
<g id="Vector">
<path fill-rule="evenodd" clip-rule="evenodd" d="M10 7.17908C11.1598 7.17908 12.1 8.11928 12.1 9.27908V15.7411C12.1 16.9009 11.1598 17.8411 10 17.8411C8.84025 17.8411 7.90005 16.9009 7.90005 15.7411V9.27908C7.90005 8.11928 8.84025 7.17908 10 7.17908Z" fill="var(--fill-0, white)"/>
<path fill-rule="evenodd" clip-rule="evenodd" d="M16.144 2.00708C17.3038 2.00708 18.244 2.94728 18.244 4.10708V15.7411C18.244 16.9009 17.3038 17.8411 16.144 17.8411C14.9842 17.8411 14.044 16.9009 14.044 15.7411V4.10708C14.044 2.94728 14.9842 2.00708 16.144 2.00708Z" fill="var(--fill-0, white)"/>
<path d="M6.17205 15.7411C6.17205 16.9009 5.23184 17.8411 4.07205 17.8411C2.91225 17.8411 1.97205 16.9009 1.97205 15.7411C1.97205 14.5813 2.91225 13.6411 4.07205 13.6411C5.23184 13.6411 6.17205 14.5813 6.17205 15.7411Z" fill="var(--fill-0, white)"/>
</g>
</g>
</svg>
