<svg preserveAspectRatio="none" width="100%" height="100%" overflow="visible" style="display: block;" viewBox="0 0 20 20.9995" fill="none" xmlns="http://www.w3.org/2000/svg">
<path id="Vector" d="M13.333 17.5952C13.3329 19.4791 11.8444 20.9995 10 20.9995C8.15561 20.9995 6.66707 19.4791 6.66699 17.5952H13.333ZM9.77734 0.00335989C10.8394 -0.0301605 11.8674 0.18836 12.8037 0.603946C12.6634 0.788736 12.5423 0.984583 12.4404 1.19965C12.1605 1.73287 12.0001 2.34628 12 2.99945C12 3.31939 12.0398 3.62645 12.1064 3.93305C12.3998 5.18635 13.2932 6.2001 14.4531 6.68012C14.9331 6.89345 15.4533 6.99945 16 6.99945C16.2132 6.99945 16.4264 6.98666 16.6396 6.94672C16.773 6.92005 16.9204 6.89297 17.0537 6.85297C17.1021 6.84002 17.1487 6.82178 17.1963 6.80707C17.2111 6.99633 17.2227 7.18731 17.2227 7.38031V10.7856C17.2228 11.4096 17.7221 11.9202 18.333 11.9204C19.2552 11.9204 19.9999 12.6806 20 13.6225C20 14.5645 19.2552 15.3256 18.333 15.3256H1.66699C0.74477 15.3256 0 14.5645 0 13.6225C0.000113234 12.6806 0.74484 11.9204 1.66699 11.9204C2.27787 11.9202 2.77721 11.4096 2.77734 10.7856V7.68695C2.77734 3.64666 5.822 0.128451 9.77734 0.00335989Z" fill="var(--fill-0, black)"/>
</svg>
