<svg width="16" height="17" viewBox="0 0 16.3079 16.3491" fill="none" xmlns="http://www.w3.org/2000/svg">
  <path d="M4.09135 13.6745C4.25802 13.6607 4.41807 13.7023 4.57084 13.7995C4.90417 14.0218 5.25484 14.2058 5.6226 14.3513C5.99089 14.4974 6.3695 14.6193 6.75834 14.7165C6.91108 14.7582 7.04684 14.8447 7.16459 14.9763C7.28274 15.1084 7.34135 15.2514 7.34135 15.404C7.34126 15.7233 7.23709 15.9736 7.02885 16.154C6.82067 16.3343 6.57783 16.3894 6.30034 16.3201C5.85589 16.2089 5.42149 16.0666 4.9976 15.8933C4.57428 15.7194 4.16773 15.5151 3.77885 15.279C3.52889 15.1263 3.39371 14.9068 3.3726 14.6218C3.35209 14.3374 3.45315 14.0842 3.67534 13.862C3.78635 13.7511 3.92489 13.6885 4.09135 13.6745ZM12.2164 13.6745C12.383 13.6884 12.5222 13.7509 12.6333 13.862C12.8555 14.0842 12.9566 14.3374 12.9361 14.6218C12.915 14.9068 12.7789 15.1263 12.5289 15.279C12.1402 15.515 11.7341 15.7195 11.3111 15.8933C10.8872 16.0666 10.4528 16.2089 10.0083 16.3201C9.73058 16.3895 9.48718 16.3346 9.27885 16.154C9.07061 15.9736 8.96645 15.7233 8.96635 15.404C8.96635 15.2513 9.02585 15.1085 9.14409 14.9763C9.26186 14.8446 9.39756 14.7582 9.55034 14.7165C9.93916 14.6193 10.3178 14.4974 10.6861 14.3513C11.0538 14.2058 11.4045 14.0217 11.7378 13.7995C11.8905 13.7025 12.0499 13.6607 12.2164 13.6745ZM0.925337 9.00755C1.09188 9.00762 1.24454 9.06351 1.38334 9.17455C1.52221 9.28565 1.61219 9.42489 1.65385 9.59154C1.73718 9.98031 1.85561 10.3586 2.00834 10.7263C2.16111 11.0946 2.34203 11.4458 2.55034 11.779C2.64733 11.9178 2.68513 12.0741 2.66459 12.2478C2.64348 12.4211 2.57745 12.5634 2.46635 12.6745C2.2443 12.8965 1.99795 12.9973 1.72709 12.9763C1.4566 12.9558 1.24412 12.8276 1.09135 12.5915C0.855241 12.2027 0.650984 11.7992 0.477095 11.3826C0.303832 10.9661 0.161426 10.5358 0.0503368 10.0915C-0.0190674 9.81392 0.0325182 9.56366 0.20561 9.34154C0.379499 9.11932 0.619781 9.00755 0.925337 9.00755ZM15.3833 9.00755C15.6889 9.00755 15.9282 9.11932 16.1021 9.34154C16.2754 9.56375 16.3278 9.81379 16.2583 10.0915C16.1473 10.5358 16.0048 10.9661 15.8316 11.3826C15.6577 11.7992 15.4525 12.2027 15.2164 12.5915C15.0636 12.8274 14.852 12.9558 14.5816 12.9763C14.3105 12.9974 14.0635 12.8967 13.8414 12.6745C13.7303 12.5635 13.6642 12.4211 13.6431 12.2478C13.6226 12.074 13.6613 11.9179 13.7583 11.779C13.9667 11.4457 14.1476 11.0946 14.3003 10.7263C14.4531 10.3587 14.5705 9.98026 14.6539 9.59154C14.6955 9.42487 14.7864 9.28566 14.9253 9.17455C15.0642 9.06351 15.2167 9.00756 15.3833 9.00755ZM1.73784 3.36205C2.01549 3.33437 2.25809 3.4319 2.46635 3.65404C2.57744 3.76514 2.64349 3.91101 2.66459 4.09154C2.68504 4.27181 2.64734 4.43133 2.55034 4.57005C2.34202 4.90336 2.16111 5.25407 2.00834 5.62181C1.85559 5.9901 1.73718 6.36872 1.65385 6.75755C1.61219 6.92422 1.52223 7.06344 1.38334 7.17455C1.24447 7.28563 1.0986 7.34154 0.945845 7.34154C0.626406 7.34154 0.376398 7.22977 0.195845 7.00755C0.0153797 6.78537 -0.0405774 6.53527 0.0288524 6.25755C0.139919 5.81332 0.282379 5.38302 0.45561 4.96654C0.629499 4.54987 0.841352 4.14644 1.09135 3.75755C1.24413 3.52144 1.46006 3.38982 1.73784 3.36205ZM14.5708 3.36205C14.8485 3.38981 15.0636 3.52164 15.2164 3.75755C15.4664 4.14644 15.6782 4.54987 15.8521 4.96654C16.0254 5.38305 16.1678 5.81329 16.2789 6.25755C16.3483 6.53521 16.2932 6.7854 16.1128 7.00755C15.9323 7.2297 15.6821 7.34147 15.3628 7.34154C15.2101 7.34154 15.0642 7.28553 14.9253 7.17455C14.7864 7.06344 14.6955 6.92422 14.6539 6.75755C14.5705 6.36876 14.4531 5.99006 14.3003 5.62181C14.1476 5.25403 13.9667 4.90339 13.7583 4.57005C13.6613 4.43132 13.6227 4.27184 13.6431 4.09154C13.6642 3.91119 13.7305 3.7651 13.8414 3.65404C14.0497 3.43182 14.2931 3.33427 14.5708 3.36205ZM6.27885 0.0290391C6.55658 -0.0403923 6.80004 0.01458 7.00834 0.195055C7.21668 0.37561 7.32084 0.618991 7.32084 0.924547C7.32082 1.09117 7.26142 1.24017 7.14311 1.37181C7.02543 1.50391 6.89045 1.59086 6.73784 1.63255C6.33506 1.72978 5.95246 1.85478 5.59135 2.00755C5.23031 2.16032 4.87601 2.34788 4.52885 2.57005C4.39002 2.65331 4.23389 2.68841 4.0601 2.67455C3.88679 2.66066 3.74445 2.59813 3.63334 2.48705C3.41118 2.26488 3.31365 2.01121 3.34135 1.7263C3.36913 1.44186 3.50834 1.22283 3.75834 1.07005C4.14714 0.834005 4.55331 0.628678 4.97709 0.45482C5.40029 0.281542 5.83455 0.140135 6.27885 0.0290391ZM9.30034 0.195055C9.50855 0.0147452 9.75129 -0.0402898 10.0289 0.0290391C10.4732 0.140118 10.9074 0.281556 11.3306 0.45482C11.7545 0.628709 12.1614 0.833944 12.5503 1.07005C12.8003 1.22283 12.9386 1.44191 12.9664 1.7263C12.9941 2.01119 12.8974 2.26489 12.6753 2.48705C12.5643 2.59811 12.4218 2.66062 12.2486 2.67455C12.0747 2.68844 11.9177 2.65339 11.7789 2.57005C11.4317 2.34793 11.0773 2.16028 10.7164 2.00755C10.3553 1.85485 9.97349 1.72974 9.57084 1.63255C9.41809 1.59088 9.28235 1.50402 9.16459 1.37181C9.04646 1.24024 8.98786 1.09105 8.98784 0.924547C8.98784 0.618991 9.092 0.37561 9.30034 0.195055Z" fill="#525252"/>
</svg>
