<svg width="16" height="16" viewBox="0 0 16 16" fill="none" xmlns="http://www.w3.org/2000/svg">
<path d="M3.33269 14C2.76602 14 2.36335 13.7473 2.12469 13.242C1.88557 12.7362 1.9438 12.2667 2.29935 11.8333L5.99935 7.33333V3.33333H5.33269C5.1438 3.33333 4.98535 3.26933 4.85735 3.14133C4.7298 3.01378 4.66602 2.85556 4.66602 2.66667C4.66602 2.47778 4.7298 2.31933 4.85735 2.19133C4.98535 2.06378 5.1438 2 5.33269 2H10.666C10.8549 2 11.0131 2.06378 11.1407 2.19133C11.2687 2.31933 11.3327 2.47778 11.3327 2.66667C11.3327 2.85556 11.2687 3.01378 11.1407 3.14133C11.0131 3.26933 10.8549 3.33333 10.666 3.33333H9.99935V7.33333L13.6994 11.8333C14.0549 12.2667 14.1131 12.7362 13.874 13.242C13.6354 13.7473 13.2327 14 12.666 14H3.33269Z" fill="#1258D2"/>
</svg>
