<svg width="24" height="24" viewBox="0 0 24 24" fill="none" xmlns="http://www.w3.org/2000/svg">
<path d="M8.29999 17.3004L3.69999 12.7004C3.59999 12.6004 3.52932 12.4921 3.48799 12.3754C3.44599 12.2587 3.42499 12.1337 3.42499 12.0004C3.42499 11.8671 3.44599 11.7421 3.48799 11.6254C3.52932 11.5087 3.59999 11.4004 3.69999 11.3004L8.32499 6.67539C8.50832 6.49206 8.73332 6.40039 8.99999 6.40039C9.26665 6.40039 9.49999 6.50039 9.69999 6.70039C9.88332 6.88372 9.97499 7.11706 9.97499 7.40039C9.97499 7.68372 9.88332 7.91706 9.69999 8.10039L6.79999 11.0004H20C20.2833 11.0004 20.5207 11.0961 20.712 11.2874C20.904 11.4794 21 11.7171 21 12.0004C21 12.2837 20.904 12.5211 20.712 12.7124C20.5207 12.9044 20.2833 13.0004 20 13.0004H6.79999L9.72499 15.9254C9.90832 16.1087 9.99999 16.3337 9.99999 16.6004C9.99999 16.8671 9.89999 17.1004 9.69999 17.3004C9.51665 17.4837 9.28332 17.5754 8.99999 17.5754C8.71665 17.5754 8.48332 17.4837 8.29999 17.3004Z" fill="black"/>
</svg>
