<svg width="24" height="24" viewBox="0 0 24 24" fill="none" xmlns="http://www.w3.org/2000/svg">
<path d="M15 14C15.55 14 15.9833 13.8417 16.3 13.525C16.6167 13.2083 16.8167 12.9083 16.9 12.625C16.95 12.4583 17.0627 12.3127 17.238 12.188C17.4127 12.0627 17.6167 12 17.85 12H21V5H9V12H12.15C12.3833 12 12.5873 12.0667 12.762 12.2C12.9373 12.3333 13.05 12.475 13.1 12.625C13.1833 12.9083 13.3833 13.2083 13.7 13.525C14.0167 13.8417 14.45 14 15 14ZM9 19C8.45 19 7.97933 18.8043 7.588 18.413C7.196 18.021 7 17.55 7 17V5C7 4.45 7.196 3.979 7.588 3.587C7.97933 3.19567 8.45 3 9 3H21C21.55 3 22.021 3.19567 22.413 3.587C22.8043 3.979 23 4.45 23 5V17C23 17.55 22.8043 18.021 22.413 18.413C22.021 18.8043 21.55 19 21 19H9ZM5 23C4.45 23 3.97933 22.8043 3.588 22.413C3.196 22.021 3 21.55 3 21V8C3 7.71667 3.096 7.479 3.288 7.287C3.47933 7.09567 3.71667 7 4 7C4.28333 7 4.521 7.09567 4.713 7.287C4.90433 7.479 5 7.71667 5 8V21H18C18.2833 21 18.5207 21.096 18.712 21.288C18.904 21.4793 19 21.7167 19 22C19 22.2833 18.904 22.5207 18.712 22.712C18.5207 22.904 18.2833 23 18 23H5Z" fill="black"/>
</svg>
