<svg width="24" height="24" viewBox="0 0 24 24" fill="none" xmlns="http://www.w3.org/2000/svg">
<path d="M16.175 10H7V19C7 19.2834 6.90417 19.5209 6.7125 19.7125C6.52083 19.9042 6.28333 20 6 20C5.71667 20 5.47917 19.9042 5.2875 19.7125C5.09583 19.5209 5 19.2834 5 19V10C5 9.45005 5.19583 8.97922 5.5875 8.58755C5.97917 8.19588 6.45 8.00005 7 8.00005H16.175L13.3 5.10005C13.1167 4.91672 13.0208 4.68755 13.0125 4.41255C13.0042 4.13755 13.1 3.90005 13.3 3.70005C13.4833 3.51672 13.7167 3.42505 14 3.42505C14.2833 3.42505 14.5167 3.51672 14.7 3.70005L19.3 8.30005C19.5 8.50005 19.6 8.73338 19.6 9.00005C19.6 9.26672 19.5 9.50005 19.3 9.70005L14.7 14.3C14.5 14.5 14.2667 14.5959 14 14.5875C13.7333 14.5792 13.5 14.475 13.3 14.275C13.1167 14.075 13.0208 13.8417 13.0125 13.575C13.0042 13.3084 13.1 13.075 13.3 12.875L16.175 10Z" fill="black"/>
</svg>
