<svg width="24" height="24" viewBox="0 0 24 24" fill="none" xmlns="http://www.w3.org/2000/svg">
<path d="M7.09999 11.3507C7.33332 10.884 7.57499 10.434 7.82499 10.0007C8.07499 9.56736 8.34999 9.13402 8.64999 8.70069L7.24999 8.42569L5.14999 10.5257L7.09999 11.3507ZM19.15 4.47569C17.9833 4.50902 16.7375 4.85069 15.4125 5.50069C14.0875 6.15069 12.8833 7.01736 11.8 8.10069C11.1 8.80069 10.475 9.55069 9.92499 10.3507C9.37499 11.1507 8.96665 11.9007 8.69999 12.6007L11.55 15.4257C12.25 15.159 13 14.7507 13.8 14.2007C14.6 13.6507 15.35 13.0257 16.05 12.3257C17.1333 11.2424 18 10.0424 18.65 8.72569C19.3 7.40902 19.6417 6.16736 19.675 5.00069C19.675 4.93402 19.6625 4.86736 19.6375 4.80069C19.6125 4.73402 19.575 4.67569 19.525 4.62569C19.475 4.57569 19.4167 4.53819 19.35 4.51319C19.2833 4.48819 19.2167 4.47569 19.15 4.47569ZM13.65 10.4757C13.2667 10.0924 13.075 9.62152 13.075 9.06319C13.075 8.50486 13.2667 8.03402 13.65 7.65069C14.0333 7.26736 14.5083 7.07569 15.075 7.07569C15.6417 7.07569 16.1167 7.26736 16.5 7.65069C16.8833 8.03402 17.075 8.50486 17.075 9.06319C17.075 9.62152 16.8833 10.0924 16.5 10.4757C16.1167 10.859 15.6417 11.0507 15.075 11.0507C14.5083 11.0507 14.0333 10.859 13.65 10.4757ZM12.8 17.0257L13.625 19.0007L15.725 16.9007L15.45 15.5007C15.0167 15.8007 14.5833 16.0715 14.15 16.3132C13.7167 16.5549 13.2667 16.7924 12.8 17.0257ZM21.575 3.67569C21.7083 5.50902 21.4083 7.29652 20.675 9.03819C19.9417 10.7799 18.7833 12.4424 17.2 14.0257L17.7 16.5007C17.7667 16.834 17.75 17.159 17.65 17.4757C17.55 17.7924 17.3833 18.0674 17.15 18.3007L14 21.4507C13.75 21.7007 13.45 21.7965 13.1 21.7382C12.75 21.6799 12.5083 21.484 12.375 21.1507L10.85 17.5757L6.57499 13.3007L2.99999 11.7757C2.66665 11.6424 2.46665 11.4007 2.39999 11.0507C2.33332 10.7007 2.42499 10.4007 2.67499 10.1507L5.82499 7.00069C6.05832 6.76736 6.33749 6.60069 6.66249 6.50069C6.98749 6.40069 7.31665 6.38402 7.64999 6.45069L10.125 6.95069C11.7083 5.36736 13.3708 4.20902 15.1125 3.47569C16.8542 2.74236 18.6417 2.44236 20.475 2.57569C20.6083 2.59236 20.7417 2.62986 20.875 2.68819C21.0083 2.74652 21.125 2.82569 21.225 2.92569C21.325 3.02569 21.4042 3.14236 21.4625 3.27569C21.5208 3.40902 21.5583 3.54236 21.575 3.67569ZM3.92499 15.9757C4.50832 15.3924 5.22082 15.0965 6.06249 15.0882C6.90415 15.0799 7.61665 15.3674 8.19999 15.9507C8.78332 16.534 9.07082 17.2465 9.06249 18.0882C9.05415 18.9299 8.75832 19.6424 8.17499 20.2257C7.75832 20.6424 7.06249 21.0007 6.08749 21.3007C5.11249 21.6007 3.76665 21.8674 2.04999 22.1007C2.28332 20.384 2.54999 19.0382 2.84999 18.0632C3.14999 17.0882 3.50832 16.3924 3.92499 15.9757ZM5.34999 17.3757C5.18332 17.5424 5.01665 17.8465 4.84999 18.2882C4.68332 18.7299 4.56665 19.1757 4.49999 19.6257C4.94999 19.559 5.39582 19.4465 5.83749 19.2882C6.27915 19.1299 6.58332 18.9674 6.74999 18.8007C6.94999 18.6007 7.05832 18.359 7.07499 18.0757C7.09165 17.7924 6.99999 17.5507 6.79999 17.3507C6.59999 17.1507 6.35832 17.0549 6.07499 17.0632C5.79165 17.0715 5.54999 17.1757 5.34999 17.3757Z" fill="black"/>
</svg>
