<svg width="24" height="24" viewBox="0 0 24 24" fill="none" xmlns="http://www.w3.org/2000/svg">
<path d="M12 22.9498C11.7167 22.9498 11.4793 22.8541 11.288 22.6628C11.096 22.4708 11 22.2331 11 21.9498V20.9498C8.91665 20.7165 7.12932 19.8541 5.63799 18.3628C4.14599 16.8708 3.28332 15.0831 3.04999 12.9998H2.04999C1.76665 12.9998 1.52899 12.9038 1.33699 12.7118C1.14565 12.5205 1.04999 12.2831 1.04999 11.9998C1.04999 11.7165 1.14565 11.4788 1.33699 11.2868C1.52899 11.0955 1.76665 10.9998 2.04999 10.9998H3.04999C3.28332 8.91647 4.14599 7.1288 5.63799 5.6368C7.12932 4.14547 8.91665 3.28314 11 3.0498V2.0498C11 1.76647 11.096 1.5288 11.288 1.3368C11.4793 1.14547 11.7167 1.0498 12 1.0498C12.2833 1.0498 12.521 1.14547 12.713 1.3368C12.9043 1.5288 13 1.76647 13 2.0498V3.0498C15.0833 3.28314 16.871 4.14547 18.363 5.6368C19.8543 7.1288 20.7167 8.91647 20.95 10.9998H21.95C22.2333 10.9998 22.471 11.0955 22.663 11.2868C22.8543 11.4788 22.95 11.7165 22.95 11.9998C22.95 12.2831 22.8543 12.5205 22.663 12.7118C22.471 12.9038 22.2333 12.9998 21.95 12.9998H20.95C20.7167 15.0831 19.8543 16.8708 18.363 18.3628C16.871 19.8541 15.0833 20.7165 13 20.9498V21.9498C13 22.2331 12.9043 22.4708 12.713 22.6628C12.521 22.8541 12.2833 22.9498 12 22.9498ZM12 18.9998C13.9333 18.9998 15.5833 18.3165 16.95 16.9498C18.3167 15.5831 19 13.9331 19 11.9998C19 10.0665 18.3167 8.41647 16.95 7.0498C15.5833 5.68314 13.9333 4.9998 12 4.9998C10.0667 4.9998 8.41665 5.68314 7.04999 7.0498C5.68332 8.41647 4.99999 10.0665 4.99999 11.9998C4.99999 13.9331 5.68332 15.5831 7.04999 16.9498C8.41665 18.3165 10.0667 18.9998 12 18.9998ZM12 15.9998C10.9 15.9998 9.95832 15.6081 9.17499 14.8248C8.39165 14.0415 7.99999 13.0998 7.99999 11.9998C7.99999 10.8998 8.39165 9.95814 9.17499 9.1748C9.95832 8.39147 10.9 7.9998 12 7.9998C13.1 7.9998 14.0417 8.39147 14.825 9.1748C15.6083 9.95814 16 10.8998 16 11.9998C16 13.0998 15.6083 14.0415 14.825 14.8248C14.0417 15.6081 13.1 15.9998 12 15.9998Z" fill="black"/>
</svg>
