<svg width="24" height="24" viewBox="0 0 24 24" fill="none" xmlns="http://www.w3.org/2000/svg">
<path d="M5.67499 20.7252C5.47499 20.8085 5.27065 20.8295 5.06199 20.7882C4.85399 20.7462 4.67499 20.6502 4.52499 20.5002C4.37499 20.3502 4.27899 20.1709 4.23699 19.9622C4.19565 19.7542 4.21665 19.5502 4.29999 19.3502L11.1 4.0502C11.2833 3.6502 11.5917 3.4502 12.025 3.4502C12.4583 3.4502 12.7667 3.6502 12.95 4.0502L19.75 19.3502C19.8333 19.5502 19.854 19.7542 19.812 19.9622C19.7707 20.1709 19.675 20.3502 19.525 20.5002C19.375 20.6502 19.196 20.7462 18.988 20.7882C18.7793 20.8295 18.575 20.8085 18.375 20.7252L12.025 18.0002L5.67499 20.7252Z" fill="black"/>
</svg>
