<svg width="24" height="24" viewBox="0 0 24 24" fill="none" xmlns="http://www.w3.org/2000/svg">
<path d="M5.7 12.6998C5.51667 12.5165 5.425 12.2831 5.425 11.9998C5.425 11.7165 5.51667 11.4831 5.7 11.2998L11.3 5.6998C11.4 5.5998 11.5083 5.52914 11.625 5.4878C11.7417 5.4458 11.8667 5.4248 12 5.4248C12.1333 5.4248 12.2583 5.4458 12.375 5.4878C12.4917 5.52914 12.6 5.5998 12.7 5.6998L18.3 11.2998C18.4833 11.4831 18.579 11.7121 18.587 11.9868C18.5957 12.2621 18.5 12.4998 18.3 12.6998C18.1167 12.8831 17.8833 12.9748 17.6 12.9748C17.3167 12.9748 17.0833 12.8831 16.9 12.6998L12 7.8248L7.1 12.6998C6.91667 12.8831 6.68734 12.9791 6.412 12.9878C6.13734 12.9958 5.9 12.8998 5.7 12.6998Z" fill="black"/>
</svg>
