<svg width="24" height="24" viewBox="0 0 24 24" fill="none" xmlns="http://www.w3.org/2000/svg">
<path d="M10.6 14.25L8.45 12.1C8.26667 11.9167 8.03333 11.825 7.75 11.825C7.46667 11.825 7.23333 11.9167 7.05 12.1C6.86667 12.2833 6.775 12.5167 6.775 12.8C6.775 13.0833 6.86667 13.3167 7.05 13.5L9.9 16.35C10.0833 16.5333 10.3167 16.625 10.6 16.625C10.8833 16.625 11.1167 16.5333 11.3 16.35L16.95 10.7C17.1333 10.5167 17.225 10.2833 17.225 10C17.225 9.71667 17.1333 9.48333 16.95 9.3C16.7667 9.11667 16.5333 9.025 16.25 9.025C15.9667 9.025 15.7333 9.11667 15.55 9.3L10.6 14.25ZM5 22C4.45 22 3.979 21.8043 3.587 21.413C3.19567 21.021 3 20.55 3 20V6C3 5.45 3.19567 4.979 3.587 4.587C3.979 4.19567 4.45 4 5 4H9.2C9.41667 3.4 9.77933 2.91667 10.288 2.55C10.796 2.18333 11.3667 2 12 2C12.6333 2 13.2043 2.18333 13.713 2.55C14.221 2.91667 14.5833 3.4 14.8 4H19C19.55 4 20.021 4.19567 20.413 4.587C20.8043 4.979 21 5.45 21 6V20C21 20.55 20.8043 21.021 20.413 21.413C20.021 21.8043 19.55 22 19 22H5ZM12 5.25C12.2167 5.25 12.396 5.179 12.538 5.037C12.6793 4.89567 12.75 4.71667 12.75 4.5C12.75 4.28333 12.6793 4.104 12.538 3.962C12.396 3.82067 12.2167 3.75 12 3.75C11.7833 3.75 11.6043 3.82067 11.463 3.962C11.321 4.104 11.25 4.28333 11.25 4.5C11.25 4.71667 11.321 4.89567 11.463 5.037C11.6043 5.179 11.7833 5.25 12 5.25Z" fill="black"/>
</svg>
