<svg width="24" height="24" viewBox="0 0 24 24" fill="none" xmlns="http://www.w3.org/2000/svg">
<path d="M3 21.7992V2.19922C3.03333 2.19922 3.07933 2.20322 3.138 2.21122C3.196 2.21989 3.26667 2.26589 3.35 2.34922L4.15 3.14922C4.25 3.24922 4.36667 3.29922 4.5 3.29922C4.63333 3.29922 4.75 3.24922 4.85 3.14922L5.65 2.34922C5.75 2.24922 5.86667 2.19922 6 2.19922C6.13333 2.19922 6.25 2.24922 6.35 2.34922L7.15 3.14922C7.25 3.24922 7.36667 3.29922 7.5 3.29922C7.63333 3.29922 7.75 3.24922 7.85 3.14922L8.65 2.34922C8.75 2.24922 8.86667 2.19922 9 2.19922C9.13333 2.19922 9.25 2.24922 9.35 2.34922L10.15 3.14922C10.25 3.24922 10.3667 3.29922 10.5 3.29922C10.6333 3.29922 10.75 3.24922 10.85 3.14922L11.65 2.34922C11.75 2.24922 11.8667 2.19922 12 2.19922C12.1333 2.19922 12.25 2.24922 12.35 2.34922L13.15 3.14922C13.25 3.24922 13.3667 3.29922 13.5 3.29922C13.6333 3.29922 13.75 3.24922 13.85 3.14922L14.65 2.34922C14.75 2.24922 14.8667 2.19922 15 2.19922C15.1333 2.19922 15.25 2.24922 15.35 2.34922L16.15 3.14922C16.25 3.24922 16.3667 3.29922 16.5 3.29922C16.6333 3.29922 16.75 3.24922 16.85 3.14922L17.65 2.34922C17.75 2.24922 17.8667 2.19922 18 2.19922C18.1333 2.19922 18.25 2.24922 18.35 2.34922L19.15 3.14922C19.25 3.24922 19.3667 3.29922 19.5 3.29922C19.6333 3.29922 19.75 3.24922 19.85 3.14922L20.65 2.34922C20.7333 2.26589 20.8043 2.21989 20.863 2.21122C20.921 2.20322 20.9667 2.19922 21 2.19922V21.7992C20.9667 21.7992 20.921 21.7952 20.863 21.7872C20.8043 21.7786 20.7333 21.7326 20.65 21.6492L19.85 20.8492C19.75 20.7492 19.6333 20.6992 19.5 20.6992C19.3667 20.6992 19.25 20.7492 19.15 20.8492L18.35 21.6492C18.25 21.7492 18.1333 21.7992 18 21.7992C17.8667 21.7992 17.75 21.7492 17.65 21.6492L16.85 20.8492C16.75 20.7492 16.6333 20.6992 16.5 20.6992C16.3667 20.6992 16.25 20.7492 16.15 20.8492L15.35 21.6492C15.25 21.7492 15.1333 21.7992 15 21.7992C14.8667 21.7992 14.75 21.7492 14.65 21.6492L13.85 20.8492C13.75 20.7492 13.6333 20.6992 13.5 20.6992C13.3667 20.6992 13.25 20.7492 13.15 20.8492L12.35 21.6492C12.25 21.7492 12.1333 21.7992 12 21.7992C11.8667 21.7992 11.75 21.7492 11.65 21.6492L10.85 20.8492C10.75 20.7492 10.6333 20.6992 10.5 20.6992C10.3667 20.6992 10.25 20.7492 10.15 20.8492L9.35 21.6492C9.25 21.7492 9.13333 21.7992 9 21.7992C8.86667 21.7992 8.75 21.7492 8.65 21.6492L7.85 20.8492C7.75 20.7492 7.63333 20.6992 7.5 20.6992C7.36667 20.6992 7.25 20.7492 7.15 20.8492L6.35 21.6492C6.25 21.7492 6.13333 21.7992 6 21.7992C5.86667 21.7992 5.75 21.7492 5.65 21.6492L4.85 20.8492C4.75 20.7492 4.63333 20.6992 4.5 20.6992C4.36667 20.6992 4.25 20.7492 4.15 20.8492L3.35 21.6492C3.26667 21.7326 3.196 21.7786 3.138 21.7872C3.07933 21.7952 3.03333 21.7992 3 21.7992ZM7 16.9992H17C17.2833 16.9992 17.5207 16.9032 17.712 16.7112C17.904 16.5199 18 16.2826 18 15.9992C18 15.7159 17.904 15.4782 17.712 15.2862C17.5207 15.0949 17.2833 14.9992 17 14.9992H7C6.71667 14.9992 6.479 15.0949 6.287 15.2862C6.09567 15.4782 6 15.7159 6 15.9992C6 16.2826 6.09567 16.5199 6.287 16.7112C6.479 16.9032 6.71667 16.9992 7 16.9992ZM7 12.9992H17C17.2833 12.9992 17.5207 12.9032 17.712 12.7112C17.904 12.5199 18 12.2826 18 11.9992C18 11.7159 17.904 11.4782 17.712 11.2862C17.5207 11.0949 17.2833 10.9992 17 10.9992H7C6.71667 10.9992 6.479 11.0949 6.287 11.2862C6.09567 11.4782 6 11.7159 6 11.9992C6 12.2826 6.09567 12.5199 6.287 12.7112C6.479 12.9032 6.71667 12.9992 7 12.9992ZM7 8.99922H17C17.2833 8.99922 17.5207 8.90322 17.712 8.71122C17.904 8.51989 18 8.28255 18 7.99922C18 7.71589 17.904 7.47822 17.712 7.28622C17.5207 7.09489 17.2833 6.99922 17 6.99922H7C6.71667 6.99922 6.479 7.09489 6.287 7.28622C6.09567 7.47822 6 7.71589 6 7.99922C6 8.28255 6.09567 8.51989 6.287 8.71122C6.479 8.90322 6.71667 8.99922 7 8.99922Z" fill="black"/>
</svg>
