<svg width="24" height="24" viewBox="0 0 24 24" fill="none" xmlns="http://www.w3.org/2000/svg">
<path d="M6.69999 14.6998C6.51665 14.5165 6.42499 14.2831 6.42499 13.9998C6.42499 13.7165 6.51665 13.4831 6.69999 13.2998L11.3 8.6998C11.4 8.5998 11.5083 8.5288 11.625 8.4868C11.7417 8.44547 11.8667 8.4248 12 8.4248C12.1333 8.4248 12.2627 8.4498 12.388 8.4998C12.5127 8.5498 12.6167 8.61647 12.7 8.6998L17.3 13.2998C17.4833 13.4831 17.575 13.7165 17.575 13.9998C17.575 14.2831 17.4833 14.5165 17.3 14.6998C17.1167 14.8831 16.8833 14.9748 16.6 14.9748C16.3167 14.9748 16.0833 14.8831 15.9 14.6998L12 10.7998L8.09999 14.6998C7.91665 14.8831 7.68332 14.9748 7.39999 14.9748C7.11665 14.9748 6.88332 14.8831 6.69999 14.6998Z" fill="black"/>
</svg>
