<svg width="24" height="24" viewBox="0 0 24 24" fill="none" xmlns="http://www.w3.org/2000/svg">
<path d="M6.69999 11.6998C6.51665 11.5165 6.42499 11.2831 6.42499 10.9998C6.42499 10.7165 6.51665 10.4831 6.69999 10.2998L11.3 5.6998C11.4 5.5998 11.5083 5.52914 11.625 5.4878C11.7417 5.4458 11.8667 5.4248 12 5.4248C12.1333 5.4248 12.2583 5.4458 12.375 5.4878C12.4917 5.52914 12.6 5.5998 12.7 5.6998L17.3 10.2998C17.4833 10.4831 17.579 10.7121 17.587 10.9868C17.5957 11.2621 17.5 11.4998 17.3 11.6998C17.1167 11.8831 16.8833 11.9748 16.6 11.9748C16.3167 11.9748 16.0833 11.8831 15.9 11.6998L12 7.8248L8.09999 11.6998C7.91665 11.8831 7.68732 11.9791 7.41199 11.9878C7.13732 11.9958 6.89999 11.8998 6.69999 11.6998ZM6.69999 17.6998C6.51665 17.5165 6.42499 17.2831 6.42499 16.9998C6.42499 16.7165 6.51665 16.4831 6.69999 16.2998L11.3 11.6998C11.4 11.5998 11.5083 11.5288 11.625 11.4868C11.7417 11.4455 11.8667 11.4248 12 11.4248C12.1333 11.4248 12.2583 11.4455 12.375 11.4868C12.4917 11.5288 12.6 11.5998 12.7 11.6998L17.3 16.2998C17.4833 16.4831 17.579 16.7121 17.587 16.9868C17.5957 17.2621 17.5 17.4998 17.3 17.6998C17.1167 17.8831 16.8833 17.9748 16.6 17.9748C16.3167 17.9748 16.0833 17.8831 15.9 17.6998L12 13.8248L8.09999 17.6998C7.91665 17.8831 7.68732 17.9791 7.41199 17.9878C7.13732 17.9958 6.89999 17.8998 6.69999 17.6998Z" fill="black"/>
</svg>
