<svg width="24" height="24" viewBox="0 0 24 24" fill="none" xmlns="http://www.w3.org/2000/svg">
<path d="M4 23C3.71667 23 3.47917 22.9042 3.2875 22.7125C3.09583 22.5208 3 22.2833 3 22V2C3 1.71667 3.09583 1.47917 3.2875 1.2875C3.47917 1.09583 3.71667 1 4 1C4.28333 1 4.52083 1.09583 4.7125 1.2875C4.90417 1.47917 5 1.71667 5 2V3H19V2C19 1.71667 19.0958 1.47917 19.2875 1.2875C19.4792 1.09583 19.7167 1 20 1C20.2833 1 20.5208 1.09583 20.7125 1.2875C20.9042 1.47917 21 1.71667 21 2V22C21 22.2833 20.9042 22.5208 20.7125 22.7125C20.5208 22.9042 20.2833 23 20 23C19.7167 23 19.4792 22.9042 19.2875 22.7125C19.0958 22.5208 19 22.2833 19 22V21H5V22C5 22.2833 4.90417 22.5208 4.7125 22.7125C4.52083 22.9042 4.28333 23 4 23ZM5 11H7V8C7 7.71667 7.09583 7.47917 7.2875 7.2875C7.47917 7.09583 7.71667 7 8 7H12C12.2833 7 12.5208 7.09583 12.7125 7.2875C12.9042 7.47917 13 7.71667 13 8V11H19V5H5V11ZM5 19H11V16C11 15.7167 11.0958 15.4792 11.2875 15.2875C11.4792 15.0958 11.7167 15 12 15H16C16.2833 15 16.5208 15.0958 16.7125 15.2875C16.9042 15.4792 17 15.7167 17 16V19H19V13H5V19ZM9 11H11V9H9V11ZM13 19H15V17H13V19Z" fill="black"/>
</svg>
