<svg width="24" height="24" viewBox="0 0 24 24" fill="none" xmlns="http://www.w3.org/2000/svg">
<path d="M2 20C1.45 20 0.979333 19.8043 0.588 19.413C0.196 19.021 0 18.55 0 18H4C3.45 18 2.97933 17.8043 2.588 17.413C2.196 17.021 2 16.55 2 16V5C2 4.45 2.196 3.979 2.588 3.587C2.97933 3.19567 3.45 3 4 3H20C20.55 3 21.021 3.19567 21.413 3.587C21.8043 3.979 22 4.45 22 5V16C22 16.55 21.8043 17.021 21.413 17.413C21.021 17.8043 20.55 18 20 18H24C24 18.55 23.8043 19.021 23.413 19.413C23.021 19.8043 22.55 20 22 20H2ZM12 19C12.2833 19 12.521 18.904 12.713 18.712C12.9043 18.5207 13 18.2833 13 18C13 17.7167 12.9043 17.4793 12.713 17.288C12.521 17.096 12.2833 17 12 17C11.7167 17 11.4793 17.096 11.288 17.288C11.096 17.4793 11 17.7167 11 18C11 18.2833 11.096 18.5207 11.288 18.712C11.4793 18.904 11.7167 19 12 19Z" fill="black"/>
</svg>
