<svg width="24" height="24" viewBox="0 0 24 24" fill="none" xmlns="http://www.w3.org/2000/svg">
<path d="M5.82502 13L7.70002 14.9C7.88336 15.0834 7.97919 15.3125 7.98752 15.5875C7.99586 15.8625 7.90002 16.1 7.70002 16.3C7.51669 16.4834 7.28336 16.575 7.00002 16.575C6.71669 16.575 6.48336 16.4834 6.30002 16.3L2.70002 12.7C2.50002 12.5 2.40002 12.2667 2.40002 12C2.40002 11.7334 2.50002 11.5 2.70002 11.3L6.30002 7.70002C6.50002 7.50002 6.73336 7.40419 7.00002 7.41252C7.26669 7.42086 7.50002 7.52502 7.70002 7.72502C7.88336 7.92502 7.97919 8.15836 7.98752 8.42502C7.99586 8.69169 7.90002 8.92502 7.70002 9.12502L5.82502 11H18.15L16.275 9.12502C16.075 8.92502 15.975 8.68752 15.975 8.41252C15.975 8.13752 16.075 7.90002 16.275 7.70002C16.475 7.50002 16.7125 7.40002 16.9875 7.40002C17.2625 7.40002 17.5 7.50002 17.7 7.70002L21.3 11.3C21.5 11.5 21.6 11.7334 21.6 12C21.6 12.2667 21.5 12.5 21.3 12.7L17.7 16.3C17.5167 16.4834 17.2875 16.5792 17.0125 16.5875C16.7375 16.5959 16.5 16.5 16.3 16.3C16.1 16.1 15.9959 15.8625 15.9875 15.5875C15.9792 15.3125 16.075 15.075 16.275 14.875L18.15 13H5.82502Z" fill="black"/>
</svg>
