<svg width="24" height="24" viewBox="0 0 24 24" fill="none" xmlns="http://www.w3.org/2000/svg">
<path d="M11 21H5C4.45 21 3.979 20.8043 3.587 20.413C3.19567 20.021 3 19.55 3 19V5C3 4.45 3.19567 3.979 3.587 3.587C3.979 3.19567 4.45 3 5 3H9.175C9.35833 2.41667 9.71667 1.93733 10.25 1.562C10.7833 1.18733 11.3667 1 12 1C12.6667 1 13.2627 1.18733 13.788 1.562C14.3127 1.93733 14.6667 2.41667 14.85 3H19C19.55 3 20.021 3.19567 20.413 3.587C20.8043 3.979 21 4.45 21 5V10H19V5H17V6C17 6.55 16.8043 7.02067 16.413 7.412C16.021 7.804 15.55 8 15 8H9C8.45 8 7.97933 7.804 7.588 7.412C7.196 7.02067 7 6.55 7 6V5H5V19H11V21ZM15.5 17.125L20.45 12.175C20.6333 11.9917 20.8667 11.9 21.15 11.9C21.4333 11.9 21.6667 11.9917 21.85 12.175C22.0333 12.3583 22.125 12.5917 22.125 12.875C22.125 13.1583 22.0333 13.3917 21.85 13.575L16.2 19.225C16 19.425 15.7667 19.525 15.5 19.525C15.2333 19.525 15 19.425 14.8 19.225L11.95 16.375C11.7667 16.1917 11.675 15.9583 11.675 15.675C11.675 15.3917 11.7667 15.1583 11.95 14.975C12.1333 14.7917 12.3667 14.7 12.65 14.7C12.9333 14.7 13.1667 14.7917 13.35 14.975L15.5 17.125ZM12 5C12.2833 5 12.521 4.904 12.713 4.712C12.9043 4.52067 13 4.28333 13 4C13 3.71667 12.9043 3.479 12.713 3.287C12.521 3.09567 12.2833 3 12 3C11.7167 3 11.4793 3.09567 11.288 3.287C11.096 3.479 11 3.71667 11 4C11 4.28333 11.096 4.52067 11.288 4.712C11.4793 4.904 11.7167 5 12 5Z" fill="black"/>
</svg>
