<svg width="24" height="24" viewBox="0 0 24 24" fill="none" xmlns="http://www.w3.org/2000/svg">
<path d="M21.875 10.325C21.925 10.6083 21.9583 10.8873 21.975 11.162C21.9917 11.4373 22 11.7167 22 12C22 13.3833 21.7373 14.6833 21.212 15.9C20.6873 17.1167 19.975 18.175 19.075 19.075C18.175 19.975 17.1167 20.6873 15.9 21.212C14.6833 21.7373 13.3833 22 12 22C10.6167 22 9.31667 21.7373 8.1 21.212C6.88333 20.6873 5.825 19.975 4.925 19.075C4.025 18.175 3.31267 17.1167 2.788 15.9C2.26267 14.6833 2 13.3833 2 12C2 10.6167 2.26267 9.31667 2.788 8.1C3.31267 6.88333 4.025 5.825 4.925 4.925C5.825 4.025 6.88333 3.31233 8.1 2.787C9.31667 2.26233 10.6167 2 12 2C12.85 2 13.671 2.104 14.463 2.312C15.2543 2.52067 16 2.80833 16.7 3.175C16.95 3.30833 17.1043 3.51233 17.163 3.787C17.221 4.06233 17.1583 4.31667 16.975 4.55C16.8083 4.76667 16.5917 4.90833 16.325 4.975C16.0583 5.04167 15.8083 5.00833 15.575 4.875C15.0417 4.59167 14.471 4.375 13.863 4.225C13.2543 4.075 12.6333 4 12 4C9.78333 4 7.896 4.779 6.338 6.337C4.77933 7.89567 4 9.78333 4 12C4 14.2167 4.77933 16.1043 6.338 17.663C7.896 19.221 9.78333 20 12 20C14.2167 20 16.1043 19.221 17.663 17.663C19.221 16.1043 20 14.2167 20 12C20 11.7833 19.9917 11.5707 19.975 11.362C19.9583 11.154 19.9333 10.9417 19.9 10.725C19.8667 10.4917 19.9043 10.275 20.013 10.075C20.121 9.875 20.275 9.71667 20.475 9.6C20.7583 9.43333 21.046 9.429 21.338 9.587C21.6293 9.74567 21.8083 9.99167 21.875 10.325ZM9.9 15.9L7.025 13.025C6.84167 12.8417 6.75433 12.6123 6.763 12.337C6.771 12.0623 6.86667 11.8333 7.05 11.65C7.23333 11.4667 7.46667 11.375 7.75 11.375C8.03333 11.375 8.26667 11.4667 8.45 11.65L10.6 13.8L19.925 4.45C20.1083 4.26667 20.3377 4.179 20.613 4.187C20.8877 4.19567 21.1167 4.29167 21.3 4.475C21.4833 4.65833 21.575 4.89167 21.575 5.175C21.575 5.45833 21.4833 5.69167 21.3 5.875L11.3 15.9C11.1167 16.0833 10.8833 16.175 10.6 16.175C10.3167 16.175 10.0833 16.0833 9.9 15.9Z" fill="black"/>
</svg>
