<svg width="24" height="24" viewBox="0 0 24 24" fill="none" xmlns="http://www.w3.org/2000/svg">
<path d="M12 22.0008C9.66667 22.0008 7.65433 21.2341 5.963 19.7008C4.271 18.1674 3.3 16.2674 3.05 14.0008C3.01667 13.7341 3.096 13.5008 3.288 13.3008C3.47933 13.1008 3.71667 13.0008 4 13.0008C4.26667 13.0008 4.50433 13.0964 4.713 13.2878C4.921 13.4798 5.04167 13.7174 5.075 14.0008C5.30833 15.7174 6.075 17.1468 7.375 18.2888C8.675 19.4301 10.2167 20.0008 12 20.0008C13.95 20.0008 15.604 19.3214 16.962 17.9628C18.3207 16.6048 19 14.9508 19 13.0008C19 11.0508 18.3207 9.39645 16.962 8.03778C15.604 6.67978 13.95 6.00078 12 6.00078H11.85L12.725 6.87578C12.9083 7.05911 13 7.29245 13 7.57578C13 7.85911 12.9083 8.09245 12.725 8.27578C12.525 8.47578 12.2833 8.57578 12 8.57578C11.7167 8.57578 11.4833 8.47578 11.3 8.27578L8.7 5.70078C8.6 5.60078 8.52933 5.49245 8.488 5.37578C8.446 5.25911 8.425 5.13411 8.425 5.00078C8.425 4.86745 8.446 4.74245 8.488 4.62578C8.52933 4.50911 8.6 4.40078 8.7 4.30078L11.3 1.70078C11.4833 1.51745 11.7167 1.42578 12 1.42578C12.2833 1.42578 12.525 1.51745 12.725 1.70078C12.9083 1.90078 13 2.14245 13 2.42578C13 2.70911 12.9083 2.94245 12.725 3.12578L11.85 4.00078H12C13.25 4.00078 14.421 4.23845 15.513 4.71378C16.6043 5.18845 17.5543 5.82978 18.363 6.63778C19.171 7.44645 19.8127 8.39645 20.288 9.48778C20.7627 10.5798 21 11.7508 21 13.0008C21 14.2508 20.7627 15.4214 20.288 16.5128C19.8127 17.6048 19.171 18.5548 18.363 19.3628C17.5543 20.1714 16.6043 20.8134 15.513 21.2888C14.421 21.7634 13.25 22.0008 12 22.0008Z" fill="black"/>
</svg>
