<svg width="24" height="24" viewBox="0 0 24 24" fill="none" xmlns="http://www.w3.org/2000/svg">
<path d="M4 21V9L12 3L20 9V21H4ZM12 15C12.8333 15 13.5417 14.7083 14.125 14.125C14.7083 13.5417 15 12.8333 15 12C15 11.1667 14.7083 10.4583 14.125 9.875C13.5417 9.29167 12.8333 9 12 9C11.1667 9 10.4583 9.29167 9.875 9.875C9.29167 10.4583 9 11.1667 9 12C9 12.8333 9.29167 13.5417 9.875 14.125C10.4583 14.7083 11.1667 15 12 15ZM6 19H18V18.725C18 18.4917 17.9458 18.275 17.8375 18.075C17.7292 17.875 17.5833 17.7167 17.4 17.6C16.5833 17.0833 15.7208 16.6875 14.8125 16.4125C13.9042 16.1375 12.9667 16 12 16C11.0333 16 10.0958 16.1375 9.1875 16.4125C8.27917 16.6875 7.41667 17.0833 6.6 17.6C6.41667 17.7167 6.27083 17.875 6.1625 18.075C6.05417 18.275 6 18.4917 6 18.725V19Z" fill="black"/>
</svg>
