<svg width="24" height="24" viewBox="0 0 24 24" fill="none" xmlns="http://www.w3.org/2000/svg">
<path d="M19 8C19.2833 8 19.5207 7.90433 19.712 7.713C19.904 7.521 20 7.28333 20 7V5H22C22.2833 5 22.5207 4.904 22.712 4.712C22.904 4.52067 23 4.28333 23 4C23 3.71667 22.904 3.479 22.712 3.287C22.5207 3.09567 22.2833 3 22 3H20V1C20 0.716667 19.904 0.479 19.712 0.287C19.5207 0.0956667 19.2833 0 19 0C18.7167 0 18.4793 0.0956667 18.288 0.287C18.096 0.479 18 0.716667 18 1V3H16C15.7167 3 15.4793 3.09567 15.288 3.287C15.096 3.479 15 3.71667 15 4C15 4.28333 15.096 4.52067 15.288 4.712C15.4793 4.904 15.7167 5 16 5H18V7C18 7.28333 18.096 7.521 18.288 7.713C18.4793 7.90433 18.7167 8 19 8ZM12 12C12.55 12 13.021 11.804 13.413 11.412C13.8043 11.0207 14 10.55 14 10C14 9.45 13.8043 8.979 13.413 8.587C13.021 8.19567 12.55 8 12 8C11.45 8 10.9793 8.19567 10.588 8.587C10.196 8.979 10 9.45 10 10C10 10.55 10.196 11.0207 10.588 11.412C10.9793 11.804 11.45 12 12 12ZM12 21.625C11.8667 21.625 11.7333 21.6 11.6 21.55C11.4667 21.5 11.35 21.4333 11.25 21.35C8.81667 19.2 7 17.2043 5.8 15.363C4.6 13.521 4 11.8 4 10.2C4 7.7 4.80433 5.70833 6.413 4.225C8.021 2.74167 9.88333 2 12 2C12.4667 2 12.9293 2.03733 13.388 2.112C13.846 2.18733 14.2917 2.30833 14.725 2.475C14.5083 2.64167 14.3333 2.85833 14.2 3.125C14.0667 3.39167 14 3.68333 14 4C14 4.55 14.196 5.02067 14.588 5.412C14.9793 5.804 15.45 6 16 6H17V7C17 7.55 17.1957 8.02067 17.587 8.412C17.979 8.804 18.45 9 19 9C19.1667 9 19.325 8.98333 19.475 8.95C19.625 8.91667 19.7667 8.86667 19.9 8.8C19.9333 9.03333 19.9583 9.26667 19.975 9.5C19.9917 9.73333 20 9.96667 20 10.2C20 11.8 19.4 13.521 18.2 15.363C17 17.2043 15.1833 19.2 12.75 21.35C12.65 21.4333 12.5333 21.5 12.4 21.55C12.2667 21.6 12.1333 21.625 12 21.625Z" fill="black"/>
</svg>
