<svg width="24" height="24" viewBox="0 0 24 24" fill="none" xmlns="http://www.w3.org/2000/svg">
<path d="M5.70002 17.2998C5.51668 17.1165 5.42502 16.8831 5.42502 16.5998C5.42502 16.3165 5.51668 16.0831 5.70002 15.8998L9.57502 11.9998L5.70002 8.0998C5.51668 7.91647 5.42102 7.68714 5.41302 7.4118C5.40435 7.13714 5.50002 6.8998 5.70002 6.6998C5.88335 6.51647 6.11668 6.4248 6.40002 6.4248C6.68335 6.4248 6.91668 6.51647 7.10002 6.6998L11.7 11.2998C11.8 11.3998 11.871 11.5081 11.913 11.6248C11.9543 11.7415 11.975 11.8665 11.975 11.9998C11.975 12.1331 11.9543 12.2581 11.913 12.3748C11.871 12.4915 11.8 12.5998 11.7 12.6998L7.10002 17.2998C6.91668 17.4831 6.68735 17.5788 6.41202 17.5868C6.13735 17.5955 5.90002 17.4998 5.70002 17.2998ZM12.3 17.2998C12.1167 17.1165 12.025 16.8831 12.025 16.5998C12.025 16.3165 12.1167 16.0831 12.3 15.8998L16.175 11.9998L12.3 8.0998C12.1167 7.91647 12.0207 7.68714 12.012 7.4118C12.004 7.13714 12.1 6.8998 12.3 6.6998C12.4833 6.51647 12.7167 6.4248 13 6.4248C13.2833 6.4248 13.5167 6.51647 13.7 6.6998L18.3 11.2998C18.4 11.3998 18.4707 11.5081 18.512 11.6248C18.554 11.7415 18.575 11.8665 18.575 11.9998C18.575 12.1331 18.554 12.2581 18.512 12.3748C18.4707 12.4915 18.4 12.5998 18.3 12.6998L13.7 17.2998C13.5167 17.4831 13.2877 17.5788 13.013 17.5868C12.7377 17.5955 12.5 17.4998 12.3 17.2998Z" fill="black"/>
</svg>
