<svg width="24" height="24" viewBox="0 0 24 24" fill="none" xmlns="http://www.w3.org/2000/svg">
<path d="M5.82502 13L7.70002 14.9C7.88336 15.0834 7.97919 15.3125 7.98752 15.5875C7.99586 15.8625 7.90002 16.1 7.70002 16.3C7.51669 16.4834 7.28336 16.575 7.00002 16.575C6.71669 16.575 6.48336 16.4834 6.30002 16.3L2.70002 12.7C2.50002 12.5 2.40002 12.2667 2.40002 12C2.40002 11.7334 2.50002 11.5 2.70002 11.3L6.30002 7.70005C6.48336 7.51672 6.71252 7.42505 6.98752 7.42505C7.26252 7.42505 7.50002 7.51672 7.70002 7.70005C7.90002 7.90005 8.00002 8.13755 8.00002 8.41255C8.00002 8.68755 7.90002 8.92505 7.70002 9.12505L5.82502 11H10C10.2834 11 10.5209 11.0959 10.7125 11.2875C10.9042 11.4792 11 11.7167 11 12C11 12.2834 10.9042 12.5209 10.7125 12.7125C10.5209 12.9042 10.2834 13 10 13H5.82502ZM18.175 13H14C13.7167 13 13.4792 12.9042 13.2875 12.7125C13.0959 12.5209 13 12.2834 13 12C13 11.7167 13.0959 11.4792 13.2875 11.2875C13.4792 11.0959 13.7167 11 14 11L18.2 10.975L16.3 9.10005C16.1167 8.91672 16.025 8.68338 16.025 8.40005C16.025 8.11672 16.1167 7.88338 16.3 7.70005C16.4834 7.51672 16.7167 7.42505 17 7.42505C17.2834 7.42505 17.5167 7.51672 17.7 7.70005L21.3 11.3C21.5 11.5 21.6 11.7334 21.6 12C21.6 12.2667 21.5 12.5 21.3 12.7L17.7 16.3C17.5 16.5 17.2667 16.5959 17 16.5875C16.7334 16.5792 16.5 16.475 16.3 16.275C16.1167 16.075 16.0209 15.8417 16.0125 15.575C16.0042 15.3084 16.1 15.075 16.3 14.875L18.175 13Z" fill="black"/>
</svg>
