<svg width="24" height="24" viewBox="0 0 24 24" fill="none" xmlns="http://www.w3.org/2000/svg">
<path d="M17.275 18.125L16.85 17.7C16.7 17.55 16.5208 17.475 16.3125 17.475C16.1042 17.475 15.925 17.55 15.775 17.7C15.625 17.85 15.55 18.025 15.55 18.225C15.55 18.425 15.625 18.6 15.775 18.75L16.75 19.725C16.9 19.875 17.075 19.95 17.275 19.95C17.475 19.95 17.65 19.875 17.8 19.725L20.225 17.35C20.375 17.2 20.45 17.0208 20.45 16.8125C20.45 16.6042 20.375 16.425 20.225 16.275C20.075 16.125 19.8958 16.05 19.6875 16.05C19.4792 16.05 19.3 16.125 19.15 16.275L17.275 18.125ZM17 9C17.2833 9 17.5208 8.90417 17.7125 8.7125C17.9042 8.52083 18 8.28333 18 8C18 7.71667 17.9042 7.47917 17.7125 7.2875C17.5208 7.09583 17.2833 7 17 7H7C6.71667 7 6.47917 7.09583 6.2875 7.2875C6.09583 7.47917 6 7.71667 6 8C6 8.28333 6.09583 8.52083 6.2875 8.7125C6.47917 8.90417 6.71667 9 7 9H17ZM18 23C16.6167 23 15.4375 22.5125 14.4625 21.5375C13.4875 20.5625 13 19.3833 13 18C13 16.6167 13.4875 15.4375 14.4625 14.4625C15.4375 13.4875 16.6167 13 18 13C19.3833 13 20.5625 13.4875 21.5375 14.4625C22.5125 15.4375 23 16.6167 23 18C23 19.3833 22.5125 20.5625 21.5375 21.5375C20.5625 22.5125 19.3833 23 18 23ZM5 3H19C19.55 3 20.0208 3.19583 20.4125 3.5875C20.8042 3.97917 21 4.45 21 5V11.675C20.5333 11.4417 20.0458 11.2708 19.5375 11.1625C19.0292 11.0542 18.5167 11 18 11H7C6.71667 11 6.47917 11.0958 6.2875 11.2875C6.09583 11.4792 6 11.7167 6 12C6 12.2833 6.09583 12.5208 6.2875 12.7125C6.47917 12.9042 6.71667 13 7 13H13.1C12.8167 13.2833 12.5542 13.5917 12.3125 13.925C12.0708 14.2583 11.8583 14.6167 11.675 15H7C6.71667 15 6.47917 15.0958 6.2875 15.2875C6.09583 15.4792 6 15.7167 6 16C6 16.2833 6.09583 16.5208 6.2875 16.7125C6.47917 16.9042 6.71667 17 7 17H11.075C11.0417 17.1667 11.0208 17.3292 11.0125 17.4875C11.0042 17.6458 11 17.8167 11 18C11 18.7 11.0958 19.3708 11.2875 20.0125C11.4792 20.6542 11.7667 21.2667 12.15 21.85C12.0667 21.8667 11.9792 21.8542 11.8875 21.8125C11.7958 21.7708 11.7167 21.7167 11.65 21.65L10.85 20.85C10.75 20.75 10.6333 20.7 10.5 20.7C10.3667 20.7 10.25 20.75 10.15 20.85L9.35 21.65C9.25 21.75 9.13333 21.8 9 21.8C8.86667 21.8 8.75 21.75 8.65 21.65L7.85 20.85C7.75 20.75 7.63333 20.7 7.5 20.7C7.36667 20.7 7.25 20.75 7.15 20.85L6.35 21.65C6.25 21.75 6.13333 21.8 6 21.8C5.86667 21.8 5.75 21.75 5.65 21.65L4.85 20.85C4.75 20.75 4.63333 20.7 4.5 20.7C4.36667 20.7 4.25 20.75 4.15 20.85L3.35 21.65L3 21.875V5C3 4.45 3.19583 3.97917 3.5875 3.5875C3.97917 3.19583 4.45 3 5 3Z" fill="black"/>
</svg>
