<svg width="24" height="24" viewBox="0 0 24 24" fill="none" xmlns="http://www.w3.org/2000/svg">
<path d="M7.82499 9.99999L10.7 12.875C10.8833 13.0583 10.975 13.2875 10.975 13.5625C10.975 13.8375 10.8833 14.075 10.7 14.275C10.5 14.475 10.2625 14.575 9.98749 14.575C9.71249 14.575 9.47499 14.475 9.27499 14.275L4.69999 9.69999C4.49999 9.49999 4.39999 9.26665 4.39999 8.99999C4.39999 8.73332 4.49999 8.49999 4.69999 8.29999L9.29999 3.69999C9.48333 3.51665 9.71249 3.42082 9.98749 3.41249C10.2625 3.40415 10.5 3.49999 10.7 3.69999C10.8833 3.88332 10.975 4.11665 10.975 4.39999C10.975 4.68332 10.8833 4.91665 10.7 5.09999L7.82499 7.99999H17C17.55 7.99999 18.0208 8.19582 18.4125 8.58749C18.8042 8.97915 19 9.44999 19 9.99999V19C19 19.2833 18.9042 19.5208 18.7125 19.7125C18.5208 19.9042 18.2833 20 18 20C17.7167 20 17.4792 19.9042 17.2875 19.7125C17.0958 19.5208 17 19.2833 17 19V9.99999H7.82499Z" fill="black"/>
</svg>
