<svg width="24" height="24" viewBox="0 0 24 24" fill="none" xmlns="http://www.w3.org/2000/svg">
<path d="M19 9L17.75 6.25L15 5L17.75 3.75L19 1L20.25 3.75L23 5L20.25 6.25L19 9ZM19 23L17.75 20.25L15 19L17.75 17.75L19 15L20.25 17.75L23 19L20.25 20.25L19 23ZM4.8 16H6.7L7.4 14H10.6L11.3 16H13.2L10 7H8L4.8 16ZM7.85 12.65L9 9L10.15 12.65H7.85ZM9 20C6.76667 20 4.875 19.225 3.325 17.675C1.775 16.125 1 14.2333 1 12C1 9.76667 1.775 7.875 3.325 6.325C4.875 4.775 6.76667 4 9 4C11.2333 4 13.125 4.775 14.675 6.325C16.225 7.875 17 9.76667 17 12C17 14.2333 16.225 16.125 14.675 17.675C13.125 19.225 11.2333 20 9 20Z" fill="black"/>
</svg>
