<svg width="24" height="24" viewBox="0 0 24 24" fill="none" xmlns="http://www.w3.org/2000/svg">
<path d="M10.05 13.9504L3.65 11.3504C3.46667 11.2671 3.31267 11.1421 3.188 10.9754C3.06267 10.8087 3 10.6171 3 10.4004C3 10.1837 3.05833 9.99206 3.175 9.82539C3.29167 9.65872 3.45 9.53372 3.65 9.45039L18.95 3.77539C19.15 3.69206 19.3417 3.67539 19.525 3.72539C19.7083 3.77539 19.8667 3.86706 20 4.00039C20.1333 4.13372 20.225 4.29206 20.275 4.47539C20.325 4.65872 20.3083 4.85039 20.225 5.05039L14.55 20.3504C14.4667 20.5671 14.3377 20.7294 14.163 20.8374C13.9877 20.9461 13.8083 21.0004 13.625 21.0004C13.4417 21.0004 13.2583 20.9461 13.075 20.8374C12.8917 20.7294 12.75 20.5671 12.65 20.3504L10.05 13.9504Z" fill="black"/>
</svg>
