<svg width="24" height="24" viewBox="0 0 24 24" fill="none" xmlns="http://www.w3.org/2000/svg">
<path d="M4.475 14.6998C4.30833 14.2665 4.18767 13.8288 4.113 13.3868C4.03767 12.9455 4 12.4998 4 12.0498C4 9.81647 4.775 7.91647 6.325 6.3498C7.875 4.78314 9.76667 3.9998 12 3.9998H12.175L11.275 3.0998C11.0917 2.91647 11 2.68314 11 2.3998C11 2.11647 11.0917 1.88314 11.275 1.6998C11.4583 1.51647 11.6917 1.4248 11.975 1.4248C12.2583 1.4248 12.4917 1.51647 12.675 1.6998L15.275 4.2998C15.375 4.3998 15.446 4.50814 15.488 4.6248C15.5293 4.74147 15.55 4.86647 15.55 4.9998C15.55 5.13314 15.5293 5.25814 15.488 5.3748C15.446 5.49147 15.375 5.5998 15.275 5.6998L12.675 8.2998C12.4917 8.48314 12.2583 8.5748 11.975 8.5748C11.6917 8.5748 11.4583 8.48314 11.275 8.2998C11.0917 8.11647 11 7.88314 11 7.5998C11 7.31647 11.0917 7.08314 11.275 6.89981L12.175 5.9998H12C10.3333 5.9998 8.91667 6.58714 7.75 7.7618C6.58333 8.93714 6 10.3665 6 12.0498C6 12.3831 6.02933 12.7081 6.088 13.0248C6.146 13.3415 6.23333 13.6581 6.35 13.9748C6.41667 14.1415 6.43333 14.3205 6.4 14.5118C6.36667 14.7038 6.28333 14.8665 6.15 14.9998C5.85 15.2998 5.52933 15.4208 5.188 15.3628C4.846 15.3041 4.60833 15.0831 4.475 14.6998ZM11.325 22.2998L8.725 19.6998C8.625 19.5998 8.55433 19.4915 8.513 19.3748C8.471 19.2581 8.45 19.1331 8.45 18.9998C8.45 18.8665 8.471 18.7415 8.513 18.6248C8.55433 18.5081 8.625 18.3998 8.725 18.2998L11.325 15.6998C11.5083 15.5165 11.7417 15.4248 12.025 15.4248C12.3083 15.4248 12.5417 15.5165 12.725 15.6998C12.9083 15.8831 13 16.1165 13 16.3998C13 16.6831 12.9083 16.9165 12.725 17.0998L11.825 17.9998H12C13.6667 17.9998 15.0833 17.4125 16.25 16.2378C17.4167 15.0625 18 13.6331 18 11.9498C18 11.6165 17.971 11.2915 17.913 10.9748C17.8543 10.6581 17.7667 10.3415 17.65 10.0248C17.5833 9.85814 17.5667 9.67881 17.6 9.4868C17.6333 9.29547 17.7167 9.13314 17.85 8.9998C18.15 8.6998 18.4707 8.5788 18.812 8.6368C19.154 8.69547 19.3917 8.91647 19.525 9.2998C19.6917 9.73314 19.8127 10.1705 19.888 10.6118C19.9627 11.0538 20 11.4998 20 11.9498C20 14.1831 19.225 16.0831 17.675 17.6498C16.125 19.2165 14.2333 19.9998 12 19.9998H11.825L12.725 20.8998C12.9083 21.0831 13 21.3165 13 21.5998C13 21.8831 12.9083 22.1165 12.725 22.2998C12.5417 22.4831 12.3083 22.5748 12.025 22.5748C11.7417 22.5748 11.5083 22.4831 11.325 22.2998Z" fill="black"/>
</svg>
