<svg width="24" height="24" viewBox="0 0 24 24" fill="none" xmlns="http://www.w3.org/2000/svg">
<path d="M6 22C5.45 22 4.97933 21.8043 4.588 21.413C4.196 21.021 4 20.55 4 20V4C4 3.45 4.196 2.979 4.588 2.587C4.97933 2.19567 5.45 2 6 2H13.175C13.4417 2 13.696 2.05 13.938 2.15C14.1793 2.25 14.3917 2.39167 14.575 2.575L19.425 7.425C19.6083 7.60833 19.75 7.82067 19.85 8.062C19.95 8.304 20 8.55833 20 8.825V20C20 20.55 19.8043 21.021 19.413 21.413C19.021 21.8043 18.55 22 18 22H6ZM13 8C13 8.28333 13.096 8.52067 13.288 8.712C13.4793 8.904 13.7167 9 14 9H18L13 4V8ZM11 15V17C11 17.2833 11.096 17.5207 11.288 17.712C11.4793 17.904 11.7167 18 12 18C12.2833 18 12.521 17.904 12.713 17.712C12.9043 17.5207 13 17.2833 13 17V15H15C15.2833 15 15.521 14.904 15.713 14.712C15.9043 14.5207 16 14.2833 16 14C16 13.7167 15.9043 13.479 15.713 13.287C15.521 13.0957 15.2833 13 15 13H13V11C13 10.7167 12.9043 10.479 12.713 10.287C12.521 10.0957 12.2833 10 12 10C11.7167 10 11.4793 10.0957 11.288 10.287C11.096 10.479 11 10.7167 11 11V13H9C8.71667 13 8.47933 13.0957 8.288 13.287C8.096 13.479 8 13.7167 8 14C8 14.2833 8.096 14.5207 8.288 14.712C8.47933 14.904 8.71667 15 9 15H11Z" fill="black"/>
</svg>
