<svg width="24" height="24" viewBox="0 0 24 24" fill="none" xmlns="http://www.w3.org/2000/svg">
<path d="M5 21C4.45 21 3.979 20.8043 3.587 20.413C3.19567 20.021 3 19.55 3 19V5C3 4.45 3.19567 3.979 3.587 3.587C3.979 3.19567 4.45 3 5 3H19C19.55 3 20.021 3.19567 20.413 3.587C20.8043 3.979 21 4.45 21 5V19C21 19.55 20.8043 20.021 20.413 20.413C20.021 20.8043 19.55 21 19 21H5ZM12 16C12.5333 16 13.025 15.8623 13.475 15.587C13.925 15.3123 14.2917 14.95 14.575 14.5C14.675 14.35 14.8 14.229 14.95 14.137C15.1 14.0457 15.2667 14 15.45 14H19V5H5V14H8.55C8.73333 14 8.9 14.0457 9.05 14.137C9.2 14.229 9.325 14.35 9.425 14.5C9.70833 14.95 10.075 15.3123 10.525 15.587C10.975 15.8623 11.4667 16 12 16Z" fill="black"/>
</svg>
