<svg width="24" height="24" viewBox="0 0 24 24" fill="none" xmlns="http://www.w3.org/2000/svg">
<path d="M13.3 17.27C13.1 17.07 13.004 16.8284 13.012 16.545C13.0207 16.2617 13.125 16.02 13.325 15.82L16.15 12.995H5C4.71667 12.995 4.479 12.899 4.287 12.707C4.09567 12.5157 4 12.2784 4 11.995C4 11.7117 4.09567 11.474 4.287 11.282C4.479 11.0907 4.71667 10.995 5 10.995H16.15L13.3 8.14504C13.1 7.94504 13 7.70738 13 7.43204C13 7.15738 13.1 6.92004 13.3 6.72004C13.5 6.52004 13.7377 6.42004 14.013 6.42004C14.2877 6.42004 14.525 6.52004 14.725 6.72004L19.3 11.295C19.4 11.395 19.471 11.5034 19.513 11.62C19.5543 11.7367 19.575 11.8617 19.575 11.995C19.575 12.1284 19.5543 12.2534 19.513 12.37C19.471 12.4867 19.4 12.595 19.3 12.695L14.7 17.295C14.5167 17.4784 14.2877 17.57 14.013 17.57C13.7377 17.57 13.5 17.47 13.3 17.27Z" fill="black"/>
</svg>
