<svg width="24" height="24" viewBox="0 0 24 24" fill="none" xmlns="http://www.w3.org/2000/svg">
<path d="M16.9 17.2996L12.3 12.6996C12.2 12.5996 12.1293 12.4913 12.088 12.3746C12.046 12.2579 12.025 12.1329 12.025 11.9996C12.025 11.8663 12.046 11.7413 12.088 11.6246C12.1293 11.5079 12.2 11.3996 12.3 11.2996L16.9 6.69959C17.0833 6.51626 17.3123 6.42026 17.587 6.41159C17.8623 6.40359 18.1 6.49959 18.3 6.69959C18.4833 6.88293 18.575 7.11626 18.575 7.39959C18.575 7.68293 18.4833 7.91626 18.3 8.09959L14.425 11.9996L18.3 15.8996C18.4833 16.0829 18.579 16.3119 18.587 16.5866C18.5957 16.8619 18.5 17.0996 18.3 17.2996C18.1167 17.4829 17.8833 17.5746 17.6 17.5746C17.3167 17.5746 17.0833 17.4829 16.9 17.2996ZM10.3 17.2996L5.69999 12.6996C5.59999 12.5996 5.52932 12.4913 5.48799 12.3746C5.44599 12.2579 5.42499 12.1329 5.42499 11.9996C5.42499 11.8663 5.44599 11.7413 5.48799 11.6246C5.52932 11.5079 5.59999 11.3996 5.69999 11.2996L10.3 6.69959C10.4833 6.51626 10.7127 6.42026 10.988 6.41159C11.2627 6.40359 11.5 6.49959 11.7 6.69959C11.8833 6.88293 11.975 7.11626 11.975 7.39959C11.975 7.68293 11.8833 7.91626 11.7 8.09959L7.82499 11.9996L11.7 15.8996C11.8833 16.0829 11.9793 16.3119 11.988 16.5866C11.996 16.8619 11.9 17.0996 11.7 17.2996C11.5167 17.4829 11.2833 17.5746 11 17.5746C10.7167 17.5746 10.4833 17.4829 10.3 17.2996Z" fill="black"/>
</svg>
