<svg width="24" height="24" viewBox="0 0 24 24" fill="none" xmlns="http://www.w3.org/2000/svg">
<path d="M11.3 16.3C11.4833 16.4833 11.7167 16.575 12 16.575C12.2833 16.575 12.5167 16.4833 12.7 16.3L15.3 13.7C15.4833 13.5167 15.575 13.2833 15.575 13C15.575 12.7167 15.4833 12.4833 15.3 12.3C15.1167 12.1167 14.8877 12.0207 14.613 12.012C14.3377 12.004 14.1 12.0917 13.9 12.275L13 13.15V10C13 9.71667 12.9043 9.479 12.713 9.287C12.521 9.09567 12.2833 9 12 9C11.7167 9 11.4793 9.09567 11.288 9.287C11.096 9.479 11 9.71667 11 10V13.15L10.1 12.275C9.9 12.0917 9.66233 12.004 9.387 12.012C9.11233 12.0207 8.88333 12.1167 8.7 12.3C8.51667 12.4833 8.425 12.7167 8.425 13C8.425 13.2833 8.51667 13.5167 8.7 13.7L11.3 16.3ZM5 22C4.45 22 3.979 21.8043 3.587 21.413C3.19567 21.021 3 20.55 3 20V6C3 5.45 3.19567 4.979 3.587 4.587C3.979 4.19567 4.45 4 5 4H9.2C9.41667 3.4 9.77933 2.91667 10.288 2.55C10.796 2.18333 11.3667 2 12 2C12.6333 2 13.2043 2.18333 13.713 2.55C14.221 2.91667 14.5833 3.4 14.8 4H19C19.55 4 20.021 4.19567 20.413 4.587C20.8043 4.979 21 5.45 21 6V20C21 20.55 20.8043 21.021 20.413 21.413C20.021 21.8043 19.55 22 19 22H5ZM12 5.25C12.2167 5.25 12.396 5.179 12.538 5.037C12.6793 4.89567 12.75 4.71667 12.75 4.5C12.75 4.28333 12.6793 4.104 12.538 3.962C12.396 3.82067 12.2167 3.75 12 3.75C11.7833 3.75 11.6043 3.82067 11.463 3.962C11.321 4.104 11.25 4.28333 11.25 4.5C11.25 4.71667 11.321 4.89567 11.463 5.037C11.6043 5.179 11.7833 5.25 12 5.25Z" fill="black"/>
</svg>
