<svg width="24" height="24" viewBox="0 0 24 24" fill="none" xmlns="http://www.w3.org/2000/svg">
<path d="M19 22C17.9 22 16.9583 21.6083 16.175 20.825C15.3917 20.0417 15 19.1 15 18V13.5C15 12.8 15.2417 12.2083 15.725 11.725C16.2083 11.2417 16.8 11 17.5 11C18.2 11 18.7917 11.2417 19.275 11.725C19.7583 12.2083 20 12.8 20 13.5V17C20 17.2833 19.904 17.5207 19.712 17.712C19.5207 17.904 19.2833 18 19 18C18.7167 18 18.4793 17.904 18.288 17.712C18.096 17.5207 18 17.2833 18 17V13.5C18 13.3667 17.95 13.25 17.85 13.15C17.75 13.05 17.6333 13 17.5 13C17.3667 13 17.25 13.05 17.15 13.15C17.05 13.25 17 13.3667 17 13.5V18C17 18.55 17.1957 19.021 17.587 19.413C17.979 19.8043 18.45 20 19 20C19.55 20 20.021 19.8043 20.413 19.413C20.8043 19.021 21 18.55 21 18V15C21 14.7167 21.096 14.479 21.288 14.287C21.4793 14.0957 21.7167 14 22 14C22.2833 14 22.5207 14.0957 22.712 14.287C22.904 14.479 23 14.7167 23 15V18C23 19.1 22.6083 20.0417 21.825 20.825C21.0417 21.6083 20.1 22 19 22ZM3 18C2.45 18 1.97933 17.8043 1.588 17.413C1.196 17.021 1 16.55 1 16V4C1 3.45 1.196 2.979 1.588 2.587C1.97933 2.19567 2.45 2 3 2H19C19.55 2 20.021 2.19567 20.413 2.587C20.8043 2.979 21 3.45 21 4V10H17.5C16.5333 10 15.7083 10.3417 15.025 11.025C14.3417 11.7083 14 12.5333 14 13.5V18H3ZM11 10.825C11.0833 10.825 11.1707 10.8123 11.262 10.787C11.354 10.7623 11.4417 10.725 11.525 10.675L18.6 6.25C18.7167 6.18333 18.8127 6.08733 18.888 5.962C18.9627 5.83733 19 5.69167 19 5.525C19 5.225 18.8667 4.98333 18.6 4.8C18.3333 4.61667 18.0333 4.61667 17.7 4.8L11 9L4.3 4.8C3.98333 4.6 3.68767 4.59167 3.413 4.775C3.13767 4.95833 3 5.20833 3 5.525C3 5.69167 3.03733 5.83733 3.112 5.962C3.18733 6.08733 3.28333 6.18333 3.4 6.25L10.475 10.675C10.5583 10.725 10.646 10.7623 10.738 10.787C10.8293 10.8123 10.9167 10.825 11 10.825Z" fill="black"/>
</svg>
