<svg width="24" height="24" viewBox="0 0 24 24" fill="none" xmlns="http://www.w3.org/2000/svg">
<path d="M19.8 18H16.625C16.3417 18 16.1042 17.9042 15.9125 17.7125C15.7208 17.5208 15.625 17.2833 15.625 17C15.625 16.7167 15.7208 16.4792 15.9125 16.2875C16.1042 16.0958 16.3417 16 16.625 16H19.8L18.9 15.1C18.8 15 18.7292 14.8917 18.6875 14.775C18.6458 14.6583 18.625 14.5375 18.625 14.4125C18.625 14.2875 18.65 14.1625 18.7 14.0375C18.75 13.9125 18.825 13.8 18.925 13.7C19.1083 13.5167 19.3417 13.425 19.625 13.425C19.9083 13.425 20.1417 13.5167 20.325 13.7L22.925 16.3C23.125 16.5 23.225 16.7333 23.225 17C23.225 17.2667 23.125 17.5 22.925 17.7L20.325 20.3C20.1417 20.4833 19.9125 20.5792 19.6375 20.5875C19.3625 20.5958 19.125 20.5 18.925 20.3C18.825 20.2 18.7542 20.0917 18.7125 19.975C18.6708 19.8583 18.65 19.7333 18.65 19.6C18.65 19.4667 18.6708 19.3417 18.7125 19.225C18.7542 19.1083 18.825 19 18.925 18.9L19.8 18ZM8.375 15C9.30833 15 10.15 14.7708 10.9 14.3125C11.65 13.8542 12.2417 13.25 12.675 12.5C12.0917 12.0167 11.4333 11.6458 10.7 11.3875C9.96667 11.1292 9.19167 11 8.375 11C7.55833 11 6.78333 11.1292 6.05 11.3875C5.31667 11.6458 4.65833 12.0167 4.075 12.5C4.50833 13.25 5.1 13.8542 5.85 14.3125C6.6 14.7708 7.44167 15 8.375 15ZM8.375 10C8.925 10 9.39583 9.80417 9.7875 9.4125C10.1792 9.02083 10.375 8.55 10.375 8C10.375 7.45 10.1792 6.97917 9.7875 6.5875C9.39583 6.19583 8.925 6 8.375 6C7.825 6 7.35417 6.19583 6.9625 6.5875C6.57083 6.97917 6.375 7.45 6.375 8C6.375 8.55 6.57083 9.02083 6.9625 9.4125C7.35417 9.80417 7.825 10 8.375 10ZM8.375 21.625C8.24167 21.625 8.10833 21.6 7.975 21.55C7.84167 21.5 7.725 21.4333 7.625 21.35C5.19167 19.2 3.375 17.2042 2.175 15.3625C0.975 13.5208 0.375 11.8 0.375 10.2C0.375 7.7 1.17917 5.70833 2.7875 4.225C4.39583 2.74167 6.25833 2 8.375 2C10.4917 2 12.3542 2.74167 13.9625 4.225C15.5708 5.70833 16.375 7.7 16.375 10.2C16.375 11.8 15.775 13.5208 14.575 15.3625C13.375 17.2042 11.5583 19.2 9.125 21.35C9.025 21.4333 8.90833 21.5 8.775 21.55C8.64167 21.6 8.50833 21.625 8.375 21.625Z" fill="black"/>
</svg>
