<svg width="24" height="24" viewBox="0 0 24 24" fill="none" xmlns="http://www.w3.org/2000/svg">
<path d="M16 8.4L7.12499 17.3C6.92499 17.5 6.68749 17.6 6.41249 17.6C6.13749 17.6 5.89999 17.5 5.69999 17.3C5.49999 17.1 5.39999 16.8625 5.39999 16.5875C5.39999 16.3125 5.49999 16.075 5.69999 15.875L14.6 7H6.99999C6.71666 7 6.47916 6.90417 6.28749 6.7125C6.09583 6.52083 5.99999 6.28333 5.99999 6C5.99999 5.71667 6.09583 5.47917 6.28749 5.2875C6.47916 5.09583 6.71666 5 6.99999 5H17C17.2833 5 17.5208 5.09583 17.7125 5.2875C17.9042 5.47917 18 5.71667 18 6V16C18 16.2833 17.9042 16.5208 17.7125 16.7125C17.5208 16.9042 17.2833 17 17 17C16.7167 17 16.4792 16.9042 16.2875 16.7125C16.0958 16.5208 16 16.2833 16 16V8.4Z" fill="black"/>
</svg>
