<svg width="24" height="24" viewBox="0 0 24 24" fill="none" xmlns="http://www.w3.org/2000/svg">
<path d="M12 12.5752C11.8667 12.5752 11.7417 12.5542 11.625 12.5122C11.5083 12.4708 11.4 12.4002 11.3 12.3002L6.7 7.70018C6.51667 7.51685 6.421 7.28751 6.413 7.01218C6.40433 6.73751 6.5 6.50018 6.7 6.30018C6.88333 6.11685 7.11667 6.02518 7.4 6.02518C7.68333 6.02518 7.91667 6.11685 8.1 6.30018L12 10.1752L15.9 6.30018C16.0833 6.11685 16.3123 6.02085 16.587 6.01218C16.8623 6.00418 17.1 6.10018 17.3 6.30018C17.4833 6.48351 17.575 6.71685 17.575 7.00018C17.575 7.28351 17.4833 7.51685 17.3 7.70018L12.7 12.3002C12.6 12.4002 12.4917 12.4708 12.375 12.5122C12.2583 12.5542 12.1333 12.5752 12 12.5752ZM12 18.5752C11.8667 18.5752 11.7417 18.5542 11.625 18.5122C11.5083 18.4708 11.4 18.4002 11.3 18.3002L6.7 13.7002C6.51667 13.5168 6.421 13.2875 6.413 13.0122C6.40433 12.7375 6.5 12.5002 6.7 12.3002C6.88333 12.1168 7.11667 12.0252 7.4 12.0252C7.68333 12.0252 7.91667 12.1168 8.1 12.3002L12 16.1752L15.9 12.3002C16.0833 12.1168 16.3123 12.0208 16.587 12.0122C16.8623 12.0042 17.1 12.1002 17.3 12.3002C17.4833 12.4835 17.575 12.7168 17.575 13.0002C17.575 13.2835 17.4833 13.5168 17.3 13.7002L12.7 18.3002C12.6 18.4002 12.4917 18.4708 12.375 18.5122C12.2583 18.5542 12.1333 18.5752 12 18.5752Z" fill="black"/>
</svg>
