<svg width="24" height="24" viewBox="0 0 24 24" fill="none" xmlns="http://www.w3.org/2000/svg">
<path d="M6 21.9992C5.16667 21.9992 4.45833 21.7076 3.875 21.1242C3.29167 20.5409 3 19.8326 3 18.9992V16.9992C3 16.7159 3.096 16.4786 3.288 16.2872C3.47933 16.0952 3.71667 15.9992 4 15.9992H6V2.72422C6 2.57422 6.06667 2.48255 6.2 2.44922C6.33333 2.41589 6.46667 2.46589 6.6 2.59922L7.5 3.49922L8.65 2.34922C8.75 2.24922 8.86667 2.19922 9 2.19922C9.13333 2.19922 9.25 2.24922 9.35 2.34922L10.5 3.49922L11.65 2.34922C11.75 2.24922 11.8667 2.19922 12 2.19922C12.1333 2.19922 12.25 2.24922 12.35 2.34922L13.5 3.49922L14.65 2.34922C14.75 2.24922 14.8667 2.19922 15 2.19922C15.1333 2.19922 15.25 2.24922 15.35 2.34922L16.5 3.49922L17.65 2.34922C17.75 2.24922 17.8667 2.19922 18 2.19922C18.1333 2.19922 18.25 2.24922 18.35 2.34922L19.5 3.49922L20.4 2.59922C20.5333 2.46589 20.6667 2.41155 20.8 2.43622C20.9333 2.46155 21 2.55755 21 2.72422V18.9992C21 19.8326 20.7083 20.5409 20.125 21.1242C19.5417 21.7076 18.8333 21.9992 18 21.9992H6ZM18 19.9992C18.2833 19.9992 18.5207 19.9032 18.712 19.7112C18.904 19.5199 19 19.2826 19 18.9992V4.99922H8V15.9992H16C16.2833 15.9992 16.5207 16.0952 16.712 16.2872C16.904 16.4786 17 16.7159 17 16.9992V18.9992C17 19.2826 17.096 19.5199 17.288 19.7112C17.4793 19.9032 17.7167 19.9992 18 19.9992ZM9.975 8.99922C9.69167 8.99922 9.45833 8.90322 9.275 8.71122C9.09167 8.51989 9 8.28255 9 7.99922C9 7.71589 9.096 7.47822 9.288 7.28622C9.47933 7.09489 9.71667 6.99922 10 6.99922H14C14.2833 6.99922 14.521 7.09489 14.713 7.28622C14.9043 7.47822 15 7.71589 15 7.99922C15 8.28255 14.9043 8.51989 14.713 8.71122C14.521 8.90322 14.2833 8.99922 14 8.99922H9.975ZM9.975 11.9992C9.69167 11.9992 9.45833 11.9032 9.275 11.7112C9.09167 11.5199 9 11.2826 9 10.9992C9 10.7159 9.096 10.4782 9.288 10.2862C9.47933 10.0949 9.71667 9.99922 10 9.99922H14C14.2833 9.99922 14.521 10.0949 14.713 10.2862C14.9043 10.4782 15 10.7159 15 10.9992C15 11.2826 14.9043 11.5199 14.713 11.7112C14.521 11.9032 14.2833 11.9992 14 11.9992H9.975ZM17 8.99922C16.7167 8.99922 16.4793 8.90322 16.288 8.71122C16.096 8.51989 16 8.28255 16 7.99922C16 7.71589 16.096 7.47822 16.288 7.28622C16.4793 7.09489 16.7167 6.99922 17 6.99922C17.2833 6.99922 17.5207 7.09489 17.712 7.28622C17.904 7.47822 18 7.71589 18 7.99922C18 8.28255 17.904 8.51989 17.712 8.71122C17.5207 8.90322 17.2833 8.99922 17 8.99922ZM17 11.9992C16.7167 11.9992 16.4793 11.9032 16.288 11.7112C16.096 11.5199 16 11.2826 16 10.9992C16 10.7159 16.096 10.4782 16.288 10.2862C16.4793 10.0949 16.7167 9.99922 17 9.99922C17.2833 9.99922 17.5207 10.0949 17.712 10.2862C17.904 10.4782 18 10.7159 18 10.9992C18 11.2826 17.904 11.5199 17.712 11.7112C17.5207 11.9032 17.2833 11.9992 17 11.9992Z" fill="black"/>
</svg>
