<svg width="24" height="24" viewBox="0 0 24 24" fill="none" xmlns="http://www.w3.org/2000/svg">
<path d="M12 20.5254C11.7833 20.5254 11.571 20.4881 11.363 20.4134C11.1543 20.3381 10.9583 20.2337 10.775 20.1004L4.025 14.8504C3.75833 14.6504 3.62933 14.3877 3.638 14.0624C3.646 13.7377 3.78333 13.4754 4.05 13.2754C4.23333 13.1421 4.43333 13.0754 4.65 13.0754C4.86667 13.0754 5.06667 13.1421 5.25 13.2754L12 18.5004L18.75 13.2754C18.9333 13.1421 19.1333 13.0754 19.35 13.0754C19.5667 13.0754 19.7667 13.1421 19.95 13.2754C20.2167 13.4754 20.3543 13.7377 20.363 14.0624C20.371 14.3877 20.2417 14.6504 19.975 14.8504L13.225 20.1004C13.0417 20.2337 12.846 20.3381 12.638 20.4134C12.4293 20.4881 12.2167 20.5254 12 20.5254ZM12 15.4754C11.7833 15.4754 11.571 15.4381 11.363 15.3634C11.1543 15.2881 10.9583 15.1837 10.775 15.0504L4.025 9.80039C3.89167 9.70039 3.79167 9.57972 3.725 9.43839C3.65833 9.29639 3.625 9.15039 3.625 9.00039C3.625 8.85039 3.65833 8.70439 3.725 8.56239C3.79167 8.42106 3.89167 8.30039 4.025 8.20039L10.775 2.95039C10.9583 2.81706 11.1543 2.71272 11.363 2.63739C11.571 2.56272 11.7833 2.52539 12 2.52539C12.2167 2.52539 12.4293 2.56272 12.638 2.63739C12.846 2.71272 13.0417 2.81706 13.225 2.95039L19.975 8.20039C20.1083 8.30039 20.2083 8.42106 20.275 8.56239C20.3417 8.70439 20.375 8.85039 20.375 9.00039C20.375 9.15039 20.3417 9.29639 20.275 9.43839C20.2083 9.57972 20.1083 9.70039 19.975 9.80039L13.225 15.0504C13.0417 15.1837 12.846 15.2881 12.638 15.3634C12.4293 15.4381 12.2167 15.4754 12 15.4754Z" fill="black"/>
</svg>
