<svg width="24" height="24" viewBox="0 0 24 24" fill="none" xmlns="http://www.w3.org/2000/svg">
<path d="M6.12499 12.149L3.79999 11.149C3.46665 11.0157 3.27082 10.774 3.21249 10.424C3.15415 10.074 3.24999 9.77405 3.49999 9.52405L6.64999 6.37405C6.88332 6.14071 7.15832 5.97405 7.47499 5.87405C7.79165 5.77405 8.11665 5.75738 8.44999 5.82405L9.74999 6.09905C8.86665 7.14905 8.16249 8.10321 7.63749 8.96155C7.11249 9.81988 6.60832 10.8824 6.12499 12.149ZM20.825 2.39905C20.9583 2.39905 21.0917 2.43238 21.225 2.49905C21.3583 2.56571 21.475 2.64905 21.575 2.74905C21.675 2.84905 21.7583 2.96571 21.825 3.09905C21.8917 3.23238 21.925 3.36571 21.925 3.49905C21.9917 5.04905 21.6625 6.65738 20.9375 8.32405C20.2125 9.99071 19.1917 11.4824 17.875 12.799C16.975 13.699 16.1083 14.4199 15.275 14.9615C14.4417 15.5032 13.4583 16.0157 12.325 16.499C12.1083 16.5824 11.8875 16.624 11.6625 16.624C11.4375 16.624 11.2417 16.5407 11.075 16.374L7.94999 13.249C7.78332 13.0824 7.69999 12.8865 7.69999 12.6615C7.69999 12.4365 7.74165 12.2157 7.82499 11.999C8.30832 10.8824 8.82082 9.90321 9.36249 9.06155C9.90415 8.21988 10.625 7.34905 11.525 6.44905C12.8417 5.13238 14.3333 4.11155 16 3.38655C17.6667 2.66155 19.275 2.33238 20.825 2.39905ZM14.475 9.84905C14.8583 10.2324 15.3292 10.424 15.8875 10.424C16.4458 10.424 16.9167 10.2324 17.3 9.84905C17.6833 9.46571 17.875 8.99488 17.875 8.43655C17.875 7.87821 17.6833 7.40738 17.3 7.02405C16.9167 6.64071 16.4458 6.44905 15.8875 6.44905C15.3292 6.44905 14.8583 6.64071 14.475 7.02405C14.0917 7.40738 13.9 7.87821 13.9 8.43655C13.9 8.99488 14.0917 9.46571 14.475 9.84905ZM12.175 18.199C13.4417 17.7157 14.5083 17.2115 15.375 16.6865C16.2417 16.1615 17.2 15.4574 18.25 14.574L18.5 15.874C18.5667 16.2074 18.55 16.5365 18.45 16.8615C18.35 17.1865 18.1833 17.4657 17.95 17.699L14.8 20.849C14.55 21.099 14.25 21.1907 13.9 21.124C13.55 21.0574 13.3083 20.8574 13.175 20.524L12.175 18.199ZM4.04999 16.0439C4.63332 15.464 5.34336 15.1699 6.18011 15.1615C7.01685 15.1532 7.72518 15.4407 8.30511 16.024C8.88503 16.6074 9.17499 17.3157 9.17499 18.149C9.17499 18.9824 8.88332 19.6907 8.29999 20.274C7.88332 20.6907 7.18749 21.049 6.21249 21.349C5.23749 21.649 3.89165 21.9157 2.17499 22.149C2.40832 20.4324 2.67499 19.0892 2.97499 18.1196C3.27499 17.15 3.63332 16.4581 4.04999 16.0439Z" fill="black"/>
</svg>
