<svg width="24" height="24" viewBox="0 0 24 24" fill="none" xmlns="http://www.w3.org/2000/svg">
<path d="M19 8.29995C18.9167 8.29995 18.8293 8.27495 18.738 8.22495C18.646 8.17495 18.5833 8.09995 18.55 7.99995L17.75 6.24995L16 5.44995C15.9 5.41662 15.825 5.35395 15.775 5.26195C15.725 5.17062 15.7 5.08328 15.7 4.99995C15.7 4.91662 15.725 4.82895 15.775 4.73695C15.825 4.64562 15.9 4.58328 16 4.54995L17.75 3.74995L18.55 1.99995C18.5833 1.89995 18.646 1.82495 18.738 1.77495C18.8293 1.72495 18.9167 1.69995 19 1.69995C19.0833 1.69995 19.171 1.72495 19.263 1.77495C19.3543 1.82495 19.4167 1.89995 19.45 1.99995L20.25 3.74995L22 4.54995C22.1 4.58328 22.175 4.64562 22.225 4.73695C22.275 4.82895 22.3 4.91662 22.3 4.99995C22.3 5.08328 22.275 5.17062 22.225 5.26195C22.175 5.35395 22.1 5.41662 22 5.44995L20.25 6.24995L19.45 7.99995C19.4167 8.09995 19.3543 8.17495 19.263 8.22495C19.171 8.27495 19.0833 8.29995 19 8.29995ZM19 22.2999C18.9167 22.2999 18.8293 22.275 18.738 22.225C18.646 22.175 18.5833 22.1 18.55 22L17.75 20.25L16 19.45C15.9 19.4166 15.825 19.3539 15.775 19.2619C15.725 19.1706 15.7 19.0833 15.7 19C15.7 18.9166 15.725 18.8293 15.775 18.738C15.825 18.646 15.9 18.5833 16 18.5499L17.75 17.75L18.55 16C18.5833 15.9 18.646 15.825 18.738 15.775C18.8293 15.725 18.9167 15.7 19 15.7C19.0833 15.7 19.171 15.725 19.263 15.775C19.3543 15.825 19.4167 15.9 19.45 16L20.25 17.75L22 18.5499C22.1 18.5833 22.175 18.646 22.225 18.738C22.275 18.8293 22.3 18.9166 22.3 19C22.3 19.0833 22.275 19.1706 22.225 19.2619C22.175 19.3539 22.1 19.4166 22 19.45L20.25 20.25L19.45 22C19.4167 22.1 19.3543 22.175 19.263 22.225C19.171 22.275 19.0833 22.2999 19 22.2999ZM8.99999 18.575C8.81665 18.575 8.64165 18.525 8.47499 18.4249C8.30832 18.3249 8.18332 18.1833 8.09999 18L6.49999 14.5L2.99999 12.9C2.81665 12.8166 2.67499 12.6916 2.57499 12.525C2.47499 12.3583 2.42499 12.1833 2.42499 12C2.42499 11.8166 2.47499 11.6416 2.57499 11.475C2.67499 11.3083 2.81665 11.1833 2.99999 11.1L6.49999 9.49995L8.09999 5.99995C8.18332 5.81662 8.30832 5.67495 8.47499 5.57495C8.64165 5.47495 8.81665 5.42495 8.99999 5.42495C9.18332 5.42495 9.35832 5.47495 9.52499 5.57495C9.69165 5.67495 9.81665 5.81662 9.89999 5.99995L11.5 9.49995L15 11.1C15.1833 11.1833 15.325 11.3083 15.425 11.475C15.525 11.6416 15.575 11.8166 15.575 12C15.575 12.1833 15.525 12.3583 15.425 12.525C15.325 12.6916 15.1833 12.8166 15 12.9L11.5 14.5L9.89999 18C9.81665 18.1833 9.69165 18.3249 9.52499 18.4249C9.35832 18.525 9.18332 18.575 8.99999 18.575Z" fill="black"/>
</svg>
