<svg width="24" height="24" viewBox="0 0 24 24" fill="none" xmlns="http://www.w3.org/2000/svg">
<path d="M12 21.9998C11.7167 21.9998 11.4793 21.9038 11.288 21.7118C11.096 21.5205 11 21.2831 11 20.9998V5.8248L7.09999 9.6998C6.91665 9.88314 6.68732 9.97914 6.41199 9.9878C6.13732 9.9958 5.89999 9.8998 5.69999 9.6998C5.51665 9.51647 5.42499 9.28314 5.42499 8.9998C5.42499 8.71647 5.51665 8.48314 5.69999 8.2998L11.3 2.6998C11.4 2.5998 11.5083 2.5288 11.625 2.4868C11.7417 2.44547 11.8667 2.4248 12 2.4248C12.1333 2.4248 12.2583 2.44547 12.375 2.4868C12.4917 2.5288 12.6 2.5998 12.7 2.6998L18.3 8.2998C18.4833 8.48314 18.575 8.71214 18.575 8.9868C18.575 9.26214 18.4833 9.4998 18.3 9.6998C18.1 9.8998 17.8623 9.9998 17.587 9.9998C17.3123 9.9998 17.075 9.8998 16.875 9.6998L13 5.8248V20.9998C13 21.2831 12.9043 21.5205 12.713 21.7118C12.521 21.9038 12.2833 21.9998 12 21.9998Z" fill="black"/>
</svg>
